<?xml version="1.0" encoding="UTF-8"?>
<svg id="Layer_1" data-name="Layer 1" xmlns="http://www.w3.org/2000/svg" viewBox="0 0 1000 1000">
  <defs>
    <style>
      .cls-1 {
        fill: none;
        stroke: #2ebbb1;
        stroke-miterlimit: 10;
        stroke-width: 30px;
      }

      .cls-2 {
        fill: #423b96;
      }

      .cls-2, .cls-3 {
        stroke-width: 0px;
      }

      .cls-3 {
        fill: #2ebbb1;
      }
    </style>
  </defs>
  <path class="cls-2" d="m800.82,370.49c-6.48-160.22-138.08-288.21-299.75-288.77-165.66-.58-301.53,134.22-302.2,299.89-.17,42.08,8.29,82.17,23.72,118.59,66.07,178.94,249.68,392.86,274.58,416.92,1.58,1.53,4.07,1.56,5.69.07,27.25-25.06,239.97-258.21,288.35-457.5.5-1.89.94-3.81,1.4-5.71.43-1.91.92-3.82,1.32-5.73,3.06-13.82,5.15-27.99,6.25-42.45.04-.55.08-1.11.12-1.66.49-7.04.83-14.12.83-21.28,0-4.4-.13-8.46-.31-12.36Zm-184,218.34c0,4.56-3.7,8.26-8.26,8.26h-202.88c-4.56,0-8.26-3.7-8.26-8.26v-209.53c0-4.56,3.7-8.26,8.26-8.26h14.7l-10.93-39.51c-13.69-49.5,15.44-100.9,64.94-114.59,49.5-13.69,100.9,15.44,114.59,64.94l2.77,10-24.81,6.86-2.77-10c-9.91-35.82-47.1-56.89-82.92-46.99-35.82,9.91-56.89,47.1-46.99,82.92l12.83,46.37h161.47c4.56,0,8.26,3.7,8.26,8.26v209.53Z"/>
  <g>
    <path class="cls-1" d="m500.05,958.29c-11.5,0-22.4-4.41-30.67-12.4-15.16-14.65-69.5-77.27-126.42-155.64-51.73-71.22-120.98-176.71-157.57-275.33-17.78-42.31-26.7-87.21-26.52-133.48.76-187.32,153.79-339.73,341.14-339.73h1.2c88.43.31,172.14,34.31,235.73,95.75,63.38,61.23,100.25,143.36,103.84,231.26.24,4.96.35,9.58.35,14.13,0,7.34-.29,14.98-.93,24.06l-.15,1.97c-1.22,16.1-3.59,32.22-7.04,47.84-.3,1.42-.63,2.83-.97,4.25-.15.61-.29,1.22-.43,1.84l-.46,1.92c-.38,1.58-.76,3.17-1.17,4.74-11.94,49.02-33.88,103.28-65.23,161.28-25.24,46.7-56.62,96-93.28,146.52-65.18,89.85-126.57,155.58-141.55,169.37-8.17,7.51-18.79,11.66-29.88,11.66h0Zm76.77-401.19v-146.05h-129.73l-9.68-7.36v153.42h139.41Z"/>
    <path class="cls-2" d="m800.82,370.49c-6.48-160.22-138.08-288.21-299.75-288.77-165.66-.58-301.53,134.22-302.2,299.89-.17,42.08,8.29,82.17,23.72,118.59,66.07,178.94,249.68,392.86,274.58,416.92,1.58,1.53,4.07,1.56,5.69.07,27.25-25.06,239.97-258.21,288.35-457.5.5-1.89.94-3.81,1.4-5.71.43-1.91.92-3.82,1.32-5.73,3.06-13.82,5.15-27.99,6.25-42.45.04-.55.08-1.11.12-1.66.49-7.04.83-14.12.83-21.28,0-4.4-.13-8.46-.31-12.36Zm-184,218.34c0,4.56-3.7,8.26-8.26,8.26h-202.88c-4.56,0-8.26-3.7-8.26-8.26v-209.53c0-4.56,3.7-8.26,8.26-8.26h14.7l-10.93-39.51c-13.69-49.5,15.44-100.9,64.94-114.59,49.5-13.69,100.9,15.44,114.59,64.94l2.77,10-24.81,6.86-2.77-10c-9.91-35.82-47.1-56.89-82.92-46.99-35.82,9.91-56.89,47.1-46.99,82.92l12.83,46.37h161.47c4.56,0,8.26,3.7,8.26,8.26v209.53Z"/>
  </g>
  <path class="cls-3" d="m405.68,627.09c-21.1,0-38.26-17.17-38.26-38.26v-209.53c0-12.62,6.14-23.84,15.6-30.81l-2.48-8.96c-8.76-31.66-4.64-64.87,11.59-93.51,16.23-28.64,42.61-49.24,74.26-58,10.71-2.96,21.75-4.47,32.8-4.47,55.19,0,104,37.14,118.71,90.32l10.76,38.92-82.64,22.86-10.76-38.92c-4.47-16.15-19.29-27.43-36.06-27.43-3.34,0-6.68.46-9.95,1.36-9.6,2.65-17.6,8.91-22.54,17.62-4.93,8.71-6.19,18.79-3.53,28.39l6.74,24.37h138.64c21.1,0,38.26,17.17,38.26,38.26v209.53c0,21.1-17.17,38.26-38.26,38.26h-202.88Z"/>
  <path class="cls-2" d="m616.83,588.83c0,4.56-3.7,8.26-8.26,8.26h-202.88c-4.56,0-8.26-3.7-8.26-8.26v-209.53c0-4.56,3.7-8.26,8.26-8.26h14.7l-10.93-39.51c-13.69-49.5,15.44-100.9,64.94-114.59,49.5-13.69,100.9,15.44,114.59,64.94l2.77,10-24.81,6.86-2.77-10c-9.91-35.82-47.1-56.89-82.92-46.99-35.82,9.91-56.89,47.1-46.99,82.92l12.83,46.37h161.47c4.56,0,8.26,3.7,8.26,8.26v209.53Z"/>
  <path class="cls-3" d="m529.03,465.57c0-12.1-9.81-21.91-21.91-21.91s-21.91,9.81-21.91,21.91c0,7.21,3.5,13.59,8.88,17.58l-6.97,49.54h40l-6.97-49.54c5.38-3.99,8.88-10.37,8.88-17.58Z"/>
</svg>