<?xml version="1.0" encoding="UTF-8"?>
<svg id="Layer_1" data-name="Layer 1" xmlns="http://www.w3.org/2000/svg" viewBox="0 0 1000 1000">
  <defs>
    <style>
      .cls-1 {
        fill: none;
        stroke: #2ebbb1;
        stroke-miterlimit: 10;
        stroke-width: 30px;
      }

      .cls-2 {
        fill: #423b96;
      }

      .cls-2, .cls-3 {
        stroke-width: 0px;
      }

      .cls-3 {
        fill: #2ebbb1;
      }
    </style>
  </defs>
  <g>
    <polygon class="cls-3" points="440.07 712.28 259.07 383.8 292.59 265.37 411.02 251.96 580.85 332.41 737.27 361.46 714.93 502.23 440.07 712.28"/>
    <path class="cls-2" d="m556.62,432.46l-161.42-37.69c-3.7,6.43-8.5,12.14-14.17,16.89l46.9,101.38.34-.03c10.62-.49,20.61,2.58,28.76,8.17l104.19-64.65c-2.62-6.97-4.22-14.45-4.58-22.29-.02-.59-.03-1.18-.03-1.77Z"/>
    <path class="cls-2" d="m800.82,370.49c-6.48-160.22-138.07-288.21-299.75-288.77-165.66-.58-301.53,134.22-302.2,299.89-.17,42.08,8.29,82.17,23.72,118.59,66.07,178.94,249.68,392.86,274.58,416.92,1.58,1.53,4.07,1.56,5.69.07,27.25-25.06,239.97-258.21,288.35-457.5.5-1.89.94-3.81,1.4-5.71.43-1.91.92-3.82,1.32-5.73,3.06-13.82,5.15-27.99,6.25-42.45.04-.55.08-1.11.12-1.66.49-7.04.83-14.12.83-21.28,0-4.4-.13-8.46-.31-12.36Zm-168.08,133.14c-21.1.97-40.49-7.14-54.45-20.88l-102.67,63.7c1.12,3.68,1.8,7.56,1.98,11.57,1.2,26.06-18.95,48.15-45.02,49.35-26.05,1.19-48.15-18.96-49.34-45.02-.68-14.77,5.5-28.25,15.72-37.39l-46.18-99.81c-3.02.59-6.11.97-9.28,1.12-34.75,1.59-64.21-25.29-65.81-60.03-1.59-34.75,25.29-64.21,60.04-65.8,34.74-1.59,64.2,25.28,65.8,60.03.04,1.21.07,2.41.04,3.61l159.28,37.2c10.87-24.35,34.74-41.83,63.2-43.13,40.17-1.84,74.22,29.24,76.06,69.41,1.84,40.17-29.22,74.23-69.39,76.07Z"/>
  </g>
  <path class="cls-1" d="m500.05,958.29c-11.5,0-22.4-4.41-30.67-12.4-15.16-14.65-69.5-77.27-126.42-155.64-51.73-71.22-120.98-176.71-157.57-275.33-17.78-42.31-26.7-87.21-26.52-133.48.76-187.32,153.79-339.73,341.14-339.73h1.2c88.43.31,172.14,34.31,235.73,95.75,63.38,61.23,100.25,143.36,103.84,231.26.24,4.96.35,9.58.35,14.13,0,7.34-.29,14.98-.93,24.06l-.15,1.97c-1.22,16.1-3.59,32.22-7.04,47.84-.3,1.42-.63,2.83-.97,4.25-.15.61-.29,1.22-.43,1.84l-.46,1.92c-.38,1.58-.76,3.17-1.17,4.74-11.94,49.02-33.88,103.28-65.23,161.28-25.24,46.7-56.62,96-93.28,146.52-65.18,89.85-126.57,155.58-141.55,169.37-8.17,7.51-18.79,11.66-29.88,11.66h0Z"/>
</svg>