<?xml version="1.0" encoding="UTF-8"?>
<svg id="Layer_1" data-name="Layer 1" xmlns="http://www.w3.org/2000/svg" viewBox="0 0 1000 1000">
  <defs>
    <style>
      .cls-1 {
        fill: none;
        stroke-width: 30px;
      }

      .cls-1, .cls-2 {
        stroke: #2ebbb1;
        stroke-miterlimit: 10;
      }

      .cls-2 {
        fill: #fff;
      }

      .cls-3 {
        fill: #423b96;
        stroke-width: 0px;
      }
    </style>
  </defs>
  <path class="cls-3" d="m800.82,370.49c-6.48-160.22-138.08-288.21-299.75-288.77-165.66-.58-301.53,134.22-302.2,299.89-.17,42.08,8.29,82.17,23.72,118.59,66.07,178.94,249.68,392.86,274.58,416.92,1.58,1.53,4.07,1.56,5.69.07,27.25-25.06,239.97-258.21,288.35-457.5.5-1.89.94-3.81,1.4-5.71.43-1.91.92-3.82,1.32-5.73,3.06-13.82,5.15-27.99,6.25-42.45.04-.55.08-1.11.12-1.66.49-7.04.83-14.12.83-21.28,0-4.4-.13-8.46-.31-12.36h0Z"/>
  <path class="cls-1" d="m500.05,958.29c-11.5,0-22.4-4.41-30.67-12.4-15.16-14.65-69.5-77.27-126.42-155.64-51.73-71.22-120.98-176.71-157.57-275.33-17.78-42.31-26.7-87.21-26.52-133.48.76-187.32,153.79-339.73,341.14-339.73h1.2c88.43.31,172.14,34.31,235.73,95.75,63.38,61.23,100.25,143.36,103.84,231.26.24,4.96.35,9.58.35,14.13,0,7.34-.29,14.98-.93,24.06l-.15,1.97c-1.22,16.1-3.59,32.22-7.04,47.84-.3,1.42-.63,2.83-.97,4.25-.15.61-.29,1.22-.43,1.84l-.46,1.92c-.38,1.58-.76,3.17-1.17,4.74-11.94,49.02-33.88,103.28-65.23,161.28-25.24,46.7-56.62,96-93.28,146.52-65.18,89.85-126.57,155.58-141.55,169.37-8.17,7.51-18.79,11.66-29.88,11.66h.01Z"/>
  <path class="cls-2" d="m479.34,582.38c25.28,0,47.9-3.82,64.38-9.96,14.95-5.75,24.13-13.05,24.13-20.32,0-7.66-9.18-14.94-24.13-20.32-13.41-5.35-31.42-8.8-51.74-9.95v25.65c0,3.86-1.91,7.68-4.21,10.36-2.68,2.3-6.52,4.21-10.73,4.21h-2.69c-4.98,0-9.58-1.91-12.65-5.36-3.06-3.06-5.35-7.28-5.35-12.25v-21.85c-16.1,1.54-30.28,4.59-41.77,9.19-14.94,5.38-24.15,12.66-24.15,20.32s9.21,14.57,24.15,20.32c16.48,6.14,39.47,9.96,64.76,9.96h0Zm43.67-305.79l146.78,56.32,1.53.77-1.53.37-147.91,67.46h-.39c-4.59-.39-8.05-1.54-10.72-4.21-2.69-2.68-4.23-6.15-4.98-11.12h0v-93.11h0c0-6.53,1.52-10.74,4.59-13.42,3.06-2.68,7.28-3.83,12.63-3.45v.39Zm-51.33-45.98h4.97c13.79,0,25.29,11.11,25.29,24.9h0c0,7.67-4.23,14.94-9.97,19.16v236.81c21.46,1.15,41.01,4.97,55.56,10.35,19.18,7.28,31.05,18.01,31.05,30.27s-11.87,22.62-31.05,29.89c-17.62,6.89-41.75,11.12-68.2,11.12s-50.96-4.23-68.59-11.12c-19.16-7.27-31.05-17.62-31.05-29.89s11.88-22.99,31.05-30.27c12.65-4.6,28.36-8.06,45.6-9.59v-237.57c-5.76-4.23-9.59-11.5-9.59-19.16h0c0-13.79,11.12-24.9,24.91-24.9h0Z"/>
</svg>