<?xml version="1.0" encoding="UTF-8"?>
<svg id="Layer_1" data-name="Layer 1" xmlns="http://www.w3.org/2000/svg" viewBox="0 0 1000 1000">
  <defs>
    <style>
      .cls-1 {
        fill: #2ebbb1;
        stroke: #ebeded;
        stroke-width: 20.41px;
      }

      .cls-1, .cls-2 {
        stroke-miterlimit: 10;
      }

      .cls-2 {
        fill: none;
        stroke: #2ebbb1;
        stroke-width: 30px;
      }

      .cls-3 {
        fill: #423b96;
        stroke-width: 0px;
      }
    </style>
  </defs>
  <path class="cls-3" d="m800.82,370.49c-6.48-160.22-138.08-288.21-299.75-288.77-165.66-.58-301.53,134.22-302.2,299.89-.17,42.08,8.29,82.17,23.72,118.59,66.07,178.94,249.68,392.86,274.58,416.92,1.58,1.53,4.07,1.56,5.69.07,27.25-25.06,239.97-258.21,288.35-457.5.5-1.89.94-3.81,1.4-5.71.43-1.91.92-3.82,1.32-5.73,3.06-13.82,5.15-27.99,6.25-42.45.04-.55.08-1.11.12-1.66.49-7.04.83-14.12.83-21.28,0-4.4-.13-8.46-.31-12.36h0Z"/>
  <path class="cls-2" d="m500.05,958.29c-11.5,0-22.4-4.41-30.67-12.4-15.16-14.65-69.5-77.27-126.42-155.64-51.73-71.22-120.98-176.71-157.57-275.33-17.78-42.31-26.7-87.21-26.52-133.48.76-187.32,153.79-339.73,341.14-339.73h1.2c88.43.31,172.14,34.31,235.73,95.75,63.38,61.23,100.25,143.36,103.84,231.26.24,4.96.35,9.58.35,14.13,0,7.34-.29,14.98-.93,24.06l-.15,1.97c-1.22,16.1-3.59,32.22-7.04,47.84-.3,1.42-.63,2.83-.97,4.25-.15.61-.29,1.22-.43,1.84l-.46,1.92c-.38,1.58-.76,3.17-1.17,4.74-11.94,49.02-33.88,103.28-65.23,161.28-25.24,46.7-56.62,96-93.28,146.52-65.18,89.85-126.57,155.58-141.55,169.37-8.17,7.51-18.79,11.66-29.88,11.66h.01Z"/>
  <path class="cls-1" d="m523.34,322.32h-40.02v34.96c-12.1,2.28-23.36,6.94-33.24,13.55l-26.52-26.52-28.3,28.3,27.33,27.33c-4.12,6.94-7.32,14.46-9.46,22.43h-36.53v40.02h34.96c2.28,12.1,6.94,23.36,13.55,33.24l-23.18,23.18,28.3,28.3,24-23.99c8.85,5.25,18.64,9.06,29.09,11.03v34.96h40.02v-36.52c11.15-3,21.42-8.07,30.42-14.81l26.68,26.67,28.3-28.3-28.92-28.92c4.02-7.7,6.96-16.04,8.61-24.84h34.96v-40.02h-36.52c-2.15-7.97-5.34-15.49-9.46-22.43l27.33-27.33-28.3-28.3-26.52,26.52c-8.03-5.37-17.01-9.41-26.57-11.98v-36.52Zm13.34,123.38c0,20.22-16.46,36.68-36.68,36.68s-36.68-16.46-36.68-36.68,16.46-36.68,36.68-36.68,36.68,16.46,36.68,36.68Z"/>
</svg>