<?xml version="1.0" encoding="UTF-8"?>
<svg id="Layer_1" data-name="Layer 1" xmlns="http://www.w3.org/2000/svg" viewBox="0 0 1000 1000">
  <defs>
    <style>
      .cls-1 {
        fill: none;
        stroke: #2ebbb1;
        stroke-miterlimit: 10;
        stroke-width: 30px;
      }

      .cls-2 {
        fill: #423b96;
      }

      .cls-2, .cls-3 {
        stroke-width: 0px;
      }

      .cls-3 {
        fill: #2ebbb1;
      }
    </style>
  </defs>
  <path class="cls-2" d="m800.82,370.49c-6.48-160.22-138.07-288.21-299.75-288.77-165.66-.58-301.53,134.22-302.2,299.89-.17,42.08,8.29,82.17,23.72,118.59,66.07,178.94,249.68,392.86,274.58,416.92,1.58,1.53,4.07,1.56,5.69.07,27.25-25.06,239.97-258.21,288.35-457.5.5-1.89.94-3.81,1.4-5.71.43-1.91.92-3.82,1.32-5.73,3.06-13.82,5.15-27.99,6.25-42.45.04-.55.08-1.11.12-1.66.49-7.04.83-14.12.83-21.28,0-4.4-.13-8.46-.31-12.36Zm-126.05,126.51c-16.34,40.03-39.22,74.43-67.99,102.23-49.62,47.96-99.85,59.68-101.96,60.15-1.59.36-3.2.54-4.82.54-1.23,0-2.47-.1-3.69-.31-1.43-.24-14.54-2.62-33.53-10.72-11.04-4.71-21.95-10.45-32.43-17.07-13.04-8.24-25.46-17.86-36.91-28.62-28.9-27.15-51.87-61.48-68.25-102.06-9.58-23.72-16.97-49.86-21.98-77.68-5.45-30.26-8.21-63.28-8.21-98.14,0-8.7,5.13-16.58,13.09-20.1l151.44-66.92c11.1-4.91,24.08.12,28.98,11.22,4.91,11.1-.12,24.08-11.22,28.98l-138.18,61.06c1.29,54.62,10.05,102.77,26.1,143.29,13.67,34.51,32.65,63.61,56.41,86.49,21.1,20.32,42.24,31.98,56.26,38.19,9.48,4.19,17.09,6.54,21.56,7.73,4.5-1.42,12.2-4.17,21.78-8.83,14.16-6.89,35.51-19.52,56.81-40.56,23.92-23.63,43.01-52.96,56.74-87.18,16.01-39.9,24.77-86.65,26.11-139.14l-49.5-21.87-109.06,193.09c-3.38,5.98-9.36,10.04-16.16,10.97-6.81.93-13.65-1.38-18.51-6.23l-57.29-57.29c-8.58-8.58-8.58-22.5,0-31.08,8.58-8.58,22.5-8.58,31.08,0l36.84,36.84,104.63-185.25c5.56-9.84,17.68-13.86,28.02-9.29l81,35.79c7.96,3.52,13.09,11.4,13.09,20.1,0,64.78-10.17,122.54-30.23,171.67Z"/>
  <path class="cls-3" d="m674.78,497c-16.34,40.03-39.22,74.43-67.99,102.23-49.62,47.96-99.85,59.68-101.96,60.15-1.59.36-3.2.54-4.82.54-1.23,0-2.47-.1-3.69-.31-1.43-.24-14.54-2.62-33.53-10.72-11.04-4.71-21.95-10.45-32.43-17.07-13.04-8.24-25.46-17.86-36.91-28.62-28.9-27.15-51.87-61.48-68.25-102.06-9.58-23.72-16.97-49.86-21.98-77.68-5.45-30.26-8.21-63.28-8.21-98.14,0-8.7,5.13-16.58,13.09-20.1l151.44-66.92c11.1-4.91,24.08.12,28.98,11.22,4.91,11.1-.12,24.08-11.22,28.98l-138.18,61.06c1.29,54.62,10.05,102.77,26.1,143.29,13.67,34.51,32.65,63.61,56.41,86.49,21.1,20.32,42.24,31.98,56.26,38.19,9.48,4.19,17.09,6.54,21.56,7.73,4.5-1.42,12.2-4.17,21.78-8.83,14.16-6.89,35.51-19.52,56.81-40.56,23.92-23.63,43.01-52.96,56.74-87.18,16.01-39.9,24.77-86.65,26.11-139.14l-49.5-21.87-109.06,193.09c-3.38,5.98-9.36,10.04-16.16,10.97-6.81.93-13.65-1.38-18.51-6.23l-57.29-57.29c-8.58-8.58-8.58-22.5,0-31.08,8.58-8.58,22.5-8.58,31.08,0l36.84,36.84,104.63-185.25c5.56-9.84,17.68-13.86,28.02-9.29l81,35.79c7.96,3.52,13.09,11.4,13.09,20.1,0,64.78-10.17,122.54-30.23,171.67Z"/>
  <path class="cls-1" d="m500.05,958.29c-11.5,0-22.4-4.41-30.67-12.4-15.16-14.65-69.5-77.27-126.42-155.64-51.73-71.22-120.98-176.71-157.57-275.33-17.78-42.31-26.7-87.21-26.52-133.48.76-187.32,153.79-339.73,341.14-339.73h1.2c88.43.31,172.14,34.31,235.73,95.75,63.38,61.23,100.25,143.36,103.84,231.26.24,4.96.35,9.58.35,14.13,0,7.34-.29,14.98-.93,24.06l-.15,1.97c-1.22,16.1-3.59,32.22-7.04,47.84-.3,1.42-.63,2.83-.97,4.25-.15.61-.29,1.22-.43,1.84l-.46,1.92c-.38,1.58-.76,3.17-1.17,4.74-11.94,49.02-33.88,103.28-65.23,161.28-25.24,46.7-56.62,96-93.28,146.52-65.18,89.85-126.57,155.58-141.55,169.37-8.17,7.51-18.79,11.66-29.88,11.66h0Z"/>
</svg>