<?xml version="1.0" encoding="UTF-8"?>
<svg id="Layer_1" data-name="Layer 1" xmlns="http://www.w3.org/2000/svg" viewBox="0 0 35 35">
  <defs>
    <style>
      .cls-1, .cls-2, .cls-3, .cls-4, .cls-5, .cls-6, .cls-7, .cls-8, .cls-9, .cls-10, .cls-11, .cls-12, .cls-13, .cls-14 {
        stroke-width: 0px;
      }

      .cls-2 {
        fill: #f7f7f7;
      }

      .cls-3 {
        fill: #f7f9f9;
      }

      .cls-4 {
        fill: #c4c6c6;
      }

      .cls-5 {
        fill: #c9c9c9;
      }

      .cls-6 {
        fill: #cacccc;
      }

      .cls-7 {
        fill: #cccece;
      }

      .cls-8 {
        fill: #c6c6c6;
      }

      .cls-9 {
        fill: #fdfefe;
      }

      .cls-10 {
        fill: #fff;
      }

      .cls-11 {
        fill: #feffff;
      }

      .cls-12 {
        fill: #fcfcfc;
      }

      .cls-13 {
        fill: #fafcfc;
      }

      .cls-14 {
        fill: #010101;
        isolation: isolate;
        opacity: .5;
      }
    </style>
  </defs>
  <g>
    <g>
      <path class="cls-11" d="m11.75,29.54c0-.25.05-.44.15-.57s.23-.19.41-.19c.19,0,.34.06.42.19.1.13.14.32.14.58s-.05.44-.15.58c-.1.13-.23.2-.42.2-.1,0-.18-.02-.25-.05-.07-.03-.13-.08-.18-.16-.04-.06-.08-.15-.11-.24s-.03-.2-.03-.33h.02Zm.31,0c0,.16.02.3.06.38.04.1.11.14.2.14s.16-.04.2-.13.06-.22.06-.4c0-.08,0-.15-.01-.22,0-.06-.02-.12-.04-.17-.02-.04-.04-.08-.07-.11s-.07-.03-.13-.03c-.1,0-.16.04-.2.14-.04.08-.06.22-.06.39h-.01Z"/>
      <path class="cls-11" d="m13.74,30.04h.32v-.82l.03-.15-.12.13-.21.14-.12-.17.52-.39h.17v1.27h.32v.24h-.92v-.24h.01Z"/>
      <path class="cls-11" d="m20.97,29.54c0-.25.04-.44.15-.57.1-.13.23-.19.42-.19s.34.06.42.19c.1.13.14.32.14.58s-.05.44-.15.58c-.1.13-.23.2-.42.2-.1,0-.18-.02-.25-.05-.07-.03-.13-.08-.17-.16-.04-.06-.08-.15-.11-.24s-.03-.2-.03-.33h0Zm.31,0c0,.16.02.3.06.38.04.1.11.14.2.14s.16-.04.2-.13.06-.22.06-.4c0-.08,0-.15-.01-.22,0-.06-.02-.12-.04-.17-.02-.04-.04-.08-.08-.11-.03-.02-.07-.03-.13-.03-.1,0-.16.04-.2.14-.04.08-.06.22-.06.39h0Z"/>
      <path class="cls-11" d="m22.96,30.04h.32v-.82l.03-.15-.11.13-.21.14-.12-.17.52-.39h.17v1.27h.32v.24h-.92v-.24h0Z"/>
    </g>
    <g>
      <path class="cls-11" d="m20.94,31.81c0-.25.05-.44.15-.57s.23-.19.42-.19.34.06.43.19.14.32.14.58-.05.44-.15.58c-.1.13-.24.2-.42.2-.1,0-.18-.02-.25-.05-.07-.03-.13-.08-.17-.16-.04-.06-.08-.15-.11-.24s-.03-.2-.03-.32v-.02Zm.31,0c0,.16.02.3.06.38.04.1.11.14.2.14s.16-.04.2-.13.06-.22.06-.4c0-.08,0-.16-.01-.22,0-.06-.02-.12-.04-.17-.02-.04-.04-.08-.08-.11-.03-.02-.07-.03-.13-.03-.1,0-.16.04-.2.14-.04.08-.06.22-.06.39h0Z"/>
      <path class="cls-11" d="m22.92,32.31h.32v-.82l.04-.15-.12.13-.21.14-.12-.18.52-.39h.17v1.26h.31v.25h-.92v-.25h.01Z"/>
      <path class="cls-11" d="m11.86,32.31h.32v-.82l.04-.15-.11.13-.21.14-.12-.18.52-.39h.17v1.26h.32v.25h-.92v-.25h-.01Z"/>
      <path class="cls-11" d="m13.57,31.81c0-.25.05-.44.15-.57s.23-.19.41-.19c.19,0,.34.06.43.19s.14.32.14.58-.05.44-.15.58c-.1.13-.23.2-.42.2-.1,0-.18-.02-.25-.05-.07-.03-.13-.08-.18-.16-.04-.06-.07-.15-.11-.24-.02-.1-.03-.2-.03-.32v-.02Zm.31,0c0,.16.02.3.06.38.04.1.11.14.2.14s.16-.04.2-.13.05-.22.05-.4c0-.08,0-.16-.01-.22,0-.06-.02-.12-.04-.17-.02-.04-.04-.08-.07-.11s-.07-.03-.13-.03c-.1,0-.16.04-.2.14-.04.08-.06.22-.06.39h0Z"/>
      <path class="cls-11" d="m15.55,32.31h.32v-.82l.03-.15-.11.13-.21.14-.12-.18.52-.39h.17v1.26h.32v.25h-.92v-.25h0Z"/>
      <path class="cls-11" d="m17.26,31.81c0-.25.05-.44.15-.57s.23-.19.41-.19c.19,0,.34.06.42.19.1.13.14.32.14.58s-.05.44-.15.58c-.1.13-.23.2-.42.2-.1,0-.18-.02-.25-.05-.07-.03-.13-.08-.18-.16-.04-.06-.08-.15-.11-.24s-.03-.2-.03-.32l.02-.02Zm.31,0c0,.16.02.3.06.38.04.1.11.14.2.14s.16-.04.2-.13.06-.22.06-.4c0-.08,0-.16-.01-.22,0-.06-.02-.12-.04-.17-.02-.04-.04-.08-.08-.11-.03-.02-.07-.03-.13-.03-.1,0-.16.04-.2.14-.04.08-.06.22-.06.39h0Z"/>
      <path class="cls-11" d="m19.25,32.31h.32v-.82l.03-.15-.11.13-.21.14-.12-.18.52-.39h.17v1.26h.31v.25h-.92v-.25h.01Z"/>
    </g>
    <g>
      <path class="cls-11" d="m13.6,34.09c0-.25.05-.44.15-.57.1-.13.23-.2.41-.2.19,0,.34.06.42.19.1.13.14.32.14.58s-.05.44-.15.58c-.1.13-.23.2-.42.2-.1,0-.18-.02-.25-.05s-.13-.08-.18-.16c-.04-.06-.08-.15-.11-.24s-.03-.2-.03-.32h.02Zm.31,0c0,.16.02.3.06.38.04.1.11.14.2.14s.16-.04.2-.13c.04-.08.06-.22.06-.4,0-.08,0-.15-.01-.22,0-.06-.02-.12-.04-.17-.02-.04-.04-.08-.08-.11-.03-.02-.07-.03-.13-.03-.1,0-.16.04-.2.14-.04.08-.06.22-.06.39h0Z"/>
      <path class="cls-11" d="m15.45,34.09c0-.25.05-.44.15-.57.1-.13.23-.2.41-.2.19,0,.34.06.43.19s.14.32.14.58-.05.44-.15.58c-.1.13-.23.2-.42.2-.1,0-.18-.02-.25-.05s-.13-.08-.18-.16c-.04-.06-.08-.15-.11-.24s-.03-.2-.03-.32h.01Zm.31,0c0,.16.02.3.06.38.04.1.11.14.2.14s.16-.04.2-.13c.04-.08.05-.22.05-.4,0-.08,0-.15-.01-.22,0-.06-.02-.12-.04-.17-.02-.04-.04-.08-.08-.11-.03-.02-.07-.03-.13-.03-.1,0-.16.04-.2.14-.04.08-.06.22-.06.39h.01Z"/>
      <path class="cls-11" d="m17.43,34.6h.32v-.82l.03-.15-.11.13-.21.14-.12-.18.52-.39h.17v1.27h.31v.24h-.92v-.24h.01Z"/>
    </g>
  </g>
  <g>
    <rect class="cls-6" x="1.24" y="8.33" width="11.08" height="9.52"/>
    <g>
      <g>
        <path class="cls-3" d="m6.78,10.86c-3.06,0-5.54-.94-5.54-2.1v2.87c0,1.17,2.48,2.1,5.54,2.1s5.54-.94,5.54-2.1v-2.87c0,1.17-2.48,2.1-5.54,2.1Z"/>
        <path class="cls-3" d="m6.78,14.31c-3.06,0-5.54-.94-5.54-2.1v2.87c0,1.17,2.48,2.1,5.54,2.1s5.54-.94,5.54-2.1v-2.87c0,1.17-2.48,2.1-5.54,2.1Z"/>
        <path class="cls-2" d="m6.78,17.75c-3.06,0-5.54-.94-5.54-2.1v2.87c0,1.17,2.48,2.1,5.54,2.1s5.54-.94,5.54-2.1v-2.87c0,1.17-2.48,2.1-5.54,2.1Z"/>
      </g>
      <path class="cls-4" d="m7.82,6.27s-.65-.05-.99-.05-1.03.04-1.03.04c-2.6.17-4.58,1.03-4.58,2.07,0,1.17,2.48,2.1,5.54,2.1s5.54-.94,5.54-2.1c0-1.03-1.94-1.87-4.49-2.07h0Z"/>
    </g>
    <path class="cls-3" d="m6.78,9.97c-2.38,0-4.31-.73-4.31-1.64,0-.78,1.45-1.44,3.4-1.6,0,0,.65-.05.99-.05s.95.06.95.06c1.89.18,3.29.82,3.29,1.59,0,.9-1.93,1.64-4.31,1.64h-.01Z"/>
    <rect class="cls-5" x="22.68" y="8.33" width="11.08" height="9.52"/>
    <g>
      <g>
        <path class="cls-3" d="m28.22,10.86c-3.06,0-5.54-.94-5.54-2.1v2.87c0,1.17,2.48,2.1,5.54,2.1s5.54-.94,5.54-2.1v-2.87c0,1.17-2.48,2.1-5.54,2.1Z"/>
        <path class="cls-3" d="m28.22,14.31c-3.06,0-5.54-.94-5.54-2.1v2.87c0,1.17,2.48,2.1,5.54,2.1s5.54-.94,5.54-2.1v-2.87c0,1.17-2.48,2.1-5.54,2.1Z"/>
        <path class="cls-3" d="m28.22,17.75c-3.06,0-5.54-.94-5.54-2.1v2.87c0,1.17,2.48,2.1,5.54,2.1s5.54-.94,5.54-2.1v-2.87c0,1.17-2.48,2.1-5.54,2.1Z"/>
      </g>
      <path class="cls-8" d="m29.27,6.27s-.65-.05-.99-.05-1.03.04-1.03.04c-2.6.17-4.58,1.03-4.58,2.07,0,1.17,2.48,2.1,5.54,2.1s5.54-.94,5.54-2.1c0-1.03-1.94-1.87-4.49-2.07h0Z"/>
    </g>
    <path class="cls-12" d="m28.22,9.97c-2.38,0-4.31-.73-4.31-1.64,0-.78,1.45-1.44,3.4-1.6,0,0,.65-.05.99-.05s.95.06.95.06c1.89.18,3.29.82,3.29,1.59,0,.9-1.93,1.64-4.32,1.64Z"/>
  </g>
  <path class="cls-14" d="m12.32,18.52v-10.19c0-.29-.16-.57-.44-.82-2.25.77-3.58,2.02-3.58,3.55v9.48c2.32-.25,4.03-1.06,4.03-2.02Z"/>
  <path class="cls-14" d="m26.71,11.06c0-1.73-1.53-2.87-3.57-3.56-.29.25-.46.53-.46.83v10.19c0,.96,1.71,1.77,4.03,2.02,0,0,0-9.48,0-9.48Z"/>
  <g>
    <rect class="cls-7" x="9.71" y="11.06" width="15.56" height="13.38"/>
    <g>
      <g>
        <path class="cls-12" d="m17.5,14.62c-4.3,0-7.79-1.32-7.79-2.96v4.03c0,1.63,3.49,2.96,7.79,2.96s7.79-1.32,7.79-2.96v-4.03c0,1.63-3.49,2.96-7.79,2.96Z"/>
        <path class="cls-12" d="m17.5,19.46c-4.3,0-7.79-1.32-7.79-2.96v4.03c0,1.63,3.49,2.96,7.79,2.96s7.79-1.32,7.79-2.96v-4.03c0,1.63-3.49,2.96-7.79,2.96Z"/>
        <path class="cls-9" d="m17.5,24.3c-4.3,0-7.79-1.32-7.79-2.96v4.03c0,1.63,3.49,2.96,7.79,2.96s7.79-1.32,7.79-2.96v-4.03c0,1.63-3.49,2.96-7.79,2.96Z"/>
      </g>
      <path class="cls-4" d="m18.97,8.16s-.91-.07-1.38-.07-1.44.06-1.44.06c-3.65.24-6.43,1.45-6.43,2.9,0,1.63,3.49,2.96,7.79,2.96s7.79-1.32,7.79-2.96c0-1.44-2.72-2.64-6.31-2.89h-.01Z"/>
    </g>
    <path class="cls-13" d="m17.5,13.36c-3.35,0-6.06-1.03-6.06-2.3,0-1.1,2.04-2.02,4.77-2.25,0,0,.9-.07,1.38-.07s1.35.08,1.35.08c2.66.24,4.63,1.15,4.63,2.24,0,1.27-2.71,2.3-6.07,2.3h.01Z"/>
  </g>
  <path class="cls-1" d="m22.9.14c-2.32,0-4.35,1.29-5.39,3.2C16.46,1.43,14.44.14,12.11.14c-3.4,0-6.15,2.76-6.15,6.15v2.13c0,.42.34.76.76.76s.76-.34.76-.76v-2.13c0-2.55,2.08-4.64,4.64-4.64s4.64,2.08,4.64,4.64v4.86c0,.42.34.76.76.76s.76-.34.76-.76v-4.86c0-2.55,2.08-4.64,4.64-4.64s4.64,2.08,4.64,4.64v2.13c0,.42.34.76.76.76s.76-.34.76-.76v-2.13c0-3.39-2.76-6.15-6.15-6.15h-.03Z"/>
  <path class="cls-10" d="m12.1,1.09c2.87,0,5.21,2.34,5.21,5.21v4.86c0,.11.08.19.19.19s.19-.08.19-.19v-4.86c0-2.87,2.34-5.21,5.21-5.21s5.21,2.34,5.21,5.21v2.13c0,.11.08.19.19.19s.19-.08.19-.19v-2.13c0-3.08-2.51-5.58-5.58-5.58-2.03,0-3.91,1.11-4.89,2.9l-.5.91-.5-.91c-.99-1.79-2.86-2.9-4.89-2.9-3.08,0-5.58,2.51-5.58,5.58v2.13c0,.11.08.19.19.19s.19-.08.19-.19v-2.13c0-2.87,2.34-5.21,5.21-5.21h-.04Z"/>
</svg>