<?xml version="1.0" encoding="UTF-8"?>
<svg id="Layer_1" data-name="Layer 1" xmlns="http://www.w3.org/2000/svg" xmlns:xlink="http://www.w3.org/1999/xlink" viewBox="0 0 35 35">
  <defs>
    <style>
      .cls-1 {
        fill: none;
      }

      .cls-1, .cls-2, .cls-3, .cls-4, .cls-5, .cls-6, .cls-7, .cls-8, .cls-9, .cls-10, .cls-11, .cls-12, .cls-13, .cls-14, .cls-15, .cls-16, .cls-17, .cls-18, .cls-19, .cls-20, .cls-21, .cls-22, .cls-23, .cls-24, .cls-25, .cls-26, .cls-27, .cls-28, .cls-29, .cls-30, .cls-31 {
        stroke-width: 0px;
      }

      .cls-2 {
        fill: url(#linear-gradient);
      }

      .cls-3 {
        fill: url(#linear-gradient-25);
      }

      .cls-4 {
        fill: url(#linear-gradient-11);
      }

      .cls-5 {
        fill: url(#linear-gradient-12);
      }

      .cls-6 {
        fill: url(#linear-gradient-13);
      }

      .cls-7 {
        fill: url(#linear-gradient-10);
      }

      .cls-8 {
        fill: url(#linear-gradient-17);
      }

      .cls-9 {
        fill: url(#linear-gradient-16);
      }

      .cls-10 {
        fill: url(#linear-gradient-19);
      }

      .cls-11 {
        fill: url(#linear-gradient-15);
      }

      .cls-12 {
        fill: url(#linear-gradient-23);
      }

      .cls-13 {
        fill: url(#linear-gradient-21);
      }

      .cls-14 {
        fill: url(#linear-gradient-18);
      }

      .cls-15 {
        fill: url(#linear-gradient-14);
      }

      .cls-16 {
        fill: url(#linear-gradient-22);
      }

      .cls-17 {
        fill: url(#linear-gradient-20);
      }

      .cls-18 {
        fill: url(#linear-gradient-27);
      }

      .cls-19 {
        fill: url(#linear-gradient-24);
      }

      .cls-20 {
        fill: url(#linear-gradient-26);
      }

      .cls-21 {
        fill: #010101;
        opacity: .5;
      }

      .cls-22 {
        fill: url(#linear-gradient-4);
      }

      .cls-23 {
        fill: url(#linear-gradient-2);
      }

      .cls-24 {
        fill: url(#linear-gradient-3);
      }

      .cls-25 {
        fill: url(#linear-gradient-8);
      }

      .cls-26 {
        fill: url(#linear-gradient-9);
      }

      .cls-27 {
        fill: url(#linear-gradient-7);
      }

      .cls-28 {
        fill: url(#linear-gradient-5);
      }

      .cls-29 {
        fill: url(#linear-gradient-6);
      }

      .cls-30 {
        fill: #95c4d6;
      }

      .cls-31 {
        fill: #7fa9b8;
      }
    </style>
    <linearGradient id="linear-gradient" x1="12.07" y1="28.87" x2="13.14" y2="28.87" gradientUnits="userSpaceOnUse">
      <stop offset="0" stop-color="#443e97"/>
      <stop offset="1" stop-color="#32bdb3"/>
    </linearGradient>
    <linearGradient id="linear-gradient-2" x1="13.87" y1="28.86" x2="14.81" y2="28.86" xlink:href="#linear-gradient"/>
    <linearGradient id="linear-gradient-3" x1="20.78" x2="21.84" xlink:href="#linear-gradient"/>
    <linearGradient id="linear-gradient-4" x1="22.57" y1="28.86" x2="23.52" y2="28.86" xlink:href="#linear-gradient"/>
    <linearGradient id="linear-gradient-5" x1="20.75" y1="31.02" x2="21.81" y2="31.02" xlink:href="#linear-gradient"/>
    <linearGradient id="linear-gradient-6" x1="22.54" y1="31" x2="23.49" y2="31" xlink:href="#linear-gradient"/>
    <linearGradient id="linear-gradient-7" x1="12.1" y1="31" x2="13.05" y2="31" xlink:href="#linear-gradient"/>
    <linearGradient id="linear-gradient-8" x1="13.79" y1="31.02" x2="14.86" y2="31.02" xlink:href="#linear-gradient"/>
    <linearGradient id="linear-gradient-9" x1="15.59" y1="31" x2="16.53" y2="31" xlink:href="#linear-gradient"/>
    <linearGradient id="linear-gradient-10" x1="17.27" y1="31.02" x2="18.34" y2="31.02" xlink:href="#linear-gradient"/>
    <linearGradient id="linear-gradient-11" x1="19.07" y1="31" x2="20.01" y2="31" xlink:href="#linear-gradient"/>
    <linearGradient id="linear-gradient-12" x1="13.82" y1="33.16" x2="14.88" y2="33.16" xlink:href="#linear-gradient"/>
    <linearGradient id="linear-gradient-13" x1="15.56" y1="33.16" x2="16.62" y2="33.16" xlink:href="#linear-gradient"/>
    <linearGradient id="linear-gradient-14" x1="17.35" y1="33.16" x2="18.3" y2="33.16" xlink:href="#linear-gradient"/>
    <linearGradient id="linear-gradient-15" x1="2.15" y1="11.59" x2="12.61" y2="11.59" xlink:href="#linear-gradient"/>
    <linearGradient id="linear-gradient-16" x1="2.15" y1="14.85" x2="12.61" y2="14.85" xlink:href="#linear-gradient"/>
    <linearGradient id="linear-gradient-17" x1="2.15" y1="18.1" x2="12.61" y2="18.1" xlink:href="#linear-gradient"/>
    <linearGradient id="linear-gradient-18" x1="2.15" y1="8.84" x2="12.61" y2="8.84" xlink:href="#linear-gradient"/>
    <linearGradient id="linear-gradient-19" x1="22.39" y1="11.59" x2="32.85" y2="11.59" xlink:href="#linear-gradient"/>
    <linearGradient id="linear-gradient-20" x1="22.39" y1="14.85" x2="32.85" y2="14.85" xlink:href="#linear-gradient"/>
    <linearGradient id="linear-gradient-21" x1="22.39" y1="18.1" x2="32.85" y2="18.1" xlink:href="#linear-gradient"/>
    <linearGradient id="linear-gradient-22" x1="22.39" y1="8.84" x2="32.85" y2="8.84" xlink:href="#linear-gradient"/>
    <linearGradient id="linear-gradient-23" x1="10.15" y1="15.29" x2="24.85" y2="15.29" xlink:href="#linear-gradient"/>
    <linearGradient id="linear-gradient-24" x1="10.15" y1="19.86" x2="24.85" y2="19.86" xlink:href="#linear-gradient"/>
    <linearGradient id="linear-gradient-25" x1="10.15" y1="24.43" x2="24.85" y2="24.43" xlink:href="#linear-gradient"/>
    <linearGradient id="linear-gradient-26" x1="10.15" y1="11.41" x2="24.85" y2="11.41" xlink:href="#linear-gradient"/>
    <linearGradient id="linear-gradient-27" x1="6.59" y1="6.67" x2="28.41" y2="6.67" xlink:href="#linear-gradient"/>
  </defs>
  <g>
    <g>
      <path class="cls-2" d="m12.07,28.87c0-.24.05-.42.14-.54.09-.12.22-.18.39-.18.18,0,.32.06.4.18.09.12.13.3.13.55s-.05.42-.14.55c-.09.12-.22.19-.4.19-.09,0-.17-.02-.24-.05-.07-.03-.12-.08-.17-.15-.04-.06-.08-.14-.1-.23-.02-.09-.03-.19-.03-.31Zm.29,0c0,.15.02.28.06.36.04.09.1.13.19.13s.15-.04.19-.12c.04-.08.06-.21.06-.38,0-.08,0-.14-.01-.21,0-.06-.02-.11-.04-.16-.02-.04-.04-.08-.07-.1-.03-.02-.07-.03-.12-.03-.09,0-.15.04-.19.13-.04.08-.06.21-.06.37Z"/>
      <path class="cls-23" d="m13.95,29.34h.3v-.77l.03-.14-.11.12-.2.13-.11-.16.49-.37h.16v1.2h.3v.23h-.87v-.23Z"/>
      <path class="cls-24" d="m20.78,28.87c0-.24.04-.42.14-.54.09-.12.22-.18.4-.18.18,0,.32.06.4.18.09.12.13.3.13.55s-.05.42-.14.55c-.09.12-.22.19-.4.19-.09,0-.17-.02-.24-.05-.07-.03-.12-.08-.16-.15-.04-.06-.08-.14-.1-.23-.02-.09-.03-.19-.03-.31Zm.29,0c0,.15.02.28.06.36.04.09.1.13.19.13s.15-.04.19-.12c.04-.08.06-.21.06-.38,0-.08,0-.14-.01-.21,0-.06-.02-.11-.04-.16-.02-.04-.04-.08-.08-.1-.03-.02-.07-.03-.12-.03-.09,0-.15.04-.19.13-.04.08-.06.21-.06.37Z"/>
      <path class="cls-22" d="m22.65,29.34h.3v-.77l.03-.14-.1.12-.2.13-.11-.16.49-.37h.16v1.2h.3v.23h-.87v-.23Z"/>
    </g>
    <g>
      <path class="cls-28" d="m20.75,31.01c0-.24.05-.42.14-.54.09-.12.22-.18.4-.18.18,0,.32.06.41.18.09.12.13.3.13.55s-.05.42-.14.55c-.09.12-.23.19-.4.19-.09,0-.17-.02-.24-.05-.07-.03-.12-.08-.16-.15-.04-.06-.08-.14-.1-.23-.02-.09-.03-.19-.03-.3Zm.29,0c0,.15.02.28.06.36.04.09.1.13.19.13s.15-.04.19-.12c.04-.08.06-.21.06-.38,0-.08,0-.15-.01-.21,0-.06-.02-.11-.04-.16-.02-.04-.04-.08-.08-.1-.03-.02-.07-.03-.12-.03-.09,0-.15.04-.19.13-.04.08-.06.21-.06.37Z"/>
      <path class="cls-29" d="m22.62,31.48h.3v-.77l.04-.14-.11.12-.2.13-.11-.17.49-.37h.16v1.19h.29v.24h-.87v-.24Z"/>
      <path class="cls-27" d="m12.18,31.48h.3v-.77l.04-.14-.1.12-.2.13-.11-.17.49-.37h.16v1.19h.3v.24h-.87v-.24Z"/>
      <path class="cls-25" d="m13.79,31.01c0-.24.05-.42.14-.54.09-.12.22-.18.39-.18.18,0,.32.06.41.18.09.12.13.3.13.55s-.05.42-.14.55c-.09.12-.22.19-.4.19-.09,0-.17-.02-.24-.05-.07-.03-.12-.08-.17-.15-.04-.06-.07-.14-.1-.23-.02-.09-.03-.19-.03-.3Zm.29,0c0,.15.02.28.06.36.04.09.1.13.19.13s.15-.04.19-.12c.04-.08.05-.21.05-.38,0-.08,0-.15-.01-.21,0-.06-.02-.11-.04-.16-.02-.04-.04-.08-.07-.1-.03-.02-.07-.03-.12-.03-.09,0-.15.04-.19.13-.04.08-.06.21-.06.37Z"/>
      <path class="cls-26" d="m15.66,31.48h.3v-.77l.03-.14-.1.12-.2.13-.11-.17.49-.37h.16v1.19h.3v.24h-.87v-.24Z"/>
      <path class="cls-7" d="m17.27,31.01c0-.24.05-.42.14-.54.09-.12.22-.18.39-.18.18,0,.32.06.4.18.09.12.13.3.13.55s-.05.42-.14.55c-.09.12-.22.19-.4.19-.09,0-.17-.02-.24-.05-.07-.03-.12-.08-.17-.15-.04-.06-.08-.14-.1-.23-.02-.09-.03-.19-.03-.3Zm.29,0c0,.15.02.28.06.36.04.09.1.13.19.13s.15-.04.19-.12c.04-.08.06-.21.06-.38,0-.08,0-.15-.01-.21,0-.06-.02-.11-.04-.16-.02-.04-.04-.08-.08-.1-.03-.02-.07-.03-.12-.03-.09,0-.15.04-.19.13-.04.08-.06.21-.06.37Z"/>
      <path class="cls-4" d="m19.15,31.48h.3v-.77l.03-.14-.1.12-.2.13-.11-.17.49-.37h.16v1.19h.29v.24h-.87v-.24Z"/>
    </g>
    <g>
      <path class="cls-5" d="m13.82,33.16c0-.24.05-.42.14-.54.09-.12.22-.19.39-.19.18,0,.32.06.4.18.09.12.13.3.13.55s-.05.42-.14.55c-.09.12-.22.19-.4.19-.09,0-.17-.02-.24-.05-.07-.03-.12-.08-.17-.15-.04-.06-.08-.14-.1-.23-.02-.09-.03-.19-.03-.3Zm.29,0c0,.15.02.28.06.36.04.09.1.13.19.13s.15-.04.19-.12c.04-.08.06-.21.06-.38,0-.08,0-.14-.01-.21,0-.06-.02-.11-.04-.16-.02-.04-.04-.08-.08-.1-.03-.02-.07-.03-.12-.03-.09,0-.15.04-.19.13-.04.08-.06.21-.06.37Z"/>
      <path class="cls-6" d="m15.56,33.16c0-.24.05-.42.14-.54.09-.12.22-.19.39-.19.18,0,.32.06.41.18.09.12.13.3.13.55s-.05.42-.14.55c-.09.12-.22.19-.4.19-.09,0-.17-.02-.24-.05-.07-.03-.12-.08-.17-.15-.04-.06-.08-.14-.1-.23-.02-.09-.03-.19-.03-.3Zm.29,0c0,.15.02.28.06.36.04.09.1.13.19.13.09,0,.15-.04.19-.12.04-.08.05-.21.05-.38,0-.08,0-.14-.01-.21,0-.06-.02-.11-.04-.16-.02-.04-.04-.08-.08-.1-.03-.02-.07-.03-.12-.03-.09,0-.15.04-.19.13-.04.08-.06.21-.06.37Z"/>
      <path class="cls-15" d="m17.43,33.64h.3v-.77l.03-.14-.1.12-.2.13-.11-.17.49-.37h.16v1.2h.29v.23h-.87v-.23Z"/>
    </g>
  </g>
  <g>
    <g>
      <rect class="cls-31" x="2.15" y="8.84" width="10.46" height="8.99"/>
      <g>
        <g>
          <path class="cls-11" d="m7.38,11.23c-2.89,0-5.23-.89-5.23-1.98v2.71c0,1.1,2.34,1.98,5.23,1.98s5.23-.89,5.23-1.98v-2.71c0,1.1-2.34,1.98-5.23,1.98Z"/>
          <path class="cls-9" d="m7.38,14.49c-2.89,0-5.23-.89-5.23-1.98v2.71c0,1.1,2.34,1.98,5.23,1.98s5.23-.89,5.23-1.98v-2.71c0,1.1-2.34,1.98-5.23,1.98Z"/>
          <path class="cls-8" d="m7.38,17.74c-2.89,0-5.23-.89-5.23-1.98v2.71c0,1.1,2.34,1.98,5.23,1.98s5.23-.89,5.23-1.98v-2.71c0,1.1-2.34,1.98-5.23,1.98Z"/>
        </g>
        <path class="cls-14" d="m8.36,6.9s-.61-.05-.93-.05c-.33,0-.97.04-.97.04-2.45.16-4.32.97-4.32,1.95,0,1.1,2.34,1.98,5.23,1.98s5.23-.89,5.23-1.98c0-.97-1.83-1.77-4.24-1.95Z"/>
      </g>
      <path class="cls-31" d="m7.38,10.39c-2.25,0-4.07-.69-4.07-1.55,0-.74,1.37-1.36,3.21-1.51,0,0,.61-.05.93-.05s.9.06.9.06c1.78.17,3.11.77,3.11,1.5,0,.85-1.82,1.55-4.07,1.55Z"/>
    </g>
    <g>
      <rect class="cls-31" x="22.39" y="8.84" width="10.46" height="8.99"/>
      <g>
        <g>
          <path class="cls-10" d="m27.62,11.23c-2.89,0-5.23-.89-5.23-1.98v2.71c0,1.1,2.34,1.98,5.23,1.98s5.23-.89,5.23-1.98v-2.71c0,1.1-2.34,1.98-5.23,1.98Z"/>
          <path class="cls-17" d="m27.62,14.49c-2.89,0-5.23-.89-5.23-1.98v2.71c0,1.1,2.34,1.98,5.23,1.98s5.23-.89,5.23-1.98v-2.71c0,1.1-2.34,1.98-5.23,1.98Z"/>
          <path class="cls-13" d="m27.62,17.74c-2.89,0-5.23-.89-5.23-1.98v2.71c0,1.1,2.34,1.98,5.23,1.98s5.23-.89,5.23-1.98v-2.71c0,1.1-2.34,1.98-5.23,1.98Z"/>
        </g>
        <path class="cls-16" d="m28.61,6.9s-.61-.05-.93-.05-.97.04-.97.04c-2.45.16-4.32.97-4.32,1.95,0,1.1,2.34,1.98,5.23,1.98s5.23-.89,5.23-1.98c0-.97-1.83-1.77-4.24-1.95Z"/>
      </g>
      <path class="cls-31" d="m27.62,10.39c-2.25,0-4.07-.69-4.07-1.55,0-.74,1.37-1.36,3.21-1.51,0,0,.61-.05.93-.05s.9.06.9.06c1.78.17,3.11.77,3.11,1.5,0,.85-1.82,1.55-4.08,1.55Z"/>
    </g>
  </g>
  <path class="cls-21" d="m12.61,18.46v-9.62c0-.27-.15-.54-.42-.77-2.12.73-3.38,1.91-3.38,3.35v8.95c2.19-.24,3.8-1,3.8-1.91Z"/>
  <path class="cls-21" d="m26.19,11.42c0-1.63-1.44-2.71-3.37-3.36-.27.24-.43.5-.43.78v9.62c0,.91,1.61,1.67,3.8,1.91v-8.95Z"/>
  <g>
    <rect class="cls-30" x="10.15" y="11.42" width="14.69" height="12.63"/>
    <g>
      <g>
        <path class="cls-12" d="m17.5,14.78c-4.06,0-7.35-1.25-7.35-2.79v3.8c0,1.54,3.29,2.79,7.35,2.79s7.35-1.25,7.35-2.79v-3.8c0,1.54-3.29,2.79-7.35,2.79Z"/>
        <path class="cls-19" d="m17.5,19.35c-4.06,0-7.35-1.25-7.35-2.79v3.8c0,1.54,3.29,2.79,7.35,2.79s7.35-1.25,7.35-2.79v-3.8c0,1.54-3.29,2.79-7.35,2.79Z"/>
        <path class="cls-3" d="m17.5,23.92c-4.06,0-7.35-1.25-7.35-2.79v3.8c0,1.54,3.29,2.79,7.35,2.79s7.35-1.25,7.35-2.79v-3.8c0,1.54-3.29,2.79-7.35,2.79Z"/>
      </g>
      <path class="cls-20" d="m18.89,8.68s-.86-.07-1.3-.07-1.36.06-1.36.06c-3.45.23-6.07,1.37-6.07,2.74,0,1.54,3.29,2.79,7.35,2.79s7.35-1.25,7.35-2.79c0-1.36-2.57-2.49-5.96-2.73Z"/>
    </g>
    <path class="cls-30" d="m17.5,13.59c-3.16,0-5.72-.97-5.72-2.17,0-1.04,1.93-1.91,4.5-2.12,0,0,.85-.07,1.3-.07s1.27.08,1.27.08c2.51.23,4.37,1.09,4.37,2.11,0,1.2-2.56,2.17-5.73,2.17Z"/>
  </g>
  <path class="cls-18" d="m22.6,1.11c-2.19,0-4.11,1.22-5.09,3.02-.99-1.8-2.9-3.02-5.1-3.02-3.21,0-5.81,2.61-5.81,5.81v2.01c0,.4.32.72.72.72s.72-.32.72-.72v-2.01c0-2.41,1.96-4.38,4.38-4.38s4.38,1.96,4.38,4.38v4.59c0,.4.32.72.72.72s.72-.32.72-.72v-4.59c0-2.41,1.96-4.38,4.38-4.38s4.38,1.96,4.38,4.38v2.01c0,.4.32.72.72.72s.72-.32.72-.72v-2.01c0-3.2-2.61-5.81-5.81-5.81Z"/>
  <path class="cls-1" d="m12.4,2.01c2.71,0,4.92,2.21,4.92,4.92v4.59c0,.1.08.18.18.18s.18-.08.18-.18v-4.59c0-2.71,2.21-4.92,4.92-4.92s4.92,2.21,4.92,4.92v2.01c0,.1.08.18.18.18s.18-.08.18-.18v-2.01c0-2.91-2.37-5.27-5.27-5.27-1.92,0-3.69,1.05-4.62,2.74l-.47.86-.47-.86c-.93-1.69-2.7-2.74-4.62-2.74-2.91,0-5.27,2.37-5.27,5.27v2.01c0,.1.08.18.18.18s.18-.08.18-.18v-2.01c0-2.71,2.21-4.92,4.92-4.92Z"/>
</svg>