<?xml version="1.0" encoding="UTF-8"?>
<svg id="Layer_1" data-name="Layer 1" xmlns="http://www.w3.org/2000/svg" xmlns:xlink="http://www.w3.org/1999/xlink" viewBox="0 0 35 35">
  <defs>
    <style>
      .cls-1 {
        fill: url(#linear-gradient);
      }

      .cls-1, .cls-2, .cls-3, .cls-4 {
        stroke-width: 0px;
      }

      .cls-2 {
        fill: #12487c;
      }

      .cls-3 {
        fill: #eef5fb;
      }

      .cls-4 {
        fill: #010101;
      }
    </style>
    <linearGradient id="linear-gradient" x1="4.11" y1="16.37" x2="29.91" y2="16.37" gradientUnits="userSpaceOnUse">
      <stop offset="0" stop-color="#443e97"/>
      <stop offset="1" stop-color="#32bdb3"/>
    </linearGradient>
  </defs>
  <g id="_212_Location_Map_Pin_Gear" data-name="212, Location, Map, Pin, Gear">
    <g>
      <path class="cls-3" d="m28.3,31.09c0,1.45-1.21,2.66-2.66,2.66H8.29c-1.45,0-2.66-1.21-2.66-2.66s1.21-2.66,2.66-2.66h17.42c1.45,0,2.6,1.21,2.6,2.66Z"/>
      <path class="cls-1" d="m17,1.22c7.08,0,13.42,5.75,12.88,12.88-.79,10.1-12.82,17.36-12.88,17.42-.3-.24-12.7-8.53-12.88-17.42-.06-7.14,5.81-12.88,12.88-12.88Zm8.41,13.73v-3.02l-1.87-.12c-.18-.6-.42-1.21-.73-1.75l1.27-1.45-2.12-2.12-1.45,1.27c-.54-.3-1.15-.6-1.75-.73l-.12-1.93h-3.02l-.3,1.81c-.6.18-1.21.42-1.75.73l-1.45-1.27-2.12,2.12,1.27,1.45c-.3.54-.61,1.15-.73,1.75l-1.94.18v3.02l1.94.12c.18.61.42,1.21.73,1.75l-1.27,1.45,2.12,2.12,1.45-1.27c.54.3,1.15.54,1.75.73l.18,1.94h3.02l.12-1.94c.61-.18,1.21-.42,1.75-.73l1.45,1.27,2.12-2.12-1.27-1.45c.3-.54.54-1.15.73-1.75l2-.06Z"/>
      <path class="cls-2" d="m25.4,11.92v3.02l-1.87.18c-.18.6-.42,1.21-.73,1.75l1.27,1.45-2.12,2.12-1.45-1.27c-.54.3-1.15.54-1.75.73l-.12,1.93h-3.02l-.18-1.93c-.6-.18-1.21-.42-1.75-.73l-1.45,1.27-2.12-2.12,1.27-1.45c-.3-.54-.6-1.15-.73-1.75l-1.93-.12v-3.02l1.93-.18c.18-.6.42-1.21.73-1.75l-1.27-1.45,2.12-2.12,1.45,1.27c.54-.3,1.15-.6,1.75-.73l.18-1.93h3.02l.12,1.93c.6.18,1.21.42,1.75.73l1.45-1.27,2.12,2.12-1.27,1.45c.3.54.54,1.15.73,1.75l1.87.12Zm-4.6,1.51c0-2.12-1.69-3.81-3.81-3.81s-3.81,1.69-3.81,3.81,1.69,3.81,3.81,3.81,3.81-1.69,3.81-3.81Z"/>
      <g>
        <path class="cls-4" d="m25.7,34.12H8.29c-.79,0-1.57-.3-2.12-.91-.54-.54-.91-1.33-.91-2.12,0-1.69,1.33-3.02,3.02-3.02h4.78c.18,0,.36.18.36.36s-.18.36-.36.36h-4.78c-1.27,0-2.3,1.03-2.3,2.3,0,.6.24,1.15.66,1.63.42.42.97.67,1.63.67h17.42c1.27,0,2.3-1.03,2.3-2.3,0-.6-.24-1.15-.67-1.63-.42-.42-.97-.67-1.63-.67h-4.6c-.18,0-.36-.18-.36-.36s.18-.36.36-.36h4.6c.79,0,1.57.3,2.12.91.54.54.91,1.33.91,2.12,0,1.69-1.39,3.02-3.02,3.02Z"/>
        <path class="cls-4" d="m17.16,31.85c-.06,0-.12,0-.18-.06,0,0-1.75-1.15-3.93-3.02h0c-4.11-3.57-9.01-8.95-9.07-14.63-.06-3.45,1.27-6.77,3.75-9.25,2.54-2.54,5.87-3.99,9.49-3.99,3.81,0,7.44,1.57,10.04,4.35,2.3,2.48,3.45,5.62,3.21,8.89-.48,6.23-5.14,11.37-8.89,14.63-2.24,1.94-4.05,3.02-4.11,3.08-.18-.06-.24,0-.3,0Zm-3.69-3.69c1.69,1.45,3.14,2.48,3.69,2.84.54-.36,2.06-1.33,3.81-2.84,3.69-3.14,8.16-8.16,8.65-14.09.24-3.02-.85-5.99-2.96-8.29-2.42-2.6-5.87-4.11-9.49-4.11-3.39,0-6.59,1.33-8.95,3.75-2.3,2.36-3.57,5.44-3.51,8.71.06,5.32,4.84,10.58,8.77,14.03h0Z"/>
      </g>
      <path class="cls-4" d="m18.51,22.26h-3.02c-.18,0-.36-.18-.36-.36l-.12-1.63c-.48-.12-.91-.3-1.39-.54l-1.27,1.09c-.12.12-.36.12-.48,0l-2.12-2.12c-.12-.12-.12-.36,0-.48l1.09-1.27c-.24-.42-.42-.91-.54-1.39l-1.63-.12c-.18,0-.36-.18-.36-.36v-3.02c0-.18.18-.36.36-.36l1.63-.12c.12-.48.3-.91.54-1.39l-1.09-1.27c-.12-.12-.12-.36,0-.48l2.12-2.12c.12-.12.36-.12.48,0l1.27,1.09c.42-.24.91-.42,1.39-.54l.12-1.63c0-.18.18-.36.36-.36h3.02c.18,0,.36.18.36.36l.12,1.63c.48.12.91.3,1.39.54l1.27-1.09c.12-.12.36-.12.48,0l2.12,2.12c.12.12.12.36,0,.48l-1.09,1.27c.24.42.42.91.54,1.39l1.63.12c.18,0,.36.18.36.36v3.02c0,.18-.18.36-.36.36l-1.63.12c-.12.48-.3.97-.54,1.39l1.09,1.27c.12.12.12.36,0,.48l-2.12,2.12c-.12.12-.36.12-.48,0l-1.27-1.09c-.42.24-.91.42-1.39.54l-.12,1.63c0,.18-.18.36-.36.36Zm-2.66-.79h2.3l.12-1.57c0-.18.12-.3.3-.36.6-.12,1.15-.36,1.69-.66.12-.06.3-.06.42.06l1.21,1.03,1.63-1.63-1.03-1.21c-.12-.12-.12-.3-.06-.42.3-.54.54-1.09.67-1.69.06-.18.18-.24.36-.3l1.57-.12v-2.3l-1.57-.12c-.18,0-.3-.12-.36-.3-.18-.61-.36-1.15-.67-1.69-.06-.12-.06-.3.06-.42l1.03-1.21-1.69-1.63-1.21,1.03c-.12.12-.3.12-.42.06-.54-.3-1.09-.54-1.69-.67-.18-.06-.24-.18-.3-.36l-.12-1.57h-2.3l-.12,1.57c0,.18-.12.3-.3.36-.6.12-1.15.36-1.69.67-.12.06-.3.06-.42-.06l-1.21-1.03-1.63,1.63,1.03,1.21c.12.12.12.3.06.42-.3.54-.54,1.09-.67,1.69-.06.18-.18.24-.36.3l-1.57.12v2.3l1.57.12c.18,0,.3.12.36.3.12.61.36,1.15.67,1.69.06.12.06.3-.06.42l-1.03,1.21,1.63,1.63,1.21-1.03c.12-.12.3-.12.42-.06.54.3,1.09.54,1.69.66.18.06.24.18.3.36l.18,1.57Z"/>
      <path class="cls-4" d="m17,17.61c-2.3,0-4.17-1.88-4.17-4.17s1.87-4.17,4.17-4.17,4.17,1.88,4.17,4.17-1.87,4.17-4.17,4.17Zm0-7.62c-1.88,0-3.45,1.57-3.45,3.45s1.57,3.45,3.45,3.45,3.45-1.57,3.45-3.45-1.57-3.45-3.45-3.45Z"/>
    </g>
  </g>
</svg>