<?xml version="1.0" encoding="UTF-8"?>
<svg id="Layer_1" data-name="Layer 1" xmlns="http://www.w3.org/2000/svg" xmlns:xlink="http://www.w3.org/1999/xlink" viewBox="0 0 35 35">
  <defs>
    <style>
      .cls-1 {
        fill: url(#linear-gradient);
      }

      .cls-1, .cls-2, .cls-3, .cls-4, .cls-5, .cls-6, .cls-7, .cls-8, .cls-9, .cls-10, .cls-11 {
        stroke-width: 0px;
      }

      .cls-2 {
        fill: url(#linear-gradient-4);
      }

      .cls-3 {
        fill: url(#linear-gradient-2);
      }

      .cls-4 {
        fill: url(#linear-gradient-3);
      }

      .cls-5 {
        fill: url(#linear-gradient-5);
      }

      .cls-6 {
        fill: #ccc;
      }

      .cls-7 {
        fill: #cccdce;
      }

      .cls-8 {
        fill: #bbbbbc;
      }

      .cls-9 {
        fill: #fdfeff;
      }

      .cls-10 {
        fill: #f5f6f7;
      }

      .cls-11 {
        fill: #010101;
      }
    </style>
    <linearGradient id="linear-gradient" x1="8.85" y1="25.74" x2="15.53" y2="25.74" gradientUnits="userSpaceOnUse">
      <stop offset="0" stop-color="#fff"/>
      <stop offset="1" stop-color="#231f20"/>
    </linearGradient>
    <linearGradient id="linear-gradient-2" x1="8.85" y1="29.07" x2="15.53" y2="29.07" xlink:href="#linear-gradient"/>
    <linearGradient id="linear-gradient-3" x1="12.19" y1="28.71" y2="28.71" xlink:href="#linear-gradient"/>
    <linearGradient id="linear-gradient-4" x1="12.17" y1="26.01" x2="15.52" y2="26.01" xlink:href="#linear-gradient"/>
    <linearGradient id="linear-gradient-5" x1="8.85" y1="26.58" x2="12.19" y2="26.58" xlink:href="#linear-gradient"/>
  </defs>
  <g id="_203_Document_Location_Pinpoint" data-name=" 203 Document Location Pinpoint">
    <g>
      <path class="cls-9" d="m29.45,31.74H6.41V.22h18.43v4.61h4.61v26.91Z"/>
      <path class="cls-6" d="m33.69,20.99c0,4.42-3.62,8.05-8.05,8.05s-8.05-3.63-8.05-8.05,3.63-8.05,8.05-8.05,8.05,3.63,8.05,8.05Z"/>
      <path class="cls-10" d="m25.77,15.77c2.64,0,4.98,2.15,4.79,4.79-.31,3.75-4.79,6.45-4.79,6.45,0,0-4.73-3.13-4.79-6.45-.06-2.64,2.15-4.79,4.79-4.79Zm2.4,4.67c0-1.35-1.11-2.46-2.46-2.46s-2.46,1.11-2.46,2.46,1.11,2.46,2.46,2.46,2.46-1.11,2.46-2.46Z"/>
      <path class="cls-7" d="m29.45,4.89h-4.61V.29c1.41,1.41,3.19,3.19,4.61,4.61h0Z"/>
      <polygon class="cls-8" points="24.85 31.74 24.85 34.45 3.71 34.45 3.71 4.09 6.41 4.09 6.41 31.74 24.85 31.74"/>
      <path class="cls-11" d="m24.85,34.82H3.71c-.18,0-.37-.18-.37-.37V4.09c0-.18.18-.37.37-.37h2.7c.18,0,.37.18.37.37s-.18.37-.37.37h-2.34v29.55h20.34v-2.33c0-.18.18-.37.37-.37s.37.18.37.37v2.7c.06.31-.12.43-.31.43h0Z"/>
      <path class="cls-11" d="m29.45,5.26h-4.61c-.18,0-.37-.18-.37-.37V.29c0-.18.18-.37.37-.37s.37.18.37.37v4.24h4.24c.18,0,.37.18.37.37s-.18.37-.37.37h0Z"/>
      <path class="cls-11" d="m29.45,32.17H6.41c-.18,0-.37-.18-.37-.37V.29c0-.18.18-.37.37-.37h18.43c.12,0,.18.06.25.12l4.61,4.61c.06.06.12.18.12.25v9.03c0,.18-.18.37-.37.37s-.37-.18-.37-.37V5.02L24.72.65H6.78v30.72h22.3v-3.26c0-.18.18-.37.37-.37s.37.12.37.37v3.63c0,.25-.18.43-.37.43Z"/>
      <path class="cls-11" d="m25.58,29.47c-4.67,0-8.48-3.81-8.48-8.48s3.81-8.48,8.48-8.48c1.41,0,2.83.37,4.06,1.04,2.7,1.47,4.42,4.36,4.42,7.43s-1.72,5.96-4.42,7.43c-1.23.68-2.64,1.04-4.06,1.04v.02Zm0-16.16c-4.24,0-7.68,3.44-7.68,7.68s3.44,7.74,7.68,7.74c1.29,0,2.52-.31,3.69-.92,2.46-1.35,3.99-3.93,3.99-6.76s-1.54-5.41-3.99-6.76h0c-1.11-.61-2.4-.98-3.69-.98Z"/>
      <path class="cls-11" d="m25.77,23.26c-1.54,0-2.83-1.29-2.83-2.83s1.29-2.83,2.83-2.83,2.83,1.29,2.83,2.83-1.29,2.83-2.83,2.83Zm0-4.85c-1.11,0-2.03.92-2.03,2.03s.92,2.03,2.03,2.03,2.03-.92,2.03-2.03-.92-2.03-2.03-2.03Z"/>
      <path class="cls-11" d="m25.77,27.38c-.06,0-.12,0-.18-.06-.18-.12-4.92-3.26-4.98-6.76,0-1.35.49-2.64,1.47-3.63.98-.98,2.27-1.54,3.69-1.54s2.89.61,3.93,1.72c.92.98,1.35,2.21,1.23,3.5h0c-.31,3.93-4.79,6.64-4.98,6.76h-.18Zm0-11.24c-1.17,0-2.34.49-3.13,1.29-.8.86-1.23,1.9-1.23,3.07.06,2.7,3.5,5.41,4.42,6.02.86-.55,4.18-2.95,4.36-6.02h0c.06-1.04-.31-2.09-1.04-2.89-.92-.92-2.15-1.47-3.38-1.47Z"/>
      <path class="cls-11" d="m15.26,17.55h-6.14c-.18,0-.37-.18-.37-.37s.18-.37.37-.37h6.14c.18,0,.37.18.37.37s-.18.37-.37.37Z"/>
      <path class="cls-11" d="m16.8,15.28h-7.68c-.18,0-.37-.18-.37-.37s.18-.37.37-.37h7.68c.18,0,.37.18.37.37s-.18.37-.37.37Z"/>
      <path class="cls-11" d="m19.44,12.94h-10.32c-.18,0-.37-.18-.37-.37s.18-.37.37-.37h10.38c.18,0,.37.18.37.37s-.18.37-.43.37Z"/>
      <path class="cls-11" d="m19.44,10.67h-10.32c-.18,0-.37-.18-.37-.37s.18-.37.37-.37h10.38c.18,0,.37.18.37.37s-.18.37-.43.37Z"/>
      <path class="cls-11" d="m19.44,8.33h-10.32c-.18,0-.37-.18-.37-.37s.18-.37.37-.37h10.38c.18,0,.37.18.37.37s-.18.37-.43.37Z"/>
      <path class="cls-11" d="m16.8,6.06h-7.68c-.18,0-.37-.18-.37-.37s.18-.37.37-.37h7.68c.18,0,.37.18.37.37s-.18.37-.37.37Z"/>
    </g>
  </g>
  <g>
    <path class="cls-1" d="m15.53,27.4c0-1.84-1.5-3.32-3.34-3.32s-3.33,1.49-3.34,3.32h6.68Z"/>
    <path class="cls-3" d="m8.85,27.39v.02c0,1.84,1.49,3.34,3.34,3.34s3.34-1.49,3.34-3.34v-.02h-6.68Z"/>
    <path class="cls-4" d="m15.53,27.39h-3.34l2.07,2.65c.78-.61,1.27-1.56,1.27-2.62v-.02h0Z"/>
    <path class="cls-2" d="m12.17,27.4h3.35c-.01-1.17-.62-2.2-1.54-2.79,0,0-1.81,2.79-1.81,2.79Z"/>
    <path class="cls-5" d="m9.29,25.76c-.28.48-.43,1.04-.44,1.64h3.34s-2.9-1.64-2.9-1.64Z"/>
  </g>
</svg>