<?xml version="1.0" encoding="UTF-8"?>
<svg id="Layer_1" data-name="Layer 1" xmlns="http://www.w3.org/2000/svg" xmlns:xlink="http://www.w3.org/1999/xlink" viewBox="0 0 35 35">
  <defs>
    <style>
      .cls-1 {
        clip-path: url(#clippath);
      }

      .cls-2, .cls-3, .cls-4, .cls-5, .cls-6 {
        fill: #fff;
      }

      .cls-3 {
        opacity: .53;
      }

      .cls-3, .cls-4, .cls-5 {
        isolation: isolate;
      }

      .cls-3, .cls-4, .cls-5, .cls-6 {
        stroke-width: 0px;
      }

      .cls-4 {
        opacity: .8;
      }

      .cls-7 {
        clip-path: url(#clippath-1);
      }

      .cls-8 {
        clip-path: url(#clippath-2);
      }

      .cls-5, .cls-9 {
        opacity: .3;
      }
    </style>
    <clipPath id="clippath">
      <polygon class="cls-6" points="5.58 27.81 5.58 2.91 14.53 2.31 14.53 28.43 5.58 27.81"/>
    </clipPath>
    <clipPath id="clippath-1">
      <rect class="cls-6" x="21.14" y="3.75" width="10.39" height="23.25"/>
    </clipPath>
    <clipPath id="clippath-2">
      <polygon class="cls-6" points="14.53 28.43 14.53 2.31 21.14 3.76 21.14 27.01 14.53 28.43"/>
    </clipPath>
  </defs>
  <g id="Layer_1-2" data-name="Layer 1">
    <g>
      <g>
        <polygon class="cls-6" points="14.53 29.74 4.83 29.01 4.83 1.72 14.53 1 14.53 29.74"/>
        <polygon class="cls-6" points="5.77 11.67 5.77 23.27 5.58 23.27 5.58 26.23 14.53 26.23 14.53 11.67 5.77 11.67"/>
        <g>
          <polygon class="cls-6" points="5.58 27.81 5.58 2.91 14.53 2.31 14.53 28.43 5.58 27.81"/>
          <g>
            <polygon class="cls-2" points="5.58 27.81 5.58 2.91 14.53 2.31 14.53 28.43 5.58 27.81"/>
            <g class="cls-1">
              <g>
                <path class="cls-6" d="m17.43-.99s0,6.28,1.42,9.16c1.41,2.88,1.94,5.69.88,7.33-1.06,1.64-5.2-.86-5.2-.86,0,0-1.95,1.38-2.84,4.33-.88,2.95-6.62,5.4-7.86,4.57C2.6,22.71,3.13.46,3.13.46l14.3-1.45Z"/>
                <path class="cls-6" d="m3.57,25.23s3.48,1.62,6.11.12,4.85-4.19,4.85-4.19c0,0,2.68,1.64,4.11,1.55,1.44-.09,2.5-4.7,2.5-4.7,0,0,2.38-1.18,3.44-3.58,1.06-2.4,4.31-5.01,6.09-5.56,1.78-.55,2.82.47,2.82.47l-.44,20.91-27.48,1.44-2.01-6.46h0Z"/>
                <path class="cls-6" d="m19.23-.21s-.94,4.3,0,5.44,1.65,4.4,1.91,5.29c.26.88,2.29,2.82,3.35,1.06s2.65-3.05,3.44-3.64,5.83-1.2,6.09-1.65c.26-.45.44-5.5.44-5.5L19.23-.21Z"/>
              </g>
            </g>
          </g>
        </g>
      </g>
      <g>
        <rect class="cls-6" x="21.14" y="2.6" width="11.31" height="25.57"/>
        <polygon class="cls-6" points="31.54 27.01 31.54 3.76 21.14 3.76 18.02 12.54 21.14 27.01 31.54 27.01"/>
        <g>
          <rect class="cls-2" x="21.14" y="3.75" width="10.39" height="23.25"/>
          <g class="cls-7">
            <g>
              <path class="cls-6" d="m17.43-.99s0,6.28,1.42,9.16c1.41,2.88,1.94,5.69.88,7.33-1.06,1.64-5.2-.86-5.2-.86,0,0-1.95,1.38-2.84,4.33-.88,2.95-6.62,5.4-7.86,4.57C2.6,22.71,3.13.46,3.13.46l14.3-1.45Z"/>
              <path class="cls-6" d="m3.57,25.23s3.48,1.62,6.11.12,4.85-4.19,4.85-4.19c0,0,2.68,1.64,4.11,1.55,1.44-.09,2.5-4.7,2.5-4.7,0,0,2.38-1.18,3.44-3.58,1.06-2.4,4.31-5.01,6.09-5.56,1.78-.55,2.82.47,2.82.47l-.44,20.91-27.48,1.44-2.01-6.46h0Z"/>
              <path class="cls-6" d="m19.23-.21s-.94,4.3,0,5.44,1.65,4.4,1.91,5.29c.26.88,2.29,2.82,3.35,1.06s2.65-3.05,3.44-3.64,5.83-1.2,6.09-1.65c.26-.45.44-5.5.44-5.5L19.23-.21Z"/>
            </g>
          </g>
        </g>
      </g>
      <g>
        <polygon class="cls-6" points="21.14 28.18 14.53 29.74 14.53 1 21.14 2.61 21.14 3.76 19.9 6.21 19.53 26.52 21.14 27.01 21.14 28.18"/>
        <polygon class="cls-6" points="21.14 23.11 21.14 4.06 18.81 3.26 17.66 3 17.46 2.98 17.46 14.61 14.53 14.61 14.53 23.11 21.14 23.11"/>
        <g>
          <polygon class="cls-2" points="14.53 28.43 14.53 2.31 21.14 3.76 21.14 27.01 14.53 28.43"/>
          <g class="cls-8">
            <g>
              <path class="cls-6" d="m17.43-.99s0,6.28,1.42,9.16c1.41,2.88,1.94,5.69.88,7.33-1.06,1.64-5.2-.86-5.2-.86,0,0-1.95,1.38-2.84,4.33-.88,2.95-6.62,5.4-7.86,4.57C2.6,22.71,3.13.46,3.13.46l14.3-1.45Z"/>
              <path class="cls-6" d="m3.57,25.23s3.48,1.62,6.11.12,4.85-4.19,4.85-4.19c0,0,2.68,1.64,4.11,1.55,1.44-.09,2.5-4.7,2.5-4.7,0,0,2.38-1.18,3.44-3.58,1.06-2.4,4.31-5.01,6.09-5.56,1.78-.55,2.82.47,2.82.47l-.44,20.91-27.48,1.44-2.01-6.46h0Z"/>
              <path class="cls-6" d="m19.23-.21s-.94,4.3,0,5.44,1.65,4.4,1.91,5.29c.26.88,2.29,2.82,3.35,1.06s2.65-3.05,3.44-3.64,5.83-1.2,6.09-1.65c.26-.45.44-5.5.44-5.5L19.23-.21Z"/>
            </g>
          </g>
        </g>
      </g>
      <g>
        <rect class="cls-3" x="26.25" y="3.76" width=".18" height="24.42"/>
        <rect class="cls-3" x="9.97" y="2.61" width=".18" height="25.56"/>
        <polygon class="cls-3" points="31.54 11.93 21.13 11.93 21.12 11.93 14.52 10.36 5.59 11.11 5.57 10.94 14.53 10.18 14.55 10.18 21.15 11.75 31.54 11.75 31.54 11.93"/>
      </g>
    </g>
    <g>
      <path class="cls-6" d="m2.24,28.59v1.62c0,.15.11.28.26.29l16.59,1.57,2.23,1.48,3.08-4.1-22.18-.86h.02Z"/>
      <path class="cls-6" d="m14.96,30.82v1.45c0,.12.09.23.21.24l3.98.64-.12-2.34-3.81-.24c-.14,0-.26.1-.26.25Z"/>
      <g>
        <path class="cls-6" d="m3.92,29.34h-.25v.09c-.2.16-.35.51-.35.91s.15.78.37.93v.07h.23c.33,0,.6-.45.6-1.01s-.27-1.01-.6-1.01v.02Z"/>
        <ellipse class="cls-6" cx="3.67" cy="30.34" rx=".6" ry="1.01"/>
        <ellipse class="cls-6" cx="3.59" cy="30.34" rx=".33" ry=".57"/>
        <ellipse class="cls-6" cx="3.64" cy="30.34" rx=".28" ry=".52"/>
      </g>
      <g>
        <path class="cls-6" d="m5.33,29.45h-.27v.1c-.22.17-.38.56-.38,1s.17.86.41,1.02v.08h.25c.36,0,.65-.49.65-1.1s-.29-1.1-.65-1.1h0Z"/>
        <ellipse class="cls-6" cx="5.05" cy="30.55" rx=".65" ry="1.1"/>
        <ellipse class="cls-6" cx="4.96" cy="30.55" rx=".37" ry=".62"/>
        <path class="cls-6" d="m5.33,30.55c0,.32-.14.58-.31.58s-.31-.26-.31-.58.14-.58.31-.58.31.26.31.58Z"/>
      </g>
      <g>
        <path class="cls-6" d="m6.83,29.45h-.3v.11c-.24.19-.41.61-.41,1.09s.18.93.44,1.11v.09h.27c.39,0,.71-.54.71-1.2s-.32-1.2-.71-1.2Z"/>
        <ellipse class="cls-6" cx="6.53" cy="30.66" rx=".71" ry="1.2"/>
        <ellipse class="cls-6" cx="6.43" cy="30.66" rx=".4" ry=".68"/>
        <ellipse class="cls-6" cx="6.49" cy="30.66" rx=".34" ry=".63"/>
      </g>
      <g>
        <path class="cls-6" d="m13.75,30.08h-.38v.14c-.31.24-.53.78-.53,1.4s.23,1.19.57,1.42v.11h.34c.5,0,.91-.69.91-1.54s-.41-1.54-.91-1.54h0Z"/>
        <ellipse class="cls-6" cx="13.37" cy="31.62" rx=".91" ry="1.54"/>
        <ellipse class="cls-6" cx="13.24" cy="31.62" rx=".51" ry=".86"/>
        <ellipse class="cls-6" cx="13.32" cy="31.62" rx=".43" ry=".8"/>
      </g>
      <g>
        <path class="cls-6" d="m19.8,30.32h-.49v.18c-.4.31-.67.99-.67,1.78s.3,1.52.72,1.82v.15h.44c.64,0,1.16-.88,1.16-1.96s-.52-1.96-1.16-1.96h0Z"/>
        <ellipse class="cls-6" cx="19.31" cy="32.29" rx="1.16" ry="1.96"/>
        <ellipse class="cls-6" cx="19.15" cy="32.29" rx=".65" ry="1.1"/>
        <ellipse class="cls-6" cx="19.25" cy="32.29" rx=".55" ry="1.02"/>
      </g>
      <path class="cls-6" d="m1.25,19.96c-.22.04-.38.22-.38.44v8.22c0,.24.19.44.43.45l15.44.86v-12.55s-15.49,2.58-15.49,2.58Z"/>
      <path class="cls-6" d="m25.45,17.68l-8.71-.29v12.55h9.18v-11.77c0-.26-.21-.48-.47-.48h0Z"/>
      <path class="cls-6" d="m30.56,25.97l-.64-1.62-.02-1.34.65-.13c.06-.01.1-.07.09-.14-.1-.39-.46-1.7-1.02-2.13-.39-.3-7.88-.39-7.88-.39l-3.6.23c-.28.02-.5.25-.5.54v7.98c0,.21.16.38.37.4l2.47.21.49.49s7.01.56,9.8.05c.14-.03.25-.15.25-.3v-3.51c0-.51-.46-.36-.46-.36v.02Z"/>
      <path class="cls-4" d="m22.96,26.45s-.08-3.47,0-4.89c.04-.69-.31-1.1-.68-1.33h-.55l-3.6.23c-.28.02-.5.25-.5.54v7.98c0,.21.16.38.37.4l2.47.21.49.49s1.15.09,2.71.17v-2.96l-.71-.84Z"/>
      <path class="cls-6" d="m30.94,30.75l-.28-.1v-.56c0-.15-.12-.27-.27-.27h-8.68c-.21,0-.38.17-.38.38v3.36c0,.18.15.33.34.33l9.29-.36c.17,0,.31-.15.31-.33v-1.97c0-.21-.13-.4-.33-.47h0Z"/>
      <path class="cls-6" d="m29.88,27.87h-5.14c-.17,0-.31.15-.3.32l.28,4.04c.01.2.19.36.39.35l4.42-.15c.19,0,.35-.16.36-.35l.28-3.89c.01-.17-.12-.32-.3-.32h0Z"/>
      <g class="cls-9">
        <path class="cls-6" d="m30.94,30.75l-.28-.1v-.56c0-.12-.08-.22-.18-.26l-.53,2.48c-.06.3-.32.51-.62.52l-4.05.16c-.29,0-.55-.17-.65-.44l-.95-2.73h-1.97c-.21,0-.38.17-.38.38v3.36c0,.18.15.33.34.33l9.29-.36c.17,0,.31-.15.31-.33v-1.97c0-.21-.13-.4-.33-.47h0Z"/>
      </g>
      <path class="cls-6" d="m24.11,32.77l-.96.05c-.6.03-1.11-.42-1.16-1.02l-.04-.47h1.93c.13,0,.24.11.24.24v1.2h-.01Z"/>
      <path class="cls-6" d="m30.33,31.53l-.15,1.05s1.02-.04.99-1.32l-.63.07c-.11.01-.19.09-.21.2Z"/>
      <path class="cls-6" d="m23.18,26.47c-.15,0-.3-.05-.42-.14l-.4-.29c-.15-.11-.23-.28-.23-.46v-2.31c0-.1.05-.2.13-.27s.18-.1.29-.08l.39.07h6.98v.02l.66,2.96-.07.37h-.02l-7.29.13h-.02Zm-.7-3.51c-.07,0-.14.03-.2.07-.07.06-.11.15-.11.24v2.31c0,.17.08.33.22.43l.4.29c.12.09.26.13.41.13l7.28-.13.07-.33-.66-2.94h-6.95l-.39-.07h-.07Z"/>
      <path class="cls-6" d="m29.89,23.01h-6.97l-.39-.07c-.2-.03-.39.12-.39.33v2.31c0,.17.08.34.22.44l.4.29c.12.09.27.14.42.13l7.29-.13.07-.35-.66-2.96h0Z"/>
      <g>
        <rect class="cls-6" x="24.81" y="22.21" width=".92" height=".57" rx=".16" ry=".16"/>
        <rect class="cls-6" x="28.29" y="22.21" width=".92" height=".57" rx=".16" ry=".16"/>
      </g>
      <path class="cls-5" d="m27.72,24.65c-1.8-.69-3.49.17-4.26-.76-.21-.25-.29-.57-.31-.88h-.21l-.39-.07c-.2-.03-.39.12-.39.33v2.31c0,.17.08.34.22.44l.4.29c.12.09.27.14.42.13l6.61-.12c-.75-1.01-1.51-1.45-2.09-1.68h0Z"/>
    </g>
    <g>
      <path class="cls-6" d="m7.54,16.39c-.06,0-.11-.03-.15-.08-.06-.08-.04-.2.04-.26,0,0,.07-.05.2-.15.08-.06.2-.05.26.04.06.08.05.2-.04.26-.13.1-.2.15-.2.15-.03.03-.07.04-.11.04Z"/>
      <path class="cls-6" d="m25.11,17.19h-.11c-.1,0-.18-.1-.17-.2,0-.1.1-.18.2-.17h.19c.08-.02.15-.04.22-.06.1-.03.21.02.24.12s-.02.21-.12.24c-.08.03-.17.05-.26.07-.06.01-.12.02-.2.02v-.02Zm-.58-.1h-.05c-.15-.04-.31-.09-.49-.16-.1-.04-.15-.14-.11-.24.04-.1.14-.15.24-.11.17.06.32.11.46.15.1.03.16.13.13.23-.02.08-.1.14-.18.14h0Zm1.43-.19c-.06,0-.13-.03-.16-.09-.05-.09-.02-.21.07-.26.13-.08.26-.17.37-.27.08-.07.2-.06.27.02s.06.2-.02.27c-.14.12-.28.23-.43.31-.03.02-.06.03-.09.03h-.01Zm-2.37-.14s-.05,0-.07-.01c-.15-.06-.3-.13-.46-.2-.1-.04-.14-.15-.1-.25.04-.1.15-.14.25-.1.16.07.31.14.45.19.1.04.14.15.1.25-.03.07-.1.12-.17.12Zm-.91-.41s-.05,0-.08-.02c-.15-.07-.3-.14-.45-.22-.09-.05-.13-.16-.09-.25.05-.09.16-.13.25-.09.15.08.3.15.45.22.09.04.13.16.09.25-.03.07-.1.11-.17.11Zm4.04-.1s-.08-.01-.12-.04c-.08-.07-.09-.18-.03-.27.1-.12.19-.25.27-.39.05-.09.17-.12.26-.06.09.05.12.17.06.26-.09.15-.19.3-.3.43-.04.05-.09.07-.15.07h.01Zm-18.57-.31c-.06,0-.11-.03-.15-.07-.06-.08-.05-.2.03-.26.12-.09.25-.19.39-.3.08-.06.2-.05.26.03s.05.2-.03.26c-.14.11-.28.22-.4.31-.03.03-.07.04-.11.04h0Zm13.64-.02s-.06,0-.09-.02c-.14-.07-.3-.15-.45-.23-.09-.05-.13-.16-.08-.25s.16-.13.25-.08c.15.08.3.16.44.23.09.05.13.16.08.25-.03.07-.1.1-.17.1h.02Zm-.89-.46s-.06,0-.09-.02c-.15-.08-.29-.16-.44-.24-.09-.05-.12-.16-.07-.26.05-.09.16-.12.26-.07.15.08.29.16.44.24.09.05.13.16.08.26-.03.06-.1.1-.17.1h-.01Zm-11.97-.13c-.06,0-.11-.02-.15-.07-.06-.08-.05-.2.03-.26.13-.1.26-.2.39-.31.08-.07.2-.05.26.03.07.08.05.2-.03.26-.13.11-.27.21-.39.31-.03.03-.08.04-.12.04h0Zm11.09-.36s-.06,0-.09-.02c-.15-.08-.29-.16-.44-.25-.09-.05-.12-.17-.07-.26.05-.09.17-.12.26-.07.14.08.29.16.43.24.09.05.12.17.07.26-.03.06-.1.1-.16.1Zm-10.31-.27c-.05,0-.11-.02-.15-.07-.07-.08-.05-.2.03-.27.13-.1.25-.21.38-.32.08-.07.2-.06.27.02.07.08.06.2-.02.27-.13.11-.26.21-.39.32-.04.03-.08.04-.12.04h0Zm9.44-.22s-.06,0-.09-.03c-.15-.09-.29-.17-.43-.25-.09-.05-.12-.17-.07-.26.05-.09.17-.12.26-.07.14.08.28.17.43.25.09.05.12.17.07.26-.03.06-.1.09-.16.09h-.01Zm-8.68-.42c-.05,0-.11-.02-.14-.07-.07-.08-.06-.2.02-.27.13-.11.26-.22.37-.33.08-.07.2-.06.27.02.07.08.06.2-.02.27-.12.11-.25.22-.38.33-.04.03-.08.05-.12.05Zm7.81-.09s-.07,0-.1-.03c-.15-.09-.29-.18-.43-.26-.09-.05-.12-.17-.06-.26.05-.09.17-.12.26-.06.14.08.28.17.43.26.09.05.12.17.07.26-.04.06-.1.09-.16.09h-.01Zm-.86-.52s-.07,0-.1-.03c-.15-.1-.3-.18-.43-.27-.09-.06-.11-.17-.06-.26.06-.09.17-.11.26-.06.13.08.27.17.42.26.09.05.12.17.06.26-.04.06-.1.09-.16.09h.01Zm-6.21-.06c-.05,0-.1-.02-.14-.06-.07-.08-.06-.2.01-.27.13-.12.25-.23.36-.34.08-.07.19-.07.27,0,.07.08.07.19,0,.27-.11.11-.24.23-.37.34-.04.03-.08.05-.13.05h0Zm5.37-.48s-.07-.01-.11-.03c-.1-.07-.21-.14-.32-.22l-.09-.06c-.09-.06-.11-.18-.05-.26.06-.09.18-.11.26-.05l.09.06c.11.07.21.15.32.22.09.06.11.18.05.26-.04.05-.1.08-.16.08h.01Zm-4.65-.21s-.09-.02-.13-.05c-.07-.07-.08-.19,0-.27.12-.13.24-.25.33-.36.07-.08.19-.09.27-.02.08.07.09.19.02.27-.1.12-.22.24-.35.37-.04.04-.09.06-.14.06Zm3.82-.35s-.07-.01-.1-.03c-.15-.1-.29-.19-.42-.26-.09-.05-.12-.17-.06-.26.05-.09.17-.12.26-.06.13.08.27.17.43.27.09.06.11.17.05.26-.04.05-.1.08-.16.08Zm-3.16-.4s-.09-.02-.13-.05c-.07-.07-.08-.19,0-.27.14-.14.28-.25.44-.34.09-.05.21-.01.26.08s.01.21-.08.26c-.12.07-.24.16-.35.27-.04.04-.09.06-.14.06h0Zm2.3-.11s-.06,0-.08-.02c-.15-.08-.3-.14-.44-.19-.1-.04-.15-.14-.11-.24.04-.1.14-.15.24-.11.15.05.31.13.48.21.09.05.13.16.08.25-.03.07-.1.1-.17.1Zm-.94-.33h-.03c-.16-.03-.31-.03-.44-.01-.1.01-.2-.06-.21-.16-.01-.1.06-.2.16-.21.17-.02.36-.02.55.01.1.02.17.11.16.22-.02.09-.1.16-.19.16h0Z"/>
      <path class="cls-6" d="m27.22,15.42s-.05,0-.08-.02c-.1-.04-.14-.15-.1-.25.06-.13.08-.21.08-.21.03-.1.14-.15.24-.12s.15.14.12.24c0,0-.03.1-.1.25-.03.07-.1.11-.17.11h.01Z"/>
    </g>
    <g>
      <g>
        <path class="cls-6" d="m12.63,5.9c0,2.18-3.05,6.15-4.43,7.83-.34.42-.98.42-1.33,0-1.38-1.69-4.43-5.66-4.43-7.83,0-2.82,2.29-5.1,5.1-5.1s5.09,2.28,5.09,5.09h0Z"/>
        <circle class="cls-6" cx="7.54" cy="5.9" r="2.84"/>
        <g class="cls-9">
          <path class="cls-6" d="m7.52,11.64c.32-2.13,1.73-2.81,1.49-4.82-.28-2.32-2.33-2.93-2.38-4.99,0-.33.04-.65.12-.96-2.44.38-4.3,2.49-4.3,5.03,0,2.18,3.05,6.15,4.43,7.83.2.25.51.35.79.3-.25-.93-.25-1.73-.15-2.39Z"/>
        </g>
      </g>
      <circle class="cls-6" cx="7.54" cy="16.2" r="1.04"/>
    </g>
    <g>
      <g>
        <path class="cls-6" d="m29.98,9.43c0,1.14-1.6,3.22-2.32,4.11-.18.22-.52.22-.7,0-.72-.88-2.32-2.97-2.32-4.11,0-1.47,1.2-2.67,2.67-2.67s2.67,1.2,2.67,2.67Z"/>
        <circle class="cls-6" cx="27.31" cy="9.43" r="1.49"/>
        <g class="cls-9">
          <path class="cls-6" d="m27.3,12.44c.17-1.12.91-1.47.78-2.53-.15-1.21-1.22-1.54-1.25-2.62,0-.17.02-.34.06-.5-1.28.2-2.25,1.3-2.25,2.64,0,1.14,1.6,3.22,2.32,4.11.11.13.27.18.42.16-.13-.49-.13-.91-.08-1.26Z"/>
        </g>
      </g>
      <circle class="cls-6" cx="27.31" cy="14.84" r=".55"/>
    </g>
  </g>
</svg>