<?xml version="1.0" encoding="UTF-8"?>
<svg id="Layer_1" data-name="Layer 1" xmlns="http://www.w3.org/2000/svg" viewBox="0 0 35 35">
  <defs>
    <style>
      .cls-1 {
        fill-rule: evenodd;
      }

      .cls-1, .cls-2 {
        fill: #fbfbfb;
        stroke-width: 0px;
      }
    </style>
  </defs>
  <path class="cls-1" d="m22.13,6.46c0,2.71-4.98,10.63-4.98,10.63,0,0-4.98-7.92-4.98-10.63s2.22-4.88,4.98-4.88,4.98,2.19,4.98,4.88h0Zm-4.98-3.66c2.14,0,3.88,1.69,3.88,3.81s-1.74,3.81-3.88,3.81-3.91-1.72-3.91-3.81,1.74-3.81,3.91-3.81h0Z"/>
  <g>
    <path class="cls-2" d="m13.37,18.08c1.6.01,3.21.02,4.81.03.75,0,1.49.01,2.24.02.44,0,1.4-.17,1.71.21.36.44.24,1.36.24,1.88,0,.22-.1.67.02.83.14.2.42.15.63.15,1.51,0,3.1-.03,4.61,0,.35,0,.69.02.89.31.17.25.39.45.57.69.4.53.75,1.09,1.17,1.61.39.48.83,1.02,1.06,1.6.26.66.33,1.46.35,2.16.02.74.03,1.49.05,2.23,0,.37.02.74.02,1.11,0,.19.1.65-.07.82-.14.13-.44.09-.61.09-.38,0-.76,0-1.14,0-.23,0-.8-.12-1.01,0-.2.11-.14.49-.2.7-.36,1.32-1.77,1.91-3.04,1.55-.56-.16-1.04-.54-1.36-1.02-.16-.24-.29-.52-.37-.79-.1-.37,0-.44-.37-.5-.68-.1-1.52.04-2.2.04-.83,0-1.66,0-2.49,0-1.59,0-3.17.02-4.76-.02-.41,0-.83-.04-1.25-.04-.36,0-.39-.01-.44.35-.06.54-.27,1.01-.69,1.37-.88.73-2.29.95-3.3.36-.46-.27-.73-.69-.9-1.18-.1-.29-.17-.58-.21-.88-.05-.42-.15-.32-.58-.32-.33,0-.66,0-.99-.01-.23,0-.74.04-.95-.08-.45-.24-.21-1.43-.21-1.88,0-1.8,0-3.61,0-5.41,0-.83,0-1.65,0-2.48,0-.45,0-.9,0-1.35,0-.43.03-.9.03-1.49s.72-.66,1-.66c.89,0,1.77,0,2.66,0,.43,0,5.06.02,5.06-.01Zm.03.66s-3.87.03-4.27.03c-.67,0-1.35,0-2.02,0-.37,0-1.83-.2-1.99.13-.1.22,0,.67,0,.92,0,.31-.1.51.18.61.27.1.81-.02,1.08-.02.36,0,.72-.02,1.08-.02,1.5-.02,3,0,4.5,0,1.48,0,5.02.02,6.49.02.7,0,.67.54.67.77-.01.74,0,1.48,0,2.22,0,.64.13,1.42,0,2.05-.14.69-1.05.51-1.57.51-1.45,0-4.6,0-6.05,0s-2.91,0-4.36,0c-.38,0-.75,0-1.13,0-.2,0-.69-.03-.83.11-.07.08-.03.37-.03.5,0,.22.42.14.68.13.4-.02,1.24-.04,1.57.22.31.25.49,1.13.23,1.45-.33.41-1.3.28-1.76.3-.15,0-.57-.05-.66.05-.06.07-.11.35-.05.44.16.23,1.43.04,1.72.04.66,0,1.42.13,2.04-.07.58-.18,1.18.03,1.77.04.72.01,1.43,0,2.15,0,1.52,0,8.68.11,8.83-.01s.09-.49.09-.69c0-.41,0-.82,0-1.23,0-.82,0-1.64,0-2.46,0-1.63-.02-3.26-.06-4.9,0-.23.11-.83-.04-1.02-.15-.18-.69-.15-.89-.14-.79.02-1.58.01-2.37.01-1.67,0-3.34,0-5.01,0Zm-8.26,5.14c2.24-.03,8.41-.07,10.65-.08.33,0,1-.13,1.26.09.52.45-.36.51-.63.51-1.16,0-6.26-.02-7.42-.02-1.08,0-2.16,0-3.25.01-.25,0-.5-.08-.6.14-.12.26.02.68.24.74.48.12,1.13,0,1.63,0,.6,0,1.2,0,1.8,0,1.16,0,2.33,0,3.49,0,1.17,0,4.03,0,5.2.01.36,0,.96.16,1.1-.2.06-.16,0-.53,0-.7,0-.29,0-.57,0-.86,0-.54,0-1.07.01-1.61,0-.43.19-.92-.32-.96-1.15-.08-4.03,0-5.18-.01-2.32,0-5.02-.01-7.34-.03-.3,0-.66,0-.66.3s-.07.88.17.99c.19.08.67,0,.89,0,.26,0,.52,0,.77,0,.59,0,1.18.01,1.77.02,1.27.01,6.48.02,7.75.02.14,0,.49-.07.6.05.14.15,0,.36-.13.44-.2.13-.64.04-.86.04-.29,0-.59,0-.88,0-1.25,0-6.43,0-7.68,0-.66,0-1.32-.03-1.98.01-.31.02-.35,0-.4.27s0,.47,0,.77Zm17.24,1.54s-.02,1.99-.02,2.23c0,.37-.01.74,0,1.12.02.58.36.42.87.42.35,0,.69.04,1.03.05.27,0,.66.02.91,0,.23-.02.53-.1.78-.16.44-.11.77-.16,1.2,0,.61.23,1.1.27,1.75.27.41,0,.83,0,1.24,0,.24,0,.85.11,1-.1.4-.58-.79-.45-.97-.45-.55,0-1.39.08-1.7-.5-.23-.42-.04-1.04.41-1.23.25-.11.59-.1.85-.12.32-.02.88.02,1.18-.1s.09-1.03-.23-1.16c-.19-.08-.82-.04-1.07-.03-.49,0-.98,0-1.47,0-.25,0-.44-.06-.58.14-.14.21-.09.73-.18.98-.22.58-.76.8-1.36.62-.47-.15-.6-.56-.7-1-.05-.22-.02-.64-.25-.76-.27-.14-.81,0-1.12-.05-.83-.13-.63-.95-.63-1.62,0-.48.01-.96.03-1.44,0-.25.13-.67-.1-.8-.09-.05-.74-.1-.83-.04-.16.11-.05.71-.05.87,0,.96,0,1.91,0,2.87Zm3.38-3.71s-1.29,0-1.42,0c-.62,0-.49.13-.47.69s.01,1.07.02,1.6c0,.35-.15.92.2,1.05.2.08,1,0,1.1-.19.05-.1.01-.4.02-.51.03-.26.08-.55.21-.79.39-.72,1.3-.68,1.77-.06.25.32.37.73.43,1.13.08.5.36.35.84.35.51,0,1.03.02,1.54,0,.57-.02.22-.27,0-.58-.53-.72-1.02-1.54-1.64-2.18-.71-.73-1.64-.52-2.59-.52Zm-3.83,9.43c-.02-.19,0-1.09-.14-1.23-.19-.19-9.19-.15-10.15-.03.21.32.48.58.64.94.19.41.24.41.69.4,1.04-.03,2.07-.05,3.11-.06,1.03,0,2.06,0,3.09,0,.9,0,1.87.1,2.76-.02Zm-12.19-1.55c-1.65,0-2.14,1.5-1.85,2.5.15.52.34,1.01.86,1.27.48.24,1.07.25,1.57.11.51-.15,1.1-.41,1.39-.87.14-.21.22-.46.22-.71.01-.43-.34-2.29-2.2-2.29Zm14.6,2.02c-.08,1.12,1.11,2.05,2.15,1.93,1.15-.13,1.87-.79,1.77-1.99-.04-.49-.1-1.07-.46-1.44-.33-.35-1.07-.72-1.56-.65-1.09.16-1.88,1.08-1.9,2.15Zm4.02-1.72c.1.31.27.55.33.88.07.41.05.48.49.48s1.8.19,1.97-.19c.06-.13,0-.83,0-.97,0-.26-.3-.21-.65-.21-.71,0-1.43-.03-2.14.01Zm-20.51-.09c-.62-.14-1.42-.01-2.06-.01-.26,0-.51-.09-.6.16-.05.13-.07.86,0,.98.16.3,1.36.13,1.71.13.31,0,.41.04.55-.24.16-.31.27-.69.4-1.02Zm16.65,0c-.36.04-.71.07-1.08.07-.21,0-.8-.11-.97.01-.36.24-.2.79-.2,1.28h.67c.23,0,.67.08.87,0,.26-.11.48-1.06.7-1.36Zm5.82-2.49c-.33,0-1.27.05-1.42.2-.44.42.25.75.57.79.31.03,1.43.15,1.62-.08.06-.07.08-.67.03-.77-.11-.2-.47-.13-.8-.13Zm-25.03-.11c-.18.12-.12.33-.11.55,0,.18-.04.34.11.44.14.1.66-.01.82-.02.29-.01.59-.02.88-.05.35-.03.37-.19.34-.56-.04-.61-1.94-.42-2.03-.36Zm21.7-2.21c.23-.09.17-.23.11-.47-.09-.4-.27-.87-.73-.97-.48-.1-.65.26-.74.68-.03.18-.13.59.02.72.13.12,1.28.06,1.33.04Zm-.59.63c-.71,0-.71.1-.7.35,0,.37.13.81.52.92.48.14.79-.26.86-.68.11-.62-.12-.59-.67-.59Z"/>
    <path class="cls-2" d="m10.86,31.56c-.03.59-.27,1.07-.91,1.14s-1.25-.41-1.24-1.06c0-.54.33-1.18.9-1.28s1.4.62,1.25,1.2Zm-1.14.51c.88-.03.66-1.13-.05-1.09-.68.04-.61,1.12.05,1.09Z"/>
    <path class="cls-2" d="m27.27,30.8c.25.46.28,1.02-.01,1.45-.2.29-.51.49-.91.48-.63-.02-1.28-.56-1.27-1.21.01-.63.56-1.27,1.21-1.29.5-.01.79.23.98.57Zm-.32.73c.09-.95-1.58-.75-1.44.03.12.7,1.42.78,1.44-.03Z"/>
  </g>
</svg>