<?xml version="1.0" encoding="UTF-8"?>
<svg id="Layer_1" data-name="Layer 1" xmlns="http://www.w3.org/2000/svg" xmlns:xlink="http://www.w3.org/1999/xlink" viewBox="0 0 35 35">
  <defs>
    <style>
      .cls-1 {
        fill: url(#linear-gradient);
      }

      .cls-1, .cls-2, .cls-3, .cls-4, .cls-5, .cls-6, .cls-7, .cls-8, .cls-9, .cls-10 {
        stroke-width: 0px;
      }

      .cls-11 {
        opacity: .2;
      }

      .cls-12 {
        opacity: .3;
      }

      .cls-13 {
        opacity: .55;
      }

      .cls-2 {
        fill: url(#linear-gradient-2);
      }

      .cls-3 {
        fill: #f7f8f8;
      }

      .cls-4 {
        fill: #27306b;
      }

      .cls-5 {
        fill: #5780c1;
      }

      .cls-6 {
        fill: #55bc76;
      }

      .cls-7 {
        fill: #242568;
      }

      .cls-8 {
        fill: #dcdbdb;
      }

      .cls-9 {
        fill: #9daeb7;
      }

      .cls-10 {
        fill: #fff;
      }
    </style>
    <linearGradient id="linear-gradient" x1="4.37" y1="5.3" x2="11.46" y2="5.3" gradientUnits="userSpaceOnUse">
      <stop offset="0" stop-color="#443e97"/>
      <stop offset="1" stop-color="#32bdb3"/>
    </linearGradient>
    <linearGradient id="linear-gradient-2" x1="20.54" y1="22.77" x2="32.35" y2="22.77" xlink:href="#linear-gradient"/>
  </defs>
  <g class="cls-11">
    <path class="cls-7" d="m34.5,18.19c-.11-.33-.34-.59-.65-.74l-6.33-3.09c-.64-.31-1.41-.05-1.72.59l-1.11,2.27-1.27-8.89c-.12-.82-.88-1.39-1.7-1.28l-2.46.35-.42-.39s-.02-.02-.03-.02c0,0,0,0,0,0,0,0-.02,0-.03-.01,0,0,0,0-.01,0-.01,0-.02,0-.03,0,0,0,0,0,0,0-.01,0-.03,0-.04,0,0,0,0,0,0,0h-7.1c.22-.53.36-1.01.36-1.42,0-2.09-1.7-3.78-3.78-3.78s-3.78,1.7-3.78,3.78c0,.4.14.89.36,1.42h-1.39v-.33c0-.08-.04-.16-.11-.2-.28-.17-.6-.26-.95-.26-.89,0-1.61.62-1.61,1.39v16.23c0,.72.63,1.32,1.46,1.38.05,0,.1,0,.15,0h.99l.2,1.4c.06.4.26.75.59.99.26.2.58.3.9.3.07,0,.14,0,.22-.02l15.4-2.19-1.95,3.99c-.15.31-.17.66-.06.98.11.33.34.59.65.74l6.33,3.09c.18.09.37.13.56.13.14,0,.28-.02.42-.07.33-.11.59-.34.74-.65l7.17-14.68c.15-.31.17-.66.06-.98ZM8.15,6.71c-.7,0-1.26-.57-1.26-1.26s.57-1.26,1.26-1.26,1.26.57,1.26,1.26-.57,1.26-1.26,1.26Z"/>
  </g>
  <rect class="cls-8" x="2.29" y="7.23" width="21.84" height="17.77" rx="1.27" ry="1.27" transform="translate(-2.14 2.02) rotate(-8.1)"/>
  <path class="cls-7" d="m4.72,26.52c-.74,0-1.38-.54-1.49-1.29L1.09,10.14c-.12-.82.46-1.58,1.28-1.7l19.11-2.72c.82-.12,1.58.46,1.7,1.28l2.15,15.08c.06.4-.05.79-.29,1.12-.24.32-.59.53-.99.59l-19.11,2.72c-.07.01-.14.02-.21.02ZM21.69,6.18s-.1,0-.15.01L2.43,8.91c-.56.08-.96.6-.88,1.17l2.15,15.08c.08.56.6.96,1.17.88l19.11-2.72c.27-.04.51-.18.68-.4.17-.22.24-.49.2-.76l-2.15-15.08c-.07-.51-.52-.89-1.02-.89Z"/>
  <g>
    <path class="cls-8" d="m22.48,9.56v13.28c0,.41-.33.75-.75.75H2.04s-.09,0-.13,0c-.7-.05-1.25-.54-1.25-1.14s.55-1.09,1.25-1.14c.04,0,.08,0,.13,0,.31,0,.59.09.82.23V5.86h15.57l4.05,3.7Z"/>
    <path class="cls-7" d="m21.74,23.63H2.04s-.09,0-.13,0c-.35-.03-.67-.16-.91-.38-.24-.22-.37-.51-.37-.81s.13-.59.37-.81c.24-.22.56-.35.91-.38.04,0,.08,0,.13,0,.28,0,.55.07.78.2V5.82h15.64s4.06,3.73,4.06,3.73v13.3c0,.43-.35.79-.79.79Zm-19.69-2.3s-.08,0-.12,0c-.69.05-1.21.53-1.21,1.11s.52,1.05,1.21,1.1c.04,0,.08,0,.12,0h19.69c.39,0,.71-.32.71-.71v-13.26l-4.02-3.68H2.91v15.69l-.06-.04c-.23-.15-.51-.22-.8-.22Z"/>
  </g>
  <polygon class="cls-6" points="5.13 15.81 7.2 15.81 9.52 17.31 10.7 18.51 5.92 20.52 5.13 15.81"/>
  <polygon class="cls-6" points="17.28 11.65 19.08 9.56 22.48 9.56 22.43 15.36 17.28 11.65"/>
  <path class="cls-5" d="m16.3,23.59h-1.74l-.57-.69c-.64-.77-1-1.75-1-2.75s-.51-1.95-1.37-2.5l-3.09-1.96c-1.25-.79-2-2.15-2-3.63v-6.2h1.34v6.2c0,1.02.51,1.95,1.37,2.5l3.09,1.96c1.25.79,2,2.15,2,3.63,0,.69.24,1.36.69,1.89l1.29,1.55Z"/>
  <path class="cls-8" d="m2.87,5.29v16.23c-.23-.14-.51-.23-.82-.23-.04,0-.09,0-.13,0-.7.05-1.25.55-1.25,1.14V6.21c0-.64.62-1.15,1.38-1.15.31,0,.59.09.82.23Z"/>
  <g class="cls-13">
    <path class="cls-10" d="m2.87,5.29v.2c-.1-.02-.2-.03-.31-.03-.76,0-1.38.51-1.38,1.15v14.94c-.31.21-.51.53-.51.9V6.21c0-.64.62-1.15,1.38-1.15.31,0,.59.09.82.23Z"/>
  </g>
  <path class="cls-7" d="m.67,22.68c-.13,0-.24-.11-.24-.24V6.21c0-.38.17-.73.49-.99.3-.25.7-.39,1.12-.39.34,0,.67.09.95.26.07.04.11.12.11.2v16.23c0,.09-.05.17-.12.21-.08.04-.17.04-.24,0-.2-.13-.44-.19-.7-.19-.04,0-.07,0-.1,0,0,0,0,0,0,0-.58.04-1.03.44-1.03.91,0,.13-.11.24-.24.24ZM2.04,5.3c-.63,0-1.14.41-1.14.91v15.25c.27-.23.62-.37.99-.4.05,0,.09,0,.15,0,.2,0,.4.03.59.09V5.43c-.18-.09-.38-.13-.59-.13Z"/>
  <path class="cls-8" d="m22.48,9.56h-3.1c-.52,0-.95-.42-.95-.95v-2.76l4.05,3.7Z"/>
  <g class="cls-12">
    <path class="cls-4" d="m22.47,10.61h-2.56c-.52,0-.95-.42-.95-.95v-.2c.13.06.27.1.42.1h3.06l.03,1.05Z"/>
    <path class="cls-7" d="m22.52,10.65h-2.61c-.54,0-.99-.44-.99-.99v-.27l.06.03c.13.06.26.09.4.09h3.1l.03,1.13Zm-3.51-1.13v.14c0,.5.41.91.91.91h2.52l-.03-.97h-3.02c-.13,0-.26-.03-.38-.08Z"/>
  </g>
  <path class="cls-7" d="m22.48,9.8h-3.1c-.65,0-1.18-.53-1.18-1.18v-2.76c0-.09.06-.18.14-.22.09-.04.19-.02.25.04l4.05,3.7c.07.07.1.17.06.26-.04.09-.12.15-.22.15Zm-3.81-3.4v2.22c0,.39.32.71.71.71h2.49l-3.2-2.93Z"/>
  <polygon class="cls-10" points="19.92 23.59 19.06 23.59 19.06 19.22 10.33 11.91 9.84 5.89 10.7 5.82 11.16 11.48 19.92 18.82 19.92 23.59"/>
  <polygon class="cls-10" points="6.45 23.59 5.58 23.59 5.58 20.31 11.74 17.56 14.58 14.84 15.18 15.47 12.23 18.29 6.45 20.88 6.45 23.59"/>
  <polygon class="cls-6" points="14.69 5.86 15.13 8.54 17.05 8.4 16.85 5.86 14.69 5.86"/>
  <polygon class="cls-10" points="5.59 20.67 4.39 13.46 2.87 13.46 2.87 12.6 5.12 12.6 6.44 20.52 5.59 20.67"/>
  <polygon class="cls-9" points="5.58 5.86 4.83 10.04 2.87 11.18 2.87 5.86 5.58 5.86"/>
  <polygon class="cls-10" points="4.85 13.45 4.66 12.61 10.58 11.28 13.73 9.35 13.15 5.93 14.01 5.79 14.69 9.78 10.91 12.1 4.85 13.45"/>
  <polygon class="cls-10" points="22.37 15.58 20.71 15.12 13.95 9.91 14.47 9.22 21.11 14.33 22.6 14.74 22.37 15.58"/>
  <rect class="cls-10" x="19.49" y="20.95" width="2.99" height=".87"/>
  <path class="cls-7" d="m21.74,23.83H2.04c-.05,0-.1,0-.15,0-.39-.03-.76-.18-1.03-.43-.28-.26-.44-.6-.44-.95s.16-.69.44-.95c.27-.25.63-.4,1.03-.43.05,0,.09,0,.15,0,.2,0,.4.03.59.09V5.86c0-.13.11-.24.24-.24h15.57c.06,0,.12.02.16.06l4.05,3.7s.08.11.08.17v13.28c0,.54-.44.99-.99.99Zm-19.69-2.3s-.07,0-.1,0c0,0,0,0,0,0-.58.04-1.03.44-1.03.91s.45.86,1.03.91c0,0,0,0,0,0,.03,0,.07,0,.1,0h19.69c.28,0,.51-.23.51-.51v-13.17l-3.9-3.57H3.1v15.42c0,.09-.05.17-.12.21-.08.04-.17.04-.24,0-.2-.13-.44-.19-.7-.19Z"/>
  <polygon class="cls-9" points="15.88 17.91 18.27 19.57 18.27 21.82 17.2 21.94 15.18 18.68 15.88 17.91"/>
  <polygon class="cls-9" points="13.21 11.43 14.21 10.75 17.05 13.01 16.3 13.94 13.21 11.43"/>
  <polygon class="cls-9" points="6.99 21.3 6.99 23.07 11.85 22.03 11.56 19.31 6.99 21.3"/>
  <path class="cls-1" d="m7.92.66c-1.96,0-3.55,1.59-3.55,3.55,0,1.43,1.88,4.08,2.91,5.42.32.42.96.42,1.28,0,1.02-1.33,2.9-3.99,2.9-5.42,0-1.96-1.59-3.55-3.55-3.55Zm0,4.96c-.83,0-1.5-.67-1.5-1.5s.67-1.5,1.5-1.5,1.5.67,1.5,1.5-.67,1.5-1.5,1.5Z"/>
  <g class="cls-13">
    <path class="cls-10" d="m9,3.01c.3.27.49.67.49,1.11,0,.83-.67,1.5-1.5,1.5-.15,0-.29-.02-.43-.06.27.24.62.38,1,.38.83,0,1.5-.67,1.5-1.5,0-.68-.45-1.25-1.07-1.43Zm-.43-2.03c.51,0,1,.11,1.44.31-.57-.4-1.27-.63-2.02-.63-1.96,0-3.55,1.59-3.55,3.55,0,1.43,1.88,4.08,2.91,5.42.14.19.35.29.56.31-1.02-1.34-2.9-3.98-2.9-5.41,0-1.96,1.59-3.55,3.55-3.55Z"/>
  </g>
  <path class="cls-7" d="m7.92,10.17c-.33,0-.63-.15-.83-.41-.51-.67-1.25-1.67-1.85-2.7-.73-1.23-1.1-2.2-1.1-2.86,0-1.01.39-1.96,1.11-2.67.71-.71,1.66-1.11,2.67-1.11s1.96.39,2.67,1.11c.71.71,1.11,1.66,1.11,2.67,0,.67-.37,1.63-1.1,2.86-.61,1.02-1.34,2.03-1.85,2.7-.2.26-.5.41-.83.41ZM7.92.9c-1.83,0-3.31,1.48-3.31,3.31,0,.98,1.04,2.9,2.86,5.27.11.14.27.22.45.22s.34-.08.45-.22c1.82-2.37,2.86-4.29,2.86-5.27,0-1.83-1.48-3.31-3.31-3.31Z"/>
  <path class="cls-7" d="m7.92,5.86c-.96,0-1.73-.78-1.73-1.73s.78-1.73,1.73-1.73,1.73.78,1.73,1.73-.78,1.73-1.73,1.73Zm0-2.99c-.7,0-1.26.57-1.26,1.26s.57,1.26,1.26,1.26,1.26-.57,1.26-1.26-.57-1.26-1.26-1.26Z"/>
  <g class="cls-12">
    <path class="cls-7" d="m3.86,5.86v17.73h-1.82s-.09,0-.13,0c-.7-.05-1.25-.54-1.25-1.14s.55-1.09,1.25-1.14c.04,0,.08,0,.13,0,.31,0,.59.09.82.23V5.86h.99Z"/>
  </g>
  <g>
    <g>
      <path class="cls-3" d="m25.76,13.73l-7.17,14.68c-.25.52-.04,1.15.48,1.41l6.33,3.09c.29.14.61.14.88.02,0,0,0,0,0,0,.22-.1.41-.27.52-.5l7.17-14.68c.25-.52.04-1.15-.48-1.41l-6.33-3.09c-.52-.25-1.15-.04-1.41.48Z"/>
      <path class="cls-7" d="m25.88,33.05c-.16,0-.33-.04-.48-.11l-6.33-3.09c-.54-.26-.77-.92-.5-1.46l7.17-14.68c.26-.54.92-.77,1.46-.5l6.33,3.09c.26.13.46.35.55.63.09.28.08.57-.05.83l-7.17,14.68c-.11.23-.3.41-.53.51h0s-.01,0-.01,0c-.14.06-.29.09-.44.09Zm-.08-19.31l-7.17,14.68c-.24.5-.04,1.11.47,1.35l6.33,3.09c.27.13.58.14.85.02,0,0,0,0,0,0,.22-.1.4-.27.5-.48l7.17-14.68c.12-.24.14-.52.05-.77-.09-.26-.27-.46-.51-.58l-6.33-3.09c-.5-.24-1.11-.04-1.35.47h0Z"/>
    </g>
    <g class="cls-11">
      <path class="cls-7" d="m22.72,29.39c-.13-.07-.29,0-.36.12l-.26.53,1.34.65c.13.07.29,0,.36-.12l.26-.53-1.34-.65Z"/>
    </g>
    <path class="cls-7" d="m25.87,33.25c-.19,0-.38-.04-.56-.13l-6.33-3.09h0c-.64-.31-.9-1.08-.59-1.72l7.17-14.68c.15-.31.41-.54.74-.65.33-.11.68-.09.98.06l6.33,3.09c.31.15.54.41.65.74.11.33.09.68-.06.98l-7.17,14.68c-.22.46-.68.72-1.16.72Zm-6.69-3.65l6.33,3.09c.4.2.89.03,1.09-.38l7.17-14.68c.1-.2.11-.42.04-.62-.07-.21-.22-.37-.41-.47l-6.33-3.09c-.2-.1-.42-.11-.62-.04-.21.07-.37.22-.47.41l-7.17,14.68c-.2.4-.03.89.38,1.09h0Z"/>
    <g class="cls-11">
      <path class="cls-7" d="m26.26,13.97l-7.17,14.68c-.12.25-.02.55.23.67l2.56,1.25c-.23-.37-.44-.49-.37-.94.09-.19.35-.77.51-.89.11-.08.29-.11.47-.12.21-.02.38-.18.41-.39.01-.12.03-.19.03-.19,0,0,.84-.83,1.82-1.07-.38-4.03.41-8.45,2.22-13.21l-.04-.02c-.25-.12-.55-.02-.67.23Z"/>
    </g>
    <path class="cls-2" d="m32.29,19.29l-1.65,3.39-1.22,2.5-1.13,2.32-.67,1.38-.31.64c-.03.07-.08.13-.13.17-.17.16-.43.2-.65.09l-1.83-.89-3.82-1.87c-.29-.14-.41-.49-.27-.78l1.73-3.55,1.22-2.5.42-.86.67-1.38.94-1.93c.05-.11.14-.2.24-.25.16-.09.36-.1.54-.01l2,.98,3.65,1.78c.29.14.41.49.27.78Z"/>
    <g class="cls-11">
      <path class="cls-10" d="m27.32,29.69c-.17.16-.43.2-.65.09l-1.83-.89-2.36-6.19,1.22-2.5,3.62,9.5Z"/>
    </g>
    <g class="cls-11">
      <polygon class="cls-10" points="28.71 26.62 28.04 27.99 24.4 18.44 25.08 17.06 28.71 26.62"/>
    </g>
    <g class="cls-12">
      <path class="cls-7" d="m32.3,19.27s-.01,0-.01,0l-3.65-1.78-2-.98c-.18-.09-.38-.07-.54.01-.1.06-.19.14-.24.25l-.94,1.93-.67,1.38-.42.86-1.22,2.5-1.73,3.55s0,.01,0,.02c-.28-.15-.39-.49-.25-.77l1.73-3.55,1.22-2.5.42-.86.67-1.38.94-1.93c.05-.11.14-.2.24-.25.16-.09.36-.1.54-.01l2,.98,3.65,1.78c.28.14.4.47.28.76Z"/>
    </g>
    <path class="cls-7" d="m30.38,16.6s-.05,0-.07-.02l-1.37-.67c-.08-.04-.11-.13-.07-.21.04-.08.13-.11.21-.07l1.37.67c.08.04.11.13.07.21-.03.06-.08.09-.14.09Z"/>
    <path class="cls-7" d="m30.24,15.78s-.04,0-.06-.01l-.52-.26c-.06-.03-.09-.11-.06-.17.03-.06.11-.09.17-.06l.52.26c.06.03.09.11.06.17-.02.05-.07.07-.11.07Z"/>
    <circle class="cls-7" cx="28.11" cy="15.33" r=".28"/>
    <polygon class="cls-10" points="26.79 25.54 26.04 23.42 23.8 23.69 27.76 20.63 26.79 25.54"/>
    <polygon class="cls-10" points="26.79 25.54 26.04 23.42 23.8 23.69 27.76 20.63 26.79 25.54"/>
    <path class="cls-7" d="m26.77,30.04c-.12,0-.23-.03-.34-.08l-5.65-2.76c-.19-.09-.33-.25-.4-.45-.07-.2-.05-.41.04-.6l4.99-10.23c.09-.19.25-.33.45-.4.2-.07.41-.05.6.04l5.65,2.76c.19.09.33.25.4.45.07.2.05.41-.04.6l-4.99,10.23c-.09.19-.25.33-.45.4-.08.03-.17.04-.25.04Zm-.66-14.15s-.08,0-.13.02c-.1.03-.18.1-.22.2l-4.99,10.23c-.05.09-.05.2-.02.3.03.1.1.18.2.22h0l5.65,2.76c.09.05.2.05.3.02.1-.03.18-.1.22-.2l4.99-10.23c.05-.09.05-.2.02-.3-.03-.1-.1-.18-.2-.22l-5.65-2.76c-.05-.03-.11-.04-.17-.04Z"/>
    <path class="cls-7" d="m23.56,30.86c-.06,0-.12-.01-.18-.04l-1.35-.66c-.1-.05-.17-.13-.2-.23-.04-.1-.03-.21.02-.31l.27-.55c.05-.1.13-.17.23-.2.1-.04.21-.03.31.02l1.35.66c.1.05.17.13.2.23.04.1.03.21-.02.31l-.27.55c-.05.1-.13.17-.23.2-.04.01-.09.02-.13.02Zm-1.08-1.75s-.03,0-.04,0c-.03.01-.06.04-.08.07l-.27.55s-.02.07,0,.1c.01.03.04.06.07.08l1.35.66h0s.07.02.1,0c.03-.01.06-.04.08-.07l.27-.55s.02-.07,0-.1c-.01-.03-.04-.06-.07-.08l-1.35-.66s-.04-.01-.06-.01Z"/>
  </g>
  <g class="cls-12">
    <path class="cls-7" d="m3.59,24.46c.19,0,16.47-.35,16.47-.35l.66-.43H3.25l.34.77Z"/>
  </g>
</svg>