<?xml version="1.0" encoding="UTF-8"?>
<svg id="Layer_1" data-name="Layer 1" xmlns="http://www.w3.org/2000/svg" viewBox="0 0 35 35">
  <defs>
    <style>
      .cls-1 {
        fill: #fff;
        fill-rule: evenodd;
        stroke-width: 0px;
      }
    </style>
  </defs>
  <path class="cls-1" d="m9.54,22.1l3.3.32,3.74-8.8,11.9.55c.32.81.72,1.71,1.19,2.52l-11.15-.09-3.27,9.12-7.53-.43c.55-.93,1.19-2.03,1.83-3.19h0Zm-3.91-12.39C2.7,9.71.35,12.02.35,14.89s4.92,10.66,4.92,10.66c.2.32.52.32.69,0,0,0,4.95-7.79,4.95-10.66s-2.37-5.18-5.3-5.18h0Zm26.09-.49c-1.62,0-2.92,1.27-2.92,2.87s2.75,5.88,2.75,5.88c.09.17.26.17.38,0,0,0,2.72-4.32,2.72-5.88s-1.3-2.87-2.93-2.87h0Zm1.22,2.58c0-.67-.55-1.19-1.22-1.19s-1.19.52-1.19,1.19.52,1.16,1.19,1.16,1.22-.52,1.22-1.16h0Zm-1.22,1.85c-1.04,0-1.91-.84-1.91-1.85s.87-1.88,1.91-1.88,1.91.84,1.91,1.88-.84,1.85-1.91,1.85h0Zm-23.92.72c0-1.16-.96-2.11-2.17-2.11s-2.17.96-2.17,2.11.98,2.14,2.17,2.14,2.17-.96,2.17-2.14h0Zm-2.17,3.42c-1.91,0-3.45-1.54-3.45-3.42s1.53-3.39,3.45-3.39,3.48,1.53,3.48,3.39-1.56,3.42-3.48,3.42h0Z"/>
</svg>