<?xml version="1.0" encoding="UTF-8"?>
<svg id="Layer_1" data-name="Layer 1" xmlns="http://www.w3.org/2000/svg" viewBox="0 0 34.18 34.18">
  <defs>
    <style>
      .cls-1 {
        opacity: .2;
      }

      .cls-2 {
        opacity: .3;
      }

      .cls-3 {
        opacity: .55;
      }

      .cls-4 {
        fill: #fff;
        stroke-width: 0px;
      }
    </style>
  </defs>
  <g class="cls-1">
    <path class="cls-4" d="m34.08,17.77c-.11-.33-.34-.59-.65-.74l-6.33-3.09c-.64-.31-1.41-.05-1.72.59l-1.11,2.27-1.27-8.89c-.12-.82-.88-1.39-1.7-1.28l-2.46.35-.42-.39s-.02-.02-.03-.02h0s-.02,0-.03-.01h-7.18c.22-.53.36-1.01.36-1.42,0-2.09-1.7-3.78-3.78-3.78s-3.78,1.7-3.78,3.78c0,.4.14.89.36,1.42h-1.39v-.33c0-.08-.04-.16-.11-.2-.28-.17-.6-.26-.95-.26-.89,0-1.61.62-1.61,1.39v16.23c0,.72.63,1.32,1.46,1.38h1.14l.2,1.4c.06.4.26.75.59.99.26.2.58.3.9.3.07,0,.14,0,.22-.02l15.4-2.19-1.95,3.99c-.15.31-.17.66-.06.98.11.33.34.59.65.74l6.33,3.09c.18.09.37.13.56.13.14,0,.28-.02.42-.07.33-.11.59-.34.74-.65l7.17-14.68c.15-.31.17-.66.06-.98l-.03-.03ZM7.73,6.29c-.7,0-1.26-.57-1.26-1.26s.57-1.26,1.26-1.26,1.26.57,1.26,1.26-.57,1.26-1.26,1.26Z"/>
  </g>
  <rect class="cls-4" x="1.87" y="6.81" width="21.84" height="17.77" rx="1.27" ry="1.27" transform="translate(-2.08 1.96) rotate(-8.1)"/>
  <path class="cls-4" d="m4.3,26.1c-.74,0-1.38-.54-1.49-1.29L.67,9.72c-.12-.82.46-1.58,1.28-1.7l19.11-2.72c.82-.12,1.58.46,1.7,1.28l2.15,15.08c.06.4-.05.79-.29,1.12-.24.32-.59.53-.99.59l-19.11,2.72c-.07.01-.14.02-.21.02h0ZM21.27,5.76s-.1,0-.15.01L2.01,8.49c-.56.08-.96.6-.88,1.17l2.15,15.08c.08.56.6.96,1.17.88l19.11-2.72c.27-.04.51-.18.68-.4s.24-.49.2-.76l-2.15-15.08c-.07-.51-.52-.89-1.02-.89h0Z"/>
  <g>
    <path class="cls-4" d="m22.06,9.14v13.28c0,.41-.33.75-.75.75H1.49c-.7-.05-1.25-.54-1.25-1.14s.55-1.09,1.25-1.14h.13c.31,0,.59.09.82.23V5.44h15.57l4.05,3.7Z"/>
    <path class="cls-4" d="m21.32,23.21H1.49c-.35-.03-.67-.16-.91-.38-.24-.22-.37-.51-.37-.81s.13-.59.37-.81c.24-.22.56-.35.91-.38h.13c.28,0,.55.07.78.2V5.4h15.64l4.06,3.73v13.3c0,.43-.35.79-.79.79h.01ZM1.63,20.91h-.12c-.69.05-1.21.53-1.21,1.11s.52,1.05,1.21,1.1h19.81c.39,0,.71-.32.71-.71v-13.26l-4.02-3.68H2.49v15.69l-.06-.04c-.23-.15-.51-.22-.8-.22h0Z"/>
  </g>
  <polygon class="cls-4" points="4.71 15.39 6.78 15.39 9.1 16.89 10.28 18.09 5.5 20.1 4.71 15.39"/>
  <polygon class="cls-4" points="16.86 11.23 18.66 9.14 22.06 9.14 22.01 14.94 16.86 11.23"/>
  <path class="cls-4" d="m15.88,23.17h-1.74l-.57-.69c-.64-.77-1-1.75-1-2.75s-.51-1.95-1.37-2.5l-3.09-1.96c-1.25-.79-2-2.15-2-3.63v-6.2h1.34v6.2c0,1.02.51,1.95,1.37,2.5l3.09,1.96c1.25.79,2,2.15,2,3.63,0,.69.24,1.36.69,1.89l1.29,1.55h-.01Z"/>
  <path class="cls-4" d="m2.45,4.87v16.23c-.23-.14-.51-.23-.82-.23h-.13c-.7.05-1.25.55-1.25,1.14V5.79c0-.64.62-1.15,1.38-1.15.31,0,.59.09.82.23Z"/>
  <g class="cls-3">
    <path class="cls-4" d="m2.45,4.87v.2c-.1-.02-.2-.03-.31-.03-.76,0-1.38.51-1.38,1.15v14.94c-.31.21-.51.53-.51.9V5.79c0-.64.62-1.15,1.38-1.15.31,0,.59.09.82.23Z"/>
  </g>
  <path class="cls-4" d="m.25,22.26c-.13,0-.24-.11-.24-.24V5.79c0-.38.17-.73.49-.99.3-.25.7-.39,1.12-.39.34,0,.67.09.95.26.07.04.11.12.11.2v16.23c0,.09-.05.17-.12.21-.08.04-.17.04-.24,0-.2-.13-.44-.19-.7-.19h-.1c-.58.04-1.03.44-1.03.91,0,.13-.11.24-.24.24h0ZM1.62,4.88c-.63,0-1.14.41-1.14.91v15.25c.27-.23.62-.37.99-.4h.15c.2,0,.4.03.59.09V5.01c-.18-.09-.38-.13-.59-.13Z"/>
  <path class="cls-4" d="m22.06,9.14h-3.1c-.52,0-.95-.42-.95-.95v-2.76l4.05,3.7h0Z"/>
  <g class="cls-2">
    <path class="cls-4" d="m22.05,10.19h-2.56c-.52,0-.95-.42-.95-.95v-.2c.13.06.27.1.42.1h3.06s.03,1.05.03,1.05Z"/>
    <path class="cls-4" d="m22.1,10.23h-2.61c-.54,0-.99-.44-.99-.99v-.27l.06.03c.13.06.26.09.4.09h3.1l.03,1.13h.01Zm-3.51-1.13v.14c0,.5.41.91.91.91h2.52l-.03-.97h-3.02c-.13,0-.26-.03-.38-.08Z"/>
  </g>
  <path class="cls-4" d="m22.06,9.38h-3.1c-.65,0-1.18-.53-1.18-1.18v-2.76c0-.09.06-.18.14-.22.09-.04.19-.02.25.04l4.05,3.7c.07.07.1.17.06.26s-.12.15-.22.15h0Zm-3.81-3.4v2.22c0,.39.32.71.71.71h2.49s-3.2-2.93-3.2-2.93Z"/>
  <polygon class="cls-4" points="19.5 23.17 18.64 23.17 18.64 18.8 9.91 11.49 9.42 5.47 10.28 5.4 10.74 11.06 19.5 18.4 19.5 23.17"/>
  <polygon class="cls-4" points="6.03 23.17 5.16 23.17 5.16 19.89 11.32 17.14 14.16 14.42 14.76 15.05 11.81 17.87 6.03 20.46 6.03 23.17"/>
  <polygon class="cls-4" points="14.27 5.44 14.71 8.12 16.63 7.98 16.43 5.44 14.27 5.44"/>
  <polygon class="cls-4" points="5.17 20.25 3.97 13.04 2.45 13.04 2.45 12.18 4.7 12.18 6.02 20.1 5.17 20.25"/>
  <polygon class="cls-4" points="5.16 5.44 4.41 9.62 2.45 10.76 2.45 5.44 5.16 5.44"/>
  <polygon class="cls-4" points="4.43 13.03 4.24 12.19 10.16 10.86 13.31 8.93 12.73 5.51 13.59 5.37 14.27 9.36 10.49 11.68 4.43 13.03"/>
  <polygon class="cls-4" points="21.95 15.16 20.29 14.7 13.53 9.49 14.05 8.8 20.69 13.91 22.18 14.32 21.95 15.16"/>
  <rect class="cls-4" x="19.07" y="20.53" width="2.99" height=".87"/>
  <path class="cls-4" d="m21.32,23.41H1.47c-.39-.03-.76-.18-1.03-.43-.28-.26-.44-.6-.44-.95s.16-.69.44-.95c.27-.25.63-.4,1.03-.43h.15c.2,0,.4.03.59.09V5.44c0-.13.11-.24.24-.24h15.57c.06,0,.12.02.16.06l4.05,3.7s.08.11.08.17v13.28c0,.54-.44.99-.99.99h0ZM1.63,21.11h-.1c-.58.04-1.03.44-1.03.91s.45.86,1.03.91h19.79c.28,0,.51-.23.51-.51v-13.17l-3.9-3.57H2.68v15.42c0,.09-.05.17-.12.21-.08.04-.17.04-.24,0-.2-.13-.44-.19-.7-.19h0Z"/>
  <polygon class="cls-4" points="15.46 17.49 17.85 19.15 17.85 21.4 16.78 21.52 14.76 18.26 15.46 17.49"/>
  <polygon class="cls-4" points="12.79 11.01 13.79 10.33 16.63 12.59 15.88 13.52 12.79 11.01"/>
  <polygon class="cls-4" points="6.57 20.88 6.57 22.65 11.43 21.61 11.14 18.89 6.57 20.88"/>
  <path class="cls-4" d="m7.5.24c-1.96,0-3.55,1.59-3.55,3.55,0,1.43,1.88,4.08,2.91,5.42.32.42.96.42,1.28,0,1.02-1.33,2.9-3.99,2.9-5.42,0-1.96-1.59-3.55-3.55-3.55h.01Zm0,4.96c-.83,0-1.5-.67-1.5-1.5s.67-1.5,1.5-1.5,1.5.67,1.5,1.5-.67,1.5-1.5,1.5Z"/>
  <g class="cls-3">
    <path class="cls-4" d="m8.58,2.59c.3.27.49.67.49,1.11,0,.83-.67,1.5-1.5,1.5-.15,0-.29-.02-.43-.06.27.24.62.38,1,.38.83,0,1.5-.67,1.5-1.5,0-.68-.45-1.25-1.07-1.43h.01Zm-.43-2.03c.51,0,1,.11,1.44.31-.57-.4-1.27-.63-2.02-.63-1.96,0-3.55,1.59-3.55,3.55,0,1.43,1.88,4.08,2.91,5.42.14.19.35.29.56.31-1.02-1.34-2.9-3.98-2.9-5.41,0-1.96,1.59-3.55,3.55-3.55h0Z"/>
  </g>
  <path class="cls-4" d="m7.5,9.75c-.33,0-.63-.15-.83-.41-.51-.67-1.25-1.67-1.85-2.7-.73-1.23-1.1-2.2-1.1-2.86,0-1.01.39-1.96,1.11-2.67.71-.71,1.66-1.11,2.67-1.11s1.96.39,2.67,1.11c.71.71,1.11,1.66,1.11,2.67,0,.67-.37,1.63-1.1,2.86-.61,1.02-1.34,2.03-1.85,2.7-.2.26-.5.41-.83.41ZM7.5.48c-1.83,0-3.31,1.48-3.31,3.31,0,.98,1.04,2.9,2.86,5.27.11.14.27.22.45.22s.34-.08.45-.22c1.82-2.37,2.86-4.29,2.86-5.27,0-1.83-1.48-3.31-3.31-3.31Z"/>
  <path class="cls-4" d="m7.5,5.44c-.96,0-1.73-.78-1.73-1.73s.78-1.73,1.73-1.73,1.73.78,1.73,1.73-.78,1.73-1.73,1.73Zm0-2.99c-.7,0-1.26.57-1.26,1.26s.57,1.26,1.26,1.26,1.26-.57,1.26-1.26-.57-1.26-1.26-1.26Z"/>
  <g class="cls-2">
    <path class="cls-4" d="m3.44,5.44v17.73h-1.95c-.7-.05-1.25-.54-1.25-1.14s.55-1.09,1.25-1.14h.13c.31,0,.59.09.82.23V5.44h1Z"/>
  </g>
  <g>
    <g>
      <path class="cls-4" d="m25.34,13.31l-7.17,14.68c-.25.52-.04,1.15.48,1.41l6.33,3.09c.29.14.61.14.88.02h0c.22-.1.41-.27.52-.5l7.17-14.68c.25-.52.04-1.15-.48-1.41l-6.33-3.09c-.52-.25-1.15-.04-1.41.48h0Z"/>
      <path class="cls-4" d="m25.46,32.63c-.16,0-.33-.04-.48-.11l-6.33-3.09c-.54-.26-.77-.92-.5-1.46l7.17-14.68c.26-.54.92-.77,1.46-.5l6.33,3.09c.26.13.46.35.55.63.09.28.08.57-.05.83l-7.17,14.68c-.11.23-.3.41-.53.51h-.01c-.14.06-.29.09-.44.09h0Zm-.08-19.31l-7.17,14.68c-.24.5-.04,1.11.47,1.35l6.33,3.09c.27.13.58.14.85.02h0c.22-.1.4-.27.5-.48l7.17-14.68c.12-.24.14-.52.05-.77-.09-.26-.27-.46-.51-.58l-6.33-3.09c-.5-.24-1.11-.04-1.35.47h0Z"/>
    </g>
    <g class="cls-1">
      <path class="cls-4" d="m22.3,28.97c-.13-.07-.29,0-.36.12l-.26.53,1.34.65c.13.07.29,0,.36-.12l.26-.53-1.34-.65Z"/>
    </g>
    <path class="cls-4" d="m25.45,32.83c-.19,0-.38-.04-.56-.13l-6.33-3.09h0c-.64-.31-.9-1.08-.59-1.72l7.17-14.68c.15-.31.41-.54.74-.65s.68-.09.98.06l6.33,3.09c.31.15.54.41.65.74s.09.68-.06.98l-7.17,14.68c-.22.46-.68.72-1.16.72Zm-6.69-3.65l6.33,3.09c.4.2.89.03,1.09-.38l7.17-14.68c.1-.2.11-.42.04-.62-.07-.21-.22-.37-.41-.47l-6.33-3.09c-.2-.1-.42-.11-.62-.04-.21.07-.37.22-.47.41l-7.17,14.68c-.2.4-.03.89.38,1.09h-.01Z"/>
    <g class="cls-1">
      <path class="cls-4" d="m25.84,13.55l-7.17,14.68c-.12.25-.02.55.23.67l2.56,1.25c-.23-.37-.44-.49-.37-.94.09-.19.35-.77.51-.89.11-.08.29-.11.47-.12.21-.02.38-.18.41-.39.01-.12.03-.19.03-.19,0,0,.84-.83,1.82-1.07-.38-4.03.41-8.45,2.22-13.21l-.04-.02c-.25-.12-.55-.02-.67.23Z"/>
    </g>
    <path class="cls-4" d="m31.87,18.87l-1.65,3.39-1.22,2.5-1.13,2.32-.67,1.38-.31.64c-.03.07-.08.13-.13.17-.17.16-.43.2-.65.09l-1.83-.89-3.82-1.87c-.29-.14-.41-.49-.27-.78l1.73-3.55,1.22-2.5.42-.86.67-1.38.94-1.93c.05-.11.14-.2.24-.25.16-.09.36-.1.54-.01l2,.98,3.65,1.78c.29.14.41.49.27.78h0Z"/>
    <g class="cls-1">
      <path class="cls-4" d="m26.9,29.27c-.17.16-.43.2-.65.09l-1.83-.89-2.36-6.19,1.22-2.5,3.62,9.5h0Z"/>
    </g>
    <g class="cls-1">
      <polygon class="cls-4" points="28.29 26.2 27.62 27.57 23.98 18.02 24.66 16.64 28.29 26.2"/>
    </g>
    <g class="cls-2">
      <path class="cls-4" d="m31.88,18.85h0l-3.65-1.78-2-.98c-.18-.09-.38-.07-.54.01-.1.06-.19.14-.24.25l-.94,1.93-.67,1.38-.42.86-1.22,2.5-1.73,3.55v.02c-.28-.15-.39-.49-.25-.77l1.73-3.55,1.22-2.5.42-.86.67-1.38.94-1.93c.05-.11.14-.2.24-.25.16-.09.36-.1.54-.01l2,.98,3.65,1.78c.28.14.4.47.28.76h-.02Z"/>
    </g>
    <path class="cls-4" d="m29.96,16.18s-.05,0-.07-.02l-1.37-.67c-.08-.04-.11-.13-.07-.21s.13-.11.21-.07l1.37.67c.08.04.11.13.07.21-.03.06-.08.09-.14.09Z"/>
    <path class="cls-4" d="m29.82,15.36s-.04,0-.06-.01l-.52-.26c-.06-.03-.09-.11-.06-.17s.11-.09.17-.06l.52.26c.06.03.09.11.06.17-.02.05-.07.07-.11.07Z"/>
    <circle class="cls-4" cx="27.69" cy="14.91" r=".28"/>
    <polygon class="cls-4" points="26.37 25.12 25.62 23 23.38 23.27 27.34 20.21 26.37 25.12"/>
    <polygon class="cls-4" points="26.37 25.12 25.62 23 23.38 23.27 27.34 20.21 26.37 25.12"/>
    <path class="cls-4" d="m26.35,29.62c-.12,0-.23-.03-.34-.08l-5.65-2.76c-.19-.09-.33-.25-.4-.45s-.05-.41.04-.6l4.99-10.23c.09-.19.25-.33.45-.4s.41-.05.6.04l5.65,2.76c.19.09.33.25.4.45s.05.41-.04.6l-4.99,10.23c-.09.19-.25.33-.45.4-.08.03-.17.04-.25.04h-.01Zm-.66-14.15s-.08,0-.13.02c-.1.03-.18.1-.22.2l-4.99,10.23c-.05.09-.05.2-.02.3.03.1.1.18.2.22h0l5.65,2.76c.09.05.2.05.3.02.1-.03.18-.1.22-.2l4.99-10.23c.05-.09.05-.2.02-.3-.03-.1-.1-.18-.2-.22l-5.65-2.76s-.11-.04-.17-.04Z"/>
    <path class="cls-4" d="m23.14,30.44c-.06,0-.12-.01-.18-.04l-1.35-.66c-.1-.05-.17-.13-.2-.23-.04-.1-.03-.21.02-.31l.27-.55c.05-.1.13-.17.23-.2.1-.04.21-.03.31.02l1.35.66c.1.05.17.13.2.23.04.1.03.21-.02.31l-.27.55c-.05.1-.13.17-.23.2-.04.01-.09.02-.13.02Zm-1.08-1.75h-.04s-.06.04-.08.07l-.27.55s-.02.07,0,.1c.01.03.04.06.07.08l1.35.66h0s.07.02.1,0c.03-.01.06-.04.08-.07l.27-.55s.02-.07,0-.1c-.01-.03-.04-.06-.07-.08l-1.35-.66s-.04-.01-.06-.01h0Z"/>
  </g>
  <g class="cls-2">
    <path class="cls-4" d="m3.17,24.04c.19,0,16.47-.35,16.47-.35l.66-.43H2.83l.34.77h0Z"/>
  </g>
</svg>