<?xml version="1.0" encoding="UTF-8"?>
<svg id="Layer_1" data-name="Layer 1" xmlns="http://www.w3.org/2000/svg" xmlns:xlink="http://www.w3.org/1999/xlink" viewBox="0 0 35 35">
  <defs>
    <style>
      .cls-1 {
        fill: url(#linear-gradient);
      }

      .cls-1, .cls-2, .cls-3, .cls-4 {
        stroke-width: 0px;
      }

      .cls-2 {
        fill: url(#linear-gradient-2);
      }

      .cls-3 {
        fill: #dbdadb;
      }

      .cls-4 {
        fill: #fff;
      }
    </style>
    <linearGradient id="linear-gradient" x1="4.14" y1="17.46" x2="30.86" y2="17.46" gradientUnits="userSpaceOnUse">
      <stop offset="0" stop-color="#443e97"/>
      <stop offset="1" stop-color="#32bdb3"/>
    </linearGradient>
    <linearGradient id="linear-gradient-2" x1="17.5" xlink:href="#linear-gradient"/>
  </defs>
  <path class="cls-3" d="m18.11,33.88l3.06-1.66c6.87-3.74,11.15-10.99,11.15-18.88v-7.96c0-.62-.49-1.13-1.1-1.15-7.23-.2-11.71-2.31-13.19-3.12-.34-.19-.74-.19-1.08,0-1.48.82-5.96,2.93-13.19,3.12-.61.02-1.1.53-1.1,1.15v7.96c0,7.89,4.28,15.14,11.15,18.88l3.06,1.66c.38.21.84.21,1.23,0Z"/>
  <path class="cls-1" d="m30.86,6.31v6.76c0,7.52-4.07,14.41-10.61,17.97l-2.17,1.18c-.18.1-.38.15-.58.15s-.4-.05-.58-.15l-2.17-1.18c-6.54-3.56-10.61-10.45-10.61-17.97v-6.76c0-.32.25-.58.57-.6,6.16-.42,10.39-2.05,12.52-3.1.09-.04.17-.06.26-.06s.18.02.26.06c2.14,1.05,6.37,2.68,12.52,3.1.32.02.57.28.57.6Z"/>
  <path class="cls-2" d="m30.86,6.31v6.76c0,7.52-4.07,14.41-10.61,17.97l-2.17,1.18c-.18.1-.38.15-.58.15V2.55c.09,0,.18.02.26.06,2.14,1.05,6.37,2.68,12.52,3.1.32.02.57.28.57.6Z"/>
  <path class="cls-4" d="m22.58,14.79h-10.16c-.6,0-1.1.49-1.1,1.1v8.1c0,.6.49,1.1,1.1,1.1h10.16c.6,0,1.1-.49,1.1-1.1v-8.1c0-.6-.49-1.1-1.1-1.1Zm-4.1,5.66v.81c0,.54-.44.98-.98.98s-.98-.44-.98-.98v-.81c-.42-.3-.69-.79-.69-1.35,0-.92.75-1.67,1.67-1.67s1.67.75,1.67,1.67c0,.55-.27,1.05-.69,1.35Z"/>
  <path class="cls-4" d="m21.13,11.75v1.27c0,.43-.35.78-.78.78h0c-.43,0-.78-.35-.78-.78v-1.22c0-1.12-.87-2.07-1.98-2.11-1.17-.04-2.14.9-2.14,2.06v2.25h-1.57v-2.19c0-1.98,1.56-3.64,3.53-3.69,1.04-.03,1.98.38,2.66,1.06.66.66,1.06,1.56,1.06,2.56Z"/>
</svg>