<?xml version="1.0" encoding="UTF-8"?>
<svg id="Layer_1" data-name="Layer 1" xmlns="http://www.w3.org/2000/svg" viewBox="0 0 29.66 33.07">
  <defs>
    <style>
      .cls-1 {
        fill: #fff;
        stroke-width: 0px;
      }
    </style>
  </defs>
  <path class="cls-1" d="m15.45,32.91l3.06-1.66c6.87-3.74,11.15-10.99,11.15-18.88v-7.96c0-.62-.49-1.13-1.1-1.15-7.23-.2-11.71-2.31-13.19-3.12-.34-.19-.74-.19-1.08,0-1.48.82-5.96,2.93-13.19,3.12-.61.02-1.1.53-1.1,1.15v7.96c0,7.89,4.28,15.14,11.15,18.88l3.06,1.66c.38.21.84.21,1.23,0h.01Z"/>
  <path class="cls-1" d="m28.2,5.34v6.76c0,7.52-4.07,14.41-10.61,17.97l-2.17,1.18c-.18.1-.38.15-.58.15s-.4-.05-.58-.15l-2.17-1.18C5.55,26.51,1.48,19.62,1.48,12.1v-6.76c0-.32.25-.58.57-.6,6.16-.42,10.39-2.05,12.52-3.1.09-.04.17-.06.26-.06s.18.02.26.06c2.14,1.05,6.37,2.68,12.52,3.1.32.02.57.28.57.6h.02Z"/>
  <path class="cls-1" d="m28.2,5.34v6.76c0,7.52-4.07,14.41-10.61,17.97l-2.17,1.18c-.18.1-.38.15-.58.15V1.58c.09,0,.18.02.26.06,2.14,1.05,6.37,2.68,12.52,3.1.32.02.57.28.57.6h.01Z"/>
  <path class="cls-1" d="m19.92,13.82h-10.16c-.6,0-1.1.49-1.1,1.1v8.1c0,.6.49,1.1,1.1,1.1h10.16c.6,0,1.1-.49,1.1-1.1v-8.1c0-.6-.49-1.1-1.1-1.1Zm-4.1,5.66v.81c0,.54-.44.98-.98.98s-.98-.44-.98-.98v-.81c-.42-.3-.69-.79-.69-1.35,0-.92.75-1.67,1.67-1.67s1.67.75,1.67,1.67c0,.55-.27,1.05-.69,1.35Z"/>
  <path class="cls-1" d="m18.47,10.78v1.27c0,.43-.35.78-.78.78h0c-.43,0-.78-.35-.78-.78v-1.22c0-1.12-.87-2.07-1.98-2.11-1.17-.04-2.14.9-2.14,2.06v2.25h-1.57v-2.19c0-1.98,1.56-3.64,3.53-3.69,1.04-.03,1.98.38,2.66,1.06.66.66,1.06,1.56,1.06,2.56h0Z"/>
</svg>