<?xml version="1.0" encoding="UTF-8"?>
<svg xmlns="http://www.w3.org/2000/svg" xmlns:xlink="http://www.w3.org/1999/xlink" viewBox="0 0 60 60">
  <defs>
    <style>
      .cls-1 {
        mix-blend-mode: soft-light;
      }

      .cls-1, .cls-2, .cls-3, .cls-4, .cls-5, .cls-6, .cls-7, .cls-8, .cls-9, .cls-10, .cls-11, .cls-12, .cls-13, .cls-14, .cls-15, .cls-16, .cls-17, .cls-18, .cls-19, .cls-20, .cls-21, .cls-22, .cls-23, .cls-24, .cls-25, .cls-26, .cls-27, .cls-28, .cls-29, .cls-30, .cls-31, .cls-32, .cls-33, .cls-34, .cls-35, .cls-36, .cls-37, .cls-38, .cls-39, .cls-40, .cls-41, .cls-42 {
        stroke-width: 0px;
      }

      .cls-1, .cls-43 {
        opacity: .5;
      }

      .cls-1, .cls-42 {
        fill: #fff;
      }

      .cls-44 {
        clip-path: url(#clippath);
      }

      .cls-2 {
        fill: none;
      }

      .cls-3 {
        fill: url(#linear-gradient);
      }

      .cls-4 {
        fill: url(#linear-gradient-33);
      }

      .cls-5 {
        fill: url(#linear-gradient-29);
      }

      .cls-6 {
        fill: url(#linear-gradient-32);
      }

      .cls-7 {
        fill: url(#linear-gradient-30);
      }

      .cls-8 {
        fill: url(#linear-gradient-31);
      }

      .cls-9 {
        fill: url(#linear-gradient-34);
      }

      .cls-10 {
        fill: url(#linear-gradient-28);
      }

      .cls-11 {
        fill: url(#linear-gradient-25);
      }

      .cls-12 {
        fill: url(#linear-gradient-11);
      }

      .cls-13 {
        fill: url(#linear-gradient-12);
      }

      .cls-14 {
        fill: url(#linear-gradient-13);
      }

      .cls-15 {
        fill: url(#linear-gradient-10);
      }

      .cls-16 {
        fill: url(#linear-gradient-17);
      }

      .cls-17 {
        fill: url(#linear-gradient-16);
      }

      .cls-18 {
        fill: url(#linear-gradient-19);
      }

      .cls-19 {
        fill: url(#linear-gradient-15);
      }

      .cls-20 {
        fill: url(#linear-gradient-23);
      }

      .cls-21 {
        fill: url(#linear-gradient-21);
      }

      .cls-22 {
        fill: url(#linear-gradient-18);
      }

      .cls-23 {
        fill: url(#linear-gradient-14);
      }

      .cls-24 {
        fill: url(#linear-gradient-22);
      }

      .cls-25 {
        fill: url(#linear-gradient-20);
      }

      .cls-26 {
        fill: url(#linear-gradient-27);
      }

      .cls-27 {
        fill: url(#linear-gradient-24);
      }

      .cls-28 {
        fill: url(#linear-gradient-26);
      }

      .cls-29 {
        opacity: .17;
      }

      .cls-29, .cls-41 {
        fill: #98b1dc;
      }

      .cls-30 {
        mix-blend-mode: overlay;
      }

      .cls-30, .cls-39 {
        fill: #c0cfeb;
      }

      .cls-45 {
        opacity: .65;
      }

      .cls-31 {
        fill: url(#linear-gradient-4);
      }

      .cls-32 {
        fill: url(#linear-gradient-2);
      }

      .cls-33 {
        fill: url(#linear-gradient-3);
      }

      .cls-34 {
        fill: url(#linear-gradient-8);
      }

      .cls-35 {
        fill: url(#linear-gradient-9);
      }

      .cls-36 {
        fill: url(#linear-gradient-7);
      }

      .cls-37 {
        fill: url(#linear-gradient-5);
      }

      .cls-38 {
        fill: url(#linear-gradient-6);
      }

      .cls-46 {
        isolation: isolate;
      }

      .cls-40 {
        fill: #8193ca;
      }
    </style>
    <linearGradient id="linear-gradient" x1="64.24" y1="60.72" x2="20.65" y2="22.58" gradientUnits="userSpaceOnUse">
      <stop offset="0" stop-color="#dbe2f3"/>
      <stop offset="1" stop-color="#eaeff8"/>
    </linearGradient>
    <linearGradient id="linear-gradient-2" x1="1.88" y1="38.17" x2="57.96" y2="38.17" gradientUnits="userSpaceOnUse">
      <stop offset="0" stop-color="#201b59"/>
      <stop offset="1" stop-color="#2d2d84"/>
    </linearGradient>
    <clipPath id="clippath">
      <path class="cls-2" d="m3.48,24.25v24.51c0,1.24.96,2.25,2.15,2.27l48.22.62c1.18.02,2.16-.97,2.16-2.2l.08-24.29c0-.88-.67-1.6-1.52-1.62l-49.37-1.03c-.95-.02-1.73.77-1.73,1.75Z"/>
    </clipPath>
    <linearGradient id="linear-gradient-3" x1="29.2" y1="38.4" x2="9.29" y2="93.46" gradientUnits="userSpaceOnUse">
      <stop offset="0" stop-color="#5560ab"/>
      <stop offset="1" stop-color="#4c57a6"/>
    </linearGradient>
    <linearGradient id="linear-gradient-4" x1="16.06" y1="4.53" x2="11.49" y2="24.01" xlink:href="#linear-gradient-3"/>
    <linearGradient id="linear-gradient-5" x1="28.78" y1="70.21" x2="38.14" y2="47.36" xlink:href="#linear-gradient-3"/>
    <linearGradient id="linear-gradient-6" x1="6.36" y1="89.6" x2="8.54" y2="60" xlink:href="#linear-gradient-3"/>
    <linearGradient id="linear-gradient-7" x1="38.17" y1="70.39" x2="49.38" y2="48.09" xlink:href="#linear-gradient-3"/>
    <linearGradient id="linear-gradient-8" x1="29.68" y1="22.31" x2="30.01" y2="54.85" xlink:href="#linear-gradient-2"/>
    <linearGradient id="linear-gradient-9" x1="31.1" y1="9.83" x2="27.29" y2="48.02" gradientUnits="userSpaceOnUse">
      <stop offset="0" stop-color="#f5928f"/>
      <stop offset="1" stop-color="#f37064"/>
    </linearGradient>
    <linearGradient id="linear-gradient-10" x1="31.07" y1="9.82" x2="27.26" y2="48.02" xlink:href="#linear-gradient-9"/>
    <linearGradient id="linear-gradient-11" x1="24.67" y1="57.73" x2="32.28" y2="5.28" gradientUnits="userSpaceOnUse">
      <stop offset="0" stop-color="#e1483d"/>
      <stop offset="1" stop-color="#e9625a"/>
    </linearGradient>
    <linearGradient id="linear-gradient-12" x1="34.02" y1="14.66" x2="47.18" y2="-5.91" gradientUnits="userSpaceOnUse">
      <stop offset="0" stop-color="#f9baba"/>
      <stop offset="1" stop-color="#f5928f"/>
    </linearGradient>
    <linearGradient id="linear-gradient-13" x1="24.45" y1="20.89" x2="35.61" y2="20.89" xlink:href="#linear-gradient-11"/>
    <linearGradient id="linear-gradient-14" x1="-5433.37" y1="57.7" x2="-5430.67" y2="57.7" gradientTransform="translate(-5387.76) rotate(-180) scale(1 -1)" gradientUnits="userSpaceOnUse">
      <stop offset="0" stop-color="#66cdf3"/>
      <stop offset="1" stop-color="#4a5aa8"/>
    </linearGradient>
    <linearGradient id="linear-gradient-15" x1="-5433.37" y1="57.17" x2="-5430.75" y2="57.17" gradientTransform="translate(-5387.76) rotate(-180) scale(1 -1)" xlink:href="#linear-gradient-2"/>
    <linearGradient id="linear-gradient-16" x1="-5433.12" y1="56.43" x2="-5432.36" y2="56.43" gradientTransform="translate(-5387.76) rotate(-180) scale(1 -1)" xlink:href="#linear-gradient-12"/>
    <linearGradient id="linear-gradient-17" x1="-5438.75" y1="57.64" x2="-5437.71" y2="57.64" xlink:href="#linear-gradient-14"/>
    <linearGradient id="linear-gradient-18" x1="-5438.74" y1="56.84" x2="-5437.22" y2="56.84" gradientTransform="translate(-5387.76) rotate(-180) scale(1 -1)" xlink:href="#linear-gradient-2"/>
    <linearGradient id="linear-gradient-19" x1="-5437.95" y1="55.8" x2="-5437.04" y2="55.8" gradientTransform="translate(-5387.76) rotate(-180) scale(1 -1)" xlink:href="#linear-gradient-12"/>
    <linearGradient id="linear-gradient-20" x1="43.3" y1="63.11" x2="47.33" y2="48.1" xlink:href="#linear-gradient-11"/>
    <linearGradient id="linear-gradient-21" x1="-7409.71" y1="-402.56" x2="-7415.81" y2="-394.94" gradientTransform="translate(-7720.76) rotate(-180) scale(1 -1)" xlink:href="#linear-gradient-9"/>
    <linearGradient id="linear-gradient-22" x1="44.92" y1="47.26" x2="54.39" y2="34.09" xlink:href="#linear-gradient-9"/>
    <linearGradient id="linear-gradient-23" x1="-5433.79" y1="42.56" x2="-5437.02" y2="45.43" gradientTransform="translate(-5387.76) rotate(-180) scale(1 -1)" xlink:href="#linear-gradient-12"/>
    <linearGradient id="linear-gradient-24" x1="-7411.78" y1="-404.21" x2="-7417.87" y2="-396.59" gradientTransform="translate(-7720.76) rotate(-180) scale(1 -1)" xlink:href="#linear-gradient-9"/>
    <linearGradient id="linear-gradient-25" x1="-7407.42" y1="-400.72" x2="-7413.51" y2="-393.1" gradientTransform="translate(-7720.76) rotate(-180) scale(1 -1)" xlink:href="#linear-gradient-9"/>
    <linearGradient id="linear-gradient-26" x1="-5427.73" y1="42.83" x2="-5425.19" y2="42.83" gradientTransform="translate(-5387.76) rotate(-180) scale(1 -1)" xlink:href="#linear-gradient-12"/>
    <linearGradient id="linear-gradient-27" x1="-5430.21" y1="36.03" x2="-5430.23" y2="40.79" gradientTransform="translate(-5387.76) rotate(-180) scale(1 -1)" xlink:href="#linear-gradient-12"/>
    <linearGradient id="linear-gradient-28" x1="31.27" y1="40.65" x2="46.14" y2="46.02" xlink:href="#linear-gradient-2"/>
    <linearGradient id="linear-gradient-29" x1="23.24" y1="34.87" x2="37.68" y2="42.35" xlink:href="#linear-gradient-2"/>
    <linearGradient id="linear-gradient-30" x1="-5432.51" y1="44" x2="-5435.75" y2="46.87" gradientTransform="translate(-5387.76) rotate(-180) scale(1 -1)" xlink:href="#linear-gradient-12"/>
    <linearGradient id="linear-gradient-31" x1="-5425.46" y1="42.54" x2="-5424.55" y2="42.54" gradientTransform="translate(-5387.76) rotate(-180) scale(1 -1)" xlink:href="#linear-gradient-12"/>
    <linearGradient id="linear-gradient-32" x1="-7762.08" y1="35.59" x2="-7764.37" y2="37.34" gradientTransform="translate(-7720.76) rotate(-180) scale(1 -1)" xlink:href="#linear-gradient-12"/>
    <linearGradient id="linear-gradient-33" x1="-7763.66" y1="34.03" x2="-7761.46" y2="36.86" gradientTransform="translate(-7720.76) rotate(-180) scale(1 -1)" xlink:href="#linear-gradient-2"/>
    <linearGradient id="linear-gradient-34" x1="-7762.37" y1="35.22" x2="-7764.65" y2="36.97" gradientTransform="translate(-7720.76) rotate(-180) scale(1 -1)" xlink:href="#linear-gradient-12"/>
  </defs>
  <g class="cls-46">
    <g id="Layer_1" data-name="Layer 1">
      <g>
        <path class="cls-3" d="m56.83,40.91c-5.63,13.26-20.64,20.7-33.65,18.69-2.12-.33-7.92-1.3-13.06-5.88C.22,44.89-1.9,27.42,6.09,15.11,11.89,6.15,22.31,1.07,32.2,1.32c2.13.05,10.3.39,17.48,6.31,1.05.87,3.38,2.94,5.48,6.21,4.92,7.7,5.34,18.42,1.67,27.06Z"/>
        <g>
          <rect class="cls-41" x="49.19" y="2.62" width=".73" height="5.88" rx=".35" ry=".35"/>
          <g>
            <g>
              <rect class="cls-41" x="51.21" y="13.5" width="1" height="1.99" transform="translate(-1.3 5.91) rotate(-6.46)"/>
              <path class="cls-40" d="m53.13,11.33c0-.07-.06-.13-.13-.15-.07-.02-.15.01-.19.07l-.83,1.29c-.1.16-.15.36-.12.55l.39,2.58c.03.18.12.35.26.48l.95.84c.05.05.13.06.19.02.06-.03.1-.1.09-.17l-.62-5.5Z"/>
            </g>
            <g>
              <rect class="cls-41" x="46.47" y="14" width="1.99" height="1" transform="translate(27.72 60.03) rotate(-83.54)"/>
              <path class="cls-40" d="m46.04,11.33c0-.07.06-.13.13-.15.07-.02.15.01.19.07l.83,1.29c.1.16.15.36.12.55l-.39,2.58c-.03.18-.12.35-.26.48l-.95.84c-.05.05-.13.06-.19.02-.06-.03-.1-.1-.09-.17l.62-5.5Z"/>
            </g>
          </g>
          <path class="cls-41" d="m52.75,23.4l-.16-1.24s0,0,0,0l-1.83-13.8c-.02-.18-.17-.36-.35-.36h-1.75c-.18,0-.4.19-.42.37l-.2,1.26h0s-1.46,14.08-1.46,14.08c-.02.2.15.37.35.39.01,0,.04,0,.06,0,.18,0,.34-.13.36-.32l.13-1.12,2.22-.81,2.22.63.14,1.01c.03.19.2.33.4.31.19-.03.33-.2.31-.4Zm-3.97-12.83l.32.4-.43.61.11-1.01Zm1.47,6.1l.81-.58.16,1.2-.97-.63Zm.76,1.34l-1.36.87-1.4-.78,1.37-.99,1.38.9Zm-1.4-1.76l-1.15-.75,1.11-1.01,1.17.94-1.13.82Zm.49-2.24l.6-.55.15,1.16-.76-.61Zm.35-2.49l-.47-.59.33-.47.14,1.06Zm.04,1.18l-.94.86-.9-.72.91-1.3.93,1.16Zm-2.04.89l.56.45-.68.62.12-1.07Zm-.28,2.57l.82.53-.95.69.13-1.22Zm-.28,2.55l1.08.61-1.23.79.15-1.4Zm1.79,1l1.49.84-1.52.56-1.49-.42,1.51-.97Zm.68-.44l1.04-.67.18,1.35-1.22-.68Zm-.27-10.42l.08.59-.65.92-.63-.77.08-.73h1.12Zm-2.54,13.01l.07-.61.9.25-.96.35Zm3.27-.44l.9-.33.08.61-.98-.28Z"/>
        </g>
        <g>
          <path class="cls-39" d="m31.19,10.1c0-.33-.27-.6-.6-.6h-12.39c-.33,0-.66.28-.66.62v29.7c0,.16.09.31.21.43.11.11.28.18.44.18l12.96-.04c.16,0,.32-.07.43-.18.11-.12.18-.27.17-.44l-.56-29.67Z"/>
          <g class="cls-43">
            <g>
              <polygon class="cls-42" points="22.06 13 18.53 13 18.5 11.19 22.03 11.19 22.06 13"/>
              <polygon class="cls-42" points="26.02 13 22.49 13 22.47 11.19 26 11.19 26.02 13"/>
              <polygon class="cls-42" points="29.97 13 26.45 13 26.43 11.19 29.95 11.19 29.97 13"/>
            </g>
            <g>
              <polygon class="cls-42" points="22.1 16.25 18.58 16.25 18.55 14.45 22.08 14.45 22.1 16.25"/>
              <polygon class="cls-42" points="26.05 16.25 22.53 16.25 22.51 14.45 26.03 14.45 26.05 16.25"/>
              <polygon class="cls-42" points="30 16.24 26.48 16.25 26.46 14.45 29.98 14.45 30 16.24"/>
            </g>
            <g>
              <polygon class="cls-42" points="22.15 19.48 18.63 19.48 18.6 17.69 22.12 17.68 22.15 19.48"/>
              <polygon class="cls-42" points="26.09 19.47 22.58 19.48 22.55 17.68 26.07 17.68 26.09 19.47"/>
              <polygon class="cls-42" points="30.03 19.47 26.52 19.47 26.5 17.68 30.01 17.68 30.03 19.47"/>
            </g>
            <g>
              <polygon class="cls-42" points="22.19 22.69 18.68 22.7 18.65 20.91 22.17 20.91 22.19 22.69"/>
              <polygon class="cls-42" points="26.13 22.68 22.62 22.69 22.6 20.91 26.11 20.9 26.13 22.68"/>
              <polygon class="cls-42" points="30.06 22.68 26.56 22.68 26.54 20.9 30.04 20.9 30.06 22.68"/>
            </g>
            <g>
              <polygon class="cls-42" points="22.23 25.89 18.73 25.9 18.7 24.12 22.21 24.12 22.23 25.89"/>
              <polygon class="cls-42" points="26.16 25.89 22.66 25.89 22.64 24.11 26.14 24.11 26.16 25.89"/>
              <polygon class="cls-42" points="30.09 25.88 26.59 25.89 26.57 24.11 30.07 24.1 30.09 25.88"/>
            </g>
            <g>
              <polygon class="cls-42" points="22.28 29.09 18.78 29.09 18.75 27.32 22.25 27.31 22.28 29.09"/>
              <polygon class="cls-42" points="26.2 29.08 22.7 29.09 22.68 27.31 26.18 27.31 26.2 29.08"/>
              <polygon class="cls-42" points="30.12 29.07 26.63 29.08 26.61 27.31 30.1 27.3 30.12 29.07"/>
            </g>
            <g>
              <polygon class="cls-42" points="22.32 32.27 18.83 32.28 18.8 30.51 22.3 30.5 22.32 32.27"/>
              <polygon class="cls-42" points="26.24 32.26 22.75 32.27 22.72 30.5 26.22 30.49 26.24 32.26"/>
              <polygon class="cls-42" points="30.15 32.25 26.66 32.26 26.64 30.49 30.13 30.48 30.15 32.25"/>
            </g>
            <g>
              <polygon class="cls-42" points="22.36 35.44 18.88 35.45 18.85 33.69 22.34 33.68 22.36 35.44"/>
              <polygon class="cls-42" points="26.27 35.43 22.79 35.44 22.77 33.68 26.25 33.67 26.27 35.43"/>
              <polygon class="cls-42" points="30.18 35.41 26.7 35.43 26.68 33.67 30.16 33.66 30.18 35.41"/>
            </g>
            <g>
              <polygon class="cls-42" points="22.41 38.6 18.93 38.61 18.9 36.86 22.38 36.84 22.41 38.6"/>
              <polygon class="cls-42" points="26.31 38.59 22.83 38.6 22.81 36.84 26.29 36.83 26.31 38.59"/>
              <polygon class="cls-42" points="30.21 38.57 26.73 38.58 26.71 36.83 30.19 36.82 30.21 38.57"/>
            </g>
          </g>
        </g>
        <g>
          <path class="cls-41" d="m19.23,4.86c0-.25-.2-.44-.45-.44H3.9c-.25,0-.51.2-.51.45v34.74c0,.19.11.36.24.49.13.13.33.2.51.2l15.05-.04c.19,0,.37-.08.5-.21.13-.13.2-.32.2-.5l-.65-34.69Z"/>
          <g>
            <rect class="cls-30" x="7.94" y="4.13" width=".61" height="4.87" transform="translate(1.66 14.79) rotate(-89.8)"/>
            <polygon class="cls-30" points="10.7 9.12 5.81 9.1 5.81 8.48 10.69 8.5 10.7 9.12"/>
            <polygon class="cls-30" points="10.71 11.38 5.8 11.35 5.8 10.73 10.71 10.76 10.71 11.38"/>
            <polygon class="cls-30" points="10.72 13.66 5.79 13.63 5.8 13 10.72 13.04 10.72 13.66"/>
            <polygon class="cls-30" points="10.74 15.96 5.79 15.92 5.79 15.29 10.73 15.33 10.74 15.96"/>
            <polygon class="cls-30" points="10.76 20.62 5.77 20.57 5.77 19.93 10.76 19.98 10.76 20.62"/>
            <polygon class="cls-30" points="10.81 27.76 5.75 27.69 5.75 27.03 10.8 27.1 10.81 27.76"/>
            <polygon class="cls-30" points="10.75 18.28 5.78 18.24 5.78 17.6 10.75 17.64 10.75 18.28"/>
            <polygon class="cls-30" points="10.78 22.98 5.77 22.92 5.77 22.28 10.77 22.33 10.78 22.98"/>
            <polygon class="cls-30" points="10.79 25.36 5.76 25.29 5.76 24.64 10.79 24.7 10.79 25.36"/>
            <polygon class="cls-30" points="10.82 30.18 5.74 30.1 5.75 29.44 10.82 29.51 10.82 30.18"/>
            <polygon class="cls-30" points="10.84 32.62 5.74 32.53 5.74 31.87 10.83 31.95 10.84 32.62"/>
            <polygon class="cls-30" points="10.85 35.08 5.73 34.99 5.73 34.31 10.85 34.4 10.85 35.08"/>
            <polygon class="cls-30" points="10.87 37.56 5.72 37.46 5.72 36.78 10.86 36.88 10.87 37.56"/>
            <polygon class="cls-30" points="17.07 6.9 12.17 6.88 12.16 6.27 17.06 6.28 17.07 6.9"/>
            <polygon class="cls-30" points="17.11 9.15 12.19 9.12 12.18 8.51 17.09 8.53 17.11 9.15"/>
            <polygon class="cls-30" points="17.15 11.42 12.21 11.39 12.2 10.77 17.13 10.79 17.15 11.42"/>
            <polygon class="cls-30" points="17.19 13.71 12.23 13.67 12.22 13.05 17.18 13.08 17.19 13.71"/>
            <polygon class="cls-30" points="17.23 16.01 12.25 15.97 12.24 15.34 17.22 15.38 17.23 16.01"/>
            <polygon class="cls-30" points="17.31 20.69 12.29 20.64 12.28 19.99 17.3 20.04 17.31 20.69"/>
            <polygon class="cls-30" points="17.44 27.85 12.35 27.78 12.34 27.12 17.42 27.19 17.44 27.85"/>
            <polygon class="cls-30" points="17.27 18.34 12.27 18.29 12.26 17.66 17.26 17.7 17.27 18.34"/>
            <polygon class="cls-30" points="17.35 23.05 12.31 23 12.3 22.35 17.34 22.4 17.35 23.05"/>
            <polygon class="cls-30" points="17.39 25.44 12.33 25.38 12.32 24.72 17.38 24.78 17.39 25.44"/>
            <polygon class="cls-30" points="17.48 30.27 12.37 30.2 12.36 29.53 17.47 29.61 17.48 30.27"/>
            <polygon class="cls-30" points="17.52 32.72 12.39 32.64 12.38 31.97 17.51 32.05 17.52 32.72"/>
            <polygon class="cls-30" points="17.57 35.19 12.41 35.1 12.41 34.43 17.55 34.51 17.57 35.19"/>
            <polygon class="cls-30" points="17.61 37.68 12.43 37.59 12.43 36.91 17.6 37 17.61 37.68"/>
          </g>
        </g>
        <g>
          <g>
            <path class="cls-32" d="m1.88,24.4v25.8c0,2.12,1.63,3.86,3.68,3.91,9.08.24,40.86.83,49.51.7,1.49-.02,2.69-1.26,2.73-2.8.17-5.99.44-20.41-.56-27.1-.21-1.41-1.36-2.46-2.73-2.51-7.61-.25-41.29-1.05-49.94-.85-1.49.03-2.68,1.3-2.68,2.84Z"/>
            <g class="cls-44">
              <path class="cls-33" d="m3.48,24.25v24.51c0,1.24.96,2.25,2.15,2.27l48.22.62c1.18.02,2.16-.97,2.16-2.2l.08-24.29c0-.88-.67-1.6-1.52-1.62l-49.37-1.03c-.95-.02-1.73.77-1.73,1.75Z"/>
              <polygon class="cls-31" points="2.79 22.51 2.51 38.49 17.14 38.49 16.81 35.27 2.79 22.51"/>
              <polygon class="cls-37" points="45.7 25.71 38.85 29.18 39.29 40.26 46.03 44.53 45.7 25.71"/>
              <polygon class="cls-38" points="1.83 47 17.14 47.12 16.67 52.27 4.28 52.27 1.83 47"/>
              <polygon class="cls-36" points="53.46 22.02 53.46 49.66 56.61 51.65 56.61 22.52 53.46 22.02"/>
              <g>
                <g>
                  <polygon class="cls-39" points="17.7 52.03 16.47 52.03 16.47 35.71 2.16 21.93 3.01 21.03 17.7 35.18 17.7 52.03"/>
                  <polygon class="cls-39" points="39.47 53.19 38.23 53.19 38.23 29.69 29.84 22.35 17.61 36.25 16.67 35.42 29.72 20.6 39.47 29.13 39.47 53.19"/>
                  <rect class="cls-39" x="1.81" y="37.88" width="15.31" height="1.23"/>
                  <rect class="cls-39" x="1.81" y="46.23" width="15.31" height="1.16"/>
                  <rect class="cls-39" x="17.12" y="42.89" width="21.69" height="1.31"/>
                  <rect class="cls-39" x="37.83" y="25.09" width="14.5" height="1.24" transform="translate(-6.81 26.6) rotate(-30.68)"/>
                  <rect class="cls-39" x="47.4" y="35" width="1.24" height="21.96" transform="translate(-16.79 60.81) rotate(-56.65)"/>
                  <rect class="cls-39" x="45.34" y="25.12" width="1.31" height="19.59"/>
                  <rect class="cls-39" x="52.82" y="20.62" width="1.31" height="28.59"/>
                  <rect class="cls-39" x="7.26" y="25.12" width="18.79" height="1.23"/>
                  <rect class="cls-39" x="32.5" y="43.54" width="1.23" height="9.65"/>
                </g>
                <polygon class="cls-39" points="17.16 36.33 17.13 35.08 39.47 34.48 39.47 35.71 38.86 35.71 38.87 35.74 17.16 36.33"/>
              </g>
            </g>
            <rect class="cls-34" y="52.98" width="60" height="2.61" rx="1.3" ry="1.3"/>
            <path class="cls-29" d="m4.89,25.18v22.34c0,1.13.91,2.05,2.04,2.07l45.6.56c1.12.02,2.04-.88,2.04-2l.08-22.14c0-.8-.64-1.46-1.44-1.48l-46.69-.94c-.9-.02-1.63.7-1.63,1.59Z"/>
          </g>
          <g>
            <g>
              <g>
                <circle class="cls-35" cx="30" cy="20.92" r="9.15"/>
                <path class="cls-15" d="m39.13,20.18h-18.28s-.73,5.2,7.44,19.11c.36.61,1.01,1.03,1.71,1.03.7,0,1.36-.45,1.71-1.06,8.17-13.91,7.42-19.09,7.42-19.09Z"/>
              </g>
              <path class="cls-12" d="m30.18,40.69v.03h-.19c-.8,0-1.54-.43-1.94-1.11-4.77-8.13-6.52-13.27-7.15-16.14-.18-.66-.28-1.31-.31-1.97-.06-.68-.01-.97,0-1l.02-.15c.37-4.92,4.46-8.74,9.39-8.74s9.12,3.88,9.4,8.83c0,.06.02.23.02.5v.03c0,.9-.13,1.79-.38,2.65-.65,2.87-2.31,7.97-7.01,15.96-.4.69-1.2,1.1-1.85,1.1Zm-9.09-19.93s0,.37.03.67v.02c.03.63.13,1.25.3,1.88v.02c.62,2.84,2.35,7.92,7.09,15.99.31.52.97.84,1.57.84l.09.27v-.27c.29,0,1.12-.33,1.42-.85,4.66-7.94,6.41-12.99,6.99-15.83v-.02c.29-.81.32-1.65.32-2.5l-.03-.04h0c0-.27-.01-.41-.02-.45v-.02c-.26-4.68-4.16-8.34-8.87-8.34s-8.6,3.67-8.87,8.39v.23h-.03Z"/>
              <circle class="cls-13" cx="30.03" cy="20.89" r="5.28"/>
              <path class="cls-14" d="m30.03,26.47c-3.08,0-5.58-2.5-5.58-5.58s2.5-5.58,5.58-5.58,5.58,2.5,5.58,5.58-2.5,5.58-5.58,5.58Zm0-10.57c-2.75,0-4.99,2.24-4.99,4.99s2.24,4.99,4.99,4.99,4.99-2.24,4.99-4.99-2.24-4.99-4.99-4.99Z"/>
            </g>
            <path class="cls-42" d="m25.01,15.39s-.05-.01-.07-.03c-.03-.04-.03-.09,0-.12,1.48-1.27,3.38-1.98,5.34-1.98.05,0,.09.04.09.09s-.04.09-.09.09c-1.92,0-3.77.69-5.22,1.93-.02.01-.04.02-.06.02Z"/>
            <path class="cls-42" d="m22.18,21.55s-.09-.04-.09-.09c0-1.53.42-3.02,1.23-4.32.03-.04.08-.05.12-.03.04.03.05.08.03.12-.79,1.27-1.2,2.73-1.2,4.22,0,.05-.04.09-.09.09Z"/>
          </g>
        </g>
        <g class="cls-45">
          <path class="cls-42" d="m38.21,10.77c-.53-.03-.95-.48-.92-1.02.03-.53.48-.95,1.02-.92.53.03.95.48.92,1.02-.03.53-.48.95-1.02.92Zm.08-1.55c-.32-.02-.6.23-.61.55-.02.32.23.6.55.61.32.02.6-.23.61-.55.02-.32-.23-.6-.55-.61Z"/>
          <g>
            <path class="cls-42" d="m38.36,7.73c1.14.06,2.02,1.03,1.96,2.17,0,.07-.01.14-.02.21-.01.09.06.17.15.16l.3-.03c.07,0,.12-.06.13-.12,0-.06.01-.13.02-.19.07-1.46-1.05-2.7-2.51-2.78-.11,0-.22,0-.33,0-.08,0-.14.08-.13.16l.03.29c0,.07.07.13.15.12.08,0,.16,0,.24,0Z"/>
            <path class="cls-42" d="m38.44,6.24c1.96.1,3.48,1.78,3.38,3.74,0,0,0,0,0,0,0,.09.07.16.15.15l.3-.03c.05-.05.08-.08.13-.13.09-2.26-1.66-4.19-3.93-4.3-.2-.01-.39,0-.58.01-.08,0-.13.08-.12.16l.03.29c0,.07.08.13.15.12.16-.01.33-.02.49-.01Z"/>
            <path class="cls-42" d="m38.51,4.75c2.71.14,4.82,2.4,4.8,5.09,0,.08.07.15.15.14l.3-.03c.07,0,.13-.07.13-.14,0-2.98-2.34-5.49-5.35-5.64-.28-.01-.56,0-.84.02-.08,0-.13.08-.12.16l.03.29c0,.08.08.13.15.12.24-.02.49-.03.74-.02Z"/>
          </g>
        </g>
        <g>
          <g>
            <g>
              <path class="cls-23" d="m42.99,57.57c.46.04,1.26.1,1.9.13.38.02.6-.02.72-.07,0,.01,0,.03,0,.04,0,.07-.06.12-.12.12-1.19.07-2.14.02-2.48,0-.07,0-.11-.08-.08-.14.02-.03.04-.06.06-.09Z"/>
              <path class="cls-19" d="m44.89,57.7c-.63-.03-1.43-.09-1.9-.13.45-.56,1.9-.93,1.9-.93h.41c.28.4.32.79.32.99-.13.05-.34.09-.72.07Z"/>
              <path class="cls-17" d="m45.36,55.97l-.04.75c0,.08-.07.15-.15.16-.08.01-.19.01-.31-.03-.07-.02-.12-.08-.14-.16l-.13-.73h.76Z"/>
            </g>
            <g>
              <g>
                <path class="cls-16" d="m50.65,57.69c.2-.03.29-.13.33-.24,0,0,0,0,0,0,.03.12-.04.24-.18.3-.17.07-.35.08-.49.08-.15,0-.29-.07-.36-.17h0c.15.07.36.08.7.04Z"/>
                <path class="cls-22" d="m49.71,55.96h.34c.51-.01.83,1.07.94,1.49-.04.11-.13.22-.33.24-.33.05-.55.04-.7-.04-.28-.36-.41-.9-.48-1.21-.07-.35.23-.49.23-.49Z"/>
              </g>
              <path class="cls-18" d="m50,55.26l.19.74c.02.09-.02.18-.1.23-.1.05-.25.11-.39.09-.06,0-.12-.05-.14-.11l-.27-.78.72-.17Z"/>
            </g>
            <path class="cls-25" d="m50.22,55.48c-.23.21-.99.23-.99.23-2.72-6.52-3.83-7.45-3.83-7.45.39,2.46.06,7.91.06,7.91-.45.2-1.03,0-1.03,0-.04-4.03-.66-7.55-1.39-10.32,1.84-.04,2.81-.67,3.13-.92,1.53,2.47,4.04,10.55,4.04,10.55Z"/>
            <path class="cls-21" d="m45.72,37.43c.35,1.73.22,4.84.14,6.26-.02.4.25.95.48,1.33.04.06.01.13-.05.17-.38.19-1.65.79-3.13.87-.1,0-.19-.06-.21-.16-1.1-4.09-2.37-6.7-2.37-6.7,1.4-2.24,5.13-1.76,5.13-1.76Z"/>
            <path class="cls-24" d="m45.22,48.11s.03,0,.05-.01c.04-.03.05-.08.03-.12-.01-.02-.37-.59-1.08-.94-.04-.02-.1,0-.12.04-.02.04,0,.1.04.12.66.32,1,.86,1,.87.02.03.05.04.07.04Z"/>
            <g>
              <path class="cls-20" d="m47.9,42.41c-.11.81-.44,1.69-1.1,2.63l-.25-.2s.29-1.18.13-2.51c.41-.08.89,0,1.23.09Z"/>
              <path class="cls-27" d="m45.33,39.57l.39-2.14s2.6,1.98,2.18,4.98c-.34-.09-.82-.17-1.23-.09-.12-.96-.47-2-1.34-2.75Z"/>
            </g>
            <g>
              <path class="cls-11" d="m40.59,39.19l1,2.16c-.16,1.3-.86,1.87-1.62,2.08-.05-.59-.2-1.07-.34-1.4.96-1,.95-2.83.95-2.83Z"/>
              <path class="cls-28" d="m39.64,42.02c.14.33.29.81.34,1.4-2.01.78-2.55-.73-2.55-.73l.37-.07c.84.09,1.43-.18,1.84-.61Z"/>
            </g>
            <path class="cls-26" d="m41.51,36.52l.48,1.78c.05.2.27.31.46.23.21-.08.47-.2.7-.32.24-.13.32-.44.16-.67l-1.01-1.5-.8.48Z"/>
          </g>
          <path class="cls-10" d="m36.51,41.5l12.39,4.51c.52.19.77.78.54,1.28l-.04.08c-.2.45-.73.64-1.17.44l-12.03-5.57.31-.75Z"/>
          <ellipse class="cls-1" cx="30.67" cy="38.79" rx="6.12" ry="6.01"/>
          <path class="cls-5" d="m24,38.79c0,3.69,3.05,6.68,6.81,6.68s6.81-2.99,6.81-6.68-3.05-6.68-6.81-6.68-6.81,2.99-6.81,6.68Zm1,0c0-3.15,2.6-5.7,5.81-5.7s5.81,2.55,5.81,5.7-2.6,5.7-5.81,5.7-5.81-2.55-5.81-5.7Z"/>
          <path class="cls-41" d="m37.09,39.61s-.04-.02-.04-.05c.02-.16.03-.31.04-.47,0-.02.02-.04.04-.04.02,0,.04.02.04.04,0,.16-.02.32-.04.48,0,.02-.02.04-.04.04,0,0,0,0,0,0Zm-.08-1.9c-.08-.42-.2-.84-.36-1.24h0c-.97-2.35-3.26-3.86-5.84-3.86-1.2,0-2.37.33-3.38.97-.02.01-.05,0-.06-.01-.01-.02,0-.05.01-.06,1.02-.64,2.21-.98,3.43-.98,2.61,0,4.94,1.54,5.92,3.92h0c.17.4.29.83.37,1.26,0,.02-.01.04-.03.05,0,0,0,0,0,0-.02,0-.04-.01-.04-.03Z"/>
          <path class="cls-7" d="m46.65,44.79l-1.17-.1-.51.47s.12.17.5.07c.38-.1.89-.12.89-.12,0,0,.52.23.52-.2l-.23-.12Z"/>
          <path class="cls-8" d="m37.58,42.97c-.1.08-.45-.09-.66-.2-.1-.06-.15-.18-.12-.29.05-.16.14-.37.24-.4.17-.04.96.56.54.88Z"/>
          <path class="cls-41" d="m48.65,47.64s0,0,.01,0c.48-.17.59-.45.6-.66.01-.31-.18-.59-.48-.71l-1.49-.58s-.05,0-.05.02c0,.02,0,.05.02.05l1.49.58c.27.1.44.35.43.62-.01.27-.2.46-.55.58-.02,0-.03.03-.03.05,0,.02.02.03.04.03Z"/>
          <path class="cls-41" d="m46.83,45.59s.03-.01.04-.03c0-.02,0-.05-.02-.05l-.19-.08s-.05,0-.05.02c0,.02,0,.05.02.05l.19.08s.01,0,.02,0Z"/>
          <path class="cls-6" d="m41.41,34.78s-.4.92-.43,1.4c-.03.48-.13.8.43.89.56.1,1.03-.18,1.28-.66,0,0,.4-.74.31-1.04-.09-.3-1.59-.59-1.59-.59Z"/>
          <path class="cls-4" d="m40.84,34.01c.05-.2.12-.56.37-.6.16-.03.3.07.42.16.06.05.12.09.17.14.12.1.22.21.38.25.14.04.27.11.4.17.27.12.58.28.74.54.08.13.09.28.03.43.01,0,.03,0,.04,0,.05-.03.13-.05.24.05.19.16.11.57-.3.91-.02.02-.02.05,0,.06.08.05.19.17-.1.32-.3.16-.47.14-.54.12-.02,0-.03-.02-.03-.04l.03-.42s-.02-.04-.04-.04h-.22s.22-.45.11-.64c-.08-.02-.17-.05-.24-.1-.03-.02-.06-.03-.09-.03-.05-.01-.11-.02-.15-.03-.06-.01-.12-.02-.18-.03-.12-.02-.24-.05-.36-.1-.27-.1-.53-.27-.65-.54-.08-.18-.07-.4-.03-.59Z"/>
          <path class="cls-9" d="m42.48,36.15s.15-.59.42-.42c.26.16-.14.66-.35.68l-.07-.26Z"/>
        </g>
      </g>
    </g>
  </g>
</svg>