<?xml version="1.0" encoding="UTF-8"?>
<svg xmlns="http://www.w3.org/2000/svg" xmlns:xlink="http://www.w3.org/1999/xlink" viewBox="0 0 50 50">
  <defs>
    <style>
      .cls-1 {
        clip-path: url(#clippath);
      }

      .cls-2 {
        fill: none;
      }

      .cls-2, .cls-3, .cls-4, .cls-5, .cls-6, .cls-7, .cls-8, .cls-9, .cls-10, .cls-11, .cls-12, .cls-13, .cls-14, .cls-15, .cls-16, .cls-17, .cls-18, .cls-19, .cls-20, .cls-21, .cls-22, .cls-23, .cls-24, .cls-25, .cls-26, .cls-27, .cls-28, .cls-29, .cls-30, .cls-31, .cls-32, .cls-33, .cls-34, .cls-35, .cls-36, .cls-37, .cls-38, .cls-39, .cls-40, .cls-41, .cls-42, .cls-43, .cls-44, .cls-45, .cls-46, .cls-47, .cls-48, .cls-49, .cls-50, .cls-51, .cls-52, .cls-53, .cls-54, .cls-55, .cls-56, .cls-57, .cls-58, .cls-59, .cls-60, .cls-61, .cls-62, .cls-63, .cls-64, .cls-65, .cls-66, .cls-67, .cls-68, .cls-69, .cls-70, .cls-71, .cls-72, .cls-73, .cls-74, .cls-75 {
        stroke-width: 0px;
      }

      .cls-3 {
        fill: url(#linear-gradient);
      }

      .cls-4 {
        opacity: .8;
      }

      .cls-4, .cls-61, .cls-62, .cls-63, .cls-75 {
        fill: #fff;
      }

      .cls-5 {
        fill: url(#linear-gradient-38);
      }

      .cls-6 {
        fill: url(#linear-gradient-33);
      }

      .cls-7 {
        fill: url(#linear-gradient-29);
      }

      .cls-8 {
        fill: url(#linear-gradient-32);
      }

      .cls-9 {
        fill: url(#linear-gradient-30);
      }

      .cls-10 {
        fill: url(#linear-gradient-31);
      }

      .cls-11 {
        fill: url(#linear-gradient-36);
      }

      .cls-12 {
        fill: url(#linear-gradient-39);
      }

      .cls-13 {
        fill: url(#linear-gradient-34);
      }

      .cls-14 {
        fill: url(#linear-gradient-37);
      }

      .cls-15 {
        fill: url(#linear-gradient-35);
      }

      .cls-16 {
        fill: url(#linear-gradient-28);
      }

      .cls-17 {
        fill: url(#linear-gradient-25);
      }

      .cls-18 {
        fill: url(#linear-gradient-11);
      }

      .cls-19 {
        fill: url(#linear-gradient-12);
      }

      .cls-20 {
        fill: url(#linear-gradient-13);
      }

      .cls-21 {
        fill: url(#linear-gradient-10);
      }

      .cls-22 {
        fill: url(#linear-gradient-17);
      }

      .cls-23 {
        fill: url(#linear-gradient-16);
      }

      .cls-24 {
        fill: url(#linear-gradient-19);
      }

      .cls-25 {
        fill: url(#linear-gradient-15);
      }

      .cls-26 {
        fill: url(#linear-gradient-23);
      }

      .cls-27 {
        fill: url(#linear-gradient-21);
      }

      .cls-28 {
        fill: url(#linear-gradient-18);
      }

      .cls-29 {
        fill: url(#linear-gradient-14);
      }

      .cls-30 {
        fill: url(#linear-gradient-22);
      }

      .cls-31 {
        fill: url(#linear-gradient-20);
      }

      .cls-32 {
        fill: url(#linear-gradient-27);
      }

      .cls-33 {
        fill: url(#linear-gradient-24);
      }

      .cls-34 {
        fill: url(#linear-gradient-26);
      }

      .cls-35 {
        fill: url(#linear-gradient-45);
      }

      .cls-36 {
        fill: url(#linear-gradient-46);
      }

      .cls-37 {
        fill: url(#linear-gradient-44);
      }

      .cls-38 {
        fill: url(#linear-gradient-48);
      }

      .cls-39 {
        fill: url(#linear-gradient-49);
      }

      .cls-40 {
        fill: url(#linear-gradient-47);
      }

      .cls-41 {
        fill: url(#linear-gradient-42);
      }

      .cls-42 {
        fill: url(#linear-gradient-43);
      }

      .cls-43 {
        fill: url(#linear-gradient-40);
      }

      .cls-44 {
        fill: url(#linear-gradient-41);
      }

      .cls-45 {
        fill: url(#linear-gradient-59);
      }

      .cls-46 {
        fill: url(#linear-gradient-57);
      }

      .cls-47 {
        fill: url(#linear-gradient-58);
      }

      .cls-48 {
        fill: url(#linear-gradient-55);
      }

      .cls-49 {
        fill: url(#linear-gradient-56);
      }

      .cls-50 {
        fill: url(#linear-gradient-53);
      }

      .cls-51 {
        fill: url(#linear-gradient-51);
      }

      .cls-52 {
        fill: url(#linear-gradient-52);
      }

      .cls-53 {
        fill: url(#linear-gradient-50);
      }

      .cls-54 {
        fill: url(#linear-gradient-54);
      }

      .cls-55 {
        fill: url(#linear-gradient-60);
      }

      .cls-56 {
        fill: url(#linear-gradient-61);
      }

      .cls-57 {
        fill: url(#linear-gradient-62);
      }

      .cls-58 {
        fill: url(#linear-gradient-65);
      }

      .cls-59 {
        fill: url(#linear-gradient-63);
      }

      .cls-60 {
        fill: url(#linear-gradient-64);
      }

      .cls-61 {
        mix-blend-mode: soft-light;
      }

      .cls-62 {
        opacity: .47;
      }

      .cls-63 {
        mix-blend-mode: overlay;
      }

      .cls-76 {
        opacity: .61;
      }

      .cls-77 {
        opacity: .55;
      }

      .cls-78 {
        opacity: .56;
      }

      .cls-79 {
        opacity: .7;
      }

      .cls-64 {
        fill: url(#linear-gradient-4);
      }

      .cls-65 {
        fill: url(#linear-gradient-2);
      }

      .cls-66 {
        fill: url(#linear-gradient-3);
      }

      .cls-67 {
        fill: url(#linear-gradient-8);
      }

      .cls-68 {
        fill: url(#linear-gradient-9);
      }

      .cls-69 {
        fill: url(#linear-gradient-7);
      }

      .cls-70 {
        fill: url(#linear-gradient-5);
      }

      .cls-71 {
        fill: url(#linear-gradient-6);
      }

      .cls-80 {
        isolation: isolate;
      }

      .cls-72 {
        fill: #c0cfeb;
      }

      .cls-73 {
        fill: #8193ca;
      }

      .cls-74 {
        fill: #98b1dc;
      }
    </style>
    <linearGradient id="linear-gradient" x1="49.93" y1="52.82" x2="17.3" y2="17.6" gradientUnits="userSpaceOnUse">
      <stop offset="0" stop-color="#dbe2f3"/>
      <stop offset="1" stop-color="#eaeff8"/>
    </linearGradient>
    <clipPath id="clippath">
      <polygon class="cls-2" points="32.75 11.62 19.45 10.33 6.15 11.79 6.15 42.93 19.45 42.16 32.75 43.02 46.03 41.71 46.03 10.9 32.75 11.62"/>
    </clipPath>
    <linearGradient id="linear-gradient-2" x1="5.93" y1="18.28" x2="21.5" y2="18.28" xlink:href="#linear-gradient"/>
    <linearGradient id="linear-gradient-3" x1="9.28" y1="26.68" x2="41.33" y2="26.68" gradientUnits="userSpaceOnUse">
      <stop offset="0" stop-color="#f5928f"/>
      <stop offset="1" stop-color="#f37064"/>
    </linearGradient>
    <linearGradient id="linear-gradient-4" x1="36.21" y1="2.15" x2="35.33" y2="9.99" xlink:href="#linear-gradient-3"/>
    <linearGradient id="linear-gradient-5" x1="9.97" y1="38.63" x2="8.9" y2="39.41" gradientUnits="userSpaceOnUse">
      <stop offset="0" stop-color="#cb266e"/>
      <stop offset="1" stop-color="#4c286e"/>
    </linearGradient>
    <linearGradient id="linear-gradient-6" x1="936.18" y1="1115.96" x2="934.47" y2="1114.62" gradientTransform="translate(1388.62 -543.02) rotate(107.92)" xlink:href="#linear-gradient-3"/>
    <linearGradient id="linear-gradient-7" x1="936.82" y1="1114.2" x2="937.41" y2="1112.15" gradientTransform="translate(1388.62 -543.02) rotate(107.92)" xlink:href="#linear-gradient-3"/>
    <linearGradient id="linear-gradient-8" x1="934.58" y1="1115.14" x2="934.62" y2="1116.38" gradientTransform="translate(1388.62 -543.02) rotate(107.92)" xlink:href="#linear-gradient-3"/>
    <linearGradient id="linear-gradient-9" x1="939.95" y1="1113.64" x2="938.24" y2="1112.3" gradientTransform="translate(1388.62 -543.02) rotate(107.92)" xlink:href="#linear-gradient-3"/>
    <linearGradient id="linear-gradient-10" x1="940.49" y1="1111.78" x2="940.58" y2="1115.01" gradientTransform="translate(1388.62 -543.02) rotate(107.92)" xlink:href="#linear-gradient-3"/>
    <linearGradient id="linear-gradient-11" x1="939.22" y1="1112.73" x2="939.81" y2="1110.68" gradientTransform="translate(1388.62 -543.02) rotate(107.92)" xlink:href="#linear-gradient-3"/>
    <linearGradient id="linear-gradient-12" x1="942.34" y1="1112.17" x2="940.64" y2="1110.83" gradientTransform="translate(1388.62 -543.02) rotate(107.92)" xlink:href="#linear-gradient-3"/>
    <linearGradient id="linear-gradient-13" x1="939.08" y1="1113.33" x2="939.15" y2="1115.9" gradientTransform="translate(1388.62 -543.02) rotate(107.92)" xlink:href="#linear-gradient-3"/>
    <linearGradient id="linear-gradient-14" x1="15.39" y1="60.97" x2="11.3" y2="13.65" gradientUnits="userSpaceOnUse">
      <stop offset="0" stop-color="#201b59"/>
      <stop offset="1" stop-color="#2d2d84"/>
    </linearGradient>
    <linearGradient id="linear-gradient-15" x1="3.03" y1="8.27" x2="22.39" y2="53.17" xlink:href="#linear-gradient-3"/>
    <linearGradient id="linear-gradient-16" x1="12.61" y1="13.37" x2="12.54" y2="17.84" gradientUnits="userSpaceOnUse">
      <stop offset="0" stop-color="#7e5da7"/>
      <stop offset="1" stop-color="#2a3071"/>
    </linearGradient>
    <linearGradient id="linear-gradient-17" x1="11.45" y1="13.85" x2="25.94" y2="60.19" xlink:href="#linear-gradient-3"/>
    <linearGradient id="linear-gradient-18" x1="8.88" y1="14.66" x2="23.36" y2="61" gradientUnits="userSpaceOnUse">
      <stop offset="0" stop-color="#f9baba"/>
      <stop offset="1" stop-color="#f5928f"/>
    </linearGradient>
    <linearGradient id="linear-gradient-19" x1="9.93" y1="14.33" x2="24.42" y2="60.67" xlink:href="#linear-gradient-18"/>
    <linearGradient id="linear-gradient-20" x1="4.78" y1="15.94" x2="19.26" y2="62.28" xlink:href="#linear-gradient-18"/>
    <linearGradient id="linear-gradient-21" x1="2.41" y1="16.68" x2="16.9" y2="63.02" xlink:href="#linear-gradient-18"/>
    <linearGradient id="linear-gradient-22" x1="2.01" y1="16.81" x2="16.49" y2="63.14" xlink:href="#linear-gradient-18"/>
    <linearGradient id="linear-gradient-23" x1="12.89" y1="13.41" x2="27.37" y2="59.74" xlink:href="#linear-gradient-18"/>
    <linearGradient id="linear-gradient-24" x1="9.51" y1="14.46" x2="24" y2="60.8" xlink:href="#linear-gradient-3"/>
    <linearGradient id="linear-gradient-25" x1="6.23" y1="15.49" x2="20.72" y2="61.82" xlink:href="#linear-gradient-18"/>
    <linearGradient id="linear-gradient-26" x1="5.37" y1="15.76" x2="19.86" y2="62.09" xlink:href="#linear-gradient-18"/>
    <linearGradient id="linear-gradient-27" x1="32.83" y1="12.23" x2="38.81" y2="-5.36" xlink:href="#linear-gradient-3"/>
    <linearGradient id="linear-gradient-28" x1="32.9" y1="12.25" x2="38.88" y2="-5.34" xlink:href="#linear-gradient-3"/>
    <linearGradient id="linear-gradient-29" x1="43.32" y1="-5.61" x2="32.16" y2="10.06" xlink:href="#linear-gradient-3"/>
    <linearGradient id="linear-gradient-30" x1="38.51" y1="-.46" x2="38.8" y2="2.44" xlink:href="#linear-gradient-14"/>
    <linearGradient id="linear-gradient-31" x1="33.18" y1="1.56" x2="35.44" y2="5.29" xlink:href="#linear-gradient-14"/>
    <linearGradient id="linear-gradient-32" x1="36.81" y1="13.55" x2="46.49" y2="1.18" gradientUnits="userSpaceOnUse">
      <stop offset="0" stop-color="#5560ab"/>
      <stop offset="1" stop-color="#4c57a6"/>
    </linearGradient>
    <linearGradient id="linear-gradient-33" x1="37.8" y1="-.71" x2="38.01" y2="3.63" gradientTransform="translate(76.83 23.53) rotate(-180)" xlink:href="#linear-gradient-14"/>
    <linearGradient id="linear-gradient-34" x1="15.26" y1="46.37" x2="17.71" y2="46.37" xlink:href="#linear-gradient-32"/>
    <linearGradient id="linear-gradient-35" x1="-233.77" y1="45.79" x2="-233.16" y2="45.79" gradientTransform="translate(-216.11) rotate(-180) scale(1 -1)" gradientUnits="userSpaceOnUse">
      <stop offset="0" stop-color="#a22d25"/>
      <stop offset="1" stop-color="#c1423d"/>
    </linearGradient>
    <linearGradient id="linear-gradient-36" x1="18.49" y1="48.65" x2="18.22" y2="43.54" xlink:href="#linear-gradient-32"/>
    <linearGradient id="linear-gradient-37" x1="19.02" y1="46.5" x2="20.01" y2="46.5" xlink:href="#linear-gradient-32"/>
    <linearGradient id="linear-gradient-38" x1="-235.99" y1="45.76" x2="-235.46" y2="45.76" xlink:href="#linear-gradient-35"/>
    <linearGradient id="linear-gradient-39" x1="19.58" y1="48.59" x2="19.32" y2="43.48" xlink:href="#linear-gradient-32"/>
    <linearGradient id="linear-gradient-40" x1="-78.98" y1="-145.82" x2="-73.28" y2="-152.38" gradientTransform="translate(-216.11) rotate(-180) scale(1 -1)" xlink:href="#linear-gradient-32"/>
    <linearGradient id="linear-gradient-41" x1="-233.07" y1="32.99" x2="-225.41" y2="25.77" xlink:href="#linear-gradient-35"/>
    <linearGradient id="linear-gradient-42" x1="-233.46" y1="32.58" x2="-225.8" y2="25.36" xlink:href="#linear-gradient-35"/>
    <linearGradient id="linear-gradient-43" x1="-226.74" y1="25.58" x2="-229.74" y2="29.99" xlink:href="#linear-gradient-35"/>
    <linearGradient id="linear-gradient-44" x1="-80.67" y1="-147.29" x2="-74.97" y2="-153.85" gradientTransform="translate(-216.11) rotate(-180) scale(1 -1)" xlink:href="#linear-gradient-32"/>
    <linearGradient id="linear-gradient-45" x1="-238.12" y1="34.18" x2="-234.14" y2="34.18" xlink:href="#linear-gradient-35"/>
    <linearGradient id="linear-gradient-46" x1="-235.07" y1="29.92" x2="-233.49" y2="29.92" xlink:href="#linear-gradient-35"/>
    <linearGradient id="linear-gradient-47" x1="-6235.93" y1="-2194.36" x2="-6236.52" y2="-2196.3" gradientTransform="translate(-6096.23 -2486.59) rotate(-138.25) scale(1 -1)" xlink:href="#linear-gradient-35"/>
    <linearGradient id="linear-gradient-48" x1="-6236.46" y1="-2197.74" x2="-6235.97" y2="-2194.94" gradientTransform="translate(-6096.23 -2486.59) rotate(-138.25) scale(1 -1)" xlink:href="#linear-gradient-14"/>
    <linearGradient id="linear-gradient-49" x1="-6236.53" y1="-2194.37" x2="-6237.06" y2="-2196.12" gradientTransform="translate(-6096.23 -2486.59) rotate(-138.25) scale(1 -1)" xlink:href="#linear-gradient-35"/>
    <linearGradient id="linear-gradient-50" x1="3195.58" y1="-340.65" x2="3189.19" y2="-331.63" gradientTransform="translate(3228.45 60.77) rotate(174.45) scale(1 -1)" xlink:href="#linear-gradient-14"/>
    <linearGradient id="linear-gradient-51" x1="-234.44" y1="33.76" x2="-233.2" y2="33.76" xlink:href="#linear-gradient-35"/>
    <linearGradient id="linear-gradient-52" x1="-4082.84" y1="46.8" x2="-4081.72" y2="46.8" gradientTransform="translate(4111.56)" xlink:href="#linear-gradient-32"/>
    <linearGradient id="linear-gradient-53" x1="-4087.57" y1="51.22" x2="-4085.96" y2="32.37" gradientTransform="translate(4111.56)" xlink:href="#linear-gradient-18"/>
    <linearGradient id="linear-gradient-54" x1="-4088.04" y1="46.6" x2="-4086.23" y2="46.6" gradientTransform="translate(4111.56)" xlink:href="#linear-gradient-32"/>
    <linearGradient id="linear-gradient-55" x1="-4084.33" y1="51.5" x2="-4082.72" y2="32.65" gradientTransform="translate(4111.56)" xlink:href="#linear-gradient-18"/>
    <linearGradient id="linear-gradient-56" x1="30.99" y1="31.62" x2="24.61" y2="41.83" xlink:href="#linear-gradient-32"/>
    <linearGradient id="linear-gradient-57" x1="-4087.67" y1="25.58" x2="-4086.35" y2="28.9" gradientTransform="translate(4111.56)" xlink:href="#linear-gradient-14"/>
    <linearGradient id="linear-gradient-58" x1="32.27" y1="26.72" x2="29.74" y2="28.98" xlink:href="#linear-gradient-3"/>
    <linearGradient id="linear-gradient-59" x1="-4087.75" y1="32.75" x2="-4087.45" y2="30.54" gradientTransform="translate(4111.56)" xlink:href="#linear-gradient-18"/>
    <linearGradient id="linear-gradient-60" x1="-4201.33" y1="-302.25" x2="-4198.69" y2="-306.95" gradientTransform="translate(4203.08 -489.76) rotate(-11.2)" xlink:href="#linear-gradient-18"/>
    <linearGradient id="linear-gradient-61" x1="-4200.77" y1="-306.34" x2="-4199.44" y2="-303.03" gradientTransform="translate(4203.08 -489.76) rotate(-11.2)" xlink:href="#linear-gradient-14"/>
    <linearGradient id="linear-gradient-62" x1="-4200.77" y1="-301.93" x2="-4198.13" y2="-306.63" gradientTransform="translate(4203.08 -489.76) rotate(-11.2)" xlink:href="#linear-gradient-18"/>
    <linearGradient id="linear-gradient-63" x1="31.18" y1="30.41" x2="35.53" y2="27.88" xlink:href="#linear-gradient-18"/>
    <linearGradient id="linear-gradient-64" x1="41.67" y1="49.21" x2="30.94" y2="31.63" xlink:href="#linear-gradient-32"/>
    <linearGradient id="linear-gradient-65" x1="40.43" y1="38.5" x2="47.27" y2="38.5" xlink:href="#linear-gradient-32"/>
  </defs>
  <g class="cls-80">
    <g id="Layer_1" data-name="Layer 1">
      <g>
        <path class="cls-3" d="m45.46,32.72c-4.5,10.45-16.38,14.93-25.69,14.17-2.54-.21-7.66-.63-11.65-4.38-7.67-7.2-6.49-22.25.85-31.11.95-1.14,7.49-8.79,17.69-8.68,7.47.07,12.71,4.26,13.34,4.78.81.66,2.58,2.23,4.18,4.71,3.76,5.84,4.09,13.99,1.28,20.51Z"/>
        <g>
          <path class="cls-73" d="m3.33,3.05c-.06-.24.28-.4.49-.23,2.1,1.71,7.16,6.81,5.9,15.73-1.58,11.2,1.12,15.28,4.48,17.77,0,0-4.62-1.17-7.52-5.32C-.46,20.83,4.33,7.33,3.33,3.05Z"/>
          <path class="cls-61" d="m4.93,6.55c.26,1.25.5,2.5.68,3.75.19,1.25.33,2.51.43,3.78.09,1.26.16,2.52.16,3.79.01,1.26-.04,2.53-.1,3.79-.05,1.27-.11,2.54-.02,3.83.09,1.28.36,2.58.9,3.79.13.3.27.6.43.89.15.29.32.58.5.87.35.57.75,1.12,1.19,1.64.89,1.04,1.96,1.97,3.14,2.75.12.08.3.06.4-.05.09-.11.07-.26-.05-.34h0c-.28-.2-.56-.4-.83-.61-.14-.1-.27-.21-.4-.32-.13-.11-.26-.22-.38-.33-.5-.45-.97-.92-1.39-1.43-.85-1-1.53-2.12-2.04-3.28-.25-.58-.45-1.18-.59-1.79-.15-.61-.24-1.23-.29-1.85-.1-1.25-.06-2.51-.02-3.78.04-1.27.06-2.54.03-3.81-.01-.64-.04-1.27-.08-1.91-.02-.32-.04-.64-.07-.95-.03-.32-.06-.63-.09-.95-.14-1.27-.32-2.53-.54-3.78-.23-1.25-.51-2.5-.83-3.74,0-.04-.05-.06-.09-.05-.04,0-.07.04-.06.08Z"/>
        </g>
        <g>
          <path class="cls-74" d="m8.78,28.39c-.26.27-.71.19-.87-.15-.86-1.89-2.79-7.45.41-13.86,2.7-5.41,3.65-8.6,3.98-10.08.07-.31.5-.35.63-.06,1.43,3.23,5.19,14.23-4.15,24.14Z"/>
          <path class="cls-61" d="m8.31,28.19s-.02,0-.03,0c-.08,0-.15-.07-.14-.15,0-.09.18-9.28,3.6-16.97.03-.07.12-.11.19-.07.07.03.11.12.07.19-3.39,7.64-3.57,16.76-3.57,16.85,0,.07-.05.13-.12.14Z"/>
        </g>
        <path class="cls-72" d="m22.82,9.41c-.13-.77,1.95-2.05,1.36-3.59l-1.56-.59s.16,2.07-.37,2.83c-.53.75-.87.26-.78-.29.09-.55.97-1.92.65-2.53,0,0-.26-.48-.81-.03-.55.46-1.72.02-2.09-.38,0,0,0,.32-.31,1.06-.32.73-.69,1.45-.06,1.79.64.34,1.62.45,1.6.89-.02.45-1.84.62-2.38-.71,0,0-.6,1.13-.48,1.51.11.38.79.79,1.86.55,1.07-.24,1.63-.02,1.62.31-.01.33-3.21.55-3.59-.56,0,0-.2,2.37-.07,2.65.13.27,1.52.28,2.36-.05.84-.32,1.68,0,1.86.29.18.29-.95.09-1.47.27-.52.18-2.77-.03-2.77-.03,0,0,.27.18.32.99.05.81.61,2.12,1.11,2,.5-.11,2.73-1.12,3.49-1.16.77-.05,1.39.08,1.04.36-.35.28-1.34.36-2.03.62-.69.27-2.39,1.17-2.8.86,0,0,.69,2.07,2.73,2.24,0,0,.95-.54,1.45-1.45.5-.9.74-1.26,1.1-1.2.35.06,0,.68-.32,1.24-.32.56-1.05,1.86-1.53,1.94,0,0,3.09.08,3.5-1.99.39-1.94.18-2.18.16-2.2.1.08,3.3,2.33,4.47-1.89,0,0-.54.89-1.23.82-.69-.07-1.79.49-1.8,0-.01-.49,2.5-.22,2.96-1.18.47-.95-.07-2.48-1.17-2.88,0,0,.02.97-.86,1.58s-2.23,1.19-1.95.39,2.85-1.95,2.96-2.65c.11-.71-2.03-2.03-2.03-2.03,0,0-.03.37-.57,1.51-.54,1.14-1.4,2.32-1.54,2-.15-.32.46-1.05.99-1.73.52-.68.79-1.75.44-2.05-.34-.3-1.61-.93-1.61-.93,0,0-.41,1.6-.52,2.34-.11.74-1.19,1.84-1.32,1.07Zm2.72,4.04c-.7.75-.69-.12-.56-.7.1-.44,1.26-.05.56.7Zm-1.13-1.59c-.45.51-.8.44-.76.06.08-.86,1.21-.57.76-.06Zm-1.38-1.54c-.23.29-.39.34-.53-.05-.14-.39.76-.24.53.05Z"/>
        <g>
          <polygon class="cls-75" points="33.17 10.54 19.17 9.18 5.17 10.72 5.17 43.55 19.17 42.74 33.17 43.64 47.15 42.26 47.15 9.78 33.17 10.54"/>
          <polygon class="cls-73" points="19.47 41.99 6.17 42.76 6.17 11.62 19.47 10.16 19.47 41.99"/>
          <polygon class="cls-74" points="32.77 42.84 19.47 41.99 19.47 10.16 32.77 11.45 32.77 42.84"/>
          <polygon class="cls-73" points="46.05 41.54 32.77 42.84 32.77 11.45 46.05 10.73 46.05 41.54"/>
          <rect class="cls-62" x="19.17" y="10.16" width=".3" height="31.84"/>
        </g>
        <g class="cls-1">
          <g class="cls-79">
            <polygon class="cls-72" points="36.62 11.98 40.07 14.46 37.72 16.53 34.95 14.11 36.62 11.98"/>
            <polygon class="cls-74" points="14.01 16.85 14.3 14.11 19.32 15.48 19.32 18.96 14.01 16.85"/>
            <polygon class="cls-72" points="42.75 33.91 45.54 32.6 45.91 35.25 43.48 35.99 42.75 33.91"/>
            <polygon class="cls-72" points="16.52 36.02 19.32 37.37 22.1 36.94 21.85 35.14 19.32 34.59 16.52 36.02"/>
            <polygon class="cls-75" points="14.36 21.75 7.18 19.62 7.3 19.14 14.48 21.28 14.36 21.75"/>
            <polygon class="cls-75" points="7.99 34.53 7.54 34.17 12.41 26.97 17.95 26.54 18.65 21.26 13.58 17.6 6.25 20.03 6.09 19.44 13.67 16.93 19.25 20.96 18.44 27.12 12.71 27.56 7.99 34.53"/>
            <polygon class="cls-75" points="11.3 38.14 5.51 32.76 5.87 32.29 11.67 37.67 11.3 38.14"/>
            <polygon class="cls-75" points="22.71 32.15 22.54 31.56 31.84 28.43 32.01 29.02 22.71 32.15"/>
            <polygon class="cls-75" points="33.01 33.01 29.55 23.69 30.07 23.46 33.53 32.78 33.01 33.01"/>
            <polygon class="cls-75" points="38.03 35.3 37.62 34.89 40.91 30.96 41.32 31.38 38.03 35.3"/>
            <polygon class="cls-75" points="38.9 33.35 35.51 26.05 35.9 25.83 39.3 33.13 38.9 33.35"/>
            <path class="cls-75" d="m38.89,18.58l-.32-.5s-.02.02-.02.02c.18-.19,2.59-3.39,4.17-5.49l.2-.26,3.59,3.97-.4.43-3.15-3.49c-.35.46-1.1,1.46-1.85,2.46-2.09,2.77-2.15,2.81-2.2,2.85Z"/>
            <polygon class="cls-75" points="31.66 21.83 30.53 17.61 29.16 13.77 22.94 14.17 22.76 13.57 29.53 13.13 31.07 17.43 32.19 21.65 31.66 21.83"/>
            <polygon class="cls-75" points="13.98 16.98 13.53 16.94 13.76 13.61 19.17 14.83 19.17 15.33 14.17 14.2 13.98 16.98"/>
            <polygon class="cls-75" points="37.65 16.89 37.37 16.51 39.7 14.47 36.47 11.93 36.73 11.53 40.44 14.45 37.65 16.89"/>
            <polygon class="cls-75" points="43.76 36.17 43.65 35.7 45.61 35.1 45.31 32.98 42.79 34.16 42.61 33.71 45.66 32.28 46.11 35.46 43.76 36.17"/>
            <polygon class="cls-75" points="46.14 36.02 42.43 21.6 42.97 21.43 46.68 35.85 46.14 36.02"/>
            <polygon class="cls-75" points="30.92 43.48 30.51 43.06 37.3 35.01 37.71 35.42 30.92 43.48"/>
            <polygon class="cls-75" points="19.41 41.59 11.18 38 11.39 37.43 19.21 40.84 21.44 37.43 19.44 37.95 16.03 36.21 16.26 35.66 19.5 37.3 22.77 36.45 19.41 41.59"/>
            <polygon class="cls-75" points="31.77 42.39 25.67 36.18 25.66 36.17 22.45 31.72 22.8 31.42 26 35.85 32.08 42.03 31.77 42.39"/>
          </g>
          <g>
            <path class="cls-65" d="m21.13,21.56l-1.96-2.37c-4.38-1.69-9.37-3.44-13.25-3.64l.02-.55c3.96.21,9.02,1.98,13.45,3.7l.06.02,2.04,2.47-.37.37Z"/>
            <path class="cls-72" d="m45.73,40.44c-4.27-2.87-9.1-6.03-12.45-7.25l-10.91,4.41-.17-.52,11.07-4.48.08.03c3.41,1.22,8.31,4.43,12.64,7.34l-.26.47Z"/>
            <polygon class="cls-72" points="24.43 19.59 21.08 10.51 21.55 10.3 24.9 19.38 24.43 19.59"/>
            <path class="cls-72" d="m39.6,22.1c-.87-3.68-2.53-6.21-5.1-7.75l.24-.48c1.42.85,2.59,2,3.49,3.43.82,1.3,1.42,2.82,1.86,4.66l-.49.14Z"/>
            <polygon class="cls-72" points="13.46 37.22 13.04 36.91 17.99 28.57 18.41 28.88 13.46 37.22"/>
            <polygon class="cls-72" points="40.99 22.41 26.46 21.78 26.48 21.23 40.9 21.86 46.2 19.48 46.39 19.99 40.99 22.41"/>
            <polygon class="cls-72" points="6.26 40.41 6.08 39.89 19.28 34.31 21.88 34.59 21.83 35.14 19.35 34.87 6.26 40.41"/>
            <path class="cls-72" d="m23.28,29.21c-5.67-.07-10.98-.38-13.69-3.48l.36-.38c2.57,2.94,7.78,3.24,13.34,3.31v.55Z"/>
            <polygon class="cls-72" points="22.78 42.26 21.59 34.53 21.61 34.46 25.03 22.55 26.56 19.71 32.61 16.13 36.65 11.26 37.02 11.63 32.93 16.57 26.92 20.12 25.49 22.77 22.11 34.57 23.28 42.17 22.78 42.26"/>
            <polygon class="cls-72" points="46.31 41.67 39.24 27.65 26.16 22.4 23.83 21.79 15.38 21.09 6.05 28.58 5.75 28.13 15.23 20.53 15.32 20.53 23.91 21.24 26.3 21.87 26.32 21.88 39.59 27.2 39.63 27.29 46.75 41.4 46.31 41.67"/>
          </g>
          <g>
            <path class="cls-66" d="m9.44,39.13c-.06,0-.12-.04-.15-.1-.04-.08,0-.18.08-.21l.59-.26c.08-.04.18,0,.21.08.04.08,0,.18-.08.21l-.59.26s-.04.01-.07.01Zm1.18-.52c-.06,0-.12-.04-.15-.1-.04-.08,0-.18.08-.21l.59-.26c.08-.04.18,0,.21.08.04.08,0,.18-.08.21l-.59.26s-.04.01-.07.01Zm1.18-.52c-.06,0-.12-.04-.15-.1-.04-.08,0-.18.08-.21l.59-.26c.08-.04.18,0,.21.08.04.08,0,.18-.08.21l-.59.26s-.04.01-.07.01Zm7.51-.27s-.05,0-.08-.02l-.56-.32c-.08-.04-.1-.14-.06-.22.04-.08.14-.1.22-.06l.56.32c.08.04.1.14.06.22-.03.05-.08.08-.14.08Zm.63-.11c-.08,0-.14-.05-.16-.13-.02-.09.04-.17.13-.19l.63-.12c.09-.02.17.04.19.13.02.09-.04.17-.13.19l-.63.12s-.02,0-.03,0Zm-6.96-.14c-.06,0-.12-.04-.15-.1-.04-.08,0-.18.08-.21l.59-.26c.08-.04.18,0,.21.08.04.08,0,.18-.08.21l-.59.26s-.04.01-.07.01Zm8.22-.1c-.08,0-.14-.05-.16-.13-.02-.09.04-.17.13-.19l.63-.12c.09-.02.17.04.19.13.02.09-.04.17-.13.19l-.63.12s-.02,0-.03,0Zm1.27-.25c-.07,0-.13-.04-.15-.11-.03-.08.02-.18.1-.2l.61-.21c.08-.03.18.02.2.1.03.08-.02.18-.1.2l-.61.21s-.03,0-.05,0Zm-4.28-.04s-.05,0-.08-.02l-.56-.32c-.08-.04-.1-.14-.06-.22.04-.08.14-.1.22-.06l.56.32c.08.04.1.14.06.22-.03.05-.08.08-.14.08Zm-4.03-.13c-.06,0-.12-.04-.15-.1-.04-.08,0-.18.08-.21l.59-.26c.08-.04.18,0,.21.08.04.08,0,.18-.08.21l-.59.26s-.04.01-.07.01Zm9.53-.24c-.07,0-.13-.04-.15-.11-.03-.08.02-.18.1-.2l.61-.21c.08-.03.18.02.2.1.03.08-.02.18-.1.2l-.61.21s-.03,0-.05,0Zm-6.62-.27s-.05,0-.08-.02l-.56-.32c-.08-.04-.1-.14-.06-.22.04-.08.14-.1.22-.06l.56.32c.08.04.1.14.06.22-.03.05-.08.08-.14.08Zm-1.73,0c-.06,0-.12-.04-.15-.1-.04-.08,0-.18.08-.21l.59-.26c.08-.04.18,0,.21.08.04.08,0,.18-.08.21l-.59.26s-.04.01-.07.01Zm9.57-.13c-.07,0-.13-.04-.15-.11-.03-.08.02-.18.1-.2l.61-.21c.08-.03.18.02.2.1.03.08-.02.18-.1.2l-.61.21s-.03,0-.05,0Zm1.22-.42c-.06,0-.12-.04-.15-.1-.03-.08,0-.18.09-.21l.6-.25c.08-.03.18,0,.21.09s0,.18-.09.21l-.6.25s-.04.01-.06.01Zm1.19-.49c-.06,0-.12-.04-.15-.1-.03-.08,0-.18.09-.21l.6-.25c.08-.03.18,0,.21.09.03.08,0,.18-.09.21l-.6.25s-.04.01-.06.01Zm1.19-.49c-.06,0-.12-.04-.15-.1-.03-.08,0-.18.09-.21l.6-.25c.08-.03.18,0,.21.09.03.08,0,.18-.09.21l-.6.25s-.04.01-.06.01Zm8.88-.08s-.05,0-.07-.01l-.59-.27c-.08-.04-.12-.13-.08-.21.04-.08.13-.12.21-.08l.59.27c.08.04.12.13.08.21-.03.06-.09.09-.15.09Zm.5-.19s-.08-.01-.11-.04c-.06-.06-.07-.16,0-.23l.45-.47c.06-.06.16-.07.23,0,.06.06.07.16,0,.23l-.45.47s-.07.05-.12.05Zm-8.19-.23c-.06,0-.12-.04-.15-.1-.03-.08,0-.18.09-.21l.6-.25c.08-.03.18,0,.21.09.03.08,0,.18-.09.21l-.6.25s-.04.01-.06.01Zm6.51-.12s-.05,0-.07-.01l-.59-.27c-.08-.04-.12-.13-.08-.21.04-.08.13-.12.21-.08l.59.27c.08.04.12.13.08.21-.03.06-.09.09-.15.09Zm-5.32-.37c-.06,0-.12-.04-.15-.1-.03-.08,0-.18.09-.21l.6-.25c.08-.03.18,0,.21.09.03.08,0,.18-.09.21l-.6.25s-.04.01-.06.01Zm4.15-.16s-.05,0-.07-.01l-.59-.27c-.08-.04-.12-.13-.08-.21.04-.08.13-.12.21-.08l.59.27c.08.04.12.13.08.21-.03.06-.09.09-.15.09Zm3.74-.05s-.08-.01-.11-.04c-.06-.06-.07-.16,0-.23l.45-.47c.06-.06.16-.07.23,0,.06.06.07.16,0,.23l-.45.47s-.07.05-.12.05Zm-6.69-.29c-.06,0-.12-.04-.15-.1-.03-.08,0-.18.09-.21l.6-.25c.08-.03.18,0,.21.09.03.08,0,.18-.09.21l-.6.25s-.04.01-.06.01Zm1.78-.2s-.05,0-.07-.01l-.59-.27c-.08-.04-.12-.13-.08-.21.04-.08.13-.12.21-.08l.59.27c.08.04.12.13.08.21-.03.06-.09.09-.15.09Zm5.81-.44s-.08-.01-.11-.04c-.06-.06-.07-.16,0-.23l.45-.47c.06-.06.16-.07.23,0,.06.06.07.16,0,.23l-.45.47s-.07.05-.12.05Zm.89-.93s-.08-.01-.11-.04c-.06-.06-.07-.16,0-.23l.45-.47c.06-.06.16-.07.23,0,.06.06.07.16,0,.23l-.45.47s-.07.05-.12.05Zm.6-.97c-.06,0-.11-.03-.14-.09l-.3-.57c-.04-.08,0-.18.07-.22.08-.04.18,0,.22.07l.3.57c.04.08,0,.18-.07.22-.02.01-.05.02-.07.02Zm-.59-1.15c-.06,0-.11-.03-.14-.09l-.3-.57c-.04-.08,0-.18.07-.22.08-.04.18,0,.22.07l.3.57c.04.08,0,.18-.07.22-.02.01-.05.02-.07.02Zm-.59-1.15c-.06,0-.11-.03-.14-.09l-.3-.57c-.04-.08,0-.18.07-.22.08-.04.18,0,.22.07l.3.57c.04.08,0,.18-.07.22-.02.01-.05.02-.07.02Zm-.66-1.07s-.04,0-.06-.01l-.6-.25c-.08-.03-.12-.13-.09-.21.03-.08.13-.12.21-.09l.6.25c.08.03.12.13.09.21-.03.06-.09.1-.15.1Zm-1.19-.49s-.04,0-.06-.01l-.6-.25c-.08-.03-.12-.13-.09-.21.03-.08.13-.12.21-.09l.6.25c.08.03.12.13.09.21-.03.06-.09.1-.15.1Zm-1.19-.49s-.04,0-.06-.01l-.6-.25c-.08-.03-.12-.13-.09-.21.03-.08.13-.12.21-.09l.6.25c.08.03.12.13.09.21-.03.06-.09.1-.15.1Zm-1.19-.49s-.04,0-.06-.01l-.6-.25c-.08-.03-.12-.13-.09-.21.03-.08.13-.12.21-.09l.6.25c.08.03.12.13.09.21-.03.06-.09.1-.15.1Zm-1.19-.49s-.04,0-.06-.01l-.6-.25c-.08-.03-.12-.13-.09-.21.03-.08.13-.12.21-.09l.6.25c.08.03.12.13.09.21-.03.06-.09.1-.15.1Zm-1.19-.49s-.04,0-.06-.01l-.6-.25c-.08-.03-.12-.13-.09-.21.03-.08.13-.12.21-.09l.6.25c.08.03.12.13.09.21-.03.06-.09.1-.15.1Zm-1.19-.49s-.04,0-.06-.01l-.6-.25c-.08-.03-.12-.13-.09-.21.03-.08.13-.12.21-.09l.6.25c.08.03.12.13.09.21-.03.06-.09.1-.15.1Zm-1.19-.49s-.04,0-.06-.01l-.6-.25c-.08-.03-.12-.13-.09-.21.03-.08.13-.12.21-.09l.6.25c.08.03.12.13.09.21-.03.06-.09.1-.15.1Zm-1.19-.49s-.04,0-.06-.01l-.6-.25c-.08-.03-.12-.13-.09-.21.03-.08.13-.12.21-.09l.6.25c.08.03.12.13.09.21-.03.06-.09.1-.15.1Zm-1.19-.49s-.04,0-.06-.01l-.6-.25c-.08-.03-.12-.13-.09-.21.03-.08.13-.12.21-.09l.6.25c.08.03.12.13.09.21-.03.06-.09.1-.15.1Zm-1.19-.49s-.04,0-.06-.01l-.6-.25c-.08-.03-.12-.13-.09-.21.03-.08.13-.12.21-.09l.6.25c.08.03.12.13.09.21-.03.06-.09.1-.15.1Zm-1.19-.49s-.04,0-.06-.01l-.71-.3.12-.21c.04-.08.14-.1.22-.06.04.02.06.05.07.09l.42.17c.08.03.12.13.09.21-.03.06-.09.1-.15.1Zm-.19-.84s-.05,0-.08-.02c-.08-.04-.1-.14-.06-.22l.32-.56c.04-.08.14-.1.22-.06.08.04.1.14.06.22l-.32.56c-.03.05-.08.08-.14.08Zm.64-1.12s-.05,0-.08-.02c-.08-.04-.1-.14-.06-.22l.3-.52.12-.07c.08-.04.18-.02.22.06.04.08.02.18-.06.22l-.04.02-.25.44c-.03.05-.08.08-.14.08Zm.92-.84c-.06,0-.11-.03-.14-.08-.04-.08-.02-.18.06-.22l.56-.31c.08-.04.18-.02.22.06.04.08.02.18-.06.22l-.56.31s-.05.02-.08.02Zm1.13-.63c-.06,0-.11-.03-.14-.08-.04-.08-.02-.18.06-.22l.56-.31c.08-.04.18-.02.22.06.04.08.02.18-.06.22l-.56.31s-.05.02-.08.02Zm1.13-.63c-.06,0-.11-.03-.14-.08-.04-.08-.02-.18.06-.22l.56-.31c.08-.04.18-.02.22.06.04.08.02.18-.06.22l-.56.31s-.05.02-.08.02Zm1.13-.63c-.06,0-.11-.03-.14-.08-.04-.08-.02-.18.06-.22l.56-.31c.08-.04.18-.02.22.06.04.08.02.18-.06.22l-.56.31s-.05.02-.08.02Zm1.13-.63c-.06,0-.11-.03-.14-.08-.04-.08-.02-.18.06-.22l.56-.31c.08-.04.18-.02.22.06.04.08.02.18-.06.22l-.56.31s-.05.02-.08.02Zm1-.78s-.07-.01-.1-.04c-.07-.06-.08-.16-.02-.23l.41-.5c.06-.07.16-.08.23-.02.07.06.08.16.02.23l-.41.5s-.08.06-.12.06Zm.82-.99s-.07-.01-.1-.04c-.07-.06-.08-.16-.02-.23l.41-.5c.06-.07.16-.08.23-.02.07.06.08.16.02.23l-.41.5s-.08.06-.12.06Z"/>
            <ellipse class="cls-64" cx="34.9" cy="13.81" rx=".6" ry=".66"/>
            <ellipse class="cls-70" cx="9.44" cy="39.02" rx=".64" ry=".7"/>
          </g>
        </g>
        <circle class="cls-75" cx="24.83" cy="20.81" r="1.85"/>
        <circle class="cls-73" cx="24.83" cy="20.81" r="1.33"/>
        <g>
          <path class="cls-71" d="m39.2,4.31c-.18-.06-.28-.26-.22-.44.06-.18.26-.28.44-.22.18.06.28.26.22.44-.06.18-.26.28-.44.22Z"/>
          <circle class="cls-74" cx="39.89" cy="4.97" r=".41"/>
          <circle class="cls-74" cx="40.36" cy="4.03" r=".26"/>
          <circle class="cls-74" cx="39.69" cy="6.49" r=".5"/>
          <circle class="cls-69" cx="40.73" cy="5.89" r=".49"/>
          <path class="cls-67" d="m39.51,3.16c-.1-.03-.16-.14-.12-.24.03-.1.14-.16.24-.12.1.03.16.14.12.24-.03.1-.14.16-.24.12Z"/>
          <circle class="cls-68" cx="40.36" cy="8.27" r=".35"/>
          <circle class="cls-74" cx="40.67" cy="7.17" r=".41"/>
          <circle class="cls-21" cx="40.28" cy="9.44" r=".5"/>
          <circle class="cls-18" cx="41.39" cy="8.62" r=".49"/>
          <circle class="cls-19" cx="41.02" cy="11.01" r=".35"/>
          <circle class="cls-74" cx="41.33" cy="9.9" r=".41"/>
          <circle class="cls-20" cx="39.46" cy="7.69" r=".4"/>
        </g>
        <g>
          <g>
            <path class="cls-29" d="m20.95,44.58c0,.56-.49,1.02-1.08,1.02l-14.32.03c-.6,0-1.09-.46-1.11-1.02l-.67-26.67c-.02-.63.48-1.15,1.12-1.14l15.2.07c.63,0,1.13.52,1.13,1.15l-.27,26.56Z"/>
            <path class="cls-25" d="m19.66,19.56c0-.61-.5-1.11-1.12-1.11l-12.07-.05c-.63,0-1.12.49-1.11,1.1l.5,22.68c.01.56.5,1,1.1,1l11.46-.02c.59,0,1.07-.45,1.08-1l.16-22.6Z"/>
            <path class="cls-23" d="m14.33,17.58c0,.12-.09.21-.21.21h-3.14c-.12-.01-.21-.11-.22-.23h0c0-.12.09-.21.21-.21h3.14c.12.02.21.11.21.23h0Z"/>
          </g>
          <g>
            <polygon class="cls-22" points="17.08 35.64 18.89 33.85 18.82 37.64 17.08 35.65 17.08 35.64"/>
            <path class="cls-28" d="m16.21,36.51l2.56,2.93.03.03-.07,2.32c0,.22-.12.44-.31.59-.17.14-.38.22-.61.24l-3.61-4.1,2.02-2.01Z"/>
            <polygon class="cls-24" points="18.35 32.68 16.29 34.73 15.41 35.6 13.39 37.62 10.06 33.84 10.06 33.84 12.08 31.8 12.07 31.8 12.06 31.79 12.06 31.79 12.94 30.91 12.95 30.91 12.95 30.91 12.95 30.91 12.95 30.91 15.02 28.82 19.14 24.65 18.98 31.48 18.35 32.68"/>
            <polygon class="cls-31" points="16.2 42.63 10.04 42.63 13.32 39.37 16.2 42.63"/>
            <path class="cls-27" d="m12.53,38.48l-4.17,4.16h-.38c-.25,0-.5-.09-.68-.24-.19-.15-.29-.36-.3-.58l-.17-4.69,2.38-2.42,3.33,3.77Z"/>
            <polygon class="cls-30" points="8.4 33.8 6.76 35.47 6.63 31.79 8.4 33.8 8.4 33.8"/>
            <path class="cls-26" d="m15.09,26.99l-3.31-3.85,3.49-3.61,2.88-.02c.61,0,1.09.48,1.08,1.09l-.05,2.24-4.08,4.15Z"/>
            <polygon class="cls-33" points="8.71 19.57 13.5 19.54 10.96 22.18 8.71 19.57"/>
            <polygon class="cls-17" points="10.9 24.05 14.21 27.88 12.15 29.98 11.28 30.87 9.29 32.92 6.62 29.85 6.62 29.85 6.53 28.6 6.52 28.59 10.9 24.05"/>
            <path class="cls-34" d="m7.06,19.6l3.01,3.49-3.64,3.78-.23-6.18c-.02-.54.35-.99.85-1.1Z"/>
          </g>
          <g>
            <rect class="cls-75" x="6.97" y="20.7" width="5.59" height=".34" rx=".17" ry=".17"/>
            <rect class="cls-75" x="6.97" y="21.61" width="5.59" height=".34" rx=".17" ry=".17"/>
            <rect class="cls-75" x="6.97" y="22.53" width="5.59" height=".34" rx=".17" ry=".17"/>
          </g>
          <g>
            <g>
              <path class="cls-75" d="m7.8,39.37c-.2,0-.38-.11-.48-.28-.51-.92-1.11-2.14-1.11-2.68,0-.87.71-1.59,1.59-1.59s1.59.71,1.59,1.59c0,.55-.6,1.76-1.11,2.68-.1.18-.28.28-.48.28Zm0-4.3c-.73,0-1.33.6-1.33,1.33,0,.38.39,1.31,1.08,2.56.05.09.15.15.26.15s.2-.06.26-.15c.68-1.25,1.08-2.18,1.08-2.56,0-.73-.6-1.33-1.33-1.33Z"/>
              <path class="cls-75" d="m7.81,37.4c-.53,0-.96-.43-.96-.96s.43-.96.96-.96.96.43.96.96-.43.96-.96.96Zm0-1.67c-.39,0-.71.32-.71.71s.32.71.71.71.71-.32.71-.71-.32-.71-.71-.71Z"/>
            </g>
            <circle class="cls-75" cx="7.8" cy="40.51" r=".6"/>
          </g>
          <g>
            <g>
              <path class="cls-75" d="m16.18,22.5c-.19,0-.36-.1-.45-.27-.47-.87-1.04-2.01-1.04-2.52,0-.82.67-1.49,1.49-1.49s1.49.67,1.49,1.49c0,.51-.57,1.65-1.04,2.52-.09.17-.26.27-.45.27Zm0-4.04c-.69,0-1.25.56-1.25,1.25,0,.36.37,1.23,1.01,2.41.05.09.14.14.24.14s.19-.05.24-.14c.64-1.17,1.01-2.05,1.01-2.41,0-.69-.56-1.25-1.25-1.25Z"/>
              <path class="cls-75" d="m16.18,20.65c-.5,0-.9-.41-.9-.9s.41-.9.9-.9.9.41.9.9-.41.9-.9.9Zm0-1.57c-.37,0-.66.3-.66.66s.3.66.66.66.66-.3.66-.66-.3-.66-.66-.66Z"/>
            </g>
            <circle class="cls-75" cx="16.17" cy="23.56" r=".57"/>
          </g>
        </g>
        <g>
          <g>
            <g>
              <circle class="cls-32" cx="34.86" cy="6.26" r="2.85"/>
              <path class="cls-16" d="m37.71,6.11h-5.7s-.23,1.58,2.32,5.92c.11.19.31.3.53.3.22,0,.42-.11.53-.3,2.55-4.34,2.32-5.93,2.32-5.93Z"/>
            </g>
            <path class="cls-4" d="m34.86,12.43v.02h0c-.25,0-.48-.14-.61-.35-1.49-2.54-2.03-4.14-2.23-5.04-.06-.21-.09-.41-.1-.62-.02-.21,0-.3,0-.31v-.05c.12-1.53,1.4-2.73,2.94-2.73s2.85,1.21,2.93,2.76c0,.02,0,.07,0,.16h0c0,.29-.04.57-.12.84-.2.9-.75,2.48-2.22,4.98-.13.21-.35.34-.61.34Zm-2.78-6.19s0,.1,0,.2h0c0,.2.04.39.09.58h0c.19.89.73,2.47,2.21,4.99.1.16.27.26.46.26v.08s0-.08,0-.08c.17,0,.37-.1.46-.27,1.45-2.48,2-4.05,2.2-4.94h0c.07-.26.1-.52.1-.79h-.02c0-.1.01-.14.01-.15h0c-.08-1.46-1.29-2.61-2.76-2.61s-2.68,1.16-2.76,2.63v.08h0Z"/>
            <circle class="cls-75" cx="34.87" cy="6.25" r="1.65"/>
            <path class="cls-7" d="m34.87,7.99c-.96,0-1.74-.78-1.74-1.74s.78-1.74,1.74-1.74,1.74.78,1.74,1.74-.78,1.74-1.74,1.74Zm0-3.3c-.86,0-1.56.7-1.56,1.56s.7,1.56,1.56,1.56,1.56-.7,1.56-1.56-.7-1.56-1.56-1.56Z"/>
          </g>
          <path class="cls-75" d="m33.31,4.54s-.02,0-.02,0c0-.01,0-.03,0-.04.46-.4,1.05-.62,1.67-.62.02,0,.03.01.03.03s-.01.03-.03.03c-.6,0-1.18.21-1.63.6,0,0-.01,0-.02,0Z"/>
          <path class="cls-75" d="m32.42,6.46s-.03-.01-.03-.03c0-.48.13-.94.38-1.35,0-.01.03-.02.04,0,.01,0,.02.03,0,.04-.24.39-.37.85-.37,1.32,0,.02-.01.03-.03.03Z"/>
        </g>
        <g>
          <path class="cls-9" d="m38.3,9.62s.52-2.34,1.23-2.05c.71.3.61.85.85,1.02.24.17,1.09,1.41-2.08,1.02Z"/>
          <path class="cls-10" d="m38.39,9.62s.24-2.39-.52-2.34-.52,1.07-1.18,1.11c-.66.04-.95,1.41,1.7,1.24Z"/>
          <path class="cls-8" d="m36.64,14h3.15c.36,0,.67-.25.7-.58l.41-3.2c.03-.37-.29-.68-.7-.68h-3.55c-.39,0-.7.28-.7.63v3.2c0,.35.31.63.7.63Z"/>
          <rect class="cls-6" x="37.87" y="9.54" width="1.09" height="4.46" transform="translate(76.83 23.53) rotate(180)"/>
        </g>
        <g>
          <g>
            <path class="cls-75" d="m14.66,35.38c-.08-.11-.74-.56.07-1.16.04-.07-.05-.26-.12-.24-1.15.69-.17,1.7-.05,1.62.12-.09.2-.09.11-.22Z"/>
            <path class="cls-75" d="m14.31,33.5c0-.14-.1-.28-.22-.25-.12.03-1.79,1.29-.1,2.9.02.02.05.03.08.03.03,0,.06-.01.08-.03.06-.07.1-.12.1-.2-1.48-1.47.08-2.31.07-2.45Z"/>
            <path class="cls-75" d="m13.88,32.77c.03-.1-.04-.31-.21-.27-2.74,2.23-.15,4.51-.03,4.44.11-.07.13-.23.09-.29-2.32-2.04.12-3.78.14-3.88Z"/>
          </g>
          <g>
            <path class="cls-13" d="m17.6,45.79s.07.41.11.81c.01.16-.11.29-.27.3-.54.02-1.68.07-2.09.05-.06,0-.1-.07-.08-.12h0s.06-.09.1-.11l1.89-.87.33-.05Z"/>
            <path class="cls-15" d="m17.66,45.55l-.06.49s-.33.15-.56-.02l.14-.54.48.08Z"/>
            <path class="cls-11" d="m17.61,36.41c.02.13.13,6.33-.53,9.12-.01.05.01.09.06.11.1.04.3.1.54.11.07,0,.14-.05.16-.12.19-.65,1.1-3.88,1.22-6.97.13-3.45,0-.12,0-.12l-.08-2.13h-1.37Z"/>
            <path class="cls-14" d="m19.78,46s.11.21.22.75c.02.1-.05.19-.15.2-.18.02-.45.04-.67.04-.1,0-.18-.09-.17-.19.02-.2.1-.53.33-.78l.43-.02Z"/>
            <path class="cls-5" d="m19.88,45.38l-.13.74s-.13.1-.4.03l.06-.79.47.03Z"/>
            <path class="cls-12" d="m20.24,36.6c.54,3.28-.12,8.1-.34,9.04-.01.06-.06.1-.12.11-.1.02-.26.03-.42-.02-.06-.02-.09-.07-.1-.12-.03-.76.02-5.44-.48-7.3-.03-.09-.08-.18-.16-.23l-.98-.7-.08-1.13,2.68.34Z"/>
            <g>
              <path class="cls-43" d="m16.78,30.4c1.63-.03,3.42.43,3.42.43.48,2.83.08,6.09.08,6.09-1.26.33-2.68-.2-2.68-.2-.21-1.18-1.19-4.51-1.19-4.51-.79-.1-1.45-.33-1.99-.63.41-.48.61-1.08.69-1.44.58.18,1.16.27,1.66.27Z"/>
              <path class="cls-44" d="m11.98,28c.16-.19.36-.1.36-.1.24,1.01,1.49,1.83,2.78,2.23-.08.36-.28.97-.69,1.44-2.14-1.2-2.46-3.57-2.46-3.57Z"/>
            </g>
            <g>
              <path class="cls-41" d="m12.02,28.05c-.02.05.18.13.29-.08,0-.1.07-.55,0-.64-.33-.45-.97-1.02-.97-1.02-.11.11-.02.21-.02.21l.31.32c-.07.12-.14.22-.18.36-.03.11-.01.22.04.32.05.1.13.23.2.33.13.19.32.19.32.19Z"/>
              <path class="cls-42" d="m11.77,27.06l.28.24.09.24-.25.28s-.09-.48-.15-.58c-.06-.1-.03-.15.03-.18Z"/>
            </g>
            <path class="cls-37" d="m19.58,32.4l.62-1.57s1.52,1.03,1.77,2.34c-.29.02-.81.1-1.32.35-.11-.62-1.07-1.12-1.07-1.12Z"/>
            <path class="cls-35" d="m18.25,33.88s1.71.96,2.28.14c.12-.17.15-.34.12-.5.51-.26,1.03-.33,1.32-.35.08.39.04.81-.2,1.24-1.01,1.84-3.75-.1-3.75-.1l.23-.42Z"/>
            <path class="cls-36" d="m18.43,29.08l.52,1.5s0,.05-.02.06c-.14.08-.65.3-1.26-.08-.06-.04-.11-.11-.12-.18l-.17-1.3h1.05Z"/>
            <g>
              <path class="cls-40" d="m17.3,27.69s-.57,1.07-.5,1.5c.07.43.78.4,1.39.05l.43-1.16-1.33-.4Z"/>
              <path class="cls-38" d="m18.17,28.67s-.03-.04-.02-.06c.05-.07.13-.21.16-.34,0,0,.1-.07-.26-.15-.36-.09-.9-.22-1.02-.53-.11-.3.18-1.06.64-.45.02.02.05.02.07,0,.08-.1.28-.3.55-.18.26.12.29.31.29.4,0,.03.02.05.05.04.13-.03.45-.05.59.28.12.27.04.42-.03.49-.02.02-.01.06.02.07.09.03.2.1.19.3-.02.28-.33.25-.42.24-.01,0-.03,0-.04.01-.08.08-.42.44-.79.49-.03,0-.06-.03-.05-.06l.16-.47s0-.05-.02-.05l-.08-.04Z"/>
              <path class="cls-39" d="m18.11,28.74s.4-.28.43-.04c.03.23-.36.34-.56.25l.13-.21Z"/>
            </g>
            <g>
              <path class="cls-53" d="m15.74,30.77c0-.07.02-.14.07-.19.05-.05.12-.07.19-.06l1.73.22c.07,0,.12.07.12.13l-.07,4.46s0,.04-.02.05c-.01.01-.03.02-.05.02l-1.5-.04c-.12,0-.22-.1-.23-.22l-.25-4.38Z"/>
              <path class="cls-51" d="m18.23,34.31s.13-.53.08-.72c-.05-.19-.15-.43-.49-.38-.34.05-.74.2-.74.2,0,0,.02.25.28.17l-.16.12s.02.2.24.09l-.15.16s.09.16.25.06c.16-.1.24.37.69.3Z"/>
            </g>
          </g>
        </g>
        <g>
          <path class="cls-52" d="m28.72,46.53l.06.52c.01.1.09.18.19.19.17.02.44.04.7.01.12-.01.19-.13.16-.24-.06-.2-.18-.51-.35-.68h-.58c-.11,0-.19.09-.18.2Z"/>
          <path class="cls-50" d="m24.17,40.4l-.1.58s.33,3.33.39,4.66c0,.21-.04.41-.15.59l-.57.93,1.45-.86.03-.18-.24-.33.31-3.73c.02-.22-.03-.44-.13-.63l-.3-.56-.69-.47Z"/>
          <path class="cls-54" d="m23.63,47.29h.46c.09,0,.17-.04.22-.11.14-.19.44-.55.59-.56.19-.01.17.67.17.67h.11l.14-.85c.03-.21-.07-.43-.26-.53h0s-.04.33-.28.47c-.24.14-.97.66-.97.66,0,0-.09-.01-.19,0-.15.03-.13.24.02.24Z"/>
          <path class="cls-48" d="m26.16,40.67s1.92,3.65,2.23,4.48.41,1.53.42,1.59c0,.1.13.2.49.2.18,0,.27-.07.31-.14.04-.06.04-.14,0-.2-.11-.23-.46-.95-.6-1.27-.16-.39-.49-2.16-.68-2.77-.18-.61-.39-1.28-1.2-1.89,0,0-.55-.54-.99,0Z"/>
          <path class="cls-49" d="m23.21,34.87c-.26,1.13.32,3.67.86,6.12l.35,4.14c.12.13.3.17.59,0,.27-1.71.67-3.52-.09-4.3.09-1.12,0-2.14-.2-3.54.4,1.36.8,2.38,1.44,3.38.75,1.47,1.44,2.84,2,3.94.26.05.47-.02.62-.23-.29-1.6-.65-3.11-1.62-3.71l-.91-4.45c-.02-.75-.46-1.15-1.3-1.53l-1.73.18Z"/>
          <path class="cls-46" d="m24.67,27.36s.45.22.53.47c.07.2.56.23.61.62.03.2.18.37.38.4.5.08,1.28.34,1.4,1.21.09.67-.25.92-.6,1.01-.26.06-.44.32-.38.58.05.25-.02.55-.46.78-.98.52-1.97-1.23-1.97-1.23l-.2-3.06.71-.77Z"/>
          <path class="cls-47" d="m24.87,34.33c-.29-1.88.83-2.94.83-2.94-.65-.62-1.72-.96-2.1-1.07-.09-.02-.18,0-.25.05-.33.26-1.24,1.06-1.1,1.71.07.34.57,1.7.82,2.38-.02.6.02,1.42.07,2.29.74.23,1.83.06,3.13-.35.18-.77-.59-1.42-1.4-2.07Z"/>
          <path class="cls-45" d="m24.36,29l.4,1.81c.04.16-.11.13-.27.1-.26-.05-.61-.15-.72-.36-.01-.02-.02-.04-.02-.07l-.17-1.26c-.01-.1.04-.2.13-.24l.33-.15c.13-.06.28.02.31.15Z"/>
          <g>
            <path class="cls-55" d="m23.59,27.35s-.43.29-.61,1.03c-.18.74.12,1.01.42.99.31-.02.75-.11,1.14-.64.39-.53-.39-1.73-.95-1.38Z"/>
            <path class="cls-56" d="m24.15,28.43s.16-1.06-.72-.9l-.18.19s-.43-.49.05-.85c.48-.37,1.14-.27,1.51.4.37.67.5,1.14.19,1.55-.31.42-.54.06-.54.06,0,0,.14-.36.02-.51-.12-.15-.27.09-.27.09l-.06-.02Z"/>
            <path class="cls-57" d="m24.27,28.52s.08-.55.36-.39c.28.16-.1.51-.25.63l-.1-.24Z"/>
          </g>
          <path class="cls-59" d="m25.7,31.39s2.82,2.02.36,4.13c0,0-.09.11-.28.16-.09.03-.37.24-.51.34-.04.03-.11.02-.14-.03h0s-.03-.08,0-.13l.35-.74c.1-.09.25-.1.35-.02h0c.07.05.16.03.2-.05.19-.39.55-1.52-.92-2.81-.06-.05-.07-.13-.04-.19.1-.2.34-.59.63-.69Z"/>
        </g>
        <g>
          <path class="cls-60" d="m40.1,33.53c0-.13-.18-.24-.39-.24h-7.99c-.21,0-.42.11-.42.24v11.79c0,.06.06.12.13.17.07.04.18.07.28.07h8.35c.1-.01.21-.04.28-.09.07-.05.11-.11.11-.17l-.36-11.78Z"/>
          <g class="cls-77">
            <g>
              <polygon class="cls-73" points="34.22 34.68 31.94 34.68 31.92 33.96 34.2 33.96 34.22 34.68"/>
              <polygon class="cls-73" points="36.77 34.68 34.49 34.68 34.48 33.96 36.75 33.96 36.77 34.68"/>
              <polygon class="cls-73" points="39.32 34.68 37.04 34.68 37.03 33.96 39.3 33.96 39.32 34.68"/>
            </g>
            <g>
              <polygon class="cls-73" points="34.25 35.97 31.97 35.97 31.96 35.26 34.23 35.26 34.25 35.97"/>
              <polygon class="cls-73" points="36.79 35.97 34.52 35.97 34.51 35.26 36.78 35.26 36.79 35.97"/>
              <polygon class="cls-73" points="39.34 35.97 37.07 35.97 37.06 35.26 39.32 35.26 39.34 35.97"/>
            </g>
            <g>
              <polygon class="cls-73" points="34.27 37.25 32.01 37.25 31.99 36.54 34.26 36.54 34.27 37.25"/>
              <polygon class="cls-73" points="36.82 37.25 34.55 37.25 34.53 36.54 36.8 36.54 36.82 37.25"/>
              <polygon class="cls-73" points="39.35 37.25 37.09 37.25 37.08 36.54 39.34 36.54 39.35 37.25"/>
            </g>
            <g>
              <polygon class="cls-73" points="34.3 38.53 32.04 38.53 32.02 37.82 34.29 37.82 34.3 38.53"/>
              <polygon class="cls-73" points="36.84 38.53 34.58 38.53 34.56 37.82 36.83 37.82 36.84 38.53"/>
              <polygon class="cls-73" points="39.37 38.53 37.11 38.53 37.1 37.82 39.36 37.82 39.37 38.53"/>
            </g>
            <g>
              <polygon class="cls-73" points="34.33 39.8 32.07 39.8 32.05 39.1 34.31 39.1 34.33 39.8"/>
              <polygon class="cls-73" points="36.86 39.8 34.61 39.8 34.59 39.1 36.85 39.09 36.86 39.8"/>
              <polygon class="cls-73" points="39.39 39.8 37.14 39.8 37.13 39.09 39.38 39.09 39.39 39.8"/>
            </g>
            <g>
              <polygon class="cls-73" points="34.36 41.07 32.1 41.07 32.08 40.37 34.34 40.37 34.36 41.07"/>
              <polygon class="cls-73" points="36.89 41.07 34.63 41.07 34.62 40.36 36.87 40.36 36.89 41.07"/>
              <polygon class="cls-73" points="39.41 41.06 37.16 41.06 37.15 40.36 39.4 40.36 39.41 41.06"/>
            </g>
            <g>
              <polygon class="cls-73" points="34.39 42.33 32.13 42.34 32.12 41.63 34.37 41.63 34.39 42.33"/>
              <polygon class="cls-73" points="36.91 42.33 34.66 42.33 34.65 41.63 36.9 41.63 36.91 42.33"/>
              <polygon class="cls-73" points="39.43 42.32 37.18 42.33 37.17 41.63 39.42 41.62 39.43 42.32"/>
            </g>
            <g>
              <polygon class="cls-73" points="34.41 43.59 32.17 43.59 32.15 42.9 34.4 42.89 34.41 43.59"/>
              <polygon class="cls-73" points="36.93 43.59 34.69 43.59 34.67 42.89 36.92 42.89 36.93 43.59"/>
              <polygon class="cls-73" points="39.45 43.58 37.21 43.59 37.19 42.89 39.44 42.88 39.45 43.58"/>
            </g>
            <g>
              <polygon class="cls-73" points="34.44 44.84 32.2 44.85 32.18 44.15 34.43 44.15 34.44 44.84"/>
              <polygon class="cls-73" points="36.96 44.84 34.72 44.84 34.7 44.15 36.94 44.14 36.96 44.84"/>
              <polygon class="cls-73" points="39.47 44.83 37.23 44.84 37.22 44.14 39.46 44.14 39.47 44.83"/>
            </g>
          </g>
        </g>
        <g>
          <path class="cls-58" d="m40.69,31.29c0-.16.13-.29.29-.29h5.97c.16,0,.32.14.32.3v14.41c0,.08-.04.15-.1.21-.05.05-.14.09-.21.09l-6.24-.02c-.08,0-.15-.03-.21-.09-.05-.06-.08-.13-.08-.21l.27-14.39Z"/>
          <g class="cls-78">
            <g>
              <polygon class="cls-73" points="45.09 32.69 46.79 32.69 46.81 31.81 45.1 31.81 45.09 32.69"/>
              <polygon class="cls-73" points="43.19 32.69 44.88 32.69 44.9 31.81 43.2 31.81 43.19 32.69"/>
              <polygon class="cls-73" points="41.28 32.69 42.98 32.69 42.99 31.81 41.29 31.81 41.28 32.69"/>
            </g>
            <g>
              <polygon class="cls-73" points="45.07 34.27 46.77 34.27 46.78 33.4 45.08 33.4 45.07 34.27"/>
              <polygon class="cls-73" points="43.17 34.27 44.86 34.27 44.88 33.4 43.18 33.4 43.17 34.27"/>
              <polygon class="cls-73" points="41.27 34.27 42.96 34.27 42.97 33.4 41.27 33.4 41.27 34.27"/>
            </g>
            <g>
              <polygon class="cls-73" points="45.05 35.84 46.74 35.84 46.76 34.97 45.06 34.97 45.05 35.84"/>
              <polygon class="cls-73" points="43.15 35.83 44.84 35.84 44.85 34.97 43.16 34.96 43.15 35.83"/>
              <polygon class="cls-73" points="41.25 35.83 42.94 35.83 42.95 34.96 41.26 34.96 41.25 35.83"/>
            </g>
            <g>
              <polygon class="cls-73" points="45.03 37.4 46.72 37.4 46.73 36.53 45.04 36.53 45.03 37.4"/>
              <polygon class="cls-73" points="43.13 37.39 44.82 37.39 44.83 36.53 43.14 36.53 43.13 37.39"/>
              <polygon class="cls-73" points="41.24 37.39 42.93 37.39 42.94 36.53 41.24 36.52 41.24 37.39"/>
            </g>
            <g>
              <polygon class="cls-73" points="45.01 38.95 46.7 38.95 46.71 38.09 45.02 38.09 45.01 38.95"/>
              <polygon class="cls-73" points="43.11 38.95 44.8 38.95 44.81 38.09 43.12 38.08 43.11 38.95"/>
              <polygon class="cls-73" points="41.22 38.94 42.91 38.95 42.92 38.08 41.23 38.08 41.22 38.94"/>
            </g>
            <g>
              <polygon class="cls-73" points="44.99 40.5 46.67 40.5 46.69 39.64 45 39.64 44.99 40.5"/>
              <polygon class="cls-73" points="43.1 40.49 44.78 40.5 44.79 39.64 43.11 39.63 43.1 40.49"/>
              <polygon class="cls-73" points="41.21 40.49 42.89 40.49 42.9 39.63 41.22 39.63 41.21 40.49"/>
            </g>
            <g>
              <polygon class="cls-73" points="44.97 42.04 46.65 42.05 46.66 41.19 44.98 41.19 44.97 42.04"/>
              <polygon class="cls-73" points="43.08 42.04 44.76 42.04 44.77 41.18 43.09 41.18 43.08 42.04"/>
              <polygon class="cls-73" points="41.19 42.03 42.87 42.04 42.88 41.18 41.2 41.18 41.19 42.03"/>
            </g>
            <g>
              <polygon class="cls-73" points="44.94 43.58 46.63 43.59 46.64 42.73 44.96 42.73 44.94 43.58"/>
              <polygon class="cls-73" points="43.06 43.57 44.74 43.58 44.75 42.73 43.07 42.72 43.06 43.57"/>
              <polygon class="cls-73" points="41.18 43.57 42.86 43.57 42.87 42.72 41.19 42.72 41.18 43.57"/>
            </g>
            <g>
              <polygon class="cls-73" points="44.92 45.11 46.6 45.12 46.61 44.27 44.94 44.26 44.92 45.11"/>
              <polygon class="cls-73" points="43.04 45.11 44.72 45.11 44.73 44.26 43.05 44.26 43.04 45.11"/>
              <polygon class="cls-73" points="41.16 45.1 42.84 45.11 42.85 44.26 41.17 44.25 41.16 45.1"/>
            </g>
          </g>
        </g>
        <g>
          <path class="cls-73" d="m36.75,35.48c0-.08.08-.14.19-.14h6.13c.1,0,.21.06.21.14v10.78c0,.06-.04.11-.1.15-.05.04-.13.06-.21.06h-6.19c-.08-.01-.15-.04-.21-.08-.05-.04-.08-.1-.08-.16l.27-10.76Z"/>
          <g class="cls-76">
            <polygon class="cls-63" points="40.27 36.11 42.27 36.1 42.27 35.91 40.27 35.92 40.27 36.11"/>
            <rect class="cls-63" x="40.26" y="36.61" width="2.01" height=".19" transform="translate(-.13 .14) rotate(-.2)"/>
            <rect class="cls-63" x="40.26" y="37.31" width="2.02" height=".19" transform="translate(-.16 .18) rotate(-.24)"/>
            <rect class="cls-63" x="40.25" y="38.01" width="2.03" height=".19" transform="translate(-.19 .21) rotate(-.29)"/>
            <polygon class="cls-63" points="40.24 38.93 42.28 38.92 42.28 38.72 40.25 38.73 40.24 38.93"/>
            <polygon class="cls-63" points="40.23 40.37 42.29 40.36 42.29 40.16 40.23 40.17 40.23 40.37"/>
            <polygon class="cls-63" points="40.22 42.59 42.3 42.56 42.29 42.36 40.22 42.38 40.22 42.59"/>
            <polygon class="cls-63" points="40.24 39.65 42.28 39.63 42.28 39.44 40.24 39.45 40.24 39.65"/>
            <polygon class="cls-63" points="40.23 41.1 42.29 41.09 42.29 40.89 40.23 40.9 40.23 41.1"/>
            <polygon class="cls-63" points="40.22 41.84 42.29 41.82 42.29 41.62 40.22 41.64 40.22 41.84"/>
            <polygon class="cls-63" points="40.21 43.34 42.3 43.31 42.3 43.11 40.21 43.13 40.21 43.34"/>
            <polygon class="cls-63" points="40.2 44.09 42.3 44.07 42.3 43.86 40.2 43.89 40.2 44.09"/>
            <polygon class="cls-63" points="40.2 44.86 42.3 44.83 42.3 44.62 40.2 44.65 40.2 44.86"/>
            <polygon class="cls-63" points="40.19 45.63 42.31 45.6 42.31 45.39 40.19 45.42 40.19 45.63"/>
            <polygon class="cls-63" points="37.64 36.11 39.66 36.11 39.66 35.92 37.64 35.92 37.64 36.11"/>
            <polygon class="cls-63" points="37.62 36.81 39.65 36.81 39.65 36.62 37.63 36.62 37.62 36.81"/>
            <polygon class="cls-63" points="37.61 37.52 39.64 37.51 39.64 37.32 37.61 37.32 37.61 37.52"/>
            <polygon class="cls-63" points="37.59 38.23 39.63 38.22 39.63 38.02 37.59 38.03 37.59 38.23"/>
            <polygon class="cls-63" points="37.57 38.94 39.62 38.93 39.63 38.73 37.58 38.75 37.57 38.94"/>
            <polygon class="cls-63" points="37.54 40.39 39.61 40.38 39.61 40.18 37.54 40.19 37.54 40.39"/>
            <polygon class="cls-63" points="37.49 42.61 39.58 42.59 39.58 42.39 37.49 42.41 37.49 42.61"/>
            <polygon class="cls-63" points="37.56 39.67 39.61 39.65 39.62 39.45 37.56 39.47 37.56 39.67"/>
            <polygon class="cls-63" points="37.52 41.13 39.6 41.11 39.6 40.91 37.53 40.93 37.52 41.13"/>
            <polygon class="cls-63" points="37.5 41.87 39.59 41.85 39.59 41.65 37.51 41.66 37.5 41.87"/>
            <polygon class="cls-63" points="37.47 43.37 39.57 43.34 39.57 43.14 37.47 43.16 37.47 43.37"/>
            <polygon class="cls-63" points="37.45 44.13 39.56 44.1 39.57 43.89 37.46 43.92 37.45 44.13"/>
            <polygon class="cls-63" points="37.43 44.89 39.55 44.87 39.56 44.66 37.44 44.68 37.43 44.89"/>
            <polygon class="cls-63" points="37.42 45.67 39.55 45.64 39.55 45.42 37.42 45.45 37.42 45.67"/>
          </g>
        </g>
      </g>
    </g>
  </g>
</svg>