<?xml version="1.0" encoding="UTF-8"?>
<svg id="Layer_1" data-name="Layer 1" xmlns="http://www.w3.org/2000/svg" xmlns:xlink="http://www.w3.org/1999/xlink" viewBox="0 0 90 120">
  <defs>
    <style>
      .cls-1 {
        fill: url(#linear-gradient);
      }

      .cls-1, .cls-2, .cls-3, .cls-4, .cls-5, .cls-6, .cls-7, .cls-8, .cls-9, .cls-10, .cls-11, .cls-12, .cls-13, .cls-14, .cls-15, .cls-16, .cls-17, .cls-18, .cls-19, .cls-20, .cls-21, .cls-22, .cls-23, .cls-24, .cls-25, .cls-26, .cls-27, .cls-28, .cls-29, .cls-30, .cls-31, .cls-32, .cls-33, .cls-34, .cls-35 {
        stroke-width: 0px;
      }

      .cls-2 {
        fill: url(#linear-gradient-29);
      }

      .cls-3 {
        fill: url(#linear-gradient-28);
      }

      .cls-4 {
        fill: url(#linear-gradient-25);
      }

      .cls-5 {
        fill: url(#linear-gradient-11);
      }

      .cls-6 {
        fill: url(#linear-gradient-12);
      }

      .cls-7 {
        fill: url(#linear-gradient-13);
      }

      .cls-8 {
        fill: url(#linear-gradient-10);
      }

      .cls-9 {
        fill: url(#linear-gradient-17);
      }

      .cls-10 {
        fill: url(#linear-gradient-16);
      }

      .cls-11 {
        fill: url(#linear-gradient-19);
      }

      .cls-12 {
        fill: url(#linear-gradient-15);
      }

      .cls-13 {
        fill: url(#linear-gradient-23);
      }

      .cls-14 {
        fill: url(#linear-gradient-21);
      }

      .cls-15 {
        fill: url(#linear-gradient-18);
      }

      .cls-16 {
        fill: url(#linear-gradient-14);
      }

      .cls-17 {
        fill: url(#linear-gradient-22);
      }

      .cls-18 {
        fill: url(#linear-gradient-20);
      }

      .cls-19 {
        fill: url(#linear-gradient-27);
      }

      .cls-20 {
        fill: url(#linear-gradient-24);
      }

      .cls-21 {
        fill: url(#linear-gradient-26);
      }

      .cls-22 {
        fill: url(#linear-gradient-31);
      }

      .cls-22, .cls-23 {
        opacity: .47;
      }

      .cls-23 {
        fill: url(#linear-gradient-30);
      }

      .cls-36 {
        opacity: .3;
      }

      .cls-24, .cls-25 {
        opacity: .56;
      }

      .cls-24, .cls-35 {
        fill: #98b1dc;
      }

      .cls-25 {
        fill: #fff;
      }

      .cls-26 {
        fill: url(#linear-gradient-4);
      }

      .cls-27 {
        fill: url(#linear-gradient-2);
      }

      .cls-28 {
        fill: url(#linear-gradient-3);
      }

      .cls-29 {
        fill: url(#linear-gradient-8);
      }

      .cls-30 {
        fill: url(#linear-gradient-9);
      }

      .cls-31 {
        fill: url(#linear-gradient-7);
      }

      .cls-32 {
        fill: url(#linear-gradient-5);
      }

      .cls-33 {
        fill: url(#linear-gradient-6);
      }

      .cls-34 {
        fill: #c0cfeb;
      }
    </style>
    <linearGradient id="linear-gradient" x1="59" y1="62" x2="63.13" y2="62" gradientUnits="userSpaceOnUse">
      <stop offset="0" stop-color="#f37064"/>
      <stop offset="1" stop-color="#f5928f"/>
    </linearGradient>
    <linearGradient id="linear-gradient-2" x1="-2074.75" y1="11.31" x2="-2083.88" y2="26.58" gradientTransform="translate(-2018.04) rotate(-180) scale(1 -1)" gradientUnits="userSpaceOnUse">
      <stop offset="0" stop-color="#e1483d"/>
      <stop offset="1" stop-color="#e9625a"/>
    </linearGradient>
    <linearGradient id="linear-gradient-3" x1="-2074.85" y1="12.77" x2="-2081.94" y2="24.64" gradientTransform="translate(-2018.04) rotate(-180) scale(1 -1)" xlink:href="#linear-gradient"/>
    <linearGradient id="linear-gradient-4" x1="630.43" y1="-157.01" x2="630.43" y2="-129.47" gradientTransform="translate(-562.83 86.4) rotate(7.75) scale(.95 1) skewX(-.1)" xlink:href="#linear-gradient-2"/>
    <linearGradient id="linear-gradient-5" x1="-2473.14" y1="-176.93" x2="-2474.99" y2="-153.79" gradientTransform="translate(-2306.66 -166.19) rotate(-171.2) scale(.95 -1)" xlink:href="#linear-gradient"/>
    <linearGradient id="linear-gradient-6" x1="36.17" y1="53.46" x2="74.92" y2="53.46" gradientUnits="userSpaceOnUse">
      <stop offset="0" stop-color="#454097"/>
      <stop offset="1" stop-color="#36bdb3"/>
    </linearGradient>
    <linearGradient id="linear-gradient-7" x1="36.19" y1="53.15" x2="74.88" y2="53.15" xlink:href="#linear-gradient-6"/>
    <linearGradient id="linear-gradient-8" x1="66.89" y1="-13.51" x2="67.1" y2="10.52" gradientUnits="userSpaceOnUse">
      <stop offset="0" stop-color="#5560ab"/>
      <stop offset="1" stop-color="#4c57a6"/>
    </linearGradient>
    <linearGradient id="linear-gradient-9" x1="88.84" y1="21.91" x2="128.17" y2="-8.49" xlink:href="#linear-gradient-8"/>
    <linearGradient id="linear-gradient-10" x1="61.85" y1="24.73" x2="58.18" y2="41.64" gradientTransform="matrix(1,0,0,1,0,0)" xlink:href="#linear-gradient-2"/>
    <linearGradient id="linear-gradient-11" x1="61.08" y1="25.33" x2="61.16" y2="29.06" gradientTransform="matrix(1,0,0,1,0,0)" xlink:href="#linear-gradient-2"/>
    <linearGradient id="linear-gradient-12" x1="61.62" y1="37.68" x2="58.09" y2="53.96" gradientTransform="matrix(1,0,0,1,0,0)" xlink:href="#linear-gradient-2"/>
    <linearGradient id="linear-gradient-13" x1="60.88" y1="38.26" x2="60.95" y2="41.84" gradientTransform="matrix(1,0,0,1,0,0)" xlink:href="#linear-gradient-2"/>
    <linearGradient id="linear-gradient-14" x1="61.73" y1="49.03" x2="58.06" y2="65.95" gradientTransform="matrix(1,0,0,1,0,0)" xlink:href="#linear-gradient-2"/>
    <linearGradient id="linear-gradient-15" x1="60.95" y1="49.63" x2="61.03" y2="53.35" gradientTransform="matrix(1,0,0,1,0,0)" xlink:href="#linear-gradient-2"/>
    <linearGradient id="linear-gradient-16" x1="-2042.32" y1="63.72" x2="-2067.31" y2="159.95" gradientTransform="translate(-2018.04) rotate(-180) scale(1 -1)" xlink:href="#linear-gradient-6"/>
    <linearGradient id="linear-gradient-17" x1="11002.94" y1="1.94" x2="11022.27" y2="1.94" gradientTransform="translate(-10958.7 -46.28) rotate(.54)" gradientUnits="userSpaceOnUse">
      <stop offset="0" stop-color="#f9baba"/>
      <stop offset="1" stop-color="#f5928f"/>
    </linearGradient>
    <linearGradient id="linear-gradient-18" x1="-4190.82" y1="-2.53" x2="-4176.78" y2="29.41" gradientTransform="translate(-4131.97 19.51) rotate(-179.46) scale(1 -1)" xlink:href="#linear-gradient-17"/>
    <linearGradient id="linear-gradient-19" x1="11022.14" y1="-12.2" x2="11028.03" y2="-21.26" xlink:href="#linear-gradient-17"/>
    <linearGradient id="linear-gradient-20" x1="-2025.08" y1="68.21" x2="-2049.83" y2="163.51" gradientTransform="translate(-2018.04) rotate(-180) scale(1 -1)" xlink:href="#linear-gradient-8"/>
    <linearGradient id="linear-gradient-21" x1="10961.63" y1="32.21" x2="10986.11" y2="32.21" xlink:href="#linear-gradient-17"/>
    <linearGradient id="linear-gradient-22" x1="10979.41" y1="3.46" x2="10989.08" y2="3.46" xlink:href="#linear-gradient-17"/>
    <linearGradient id="linear-gradient-23" x1="2188.5" y1="5252.77" x2="2184.77" y2="5240.48" gradientTransform="translate(-5074.04 -2455.21) rotate(-41.21)" xlink:href="#linear-gradient-17"/>
    <linearGradient id="linear-gradient-24" x1="2185.35" y1="5231.07" x2="2188.55" y2="5249.32" gradientTransform="translate(-5074.04 -2455.21) rotate(-41.21)" gradientUnits="userSpaceOnUse">
      <stop offset="0" stop-color="#201b59"/>
      <stop offset="1" stop-color="#2d2d84"/>
    </linearGradient>
    <linearGradient id="linear-gradient-25" x1="2184.64" y1="5252.81" x2="2181.31" y2="5241.79" gradientTransform="translate(-5074.04 -2455.21) rotate(-41.21)" xlink:href="#linear-gradient-17"/>
    <linearGradient id="linear-gradient-26" x1="10705.76" y1="73.13" x2="10720.51" y2="134.56" gradientTransform="translate(-10673.36)" xlink:href="#linear-gradient-24"/>
    <linearGradient id="linear-gradient-27" x1="10696.77" y1="89.33" x2="10704.42" y2="89.33" gradientTransform="translate(-10673.36)" xlink:href="#linear-gradient-17"/>
    <linearGradient id="linear-gradient-28" x1="59.03" y1="82.66" x2="82.81" y2="82.66" xlink:href="#linear-gradient-6"/>
    <linearGradient id="linear-gradient-29" x1="63.56" y1="96.85" x2="83.56" y2="96.85" xlink:href="#linear-gradient-6"/>
    <linearGradient id="linear-gradient-30" x1="60.43" y1="84.78" x2="79.08" y2="84.78" xlink:href="#linear-gradient-6"/>
    <linearGradient id="linear-gradient-31" x1="63.97" y1="96.93" x2="82.26" y2="96.93" xlink:href="#linear-gradient-6"/>
  </defs>
  <g>
    <g>
      <g class="cls-36">
        <path class="cls-35" d="m23.25,22.34c-.12.14-.32.15-.46.03-.26-.23-.54-.45-.82-.66-.14-.1-.18-.3-.07-.45,0,0,0,0,0,0,.11-.14.31-.18.45-.07.3.22.59.45.86.69.13.11.15.3.05.43,0,0-.01.02-.02.03Zm-2.72-1.54c-.31-.17-.63-.32-.94-.46-.16-.07-.24-.26-.17-.43.07-.16.26-.24.43-.17.34.15.67.31.99.48.16.09.22.28.13.44,0,.01-.01.02-.02.03-.09.13-.27.18-.42.1Zm-2.55-1.03c-.34-.09-.68-.17-1.02-.24-.18-.03-.29-.2-.26-.38.03-.18.2-.29.38-.26.36.07.72.15,1.08.25.17.05.27.23.23.4-.01.04-.03.07-.05.1-.08.11-.22.16-.35.13Zm-2.72-.43c-.35-.02-.7-.02-1.05,0-.18,0-.33-.13-.34-.31,0-.18.13-.33.31-.34.37-.01.74-.01,1.11,0,.18,0,.32.16.31.34,0,.06-.02.12-.06.17-.06.09-.17.14-.28.14Zm-2.75.18c-.34.06-.69.14-1.03.23-.17.05-.35-.06-.4-.23-.05-.17.06-.35.23-.4.36-.1.72-.18,1.08-.24.18-.03.34.09.38.26.02.09,0,.18-.05.24-.05.07-.12.12-.21.13Zm-2.64.79c-.32.14-.64.29-.95.45-.16.08-.35.02-.44-.13-.08-.16-.02-.35.13-.44.32-.17.66-.33,1-.48.16-.07.36,0,.43.17.05.11.03.22-.03.31-.03.05-.08.09-.14.11Zm-7.65,9.3c-.18-.03-.29-.2-.26-.38.07-.36.15-.72.25-1.08.05-.17.23-.27.4-.23.17.05.27.23.23.4-.09.34-.17.68-.24,1.02,0,.05-.03.09-.05.13-.07.1-.2.16-.33.13Zm5.26-7.95c-.28.2-.56.42-.82.65-.14.12-.34.1-.46-.03-.12-.14-.1-.34.03-.46.28-.24.57-.47.87-.69.15-.1.35-.07.45.07.08.12.08.27,0,.38-.02.03-.05.05-.08.08Zm-4.49,5.23c-.16-.07-.24-.26-.17-.43.15-.34.31-.67.49-.99.08-.16.28-.22.44-.13.16.09.22.28.13.44-.17.31-.32.62-.46.94,0,.02-.02.04-.03.06-.09.12-.25.17-.4.11Zm2.46-3.37c-.23.26-.45.54-.66.82-.11.14-.31.18-.45.07-.14-.1-.17-.3-.07-.45,0,0,0,0,0,0,.22-.3.45-.59.69-.86.12-.13.32-.15.46-.03.13.11.15.3.05.43,0,0-.01.02-.02.03Z"/>
        <path class="cls-35" d="m2.33,31.75c.04-.05.06-.12.06-.18,0-.17,0-.34.01-.51,0-.18-.13-.33-.31-.34-.18,0-.33.13-.34.31,0,.18-.01.36-.01.53,0,.18.14.33.32.33.11,0,.21-.05.27-.14Z"/>
      </g>
      <g class="cls-36">
        <path class="cls-35" d="m6.15,40.88c.09-.13.08-.31-.04-.42-.12-.12-.24-.24-.35-.36-.12-.13-.33-.14-.46-.01-.13.12-.14.33-.01.46.12.13.25.26.37.38.13.12.33.12.46,0,.01-.01.02-.03.03-.04Z"/>
        <path class="cls-35" d="m24.91,39.61c-.11.14-.31.17-.46.06-.14-.11-.17-.31-.06-.46.21-.27.41-.55.6-.84.1-.15.3-.19.45-.09.15.1.19.3.09.45-.08.13-.17.25-.25.37-.12.17-.25.35-.38.51Zm1.06-2.27c-.16-.08-.23-.27-.15-.43.15-.31.28-.63.4-.95.06-.17.25-.25.42-.19.17.06.25.25.19.42-.13.34-.27.68-.43,1,0,.02-.02.03-.03.05-.09.13-.26.17-.4.11Zm-2.24,3.59c-.26.25-.53.5-.81.73-.14.11-.34.09-.46-.04-.11-.14-.09-.34.04-.46.27-.22.52-.45.77-.69.13-.12.33-.12.46,0,.11.11.12.29.03.41-.01.02-.02.03-.04.05Zm3.22-6.19c-.17-.04-.28-.21-.25-.39.08-.33.14-.68.18-1.02.02-.18.19-.3.37-.28.18.02.3.19.28.37-.05.36-.11.72-.19,1.07,0,.04-.03.08-.05.12-.07.1-.2.16-.34.13Zm-5.47,7.94c-.31.19-.63.37-.95.53-.16.08-.35.02-.44-.14-.08-.16-.02-.36.14-.44.31-.15.61-.32.9-.5.15-.09.35-.05.45.11.07.11.06.25-.01.36-.02.04-.06.07-.1.09Zm-2.58,1.21c-.34.12-.69.22-1.04.31-.17.04-.35-.06-.39-.24-.04-.17.06-.35.24-.39.33-.08.67-.18.99-.29.17-.06.35.03.41.2.03.1.02.21-.04.29-.04.05-.09.1-.16.12Zm-2.78.62c-.36.04-.72.07-1.09.07-.18,0-.33-.14-.33-.32,0-.18.14-.33.32-.33.34,0,.69-.03,1.03-.07.18-.02.34.11.36.29,0,.08-.01.16-.06.22-.05.07-.13.13-.23.14Zm-2.85,0c-.36-.04-.72-.1-1.08-.17-.18-.03-.29-.21-.26-.38.03-.18.21-.29.38-.26.34.07.68.12,1.02.16.18.02.31.18.29.36,0,.06-.03.11-.06.15-.07.09-.18.15-.3.14Zm-2.78-.63c-.34-.12-.68-.25-1.01-.4-.16-.07-.24-.26-.17-.43.07-.16.26-.24.43-.17.31.14.64.27.96.38.17.06.26.24.2.41-.01.03-.02.06-.04.08-.08.12-.23.17-.37.12Zm-2.58-1.22c-.23-.14-.45-.29-.67-.44-.08-.06-.16-.11-.23-.17-.14-.11-.18-.31-.07-.45.11-.14.31-.18.45-.07.07.05.15.11.22.16.21.15.42.29.64.42.15.09.2.29.11.45,0,0,0,.01-.01.02-.1.14-.29.18-.44.09Z"/>
        <path class="cls-35" d="m27.6,31.83c.04-.05.06-.12.06-.19,0-.18,0-.35-.01-.53,0-.18-.16-.32-.34-.31-.18,0-.32.16-.31.34,0,.17.01.34.01.51,0,.18.15.32.32.32.11,0,.21-.05.27-.14Z"/>
      </g>
      <g>
        <path class="cls-35" d="m23.67,27.9c-.02-.06-.07-.11-.14-.11l-1.84-.11c-.42-.75-.96-1.45-1.61-2.05l.33-1.81c.01-.06-.02-.13-.07-.16l-1.93-1.08c-.06-.03-.13-.02-.17.02l-1.38,1.23c-.85-.25-1.72-.35-2.59-.31l-1.05-1.52c-.04-.05-.1-.08-.17-.06l-2.13.6c-.06.02-.11.07-.11.14l-.11,1.84c-.75.42-1.45.96-2.05,1.61l-1.81-.33c-.06-.01-.13.02-.16.07l-1.08,1.93c-.03.06-.02.13.02.17l1.23,1.38c-.25.85-.35,1.72-.31,2.59l-1.52,1.05c-.05.04-.08.1-.06.17l.6,2.13c.02.06.07.11.14.11l1.84.11c.42.75.96,1.45,1.61,2.05l-.33,1.81c-.01.06.02.13.07.16l1.93,1.08c.06.03.13.02.17-.02l1.38-1.23c.85.25,1.72.35,2.59.31l1.05,1.52c.04.05.1.08.17.06l2.13-.6c.06-.02.11-.07.11-.14l.11-1.84c.75-.42,1.45-.96,2.05-1.61l1.81.33c.06.01.13-.02.16-.07l1.08-1.93c.03-.06.02-.13-.02-.17l-1.23-1.38c.25-.85.35-1.72.31-2.59l1.52-1.05c.05-.04.08-.1.06-.17l-.6-2.13Z"/>
        <path class="cls-34" d="m16.23,33.12c-.84.89-2.25.93-3.14.08-.43-.41-.68-.96-.69-1.56-.02-.59.2-1.16.61-1.59.84-.89,2.25-.93,3.14-.08.81.77.91,2,.29,2.89-.06.09-.13.17-.21.25Zm-3.32-1.49c.01.46.2.88.53,1.19.68.65,1.76.62,2.41-.06.65-.68.62-1.76-.06-2.41-.68-.65-1.76-.62-2.41.06-.06.06-.11.13-.16.2-.21.3-.32.65-.31,1.02Z"/>
        <path class="cls-34" d="m19.04,34.75c.11-.15.21-.31.3-.48h0c.03-.05.06-.1.08-.16.14-.26.25-.53.34-.81,0,0,0,0,0-.01,0-.01,0-.02.01-.03,0-.02.01-.04.02-.06.02-.06,0-.11-.05-.14-.01,0-.02-.01-.04-.02-.07-.02-.14.02-.16.09-.11.35-.26.7-.44,1.02-.9,1.61-2.54,2.55-4.26,2.65-.96.05-1.94-.16-2.83-.66-.16-.09-.31-.18-.45-.29-.98-.69-1.68-1.68-2.01-2.85-.38-1.34-.21-2.75.47-3.96,1.41-2.51,4.59-3.4,7.09-1.99.15.09.3.18.45.28.62.44,1.14,1.01,1.52,1.67,0,.02.02.03.04.04.04.03.09.03.14,0,.06-.04.08-.11.05-.18-.4-.7-.94-1.29-1.6-1.75-.15-.11-.31-.21-.47-.3-2.63-1.48-5.97-.54-7.45,2.09-.72,1.27-.89,2.75-.5,4.16.34,1.22,1.09,2.27,2.11,2.99.15.11.31.21.48.3,1.27.72,2.75.89,4.16.5,1.22-.34,2.27-1.09,2.99-2.11Z"/>
      </g>
    </g>
    <g>
      <g class="cls-36">
        <path class="cls-35" d="m36.63,18.17c.05-.07.05-.17,0-.24-.11-.13-.22-.26-.33-.39-.07-.08-.2-.09-.28-.01-.08.07-.09.2-.01.28.11.12.21.25.32.37.07.09.19.1.28.03.02-.01.03-.03.04-.04Z"/>
        <path class="cls-35" d="m35.55,17.08c-.07.08-.2.09-.28.02-.21-.18-.43-.36-.66-.52-.05-.03-.1-.07-.15-.1-.09-.06-.12-.19-.05-.28.06-.08.19-.12.28-.05.05.03.1.07.15.11.24.17.47.35.69.54.08.07.09.18.03.27,0,0,0,.01-.01.02Zm-1.97-1.11c-.3-.15-.62-.29-.93-.4-.1-.04-.16-.15-.12-.26.04-.1.15-.16.26-.12.33.12.66.26.98.42.1.05.14.17.09.27,0,0,0,.02-.01.02-.06.08-.16.11-.25.06Zm-1.91-.69c-.33-.07-.67-.13-1-.16-.11-.01-.19-.11-.18-.22.01-.11.11-.19.22-.18.35.03.71.09,1.05.17.11.02.18.13.15.24,0,.03-.02.05-.03.07-.05.06-.13.1-.21.08Zm-2.02-.2c-.34,0-.68.04-1.01.09-.11.02-.21-.06-.23-.17-.02-.11.06-.21.17-.23.35-.05.71-.08,1.06-.09.11,0,.2.08.21.2,0,.04-.01.09-.04.12-.04.05-.09.08-.16.09Zm-2.01.3c-.33.09-.65.2-.96.33-.1.04-.22,0-.26-.11s0-.22.11-.26c.33-.14.67-.25,1.01-.35.11-.03.22.03.25.14.02.06,0,.12-.03.17-.03.04-.06.06-.11.08Zm-1.87.78c-.29.17-.58.35-.85.56-.09.07-.21.05-.28-.04-.07-.09-.05-.21.04-.28.28-.21.58-.41.89-.58.1-.05.22-.02.27.08.04.07.03.15-.01.21-.02.02-.04.04-.06.06Zm-1.63,1.21c-.24.23-.47.49-.69.75-.07.09-.2.1-.28.03-.09-.07-.1-.19-.03-.28.22-.28.47-.54.72-.78.08-.08.21-.07.28,0,.07.07.07.18.02.25,0,.01-.02.02-.03.03Zm-2.03,2.57c-.1-.05-.14-.17-.1-.27.13-.28.28-.55.44-.82.02-.04.05-.08.07-.12.06-.09.18-.12.28-.06.09.06.12.18.06.28-.02.04-.05.07-.07.11-.15.25-.29.52-.42.78,0,.01-.01.02-.02.03-.05.08-.16.11-.25.07Z"/>
      </g>
      <g class="cls-36">
        <path class="cls-35" d="m36.87,28.4c-.2.28-.43.56-.66.81-.08.08-.2.09-.28.01-.08-.08-.08-.2-.01-.28.23-.24.44-.5.63-.77.06-.09.19-.11.28-.05.09.06.11.19.05.28,0,0,0,0,0,0Zm.29-.81c-.1-.05-.13-.18-.08-.27.16-.29.31-.6.43-.9.04-.1.16-.15.26-.11.1.04.15.16.11.26-.13.32-.28.64-.45.95,0,0,0,.01-.01.02-.06.08-.17.11-.26.06Zm-1.71,2.34c-.27.23-.55.44-.84.63-.09.06-.22.03-.28-.06-.06-.09-.03-.22.06-.28.28-.18.55-.38.8-.6.08-.07.21-.06.28.02.06.07.06.17.01.24,0,.01-.02.03-.03.04Zm2.53-4.22c-.11-.03-.17-.14-.14-.25.09-.32.15-.65.2-.98.02-.11.12-.19.23-.17.11.02.19.12.17.23-.05.35-.12.69-.21,1.03,0,.02-.02.04-.03.06-.05.07-.13.1-.22.08Zm-4.28,5.37c-.31.15-.64.29-.97.41-.1.04-.22-.02-.26-.12-.04-.1.02-.22.12-.26.31-.11.62-.24.92-.39.1-.05.22,0,.27.09.03.07.02.15-.02.2-.02.03-.04.05-.08.06Zm-1.98.69c-.34.07-.69.13-1.04.16-.11.01-.21-.07-.22-.18-.01-.11.07-.21.18-.22.33-.03.66-.08.99-.16.11-.02.21.04.24.15.01.06,0,.11-.03.16-.03.04-.07.07-.12.08Zm-2.08.2c-.35,0-.7-.04-1.05-.09-.11-.02-.19-.12-.17-.23.02-.11.12-.18.23-.17.33.05.66.08,1,.09.11,0,.2.09.2.21,0,.04-.01.08-.04.11-.04.05-.1.09-.17.09Z"/>
        <path class="cls-35" d="m38.47,23.6s.04-.07.04-.11c0-.17,0-.34,0-.51,0-.11-.1-.2-.21-.19-.11,0-.2.1-.19.21,0,.16,0,.32,0,.49,0,.11.09.2.2.2.07,0,.13-.03.17-.09Z"/>
      </g>
      <g>
        <path class="cls-35" d="m35.86,20.82s-.05-.07-.09-.07l-1.23-.07c-.28-.5-.64-.97-1.08-1.37l.22-1.21s-.01-.09-.05-.11l-1.29-.72s-.08-.02-.12.01l-.92.82c-.57-.16-1.15-.23-1.73-.21l-.7-1.01s-.07-.05-.11-.04l-1.43.4s-.07.05-.07.09l-.07,1.23c-.5.28-.97.64-1.37,1.08l-1.21-.22s-.09.01-.11.05l-.72,1.29s-.02.08.01.12l.82.92c-.16.57-.23,1.15-.21,1.73l-1.01.7s-.05.07-.04.11l.4,1.43s.05.07.09.07l1.23.07c.28.5.64.97,1.08,1.37l-.22,1.21s.01.09.05.11l1.29.72s.08.02.12-.01l.92-.82c.57.16,1.15.23,1.73.21l.7,1.01s.07.05.11.04l1.43-.4s.07-.05.07-.09l.07-1.23c.5-.28.97-.64,1.37-1.08l1.21.22s.09-.01.11-.05l.72-1.29s.02-.08-.01-.12l-.82-.92c.16-.57.23-1.15.21-1.73l1.01-.7s.05-.07.04-.11l-.4-1.43Z"/>
        <path class="cls-34" d="m30.9,24.34c-.28.29-.65.46-1.06.47-.4.01-.79-.14-1.08-.42-.61-.57-.63-1.53-.06-2.14.58-.61,1.54-.63,2.14-.06.29.28.46.65.47,1.06,0,.33-.09.64-.27.91-.04.06-.09.12-.14.17Zm-1.87-.23c.22.2.5.31.8.31.3,0,.57-.13.78-.35h0c.2-.22.31-.5.31-.8,0-.3-.13-.57-.35-.78-.45-.42-1.15-.4-1.58.04-.04.04-.07.08-.1.13-.31.44-.26,1.06.15,1.45Z"/>
        <path class="cls-34" d="m32.85,25.47c.07-.1.14-.21.2-.32.13-.22.23-.46.31-.71v-.03c.04-.09,0-.17-.07-.22-.02-.01-.04-.02-.06-.03-.11-.03-.22.03-.25.13-.07.23-.17.45-.28.66h0s-.01.02-.02.03c-.28.49-.68.9-1.15,1.19-.26.16-.53.28-.83.37,0,0,0,0,0,0,0,0-.01,0-.02,0-.87.24-1.78.13-2.56-.31-.1-.06-.2-.12-.29-.18-.63-.45-1.09-1.09-1.3-1.84-.24-.87-.13-1.78.31-2.56.44-.78,1.16-1.35,2.03-1.6.87-.24,1.78-.13,2.56.31.1.06.2.12.29.18.4.28.74.65.99,1.08.02.03.04.05.06.06.06.04.14.05.21.01.1-.06.13-.18.07-.27-.27-.48-.65-.89-1.1-1.21-.1-.07-.21-.14-.32-.2-.88-.49-1.9-.62-2.87-.34-.97.27-1.78.91-2.27,1.79-.49.88-.62,1.9-.34,2.87.24.84.75,1.57,1.46,2.06.11.07.21.14.33.21,1.7.96,3.83.45,4.93-1.12Z"/>
      </g>
    </g>
  </g>
  <g>
    <path class="cls-1" d="m63.13,21.35v79.65c0,.53-.21,1-.58,1.29-.28.22-.62.36-1,.35l-.87-.03c-.88-.03-1.68-.84-1.68-1.76V21.49l4.13-.13Z"/>
    <g>
      <path class="cls-27" d="m64.79,18.5c0,1.34-.68,2.55-1.71,3.26-.58.4-1.27.64-2,.66-.37.01-.72-.03-1.05-.12-.25-.07-.49-.16-.72-.28-.06-.03-.11-.06-.17-.1-1.05-.63-1.75-1.8-1.75-3.17,0-2.09,1.65-3.84,3.69-3.92,2.05-.08,3.71,1.57,3.71,3.67Z"/>
      <path class="cls-28" d="m63.08,18.36c0,1.05-.53,1.98-1.33,2.53-.45.31-.99.5-1.56.51-.28,0-.56-.03-.82-.1-.2-.05-.38-.13-.56-.22-.04-.02-.09-.05-.13-.08-.82-.49-1.36-1.4-1.36-2.46,0-1.62,1.28-2.99,2.87-3.05,1.59-.06,2.89,1.22,2.89,2.85Z"/>
    </g>
    <g>
      <path class="cls-26" d="m33.28,24.2l.32.16,6.01-3.68,29.42,4.35,4.11.47-.24.77c-.03.08-4.71,3.49-4.71,3.49l3.64,4.78-.18.49c-.02.06-.08.09-.14.08l-3.78-.59-29.44-4.56c-.08-.01-.16-.05-.22-.11l-4.73-4.96c-.06-.06-.09-.15-.09-.25l.03-.46Z"/>
      <path class="cls-32" d="m39.93,20.36l33.2,5.14s.04.05.01.07l-4.68,3.42c-.06.05-.08.14-.04.2l3.35,5.29s0,.06-.03.06l-33.22-5.15c-.09-.01-.18-.06-.25-.13l-4.95-5.01s-.02-.06,0-.07l6.31-3.75c.09-.05.2-.08.3-.06Z"/>
    </g>
    <g>
      <path class="cls-33" d="m36.17,55.25l.34.08,4.83-4.87,28.77-2.64,3.84-.48c.08,0,.15.05.14.13l-.03.63c-.01.09-3.66,4.39-3.66,4.39l4.54,3.69-.05.51c0,.06-.05.11-.11.11l-3.71.31-28.83,2.44c-.08,0-.16-.01-.23-.06l-5.6-3.61c-.07-.05-.12-.12-.14-.21l-.08-.44Z"/>
      <path class="cls-31" d="m41.57,50.08l32.42-2.74c.07,0,.11.07.06.12l-3.57,4.24c-.05.06-.04.15.01.2l4.37,4.24s0,.06-.02.06l-32.54,2.75c-.09,0-.19-.01-.27-.06l-5.82-3.61s-.03-.05,0-.07l5.09-5c.07-.07.17-.12.27-.12Z"/>
      <g>
        <rect class="cls-24" x="42.56" y="51.76" width="18.37" height="1.08" rx=".12" ry=".12" transform="translate(-3.92 4.19) rotate(-4.47)"/>
        <path class="cls-24" d="m60.84,54.98l-17.93,1.4c-.07,0-.13-.05-.13-.11l-.06-.78c0-.07.05-.13.11-.13l17.93-1.4c.07,0,.13.05.13.11l.06.78c0,.07-.05.13-.11.13Z"/>
      </g>
    </g>
    <g>
      <path class="cls-29" d="m88.51,39l-.35.14-6.06-3.92-31.52,2.42-4.39.25.18.69c.03.08,4.71,3.68,4.71,3.68l-4.26,4.4.14.49c.02.06.07.1.14.09l4.06-.34,31.55-2.62c.09,0,.17-.04.24-.1l5.42-4.5c.07-.06.11-.14.12-.23v-.44Z"/>
      <path class="cls-30" d="m81.78,34.88l-35.52,2.95c-.06,0-.08.08-.03.11l4.61,3.54c.06.05.07.14.02.2l-3.98,4.9s0,.06.03.06l35.61-2.96c.1,0,.2-.05.28-.11l5.66-4.54s.02-.06,0-.07l-6.37-4.01c-.09-.06-.2-.08-.31-.08Z"/>
      <g>
        <rect class="cls-25" x="63.44" y="37.92" width="17.95" height="1.11" rx=".12" ry=".12" transform="translate(-2.78 5.76) rotate(-4.47)"/>
        <rect class="cls-25" x="63.61" y="40.91" width="17.81" height="1.05" rx=".12" ry=".12" transform="translate(-3.01 5.78) rotate(-4.47)"/>
      </g>
    </g>
    <g>
      <circle class="cls-8" cx="61.05" cy="28.42" r="1.26"/>
      <circle class="cls-5" cx="61.14" cy="28.22" r=".77"/>
    </g>
    <g>
      <circle class="cls-6" cx="60.85" cy="41.23" r="1.21"/>
      <circle class="cls-7" cx="60.94" cy="41.04" r=".75"/>
    </g>
    <g>
      <circle class="cls-16" cx="60.93" cy="52.72" r="1.26"/>
      <circle class="cls-12" cx="61.01" cy="52.52" r=".77"/>
    </g>
    <g>
      <rect class="cls-25" x="40.98" y="24.13" width="16.6" height="1.03" rx=".12" ry=".12" transform="translate(4.44 -7.38) rotate(8.97)"/>
      <rect class="cls-25" x="40.5" y="26.84" width="16.47" height=".97" rx=".12" ry=".12" transform="translate(4.86 -7.26) rotate(8.97)"/>
    </g>
  </g>
  <g>
    <g>
      <path class="cls-10" d="m34.98,64.81c-10-.29-21.06,2.67-21.06,2.67-2.63,15.98-1.47,34.05-1.03,39.53.08,1.03.78,1.86,1.7,2.04,5.17,1.04,10.62.41,13.36-.05,1.07-.18,1.92-1.06,2.15-2.22,1.81-9.27,6.99-29.73,6.99-29.73,4.89-.62,8.93-2.12,12.26-4.14-2.5-3.25-3.66-7.36-4.15-9.79-3.55,1.17-7.13,1.78-10.21,1.69Z"/>
      <path class="cls-9" d="m63.66,48.93c-.97-1.32-1.88-1.26-1.88-1.26-1.53,6.82-9.63,12.83-17.58,15.46.5,2.43,1.65,6.54,4.15,9.79,13.23-8,15.31-23.99,15.31-23.99Z"/>
    </g>
    <g>
      <path class="cls-15" d="m63.42,49.25c.1.36-1.1.9-1.78-.58-.02-.7-.38-3.73,0-4.3,2.07-3.03,6.05-6.82,6.05-6.82.66.73.11,1.44.11,1.44l-1.94,2.18c.39.8.88,1.48,1.1,2.45.17.73.05,1.51-.29,2.17-.34.66-.81,1.53-1.25,2.2-.83,1.28-2,1.27-2,1.27Z"/>
      <path class="cls-11" d="m65.01,42.58l-1.76,1.61-.56,1.62,1.54,1.92s.55-3.21.95-3.9c.4-.69.2-1.03-.16-1.24Z"/>
    </g>
    <path class="cls-18" d="m17.66,78.17l-3.74-10.69s-9.4,6.88-11.01,15.71c1.76.16,4.97.7,8.1,2.48.73-4.17,6.66-7.5,6.66-7.5Z"/>
    <path class="cls-14" d="m25.74,88.28s-10.54,6.41-14.03.81c-.72-1.16-.89-2.31-.7-3.41-3.13-1.78-6.34-2.32-8.1-2.48-.49,2.66-.27,5.5,1.13,8.39,6.09,12.53,23.06-.45,23.06-.45l-1.36-2.86Z"/>
    <path class="cls-17" d="m23.92,55.78l-3.27,10.09c-.05.17,0,.35.15.44.86.54,3.97,2.09,7.76-.49.39-.27.67-.71.73-1.22l1.11-8.75-6.48-.07Z"/>
    <g>
      <path class="cls-13" d="m30.93,46.48s3.43,7.27,2.96,10.19c-.47,2.92-4.8,2.66-8.56.25l-2.57-7.84,8.18-2.6Z"/>
      <path class="cls-20" d="m25.52,53.08c.15-.07.21-.28.12-.44-.28-.47-.79-1.44-.95-2.28,0,0-.62-.45,1.61-1.01,2.23-.56,5.56-1.44,6.28-3.51.7-2.03-1.05-7.15-3.93-3.11-.11.15-.32.16-.43,0-.46-.67-1.68-2.08-3.39-1.25-1.6.77-1.8,2.06-1.78,2.71,0,.19-.15.34-.32.3-.81-.18-2.74-.34-3.67,1.83-.76,1.79-.29,2.82.15,3.32.14.16.08.43-.12.49-.53.17-1.22.66-1.17,2.03.08,1.89,2,1.75,2.55,1.66.09-.01.18.02.24.1.46.58,2.56,3.02,4.84,3.34.2.03.35-.19.29-.39l-.96-3.18c-.04-.15.02-.31.15-.37l.49-.23Z"/>
      <path class="cls-4" d="m25.92,53.54s-2.47-1.9-2.67-.32c-.2,1.58,2.22,2.31,3.43,1.74l-.76-1.41Z"/>
    </g>
    <g>
      <g>
        <path class="cls-21" d="m22.58,98.4l5.74-22.06c.07-.25.26-.43.49-.46,1.04-.13,4.06-.51,7.54-.83,4.19-.39,9.06-.71,11.97-.44.41.04.66.52.48.93-1.65,3.68-8.46,18.66-11.87,23.57-.11.16-.29.26-.47.26l-13.33-.14c-.39,0-.67-.41-.56-.82Z"/>
        <path class="cls-19" d="m23.97,93.07s-.8-3.62-.48-4.9c.32-1.28.95-2.93,3.03-2.57,2.08.37,4.54,1.33,4.54,1.33,0,0-.12,1.67-1.71,1.13l.98.84s-.14,1.34-1.48.62l.91,1.11s-.57,1.1-1.56.39c-.98-.71-1.46,2.48-4.25,2.04Z"/>
      </g>
      <path class="cls-35" d="m35.97,81.63c0,1.02.75,1.85,1.69,1.85s1.69-.83,1.69-1.85-.75-1.85-1.69-1.85-1.69.83-1.69,1.85Z"/>
      <path class="cls-34" d="m28.97,82.86l1.17-4.36c.14-.54.54-.94,1.02-1.05,3.67-.84,13.7-1.02,13.8-1.02v-.49c-.42,0-10.18.18-13.89,1.03-.65.15-1.17.68-1.36,1.39l-1.17,4.36.43.14Z"/>
    </g>
  </g>
  <g>
    <path class="cls-3" d="m62.69,102.53c-.12-.02-.22-.09-.29-.18-1-1.44-8.22-12.66,2.18-22.37,9.87-9.22,14.27-11.04,15.02-16.62.09-.65.98-.78,1.25-.18,2.03,4.47,5.09,14.86-6.33,21.25-12.6,7.05-11.85,15.24-11.32,17.58.07.31-.2.59-.51.54h0Z"/>
    <path class="cls-2" d="m64.22,102.78c-.28-.05-.5-.27-.53-.55-.23-1.92-.73-9.08,4.59-10.8,5.85-1.9,10.35,3.64,14.74-.44.23-.21.6,0,.54.3-.45,2.19-2.3,7.24-9.83,8.03-8.07.84-9,1.73-8.87,2.88.04.35-.28.64-.63.59h0Z"/>
    <path class="cls-23" d="m79.08,69.03c-.12.4-.27.78-.45,1.15-.17.37-.37.74-.58,1.09-.21.36-.43.7-.67,1.04-.24.34-.49.67-.75.98-1.05,1.27-2.3,2.38-3.66,3.31-.68.47-1.4.89-2.12,1.27-.71.38-1.39.81-2.05,1.28-1.31.94-2.52,2.03-3.57,3.24-1.06,1.22-1.97,2.56-2.69,4.01-.72,1.44-1.24,2.98-1.53,4.57-.28,1.59-.32,3.22-.14,4.83.18,1.61.6,3.19,1.17,4.71.02.04,0,.09-.05.11-.04.02-.09,0-.11-.05-.63-1.51-1.09-3.1-1.31-4.73-.11-.81-.17-1.64-.16-2.46.01-.82.08-1.65.22-2.46.27-1.63.78-3.22,1.5-4.7.72-1.49,1.65-2.87,2.73-4.12,1.08-1.25,2.3-2.37,3.64-3.34.67-.48,1.37-.93,2.1-1.32l.53-.29c.18-.09.35-.2.53-.3l.26-.15.26-.16.26-.16.25-.17c.67-.45,1.31-.94,1.92-1.47.61-.53,1.19-1.09,1.72-1.7.54-.6,1.02-1.25,1.47-1.92.44-.68.84-1.39,1.13-2.14h0s.06-.06.1-.05c.04.01.06.06.05.09Z"/>
    <path class="cls-22" d="m63.97,101.48c.01-.07.01-.13.01-.2v-.2c0-.13,0-.26.01-.39,0-.26.03-.52.05-.78.04-.52.11-1.04.19-1.56.18-1.03.45-2.05.9-3.01.22-.48.5-.93.83-1.34.33-.41.73-.77,1.19-1.05.46-.28.96-.47,1.49-.56.26-.05.53-.07.79-.07.27,0,.53.01.79.04.26.03.52.08.78.12l.77.14c.51.09,1.03.19,1.54.29,1.02.2,2.04.43,3.07.61.51.09,1.03.18,1.54.23.51.05,1.03.07,1.54,0,.51-.06,1.01-.2,1.46-.44.45-.24.85-.58,1.21-.95.03-.03.07-.03.1,0,.03.03.03.07,0,.1-.36.39-.76.74-1.23.99-.47.26-.99.42-1.51.48-.53.06-1.06.04-1.58,0-.52-.05-1.04-.13-1.56-.23-1.03-.19-2.05-.41-3.07-.61-1.02-.2-2.05-.39-3.08-.55-.25-.03-.51-.05-.77-.05-.26,0-.51.02-.76.06-.5.08-.99.26-1.43.52-.44.27-.83.61-1.15,1.01-.33.4-.6.84-.82,1.31-.45.93-.73,1.94-.92,2.96-.09.51-.16,1.03-.21,1.55-.02.26-.04.52-.05.78,0,.13-.01.26-.01.39v.2c0,.06,0,.13.01.19,0,.03-.01.06-.04.07-.03,0-.06-.01-.07-.04,0,0,0-.02,0-.03Z"/>
  </g>
</svg>