<?xml version="1.0" encoding="UTF-8"?>
<svg id="Layer_1" data-name="Layer 1" xmlns="http://www.w3.org/2000/svg" xmlns:xlink="http://www.w3.org/1999/xlink" viewBox="0 0 60 60">
  <defs>
    <style>
      .cls-1 {
        fill: url(#linear-gradient);
      }

      .cls-1, .cls-2, .cls-3, .cls-4, .cls-5, .cls-6, .cls-7, .cls-8 {
        stroke-width: 0px;
      }

      .cls-2 {
        fill: url(#linear-gradient-2);
      }

      .cls-4 {
        fill: #263978;
      }

      .cls-5 {
        fill: #95b2dd;
      }

      .cls-6 {
        fill: #453f96;
      }

      .cls-7 {
        fill: #214c9d;
      }

      .cls-8 {
        fill: #fff;
      }
    </style>
    <linearGradient id="linear-gradient" x1="4.1" y1="34.23" x2="46.65" y2="34.23" gradientUnits="userSpaceOnUse">
      <stop offset="0" stop-color="#443d95"/>
      <stop offset="1" stop-color="#30bbb1"/>
    </linearGradient>
    <linearGradient id="linear-gradient-2" x1="11.92" y1="34.23" x2="38.84" y2="34.23" xlink:href="#linear-gradient"/>
  </defs>
  <g>
    <circle class="cls-6" cx="25.38" cy="34.23" r="24.87"/>
    <circle class="cls-1" cx="25.38" cy="34.23" r="21.27"/>
    <circle class="cls-8" cx="25.38" cy="34.23" r="18.15"/>
    <circle class="cls-2" cx="25.38" cy="34.23" r="13.46"/>
    <circle class="cls-5" cx="25.38" cy="34.23" r="10.61"/>
    <circle class="cls-6" cx="25.37" cy="34.24" r="7.37"/>
    <circle class="cls-8" cx="25.38" cy="34.23" r="4.82"/>
  </g>
  <g>
    <rect class="cls-3" x="25.27" y="19.98" width="26.05" height="4.69" transform="translate(-4.57 33.62) rotate(-45)"/>
    <polygon class="cls-6" points="45.83 14.81 52.63 8 59.5 8.46 51.92 16.04 45.83 14.81"/>
    <polygon class="cls-4" points="45.83 14.81 52.63 8 52.19 1.15 44.6 8.72 45.83 14.81"/>
    <polygon class="cls-7" points="25.38 35.27 32.91 32.64 28 27.73 25.38 35.27"/>
    <polygon class="cls-4" points="25.38 35.27 32.91 32.64 30.45 30.19 25.38 35.27"/>
  </g>
</svg>