<?xml version="1.0" encoding="UTF-8"?>
<svg id="Layer_1" data-name="Layer 1" xmlns="http://www.w3.org/2000/svg" viewBox="0 0 94.19 98.98">
  <defs>
    <style>
      .cls-1 {
        fill: none;
      }

      .cls-1, .cls-2 {
        stroke-width: 0px;
      }

      .cls-2 {
        fill: #fff;
      }
    </style>
  </defs>
  <path class="cls-2" d="m90.38,67.11c-.47,0-.92.1-1.34.26l-10.08-10.07c-.22-.22-.53-.35-.85-.35h-9.14v-7.94h9.14c.26,0,.51-.08.72-.24l6.71-5.03c.57.35,1.24.57,1.97.57,2.09,0,3.78-1.7,3.78-3.79s-1.7-3.79-3.78-3.79-3.79,1.7-3.79,3.79c0,.49.1.95.27,1.38l-6.28,4.71h-8.74v-7.94h3.97c.32,0,.62-.13.85-.35l10.1-10.1c.57.35,1.24.56,1.95.56,2.09,0,3.79-1.7,3.79-3.79s-1.7-3.79-3.79-3.79-3.78,1.7-3.78,3.79c0,.49.1.96.27,1.39l-9.88,9.88h-3.47v-9.14c0-.66-.54-1.2-1.2-1.2h-9.14v-3.47l9.25-9.25c.58.37,1.27.59,2.01.59,2.09,0,3.78-1.7,3.78-3.79s-1.7-3.79-3.78-3.79-3.79,1.7-3.79,3.79c0,.47.1.91.25,1.32l-9.78,9.78c-.22.22-.35.53-.35.85v3.97h-7.94v-8.65l4.82-4.82c.22-.23.35-.53.35-.85v-4.24c1.5-.5,2.59-1.91,2.59-3.57,0-2.09-1.7-3.79-3.79-3.79s-3.79,1.7-3.79,3.79c0,1.67,1.09,3.07,2.59,3.57v3.74l-4.82,4.82c-.22.22-.35.53-.35.85v9.14h-7.94v-5.12c0-.32-.13-.62-.35-.85l-9.88-9.88c.25-.51.41-1.07.41-1.68,0-2.09-1.7-3.79-3.79-3.79s-3.79,1.7-3.79,3.79,1.7,3.79,3.79,3.79c.61,0,1.17-.16,1.68-.41l9.53,9.53v4.62h-9.14c-.66,0-1.2.54-1.2,1.2v9.14h-8.65l-9.46-9.46c.3-.54.48-1.15.48-1.81,0-2.09-1.7-3.79-3.79-3.79s-3.79,1.7-3.79,3.79,1.7,3.79,3.79,3.79c.55,0,1.07-.12,1.55-.34l9.87,9.87c.22.22.53.35.85.35h9.14v7.94h-3.97c-.18,0-.35.04-.51.12l-10.45,4.95c-.56-.32-1.19-.52-1.88-.52-2.09,0-3.79,1.7-3.79,3.79s1.7,3.79,3.79,3.79,3.79-1.7,3.79-3.79c0-.49-.1-.96-.27-1.39l9.6-4.55h3.7v7.94h-3.97c-.32,0-.62.13-.85.35l-9.65,9.65c-.53-.28-1.13-.46-1.77-.46-2.09,0-3.79,1.7-3.79,3.79s1.7,3.79,3.79,3.79,3.79-1.7,3.79-3.79c0-.57-.13-1.1-.36-1.59l9.34-9.34h3.47v9.14c0,.66.54,1.2,1.2,1.2h9.06l-.17,2.67-9.7,9.7c-.4-.14-.81-.23-1.26-.23-2.09,0-3.79,1.7-3.79,3.79s1.7,3.79,3.79,3.79,3.79-1.7,3.79-3.79c0-.76-.23-1.47-.62-2.07l9.81-9.81c.21-.21.33-.48.35-.77l.21-3.28h8.02v6.92l-4.82,4.82c-.23.22-.35.53-.35.85v9.36c-1.5.5-2.59,1.91-2.59,3.57,0,2.09,1.7,3.79,3.79,3.79s3.79-1.7,3.79-3.79c0-1.67-1.09-3.07-2.59-3.57v-8.86l4.82-4.82c.22-.22.35-.53.35-.85v-7.42h7.94v3.97c0,.32.13.62.35.85l9.94,9.94c-.25.51-.41,1.07-.41,1.68,0,2.09,1.7,3.79,3.79,3.79s3.78-1.7,3.78-3.79-1.7-3.79-3.78-3.79c-.61,0-1.17.16-1.68.41l-9.58-9.58v-3.47h9.14c.66,0,1.2-.54,1.2-1.2v-9.14h8.65l9.56,9.56c-.36.58-.58,1.26-.58,1.99,0,2.09,1.7,3.79,3.78,3.79s3.79-1.7,3.79-3.79-1.7-3.79-3.79-3.79h-.02Zm-2.87-27.99c.76,0,1.39.62,1.39,1.39s-.62,1.39-1.39,1.39-1.39-.62-1.39-1.39.62-1.39,1.39-1.39Zm-1.67-15.53c.76,0,1.39.62,1.39,1.39s-.62,1.39-1.39,1.39-1.39-.62-1.39-1.39.62-1.39,1.39-1.39Zm-15.95-14.99c.76,0,1.39.62,1.39,1.39s-.62,1.39-1.39,1.39-1.39-.62-1.39-1.39.62-1.39,1.39-1.39Zm-19.02-4.82c0-.76.62-1.39,1.39-1.39s1.39.62,1.39,1.39-.62,1.39-1.39,1.39-1.39-.62-1.39-1.39Zm-27.92,4.6c0-.76.62-1.39,1.39-1.39s1.39.62,1.39,1.39-.62,1.39-1.39,1.39-1.39-.62-1.39-1.39ZM2.41,24.98c0-.76.62-1.39,1.39-1.39s1.39.62,1.39,1.39-.62,1.39-1.39,1.39-1.39-.62-1.39-1.39Zm5.98,31.33c-.76,0-1.39-.62-1.39-1.39s.62-1.39,1.39-1.39,1.39.62,1.39,1.39-.62,1.39-1.39,1.39Zm.57,15.33c-.76,0-1.39-.62-1.39-1.39s.62-1.39,1.39-1.39,1.39.62,1.39,1.39-.62,1.39-1.39,1.39Zm15.37,15.34c-.76,0-1.39-.62-1.39-1.39s.62-1.39,1.39-1.39,1.39.62,1.39,1.39-.62,1.39-1.39,1.39Zm18.97,8.21c0,.76-.62,1.39-1.39,1.39s-1.39-.62-1.39-1.39.62-1.39,1.39-1.39,1.39.62,1.39,1.39Zm27.98-9.09c0,.76-.62,1.39-1.39,1.39s-1.39-.62-1.39-1.39.62-1.39,1.39-1.39,1.39.62,1.39,1.39Zm-4.71-18.83H27.6V28.31h38.97v38.97h0Zm23.81,5c-.76,0-1.39-.62-1.39-1.39s.62-1.39,1.39-1.39,1.39.62,1.39,1.39-.62,1.39-1.39,1.39Z"/>
  <circle class="cls-2" cx="69.89" cy="86.11" r="1.39"/>
  <path class="cls-2" d="m24.33,84.21c-.76,0-1.39.62-1.39,1.39s.62,1.39,1.39,1.39,1.39-.62,1.39-1.39-.62-1.39-1.39-1.39Z"/>
  <rect class="cls-2" x="32.77" y="56.45" width="13.11" height="5.66"/>
  <rect class="cls-2" x="48.29" y="41.25" width="13.11" height="5.34"/>
  <rect class="cls-2" x="48.29" y="48.99" width="13.11" height="5.05"/>
  <rect class="cls-2" x="48.29" y="56.45" width="13.11" height="5.66"/>
  <rect class="cls-2" x="48.29" y="33.48" width="13.11" height="5.37"/>
  <rect class="cls-2" x="32.77" y="48.99" width="13.11" height="5.05"/>
  <path class="cls-2" d="m84.45,24.98c0,.76.62,1.39,1.39,1.39s1.39-.62,1.39-1.39-.62-1.39-1.39-1.39-1.39.62-1.39,1.39Z"/>
  <path class="cls-2" d="m57.43,28.31h-29.83v38.97h38.97V28.31h-9.14Zm6.37,11.75v23.25c0,.66-.54,1.2-1.2,1.2h-31.03c-.66,0-1.2-.54-1.2-1.2v-31.03c0-.66.54-1.2,1.2-1.2h31.03c.66,0,1.2.54,1.2,1.2v7.77h0Z"/>
  <path class="cls-2" d="m8.96,68.87c-.76,0-1.39.62-1.39,1.39s.62,1.39,1.39,1.39,1.39-.62,1.39-1.39-.62-1.39-1.39-1.39Z"/>
  <circle class="cls-2" cx="69.89" cy="9.99" r="1.39"/>
  <path class="cls-1" d="m52.26,5.17c.76,0,1.39-.62,1.39-1.39s-.62-1.39-1.39-1.39-1.39.62-1.39,1.39.62,1.39,1.39,1.39Z"/>
  <path class="cls-2" d="m25.72,8.38c0-.76-.62-1.39-1.39-1.39s-1.39.62-1.39,1.39.62,1.39,1.39,1.39,1.39-.62,1.39-1.39Z"/>
  <path class="cls-2" d="m8.39,53.54c-.76,0-1.39.62-1.39,1.39s.62,1.39,1.39,1.39,1.39-.62,1.39-1.39-.62-1.39-1.39-1.39Z"/>
  <rect class="cls-2" x="32.77" y="41.25" width="13.11" height="5.34"/>
  <path class="cls-2" d="m5.18,24.98c0-.76-.62-1.39-1.39-1.39s-1.39.62-1.39,1.39.62,1.39,1.39,1.39,1.39-.62,1.39-1.39Z"/>
  <rect class="cls-2" x="32.77" y="33.48" width="13.11" height="5.37"/>
  <path class="cls-2" d="m62.6,31.08h-31.03c-.66,0-1.2.54-1.2,1.2v31.03c0,.66.54,1.2,1.2,1.2h31.03c.66,0,1.2-.54,1.2-1.2v-31.03c0-.66-.54-1.2-1.2-1.2Zm-1.2,15.51h-13.11v-5.34h13.11v5.34Zm-15.51,0h-13.11v-5.34h13.11v5.34Zm-13.11,2.4h13.11v5.05h-13.11v-5.05Zm15.51,0h13.11v5.05h-13.11v-5.05Zm13.11-10.14h-13.11v-5.37h13.11v5.37Zm-28.63-5.37h13.11v5.37h-13.11v-5.37Zm0,22.97h13.11v5.66h-13.11v-5.66Zm28.63,5.66h-13.11v-5.66h13.11v5.66Z"/>
</svg>