<?xml version="1.0" encoding="UTF-8"?>
<svg id="Layer_1" data-name="Layer 1" xmlns="http://www.w3.org/2000/svg" viewBox="0 0 100 100">
  <defs>
    <style>
      .cls-1 {
        fill: none;
      }

      .cls-1, .cls-2 {
        stroke-width: 0px;
      }

      .cls-2 {
        fill: #fdfefe;
      }
    </style>
  </defs>
  <circle class="cls-1" cx="71.88" cy="86.62" r="1.39"/>
  <path class="cls-1" d="m26.32,84.72c-.76,0-1.39.62-1.39,1.39s.62,1.39,1.39,1.39,1.39-.62,1.39-1.39-.62-1.39-1.39-1.39Z"/>
  <rect class="cls-1" x="34.76" y="56.96" width="13.11" height="5.66"/>
  <rect class="cls-1" x="50.28" y="56.96" width="13.11" height="5.66"/>
  <path class="cls-1" d="m86.44,25.49c0,.76.62,1.39,1.39,1.39s1.39-.62,1.39-1.39-.62-1.39-1.39-1.39-1.39.62-1.39,1.39Z"/>
  <path class="cls-1" d="m10.95,69.38c-.76,0-1.39.62-1.39,1.39s.62,1.39,1.39,1.39,1.39-.62,1.39-1.39-.62-1.39-1.39-1.39Z"/>
  <circle class="cls-1" cx="71.88" cy="10.5" r="1.39"/>
  <path class="cls-1" d="m54.25,5.68c.76,0,1.39-.62,1.39-1.39s-.62-1.39-1.39-1.39-1.39.62-1.39,1.39.62,1.39,1.39,1.39Z"/>
  <path class="cls-1" d="m10.38,54.05c-.76,0-1.39.62-1.39,1.39s.62,1.39,1.39,1.39,1.39-.62,1.39-1.39-.62-1.39-1.39-1.39Z"/>
  <path class="cls-1" d="m7.17,25.49c0-.76-.62-1.39-1.39-1.39s-1.39.62-1.39,1.39.62,1.39,1.39,1.39,1.39-.62,1.39-1.39Z"/>
  <g>
    <path class="cls-2" d="m81.83,64.71c-5.01,0-9.2,3.49-10.27,8.17-.82-.24-1.68-.37-2.58-.37-4.99,0-9.04,4.05-9.04,9.04s4.05,9.04,9.04,9.04h23.98c3.89-.03,7.03-3.2,7.03-7.09s-3.17-7.09-7.09-7.09c-.2,0-.4.01-.6.03.04-.39.07-.78.07-1.18,0-5.83-4.72-10.55-10.55-10.55Z"/>
    <path class="cls-2" d="m68.99,69.51c.19,0,.38,0,.57.01,2.18-4.71,6.9-7.81,12.28-7.81,6.94,0,12.68,5.25,13.46,11.98.44.11.87.27,1.29.43.45-1.76.72-3.6.72-5.5,0-12.13-9.83-21.96-21.96-21.96-2.18,0-4.27.32-6.25.91-2.62-11.37-12.79-19.85-24.96-19.85-14.15,0-25.62,11.47-25.62,25.62,0,.97.06,1.92.16,2.86-.48-.04-.97-.07-1.46-.07-9.51,0-17.22,7.71-17.22,17.22s7.64,17.15,17.09,17.22h0s43.98,0,43.98,0c-2.51-2.21-4.11-5.44-4.11-9.04,0-6.64,5.4-12.04,12.04-12.04Z"/>
    <path class="cls-2" d="m60.48,20.25l-.3-.04c-.57,0-1.03.46-1.03,1.03v3.76c0,.42.27.8.67.95,5.97,2.14,10.77,6.74,13.17,12.63.16.38.52.62.93.62h3.84c.33,0,.64-.16.84-.43.19-.27.24-.62.14-.93-2.91-8.41-9.74-14.99-18.25-17.59Z"/>
    <path class="cls-2" d="m61.68,9.43l-.22-.02c-.57,0-1.03.46-1.03,1.03v3.71c0,.46.31.86.77.98,10.96,2.73,19.66,11.18,22.72,22.07.12.43.52.74.97.74h3.72c.32,0,.61-.15.81-.4.2-.25.26-.57.19-.88-3.38-13.51-14.34-24.2-27.91-27.23Z"/>
  </g>
</svg>