<?xml version="1.0" encoding="UTF-8"?>
<svg id="Layer_1" data-name="Layer 1" xmlns="http://www.w3.org/2000/svg" xmlns:xlink="http://www.w3.org/1999/xlink" viewBox="0 0 60 60">
  <defs>
    <style>
      .cls-1 {
        fill: url(#linear-gradient);
      }

      .cls-1, .cls-2, .cls-3, .cls-4 {
        stroke-width: 0px;
      }

      .cls-2 {
        fill: url(#linear-gradient-2);
      }

      .cls-3 {
        fill: #453f96;
      }

      .cls-4 {
        fill: #fff;
      }
    </style>
    <linearGradient id="linear-gradient" x1="16.9" y1="51.24" x2="32.7" y2="51.24" gradientUnits="userSpaceOnUse">
      <stop offset="0" stop-color="#443d95"/>
      <stop offset="1" stop-color="#30bbb1"/>
    </linearGradient>
    <linearGradient id="linear-gradient-2" x1="19.67" y1="32.61" x2="40.39" y2="32.61" xlink:href="#linear-gradient"/>
  </defs>
  <path class="cls-4" d="m34.94,37.99c0-2.25-1.83-4.1-4.1-4.1s-4.1,1.83-4.1,4.1c0,1.35.65,2.54,1.66,3.29l-1.31,9.26h7.47l-1.31-9.26c1-.74,1.66-1.94,1.66-3.29h.02Z"/>
  <g>
    <polygon class="cls-3" points="30.03 .2 32.54 5.24 38.11 6.07 34.1 10.02 35.03 15.57 30.03 12.97 25.03 15.57 25.96 10.02 21.95 6.07 27.52 5.24 30.03 .2"/>
    <polygon class="cls-3" points="15.38 9.34 17.17 12.92 21.13 13.52 18.27 16.33 18.93 20.28 15.38 18.43 11.82 20.28 12.48 16.33 9.62 13.52 13.59 12.92 15.38 9.34"/>
    <polygon class="cls-3" points="8.78 21.17 10.17 23.95 13.24 24.41 11.03 26.59 11.54 29.65 8.78 28.22 6.03 29.65 6.54 26.59 4.33 24.41 7.4 23.95 8.78 21.17"/>
    <polygon class="cls-3" points="44.68 9.34 42.89 12.92 38.93 13.52 41.79 16.33 41.13 20.28 44.68 18.43 48.24 20.28 47.58 16.33 50.44 13.52 46.47 12.92 44.68 9.34"/>
    <polygon class="cls-3" points="51.28 21.17 49.89 23.95 46.82 24.41 49.03 26.59 48.52 29.65 51.28 28.22 54.03 29.65 53.52 26.59 55.73 24.41 52.66 23.95 51.28 21.17"/>
  </g>
  <g>
    <polygon class="cls-3" points="37.49 42.23 43.16 56.19 36.78 54.86 36.81 54.85 33.16 60.25 27.49 46.29 37.49 42.23"/>
    <polygon class="cls-1" points="32.7 46.4 26.84 60.28 23.27 54.83 23.29 54.84 16.9 56.08 22.76 42.2 32.7 46.4"/>
    <path class="cls-3" d="m45.34,32.61c0,.79-.97,1.5-1.08,2.25s.58,1.75.34,2.48-1.38,1.12-1.73,1.81,0,1.83-.45,2.46-1.65.63-2.2,1.18-.55,1.75-1.18,2.2-1.77.09-2.46.45-1.06,1.49-1.81,1.73-1.7-.46-2.48-.34-1.46,1.08-2.25,1.08-1.5-.97-2.25-1.08-1.75.58-2.48.34-1.12-1.38-1.81-1.73-1.83,0-2.46-.45-.63-1.65-1.18-2.2-1.75-.55-2.2-1.18-.09-1.77-.45-2.46-1.49-1.06-1.73-1.81.46-1.7.34-2.48-1.08-1.46-1.08-2.25.97-1.5,1.08-2.25-.58-1.75-.34-2.48,1.38-1.12,1.73-1.81,0-1.83.45-2.46,1.65-.63,2.2-1.18.55-1.75,1.18-2.2,1.77-.09,2.46-.45,1.06-1.49,1.81-1.73,1.7.46,2.48.34,1.46-1.08,2.25-1.08,1.5.97,2.25,1.08c.75.11,1.75-.58,2.48-.34s1.12,1.38,1.81,1.73,1.83,0,2.46.45.63,1.65,1.18,2.2,1.75.55,2.2,1.18.09,1.77.45,2.46,1.49,1.06,1.73,1.81-.46,1.7-.34,2.48,1.08,1.46,1.08,2.25Z"/>
    <circle class="cls-4" cx="30.03" cy="32.61" r="11.44"/>
    <circle class="cls-2" cx="30.03" cy="32.61" r="10.36"/>
    <polygon class="cls-4" points="36.5 28.41 28.91 37.91 28.1 38.92 27.07 38.06 23.56 35.11 25.84 32.83 27.8 35.17 33.56 26.29 36.5 28.41"/>
  </g>
</svg>