<?xml version="1.0" encoding="UTF-8"?>
<svg id="Layer_1" data-name="Layer 1" xmlns="http://www.w3.org/2000/svg" viewBox="0 0 50 50">
  <defs>
    <style>
      .cls-1 {
        fill: #0dafe1;
      }

      .cls-1, .cls-2 {
        stroke-width: 0px;
      }

      .cls-2 {
        fill: #005c85;
      }
    </style>
  </defs>
  <g>
    <path class="cls-2" d="m44.71,29.21l-.49,8.29c-.22,3.41-3.09,5.51-7.04,5.51-1.26,0-2.64-.22-2.64-1.93,0-1.57,1.17-1.43,1.88-1.34.36.04.94.09,1.25.09,1.52,0,3.05-1.03,3.14-2.87l.36-7.48c.13-2.78,1.17-4.89,3.18-5.92-2.02-1.03-3.05-3.14-3.18-5.92l-.36-7.48c-.09-1.84-1.61-2.87-3.18-2.87-.31,0-.85.04-1.21.09-.72.09-1.88.22-1.88-1.34,0-1.7,1.39-1.93,2.64-1.93,3.94,0,6.81,2.11,7.04,5.51.18,2.47.31,5.56.49,8.29.18,2.78,1.25,4.03,3.54,4.03,1.03,0,1.75.54,1.75,1.61s-.72,1.61-1.75,1.61c-2.29,0-3.36,1.25-3.54,4.03Z"/>
    <path class="cls-2" d="m1.75,25.18C.72,25.18,0,24.64,0,23.57s.72-1.61,1.75-1.61c2.29,0,3.36-1.26,3.54-4.03.18-2.73.31-5.83.49-8.29.22-3.41,3.09-5.51,7.04-5.51,1.26,0,2.64.22,2.64,1.93,0,1.57-1.17,1.43-1.88,1.34-.36-.05-.9-.09-1.21-.09-1.57,0-3.09,1.03-3.18,2.87l-.36,7.48c-.13,2.78-1.17,4.89-3.18,5.92,2.02,1.03,3.05,3.14,3.18,5.92l.36,7.48c.09,1.84,1.61,2.87,3.14,2.87.31,0,.9-.04,1.25-.09.72-.09,1.88-.22,1.88,1.34,0,1.7-1.39,1.93-2.64,1.93-3.94,0-6.81-2.11-7.04-5.51l-.49-8.29c-.18-2.78-1.25-4.03-3.54-4.03Z"/>
  </g>
  <g>
    <path class="cls-1" d="m35.66,13.33H14.34c-.43,0-.78-.35-.78-.78s.35-.78.78-.78h21.33c.43,0,.78.35.78.78s-.35.78-.78.78Z"/>
    <path class="cls-1" d="m35.66,24.58H14.34c-.43,0-.78-.35-.78-.78s.35-.78.78-.78h21.33c.43,0,.78.35.78.78s-.35.78-.78.78Z"/>
    <path class="cls-1" d="m35.66,35.82H14.34c-.43,0-.78-.35-.78-.78s.35-.78.78-.78h21.33c.43,0,.78.35.78.78s-.35.78-.78.78Z"/>
    <path class="cls-1" d="m29.76,30.91h-9.52c-.43,0-.78-.35-.78-.78s.35-.78.78-.78h9.52c.43,0,.78.35.78.78s-.35.78-.78.78Z"/>
    <path class="cls-1" d="m29.76,41.64h-9.52c-.43,0-.78-.35-.78-.78s.35-.78.78-.78h9.52c.43,0,.78.35.78.78s-.35.78-.78.78Z"/>
    <path class="cls-1" d="m29.76,7h-9.52c-.43,0-.78-.35-.78-.78s.35-.78.78-.78h9.52c.43,0,.78.35.78.78s-.35.78-.78.78Z"/>
    <path class="cls-1" d="m29.76,19.36h-9.52c-.43,0-.78-.35-.78-.78s.35-.78.78-.78h9.52c.43,0,.78.35.78.78s-.35.78-.78.78Z"/>
  </g>
</svg>