<?xml version="1.0" encoding="UTF-8"?>
<svg id="Layer_1" data-name="Layer 1" xmlns="http://www.w3.org/2000/svg" viewBox="0 0 50 50">
  <defs>
    <style>
      .cls-1 {
        fill: #0cafe1;
      }

      .cls-1, .cls-2, .cls-3 {
        stroke-width: 0px;
      }

      .cls-2 {
        fill: #fff;
      }

      .cls-3 {
        fill: #005d86;
      }
    </style>
  </defs>
  <polygon class="cls-3" points="30.19 36.94 41.78 30.65 44.61 44.76 30.19 36.94"/>
  <path class="cls-3" d="m35.74,28.3l-15.97,8.67-11.56-6.27.48-2.39h5.54c2.85,2.36,5.42,3.5,5.54,3.55l.54.24.54-.21c.12-.05,2.87-1.14,5.84-3.58h9.05Z"/>
  <polygon class="cls-3" points="7.19 35.78 14.57 39.78 5.39 44.76 7.19 35.78"/>
  <polygon class="cls-3" points="9.51 48.17 25 39.76 40.49 48.17 9.51 48.17"/>
  <polygon class="cls-3" points="25 37.83 5.94 48.17 4.71 48.17 4.96 46.93 18.14 39.79 18.14 39.79 18.14 39.79 7.54 34.04 7.86 32.44 9.24 33.19 19.36 38.68 19.55 38.78 19.55 38.78 19.77 38.9 39.31 28.3 41.31 28.3 41.44 28.91 26.63 36.94 45.04 46.93 45.29 48.17 44.06 48.17 25 37.83"/>
  <path class="cls-1" d="m32.54,15.31c-1.2,10.96-12.2,15.25-12.2,15.25,0,0-12.31-5.4-12.31-17.16C8.03,6.55,13.54.99,20.33.98c7.49,0,13.04,6.82,12.21,14.33Z"/>
  <circle class="cls-2" cx="20.33" cy="13.28" r="6.78"/>
</svg>