<?xml version="1.0" encoding="UTF-8"?>
<svg id="Layer_1" data-name="Layer 1" xmlns="http://www.w3.org/2000/svg" viewBox="0 0 85 85">
  <defs>
    <style>
      .cls-1 {
        fill: #423b96;
      }

      .cls-1, .cls-2 {
        stroke-width: 0px;
      }

      .cls-2 {
        fill: #2ebbb1;
      }
    </style>
  </defs>
  <path class="cls-1" d="m3.08,43.88H.28c-.02-.27-.05-.52-.05-.78,0-4.28.01-8.55-.01-12.83,0-.99.38-1.55,1.32-1.9,4.36-1.64,8.69-3.33,13.04-5,.19-.07.38-.13.65-.21.33.86.66,1.69,1.01,2.59-2.21.85-4.36,1.68-6.52,2.51-2.02.78-4.05,1.54-6.06,2.34-.24.1-.57.39-.58.6-.04,2.33-.03,4.67-.03,7.07h11.21v2.82H3.08v2.79Z"/>
  <path class="cls-1" d="m28.42,21.41c-3.11,0-5.65-2.53-5.64-5.64,0-3.1,2.55-5.62,5.67-5.61,3.07.01,5.58,2.52,5.6,5.59.01,3.11-2.52,5.66-5.62,5.66Zm2.8-5.6c.01-1.53-1.23-2.8-2.77-2.83-1.52-.03-2.83,1.23-2.86,2.74-.03,1.57,1.24,2.87,2.81,2.87,1.54,0,2.8-1.25,2.81-2.78Z"/>
  <path class="cls-2" d="m31.23,15.8c-.01,1.53-1.28,2.79-2.81,2.78-1.57,0-2.84-1.3-2.81-2.87.03-1.52,1.34-2.77,2.86-2.74,1.54.03,2.78,1.3,2.77,2.83Z"/>
  <polygon class="cls-2" points="20.15 65.42 6.94 70.52 6.94 33.89 20.15 28.79 20.15 65.42"/>
  <polygon class="cls-2" points="20.15 65.42 43.22 72.46 43.22 35.83 20.15 28.79 20.15 65.42"/>
  <polygon class="cls-2" points="65.23 65.42 43.22 72.46 43.22 35.83 65.23 28.79 65.23 65.42"/>
  <polygon class="cls-2" points="65.23 65.42 77.74 69.64 77.74 33.01 65.23 28.79 65.23 65.42"/>
  <path class="cls-1" d="m.23,46.77h2.8v2.71h21.15v-5.52h2.83c0,1.04,0,2.09,0,3.13,0,1.17,0,2.34,0,3.52,0,1.26-.5,1.75-1.77,1.75-7.02,0-14.03,0-21.05,0h-1.09v8.44h.9c5.14,0,10.27,0,15.41,0,1.51,0,1.95.44,1.95,1.92,0,2.52.02,5.04-.01,7.56,0,.58.13.87.72,1.08,2.29.81,4.56,1.69,6.84,2.54.27.1.54.18.92.3v-1.02c0-3.46,0-6.92,0-10.37,0-1.6.41-2,2.04-2,1.53,0,3.05-.03,4.58.02.5.02,1.06.15,1.48.41,3.55,2.17,7.07,4.4,10.61,6.58.73.45,1.04,1.02,1.02,1.88-.04,2.17-.01,4.33-.01,6.64.4-.14.71-.25,1.03-.36,4.47-1.67,8.95-3.33,13.41-5.03.74-.28,1.37-.29,2.11,0,4.97,1.93,9.95,3.83,14.93,5.73.27.1.54.2.88.33v-14.79h-.95c-5.14,0-10.27,0-15.41,0-1.44,0-1.9-.45-1.9-1.88,0-3.46,0-6.92,0-10.37,0-1.33.48-1.81,1.8-1.81,5.46,0,10.92,0,16.48,0v-2.75h2.86v.95c0,10.7,0,21.39,0,32.09,0,1.91-.75,2.42-2.54,1.73-5.41-2.08-10.83-4.14-16.24-6.25-.68-.27-1.25-.24-1.92.01-6.85,2.59-13.72,5.13-20.57,7.72-.71.27-1.32.25-2.03-.02-6.85-2.59-13.72-5.14-20.57-7.73-.63-.24-1.14-.21-1.74.07-5.39,2.51-10.8,4.98-16.2,7.47-.21.1-.42.21-.64.29-1.15.45-2.05-.14-2.09-1.4-.01-.38,0-.76,0-1.14,0-10.43,0-20.86,0-31.29,0-.35,0-.69,0-1.11Zm18.32,16.9H3.1v14.47c.08.02.12.05.14.04,4.97-2.28,9.95-4.55,14.91-6.85.18-.08.38-.38.38-.58.03-2.34.02-4.68.02-7.07Zm14.17-.06c-.04.18-.07.26-.07.34,0,3.6,0,7.2-.02,10.81,0,.51.26.64.63.78,1.95.72,3.98,1.29,5.83,2.21,2.37,1.19,4.59,1.28,6.87-.05.05-.03.11-.04.17-.05.48-.1.63-.38.62-.88-.03-2.05.01-4.1-.04-6.15,0-.32-.27-.76-.55-.94-3.06-1.95-6.15-3.87-9.24-5.78-.24-.15-.53-.27-.8-.28-1.11-.03-2.23-.01-3.4-.01Zm49.2-4.26v-8.35h-15.39v8.35h15.39Z"/>
  <path class="cls-1" d="m35.46,43.93h2.78v5.61c.79,0,1.49-.08,2.17.02.7.1,1.46.24,2.03.61,3.06,1.96,6.07,4,9.09,6.02.23.16.48.29.8.49v-28.41c-2.88.89-5.7,1.75-8.51,2.66-.87.28-1.67.36-2.55.02-1.08-.42-2.21-.71-3.4-1.08.29-.93.56-1.78.84-2.66.41.12.76.18,1.07.33,1.86.88,3.65.63,5.57,0,6.29-2.07,12.62-3.99,18.94-5.93.46-.14,1.07-.15,1.52.02,5.94,2.25,11.87,4.54,17.81,6.81.7.27,1.16.69,1.16,1.47,0,4.16,0,8.31,0,12.54h-2.81v-2.75h-1.04c-5.11,0-10.21,0-15.32,0-1.55,0-1.97-.43-1.97-1.99,0-4.28,0-8.55,0-12.93-.32.08-.59.14-.85.22-2.21.68-4.41,1.4-6.63,2.04-.72.21-1,.5-.99,1.31.03,9.99.02,19.98.02,29.97,0,.21,0,.41,0,.62.04.68-.08,1.29-.73,1.67-.7.41-1.28.08-1.87-.31-3.29-2.2-6.63-4.33-9.86-6.61-1.39-.98-2.76-1.44-4.46-1.36-2.69.12-2.81-.08-2.81-2.79v-5.6Zm46.5-7.07v-.84c0-1.46-.03-2.93.01-4.39.02-.62-.16-.91-.77-1.13-3.54-1.32-7.05-2.69-10.58-4.04-1.36-.52-2.71-1.04-4.1-1.58v11.98h15.43Z"/>
  <path class="cls-1" d="m34.05,30.3c1.37.72,2.78,1.27,3.96,2.14,2.28,1.68,2.24,4.33,0,6.08-.61.48-1.31.96-2.04,1.17-1.82.52-3.67,1.05-5.54,1.28-3.15.38-6.28.06-9.25-1.14-.96-.39-1.91-.94-2.69-1.61-1.83-1.59-1.84-3.94.01-5.49.92-.77,2.09-1.25,3.17-1.83.36-.19.77-.27,1.22-.42-.8-1.02-1.6-1.99-2.34-3-2.02-2.76-3.75-5.66-4.5-9.05-1.48-6.69,2.75-13.42,9.41-14.96,6.83-1.58,13.61,2.53,15.27,9.22.8,3.25.22,6.33-1.15,9.31-1.21,2.66-2.86,5.04-4.7,7.29-.29.36-.59.72-.83,1.01Zm-5.65,1.88c3.53-3.53,6.7-7.12,8.7-11.58.91-2.03,1.4-4.13,1.04-6.39-.89-5.5-6.2-9.17-11.73-8.07-5.39,1.08-8.94,6.56-7.56,11.87,1.51,5.79,5.49,9.95,9.54,14.17Zm.63,6.12c.68-.08,2.03-.09,3.28-.43,1.36-.36,2.67-.98,3.96-1.58.46-.21.89-.73.37-1.29-1.23-1.32-2.89-1.72-4.57-2-.96-.16-1.19.9-1.84,1.29-.07.04-.13.12-.19.18-1.41,1.33-1.99,1.47-3.18,0-1.37-1.71-2.82-1.61-4.51-.82-.21.1-.47.13-.64.27-.59.48-1.55.94-1.64,1.52-.14.87.92,1.23,1.65,1.57,2.11.98,4.38,1.24,7.31,1.28Z"/>
</svg>