<?xml version="1.0" encoding="UTF-8"?>
<svg id="Layer_1" data-name="Layer 1" xmlns="http://www.w3.org/2000/svg" xmlns:xlink="http://www.w3.org/1999/xlink" viewBox="0 0 100 100">
  <defs>
    <style>
      .cls-1 {
        fill: url(#linear-gradient);
      }

      .cls-1, .cls-2, .cls-3, .cls-4, .cls-5, .cls-6, .cls-7 {
        stroke-width: 0px;
      }

      .cls-2 {
        fill: url(#linear-gradient-4);
      }

      .cls-3 {
        fill: url(#linear-gradient-2);
      }

      .cls-4 {
        fill: url(#linear-gradient-3);
      }

      .cls-5 {
        fill: #f7f8f9;
      }

      .cls-6 {
        fill: #f8f7f8;
      }

      .cls-7 {
        fill: #2c285b;
      }
    </style>
    <linearGradient id="linear-gradient" x1="50" y1="50" x2="99.81" y2="50" gradientUnits="userSpaceOnUse">
      <stop offset="0" stop-color="#fff"/>
      <stop offset="1" stop-color="#231f20"/>
    </linearGradient>
    <linearGradient id="linear-gradient-2" x1="25.59" y1="68.62" x2="49.92" y2="68.62" xlink:href="#linear-gradient"/>
    <linearGradient id="linear-gradient-3" x1="25.74" y1="35.97" x2="50.08" y2="35.97" xlink:href="#linear-gradient"/>
    <linearGradient id="linear-gradient-4" x1="25.74" y1="52.29" x2="50.08" y2="52.29" xlink:href="#linear-gradient"/>
  </defs>
  <path class="cls-5" d="m43.02,5.81c-5.62,0-10.64,3.37-12.81,8.49-4.47.97-8.18,4.08-9.92,8.29-.59-.08-1.18-.12-1.75-.12-7.68,0-13.93,6.25-13.93,13.93,0,2.68.77,5.28,2.21,7.51C2.74,46.42.19,50.88.19,55.78c0,6.69,4.7,12.29,11.05,13.62-.34,1.21-.51,2.46-.51,3.73,0,7.68,6.25,13.93,13.93,13.93.57,0,1.14-.04,1.72-.11,2.43,4.45,7.09,7.25,12.22,7.25,4.64,0,8.84-2.25,11.4-5.93h0s0-80.57,0-80.57c-2.12-1.23-4.51-1.88-6.98-1.88Z"/>
  <path class="cls-1" d="m93.18,43.91c1.44-2.23,2.21-4.84,2.21-7.51,0-7.68-6.25-13.93-13.93-13.93-.58,0-1.16.04-1.75.12-1.74-4.21-5.45-7.32-9.92-8.29-2.17-5.12-7.2-8.49-12.81-8.49-2.47,0-4.86.65-6.98,1.88v80.57c2.56,3.68,6.76,5.93,11.4,5.93,5.14,0,9.8-2.81,12.22-7.25.58.07,1.15.11,1.72.11,7.68,0,13.93-6.25,13.93-13.93,0-1.27-.17-2.51-.51-3.73,6.35-1.32,11.05-6.93,11.05-13.62,0-4.9-2.55-9.36-6.63-11.87Z"/>
  <path class="cls-6" d="m70.02,72.9c2.34,0,4.24-1.9,4.24-4.24s-1.9-4.24-4.24-4.24c-1.58,0-2.95.88-3.68,2.17h-16.41v4.07h16.37c.72,1.33,2.11,2.25,3.72,2.25Z"/>
  <path class="cls-6" d="m70.17,40.25c2.34,0,4.24-1.9,4.24-4.24s-1.9-4.24-4.24-4.24c-1.58,0-2.95.88-3.68,2.17h-16.41v4.07h16.37c.72,1.33,2.11,2.25,3.72,2.25Z"/>
  <path class="cls-6" d="m70.17,56.58c2.34,0,4.24-1.9,4.24-4.24s-1.9-4.24-4.24-4.24c-1.58,0-2.95.88-3.68,2.17h-16.41v4.07h16.37c.72,1.33,2.11,2.25,3.72,2.25Z"/>
  <g>
    <path class="cls-3" d="m29.83,64.37c-2.34,0-4.24,1.9-4.24,4.24s1.9,4.24,4.24,4.24c1.6,0,2.98-.9,3.7-2.21h16.39v-4.07h-16.39c-.72-1.31-2.1-2.21-3.7-2.21Z"/>
    <path class="cls-4" d="m29.98,40.21c1.6,0,2.98-.9,3.7-2.21h16.39v-4.07h-16.39c-.72-1.31-2.1-2.21-3.7-2.21-2.34,0-4.24,1.9-4.24,4.24s1.9,4.24,4.24,4.24Z"/>
    <path class="cls-2" d="m29.98,56.54c1.6,0,2.98-.9,3.7-2.21h16.39v-4.07h-16.39c-.72-1.31-2.1-2.21-3.7-2.21-2.34,0-4.24,1.9-4.24,4.24s1.9,4.24,4.24,4.24Z"/>
  </g>
  <path class="cls-7" d="m32.27,52.33c0,1.28-1.04,2.32-2.32,2.32s-2.32-1.04-2.32-2.32,1.04-2.32,2.32-2.32,2.32,1.04,2.32,2.32Z"/>
  <path class="cls-7" d="m32.27,68.62c0,1.28-1.04,2.32-2.32,2.32s-2.32-1.04-2.32-2.32,1.04-2.32,2.32-2.32,2.32,1.04,2.32,2.32Z"/>
  <path class="cls-7" d="m32.27,36.05c0,1.28-1.04,2.32-2.32,2.32s-2.32-1.04-2.32-2.32,1.04-2.32,2.32-2.32,2.32,1.04,2.32,2.32Z"/>
  <path class="cls-7" d="m72.54,52.33c0,1.28-1.04,2.32-2.32,2.32s-2.32-1.04-2.32-2.32,1.04-2.32,2.32-2.32,2.32,1.04,2.32,2.32Z"/>
  <path class="cls-7" d="m72.54,68.62c0,1.28-1.04,2.32-2.32,2.32s-2.32-1.04-2.32-2.32,1.04-2.32,2.32-2.32,2.32,1.04,2.32,2.32Z"/>
  <path class="cls-7" d="m72.54,36.05c0,1.28-1.04,2.32-2.32,2.32s-2.32-1.04-2.32-2.32,1.04-2.32,2.32-2.32,2.32,1.04,2.32,2.32Z"/>
</svg>