<?xml version="1.0" encoding="UTF-8"?>
<svg id="Layer_1" data-name="Layer 1" xmlns="http://www.w3.org/2000/svg" xmlns:xlink="http://www.w3.org/1999/xlink" viewBox="0 0 100 100">
  <defs>
    <style>
      .cls-1 {
        fill: url(#linear-gradient);
      }

      .cls-1, .cls-2, .cls-3, .cls-4, .cls-5, .cls-6, .cls-7 {
        stroke-width: 0px;
      }

      .cls-2 {
        fill: url(#linear-gradient-4);
      }

      .cls-3 {
        fill: url(#linear-gradient-2);
      }

      .cls-4 {
        fill: url(#linear-gradient-3);
      }

      .cls-5 {
        fill: #f7f0f2;
      }

      .cls-6 {
        fill: #f7f8f9;
      }

      .cls-7 {
        fill: #cfcfce;
      }
    </style>
    <linearGradient id="linear-gradient" x1="2.96" y1="57.55" x2="28.8" y2="57.55" gradientUnits="userSpaceOnUse">
      <stop offset="0" stop-color="#fff"/>
      <stop offset="1" stop-color="#231f20"/>
    </linearGradient>
    <linearGradient id="linear-gradient-2" x1="37.72" y1="71.81" x2="46.73" y2="71.81" xlink:href="#linear-gradient"/>
    <linearGradient id="linear-gradient-3" x1="71.2" x2="97.04" xlink:href="#linear-gradient"/>
    <linearGradient id="linear-gradient-4" x1="53.27" y1="71.81" x2="62.28" y2="71.81" xlink:href="#linear-gradient"/>
  </defs>
  <path class="cls-1" d="m4.59,71.49h19.71c.9,0,1.63-.73,1.63-1.63v-17.25h0s1.13,0,1.13,0c.96,0,1.74-.78,1.74-1.74v-5.52c0-.96-.78-1.74-1.74-1.74h-5.52c-.96,0-1.74.78-1.74,1.74v5.52c0,.96.78,1.74,1.74,1.74h1.13v15.62H4.59c-.9,0-1.63.73-1.63,1.63s.73,1.63,1.63,1.63Z"/>
  <path class="cls-3" d="m42.22,100c.9,0,1.63-.73,1.63-1.63v-45.76h1.13c.96,0,1.74-.78,1.74-1.74v-5.52c0-.96-.78-1.74-1.74-1.74h-5.52c-.96,0-1.74.78-1.74,1.74v5.52c0,.96.78,1.74,1.74,1.74h1.13v45.76c0,.9.73,1.63,1.63,1.63Z"/>
  <path class="cls-4" d="m77.33,52.62h0s1.13,0,1.13,0c.96,0,1.74-.78,1.74-1.74v-5.52c0-.96-.78-1.74-1.74-1.74h-5.52c-.96,0-1.74.78-1.74,1.74v5.52c0,.96.78,1.74,1.74,1.74h1.13v17.25c0,.9.73,1.63,1.63,1.63h19.71c.9,0,1.63-.73,1.63-1.63s-.73-1.63-1.63-1.63h-18.08v-15.62Z"/>
  <path class="cls-2" d="m57.78,100c.9,0,1.63-.73,1.63-1.63v-45.76h1.13c.96,0,1.74-.78,1.74-1.74v-5.52c0-.96-.78-1.74-1.74-1.74h-5.52c-.96,0-1.74.78-1.74,1.74v5.52c0,.96.78,1.74,1.74,1.74h1.13v45.76c0,.9.73,1.63,1.63,1.63Z"/>
  <g>
    <rect class="cls-5" x="39.46" y="43.61" width="5.53" height="5.53"/>
    <rect class="cls-5" x="21.4" y="43.61" width="5.53" height="5.53"/>
    <rect class="cls-5" x="73.02" y="43.61" width="5.53" height="5.53"/>
    <rect class="cls-5" x="54.97" y="43.61" width="5.53" height="5.53"/>
  </g>
  <g>
    <path class="cls-7" d="m38.65,0c-19.31,0-18.01,20.4-18.01,20.4,0,0-10.85.22-10.85,9.98s10.85,9.33,10.85,9.33c0,0,13.87,0,29.36,0V3.05c-2.56-1.76-6.19-3.05-11.35-3.05Z"/>
    <path class="cls-6" d="m76.84,19.85c-9.11-13.13-20.83-7.05-20.83-7.05,0,0-.51-5.97-6.01-9.75v36.66c9.24,0,19.06,0,26.84,0,20.83,0,14.54-21.27,0-19.85Z"/>
  </g>
</svg>