<?xml version="1.0" encoding="UTF-8"?>
<svg id="Layer_1" data-name="Layer 1" xmlns="http://www.w3.org/2000/svg" xmlns:xlink="http://www.w3.org/1999/xlink" viewBox="0 0 60 60">
  <defs>
    <style>
      .cls-1 {
        fill: none;
      }

      .cls-1, .cls-2, .cls-3, .cls-4, .cls-5, .cls-6, .cls-7, .cls-8, .cls-9, .cls-10, .cls-11, .cls-12, .cls-13, .cls-14, .cls-15, .cls-16 {
        stroke-width: 0px;
      }

      .cls-2 {
        fill: url(#linear-gradient);
      }

      .cls-3 {
        fill: url(#linear-gradient-2);
      }

      .cls-5 {
        fill: #94bfbd;
      }

      .cls-6 {
        fill: #3c817d;
      }

      .cls-7 {
        fill: #3b7fe0;
      }

      .cls-8 {
        fill: #0d1d93;
      }

      .cls-9 {
        fill: #453f96;
      }

      .cls-10 {
        fill: #cbcac8;
      }

      .cls-11 {
        fill: #c9c9c6;
      }

      .cls-12 {
        fill: #decab4;
      }

      .cls-13 {
        fill: #c8af97;
      }

      .cls-14 {
        fill: #303030;
      }

      .cls-15 {
        fill: #efd7bc;
      }

      .cls-16 {
        fill: #e2e6e3;
      }
    </style>
    <linearGradient id="linear-gradient" x1="44.87" y1="52.16" x2="60.04" y2="52.16" gradientUnits="userSpaceOnUse">
      <stop offset="0" stop-color="#443d95"/>
      <stop offset="1" stop-color="#30bbb1"/>
    </linearGradient>
    <linearGradient id="linear-gradient-2" x1="18.06" y1="52.2" x2="33.38" y2="52.2" xlink:href="#linear-gradient"/>
  </defs>
  <g>
    <polygon class="cls-1" points="17.76 50.6 16.27 51.53 16.03 52.32 16.39 51.7 17.76 50.6"/>
    <polygon class="cls-1" points="20.5 52.32 21.17 51.03 18.55 50.54 19.92 51.97 20.5 52.32"/>
    <path class="cls-9" d="m6.37,59.66c-.07-.36-.18-.71-.26-1.07-.09-.36-.21-.7-.3-1.05-.13-.34-.21-.68-.35-1-.13-.32-.24-.63-.37-.92-.12-.29-.26-.56-.37-.81-.13-.24-.24-.48-.36-.67-.11-.2-.21-.37-.3-.51-.17-.28-.29-.44-.29-.44,0,0,.17.1.43.31.26.22.61.56.98,1.01.17.23.37.48.54.77.18.28.36.59.52.92.17.33.31.68.45,1.03.12.36.25.73.35,1.11.08.38.2.76.24,1.14.01.07.02.15.03.22h9.83l.41-4.33-1.54-3.05.23-.79,1.5-.93.79-.06,2.61.49-.66,1.29-1.54,3.05.39,4.33h9.74c.06-.31.14-.62.21-.93.1-.38.23-.75.35-1.11.15-.36.29-.71.45-1.03.16-.33.33-.64.52-.92.17-.29.37-.54.54-.77.37-.46.71-.8.98-1.01.26-.21.43-.31.43-.31,0,0-.11.16-.29.44-.09.14-.19.31-.3.51-.12.2-.22.43-.36.67-.11.26-.25.52-.37.81-.13.29-.24.6-.37.92-.13.32-.22.67-.35,1-.09.35-.21.7-.3,1.05-.05.23-.12.46-.17.68h6.33c-.93-3.58-3.87-11.78-11.65-13.45l-6.4,4.29-6.02-4.16S1.97,47.84-.04,59.7h6.42v-.04h0Z"/>
    <polygon class="cls-10" points="20.5 52.32 19.92 51.97 18.55 50.54 17.76 50.6 16.39 51.7 16.03 52.32 17.57 55.38 17.16 59.7 19.36 59.7 18.96 55.38 20.5 52.32"/>
    <path class="cls-8" d="m7.05,58.34c-.1-.38-.23-.75-.35-1.11-.15-.36-.29-.71-.45-1.03-.16-.33-.33-.64-.52-.92-.17-.29-.37-.54-.54-.77-.37-.46-.71-.8-.98-1.01-.26-.21-.43-.31-.43-.31,0,0,.11.16.29.44.09.14.19.31.3.51.12.2.22.43.36.67.11.25.25.52.37.81.13.29.24.6.37.92s.22.67.35,1c.09.35.21.7.3,1.05.08.36.19.71.26,1.07v.04h.94c-.01-.07-.02-.15-.03-.22-.05-.38-.16-.76-.24-1.14Z"/>
    <path class="cls-6" d="m30.54,57.97c.13-.34.21-.68.35-1,.13-.32.24-.63.37-.92.12-.29.26-.56.37-.81.13-.24.24-.48.36-.67.11-.2.21-.37.3-.51.17-.28.29-.44.29-.44,0,0-.17.1-.43.31-.26.22-.61.56-.98,1.01-.17.23-.37.48-.54.77-.18.28-.36.59-.52.92-.16.33-.31.68-.45,1.03-.12.36-.25.73-.35,1.11-.07.31-.15.62-.21.93h.97c.06-.23.12-.45.17-.68.09-.36.21-.7.3-1.05Z"/>
    <g>
      <rect class="cls-12" x="13.66" y="39.82" width="9.07" height="10.73"/>
      <polygon class="cls-13" points="13.65 45.46 23 40.22 13.64 38.07 13.65 45.46"/>
      <g>
        <polygon class="cls-5" points="20.5 52.32 21.17 51.03 18.55 50.54 19.92 51.97 20.5 52.32"/>
        <polygon class="cls-5" points="17.76 50.6 16.27 51.53 16.03 52.32 16.39 51.7 17.76 50.6"/>
      </g>
      <polygon class="cls-7" points="12.86 45.05 18.34 50.55 14.89 53.33 11.79 46.26 12.86 45.05"/>
      <polygon class="cls-7" points="23.68 45.05 18.34 50.55 21.91 53.44 24.75 46.26 23.68 45.05"/>
      <g>
        <path class="cls-12" d="m6.69,26.63c0,8.06,5.04,14.62,11.3,14.8V14.75c-6.16.2-11.3,3.94-11.3,11.89h0Z"/>
        <path class="cls-15" d="m18.52,14.74h-.53v26.68h.26c6.39,0,11.57-6.63,11.57-14.8s-4.92-11.9-11.3-11.9v.02Z"/>
      </g>
      <path class="cls-14" d="m30.59,24.45c-.28-3.66-1.77-6.3-1.77-6.3,1-4.45-3.16-5.69-7.55-5.79-4.05-.1-8.3.77-8.85.97-.6.22-1.43.29-2.09.31-.61.02-1.07,0-1.07,0,.02.1.12.33.22.55.1.23.2.44.2.44-.12.01-.33-.05-.58-.14-.89-.33-2.32-1.1-2.32-1.1-.16,1.19.13,2.26.45,3.02.32.76.69,1.23.69,1.23-.26.05-.99-.26-.99-.26.21.99.42,1.45.42,1.45-1.56,1.14-1.92,4.43-1.95,7l2.68,3.12.92-2.24h.06c.65-2.36,1.2-5.92,1.2-5.92,6.98,4.48,13.4.9,14.51.21.21-.23.32-.37.32-.37.4,4.48,3.43,7.52,3.43,7.52-.25-1.9,1.93-3.4,2.09-3.51h.02c0-.07-.02-.13-.03-.2h0Z"/>
      <path class="cls-15" d="m28.66,27.56c-.25,1.71.23,3.19,1.07,3.31.84.12,1.72-1.16,1.97-2.87s-.23-3.19-1.07-3.31c-.84-.12-1.72,1.16-1.97,2.87Z"/>
      <path class="cls-12" d="m7.47,27.42c.16,1.68-.33,3.11-1.1,3.19s-1.52-1.23-1.69-2.91c-.16-1.68.33-3.11,1.1-3.19.77-.07,1.52,1.23,1.69,2.92h0Z"/>
    </g>
  </g>
  <g>
    <polygon class="cls-16" points="45.59 43.82 41.15 46.47 37.28 46.4 32.53 44.47 32.46 44.54 32.17 44.83 36.44 57.08 36.89 53.32 37.08 51.59 39.27 51.59 40.83 51.59 41.39 53.72 42.11 56.47 45.38 45.14 45.69 44 45.59 43.82"/>
    <g>
      <path class="cls-4" d="m25.25,23.6s-.47,10.95-3.14,14.88c0,0,14.62,9,34.58-.27,0,0-3.74-5.79-2.58-13.46,0,0-28.86-1.15-28.86-1.15Z"/>
      <rect class="cls-12" x="33.86" y="36.86" width="10.46" height="12.38"/>
      <polygon class="cls-13" points="33.85 43.37 44.63 37.32 33.84 34.85 33.85 43.37"/>
      <g>
        <path class="cls-12" d="m25.82,21.66c0,9.3,5.81,16.85,13.03,17.06V7.95c-7.1.23-13.03,4.54-13.03,13.71Z"/>
        <path class="cls-15" d="m39.47,7.94c-.2,0-.41,0-.61.01v30.77h.3c7.37,0,13.34-7.64,13.34-17.07s-5.67-13.72-13.04-13.72h.01Z"/>
      </g>
      <g>
        <polygon class="cls-9" points="40.83 51.59 42.37 48.18 39.27 45.74 39.27 51.59 40.83 51.59"/>
        <polygon class="cls-9" points="39.27 45.74 39.13 45.62 35.72 48.69 37.08 51.59 39.27 51.59 39.27 45.74"/>
      </g>
      <polygon class="cls-11" points="33.85 42.73 39.13 45.62 34.56 51.69 31.97 44.26 33.85 42.73"/>
      <polygon class="cls-11" points="44.41 42.55 45.78 43.75 43.69 51.01 39.13 45.62 44.41 42.55"/>
      <path class="cls-9" d="m50.44,19.58s-1.29-.74-3.37-.74l-.87.06c-1.65,0-3.15.16-4.06.29l-.83.06s-.6.16-1.28.29c-.45.06-.94.12-1.35.13-.4-.01-.9-.07-1.35-.13-.68-.12-1.28-.29-1.28-.29l-.83-.06c-.92-.13-2.42-.3-4.07-.29l-.87-.06c-2.08,0-3.37.74-3.37.74v.09h0l.02.08-.7.78,1.47.32.09.03s-1.4,4.97,3.09,6.02c.44.12.94.2,1.52.2h.11c5.37-.07,5.38-4.96,5.38-4.96h1.57s0,4.89,5.38,4.96h.11c.58,0,1.08-.07,1.52-.2,4.49-1.05,3.09-6.02,3.09-6.02l.09-.03.65.03.12-1.13.02-.08h0s0-.09,0-.09Zm-17.96,6.36c-4.38-.03-3.4-5.15-3.4-5.15,1.41-1.29,4.75-.81,5.82-.37,1.08.44,1.48,1.83,1.48,1.93s.47,3.62-3.9,3.59Zm12.17,0c-4.38.03-3.91-3.49-3.91-3.59s.4-1.49,1.48-1.93c1.08-.44,4.41-.91,5.82.37,0,0,.98,5.11-3.4,5.15h.01Z"/>
      <path class="cls-4" d="m44.63,13.2s1.38,6.54,8.61,7.92c0,0,3.1-17.56-12.74-17.56s-16.52,10.33-16.52,17.56c0,0,11.7,1.03,20.66-7.92h-.01Z"/>
      <path class="cls-15" d="m51.16,22.73c-.29,1.97.26,3.68,1.23,3.82s1.98-1.34,2.27-3.31-.26-3.68-1.23-3.82-1.98,1.34-2.27,3.31Z"/>
      <path class="cls-12" d="m26.73,22.57c.19,1.94-.38,3.59-1.27,3.67-.89.09-1.76-1.42-1.94-3.36-.19-1.94.38-3.59,1.27-3.67.89-.09,1.76,1.42,1.94,3.36Z"/>
    </g>
    <path class="cls-2" d="m48.33,51.76l-2.39.17,1.87,1.53-2.94,6.24h6.8c.06-.33.16-.66.23-.99.11-.44.26-.86.4-1.28.17-.41.33-.82.52-1.19.18-.38.38-.74.59-1.06.19-.33.43-.62.62-.89.42-.53.82-.92,1.13-1.17.3-.25.5-.36.5-.36,0,0-.13.18-.33.51-.1.16-.22.36-.34.59-.13.22-.26.5-.41.78-.13.29-.29.6-.43.94-.15.33-.28.69-.43,1.06-.15.37-.25.77-.4,1.16-.11.4-.25.8-.35,1.21-.05.23-.12.46-.18.7h7.26c-1.04-3.98-4.2-12.66-12.22-15.1l.83.34-.34,6.82h.01Z"/>
    <path class="cls-3" d="m25.16,58.52c-.1-.41-.24-.81-.35-1.21-.15-.39-.25-.79-.4-1.16s-.28-.73-.43-1.06c-.14-.34-.3-.64-.43-.94-.15-.28-.28-.55-.41-.78s-.25-.43-.34-.59c-.2-.32-.33-.51-.33-.51,0,0,.19.11.5.36.3.25.7.64,1.12,1.17.2.27.43.56.62.89.21.33.41.68.59,1.06.19.38.35.78.52,1.19.14.42.29.85.4,1.28.09.44.23.87.28,1.31,0,.06.02.11.02.17h6.86l-3.65-6.24,2.05-1.7-2.73-.17.34-5.97,1.72-.92c-3.07.83-11.15,4.04-13.05,15h7.37c-.08-.4-.2-.79-.29-1.19h.02Z"/>
    <path class="cls-9" d="m26.24,58.23c-.11-.44-.26-.86-.4-1.28-.17-.41-.33-.82-.52-1.19-.18-.38-.38-.74-.59-1.06-.19-.33-.43-.62-.62-.89-.42-.53-.82-.92-1.12-1.17-.31-.25-.5-.36-.5-.36,0,0,.13.18.33.51.1.16.22.36.34.59.13.23.26.5.41.78.13.29.29.6.43.94.15.33.28.69.43,1.06.15.37.25.77.4,1.16.11.4.25.8.35,1.21.09.4.21.79.29,1.19h1.09c0-.06-.02-.11-.02-.17-.06-.44-.19-.87-.28-1.31h-.02Z"/>
    <path class="cls-9" d="m53.33,57.79c.15-.39.25-.79.4-1.16s.28-.73.43-1.06c.14-.34.3-.64.43-.94.15-.28.28-.55.41-.78s.25-.43.34-.59c.2-.32.33-.51.33-.51,0,0-.19.11-.5.36-.3.25-.7.64-1.13,1.17-.2.27-.43.56-.62.89-.21.33-.41.68-.59,1.06-.19.38-.35.78-.52,1.19-.14.42-.29.85-.4,1.28-.07.33-.16.66-.23.99h1.13c.06-.23.12-.46.18-.7.1-.41.24-.81.35-1.21h-.01Z"/>
    <polygon class="cls-7" points="37.08 51.59 36.89 53.32 36.44 57.08 37.37 59.7 37.78 59.7 39.27 59.7 39.27 51.59 37.08 51.59"/>
    <polygon class="cls-8" points="41.39 53.72 40.83 51.59 39.27 51.59 39.27 59.7 40.52 59.7 41.18 59.7 42.11 56.47 41.39 53.72"/>
    <polygon class="cls-9" points="48.67 44.94 47.84 44.6 45.78 43.75 45.69 44 45.38 45.14 42.11 56.47 41.18 59.7 42.26 59.7 44.88 59.7 47.82 53.46 45.94 51.93 48.33 51.76 48.67 44.94"/>
    <polygon class="cls-9" points="36.44 57.08 32.17 44.83 32.05 44.49 31.97 44.26 31.13 44.71 29.41 45.62 29.07 51.59 31.8 51.76 29.75 53.46 33.4 59.7 36.32 59.7 37.37 59.7 36.44 57.08"/>
  </g>
</svg>