<?xml version="1.0" encoding="UTF-8"?>
<svg id="Layer_1" data-name="Layer 1" xmlns="http://www.w3.org/2000/svg" viewBox="0 0 60 60">
  <defs>
    <style>
      .cls-1 {
        fill: #2936be;
      }

      .cls-1, .cls-2, .cls-3, .cls-4 {
        stroke-width: 0px;
      }

      .cls-2 {
        fill: #3b7fe0;
      }

      .cls-3 {
        fill: #0d1d93;
      }

      .cls-4 {
        fill: #fff;
      }
    </style>
  </defs>
  <g>
    <polygon class="cls-2" points="30 0 32.51 5.04 38.08 5.87 34.07 9.82 35 15.37 30 12.77 25 15.37 25.93 9.82 21.92 5.87 27.49 5.04 30 0"/>
    <polygon class="cls-2" points="15.35 9.14 17.14 12.72 21.1 13.32 18.24 16.13 18.9 20.08 15.35 18.23 11.79 20.08 12.45 16.13 9.59 13.32 13.56 12.72 15.35 9.14"/>
    <polygon class="cls-2" points="8.75 20.97 10.14 23.75 13.21 24.21 11 26.39 11.51 29.45 8.75 28.02 6 29.45 6.51 26.39 4.3 24.21 7.37 23.75 8.75 20.97"/>
    <polygon class="cls-2" points="44.65 9.14 42.86 12.72 38.9 13.32 41.76 16.13 41.1 20.08 44.65 18.23 48.21 20.08 47.55 16.13 50.41 13.32 46.44 12.72 44.65 9.14"/>
    <polygon class="cls-2" points="51.25 20.97 49.86 23.75 46.79 24.21 49 26.39 48.49 29.45 51.25 28.02 54 29.45 53.49 26.39 55.7 24.21 52.63 23.75 51.25 20.97"/>
  </g>
  <g>
    <polygon class="cls-3" points="37.46 42.03 43.13 55.99 36.75 54.66 36.78 54.65 33.13 60.05 27.46 46.09 37.46 42.03"/>
    <polygon class="cls-2" points="32.67 46.2 26.81 60.08 23.24 54.63 23.26 54.64 16.87 55.88 22.73 42 32.67 46.2"/>
    <path class="cls-1" d="m45.31,32.41c0,.79-.97,1.5-1.08,2.25s.58,1.75.34,2.48-1.38,1.12-1.73,1.81,0,1.83-.45,2.46-1.65.63-2.2,1.18-.55,1.75-1.18,2.2-1.77.09-2.46.45-1.06,1.49-1.81,1.73-1.7-.46-2.48-.34-1.46,1.08-2.25,1.08-1.5-.97-2.25-1.08-1.75.58-2.48.34-1.12-1.38-1.81-1.73-1.83,0-2.46-.45-.63-1.65-1.18-2.2-1.75-.55-2.2-1.18-.09-1.77-.45-2.46-1.49-1.06-1.73-1.81.46-1.7.34-2.48-1.08-1.46-1.08-2.25.97-1.5,1.08-2.25-.58-1.75-.34-2.48,1.38-1.12,1.73-1.81,0-1.83.45-2.46,1.65-.63,2.2-1.18.55-1.75,1.18-2.2,1.77-.09,2.46-.45,1.06-1.49,1.81-1.73,1.7.46,2.48.34,1.46-1.08,2.25-1.08,1.5.97,2.25,1.08,1.75-.58,2.48-.34,1.12,1.38,1.81,1.73,1.83,0,2.46.45.63,1.65,1.18,2.2,1.75.55,2.2,1.18.09,1.77.45,2.46,1.49,1.06,1.73,1.81-.46,1.7-.34,2.48,1.08,1.46,1.08,2.25Z"/>
    <circle class="cls-4" cx="30" cy="32.41" r="11.44"/>
    <circle class="cls-1" cx="30" cy="32.41" r="10.36"/>
    <polygon class="cls-4" points="36.47 28.21 28.88 37.71 28.07 38.72 27.04 37.86 23.53 34.91 25.81 32.63 27.77 34.97 33.53 26.09 36.47 28.21"/>
  </g>
</svg>