<?xml version="1.0" encoding="UTF-8"?>
<svg id="Layer_1" data-name="Layer 1" xmlns="http://www.w3.org/2000/svg" viewBox="0 0 60 60">
  <defs>
    <style>
      .cls-1, .cls-2, .cls-3, .cls-4, .cls-5 {
        stroke-width: 0px;
      }

      .cls-2 {
        fill: #2936be;
      }

      .cls-3 {
        fill: #3b7fe0;
      }

      .cls-4 {
        fill: #0d1d93;
      }

      .cls-5 {
        fill: #92b4ea;
      }
    </style>
  </defs>
  <path class="cls-2" d="m22.45,56.38c0-.7.12-1.37-.02-1.98-.57-2.43-2.75-3.71-5.25-3.06-2.38.62-3.94,2.15-4.57,4.55-.11.42-.28.57-.71.56-.77-.03-1.54,0-2.32,0-1.07,0-1.69-.72-1.52-1.79.12-.81.26-1.63.43-2.43.1-.46.01-.63-.49-.63-1.63.02-3.26,0-4.89,0-.77,0-1.17-.29-1.21-.87-.04-.62.47-1.25,1.11-1.34.21-.03.42-.02.63-.02,5.63,0,11.26,0,16.89,0,.26,0,.53,0,.78-.06.63-.13,1.09-.75,1.03-1.34-.05-.54-.44-.81-1.21-.81-6.84,0-4.09,0-10.93,0-.21,0-.42,0-.63,0-.82,0-1.19-.3-1.21-.92-.02-.66.51-1.25,1.2-1.29.4-.03.81-.02,1.21-.02,4.32,0-.96,0,3.35,0,.62,0,1.1-.22,1.4-.75.41-.7,0-1.42-.8-1.45-.53-.02-1.05,0-1.58,0-6.98,0-4.37,0-11.35,0-.16,0-.32,0-.47,0-.49,0-.91-.14-1.07-.67-.15-.51.11-1.16.63-1.37.38-.15.81-.21,1.22-.21,6.26-.01,2.93,0,9.2,0,4.47,0,8.95,0,13.42,0,.66,0,1.17-.19,1.48-.79.33-.66,0-1.31-.74-1.4-.19-.02-.39-.02-.58-.02-8.91,0-8.23,0-17.14,0-.05,0-.11,0-.16,0-.74,0-1.08-.21-1.17-.72-.1-.59.22-1.18.8-1.39.29-.1.62-.12.93-.12,4.03,0-1.52-.01,2.51,0,.44,0,.68-.08.84-.55.29-.86.96-1.31,1.87-1.39.16-.01.32,0,.47,0,9.42,0,8.42,0,17.84,0,.18,0,.35,0,.53,0,1.05.04,1.64.74,1.48,1.79-.21,1.28-.44,2.56-.67,3.84-.86,4.89-1.73,9.77-2.59,14.66-.24,1.39-1.04,2.07-2.46,2.07-5.07,0,.28,0-4.79,0-.24,0-.47-.03-.74-.05Z"/>
  <path class="cls-3" d="m54.26,17.39c.57-.53,1.11-1.03,1.64-1.54.28-.27.51-.32.8-.01.68.73,1.37,1.45,2.07,2.17.3.31.27.57-.04.85-.45.42-.86.87-1.33,1.27-.32.27-.29.47-.08.79,1.48,2.32,2.35,4.87,2.45,7.62.2,6.12-2.27,10.89-7.39,14.28-.34.22-.7.4-1.04.61-.26.16-.44.11-.61-.15-.54-.84-1.08-1.68-1.64-2.51-.27-.4.06-.48.3-.6,2.35-1.2,4.19-2.96,5.34-5.34,2.09-4.34,1.81-8.59-1.03-12.47-2.82-3.86-6.77-5.51-11.51-4.8-6.95,1.03-11.43,7.71-9.9,14.56.06.25.11.51.18.83-.22.02-.38.05-.55.05-.91,0-1.82-.02-2.74.01-.44.01-.62-.14-.7-.57-.58-3.23-.29-6.37,1.06-9.37,1.85-4.13,4.92-6.97,9.17-8.53.67-.25,1.38-.41,2.07-.58.29-.07.42-.21.41-.5,0-.53,0-1.05,0-1.58,0-.37.16-.54.54-.54,1.46,0,2.91,0,4.37,0,.38,0,.55.16.55.53,0,.51,0,1.02,0,1.53,0,.28.07.46.39.52,2.69.52,5.08,1.68,7.24,3.48Z"/>
  <path class="cls-4" d="m40.56,37.36c1.53,0,3.05,0,4.58,0,.79,0,1.1.28,1.28,1.03.05.2.13.4.25.57,1.16,1.8,2.33,3.59,3.5,5.38.05.07.08.17.15.21.85.6.72,1.41.56,2.27-.48,2.59-.92,5.18-1.39,7.77-.19,1.05-.79,1.54-1.85,1.55-.67,0-1.33,0-2,0-.33,0-.43-.11-.4-.43.3-3.08-2.38-5.24-5.56-4.32-2.2.64-3.63,2.13-4.3,4.31-.11.34-.25.45-.58.44-.7-.02-1.4.01-2.1-.01-.9-.03-1.34-.57-1.18-1.46.82-4.68,1.66-9.36,2.48-14.04.11-.64.21-1.28.34-1.92.18-.87.79-1.36,1.67-1.37,1.53,0,3.05,0,4.58,0Zm6.25,8.11c-.11-.25-.16-.38-.22-.5-.68-1.37-1.4-2.71-2.02-4.1-.41-.91-1.06-1.24-1.99-1.23-1.96,0-3.93.02-5.89,0-.5,0-.67.19-.74.65-.25,1.52-.53,3.04-.8,4.56-.11.62-.09.64.57.64,3.46,0,6.91,0,10.37,0,.2,0,.41,0,.73,0Z"/>
  <path class="cls-1" d="m21.4,55.5c0,2.43-2.34,4.62-4.76,4.49-2.19-.12-3.47-1.98-2.9-4.21.5-1.99,2.5-3.51,4.55-3.47,1.84.04,3.12,1.35,3.11,3.19Zm-4.29,2.7c1.28,0,2.47-1.13,2.48-2.38,0-1-.72-1.73-1.72-1.72-1.27,0-2.46,1.16-2.45,2.41,0,.97.72,1.69,1.7,1.7Z"/>
  <path class="cls-1" d="m40.92,52.3c2.09.02,3.49,1.68,3.16,3.74-.33,2.04-2.07,3.69-4.11,3.93-2.46.28-4.14-1.74-3.51-4.22.49-1.93,2.48-3.46,4.46-3.45Zm-1.06,5.89c1.27,0,2.44-1.16,2.45-2.41,0-.98-.74-1.7-1.76-1.69-1.27.02-2.44,1.19-2.42,2.43.02.96.75,1.67,1.73,1.67Z"/>
  <path class="cls-1" d="m46.11,29.48c0,1.22-.77,2.07-1.82,2.16-1.08.09-2.13-.62-2.12-1.65.01-1.27-.53-2.33-.94-3.45-.71-1.92-1.46-3.83-2.18-5.74-.06-.15-.01-.35-.02-.52.16.1.36.16.46.3,1.58,2.2,3.15,4.42,4.74,6.62.18.25.46.48.74.62.75.39,1.09,1,1.15,1.66Z"/>
  <path class="cls-2" d="m43.88,10.59c-.67,0-1.33,0-2,0-.87,0-1.22-.35-1.22-1.2,0-.46,0-.91,0-1.37.01-.64.35-1.05.98-1.06,1.49-.03,2.98-.03,4.47,0,.67.01,1,.41,1.01,1.09.01.49.02.98,0,1.47-.03.71-.38,1.05-1.09,1.07-.72.02-1.44,0-2.16,0Z"/>
  <path class="cls-1" d="m57.9,14.93c.14.1.25.16.33.25.46.48.92.97,1.39,1.44.34.34.06.52-.16.72-.22.2-.42.53-.77.14-.41-.45-.86-.88-1.26-1.33-.12-.14-.28-.42-.22-.5.18-.26.45-.47.7-.7Z"/>
  <path class="cls-5" d="m46.81,45.46c-.32,0-.52,0-.73,0-3.46,0-6.91,0-10.37,0-.66,0-.68-.02-.57-.64.27-1.52.55-3.04.8-4.56.07-.46.24-.66.74-.65,1.96.03,3.93.02,5.89,0,.93,0,1.58.33,1.99,1.23.62,1.39,1.34,2.74,2.02,4.1.06.12.11.25.22.5Z"/>
  <path class="cls-5" d="m17.11,58.2c-.97,0-1.69-.73-1.7-1.7,0-1.24,1.18-2.4,2.45-2.41,1.01,0,1.73.72,1.72,1.72,0,1.24-1.2,2.39-2.48,2.38Z"/>
  <path class="cls-5" d="m39.86,58.19c-.98,0-1.71-.7-1.73-1.67-.02-1.24,1.15-2.42,2.42-2.43,1.01-.01,1.76.71,1.76,1.69,0,1.25-1.18,2.41-2.45,2.41Z"/>
</svg>