<?xml version="1.0" encoding="UTF-8"?>
<svg id="Layer_1" data-name="Layer 1" xmlns="http://www.w3.org/2000/svg" viewBox="0 0 60 60">
  <defs>
    <style>
      .cls-1, .cls-2, .cls-3, .cls-4, .cls-5, .cls-6 {
        stroke-width: 0px;
      }

      .cls-2 {
        fill: #2936be;
      }

      .cls-3 {
        fill: #3c3b3e;
      }

      .cls-4 {
        fill: #0d1d93;
      }

      .cls-5 {
        fill: #92b4ea;
      }

      .cls-6 {
        fill: #fff;
      }
    </style>
  </defs>
  <g>
    <path class="cls-1" d="m45.97,33.44h-4.42v-14.6c0-6.37-5.18-11.56-11.56-11.56s-11.56,5.18-11.56,11.56v14.6h-4.42v-14.6c0-8.81,7.17-15.97,15.97-15.97s15.97,7.17,15.97,15.97v14.6Z"/>
    <rect class="cls-2" x="7.27" y="26.51" width="45.46" height="30.74" rx="1.71" ry="1.71"/>
  </g>
  <path class="cls-4" d="m52.73,55.54v-16.74c-13.85,11.72-33.82,16.12-45.13,17.74.31.43.81.71,1.38.71h42.04c.95,0,1.71-.77,1.71-1.71Z"/>
  <path class="cls-6" d="m33.76,37.25c0-2.07-1.68-3.76-3.76-3.76s-3.76,1.68-3.76,3.76c0,1.24.6,2.33,1.52,3.02l-1.2,8.5h6.86l-1.2-8.5c.92-.68,1.52-1.78,1.52-3.02Z"/>
  <path class="cls-5" d="m8.7,29.75v5.88c.16-2.5,1.36-7.93,8.88-7.93h-6.82c-1.13,0-2.05.92-2.05,2.05Z"/>
  <path class="cls-3" d="m26.57,48.76s5.09-1.44,5.66-8.5l1.2,8.5h-6.86Z"/>
</svg>