<?xml version="1.0" encoding="UTF-8"?>
<svg id="Layer_1" data-name="Layer 1" xmlns="http://www.w3.org/2000/svg" viewBox="0 0 60 60">
  <defs>
    <style>
      .cls-1 {
        fill: none;
      }

      .cls-1, .cls-2, .cls-3, .cls-4, .cls-5, .cls-6, .cls-7, .cls-8, .cls-9, .cls-10, .cls-11, .cls-12, .cls-13, .cls-14, .cls-15 {
        stroke-width: 0px;
      }

      .cls-3 {
        fill: #2936be;
      }

      .cls-4 {
        fill: #94bfbd;
      }

      .cls-5 {
        fill: #3c817d;
      }

      .cls-6 {
        fill: #3b7fe0;
      }

      .cls-7 {
        fill: #0d1d93;
      }

      .cls-8 {
        fill: #cbcac8;
      }

      .cls-9 {
        fill: #c9c9c6;
      }

      .cls-10 {
        fill: #decab4;
      }

      .cls-11 {
        fill: #c8af97;
      }

      .cls-12 {
        fill: #92b4ea;
      }

      .cls-13 {
        fill: #303030;
      }

      .cls-14 {
        fill: #efd7bc;
      }

      .cls-15 {
        fill: #e2e6e3;
      }
    </style>
  </defs>
  <g>
    <polygon class="cls-1" points="17.48 50.66 15.99 51.59 15.75 52.38 16.11 51.76 17.48 50.66"/>
    <polygon class="cls-1" points="20.22 52.38 20.89 51.09 18.27 50.6 19.64 52.03 20.22 52.38"/>
    <path class="cls-3" d="m6.09,59.72c-.07-.36-.18-.71-.26-1.07-.09-.36-.21-.7-.3-1.05-.13-.34-.21-.68-.35-1-.13-.32-.24-.63-.37-.92-.12-.29-.26-.56-.37-.81-.13-.24-.24-.48-.36-.67-.11-.2-.21-.37-.3-.51-.17-.28-.29-.44-.29-.44,0,0,.17.1.43.31.26.22.61.56.98,1.01.17.23.37.48.54.77.18.28.36.59.52.92.17.33.31.68.45,1.03.12.36.25.73.35,1.11.08.38.2.76.24,1.14.01.07.02.15.03.22h9.83l.41-4.33-1.54-3.05.23-.79,1.5-.93.79-.06,2.61.49-.66,1.29-1.54,3.05.39,4.33h9.74c.06-.31.14-.62.21-.93.1-.38.23-.75.35-1.11.15-.36.29-.71.45-1.03.16-.33.33-.64.52-.92.17-.29.37-.54.54-.77.37-.46.71-.8.98-1.01.26-.21.43-.31.43-.31,0,0-.11.16-.29.44-.09.14-.19.31-.3.51-.12.2-.22.43-.36.67-.11.26-.25.52-.37.81-.13.29-.24.6-.37.92-.13.32-.22.67-.35,1-.09.35-.21.7-.3,1.05-.05.23-.12.46-.17.68h6.33c-.93-3.58-3.87-11.78-11.65-13.45l-6.4,4.29-6.02-4.16S1.69,47.9-.32,59.76h6.42s0-.03,0-.04Z"/>
    <polygon class="cls-8" points="20.22 52.38 19.64 52.03 18.27 50.6 17.48 50.66 16.11 51.76 15.75 52.38 17.29 55.44 16.88 59.76 19.08 59.76 18.68 55.44 20.22 52.38"/>
    <path class="cls-7" d="m6.77,58.4c-.1-.38-.23-.75-.35-1.11-.15-.36-.29-.71-.45-1.03-.16-.33-.33-.64-.52-.92-.17-.29-.37-.54-.54-.77-.37-.46-.71-.8-.98-1.01-.26-.21-.43-.31-.43-.31,0,0,.11.16.29.44.09.14.19.31.3.51.12.2.22.43.36.67.11.25.25.52.37.81.13.29.24.6.37.92.13.32.22.67.35,1,.09.35.21.7.3,1.05.08.36.19.71.26,1.07,0,.01,0,.03,0,.04h.94c-.01-.07-.02-.15-.03-.22-.05-.38-.16-.76-.24-1.14Z"/>
    <path class="cls-5" d="m30.26,58.03c.13-.34.21-.68.35-1,.13-.32.24-.63.37-.92.12-.29.26-.56.37-.81.13-.24.24-.48.36-.67.11-.2.21-.37.3-.51.17-.28.29-.44.29-.44,0,0-.17.1-.43.31-.26.22-.61.56-.98,1.01-.17.23-.37.48-.54.77-.18.28-.36.59-.52.92-.16.33-.31.68-.45,1.03-.12.36-.25.73-.35,1.11-.07.31-.15.62-.21.93h.97c.06-.23.12-.45.17-.68.09-.36.21-.7.3-1.05Z"/>
    <g>
      <rect class="cls-10" x="13.38" y="39.88" width="9.07" height="10.73"/>
      <polygon class="cls-11" points="13.37 45.52 22.72 40.28 13.36 38.13 13.37 45.52"/>
      <g>
        <polygon class="cls-4" points="20.22 52.38 20.89 51.09 18.27 50.6 19.64 52.03 20.22 52.38"/>
        <polygon class="cls-4" points="17.48 50.66 15.99 51.59 15.75 52.38 16.11 51.76 17.48 50.66"/>
      </g>
      <polygon class="cls-6" points="12.58 45.11 18.06 50.61 14.61 53.39 11.51 46.32 12.58 45.11"/>
      <polygon class="cls-6" points="23.4 45.11 18.06 50.61 21.63 53.5 24.47 46.32 23.4 45.11"/>
      <g>
        <path class="cls-10" d="m6.41,26.69c0,8.06,5.04,14.62,11.3,14.8V14.81c-6.16.2-11.3,3.94-11.3,11.89Z"/>
        <path class="cls-14" d="m18.24,14.8c-.18,0-.35,0-.53,0v26.68c.09,0,.18,0,.26,0,6.39,0,11.57-6.63,11.57-14.8s-4.92-11.9-11.3-11.9Z"/>
      </g>
      <path class="cls-13" d="m30.31,24.51c-.28-3.66-1.77-6.3-1.77-6.3,1-4.45-3.16-5.69-7.55-5.79-4.05-.1-8.3.77-8.85.97-.6.22-1.43.29-2.09.31-.61.02-1.07,0-1.07,0,.02.1.12.33.22.55.1.23.2.44.2.44-.12.01-.33-.05-.58-.14-.89-.33-2.32-1.1-2.32-1.1-.16,1.19.13,2.26.45,3.02.32.76.69,1.23.69,1.23-.26.05-.99-.26-.99-.26.21.99.42,1.45.42,1.45-1.56,1.14-1.92,4.43-1.95,7l2.68,3.12.92-2.24s.04,0,.06,0c.65-2.36,1.2-5.92,1.2-5.92,6.98,4.48,13.4.9,14.51.21.21-.23.32-.37.32-.37.4,4.48,3.43,7.52,3.43,7.52-.25-1.9,1.93-3.4,2.09-3.51,0,0,.02-.01.02-.01,0-.06-.02-.12-.03-.19Z"/>
      <path class="cls-14" d="m28.38,27.62c-.25,1.71.23,3.19,1.07,3.31.84.12,1.72-1.16,1.97-2.87.25-1.71-.23-3.19-1.07-3.31-.84-.12-1.72,1.16-1.97,2.87Z"/>
      <path class="cls-10" d="m7.19,27.48c.16,1.68-.33,3.11-1.1,3.19-.77.08-1.52-1.23-1.69-2.91-.16-1.68.33-3.11,1.1-3.19.77-.07,1.52,1.23,1.69,2.92Z"/>
    </g>
  </g>
  <g>
    <polygon class="cls-15" points="45.31 43.88 40.87 46.53 37.01 46.46 32.25 44.53 32.18 44.6 31.89 44.89 36.17 57.14 36.61 53.38 36.8 51.65 38.99 51.65 40.55 51.65 41.11 53.78 41.83 56.53 45.1 45.2 45.42 44.06 45.31 43.88"/>
    <g>
      <path class="cls-2" d="m24.97,23.66s-.47,10.95-3.14,14.88c0,0,14.62,9,34.58-.27,0,0-3.74-5.79-2.58-13.46l-28.86-1.15Z"/>
      <rect class="cls-10" x="33.58" y="36.92" width="10.46" height="12.38"/>
      <polygon class="cls-11" points="33.57 43.43 44.35 37.38 33.56 34.91 33.57 43.43"/>
      <g>
        <path class="cls-10" d="m25.54,21.72c0,9.3,5.81,16.85,13.03,17.06V8.01c-7.1.23-13.03,4.54-13.03,13.71Z"/>
        <path class="cls-14" d="m39.19,8c-.2,0-.41,0-.61.01v30.77c.1,0,.2,0,.3,0,7.37,0,13.34-7.64,13.34-17.07s-5.67-13.72-13.04-13.72Z"/>
      </g>
      <g>
        <polygon class="cls-7" points="40.55 51.65 42.09 48.24 38.99 45.8 38.99 51.65 40.55 51.65"/>
        <polygon class="cls-7" points="38.99 45.8 38.85 45.68 35.44 48.75 36.8 51.65 38.99 51.65 38.99 45.8"/>
      </g>
      <polygon class="cls-9" points="33.57 42.79 38.85 45.68 34.28 51.75 31.69 44.32 33.57 42.79"/>
      <polygon class="cls-9" points="44.13 42.61 45.5 43.81 43.41 51.07 38.85 45.68 44.13 42.61"/>
      <path class="cls-6" d="m50.16,19.64s-1.29-.74-3.37-.74l-.87.06c-1.65,0-3.15.16-4.06.29l-.83.06s-.6.16-1.28.29c-.45.06-.94.12-1.35.13-.4-.01-.9-.07-1.35-.13-.68-.12-1.28-.29-1.28-.29l-.83-.06c-.92-.13-2.42-.3-4.07-.29l-.87-.06c-2.08,0-3.37.74-3.37.74v.09s0,0,0,0l.02.08-.7.78,1.47.32.09.03s-1.4,4.97,3.09,6.02c.44.12.94.2,1.52.2.04,0,.07,0,.11,0,5.37-.07,5.38-4.96,5.38-4.96h1.57s0,4.89,5.38,4.96c.04,0,.07,0,.11,0,.58,0,1.08-.07,1.52-.2,4.49-1.05,3.09-6.02,3.09-6.02l.09-.03.65.03.12-1.13.02-.08s0,0,0,0v-.09Zm-17.96,6.36c-4.38-.03-3.4-5.15-3.4-5.15,1.41-1.29,4.75-.81,5.82-.37,1.08.44,1.48,1.83,1.48,1.93s.47,3.62-3.9,3.59Zm12.17,0c-4.38.03-3.91-3.49-3.91-3.59s.4-1.49,1.48-1.93c1.08-.44,4.41-.91,5.82.37,0,0,.98,5.11-3.4,5.15Z"/>
      <path class="cls-2" d="m44.35,13.26s1.38,6.54,8.61,7.92c0,0,3.1-17.56-12.74-17.56s-16.52,10.33-16.52,17.56c0,0,11.7,1.03,20.66-7.92Z"/>
      <path class="cls-14" d="m50.88,22.79c-.29,1.97.26,3.68,1.23,3.82.97.14,1.98-1.34,2.27-3.31.29-1.97-.26-3.68-1.23-3.82-.97-.14-1.98,1.34-2.27,3.31Z"/>
      <path class="cls-10" d="m26.45,22.63c.19,1.94-.38,3.59-1.27,3.67-.89.09-1.76-1.42-1.94-3.36-.19-1.94.38-3.59,1.27-3.67.89-.09,1.76,1.42,1.94,3.36Z"/>
    </g>
    <path class="cls-12" d="m48.05,51.82l-2.39.17,1.87,1.53-2.94,6.24h6.8c.06-.33.16-.66.23-.99.11-.44.26-.86.4-1.28.17-.41.33-.82.52-1.19.18-.38.38-.74.59-1.06.19-.33.43-.62.62-.89.42-.53.82-.92,1.13-1.17.3-.25.5-.36.5-.36,0,0-.13.18-.33.51-.1.16-.22.36-.34.59-.13.22-.26.5-.41.78-.13.29-.29.6-.43.94-.15.33-.28.69-.43,1.06-.15.37-.25.77-.4,1.16-.11.4-.25.8-.35,1.21-.05.23-.12.46-.18.7h7.26c-1.04-3.98-4.2-12.66-12.22-15.1l.83.34-.34,6.82Z"/>
    <path class="cls-12" d="m24.88,58.58c-.1-.41-.24-.81-.35-1.21-.15-.39-.25-.79-.4-1.16-.15-.37-.28-.73-.43-1.06-.14-.34-.3-.64-.43-.94-.15-.28-.28-.55-.41-.78-.13-.23-.25-.43-.34-.59-.2-.32-.33-.51-.33-.51,0,0,.19.11.5.36.3.25.7.64,1.12,1.17.2.27.43.56.62.89.21.33.41.68.59,1.06.19.38.35.78.52,1.19.14.42.29.85.4,1.28.09.44.23.87.28,1.31,0,.06.02.11.02.17h6.86l-3.65-6.24,2.05-1.7-2.73-.17.34-5.97,1.72-.92c-3.07.83-11.15,4.04-13.05,15h7.37c-.08-.4-.2-.79-.29-1.19Z"/>
    <path class="cls-6" d="m25.96,58.29c-.11-.44-.26-.86-.4-1.28-.17-.41-.33-.82-.52-1.19-.18-.38-.38-.74-.59-1.06-.19-.33-.43-.62-.62-.89-.42-.53-.82-.92-1.12-1.17-.31-.25-.5-.36-.5-.36,0,0,.13.18.33.51.1.16.22.36.34.59.13.23.26.5.41.78.13.29.29.6.43.94.15.33.28.69.43,1.06.15.37.25.77.4,1.16.11.4.25.8.35,1.21.09.4.21.79.29,1.19h1.09c0-.06-.02-.11-.02-.17-.06-.44-.19-.87-.28-1.31Z"/>
    <path class="cls-6" d="m53.05,57.85c.15-.39.25-.79.4-1.16.15-.37.28-.73.43-1.06.14-.34.3-.64.43-.94.15-.28.28-.55.41-.78.13-.23.25-.43.34-.59.2-.32.33-.51.33-.51,0,0-.19.11-.5.36-.3.25-.7.64-1.13,1.17-.2.27-.43.56-.62.89-.21.33-.41.68-.59,1.06-.19.38-.35.78-.52,1.19-.14.42-.29.85-.4,1.28-.07.33-.16.66-.23.99h1.13c.06-.23.12-.46.18-.7.1-.41.24-.81.35-1.21Z"/>
    <polygon class="cls-6" points="36.8 51.65 36.61 53.38 36.17 57.14 37.09 59.76 37.5 59.76 38.99 59.76 38.99 51.65 36.8 51.65"/>
    <polygon class="cls-7" points="41.11 53.78 40.55 51.65 38.99 51.65 38.99 59.76 40.24 59.76 40.9 59.76 41.83 56.53 41.11 53.78"/>
    <polygon class="cls-6" points="48.39 45 47.56 44.66 45.5 43.81 45.42 44.06 45.1 45.2 41.83 56.53 40.9 59.76 41.98 59.76 44.6 59.76 47.54 53.52 45.67 51.99 48.05 51.82 48.39 45"/>
    <polygon class="cls-6" points="36.17 57.14 31.89 44.89 31.77 44.55 31.69 44.32 30.85 44.77 29.13 45.68 28.79 51.65 31.52 51.82 29.47 53.52 33.12 59.76 36.04 59.76 37.09 59.76 36.17 57.14"/>
  </g>
</svg>