<?xml version="1.0" encoding="UTF-8"?>
<svg id="Layer_1" data-name="Layer 1" xmlns="http://www.w3.org/2000/svg" viewBox="0 0 60 60">
  <defs>
    <style>
      .cls-1 {
        fill: #2936be;
      }

      .cls-1, .cls-2, .cls-3 {
        stroke-width: 0px;
      }

      .cls-2 {
        fill: #0d1d93;
      }

      .cls-3 {
        fill: #92b4ea;
      }
    </style>
  </defs>
  <path class="cls-1" d="m27.14,12.5c.63,1.07,1.25,2.13,1.86,3.19.06.1.03.27,0,.39-.31,1.12.27,2.22,1.36,2.54,1.05.31,2.14-.28,2.49-1.34.45-1.36-.68-2.75-2.19-2.58.25.36.48.68.71,1.01.32.44.31.82-.03,1.08-.34.25-.74.17-1.05-.25-2.26-3.08-3.76-6.47-4.1-10.31-.11-1.19,0-2.37.5-3.48.68-1.5,1.9-2.27,3.5-2.44.58-.06,1.19-.05,1.77.04,1.89.32,2.93,1.55,3.41,3.33.38,1.41.4,2.85.2,4.28-.19,1.39-.53,2.76-.79,4.14-.02.12-.02.28.05.38,2.96,4.38,5.91,8.77,8.89,13.13.7,1.03.96,2.08.71,3.31-.61,2.98-1.17,5.97-1.75,8.95-.57,2.94-1.14,5.89-1.71,8.83-.73,3.77-1.46,7.55-2.21,11.32-.22,1.13-1.18,1.81-2.31,1.61-2.13-.38-4.26-.81-6.39-1.22-2.98-.58-5.97-1.16-8.95-1.74-3.77-.74-7.55-1.46-11.32-2.21-1.14-.23-1.8-1.2-1.59-2.36.41-2.27.87-4.54,1.31-6.8.66-3.4,1.33-6.8,1.99-10.2.8-4.13,1.6-8.27,2.4-12.4.19-.99.71-1.76,1.55-2.32,3.82-2.57,7.64-5.15,11.46-7.73.09-.06.19-.11.25-.14Zm-7.63,24.6c0,4.12,3.32,7.45,7.44,7.45,4.07,0,7.4-3.33,7.44-7.44.03-4.06-3.36-7.45-7.47-7.45-4.08,0-7.41,3.34-7.42,7.44Zm14.03-25.71c.12-.54.24-1.01.34-1.5.33-1.74.57-3.48.29-5.25-.18-1.1-.54-2.12-1.61-2.68-2.24-1.19-4.74.17-5.01,2.68-.17,1.59.12,3.11.57,4.62.21.69.47,1.37.72,2.07,1.61-.78,3.14-.75,4.71.06Z"/>
  <path class="cls-2" d="m38.06,14.7c1.76,1.19,3.53,2.38,5.29,3.57,1.04.7,2.08,1.41,3.12,2.1.89.59,1.38,1.41,1.58,2.45.73,3.83,1.48,7.66,2.23,11.49.69,3.57,1.38,7.13,2.08,10.7.44,2.27.87,4.53,1.33,6.8.29,1.43-.32,2.41-1.75,2.7-2.53.51-5.06.98-7.59,1.47-1.3.25-2.6.51-3.97.77.15-.79.29-1.52.43-2.26.89-4.59,1.78-9.18,2.67-13.77.68-3.52,1.37-7.05,2.05-10.57.12-.59.24-1.19.31-1.79.14-1.18-.19-2.25-.86-3.24-2.26-3.34-4.51-6.68-6.76-10.02-.08-.11-.15-.23-.22-.35.02-.02.04-.04.06-.05Z"/>
  <path class="cls-3" d="m20.85,37.1c0-3.37,2.73-6.1,6.11-6.1,3.36,0,6.11,2.76,6.09,6.12-.02,3.34-2.74,6.07-6.05,6.07-3.42,0-6.15-2.7-6.15-6.1Zm5.17,1.26c0-.52-.23-.82-.63-.84-.42-.02-.69.28-.72.81-.03.66.19,1.22.71,1.64.2.16.27.31.22.57-.09.47.11.81.49.88.39.08.66-.14.81-.61.04-.14.16-.32.28-.35.79-.21,1.3-.69,1.45-1.48.16-.85-.15-1.55-.85-2.07-.34-.25-.68-.51-1-.78-.25-.21-.33-.5-.15-.8.19-.31.49-.3.79-.19.37.14.48.43.46.81-.03.42.22.71.58.74.38.03.67-.19.73-.6.11-.76-.13-1.39-.73-1.87-.18-.14-.24-.27-.19-.5.1-.5-.1-.84-.49-.92-.39-.08-.68.17-.82.65-.04.13-.18.3-.3.33-.8.21-1.27.72-1.42,1.5-.15.79.15,1.44.76,1.94.36.29.74.56,1.1.86.25.21.32.51.15.8-.18.31-.48.3-.78.19-.34-.13-.47-.38-.44-.72Z"/>
</svg>