<?xml version="1.0" encoding="UTF-8"?>
<svg id="Layer_1" data-name="Layer 1" xmlns="http://www.w3.org/2000/svg" viewBox="0 0 85 85">
  <defs>
    <style>
      .cls-1 {
        fill: #423b96;
      }

      .cls-1, .cls-2 {
        stroke-width: 0px;
      }

      .cls-2 {
        fill: #2ebbb1;
      }
    </style>
  </defs>
  <g>
    <path class="cls-1" d="m44.08,79.95c0,.94,0,1.85,0,2.77,0,.29-.03.59-.11.87-.19.69-.7,1.01-1.55,1-.69,0-1.26-.36-1.35-1.03-.12-.85-.09-1.71-.12-2.57,0-.11,0-.22,0-.33,0-.77,0-.76-.78-.8-3.5-.19-6.9-.78-10.09-2.32-1.54-.75-2.89-1.73-3.74-3.29-.07-.14-.35-.23-.54-.23-1.05-.02-2.09,0-3.14-.01-.73,0-1.37-.49-1.54-1.11-.18-.68.06-1.41.65-1.72.34-.18.77-.25,1.16-.27.97-.04,1.95,0,2.92-.03.17,0,.42-.1.49-.23.97-1.85,2.64-2.86,4.47-3.63,1.02-.43,2.08-.75,3.17-1.14-.66-.91-1.33-1.8-1.96-2.71-2.41-3.45-4.48-7.08-5.78-11.11-.8-2.5-1.22-5.06-1.04-7.68.15-2.25.72-4.4,1.74-6.42.43-.85,1.28-1.17,2.07-.8.8.37,1.11,1.28.7,2.15-.61,1.3-1.05,2.64-1.29,4.06-.42,2.52-.08,4.96.64,7.37,1.11,3.73,3.01,7.06,5.2,10.24,2.35,3.41,5.02,6.55,7.92,9.5.1.1.21.2.37.34,1.13-1.23,2.26-2.44,3.37-3.65.32-.35.62-.72.93-1.09.48-.57,1.06-.76,1.81-.63,2.53.45,5,1.08,7.24,2.42,1.15.69,2.14,1.54,2.77,2.76.07.14.34.25.52.25,1.01.03,2.02,0,3.03.02,1.08.03,1.7.6,1.71,1.53,0,.92-.64,1.57-1.6,1.58-1.05.01-2.09,0-3.14,0-.17,0-.43.08-.5.21-1.02,1.9-2.74,2.92-4.62,3.72-2.17.93-4.45,1.43-6.78,1.69-1.05.12-2.11.21-3.21.31Zm-1.13-3.12c1.88.03,4.21-.18,6.5-.69,1.88-.42,3.72-.97,5.33-2.09,1.59-1.11,1.59-2.07.02-3.19-1.63-1.16-3.52-1.67-5.43-2.15-.5-.12-.75.06-1.06.39-1.5,1.61-3.01,3.21-4.56,4.78-.84.86-1.65.86-2.49,0-1.58-1.61-3.12-3.26-4.67-4.9-.22-.23-.39-.42-.78-.3-.78.25-1.6.38-2.38.64-1.38.45-2.73.98-3.8,2.02-.82.8-.87,1.46.02,2.18.79.64,1.67,1.21,2.6,1.59,3.26,1.35,6.71,1.72,10.69,1.71Z"/>
    <path class="cls-1" d="m31.47,45.65c.03-6.16,5.03-11.11,11.26-11.01,5.98.09,10.97,4.97,10.82,11.32-.15,5.99-5.01,10.84-11.24,10.74-6.04-.11-10.78-4.97-10.83-11.05Zm18.97.02c0-4.41-3.51-7.92-7.92-7.92-4.41,0-7.92,3.51-7.92,7.92,0,4.41,3.51,7.92,7.92,7.92,4.41,0,7.92-3.51,7.92-7.92Z"/>
    <path class="cls-1" d="m59.92,45.6c-.07,3.85-1.19,7.41-2.89,10.79-1.01,2.01-2.24,3.91-3.38,5.84-.32.54-.84.74-1.46.68-.6-.06-1.03-.37-1.25-.93-.23-.6-.08-1.14.27-1.66,1.4-2.09,2.65-4.26,3.65-6.57,1.16-2.68,1.98-5.44,1.92-8.38-.15-6.99-5.19-12.64-11.72-13.78-3.94-.69-7.56.12-10.84,2.42-.63.44-1.36.49-1.9.14-.53-.35-.83-.97-.61-1.63.13-.38.42-.78.75-1.02,2.07-1.51,4.38-2.5,6.91-2.94,5.18-.9,9.87.25,13.98,3.52,3.48,2.77,5.59,6.39,6.29,10.8.14.9.2,1.82.29,2.73Z"/>
    <path class="cls-2" d="m50.43,45.66c0,4.41-3.51,7.92-7.92,7.92-4.41,0-7.92-3.5-7.92-7.92,0-4.41,3.51-7.92,7.92-7.92,4.41,0,7.92,3.51,7.92,7.92Z"/>
  </g>
  <g>
    <path class="cls-2" d="m50.16,11.8c-1.25-.65-2.26-1.48-2.63-2.94-.52-2.08.65-4.21,2.77-4.92,1.9-.64,4.18.4,4.97,2.26.86,2.03.09,4.26-1.81,5.26-.2.1-.39.23-.58.34-.91,0-1.81,0-2.72,0Z"/>
    <path class="cls-1" d="m50.16,11.8c.91,0,1.81,0,2.72,0,0,3.67,0,7.35,0,11.07h-2.72v-11.07Z"/>
    <path class="cls-1" d="m52.86,25.7v2.65h-2.67v-2.65h2.67Z"/>
    <path class="cls-2" d="m31.25,11.8c-1.25-.65-2.26-1.48-2.63-2.94-.52-2.08.65-4.21,2.77-4.92,1.9-.64,4.18.4,4.97,2.26.86,2.03.09,4.26-1.81,5.26-.2.1-.39.23-.58.34-.91,0-1.81,0-2.72,0Z"/>
    <path class="cls-1" d="m31.25,11.8c.91,0,1.81,0,2.72,0,0,3.67,0,7.35,0,11.07h-2.72v-11.07Z"/>
    <path class="cls-1" d="m33.95,25.7v2.65h-2.67v-2.65h2.67Z"/>
    <path class="cls-2" d="m40.54,8.46c-1.25-.65-2.26-1.48-2.63-2.94-.52-2.08.65-4.21,2.77-4.92,1.9-.64,4.18.4,4.97,2.26.86,2.03.09,4.26-1.81,5.26-.2.1-.39.23-.58.34-.91,0-1.81,0-2.72,0Z"/>
    <path class="cls-1" d="m40.54,8.46c.91,0,1.81,0,2.72,0,0,3.67,0,7.35,0,11.07h-2.72v-11.07Z"/>
    <path class="cls-1" d="m43.24,22.36v2.65h-2.67v-2.65h2.67Z"/>
  </g>
</svg>