<?xml version="1.0" encoding="UTF-8"?>
<svg id="Layer_1" data-name="Layer 1" xmlns="http://www.w3.org/2000/svg" viewBox="0 0 85 85">
  <defs>
    <style>
      .cls-1 {
        fill: #423b96;
      }

      .cls-1, .cls-2 {
        stroke-width: 0px;
      }

      .cls-2 {
        fill: #2ebbb1;
      }
    </style>
  </defs>
  <path class="cls-1" d="m69.71,25.06c8.9,2.01,15.15,9.82,15.04,19.04-.1,8.23-5.73,16.07-15.04,18.34,0,1.58,0,3.17,0,4.76,0,3.44,0,6.89,0,10.33,0,4.31-2.93,7.21-7.26,7.21-11.58,0-23.16,0-34.74,0-4.45,0-7.29-2.86-7.3-7.33,0-6.63,0-13.26,0-19.97h-7.89c-.29-1.12-.57-2.19-.86-3.31-1,.59-1.94,1.15-2.86,1.69-2.45-2.45-4.87-4.86-7.33-7.32.53-.9,1.09-1.84,1.69-2.87-1.11-.28-2.17-.56-3.25-.83v-10.32c1.05-.27,2.12-.54,3.25-.83-.59-1-1.15-1.95-1.68-2.85,2.45-2.44,4.87-4.85,7.35-7.33.85.5,1.79,1.07,2.82,1.68.2-.81.44-1.56.57-2.32.13-.73.41-1,1.22-.98,2.28.07,4.56.03,6.96.03,0-.32,0-.61,0-.91,0-4.67,0-9.34,0-14.01C20.43,3.02,23.37.01,27.32,0c11.84-.02,23.67-.02,35.51,0,3.92,0,6.86,3.01,6.88,6.98.03,5.69,0,11.39,0,17.08,0,.31,0,.62,0,.99Zm-5.48,37.81c-.31-.05-.62-.1-.93-.14-10.05-1.22-17.39-9.95-16.84-20.04.03-.55.1-1.1.16-1.72h-15.2v-19.06h27.35v3.76c1.85-.36,3.66-.72,5.46-1.07h2.68v-10.89H23.21v57.31h43.72v-8.16h-2.69Zm-13.25-11.81c.66-1.6,1.67-2.84,3.15-3.56.98-.48,2.08-.73,3.15-1.03,1.4-.39,2.82-.73,4.44-1.14-.36-.33-.55-.51-.75-.69-1.34-1.23-2.08-2.77-2.19-4.57-.07-1.16-.07-2.34-.01-3.5.16-3.36,3.1-6.29,6.48-6.49,3.39-.2,6.48,2.19,7.03,5.57.21,1.31.17,2.66.16,4-.01,2.01-.8,3.69-2.29,5.05-.19.17-.34.39-.57.67,2.02.51,3.9.98,5.77,1.45,2.05.52,3.56,1.71,4.55,3.57.11.2.22.41.34.64,3.4-6.37,1.86-15.19-4.63-20.3-5.95-4.69-14.88-4.48-20.74.58-6.28,5.42-7.06,13.79-3.89,19.75Zm15.99-3.52c0-1.15.03-2.23-.01-3.31-.02-.49.14-.75.57-1,1.5-.88,2.25-2.19,2.19-3.96-.03-.8.01-1.59-.01-2.39-.06-2.37-1.83-4.06-4.25-4.08-2.01-.02-3.89,1.89-3.95,4.06-.03.97-.02,1.94,0,2.9.03,1.13.35,2.29,1.34,2.81,1.46.77,1.5,1.93,1.39,3.25-.03.31-.03.63,0,.94.07.57-.09.82-.72.97-2.41.55-4.81,1.17-7.19,1.81-1.59.43-2.59,1.5-2.95,3.1-.24,1.09-.24,2.14.83,2.88,1.45.99,2.79,2.18,4.35,2.96,6.34,3.16,14.03,1.72,18.89-3.43.26-.27.46-.72.47-1.09.06-2.48-1.13-3.97-3.57-4.58-2.43-.6-4.85-1.21-7.36-1.84Zm0-36.64c0-1.43.03-2.77,0-4.1-.06-2.26-1.81-4.06-4-4.06-11.94-.01-23.89-.01-35.83,0-1.95,0-3.77,1.56-3.93,3.48-.13,1.54-.03,3.11-.03,4.68h43.79Zm-43.8,62.92c0,1.52-.06,2.97.01,4.42.1,2.09,1.91,3.76,4.02,3.76,11.89,0,23.77,0,35.66,0,1.91,0,3.68-1.25,3.93-3.12.23-1.66.05-3.37.05-5.06H23.17ZM55.97,24.66h-21.8v13.59h13.03c2.05-5.07,3.68-7.55,7.21-9.9,1.5-1,1.85-2.08,1.56-3.69Zm-35.58,24.18c-4.49.98-8.18-.2-10.71-4.01-2.11-3.17-2.25-6.64-.29-9.92,2.48-4.16,6.3-5.49,10.99-4.48v-5.8h-5.65s-.08.05-.09.07c-.24.91-.47,1.81-.71,2.72-.2.77-1.55,1.33-2.25.93-.83-.48-1.65-.97-2.44-1.44-1.45,1.46-2.85,2.88-4.29,4.33.43.72.9,1.49,1.36,2.27.51.85-.02,2.15-.97,2.4-.9.24-1.8.47-2.69.71v5.99s.06.08.08.08c.91.24,1.82.47,2.72.71.78.21,1.34,1.55.93,2.25-.48.83-.98,1.64-1.37,2.29,1.47,1.51,2.87,2.95,4.28,4.41.73-.43,1.49-.88,2.25-1.33.84-.49,2.09-.04,2.38.91.27.89.48,1.8.73,2.72h5.74v-5.8Zm.03-9.17c0-1.88-.02-3.76.01-5.64,0-.46-.1-.71-.57-.86-2.76-.94-5.94.03-7.65,2.35-1.88,2.56-1.85,5.76.07,8.32,1.7,2.27,4.89,3.21,7.6,2.26.4-.14.56-.34.55-.79-.03-1.88-.01-3.76-.01-5.64Z"/>
  <path class="cls-2" d="m77.92,16.57c1.25.64,2.26,1.48,2.62,2.94.52,2.08-.65,4.2-2.76,4.91-1.9.64-4.17-.4-4.96-2.25-.86-2.02-.09-4.26,1.81-5.25.2-.1.39-.23.58-.34.9,0,1.81,0,2.71,0Z"/>
  <path class="cls-2" d="m12.22,68.17c-1.25-.64-2.26-1.48-2.62-2.93-.52-2.08.65-4.2,2.77-4.91,1.9-.64,4.18.4,4.96,2.25.86,2.03.09,4.26-1.81,5.25-.2.1-.39.23-.58.34-.9,0-1.81,0-2.71,0Z"/>
  <path class="cls-1" d="m77.92,16.57c-.9,0-1.81,0-2.71,0,0-3.67,0-7.34,0-11.06h2.71v11.06Z"/>
  <path class="cls-1" d="m12.22,68.17c.9,0,1.81,0,2.71,0,0,3.67,0,7.34,0,11.06h-2.71v-11.06Z"/>
  <path class="cls-1" d="m75.22,2.68V.05h2.66v2.62h-2.66Z"/>
  <path class="cls-1" d="m14.92,82.05v2.65h-2.67v-2.65h2.67Z"/>
  <path class="cls-2" d="m64.24,24.61c-1.8.35-3.61.71-5.46,1.07v-3.76h-27.35v19.06h15.2c-.06.63-.13,1.17-.16,1.72-.55,10.09,6.8,18.82,16.84,20.04.31.04.62.09.93.14,0,1.81,0,3.62,0,5.42H25.95V16.46h38.29v8.15Zm-20.56,19.18h-12.24v2.63h12.24v-2.63Zm0,5.47h-12.24v2.64h12.24v-2.64Zm-12.27,8.1h12.24v-2.63h-12.24v2.63Zm0,5.47h12.24v-2.63h-12.24v2.63Z"/>
  <path class="cls-2" d="m55.97,24.66c.29,1.61-.06,2.69-1.56,3.69-3.53,2.35-5.16,4.83-7.21,9.9h-13.03v-13.59h21.8Z"/>
  <path class="cls-1" d="m43.67,43.79v2.63h-12.24v-2.63h12.24Z"/>
  <path class="cls-1" d="m43.67,49.26v2.64h-12.24v-2.64h12.24Z"/>
  <path class="cls-1" d="m31.4,57.36v-2.63h12.24v2.63h-12.24Z"/>
  <path class="cls-1" d="m31.4,62.82v-2.63h12.24v2.63h-12.24Z"/>
  <path class="cls-1" d="m36.88,8.16v-2.65h10.89v2.65h-10.89Z"/>
  <path class="cls-1" d="m53.26,5.51v2.65h-2.67v-2.65h2.67Z"/>
  <path class="cls-1" d="m39.63,76.57h10.87v2.67h-10.87v-2.67Z"/>
  <path class="cls-1" d="m31.33,79.26h-2.64v-2.67h2.64v2.67Z"/>
  <path class="cls-1" d="m58.8,76.58h2.66v2.67h-2.66v-2.67Z"/>
</svg>