<?xml version="1.0" encoding="UTF-8"?>
<svg id="Layer_1" data-name="Layer 1" xmlns="http://www.w3.org/2000/svg" xmlns:xlink="http://www.w3.org/1999/xlink" viewBox="0 0 60 60">
  <defs>
    <style>
      .cls-1 {
        fill: url(#linear-gradient);
      }

      .cls-1, .cls-2, .cls-3 {
        stroke-width: 0px;
      }

      .cls-2 {
        fill: url(#linear-gradient-2);
      }

      .cls-3 {
        fill: #453f96;
      }
    </style>
    <linearGradient id="linear-gradient" x1="-14.83" y1="48.95" x2=".35" y2="48.95" gradientUnits="userSpaceOnUse">
      <stop offset="0" stop-color="#443d95"/>
      <stop offset="1" stop-color="#30bbb1"/>
    </linearGradient>
    <linearGradient id="linear-gradient-2" x1="8.2" y1="30" x2="42.97" y2="30" xlink:href="#linear-gradient"/>
  </defs>
  <path class="cls-1" d="m-11.37,48.55l-2.39.17,1.87,1.53-2.94,6.24h6.8c.06-.33.16-.66.23-.99.11-.44.26-.86.4-1.28.17-.41.33-.82.52-1.19.18-.38.38-.74.59-1.06.19-.33.43-.62.62-.89.42-.53.82-.92,1.13-1.17.3-.25.5-.36.5-.36,0,0-.13.18-.33.51-.1.16-.22.36-.34.59-.13.22-.26.5-.41.78-.13.29-.29.6-.43.94-.15.33-.28.69-.43,1.06-.15.37-.25.77-.4,1.16-.11.4-.25.8-.35,1.21-.05.23-.12.46-.18.7H.35c-1.04-3.98-4.2-12.66-12.22-15.1l.83.34-.34,6.82h.01Z"/>
  <path class="cls-2" d="m26.35,13.3c.6,1.02,1.2,2.04,1.78,3.05.06.1.03.26,0,.37-.3,1.07.26,2.12,1.3,2.43,1,.3,2.05-.27,2.38-1.28.43-1.3-.65-2.63-2.09-2.47.24.34.46.65.68.97.31.42.3.78-.03,1.03-.33.24-.71.16-1-.24-2.16-2.94-3.6-6.19-3.92-9.86-.11-1.14,0-2.27.48-3.33.65-1.43,1.82-2.17,3.35-2.33.55-.06,1.14-.05,1.69.04,1.81.31,2.8,1.48,3.26,3.18.36,1.35.38,2.72.19,4.09-.18,1.33-.51,2.64-.76,3.96-.02.11-.02.27.05.36,2.83,4.19,5.65,8.39,8.5,12.55.67.98.92,1.99.68,3.16-.58,2.85-1.12,5.71-1.67,8.56-.54,2.81-1.09,5.63-1.63,8.44-.7,3.6-1.4,7.22-2.11,10.82-.21,1.08-1.13,1.73-2.21,1.54-2.04-.36-4.07-.77-6.11-1.17-2.85-.55-5.71-1.11-8.56-1.66-3.6-.71-7.22-1.4-10.82-2.11-1.09-.22-1.72-1.15-1.52-2.26.39-2.17.83-4.34,1.25-6.5.63-3.25,1.27-6.5,1.9-9.75.76-3.95,1.53-7.91,2.29-11.86.18-.95.68-1.68,1.48-2.22,3.65-2.46,7.3-4.92,10.96-7.39.09-.06.18-.11.24-.13h-.02Zm-7.3,23.52c0,3.94,3.17,7.12,7.11,7.12s7.08-3.18,7.11-7.11c.03-3.88-3.21-7.12-7.14-7.12s-7.08,3.19-7.09,7.11h0Zm13.41-24.58c.11-.52.23-.97.33-1.43.32-1.66.54-3.33.28-5.02-.17-1.05-.52-2.03-1.54-2.56-2.14-1.14-4.53.16-4.79,2.56-.16,1.52.11,2.97.54,4.42.2.66.45,1.31.69,1.98,1.54-.75,3-.72,4.5.06h0Z"/>
  <path class="cls-3" d="m36.79,15.4c1.68,1.14,3.38,2.28,5.06,3.41.99.67,1.99,1.35,2.98,2.01.85.56,1.32,1.35,1.51,2.34.7,3.66,1.42,7.32,2.13,10.99.66,3.41,1.32,6.82,1.99,10.23.42,2.17.83,4.33,1.27,6.5.28,1.37-.31,2.3-1.67,2.58-2.42.49-4.84.94-7.26,1.41-1.24.24-2.49.49-3.8.74.14-.76.28-1.45.41-2.16.85-4.39,1.7-8.78,2.55-13.17.65-3.37,1.31-6.74,1.96-10.11.11-.56.23-1.14.3-1.71.13-1.13-.18-2.15-.82-3.1-2.16-3.19-4.31-6.39-6.46-9.58-.08-.11-.14-.22-.21-.33.02-.02.04-.04.06-.05Z"/>
  <path class="cls-3" d="m20.33,36.82c0-3.22,2.61-5.83,5.84-5.83s5.84,2.64,5.82,5.85c-.02,3.19-2.62,5.8-5.78,5.8s-5.88-2.58-5.88-5.83h0Zm4.94,1.2c0-.5-.22-.78-.6-.8-.4-.02-.66.27-.69.77-.03.63.18,1.17.68,1.57.19.15.26.3.21.54-.09.45.11.77.47.84.37.08.63-.13.77-.58.04-.13.15-.31.27-.33.76-.2,1.24-.66,1.39-1.42.15-.81-.14-1.48-.81-1.98-.33-.24-.65-.49-.96-.75-.24-.2-.32-.48-.14-.76.18-.3.47-.29.76-.18.35.13.46.41.44.77-.03.4.21.68.55.71.36.03.64-.18.7-.57.11-.73-.12-1.33-.7-1.79-.17-.13-.23-.26-.18-.48.1-.48-.1-.8-.47-.88-.37-.08-.65.16-.78.62-.04.12-.17.29-.29.32-.76.2-1.21.69-1.36,1.43-.14.76.14,1.38.73,1.85.34.28.71.54,1.05.82.24.2.31.49.14.76-.17.3-.46.29-.75.18-.33-.12-.45-.36-.42-.69h0Z"/>
</svg>