<?xml version="1.0" encoding="UTF-8"?>
<svg id="Layer_1" data-name="Layer 1" xmlns="http://www.w3.org/2000/svg" xmlns:xlink="http://www.w3.org/1999/xlink" viewBox="0 0 94.19 98.98">
  <defs>
    <style>
      .cls-1, .cls-2, .cls-3 {
        stroke-width: 0px;
      }

      .cls-1, .cls-4 {
        fill: none;
      }

      .cls-5, .cls-3 {
        fill: #f5f6f7;
      }

      .cls-5, .cls-6, .cls-4 {
        stroke: #070808;
        stroke-miterlimit: 10;
        stroke-width: .96px;
      }

      .cls-2 {
        fill: #fff;
      }

      .cls-6 {
        fill: url(#Degradado_sin_nombre_18);
      }
    </style>
    <linearGradient id="Degradado_sin_nombre_18" data-name="Degradado sin nombre 18" x1="44.16" y1="17.69" x2="44.16" y2="45.47" gradientUnits="userSpaceOnUse">
      <stop offset="0" stop-color="#fff"/>
      <stop offset=".22" stop-color="#fff" stop-opacity=".76"/>
      <stop offset=".6" stop-color="#fff" stop-opacity=".36"/>
      <stop offset=".87" stop-color="#fff" stop-opacity=".1"/>
      <stop offset="1" stop-color="#fff" stop-opacity="0"/>
    </linearGradient>
  </defs>
  <circle class="cls-2" cx="69.89" cy="86.11" r="1.39"/>
  <path class="cls-2" d="m24.33,84.21c-.76,0-1.39.62-1.39,1.39s.62,1.39,1.39,1.39,1.39-.62,1.39-1.39-.62-1.39-1.39-1.39Z"/>
  <rect class="cls-2" x="33.33" y="56.11" width="12.59" height="5.44"/>
  <rect class="cls-2" x="48.24" y="56.11" width="12.59" height="5.44"/>
  <rect class="cls-2" x="48.24" y="34.04" width="12.59" height="5.16"/>
  <path class="cls-2" d="m84.45,24.98c0,.76.62,1.39,1.39,1.39s1.39-.62,1.39-1.39-.62-1.39-1.39-1.39-1.39.62-1.39,1.39Z"/>
  <path class="cls-2" d="m57.02,29.08h-28.66v37.44h37.44V29.08h-8.78Zm6.12,11.29v22.34c0,.63-.52,1.15-1.15,1.15h-29.81c-.63,0-1.15-.52-1.15-1.15v-29.81c0-.63.52-1.15,1.15-1.15h29.81c.63,0,1.15.52,1.15,1.15v7.46h0Z"/>
  <path class="cls-2" d="m10.46,68.04c-.73,0-1.34.6-1.34,1.34s.6,1.34,1.34,1.34,1.34-.6,1.34-1.34-.6-1.34-1.34-1.34Z"/>
  <circle class="cls-2" cx="69.89" cy="9.99" r="1.39"/>
  <path class="cls-1" d="m52.26,5.17c.76,0,1.39-.62,1.39-1.39s-.62-1.39-1.39-1.39-1.39.62-1.39,1.39.62,1.39,1.39,1.39Z"/>
  <path class="cls-2" d="m25.72,8.38c0-.76-.62-1.39-1.39-1.39s-1.39.62-1.39,1.39.62,1.39,1.39,1.39,1.39-.62,1.39-1.39Z"/>
  <path class="cls-2" d="m9.91,53.31c-.73,0-1.34.6-1.34,1.34s.6,1.34,1.34,1.34,1.34-.6,1.34-1.34-.6-1.34-1.34-1.34Z"/>
  <path class="cls-2" d="m5.18,24.98c0-.76-.62-1.39-1.39-1.39s-1.39.62-1.39,1.39.62,1.39,1.39,1.39,1.39-.62,1.39-1.39Z"/>
  <rect class="cls-2" x="33.33" y="34.04" width="12.59" height="5.16"/>
  <g>
    <g>
      <rect class="cls-5" x="13.09" y="31.62" width="61.65" height="50.47" rx="6.12" ry="6.12"/>
      <path class="cls-5" d="m74.73,68.41v7.14c0,3.61-2.74,6.54-6.12,6.54H19.21c-3.38,0-6.12-2.93-6.12-6.54v-7.14h61.65Z"/>
      <path class="cls-5" d="m2.79,54.62h5.52c.08,0,.15.07.15.15v6.17c0,.08-.07.15-.15.15H2.79c-.44,0-.8-.36-.8-.8v-4.87c0-.44.36-.8.8-.8Z"/>
      <path class="cls-5" d="m79.51,54.62h5.52c.44,0,.8.36.8.8v4.87c0,.44-.36.8-.8.8h-5.52c-.08,0-.15-.07-.15-.15v-6.17c0-.08.07-.15.15-.15Z"/>
      <path class="cls-5" d="m74.73,46.15h6.98c1.26,0,2.28,1.02,2.28,2.28v18.58c0,1.26-1.02,2.28-2.28,2.28h-6.98v-23.14h0Z"/>
      <path class="cls-5" d="m13.09,46.15v23.14c-.82,0-1.62-.11-2.38-.31-3.96-1.05-6.88-4.66-6.88-8.95v-4.62c0-2.56,1.04-4.87,2.71-6.55,1.14-1.14,2.57-1.98,4.17-2.4.76-.2,1.55-.31,2.38-.31Z"/>
      <g>
        <path class="cls-5" d="m28.28,57.35c-3.05,0-5.54-2.48-5.54-5.54v-2.85c0-3.05,2.48-5.54,5.54-5.54s5.54,2.48,5.54,5.54v2.85c0,3.05-2.48,5.54-5.54,5.54Z"/>
        <path class="cls-5" d="m28.28,55.98c-2.3,0-4.17-1.87-4.17-4.17v-2.85c0-2.3,1.87-4.17,4.17-4.17s4.17,1.87,4.17,4.17v2.85c0,2.3-1.87,4.17-4.17,4.17Z"/>
        <path class="cls-5" d="m31.1,48.96v2.85c0,1.55-1.27,2.81-2.81,2.81-1.04,0-1.95-.57-2.44-1.42-.24-.41-.37-.89-.37-1.4v-2.85c0-1.55,1.27-2.81,2.81-2.81.77,0,1.48.32,1.99.83.14.14.26.29.37.46.29.44.46.97.46,1.53Z"/>
        <path class="cls-5" d="m31.1,48.96v2.85c0,1.55-1.27,2.81-2.81,2.81-1.04,0-1.95-.57-2.44-1.42l4.8-5.78c.29.44.46.97.46,1.53Z"/>
      </g>
      <g>
        <path class="cls-5" d="m59.75,57.35c-3.05,0-5.54-2.48-5.54-5.54v-2.85c0-3.05,2.48-5.54,5.54-5.54s5.54,2.48,5.54,5.54v2.85c0,3.05-2.48,5.54-5.54,5.54Z"/>
        <path class="cls-5" d="m59.75,55.98c-2.3,0-4.17-1.87-4.17-4.17v-2.85c0-2.3,1.87-4.17,4.17-4.17s4.17,1.87,4.17,4.17v2.85c0,2.3-1.87,4.17-4.17,4.17Z"/>
        <path class="cls-5" d="m62.56,48.96v2.85c0,1.55-1.27,2.81-2.81,2.81-1.04,0-1.95-.57-2.44-1.42-.24-.41-.37-.89-.37-1.4v-2.85c0-1.55,1.27-2.81,2.81-2.81.77,0,1.48.32,1.99.83.14.14.26.29.37.46.29.44.46.97.46,1.53Z"/>
        <path class="cls-5" d="m62.56,48.96v2.85c0,1.55-1.27,2.81-2.81,2.81-1.04,0-1.95-.57-2.44-1.42l4.8-5.78c.29.44.46.97.46,1.53Z"/>
      </g>
      <rect class="cls-5" x="42.8" y="16.54" width="2.23" height="15.08"/>
      <rect class="cls-5" x="34.65" y="82.09" width="18.49" height="5.01" rx=".62" ry=".62"/>
      <rect class="cls-5" x="34.65" y="87.03" width="18.49" height="5.01" rx=".62" ry=".62"/>
      <path class="cls-5" d="m19.56,77.11c0,.81-.66,1.47-1.47,1.47s-1.47-.66-1.47-1.47.66-1.47,1.47-1.47,1.47.66,1.47,1.47Z"/>
      <path class="cls-5" d="m19.56,36.32c0,.81-.66,1.47-1.47,1.47s-1.47-.66-1.47-1.47.66-1.47,1.47-1.47,1.47.66,1.47,1.47Z"/>
      <path class="cls-5" d="m71.33,77.11c0,.81-.66,1.47-1.47,1.47s-1.47-.66-1.47-1.47.66-1.47,1.47-1.47,1.47.66,1.47,1.47Z"/>
      <path class="cls-5" d="m71.33,36.32c0,.81-.66,1.47-1.47,1.47s-1.47-.66-1.47-1.47.66-1.47,1.47-1.47,1.47.66,1.47,1.47Z"/>
      <path class="cls-5" d="m13.09,46.15v23.14c-.82,0-1.62-.11-2.38-.31v-22.52c.76-.2,1.55-.31,2.38-.31Z"/>
      <path class="cls-5" d="m74.73,46.15v23.14c.82,0,1.62-.11,2.38-.31v-22.52c-.76-.2-1.55-.31-2.38-.31Z"/>
      <circle class="cls-5" cx="44.06" cy="14.5" r="4.99"/>
      <path class="cls-5" d="m46.63,17.07c-1.42,1.42-3.72,1.41-5.13,0-1.42-1.42-1.42-3.72,0-5.13,1.42-1.42,3.72-1.42,5.13,0,1.42,1.42,1.42,3.72,0,5.13Z"/>
      <path class="cls-5" d="m46.63,17.07c-1.42,1.42-3.72,1.41-5.13,0l5.13-5.13c1.42,1.42,1.42,3.72,0,5.13Z"/>
      <path class="cls-5" d="m44.06,76.31c-10.13,0-14.41-5.07-16.07-8.09-.49-.89-.47-1.95.05-2.82.52-.87,1.43-1.4,2.45-1.4h27.06c1.01,0,1.92.52,2.44,1.38.52.87.54,1.92.07,2.81-1.62,3.03-5.86,8.11-16.01,8.11Z"/>
      <path class="cls-5" d="m59.04,66.78c.02.26-.04.52-.17.78-.28.53-.65,1.12-1.12,1.73-2.04,2.65-6.05,5.66-13.69,5.66s-11.67-3.02-13.74-5.66c-.47-.6-.84-1.19-1.13-1.72-.14-.26-.2-.53-.18-.79.04-.75.64-1.41,1.48-1.41h27.06c.84,0,1.45.66,1.48,1.41Z"/>
      <path class="cls-5" d="m59.04,66.78h-30.03c.04-.75.64-1.41,1.48-1.41h27.06c.84,0,1.45.66,1.48,1.41Z"/>
    </g>
    <path class="cls-6" d="m73.31,44.86v-7.12c0-2.59-2.1-4.69-4.69-4.69H19.7c-2.59,0-4.69,2.1-4.69,4.69v9.26h58.3v-2.15Z"/>
    <g>
      <g>
        <path class="cls-3" d="m75.8,3.56h-3.77v3.29c-1.14.21-2.2.65-3.13,1.28l-2.5-2.5-2.66,2.66,2.57,2.57c-.39.65-.69,1.36-.89,2.11h-3.44v3.77h3.29c.21,1.14.65,2.2,1.28,3.13l-2.18,2.18,2.66,2.66,2.26-2.26c.83.49,1.75.85,2.74,1.04v3.29h3.77v-3.44c1.05-.28,2.02-.76,2.86-1.39l2.51,2.51,2.66-2.66-2.72-2.72c.38-.72.65-1.51.81-2.34h3.29v-3.77h-3.44c-.2-.75-.5-1.46-.89-2.11l2.57-2.57-2.66-2.66-2.5,2.5c-.76-.51-1.6-.89-2.5-1.13v-3.44Zm1.26,11.61c0,1.9-1.55,3.45-3.45,3.45s-3.45-1.55-3.45-3.45,1.55-3.45,3.45-3.45,3.45,1.55,3.45,3.45Z"/>
        <path class="cls-4" d="m75.8,3.56h-3.77v3.29c-1.14.21-2.2.65-3.13,1.28l-2.5-2.5-2.66,2.66,2.57,2.57c-.39.65-.69,1.36-.89,2.11h-3.44v3.77h3.29c.21,1.14.65,2.2,1.28,3.13l-2.18,2.18,2.66,2.66,2.26-2.26c.83.49,1.75.85,2.74,1.04v3.29h3.77v-3.44c1.05-.28,2.02-.76,2.86-1.39l2.51,2.51,2.66-2.66-2.72-2.72c.38-.72.65-1.51.81-2.34h3.29v-3.77h-3.44c-.2-.75-.5-1.46-.89-2.11l2.57-2.57-2.66-2.66-2.5,2.5c-.76-.51-1.6-.89-2.5-1.13v-3.44Zm1.26,11.61c0,1.9-1.55,3.45-3.45,3.45s-3.45-1.55-3.45-3.45,1.55-3.45,3.45-3.45,3.45,1.55,3.45,3.45Z"/>
      </g>
      <g>
        <path class="cls-3" d="m87.47,24.81h-1.88v1.65c-.57.11-1.1.33-1.56.64l-1.25-1.25-1.33,1.33,1.29,1.29c-.19.33-.34.68-.45,1.06h-1.72v1.88h1.65c.11.57.33,1.1.64,1.56l-1.09,1.09,1.33,1.33,1.13-1.13c.42.25.88.43,1.37.52v1.65h1.88v-1.72c.52-.14,1.01-.38,1.43-.7l1.26,1.26,1.33-1.33-1.36-1.36c.19-.36.33-.75.41-1.17h1.65v-1.88h-1.72c-.1-.38-.25-.73-.45-1.06l1.29-1.29-1.33-1.33-1.25,1.25c-.38-.25-.8-.44-1.25-.56v-1.72Zm.63,5.81c0,.95-.77,1.73-1.73,1.73s-1.73-.77-1.73-1.73.77-1.73,1.73-1.73,1.73.77,1.73,1.73Z"/>
        <path class="cls-4" d="m87.47,24.81h-1.88v1.65c-.57.11-1.1.33-1.56.64l-1.25-1.25-1.33,1.33,1.29,1.29c-.19.33-.34.68-.45,1.06h-1.72v1.88h1.65c.11.57.33,1.1.64,1.56l-1.09,1.09,1.33,1.33,1.13-1.13c.42.25.88.43,1.37.52v1.65h1.88v-1.72c.52-.14,1.01-.38,1.43-.7l1.26,1.26,1.33-1.33-1.36-1.36c.19-.36.33-.75.41-1.17h1.65v-1.88h-1.72c-.1-.38-.25-.73-.45-1.06l1.29-1.29-1.33-1.33-1.25,1.25c-.38-.25-.8-.44-1.25-.56v-1.72Zm.63,5.81c0,.95-.77,1.73-1.73,1.73s-1.73-.77-1.73-1.73.77-1.73,1.73-1.73,1.73.77,1.73,1.73Z"/>
      </g>
    </g>
  </g>
</svg>