<?xml version="1.0" encoding="UTF-8"?>
<svg id="Layer_1" data-name="Layer 1" xmlns="http://www.w3.org/2000/svg" xmlns:xlink="http://www.w3.org/1999/xlink" viewBox="0 0 60 60">
  <defs>
    <style>
      .cls-1 {
        fill: url(#linear-gradient);
      }

      .cls-1, .cls-2, .cls-3, .cls-4, .cls-5, .cls-6 {
        stroke-width: 0px;
      }

      .cls-2 {
        fill: url(#linear-gradient-2);
      }

      .cls-4 {
        fill: #3c3b3e;
      }

      .cls-5 {
        fill: #92b4ea;
      }

      .cls-6 {
        fill: #fff;
      }
    </style>
    <linearGradient id="linear-gradient" x1="6.09" y1="43.03" x2="55.6" y2="43.03" gradientUnits="userSpaceOnUse">
      <stop offset="0" stop-color="#443d95"/>
      <stop offset="1" stop-color="#30bbb1"/>
    </linearGradient>
    <linearGradient id="linear-gradient-2" x1="6.45" y1="49.73" y2="49.73" xlink:href="#linear-gradient"/>
  </defs>
  <g>
    <path class="cls-3" d="m48.24,33.84h-4.81v-15.9c0-6.94-5.64-12.59-12.59-12.59s-12.59,5.64-12.59,12.59v15.9h-4.81v-15.9C13.43,8.34,21.24.54,30.82.54s17.39,7.81,17.39,17.39v15.9h.02Z"/>
    <rect class="cls-1" x="6.09" y="26.29" width="49.51" height="33.48" rx="1.86" ry="1.86"/>
  </g>
  <path class="cls-2" d="m55.6,57.91v-18.23c-15.09,12.77-36.84,17.56-49.16,19.32.34.47.88.77,1.5.77h45.79c1.03,0,1.86-.84,1.86-1.86Z"/>
  <path class="cls-6" d="m34.94,37.99c0-2.25-1.83-4.1-4.1-4.1s-4.1,1.83-4.1,4.1c0,1.35.65,2.54,1.66,3.29l-1.31,9.26h7.47l-1.31-9.26c1-.74,1.66-1.94,1.66-3.29h.02Z"/>
  <path class="cls-5" d="m7.64,29.82v6.4c.17-2.72,1.48-8.64,9.67-8.64h-7.43c-1.23,0-2.23,1-2.23,2.23h-.01Z"/>
  <path class="cls-4" d="m27.11,50.53s5.54-1.57,6.16-9.26l1.31,9.26h-7.47Z"/>
</svg>