<?xml version="1.0" encoding="UTF-8"?>
<svg id="Layer_1" data-name="Layer 1" xmlns="http://www.w3.org/2000/svg" viewBox="0 0 50 50">
  <defs>
    <style>
      .cls-1 {
        fill: #727272;
      }

      .cls-1, .cls-2, .cls-3, .cls-4 {
        stroke-width: 0px;
      }

      .cls-2 {
        fill: #0dafe1;
      }

      .cls-3 {
        fill: #d2d2d1;
      }

      .cls-4 {
        fill: #005d86;
      }
    </style>
  </defs>
  <g id="_680_Location_Communication_Essential_Inbox_Interaction" data-name="680, Location, Communication, Essential, Inbox, Interaction">
    <g>
      <path class="cls-4" d="m44.59,33.19h-4.61c2.88-3.34,4.77-7.01,4.77-12.14,0-10.84-8.89-19.56-19.75-19.56S5.25,10.29,5.25,21.05c0,5.13,1.98,8.88,4.77,12.14h-4.61l-4.12,15.32h47.4l-4.12-15.32ZM11.42,21.05c0-7.42,6.09-13.45,13.58-13.45s13.58,6.03,13.58,13.45-6.09,13.45-13.58,13.45-13.58-6.11-13.58-13.45Z"/>
      <path class="cls-4" d="m5.49,33.19h4.61c4.2,4.89,10.29,8.96,14.98,15.32H1.38l4.12-15.32Z"/>
      <path class="cls-2" d="m25,48.51c-4.69-6.36-10.78-10.35-14.98-15.32-2.88-3.34-4.77-7.01-4.77-12.14C5.25,10.21,14.14,1.49,25,1.49s19.75,8.8,19.75,19.56c0,5.13-1.98,8.88-4.77,12.14-4.2,4.89-10.29,8.96-14.98,15.32Zm13.58-27.46c0-7.42-6.09-13.45-13.58-13.45s-13.58,6.03-13.58,13.45,6.09,13.45,13.58,13.45,13.58-6.11,13.58-13.45Z"/>
      <rect class="cls-1" x="22.94" y="13.88" width="4.12" height="3.1"/>
      <polygon class="cls-4" points="17.84 25.04 17.84 13.88 22.94 13.88 22.94 16.89 27.06 16.89 27.06 13.88 32.24 13.88 32.24 28.14 17.84 28.14 17.84 25.04"/>
      <path class="cls-3" d="m27.06,24.06h-9.22v2.04h9.3c.58,0,1.07-.49,1.07-1.06-.08-.57-.58-.98-1.15-.98Z"/>
    </g>
  </g>
</svg>