<?xml version="1.0" encoding="UTF-8"?>
<svg id="Layer_1" data-name="Layer 1" xmlns="http://www.w3.org/2000/svg" viewBox="0 0 50 50">
  <defs>
    <style>
      .cls-1 {
        fill: #0eafe1;
      }

      .cls-1, .cls-2 {
        stroke-width: 0px;
      }

      .cls-2 {
        fill: #005c84;
      }
    </style>
  </defs>
  <path class="cls-2" d="m33.95,17.17c0-3.62-6.74-6.56-15.04-6.56s-15.05,2.94-15.05,6.56v5.27c0,.85.37,1.66,1.05,2.41-.68.75-1.05,1.55-1.05,2.41v5.27c0,.85.37,1.66,1.05,2.41-.68.74-1.05,1.55-1.05,2.41v5.27c0,3.62,6.74,6.56,15.05,6.56s15.04-2.94,15.04-6.56v-5.27c0-.85-.37-1.66-1.05-2.41.68-.75,1.05-1.55,1.05-2.41v-5.27c0-.85-.37-1.66-1.05-2.41.68-.74,1.05-1.56,1.05-2.41v-5.27Zm-15.04-4.67c6.91,0,11.8,2.15,12.91,3.93.16.25.24.5.24.73,0,1.33-2.68,3.14-7.11,4.07-1.76.37-3.79.59-6.04.59s-4.29-.23-6.05-.59c-4.43-.93-7.11-2.75-7.11-4.07,0-.19.06-.39.17-.6.94-1.81,5.89-4.07,12.99-4.07Zm13.15,24.83c0,1.86-5.25,4.67-13.15,4.67s-13.16-2.81-13.16-4.67c0-.19.06-.39.17-.6.1-.2.25-.39.44-.59,2.69,1.77,7.3,2.94,12.54,2.94s9.85-1.17,12.54-2.94c.15.16.27.31.37.46.16.25.24.5.24.73Zm0-10.08c0,.29-.13.61-.37.93-.05.06-.11.13-.16.19-.11.13-.23.25-.38.37-.31.27-.7.54-1.16.8-.1.06-.2.12-.31.17-.01,0-.02.01-.04.02-.12.07-.24.13-.37.19-.13.06-.26.13-.4.18-.78.35-1.7.66-2.73.93-.13.04-.26.07-.39.1-.26.06-.52.13-.8.18h0c-.47.1-.96.19-1.47.26-.2.04-.41.06-.62.09-.21.03-.42.05-.64.08-.15.02-.3.03-.46.04-.18.02-.37.03-.55.04-.21.02-.42.03-.64.04-.26.02-.54.02-.81.03-.28,0-.56.01-.83.01s-.56,0-.83-.01c-.27,0-.54-.01-.81-.03-.21,0-.42-.02-.63-.03-.19-.02-.38-.03-.57-.05-.17-.01-.33-.03-.49-.04-.21-.03-.42-.05-.62-.08-.2-.03-.38-.05-.57-.08-.53-.08-1.04-.16-1.52-.27h0c-.28-.06-.54-.12-.8-.18-.13-.03-.26-.06-.39-.1-.92-.24-1.75-.52-2.47-.83-.18-.08-.36-.16-.52-.23-.11-.05-.22-.1-.32-.16-.08-.04-.14-.08-.21-.11-.17-.08-.33-.18-.49-.27-.16-.09-.3-.18-.44-.28-.41-.28-.74-.56-.98-.85-.08-.08-.14-.17-.2-.26-.19-.28-.28-.55-.28-.8,0-.19.06-.39.17-.6.1-.2.25-.39.44-.59,2.69,1.77,7.3,2.94,12.54,2.94s9.85-1.17,12.54-2.94c.15.16.27.31.37.46.16.25.24.5.24.73Z"/>
  <g>
    <path class="cls-1" d="m45.71,8.39h-1.97c-.16-.56-.38-1.09-.65-1.59l1.39-1.39c.3-.3.3-.8,0-1.1l-1.97-1.97c-.3-.3-.79-.3-1.1,0l-1.39,1.39c-.5-.28-1.03-.49-1.59-.66v-1.97c0-.43-.35-.78-.78-.78h-2.79c-.43,0-.78.35-.78.78v1.97c-.56.16-1.09.38-1.59.66l-1.39-1.39c-.31-.3-.8-.3-1.1,0l-1.97,1.97c-.3.3-.3.8,0,1.1l1.39,1.39c-.28.5-.49,1.03-.65,1.59h-1.97c-.43,0-.78.35-.78.78v2.79c0,.43.35.78.78.78h1.97c.16.56.38,1.09.65,1.59l-1.39,1.39c-.3.3-.3.8,0,1.1l1.97,1.97c.3.3.79.3,1.1,0l1.39-1.39c.5.28,1.03.49,1.59.66v1.97c0,.43.35.78.78.78h2.79c.43,0,.78-.35.78-.78v-1.97c.56-.16,1.09-.38,1.59-.66l1.39,1.39c.31.3.8.3,1.1,0l1.97-1.97c.3-.3.3-.79,0-1.1l-1.39-1.39c.28-.5.49-1.03.66-1.59h1.97c.43,0,.78-.35.78-.78v-2.79c0-.43-.35-.78-.78-.78Zm-9.46,6.87c-2.59,0-4.69-2.11-4.69-4.69s2.1-4.69,4.69-4.69,4.69,2.11,4.69,4.69-2.11,4.69-4.69,4.69Z"/>
    <path class="cls-1" d="m37.07,26.93l-.98-.4c.03-.31.03-.62,0-.93l.98-.41c.21-.09.32-.34.23-.55l-.59-1.4c-.09-.21-.34-.32-.55-.23l-.98.41c-.2-.25-.42-.47-.66-.66l.4-.99c.09-.22-.02-.46-.23-.55l-1.4-.57c-.21-.09-.46.02-.55.23l-.4.99c-.31-.03-.62-.03-.93,0l-.41-.98c-.09-.22-.34-.32-.55-.23l-1.4.59c-.21.09-.32.34-.23.55l.41.98c-.25.2-.47.42-.66.66l-.98-.4c-.22-.09-.46.01-.55.23l-.53,1.29c.03-.18-.02-.37-.16-.51l-1.06-1.06c.21-.38.38-.79.5-1.21h1.5c.33,0,.59-.27.59-.59v-2.12c0-.33-.27-.59-.59-.59h-1.5c-.12-.42-.29-.83-.5-1.21l1.06-1.06c.23-.23.23-.61,0-.84l-1.5-1.5c-.23-.23-.6-.23-.84,0l-1.05,1.05c-.38-.21-.79-.38-1.21-.5v-1.5c0-.33-.27-.59-.59-.59h-2.12c-.33,0-.59.27-.59.59v1.5c-.43.12-.83.29-1.21.5l-1.06-1.05c-.23-.23-.61-.23-.84,0l-1.5,1.5c-.23.23-.23.61,0,.84l1.06,1.06c-.21.38-.38.79-.5,1.21h-1.5c-.33,0-.59.27-.59.59v2.12c0,.33.26.59.59.59h1.5c.12.42.29.83.5,1.21l-1.06,1.06c-.23.23-.23.61,0,.84l1.5,1.5c.23.23.61.23.84,0l1.06-1.06c.38.21.79.38,1.21.5v1.5c0,.33.26.59.59.59h2.12c.33,0,.59-.26.59-.59v-1.5c.42-.12.83-.29,1.21-.5l1.05,1.06c.23.23.61.23.84,0l1.5-1.5s.07-.09.1-.15c-.04.19.05.4.25.48l.98.4c-.03.31-.03.62,0,.93l-.98.41c-.21.09-.32.34-.23.55l.59,1.4c.09.21.34.32.55.23l.98-.41c.2.25.42.47.66.66l-.4.99c-.09.22.02.46.23.55l1.4.57c.22.09.46-.01.55-.23l.4-.99c.31.03.62.03.93,0l.41.98c.09.22.34.32.55.23l1.39-.59c.21-.09.32-.34.23-.55l-.41-.98c.25-.2.47-.42.66-.66l.99.4c.21.09.46-.01.55-.23l.57-1.4c.09-.22-.01-.46-.23-.55Zm-16.99-3.22c-1.97,0-3.57-1.6-3.57-3.57s1.6-3.57,3.57-3.57,3.57,1.6,3.57,3.57-1.6,3.57-3.57,3.57Zm9.45,3.35c-.54-1.3.07-2.79,1.36-3.33,1.3-.54,2.79.07,3.33,1.36.54,1.3-.07,2.79-1.36,3.33-1.3.54-2.79-.07-3.33-1.36Z"/>
  </g>
</svg>