<?xml version="1.0" encoding="UTF-8"?>
<svg id="Layer_1" data-name="Layer 1" xmlns="http://www.w3.org/2000/svg" xmlns:xlink="http://www.w3.org/1999/xlink" viewBox="0 0 60 60">
  <defs>
    <style>
      .cls-1 {
        fill: url(#linear-gradient);
      }

      .cls-1, .cls-2, .cls-3, .cls-4, .cls-5, .cls-6 {
        stroke-width: 0px;
      }

      .cls-2 {
        fill: url(#linear-gradient-2);
      }

      .cls-3 {
        fill: url(#linear-gradient-3);
      }

      .cls-5 {
        fill: #453f96;
      }

      .cls-6 {
        fill: #92b4ea;
      }
    </style>
    <linearGradient id="linear-gradient" x1="-14.83" y1="48.95" x2=".35" y2="48.95" gradientUnits="userSpaceOnUse">
      <stop offset="0" stop-color="#443d95"/>
      <stop offset="1" stop-color="#30bbb1"/>
    </linearGradient>
    <linearGradient id="linear-gradient-2" x1=".21" y1="48.44" x2="33.71" y2="48.44" xlink:href="#linear-gradient"/>
    <linearGradient id="linear-gradient-3" x1="28.2" y1="30.59" x2="59.79" y2="30.59" xlink:href="#linear-gradient"/>
  </defs>
  <path class="cls-1" d="m-11.37,48.55l-2.39.17,1.87,1.53-2.94,6.24h6.8c.06-.33.16-.66.23-.99.11-.44.26-.86.4-1.28.17-.41.33-.82.52-1.19.18-.38.38-.74.59-1.06.19-.33.43-.62.62-.89.42-.53.82-.92,1.13-1.17.3-.25.5-.36.5-.36,0,0-.13.18-.33.51-.1.16-.22.36-.34.59-.13.22-.26.5-.41.78-.13.29-.29.6-.43.94-.15.33-.28.69-.43,1.06-.15.37-.25.77-.4,1.16-.11.4-.25.8-.35,1.21-.05.23-.12.46-.18.7H.35c-1.04-3.98-4.2-12.66-12.22-15.1l.83.34-.34,6.82h.01Z"/>
  <path class="cls-2" d="m22.46,59.54c0-.7.12-1.37-.02-1.98-.57-2.43-2.75-3.71-5.25-3.06-2.38.62-3.94,2.15-4.57,4.55-.11.42-.28.57-.71.56-.77-.03-1.54,0-2.32,0-1.07,0-1.69-.72-1.52-1.79.12-.81.26-1.63.43-2.43.1-.46.01-.63-.49-.63-1.63.02-3.26,0-4.89,0-.77,0-1.17-.29-1.21-.87-.04-.62.47-1.25,1.11-1.34.21-.03.42-.02.63-.02h16.89c.26,0,.53,0,.78-.06.63-.13,1.09-.75,1.03-1.34-.05-.54-.44-.81-1.21-.81h-11.56c-.82,0-1.19-.3-1.21-.92-.02-.66.51-1.25,1.2-1.29.4-.03.81-.02,1.21-.02,4.32,0-.96,0,3.35,0,.62,0,1.1-.22,1.4-.75.41-.7,0-1.42-.8-1.45-.53-.02-1.05,0-1.58,0H1.33c-.49,0-.91-.14-1.07-.67-.15-.51.11-1.16.63-1.37.38-.15.81-.21,1.22-.21,6.26,0,2.93,0,9.2,0h13.42c.66,0,1.17-.19,1.48-.79.33-.66,0-1.31-.74-1.4-.19-.02-.39-.02-.58-.02H7.59c-.74,0-1.08-.21-1.17-.72-.1-.59.22-1.18.8-1.39.29-.1.62-.12.93-.12,4.03,0-1.52,0,2.51,0,.44,0,.68-.08.84-.55.29-.86.96-1.31,1.87-1.39.16,0,.32,0,.47,0h18.37c1.05.04,1.64.74,1.48,1.79-.21,1.28-.44,2.56-.67,3.84-.86,4.89-1.73,9.77-2.59,14.66-.24,1.39-1.04,2.07-2.46,2.07-5.07,0,.28,0-4.79,0-.24,0-.47-.03-.74-.05l.02-.03Z"/>
  <path class="cls-3" d="m54.27,20.55c.57-.53,1.11-1.03,1.64-1.54.28-.27.51-.32.8-.01.68.73,1.37,1.45,2.07,2.17.3.31.27.57-.04.85-.45.42-.86.87-1.33,1.27-.32.27-.29.47-.08.79,1.48,2.32,2.35,4.87,2.45,7.62.2,6.12-2.27,10.89-7.39,14.28-.34.22-.7.4-1.04.61-.26.16-.44.11-.61-.15-.54-.84-1.08-1.68-1.64-2.51-.27-.4.06-.48.3-.6,2.35-1.2,4.19-2.96,5.34-5.34,2.09-4.34,1.81-8.59-1.03-12.47-2.82-3.86-6.77-5.51-11.51-4.8-6.95,1.03-11.43,7.71-9.9,14.56.06.25.11.51.18.83-.22.02-.38.05-.55.05-.91,0-1.82-.02-2.74,0-.44,0-.62-.14-.7-.57-.58-3.23-.29-6.37,1.06-9.37,1.85-4.13,4.92-6.97,9.17-8.53.67-.25,1.38-.41,2.07-.58.29-.07.42-.21.41-.5v-1.58c0-.37.16-.54.54-.54h4.37c.38,0,.55.16.55.53v1.53c0,.28.07.46.39.52,2.69.52,5.08,1.68,7.24,3.48h-.02Z"/>
  <path class="cls-5" d="m40.57,40.52h4.58c.79,0,1.1.28,1.28,1.03.05.2.13.4.25.57,1.16,1.8,2.33,3.59,3.5,5.38.05.07.08.17.15.21.85.6.72,1.41.56,2.27-.48,2.59-.92,5.18-1.39,7.77-.19,1.05-.79,1.54-1.85,1.55h-2c-.33,0-.43-.11-.4-.43.3-3.08-2.38-5.24-5.56-4.32-2.2.64-3.63,2.13-4.3,4.31-.11.34-.25.45-.58.44-.7-.02-1.4,0-2.1,0-.9-.03-1.34-.57-1.18-1.46.82-4.68,1.66-9.36,2.48-14.04.11-.64.21-1.28.34-1.92.18-.87.79-1.36,1.67-1.37h4.58l-.03.02Zm6.25,8.11c-.11-.25-.16-.38-.22-.5-.68-1.37-1.4-2.71-2.02-4.1-.41-.91-1.06-1.24-1.99-1.23-1.96,0-3.93.02-5.89,0-.5,0-.67.19-.74.65-.25,1.52-.53,3.04-.8,4.56-.11.62-.09.64.57.64h11.1v-.02Z"/>
  <path class="cls-4" d="m46.12,32.64c0,1.22-.77,2.07-1.82,2.16-1.08.09-2.13-.62-2.12-1.65,0-1.27-.53-2.33-.94-3.45-.71-1.92-1.46-3.83-2.18-5.74-.06-.15,0-.35-.02-.52.16.1.36.16.46.3,1.58,2.2,3.15,4.42,4.74,6.62.18.25.46.48.74.62.75.39,1.09,1,1.15,1.66h-.01Z"/>
  <path class="cls-5" d="m43.89,13.75h-2c-.87,0-1.22-.35-1.22-1.2v-1.37c0-.64.35-1.05.98-1.06,1.49-.03,2.98-.03,4.47,0,.67.01,1,.41,1.01,1.09,0,.49.02.98,0,1.47-.03.71-.38,1.05-1.09,1.07-.72.02-1.44,0-2.16,0h.01Z"/>
  <path class="cls-6" d="m46.82,48.62h-11.1c-.66,0-.68-.02-.57-.64.27-1.52.55-3.04.8-4.56.07-.46.24-.66.74-.65,1.96.03,3.93.02,5.89,0,.93,0,1.58.33,1.99,1.23.62,1.39,1.34,2.74,2.02,4.1.06.12.11.25.22.5v.02Z"/>
</svg>