<?xml version="1.0" encoding="UTF-8"?>
<svg id="Layer_1" data-name="Layer 1" xmlns="http://www.w3.org/2000/svg" xmlns:xlink="http://www.w3.org/1999/xlink" viewBox="0 0 220 44">
  <defs>
    <style>
      .cls-1 {
        fill: url(#linear-gradient);
      }

      .cls-1, .cls-2, .cls-3 {
        stroke-width: 0px;
      }

      .cls-2 {
        fill: url(#linear-gradient-2);
      }

      .cls-3 {
        fill: #433b97;
      }
    </style>
    <linearGradient id="linear-gradient" x1="25.43" y1="22.1" x2="69.31" y2="22.1" gradientUnits="userSpaceOnUse">
      <stop offset="0" stop-color="#433b97"/>
      <stop offset="1" stop-color="#30bcb2"/>
    </linearGradient>
    <linearGradient id="linear-gradient-2" x1="45.1" y1="21.98" x2="47.73" y2="21.98" xlink:href="#linear-gradient"/>
  </defs>
  <g>
    <path class="cls-1" d="m69.31,23.01c0-2.19-1.8-3.95-3.98-3.95h-5.72s-7.56,0-7.56,0v9.33h5.13c-.52,2.15-2.19,3.71-4.59,4.5l-.59,1.02-4.09,7-3.59-6.15h-.01s-1.51-2.62-1.51-2.62c-3.99-1.99-6.27-5.96-6.27-10,0-6.33,5.36-11.33,11.46-11.33,1.72,0,3.51.44,5.16,1.21,2.21,1.03,4.83.36,6.27-1.61h0c1.91-2.62.91-6.35-2.06-7.65-2.93-1.28-6.29-2.07-9.37-2.12-12.7,0-22.56,9.83-22.56,21.52s9.83,21.39,22.84,21.39c11.64,0,21.04-8.05,21.04-20.5,0-.01,0-.03,0-.04Z"/>
    <path class="cls-2" d="m47.15,24.58c.19.05.38.07.58.07v-5.35c-.2,0-.39.03-.58.07-1.21.29-2.05,1.36-2.05,2.6s.84,2.31,2.05,2.6Z"/>
    <path class="cls-3" d="m47.91,14.37c5.85,0,9.51,6.34,6.59,11.41l-3.61,6.25-2.97,5.1-2.61-4.48h-.01s-3.97-6.88-3.97-6.88c-1.82-3.15-1.1-6.78,1.11-9.09,1.35-1.41,3.25-2.32,5.47-2.32Zm.94,11.46c1.74-.42,3.03-1.98,3.03-3.85s-1.29-3.43-3.03-3.85c-.3-.07-.61-.11-.94-.11-2.19,0-3.96,1.77-3.96,3.96s1.77,3.96,3.96,3.96c.32,0,.64-.04.94-.11Z"/>
  </g>
  <g>
    <path class="cls-3" d="m88.77,24.14c0,4.47-3.38,7.37-7.56,7.37-4.67,0-8.21-3.49-8.21-7.69s3.54-7.73,8.11-7.73c1.87.03,4.03.82,5.25,1.94l-2.16,2.97c-.82-.77-2-1.26-3.09-1.26-2.19,0-4.12,1.8-4.12,4.07,0,2.06,1.65,4.07,4.37,4.07,1.78,0,3.05-.86,3.1-2.26h-3.37v-2.91h7.55c.07.49.12.97.12,1.43Z"/>
    <path class="cls-3" d="m94.55,20.08v2.05h4.67v3.26h-4.67v2.11h5.68v3.66h-9.54v-14.71h9.54v3.63h-5.68Z"/>
    <path class="cls-3" d="m101.76,23.82c0-4.42,3.51-7.77,8.08-7.77s8.08,3.35,8.08,7.77-3.51,7.71-8.09,7.71-8.07-3.33-8.07-7.71Zm12.2-.03c0-2.27-1.79-4.03-4.13-4.03s-4.13,1.75-4.13,4.03,1.79,4.01,4.13,4.01,4.13-1.74,4.13-4.01Z"/>
    <path class="cls-3" d="m119.07,28.66l2.36-2.32c.61.9,1.75,1.45,2.98,1.45.83,0,1.64-.3,1.64-.9,0-.76-1.51-1.42-2.95-2.06-1.86-.8-3.46-2.03-3.46-4.24,0-2.55,2.42-4.36,5.21-4.36,2.25,0,4,1.06,4.57,2.51l-2.25,2.17c-.44-.78-1.57-1.11-2.27-1.11-.8,0-1.38.41-1.38.91,0,.68,1.04.89,2.63,1.56,2.3.97,3.82,2.37,3.82,4.55,0,2.8-2.61,4.55-5.56,4.55-2.42,0-4.62-1.07-5.36-2.69Z"/>
    <path class="cls-3" d="m135.64,20.08v2.05h4.67v3.26h-4.67v2.11h5.68v3.66h-9.54v-14.71h9.54v3.63h-5.68Z"/>
    <path class="cls-3" d="m156.2,16.42v14.88h-1.24l-7.57-7.33v7.19h-3.91v-14.87h1.26l7.54,7.3v-7.17h3.92Z"/>
    <path class="cls-3" d="m168.84,20.09h-3.52v11.06h-3.92v-11.06h-3.53v-3.65h10.97v3.65Z"/>
    <path class="cls-3" d="m178.36,31.16l-3.93-6.39v6.39h-3.91l-.02-14.71h5.59c3.18,0,5.45,2.15,5.45,4.78,0,1.83-1.1,3.37-2.55,4.03l3.94,5.91h-4.57Zm-3.95-8.25h1.6c.83.02,1.59-.57,1.59-1.47s-.77-1.48-1.59-1.48h-1.6v2.95Z"/>
    <path class="cls-3" d="m186.14,24.8l-4.54-8.36h4.43l2.05,4.26,2.04-4.26h4.44l-4.55,8.36v6.35h-3.88v-6.35Z"/>
  </g>
</svg>