<?xml version="1.0" encoding="UTF-8"?>
<svg id="Layer_1" data-name="Layer 1" xmlns="http://www.w3.org/2000/svg" xmlns:xlink="http://www.w3.org/1999/xlink" viewBox="0 0 220 44">
  <defs>
    <style>
      .cls-1 {
        fill: url(#linear-gradient);
      }

      .cls-1, .cls-2, .cls-3, .cls-4 {
        stroke-width: 0px;
      }

      .cls-2 {
        fill: url(#linear-gradient-2);
      }

      .cls-3 {
        fill: #443d95;
      }

      .cls-4 {
        fill: #433b97;
      }
    </style>
    <linearGradient id="linear-gradient" x1="25.43" y1="21.91" x2="69.31" y2="21.91" gradientTransform="translate(0 44) scale(1 -1)" gradientUnits="userSpaceOnUse">
      <stop offset="0" stop-color="#433b97"/>
      <stop offset="1" stop-color="#30bcb2"/>
    </linearGradient>
    <linearGradient id="linear-gradient-2" x1="45.1" y1="22.03" x2="47.73" y2="22.03" gradientTransform="translate(0 44) scale(1 -1)" gradientUnits="userSpaceOnUse">
      <stop offset="0" stop-color="#433b97"/>
      <stop offset="1" stop-color="#30bcb2"/>
    </linearGradient>
  </defs>
  <g>
    <path class="cls-1" d="m69.31,23.01c0-2.19-1.8-3.95-3.98-3.95h-13.28v9.33h5.13c-.52,2.15-2.19,3.71-4.59,4.5l-.59,1.02-4.09,7-3.59-6.15h0l-1.51-2.62c-3.99-1.99-6.27-5.96-6.27-10,0-6.33,5.36-11.33,11.46-11.33,1.72,0,3.51.44,5.16,1.21,2.21,1.03,4.83.36,6.27-1.61h0c1.91-2.62.91-6.35-2.06-7.65-2.93-1.28-6.29-2.07-9.37-2.12-12.7,0-22.56,9.83-22.56,21.52s9.83,21.39,22.84,21.39c11.64,0,21.04-8.05,21.04-20.5v-.04Z"/>
    <path class="cls-2" d="m47.15,24.58c.19.05.38.07.58.07v-5.35c-.2,0-.39.03-.58.07-1.21.29-2.05,1.36-2.05,2.6s.84,2.31,2.05,2.6h0Z"/>
    <path class="cls-4" d="m47.91,14.37c5.85,0,9.51,6.34,6.59,11.41l-3.61,6.25-2.97,5.1-2.61-4.48h0l-3.97-6.88c-1.82-3.15-1.1-6.78,1.11-9.09,1.35-1.41,3.25-2.32,5.47-2.32h0Zm.94,11.46c1.74-.42,3.03-1.98,3.03-3.85s-1.29-3.43-3.03-3.85c-.3-.07-.61-.11-.94-.11-2.19,0-3.96,1.77-3.96,3.96s1.77,3.96,3.96,3.96c.32,0,.64-.04.94-.11Z"/>
  </g>
  <g>
    <path class="cls-4" d="m88.77,24.14c0,4.47-3.38,7.37-7.56,7.37-4.67,0-8.21-3.49-8.21-7.69s3.54-7.73,8.11-7.73c1.87.03,4.03.82,5.25,1.94l-2.16,2.97c-.82-.77-2-1.26-3.09-1.26-2.19,0-4.12,1.8-4.12,4.07,0,2.06,1.65,4.07,4.37,4.07,1.78,0,3.05-.86,3.1-2.26h-3.37v-2.91h7.55c.07.49.12.97.12,1.43h0Z"/>
    <path class="cls-4" d="m94.55,20.08v2.05h4.67v3.26h-4.67v2.11h5.68v3.66h-9.54v-14.71h9.54v3.63s-5.68,0-5.68,0Z"/>
    <path class="cls-4" d="m101.76,23.82c0-4.42,3.51-7.77,8.08-7.77s8.08,3.35,8.08,7.77-3.51,7.71-8.09,7.71-8.07-3.33-8.07-7.71Zm12.2-.03c0-2.27-1.79-4.03-4.13-4.03s-4.13,1.75-4.13,4.03,1.79,4.01,4.13,4.01,4.13-1.74,4.13-4.01Z"/>
    <path class="cls-4" d="m119.07,28.66l2.36-2.32c.61.9,1.75,1.45,2.98,1.45.83,0,1.64-.3,1.64-.9,0-.76-1.51-1.42-2.95-2.06-1.86-.8-3.46-2.03-3.46-4.24,0-2.55,2.42-4.36,5.21-4.36,2.25,0,4,1.06,4.57,2.51l-2.25,2.17c-.44-.78-1.57-1.11-2.27-1.11-.8,0-1.38.41-1.38.91,0,.68,1.04.89,2.63,1.56,2.3.97,3.82,2.37,3.82,4.55,0,2.8-2.61,4.55-5.56,4.55-2.42,0-4.62-1.07-5.36-2.69l.02-.02Z"/>
    <path class="cls-4" d="m135.64,20.08v2.05h4.67v3.26h-4.67v2.11h5.68v3.66h-9.54v-14.71h9.54v3.63s-5.68,0-5.68,0Z"/>
    <path class="cls-4" d="m156.2,16.42v14.88h-1.24l-7.57-7.33v7.19h-3.91v-14.87h1.26l7.54,7.3v-7.17h3.92Z"/>
    <path class="cls-4" d="m168.84,20.09h-3.52v11.06h-3.92v-11.06h-3.53v-3.65h10.97v3.65Z"/>
    <path class="cls-4" d="m178.36,31.16l-3.93-6.39v6.39h-3.91l-.02-14.71h5.59c3.18,0,5.45,2.15,5.45,4.78,0,1.83-1.1,3.37-2.55,4.03l3.94,5.91h-4.57,0Zm-3.95-8.25h1.6c.83.02,1.59-.57,1.59-1.47s-.77-1.48-1.59-1.48h-1.6s0,2.95,0,2.95Z"/>
    <path class="cls-4" d="m186.14,24.8l-4.54-8.36h4.43l2.05,4.26,2.04-4.26h4.44l-4.55,8.36v6.35h-3.88v-6.35h.01Z"/>
  </g>
  <g>
    <path class="cls-3" d="m125.2,36.66h-1.65l-.35.99h-.77l1.61-4.27h.67l1.62,4.27h-.77l-.35-.99h0Zm-1.45-.6h1.24l-.62-1.77-.62,1.77Z"/>
    <path class="cls-3" d="m127.59,37.65h-.74v-4.27h.74v4.27Z"/>
    <path class="cls-3" d="m129.82,36.12h-1.54v-.57h1.54v.57Z"/>
    <path class="cls-3" d="m131.21,36.07v1.58h-.74v-4.27h1.63c.48,0,.86.12,1.14.37s.42.58.42.99-.14.74-.41.98c-.27.23-.66.35-1.15.35h-.88Zm0-.6h.89c.26,0,.46-.06.6-.19.14-.12.21-.3.21-.54s-.07-.41-.21-.55c-.14-.14-.33-.21-.58-.21h-.91v1.49h0Z"/>
    <path class="cls-3" d="m134.07,36.04c0-.31.06-.59.19-.84.12-.25.3-.44.52-.57.22-.13.48-.2.77-.2.43,0,.77.14,1.04.41s.41.64.43,1.1v.17c0,.31-.06.59-.18.84-.12.25-.29.44-.52.57s-.48.2-.77.2c-.45,0-.81-.15-1.07-.45s-.4-.7-.4-1.19v-.04h0Zm.71.06c0,.33.07.58.2.77s.32.28.56.28.43-.09.56-.28.2-.46.2-.82c0-.32-.07-.57-.21-.76s-.33-.28-.56-.28-.42.09-.55.28c-.14.19-.21.46-.21.83h0Z"/>
    <path class="cls-3" d="m140.41,36.67l.5-2.19h.7l-.86,3.17h-.59l-.68-2.18-.67,2.18h-.59l-.87-3.17h.7l.51,2.17.65-2.17h.54l.66,2.19h0Z"/>
    <path class="cls-3" d="m143.48,37.71c-.45,0-.82-.14-1.1-.43-.28-.28-.42-.66-.42-1.14v-.09c0-.32.06-.6.18-.85.12-.25.29-.44.51-.58.22-.14.47-.21.74-.21.43,0,.77.14,1,.41s.35.67.35,1.17v.29h-2.07c.02.26.11.47.26.62s.35.23.58.23c.33,0,.59-.13.8-.4l.38.37c-.13.19-.3.34-.51.44s-.45.16-.71.16h0Zm-.09-2.72c-.19,0-.35.07-.47.21-.12.14-.2.33-.23.57h1.36v-.05c-.02-.24-.08-.42-.19-.54-.11-.12-.27-.18-.46-.18h0Z"/>
    <path class="cls-3" d="m146.96,35.13c-.09-.02-.19-.02-.29-.02-.33,0-.55.12-.66.38v2.17h-.71v-3.17h.68l.02.36c.17-.28.41-.41.71-.41.1,0,.19.01.25.04v.67s0,0,0,0Z"/>
    <path class="cls-3" d="m148.75,37.71c-.45,0-.82-.14-1.1-.43-.28-.28-.42-.66-.42-1.14v-.09c0-.32.06-.6.18-.85.12-.25.29-.44.51-.58.22-.14.47-.21.74-.21.43,0,.77.14,1,.41s.35.67.35,1.17v.29h-2.07c.02.26.11.47.26.62s.35.23.58.23c.33,0,.59-.13.8-.4l.38.37c-.13.19-.3.34-.51.44s-.45.16-.71.16h0Zm-.09-2.72c-.19,0-.35.07-.47.21-.12.14-.2.33-.23.57h1.36v-.05c-.02-.24-.08-.42-.19-.54-.11-.12-.27-.18-.46-.18h0Z"/>
    <path class="cls-3" d="m150.45,36.04c0-.49.11-.88.34-1.18.23-.3.53-.44.91-.44.34,0,.61.12.81.35v-1.62h.71v4.5h-.64l-.04-.33c-.21.26-.5.39-.85.39s-.67-.15-.9-.45-.34-.7-.34-1.22h0Zm.71.06c0,.32.06.57.19.75.12.18.3.27.53.27.29,0,.5-.13.64-.39v-1.36c-.13-.25-.34-.38-.63-.38-.23,0-.41.09-.53.27-.12.18-.19.46-.19.83h0Z"/>
    <path class="cls-3" d="m158.8,37.1c-.15.2-.37.35-.64.46-.27.1-.58.15-.93.15s-.67-.08-.95-.24c-.28-.16-.49-.4-.64-.7-.15-.3-.23-.65-.23-1.06v-.33c0-.64.15-1.15.46-1.51s.74-.54,1.29-.54c.47,0,.85.12,1.13.35s.45.57.5,1.01h-.73c-.08-.51-.38-.77-.89-.77-.33,0-.58.12-.76.36-.17.24-.26.59-.27,1.05v.33c0,.46.1.82.29,1.07s.46.38.81.38c.38,0,.65-.09.81-.26v-.84h-.88v-.56h1.62v1.63h0Z"/>
    <path class="cls-3" d="m162.11,35.74h-1.75v1.31h2.05v.59h-2.79v-4.27h2.77v.6h-2.03v1.18h1.75v.59h0Z"/>
    <path class="cls-3" d="m166.42,35.63c0,.42-.07.78-.22,1.1s-.35.56-.62.73c-.27.17-.58.25-.93.25s-.65-.09-.92-.25c-.27-.17-.48-.41-.63-.72-.15-.31-.22-.67-.22-1.08v-.24c0-.42.07-.78.22-1.1s.36-.56.62-.73c.27-.17.58-.25.92-.25s.66.08.92.25c.27.17.48.41.62.72s.22.68.22,1.09v.24h0Zm-.74-.22c0-.47-.09-.84-.27-1.09-.18-.25-.43-.38-.76-.38s-.57.12-.75.38-.27.61-.28,1.07v.25c0,.47.09.83.27,1.09s.44.38.76.38.58-.12.76-.38c.18-.25.26-.62.26-1.1v-.22h0Z"/>
    <path class="cls-3" d="m170.88,36.55c0-.19-.07-.33-.2-.43-.13-.1-.37-.2-.71-.31-.34-.1-.62-.22-.82-.35-.39-.24-.58-.56-.58-.96,0-.34.14-.63.42-.85.28-.22.64-.33,1.09-.33.3,0,.56.05.79.16s.42.26.55.47c.13.2.2.43.2.67h-.74c0-.22-.07-.4-.21-.52-.14-.13-.34-.19-.6-.19-.24,0-.43.05-.57.15-.13.1-.2.25-.2.43,0,.16.07.29.22.39.15.1.38.21.71.3.33.1.6.21.8.34.2.13.35.27.44.43.09.16.14.35.14.57,0,.36-.14.64-.41.85-.27.21-.64.32-1.11.32-.31,0-.59-.06-.85-.17-.26-.11-.46-.27-.6-.47-.14-.2-.22-.44-.22-.7h.74c0,.24.08.43.24.56.16.13.39.2.69.2.26,0,.45-.05.58-.16s.19-.24.19-.41h0Z"/>
    <path class="cls-3" d="m173.6,37.71c-.45,0-.82-.14-1.1-.43-.28-.28-.42-.66-.42-1.14v-.09c0-.32.06-.6.18-.85.12-.25.29-.44.51-.58.22-.14.47-.21.74-.21.43,0,.77.14,1,.41s.35.67.35,1.17v.29h-2.07c.02.26.11.47.26.62s.35.23.58.23c.33,0,.59-.13.8-.4l.38.37c-.13.19-.3.34-.51.44s-.45.16-.71.16h0Zm-.09-2.72c-.19,0-.35.07-.47.21-.12.14-.2.33-.23.57h1.36v-.05c-.02-.24-.08-.42-.19-.54-.11-.12-.27-.18-.46-.18h0Z"/>
    <path class="cls-3" d="m177.09,35.13c-.09-.02-.19-.02-.29-.02-.33,0-.55.12-.66.38v2.17h-.71v-3.17h.68l.02.36c.17-.28.41-.41.71-.41.1,0,.19.01.25.04v.67s0,0,0,0Z"/>
    <path class="cls-3" d="m178.71,36.75l.67-2.27h.74l-1.1,3.17h-.62l-1.11-3.17h.74l.68,2.27h0Z"/>
    <path class="cls-3" d="m180.56,33.66c0-.11.03-.2.1-.27s.17-.11.3-.11.23.04.3.11.11.16.11.27-.04.2-.11.27c-.07.07-.17.11-.3.11s-.23-.04-.3-.11c-.07-.07-.1-.16-.1-.27Zm.76,4h-.71v-3.17h.71v3.17Z"/>
    <path class="cls-3" d="m183.39,37.14c.18,0,.33-.05.44-.15.12-.1.18-.23.19-.38h.67c0,.2-.07.38-.19.55-.12.17-.27.31-.47.41s-.41.15-.64.15c-.44,0-.8-.14-1.05-.43-.26-.29-.39-.68-.39-1.19v-.07c0-.48.13-.87.39-1.16.26-.29.61-.43,1.05-.43.38,0,.68.11.92.33s.36.51.37.87h-.67c0-.18-.07-.33-.19-.45-.12-.12-.26-.18-.44-.18-.23,0-.41.08-.53.25-.12.17-.19.42-.19.76v.12c0,.34.06.6.19.77.12.17.3.25.54.25h0Z"/>
    <path class="cls-3" d="m186.63,37.71c-.45,0-.82-.14-1.1-.43-.28-.28-.42-.66-.42-1.14v-.09c0-.32.06-.6.18-.85.12-.25.29-.44.51-.58.22-.14.47-.21.74-.21.43,0,.77.14,1,.41s.35.67.35,1.17v.29h-2.07c.02.26.11.47.26.62s.35.23.58.23c.33,0,.59-.13.8-.4l.38.37c-.13.19-.3.34-.51.44s-.45.16-.71.16h0Zm-.09-2.72c-.19,0-.35.07-.47.21-.12.14-.2.33-.23.57h1.36v-.05c-.02-.24-.08-.42-.19-.54-.11-.12-.27-.18-.46-.18h0Z"/>
    <path class="cls-3" d="m190.23,36.79c0-.13-.05-.22-.16-.29s-.28-.12-.52-.18-.44-.12-.61-.19c-.36-.17-.53-.42-.53-.75,0-.27.12-.5.35-.69s.52-.28.88-.28c.38,0,.69.09.92.28.23.19.35.43.35.73h-.71c0-.14-.05-.25-.15-.34s-.24-.14-.4-.14c-.16,0-.28.04-.38.11s-.15.17-.15.29c0,.11.05.19.14.26s.28.12.56.18.5.13.66.22.28.19.36.31.12.26.12.43c0,.29-.12.52-.36.69s-.55.26-.93.26c-.26,0-.49-.05-.7-.14s-.36-.22-.47-.39-.17-.34-.17-.53h.69c0,.17.07.3.19.39.12.09.27.14.47.14s.33-.04.43-.11c.1-.07.15-.16.15-.28h0Z"/>
  </g>
</svg>