<?xml version="1.0" encoding="UTF-8"?>
<svg id="Layer_1" data-name="Layer 1" xmlns="http://www.w3.org/2000/svg" xmlns:xlink="http://www.w3.org/1999/xlink" viewBox="0 0 24 24">
  <defs>
    <style>
      .cls-1 {
        fill: url(#linear-gradient);
      }

      .cls-1, .cls-2, .cls-3 {
        stroke-width: 0px;
      }

      .cls-2 {
        fill: url(#linear-gradient-2);
      }

      .cls-3 {
        fill: #443e97;
      }
    </style>
    <linearGradient id="linear-gradient" x1=".47" y1="14" x2="23.75" y2="14" gradientTransform="translate(0 26) scale(1 -1)" gradientUnits="userSpaceOnUse">
      <stop offset="0" stop-color="#443e97"/>
      <stop offset="1" stop-color="#32bdb3"/>
    </linearGradient>
    <linearGradient id="linear-gradient-2" x1="10.91" y1="14.06" x2="12.3" y2="14.06" xlink:href="#linear-gradient"/>
  </defs>
  <path class="cls-1" d="m23.75,12.48c0-1.16-.95-2.1-2.11-2.1h-3.04s-4.01,0-4.01,0v4.95h2.72c-.28,1.14-1.16,1.97-2.43,2.39l-.31.54-2.17,3.72-1.9-3.26h0s-.8-1.39-.8-1.39c-2.12-1.06-3.33-3.16-3.33-5.31,0-3.36,2.84-6.01,6.08-6.01.91,0,1.86.23,2.74.64,1.17.55,2.56.19,3.33-.85h0c1.01-1.39.48-3.37-1.09-4.06-1.56-.68-3.34-1.1-4.97-1.12C5.7.62.47,5.83.47,12.03s5.22,11.35,12.12,11.35c6.17,0,11.16-4.27,11.16-10.88v-.02h0Z"/>
  <path class="cls-2" d="m12,13.32c.1.02.2.04.31.04v-2.84c-.1,0-.21.01-.31.04-.64.15-1.09.72-1.09,1.38s.45,1.23,1.09,1.38h0Z"/>
  <path class="cls-3" d="m12.4,7.9c3.11,0,5.05,3.36,3.5,6.05l-1.92,3.32-1.58,2.71-1.38-2.37h0s-2.1-3.65-2.1-3.65c-.96-1.67-.58-3.6.59-4.82.72-.75,1.73-1.23,2.9-1.23h0Zm.5,6.08c.92-.22,1.61-1.05,1.61-2.04s-.68-1.82-1.61-2.04c-.16-.04-.33-.06-.5-.06-1.16,0-2.1.94-2.1,2.1s.94,2.1,2.1,2.1c.17,0,.34-.02.5-.06h0Z"/>
</svg>