<?xml version="1.0" encoding="UTF-8"?>
<svg id="Layer_1" data-name="Layer 1" xmlns="http://www.w3.org/2000/svg" viewBox="0 0 390 90">
  <defs>
    <style>
      .cls-1 {
        fill: #fff;
        stroke-width: 0px;
      }
    </style>
  </defs>
  <g>
    <path class="cls-1" d="m90.74,47.21c0-4.46-3.66-8.04-8.1-8.04h-27.02v18.98h10.44c-1.06,4.37-4.46,7.55-9.34,9.15l-1.2,2.08-8.32,14.24-7.3-12.51h0l-3.07-5.33c-8.12-4.05-12.76-12.13-12.76-20.34,0-12.88,10.9-23.05,23.31-23.05,3.5,0,7.14.9,10.5,2.46,4.5,2.1,9.83.73,12.76-3.28h0c3.89-5.33,1.85-12.92-4.19-15.56-5.96-2.6-12.8-4.21-19.06-4.31C21.55,1.7,1.49,21.7,1.49,45.48s20,43.52,46.47,43.52c23.68,0,42.8-16.38,42.8-41.71v-.08h-.02Z"/>
    <path class="cls-1" d="m45.66,50.41c.39.1.77.14,1.18.14v-10.88c-.41,0-.79.06-1.18.14-2.46.59-4.17,2.77-4.17,5.29s1.71,4.7,4.17,5.29h0v.02Z"/>
    <path class="cls-1" d="m47.2,29.64c11.9,0,19.35,12.9,13.41,23.21l-7.34,12.72-6.04,10.38-5.31-9.11h0l-8.08-14c-3.7-6.41-2.24-13.79,2.26-18.49,2.75-2.87,6.61-4.72,11.13-4.72h0l-.02.02Zm1.91,23.31c3.54-.85,6.16-4.03,6.16-7.83s-2.62-6.98-6.16-7.83c-.61-.14-1.24-.22-1.91-.22-4.46,0-8.06,3.6-8.06,8.06s3.6,8.06,8.06,8.06c.65,0,1.3-.08,1.91-.22Z"/>
  </g>
  <g>
    <path class="cls-1" d="m132.08,51.53c0,10.71-8.1,17.66-18.11,17.66-11.19,0-19.67-8.36-19.67-18.42s8.48-18.52,19.43-18.52c4.48.07,9.65,1.96,12.58,4.65l-5.17,7.12c-1.96-1.84-4.79-3.02-7.4-3.02-5.25,0-9.87,4.31-9.87,9.75,0,4.94,3.95,9.75,10.47,9.75,4.26,0,7.31-2.06,7.43-5.41h-8.07v-6.97h18.09c.17,1.17.29,2.32.29,3.43h.02Z"/>
    <path class="cls-1" d="m145.93,41.8v4.91h11.19v7.81h-11.19v5.05h13.61v8.77h-22.85v-35.24h22.85v8.7s-13.61,0-13.61,0Z"/>
    <path class="cls-1" d="m163.2,50.76c0-10.59,8.41-18.61,19.36-18.61s19.36,8.03,19.36,18.61-8.41,18.47-19.38,18.47-19.33-7.98-19.33-18.47Zm29.23-.07c0-5.44-4.29-9.65-9.89-9.65s-9.89,4.19-9.89,9.65,4.29,9.61,9.89,9.61,9.89-4.17,9.89-9.61Z"/>
    <path class="cls-1" d="m204.67,62.36l5.65-5.56c1.46,2.16,4.19,3.47,7.14,3.47,1.99,0,3.93-.72,3.93-2.16,0-1.82-3.62-3.4-7.07-4.94-4.46-1.92-8.29-4.86-8.29-10.16,0-6.11,5.8-10.45,12.48-10.45,5.39,0,9.58,2.54,10.95,6.01l-5.39,5.2c-1.05-1.87-3.76-2.66-5.44-2.66-1.92,0-3.31.98-3.31,2.18,0,1.63,2.49,2.13,6.3,3.74,5.51,2.32,9.15,5.68,9.15,10.9,0,6.71-6.25,10.9-13.32,10.9-5.8,0-11.07-2.56-12.84-6.44l.05-.05h0Z"/>
    <path class="cls-1" d="m244.36,41.8v4.91h11.19v7.81h-11.19v5.05h13.61v8.77h-22.85v-35.24h22.85v8.7s-13.61,0-13.61,0Z"/>
    <path class="cls-1" d="m293.62,33.03v35.65h-2.97l-18.14-17.56v17.22h-9.37v-35.62h3.02l18.06,17.49v-17.18h9.39Z"/>
    <path class="cls-1" d="m323.9,41.83h-8.43v26.5h-9.39v-26.5h-8.46v-8.74h26.28v8.74Z"/>
    <path class="cls-1" d="m346.71,68.35l-9.41-15.31v15.31h-9.37l-.05-35.24h13.39c7.62,0,13.06,5.15,13.06,11.45,0,4.38-2.64,8.07-6.11,9.65l9.44,14.16h-10.95v-.02Zm-9.46-19.76h3.83c1.99.05,3.81-1.37,3.81-3.52s-1.84-3.55-3.81-3.55h-3.83s0,7.07,0,7.07Z"/>
    <path class="cls-1" d="m365.34,53.11l-10.88-20.03h10.61l4.91,10.21,4.89-10.21h10.64l-10.9,20.03v15.21h-9.3v-15.21h.02Z"/>
  </g>
  <g>
    <path class="cls-1" d="m217.3,81.01h-3.95l-.84,2.37h-1.84l3.85-10.21h1.6l3.87,10.21h-1.84l-.84-2.37h-.02Zm-3.47-1.43h2.97l-1.48-4.23s-1.48,4.23-1.48,4.23Z"/>
    <path class="cls-1" d="m223.02,83.38h-1.77v-10.21h1.77v10.21Z"/>
    <path class="cls-1" d="m228.35,79.72h-3.68v-1.36h3.68v1.36Z"/>
    <path class="cls-1" d="m231.67,79.6v3.78h-1.77v-10.21h3.9c1.15,0,2.06.29,2.73.88s1,1.39,1,2.37-.33,1.77-.98,2.34c-.65.55-1.58.84-2.75.84h-2.13Zm0-1.43h2.13c.62,0,1.1-.14,1.43-.45.33-.29.5-.72.5-1.29s-.17-.98-.5-1.32-.79-.5-1.39-.5h-2.18v3.56h0Z"/>
    <path class="cls-1" d="m238.51,79.53c0-.74.14-1.41.45-2.01.29-.6.72-1.05,1.24-1.36s1.15-.48,1.84-.48c1.03,0,1.84.33,2.49.98s.98,1.53,1.03,2.63v.41c0,.74-.14,1.41-.43,2.01s-.69,1.05-1.24,1.36-1.15.48-1.84.48c-1.08,0-1.94-.36-2.56-1.08s-.96-1.67-.96-2.85v-.1h-.02Zm1.7.14c0,.79.17,1.39.48,1.84s.77.67,1.34.67,1.03-.22,1.34-.67.48-1.1.48-1.96c0-.77-.17-1.36-.5-1.82s-.79-.67-1.34-.67-1,.22-1.32.67c-.33.45-.5,1.1-.5,1.98h0l.02-.05Z"/>
    <path class="cls-1" d="m253.68,81.04l1.2-5.24h1.67l-2.06,7.58h-1.41l-1.63-5.21-1.6,5.21h-1.41l-2.08-7.58h1.67l1.22,5.19,1.55-5.19h1.29l1.58,5.24h0Z"/>
    <path class="cls-1" d="m261.02,83.52c-1.08,0-1.96-.33-2.63-1.03-.67-.67-1-1.58-1-2.73v-.22c0-.77.14-1.43.43-2.03s.69-1.05,1.22-1.39c.53-.33,1.12-.5,1.77-.5,1.03,0,1.84.33,2.39.98s.84,1.6.84,2.8v.69h-4.95c.05.62.26,1.12.62,1.48s.84.55,1.39.55c.79,0,1.41-.31,1.91-.96l.91.88c-.31.45-.72.81-1.22,1.05s-1.08.38-1.7.38h0l.02.02Zm-.22-6.5c-.45,0-.84.17-1.12.5s-.48.79-.55,1.36h3.25v-.12c-.05-.57-.19-1-.45-1.29-.26-.29-.65-.43-1.1-.43h0l-.02-.02Z"/>
    <path class="cls-1" d="m269.34,77.35c-.22-.05-.45-.05-.69-.05-.79,0-1.32.29-1.58.91v5.19h-1.7v-7.58h1.63l.05.86c.41-.67.98-.98,1.7-.98.24,0,.45.02.6.1v1.6h0v-.05Z"/>
    <path class="cls-1" d="m273.62,83.52c-1.08,0-1.96-.33-2.63-1.03-.67-.67-1-1.58-1-2.73v-.22c0-.77.14-1.43.43-2.03s.69-1.05,1.22-1.39c.53-.33,1.12-.5,1.77-.5,1.03,0,1.84.33,2.39.98s.84,1.6.84,2.8v.69h-4.95c.05.62.26,1.12.62,1.48s.84.55,1.39.55c.79,0,1.41-.31,1.91-.96l.91.88c-.31.45-.72.81-1.22,1.05s-1.08.38-1.7.38h0l.02.02Zm-.22-6.5c-.45,0-.84.17-1.12.5s-.48.79-.55,1.36h3.25v-.12c-.05-.57-.19-1-.45-1.29-.26-.29-.65-.43-1.1-.43h0l-.02-.02Z"/>
    <path class="cls-1" d="m277.69,79.53c0-1.17.26-2.1.81-2.82s1.27-1.05,2.18-1.05c.81,0,1.46.29,1.94.84v-3.87h1.7v10.76h-1.53l-.1-.79c-.5.62-1.2.93-2.03.93s-1.6-.36-2.15-1.08-.81-1.67-.81-2.92h0Zm1.7.14c0,.77.14,1.36.45,1.79.29.43.72.65,1.27.65.69,0,1.2-.31,1.53-.93v-3.25c-.31-.6-.81-.91-1.51-.91-.55,0-.98.22-1.27.65s-.45,1.1-.45,1.98h0l-.02.02Z"/>
    <path class="cls-1" d="m297.66,82.06c-.36.48-.88.84-1.53,1.1-.65.24-1.39.36-2.22.36s-1.6-.19-2.27-.57-1.17-.96-1.53-1.67-.55-1.55-.55-2.54v-.79c0-1.53.36-2.75,1.1-3.61s1.77-1.29,3.09-1.29c1.12,0,2.03.29,2.7.84s1.08,1.36,1.2,2.42h-1.75c-.19-1.22-.91-1.84-2.13-1.84-.79,0-1.39.29-1.82.86-.41.57-.62,1.41-.65,2.51v.79c0,1.1.24,1.96.69,2.56s1.1.91,1.94.91c.91,0,1.55-.22,1.94-.62v-2.01h-2.1v-1.34h3.87v3.9h0l.02.05Z"/>
    <path class="cls-1" d="m305.57,78.81h-4.19v3.13h4.9v1.41h-6.67v-10.21h6.62v1.43h-4.85v2.82h4.19v1.41h0Z"/>
    <path class="cls-1" d="m315.88,78.55c0,1-.17,1.87-.53,2.63s-.84,1.34-1.48,1.75c-.65.41-1.39.6-2.22.6s-1.55-.22-2.2-.6c-.65-.41-1.15-.98-1.51-1.72-.36-.74-.53-1.6-.53-2.58v-.57c0-1,.17-1.87.53-2.63s.86-1.34,1.48-1.75c.65-.41,1.39-.6,2.2-.6s1.58.19,2.2.6c.65.41,1.15.98,1.48,1.72s.53,1.63.53,2.61v.57h0l.05-.02Zm-1.77-.53c0-1.12-.22-2.01-.65-2.61-.43-.6-1.03-.91-1.82-.91s-1.36.29-1.79.91-.65,1.46-.67,2.56v.6c0,1.12.22,1.98.65,2.61s1.05.91,1.82.91,1.39-.29,1.82-.91c.43-.6.62-1.48.62-2.63v-.53h.02Z"/>
    <path class="cls-1" d="m326.55,80.75c0-.45-.17-.79-.48-1.03-.31-.24-.88-.48-1.7-.74-.81-.24-1.48-.53-1.96-.84-.93-.57-1.39-1.34-1.39-2.3,0-.81.33-1.51,1-2.03.67-.53,1.53-.79,2.61-.79.72,0,1.34.12,1.89.38s1,.62,1.32,1.12c.31.48.48,1.03.48,1.6h-1.77c0-.53-.17-.96-.5-1.24-.33-.31-.81-.45-1.43-.45-.57,0-1.03.12-1.36.36-.31.24-.48.6-.48,1.03,0,.38.17.69.53.93s.91.5,1.7.72c.79.24,1.43.5,1.91.81s.84.65,1.05,1.03.33.84.33,1.36c0,.86-.33,1.53-.98,2.03s-1.53.77-2.65.77c-.74,0-1.41-.14-2.03-.41-.62-.26-1.1-.65-1.43-1.12s-.53-1.05-.53-1.67h1.77c0,.57.19,1.03.57,1.34s.93.48,1.65.48c.62,0,1.08-.12,1.39-.38s.45-.57.45-.98h0l.05.02Z"/>
    <path class="cls-1" d="m333.05,83.52c-1.08,0-1.96-.33-2.63-1.03-.67-.67-1-1.58-1-2.73v-.22c0-.77.14-1.43.43-2.03s.69-1.05,1.22-1.39c.53-.33,1.12-.5,1.77-.5,1.03,0,1.84.33,2.39.98s.84,1.6.84,2.8v.69h-4.95c.05.62.26,1.12.62,1.48s.84.55,1.39.55c.79,0,1.41-.31,1.91-.96l.91.88c-.31.45-.72.81-1.22,1.05s-1.08.38-1.7.38h0l.02.02Zm-.22-6.5c-.45,0-.84.17-1.12.5s-.48.79-.55,1.36h3.25v-.12c-.05-.57-.19-1-.45-1.29-.26-.29-.65-.43-1.1-.43h0l-.02-.02Z"/>
    <path class="cls-1" d="m341.4,77.35c-.22-.05-.45-.05-.69-.05-.79,0-1.32.29-1.58.91v5.19h-1.7v-7.58h1.63l.05.86c.41-.67.98-.98,1.7-.98.24,0,.45.02.6.1v1.6h0v-.05Z"/>
    <path class="cls-1" d="m345.27,81.23l1.6-5.43h1.77l-2.63,7.58h-1.48l-2.65-7.58h1.77l1.63,5.43h0Z"/>
    <path class="cls-1" d="m349.7,73.84c0-.26.07-.48.24-.65s.41-.26.72-.26.55.1.72.26.26.38.26.65-.1.48-.26.65-.41.26-.72.26-.55-.1-.72-.26-.24-.38-.24-.65Zm1.82,9.57h-1.7v-7.58h1.7v7.58Z"/>
    <path class="cls-1" d="m356.46,82.16c.43,0,.79-.12,1.05-.36.29-.24.43-.55.45-.91h1.6c0,.48-.17.91-.45,1.32s-.65.74-1.12.98-.98.36-1.53.36c-1.05,0-1.91-.33-2.51-1.03-.62-.69-.93-1.63-.93-2.85v-.17c0-1.15.31-2.08.93-2.77s1.46-1.03,2.51-1.03c.91,0,1.63.26,2.2.79s.86,1.22.88,2.08h-1.6c0-.43-.17-.79-.45-1.08s-.62-.43-1.05-.43c-.55,0-.98.19-1.27.6s-.45,1-.45,1.82v.29c0,.81.14,1.43.45,1.84.29.41.72.6,1.29.6h0v-.05Z"/>
    <path class="cls-1" d="m364.21,83.52c-1.08,0-1.96-.33-2.63-1.03-.67-.67-1-1.58-1-2.73v-.22c0-.77.14-1.43.43-2.03s.69-1.05,1.22-1.39c.53-.33,1.12-.5,1.77-.5,1.03,0,1.84.33,2.39.98s.84,1.6.84,2.8v.69h-4.95c.05.62.26,1.12.62,1.48s.84.55,1.39.55c.79,0,1.41-.31,1.91-.96l.91.88c-.31.45-.72.81-1.22,1.05s-1.08.38-1.7.38h0l.02.02Zm-.22-6.5c-.45,0-.84.17-1.12.5s-.48.79-.55,1.36h3.25v-.12c-.05-.57-.19-1-.45-1.29-.26-.29-.65-.43-1.1-.43h0l-.02-.02Z"/>
    <path class="cls-1" d="m372.82,81.32c0-.31-.12-.53-.38-.69s-.67-.29-1.24-.43-1.05-.29-1.46-.45c-.86-.41-1.27-1-1.27-1.79,0-.65.29-1.2.84-1.65s1.24-.67,2.1-.67c.91,0,1.65.22,2.2.67s.84,1.03.84,1.75h-1.7c0-.33-.12-.6-.36-.81s-.57-.33-.96-.33-.67.1-.91.26-.36.41-.36.69c0,.26.12.45.33.62s.67.29,1.34.43,1.2.31,1.58.53.67.45.86.74.29.62.29,1.03c0,.69-.29,1.24-.86,1.65s-1.32.62-2.22.62c-.62,0-1.17-.12-1.67-.33s-.86-.53-1.12-.93-.41-.81-.41-1.27h1.65c0,.41.17.72.45.93s.65.33,1.12.33.79-.1,1.03-.26c.24-.17.36-.38.36-.67h0l-.07.05Z"/>
  </g>
</svg>