<?xml version="1.0" encoding="UTF-8"?>
<svg id="Layer_1" data-name="Layer 1" xmlns="http://www.w3.org/2000/svg" xmlns:xlink="http://www.w3.org/1999/xlink" viewBox="0 0 90 120">
  <defs>
    <style>
      .cls-1 {
        fill: url(#linear-gradient);
      }

      .cls-1, .cls-2, .cls-3, .cls-4, .cls-5, .cls-6, .cls-7, .cls-8, .cls-9, .cls-10, .cls-11, .cls-12, .cls-13, .cls-14, .cls-15, .cls-16 {
        stroke-width: 0px;
      }

      .cls-17 {
        stroke: url(#linear-gradient-4);
        stroke-miterlimit: 10;
      }

      .cls-17, .cls-12 {
        fill: #fff;
      }

      .cls-18 {
        opacity: .3;
      }

      .cls-2 {
        fill: url(#linear-gradient-2);
      }

      .cls-3 {
        fill: url(#linear-gradient-3);
      }

      .cls-4 {
        fill: #f9aa4c;
      }

      .cls-5 {
        fill: #f9a984;
      }

      .cls-6 {
        fill: #79443a;
      }

      .cls-7 {
        fill: #2f2f46;
      }

      .cls-8 {
        fill: #111232;
      }

      .cls-9 {
        fill: #ddebe8;
      }

      .cls-10 {
        fill: #af774c;
      }

      .cls-11 {
        fill: #64b5b8;
      }

      .cls-13 {
        fill: #e74e46;
      }

      .cls-14 {
        fill: #f18d7f;
      }

      .cls-15 {
        fill: #f26859;
      }

      .cls-16 {
        fill: #030303;
      }
    </style>
    <linearGradient id="linear-gradient" x1="21.79" y1="74.03" x2="72.7" y2="74.03" gradientTransform="translate(51.71 -13.68) rotate(35.46)" gradientUnits="userSpaceOnUse">
      <stop offset="0" stop-color="#454097"/>
      <stop offset="1" stop-color="#36bdb3"/>
    </linearGradient>
    <linearGradient id="linear-gradient-2" x1="49.52" y1="57.06" x2="67.32" y2="57.06" gradientTransform="matrix(1,0,0,1,0,0)" xlink:href="#linear-gradient"/>
    <linearGradient id="linear-gradient-3" x1="63.85" y1="73.12" x2="72.7" y2="73.12" gradientTransform="matrix(1,0,0,1,0,0)" xlink:href="#linear-gradient"/>
    <linearGradient id="linear-gradient-4" x1="28.69" y1="74.76" x2="58.48" y2="74.76" gradientTransform="matrix(1,0,0,1,0,0)" xlink:href="#linear-gradient"/>
  </defs>
  <g>
    <g>
      <circle class="cls-1" cx="47.25" cy="74.03" r="25.45" transform="translate(-34.19 41.14) rotate(-35.46)"/>
      <g>
        <path class="cls-2" d="m49.52,48.68c.1.07.21.13.33.2.01-.07,5.36,1.62,5.91,1.87,1.59.73,2.56.99.82,1.54.76-.24,2.47,4.41,3.67,4.22,1.17-.19,1.51,1.13,1.82,2.03.16.48.68.76.48,1.33-.06.18-.9.56-.83.68.35.67,1.95.74,1.96,1.72-.15.25-.39.36-.7.35-.74.3-.04.9.1,1.36.34,1.12,1.41,2.11,2.19.84.78-1.28-1-2.53.08-3.83.63-.76,2.33.61,1.93-.85-.12-.42-1.88-2.27-.9-2.54.05-.01.08-.11.1-.27-2.9-3.34-6.7-5.97-11.2-7.46-1.9-.63-3.83-1.03-5.75-1.2Z"/>
        <path class="cls-3" d="m69.9,62.43h0c-.12-.24-1.38,1.14-1.64,1.29-.95.53-1.16-.51-1.96.58-.14.19-1.59,2.11-1.6,1.9.03.71-.27,1.42.07,2.1.31.61-.42,1.17-.37,1.82.06.85-.72,1.43-.52,2.27.17.73.61,1.27.61,2.05,0,1.24-.22,1.81.78,2.7.64.57,1.48,2.55,2.61,1.44.21-.2,2.27-1.86,2.15-1.99.73.78.09.27,1.13.22.28-.01-.21,7.16-.64,6.99.07.03.15.02.24-.02.24-.57.45-1.15.65-1.75,2.24-6.74,1.5-13.76-1.5-19.62Z"/>
      </g>
    </g>
    <path class="cls-17" d="m57.98,86.27c0-.73-1.36-1.42-2.11-1.39-1.59.06-2.02-.45-3.5-.83-1.24-.32-1.05-2.44-2.94-2.53-1-.05-2.9-2.78-3.89-1.96-.66.54-1.92-.91-2.36-.92-1.02-.01-.19.59-.86-.17-.44-.5-1.64.55-1.89.85-.49.58-2.63-.29-2.96-1.11-.12-.29.57-1.47.06-2.3-.2-.32-1.61-.09-1.83-.3-.3-.29.76-1.35.64-1.57-.49-.92-2.12,1.38-2.83-.47-.58-1.51.17-2.07.32-3.52.07-.68,1.23-1.02,1.79-.77.9.4.78.03,1.47-.05.54-.06,1.12.55,1.64.64.62.11.19,1.83.77,2.25.34.24.33-2.32.35-2.38.37-1.04,1.98-.94,2.23-1.82.63-2.15,2.09-1.99,3.85-2.75.84-.36,2.92-.78,3.44-1.6.98-1.53-1.59-3.83-2.27-4.91,0-.01-.6.66-.73.67-.5.02-.96-2.79-1.92-1.18-.18.31-.88.4-.49.85.76.89-.71,1.1-1.17.97-.47-.13-2.76-1.46-1.95-2.2,1.64-1.51,2.02-.73,3.72-.74,1.95,0,2.03,1.83,3.64-.14.45-.54-2.47-2.1-1.9-2.79,2.04-2.44,3.16,2.98,3.93,3.92,1.12,1.37,1.84.65,1.75-.87-.04-.71,1.48-1.38,1.58-2.15.02-.16-.98-1.58-1.13-1.67-.53-.34-.65-.7-.92-1.03-.34-.43-.88.21-1.18-.17-.14-.18-2.71-.08-2.98-.07-1.35-.05-2.86,0-4.21.01-.56-.02-3.51,1.42-3.58.24-.04-.58.66-1.61-.59-1.14-.4.15-.65-.07-.57-.09-.86.18-2.48.78-3.17,1.4-.38.34.54.5.6.8.12.57-1.31,1.63-1.63,2-1.14,1.31-1.09,3.06-2.63,4.34-1.78,1.48-1.87,3.64-1.89,5.67,0,.99-.86,1.4-.32,2.52.46.95,1.3,1.41,1.45,2.57.09.76-.5,1.47-.21,2.21.35.91,1.03,1.72,1.85,2.15,1.76.92,2.91,1.62,4.04,3.31,1.4,2.1,3.89,1.18,3.07,3.3-.34.89-1.22,1.32-1.58,2.27-.43,1.14.4,1.97.93,2.9.54.93.73,2.05,1.67,2.69.67.46,1.9.83,2.07,1.76.28,1.47-.97,3.31-.84,4.66.09.91.11,1.84.9,2.43,1.42,1.07,1.09-.42,1.97-1.12.83-.66,1.81-.46,2.75-.73.87-.24-.17-.56.19-.76.75-.42,1.19.21,1.9-.43.65-.58,1.52-.75,1.82-1.66.49-1.49,2.73-.94,3.67-2.1.58-.71.83-1.47,1.08-2.33.32-1.06,1.88-1.55,1.89-2.7,0-.77,0,.77,0,0Z"/>
  </g>
  <g>
    <path class="cls-5" d="m42.4,40.25c-.3.52-3.28,5.09-2.65,9.56l3.24-1.16,1.48-6.03-2.07-2.38Z"/>
    <path class="cls-6" d="m55.35,38.38s-1.99-3.54-6.84-2.56c-4.85.98-7.5,7.85-6.18,21.47,0,0,7.7-3.03,17.72-.59,0,0-1.65-13.19-4.7-18.32Z"/>
    <path class="cls-6" d="m59.05,36.95l-3.41,3.37s-8.74,2.34-11.17,2.31c-2.43-.03-3.38-1.79-3.38-1.79,0,0,2.05-3.21,6.19-4.67.39-.14.8-.26,1.22-.36.72-.17,1.44-.27,2.17-.31,4.29-.25,8.38,1.44,8.38,1.44Z"/>
    <path class="cls-7" d="m59.05,36.95c.54.59-.3,1.23-1.24,2.16-.94.93-1.91,1.47-2.17,1.21-.26-.26.3-1.23,1.24-2.16.94-.93,1.92-1.48,2.17-1.21Z"/>
    <path class="cls-5" d="m56.09,40.33s-.05-.67.8-1.53c.51-.52,1.17-.86,1.6-1.04.26-.11.56.01.66.28l.27.7-1.27.81-2.07.79Z"/>
    <path class="cls-4" d="m50.07,52.82s10.52-5.64,14.29.51c2.79,4.56-1.4,8.8-16.96,8.37,0,0-1.54-.71-1.16-4.41.15-1.47,3.84-4.47,3.84-4.47Z"/>
    <path class="cls-4" d="m50.07,52.82s-14.01-5.68-16.78-2.13c-3.19,4.08-.13,11.01,14.63,8.54l1.8-1.94.35-4.47Z"/>
    <g>
      <path class="cls-7" d="m46.14,58.31s-2.58.1-3.79.69c-1.21.59-.57,2.03,1.9,1.99,2.46-.04,2.28-.4,2.28-.4,0,0-.47-1.26-.38-2.28Z"/>
      <path class="cls-16" d="m47.38,61.72c-1.73-1.22-1.18-4.41-1.18-4.44v-.02s.02,0,.02,0l10.63-3.83.02.06-10.62,3.83c-.04.25-.48,3.21,1.15,4.37l-.03.05Z"/>
    </g>
    <path class="cls-5" d="m49.45,53.09c-.85,0-1.56-.21-2.13-.64-1.08-.8-1.28-2.08-1.12-2.94l1.03-.59c.05-.28,2.04.76,2.03.76,0,0,.95.27,4.2-1.38,2.27-1.15,3.41-2.77,3.49-4.97.06-1.66-.68-2.59-.86-2.99-.02-.05,1.09-1.16,1.06-1.28l.84-.42c-.03-.1.81-.42.79-.45l.65.55c.32.73,1,2.41.91,4.72-.09,2.4-1.09,5.72-5.35,7.88-2.32,1.17-4.14,1.76-5.55,1.76Z"/>
    <g>
      <path class="cls-11" d="m48.76,53.22h-9.08c-.19,0-.36-.12-.42-.3l-1.89-5.58c-.09-.28.12-.57.42-.57h8.73c.4,0,.75.25.88.62l1.78,5.25c.09.28-.12.57-.42.57Z"/>
      <path class="cls-11" d="m48.19,53.22h-9.08c-.19,0-.36-.12-.42-.3l-1.89-5.58c-.1-.28.12-.57.42-.57h8.73c.4,0,.75.25.88.62l1.78,5.25c.1.28-.12.57-.42.57Z"/>
      <path class="cls-9" d="m41.83,49.82c0-.21.25-.3.46-.3s.57.23.56.53c0,.32-.26.36-.47.36s-.56-.32-.56-.59Z"/>
      <path class="cls-11" d="m51.53,52.43h-12.42v.79h12.68c.15,0,.27-.12.27-.27h0c0-.29-.23-.52-.52-.52Z"/>
      <path class="cls-7" d="m47.54,49.6s-.45-1.67-.74-2.18c-.28-.51-.63-.61-.64-.61l.02-.06s.38.11.67.64c.29.52.73,2.13.74,2.2l-.06.02Z"/>
      <path class="cls-7" d="m48.88,52.46c-.34,0-.42-.15-.42-.15h0s-.71-2.1-.71-2.1l.06-.02.71,2.09s.09.12.37.12v.06Z"/>
    </g>
    <path class="cls-14" d="m57.6,48.25c-.05,0-.1-.01-.15-.04-.22-.13-.22-.54.01-.94.11-.18.24-.34.39-.43.16-.1.3-.12.42-.05.22.13.22.54-.01.94-.18.32-.45.52-.66.52Zm.53-1.38c-.06,0-.13.02-.21.07-.13.08-.25.22-.35.39-.19.33-.22.69-.06.78.16.09.46-.11.65-.44.19-.33.22-.69.06-.78-.02-.01-.05-.02-.09-.02Z"/>
    <path class="cls-5" d="m50.75,35.5c-.6-.02-1.05-.08-1.39-.48l-1.06-1.24-.31-.36-1.82-2.12.95,2.48.57,1.49.18.47c.12.32-.04.47-.15.84-.05.15-.36,1.08.46,1.09,1.02,0,2.3-1.16,2.58-2.17,0,0-.01,0-.02,0Z"/>
    <path class="cls-7" d="m48.59,32.99s2-1.9.85-3.51c-1.15-1.61-1.44,2.58-1.44,2.58l.32.97.27-.04Z"/>
    <path class="cls-7" d="m48.29,33.74s0,.03.01.04c.19.83-.59,1.49-.59,1.49h0s-.57-1.49-.57-1.49c.24-.18.6-.4.86-.36.14.02.25.11.3.32Z"/>
    <path class="cls-5" d="m44.05,32.71c-.45-1.49.18-3,1.42-3.37,1.23-.37,2.6.53,3.05,2.02.45,1.49-.18,3-1.42,3.37-1.23.37-2.6-.53-3.05-2.02Z"/>
    <path class="cls-7" d="m48.1,31.14s-.64.46-1.17.07c-.53-.39-.91-.76-2.11-.16-1.2.6-2.5.33-2.75-.34-.24-.67.33-1.19,1.08-1.15.75.03-.16-.37.36-1.08.52-.71,1.85.02,2.5-.33.66-.35,3-.65,3.42,1.33l-1.34,1.66Z"/>
    <path class="cls-5" d="m48.6,31.53c-.15.23-.45.31-.66.18-.21-.14-.26-.44-.1-.67.15-.23.45-.31.66-.18.21.14.26.44.1.67Z"/>
    <path class="cls-12" d="m43.39,30.47s-.09,0-.13-.02c-.27-.07-.34-.21-.33-.32.02-.12.17-.24.41-.22.36.04.55-.08.55-.08l.05.07s-.22.14-.61.1c-.18-.02-.3.06-.32.15-.02.09.08.17.26.22.46.12,1.26-.59,1.26-.6l.06.06s-.71.64-1.22.64Z"/>
    <path class="cls-12" d="m45.46,28.81c-.49,0-.92-.21-.96-.25l.07-.06-.03.03.03-.03s.76.38,1.36.14c.2-.08.38-.17.55-.26.35-.19.66-.34,1.01-.28l-.02.09c-.32-.06-.61.09-.95.27-.17.09-.36.19-.56.27-.16.06-.33.09-.5.09Z"/>
    <path class="cls-12" d="m48.83,29.38c-.13,0-.37-.2-.43-.32-.05-.09,0-.13.02-.15.18-.11.43.23.48.3h0s0,.01,0,.01c.03.11-.02.14-.05.15,0,0-.02,0-.03,0Zm-.33-.41s-.02,0-.03,0c0,0,0,.06.09.14.12.12.24.18.27.17,0,0,0-.01,0-.04-.09-.12-.24-.28-.33-.28Z"/>
    <path class="cls-7" d="m62.62,56.88c-.17,0-.34-.04-.49-.13-.26-.15-.43-.4-.49-.72-.06-.31,0-.64.17-.94.35-.61,1.07-.86,1.59-.55.53.3.67,1.05.32,1.66-.17.29-.43.51-.73.62-.12.04-.25.07-.37.07Zm.29-2.35c-.38,0-.77.23-1,.62-.16.27-.21.57-.16.86.05.28.21.51.43.64.23.13.5.15.77.06.27-.1.51-.3.66-.57.32-.55.2-1.22-.27-1.49-.13-.08-.28-.11-.43-.11Z"/>
    <path class="cls-8" d="m45.84,32.1s-.03-.01-.03-.02c-.01-.02,0-.05.02-.06.01,0,.31-.21.63.06.02.02.02.05,0,.07-.02.02-.04.02-.07,0-.23-.12-.51-.05-.52-.05,0,0-.02,0-.03,0Z"/>
    <path class="cls-8" d="m46.27,32.57c.02.11-.03.21-.11.23-.08.01-.16-.07-.18-.18-.02-.11.03-.21.11-.23.08-.01.16.07.18.18Z"/>
    <path class="cls-8" d="m44.18,32.7s-.02,0-.03-.01c-.02-.02-.02-.05,0-.07,0-.01.14-.3.46-.15.02,0,.03.04.03.06,0,.02-.02.03-.04.03-.21-.03-.38.11-.38.12,0,0-.01.01-.02.01Z"/>
    <path class="cls-8" d="m44.78,32.96c.06.1.05.21-.02.25-.07.04-.17,0-.23-.1-.06-.1-.05-.21.02-.25.07-.04.17,0,.23.1Z"/>
    <g>
      <path class="cls-16" d="m46.13,34.15c-.17,0-.28-.03-.29-.03-.02,0-.03-.02-.02-.04,0-.02.02-.03.04-.02.03,0,.8.19,1.18-.47,0-.02.03-.02.05-.01.02,0,.02.03.01.05-.26.45-.68.53-.97.53Z"/>
      <path class="cls-16" d="m47.17,33.73s-.03,0-.03-.02c-.02-.05-.06-.12-.19-.19,0,0,0,0,0,0-.02-.01-.02-.03,0-.05.01-.02.03-.02.05,0h0c.12.07.19.15.22.23,0,.02,0,.04-.02.04,0,0,0,0-.01,0Z"/>
    </g>
    <path class="cls-7" d="m47.73,38.79v-.15c2.6-.07,3.54-2.31,3.55-2.33l.14.06s-.25.6-.82,1.18c-.53.54-1.46,1.2-2.87,1.24Z"/>
    <path class="cls-7" d="m48.97,40.04l-.08-.12s1.34-.85,1.52-2.36l.15.02c-.18,1.58-1.57,2.46-1.58,2.47Z"/>
    <rect class="cls-7" x="42.37" y="41.47" width="1.7" height=".15" transform="translate(-9.82 69.47) rotate(-71.64)"/>
    <path class="cls-15" d="m44.51,34.56s-.06,0-.1,0c-.35-.05-.71-.34-.97-.79-.42-.72-.44-1.63-.04-2.02.15-.15.34-.21.55-.18.35.05.71.34.97.79.42.72.44,1.63.04,2.02-.12.12-.28.19-.45.19Zm-.66-2.9c-.15,0-.28.05-.38.16-.37.36-.34,1.22.06,1.9.24.42.58.7.9.74.18.02.34-.03.46-.15.37-.36.34-1.22-.06-1.9h0c-.24-.42-.58-.7-.9-.74-.03,0-.06,0-.08,0Z"/>
    <g class="cls-18">
      <path class="cls-12" d="m47.3,31.28c.34.72.25,1.6-.21,1.96-.46.36-1.11.07-1.45-.65-.34-.72-.25-1.6.21-1.96.46-.36,1.11-.07,1.45.65Z"/>
    </g>
    <g class="cls-18">
      <path class="cls-12" d="m44.95,32.4c.34.72.3,1.6-.1,1.96-.4.36-1,.06-1.35-.66-.34-.72-.3-1.6.1-1.96.4-.36,1-.06,1.35.66Z"/>
    </g>
    <path class="cls-15" d="m46.57,33.43c-.07,0-.13,0-.2-.02-.37-.09-.7-.39-.91-.84-.37-.77-.26-1.71.25-2.11.2-.16.45-.21.7-.15.37.09.7.39.91.84h0c.37.77.26,1.71-.25,2.11-.15.12-.32.17-.5.17Zm-.37-3.05c-.16,0-.31.05-.44.15-.47.36-.57,1.26-.22,1.98.2.41.52.71.85.79.22.05.44,0,.62-.13.47-.36.57-1.26.22-1.98h0c-.2-.41-.52-.71-.85-.79-.06-.01-.12-.02-.18-.02Z"/>
    <path class="cls-15" d="m44.89,32.71s-.04,0-.06-.02c-.04-.03-.05-.09-.02-.13,0-.01.25-.31.76-.33.05,0,.09.04.09.09,0,.05-.04.09-.09.09-.42.01-.61.25-.62.26-.02.02-.05.03-.07.03Z"/>
  </g>
  <g>
    <path class="cls-7" d="m38.08,46.18s-.06-.01-.07-.04c-.12-.15-.24-.29-.36-.44-.03-.04-.03-.1,0-.13.04-.03.1-.03.13,0,.12.14.25.29.36.44.03.04.03.1-.02.13-.02.01-.04.02-.06.02Z"/>
    <path class="cls-7" d="m25.11,88.5c-.05,0-.09-.04-.09-.09,0-.05.04-.1.09-.1.37,0,.75-.01,1.13-.03.05,0,.1.04.1.09,0,.05-.04.1-.09.1-.38.02-.76.03-1.13.03h0Zm-1.13,0s0,0,0,0c-.38,0-.76-.03-1.13-.05-.05,0-.09-.05-.09-.1,0-.05.05-.09.1-.09.37.02.75.04,1.13.05.05,0,.09.04.09.1,0,.05-.04.09-.09.09Zm3.39-.09s-.09-.04-.09-.09c0-.05.04-.1.09-.1.37-.03.75-.06,1.12-.1.05,0,.1.03.1.08,0,.05-.03.1-.08.1-.38.04-.76.07-1.13.1,0,0,0,0,0,0Zm-5.64-.05s0,0,0,0c-.38-.04-.76-.08-1.13-.14-.05,0-.09-.06-.08-.11,0-.05.06-.09.11-.08.37.05.74.1,1.12.14.05,0,.09.05.08.1,0,.05-.05.09-.09.09Zm7.89-.18s-.09-.03-.09-.08c0-.05.03-.1.08-.11.37-.05.74-.1,1.12-.16.05,0,.1.03.11.08,0,.05-.03.1-.08.11-.37.06-.75.11-1.12.16,0,0,0,0-.01,0Zm-10.13-.14s-.01,0-.02,0c-.37-.07-.75-.15-1.11-.23-.05-.01-.08-.06-.07-.11.01-.05.06-.08.11-.07.36.08.73.16,1.1.23.05,0,.09.06.08.11,0,.05-.05.08-.09.08Zm12.36-.21s-.08-.03-.09-.08c0-.05.02-.1.08-.11.37-.07.74-.14,1.11-.22.05-.01.1.02.11.07.01.05-.02.1-.07.11-.37.08-.74.15-1.11.22,0,0-.01,0-.02,0Zm-14.56-.31s-.02,0-.03,0c-.37-.11-.73-.22-1.08-.34-.05-.02-.08-.07-.06-.12.02-.05.07-.08.12-.06.35.12.71.24,1.07.34.05.01.08.07.06.12-.01.04-.05.07-.09.07Zm16.77-.14s-.08-.03-.09-.07c-.01-.05.02-.1.07-.11.36-.08.73-.17,1.1-.27.05-.01.1.02.12.07.01.05-.02.1-.07.12-.37.09-.74.18-1.1.27,0,0-.01,0-.02,0Zm2.19-.56s-.08-.03-.09-.07c-.01-.05.02-.1.07-.12.36-.1.73-.21,1.08-.32.05-.02.1.01.12.06.02.05-.01.1-.06.12-.36.11-.72.22-1.09.32,0,0-.02,0-.03,0Zm-21.1-.03s-.02,0-.04,0c-.35-.14-.7-.3-1.04-.46-.05-.02-.07-.08-.04-.13.02-.05.08-.07.13-.04.33.16.68.31,1.03.45.05.02.07.08.05.12-.01.04-.05.06-.09.06Zm23.26-.63s-.08-.03-.09-.07c-.02-.05.01-.1.06-.12.36-.12.72-.24,1.07-.37.05-.02.1,0,.12.06.02.05,0,.1-.06.12-.35.12-.71.25-1.07.37,0,0-.02,0-.03,0Zm-25.3-.35s-.03,0-.05-.01c-.33-.18-.66-.38-.98-.58-.04-.03-.06-.09-.03-.13.03-.04.09-.06.13-.03.31.2.64.39.97.57.05.03.06.08.04.13-.02.03-.05.05-.08.05Zm-1.91-1.2s-.04,0-.06-.02c-.31-.22-.61-.45-.9-.69-.04-.03-.05-.09-.01-.13.03-.04.09-.05.13-.01.29.24.59.47.89.68.04.03.05.09.02.13-.02.03-.05.04-.08.04Zm-1.75-1.43s-.05,0-.06-.03c-.07-.07-.14-.13-.21-.2-.21-.2-.41-.4-.6-.6-.04-.04-.03-.1,0-.13.04-.04.1-.04.13,0,.19.2.39.4.59.59.07.07.14.13.21.2.04.04.04.1,0,.13-.02.02-.04.03-.07.03Zm-1.56-1.63s-.05-.01-.07-.03c-.25-.29-.48-.59-.7-.89-.03-.04-.02-.1.02-.13.04-.03.1-.02.13.02.22.3.45.59.69.88.03.04.03.1-.01.13-.02.01-.04.02-.06.02Zm-1.33-1.83s-.06-.02-.08-.05c-.2-.32-.39-.66-.56-.99-.02-.05,0-.1.04-.13.05-.02.1,0,.13.04.17.33.35.66.55.98.03.04.01.1-.03.13-.02,0-.03.01-.05.01Zm-1.02-2.01s-.07-.02-.09-.06c-.14-.35-.27-.71-.38-1.07-.02-.05.01-.1.06-.12.05-.02.1.01.12.06.11.35.23.71.37,1.06.02.05,0,.1-.05.12-.01,0-.02,0-.04,0Zm-.65-2.16s-.08-.03-.09-.08c-.07-.37-.13-.75-.17-1.13,0-.05.03-.1.08-.1.05,0,.1.03.1.08.04.37.1.74.17,1.11.01.05-.02.1-.07.11,0,0-.01,0-.02,0Zm-.23-2.24c-.05,0-.09-.04-.09-.09,0-.03,0-.07,0-.1,0-.34.02-.69.04-1.04,0-.05.05-.09.1-.09.05,0,.09.05.09.1-.03.34-.04.68-.04,1.02,0,.03,0,.07,0,.1,0,.05-.04.1-.09.1h0Zm.19-2.25s-.01,0-.02,0c-.05,0-.09-.06-.08-.11.07-.37.15-.74.25-1.11.01-.05.07-.08.12-.07.05.01.08.07.07.12-.1.36-.18.73-.25,1.09,0,.05-.05.08-.09.08Zm8.01,0c-.26,0-.52-.02-.78-.05-.05,0-.09-.05-.08-.11,0-.05.05-.09.11-.08.37.05.74.06,1.11.04.05,0,.1.04.1.09,0,.05-.04.1-.09.1-.12,0-.24.01-.36.01Zm1.47-.19s-.08-.03-.09-.07c-.01-.05.02-.1.07-.12.37-.1.71-.23,1.03-.4.05-.02.1,0,.13.04.02.05,0,.1-.04.13-.33.17-.69.31-1.07.41,0,0-.02,0-.02,0Zm-3.34-.1s-.02,0-.03,0c-.36-.11-.72-.25-1.06-.43-.05-.02-.07-.08-.04-.13.02-.05.08-.07.13-.04.33.17.68.31,1.03.41.05.02.08.07.06.12-.01.04-.05.07-.09.07Zm5.32-.96s-.05-.01-.07-.03c-.04-.04-.03-.1,0-.13.27-.25.51-.54.69-.85.03-.05.08-.06.13-.03.05.03.06.08.03.13-.19.33-.43.63-.72.9-.02.02-.04.03-.06.03Zm-7.33-.05s-.04,0-.06-.02c-.31-.22-.6-.47-.88-.73-.04-.04-.04-.1,0-.13.04-.04.1-.04.13,0,.27.26.56.5.85.72.04.03.05.09.02.13-.02.03-.05.04-.08.04Zm-3.52-.88s-.02,0-.03,0c-.05-.02-.07-.07-.06-.12.13-.35.28-.71.44-1.05.02-.05.08-.07.13-.04.05.02.07.08.04.13-.16.34-.31.68-.44,1.03-.01.04-.05.06-.09.06Zm1.91-.68s-.06-.01-.07-.04c-.23-.29-.44-.61-.64-.94-.03-.05-.01-.1.03-.13.04-.03.1-.01.13.03.19.33.4.64.63.92.03.04.02.1-.02.13-.02.01-.04.02-.06.02Zm10.06-.31s-.01,0-.02,0c-.05-.01-.08-.06-.07-.11.06-.27.09-.54.09-.83,0-.09,0-.18,0-.27,0-.05.04-.1.09-.1.05,0,.1.04.1.09,0,.09,0,.19,0,.28,0,.3-.03.59-.09.87,0,.04-.05.07-.09.07Zm-11-1.04s-.03,0-.05-.01c-.05-.03-.06-.08-.03-.13.19-.33.4-.65.62-.96.03-.04.09-.05.13-.02.04.03.05.09.02.13-.22.3-.42.62-.61.94-.02.03-.05.05-.08.05Zm-.21-.58s-.07-.02-.09-.06c-.15-.34-.29-.69-.41-1.06-.02-.05,0-.1.06-.12.05-.02.1.01.12.06.12.36.26.71.41,1.04.02.05,0,.1-.05.13-.01,0-.03,0-.04,0Zm11.09-.61s-.08-.03-.09-.07c-.01-.04-.02-.08-.03-.12-.1-.33-.22-.64-.35-.93-.02-.05,0-.1.05-.13.05-.02.1,0,.13.05.13.29.26.61.36.95.01.04.02.08.04.12.01.05-.01.1-.06.12,0,0-.02,0-.03,0Zm-9.57-.65s-.04,0-.06-.02c-.04-.03-.04-.09-.01-.13.25-.29.51-.57.78-.83.04-.04.1-.03.13,0,.04.04.03.1,0,.13-.27.25-.52.53-.77.81-.02.02-.05.03-.07.03Zm-2.25-.88s-.08-.03-.09-.07c-.09-.36-.16-.73-.22-1.11,0-.05.03-.1.08-.11.05,0,.1.03.11.08.06.38.14.75.22,1.1.01.05-.02.1-.07.11,0,0-.02,0-.02,0Zm10.86-.51s-.06-.01-.08-.04c-.22-.31-.47-.59-.75-.81-.04-.03-.05-.09-.01-.13.03-.04.09-.05.13-.01.28.24.55.52.78.85.03.04.02.1-.02.13-.02.01-.04.02-.06.02Zm-6.98-.17s-.06-.01-.08-.04c-.03-.04-.02-.1.02-.13.31-.24.63-.45.95-.64.05-.03.1-.01.13.03.03.05.01.1-.03.13-.31.18-.62.39-.93.62-.02.01-.04.02-.06.02Zm1.95-1.12s-.07-.02-.09-.06c-.02-.05,0-.1.05-.12.37-.15.74-.25,1.1-.32.05,0,.1.03.11.08,0,.05-.03.1-.08.11-.35.06-.71.16-1.07.31-.01,0-.02,0-.03,0Zm3.3-.12s-.02,0-.04,0c-.33-.14-.69-.22-1.07-.25-.05,0-.09-.05-.09-.1,0-.05.05-.09.1-.09.39.03.77.12,1.12.26.05.02.07.07.05.12-.01.04-.05.06-.09.06Zm-9.5-.31s-.09-.04-.09-.09c-.04-.37-.06-.75-.07-1.13,0-.05.04-.1.09-.1.05,0,.1.04.1.09.01.38.04.76.07,1.12,0,.05-.03.1-.09.1,0,0,0,0,0,0Zm-.08-2.26s0,0,0,0c-.05,0-.09-.04-.09-.1,0-.37.02-.75.04-1.13,0-.05.05-.09.1-.09.05,0,.09.05.09.1-.02.38-.04.76-.04,1.12,0,.05-.04.09-.09.09Zm.14-2.25s0,0-.01,0c-.05,0-.09-.05-.08-.1.04-.38.09-.76.15-1.12,0-.05.06-.09.11-.08.05,0,.09.06.08.11-.06.36-.11.74-.15,1.11,0,.05-.05.08-.09.08Zm.36-2.23s-.01,0-.02,0c-.05-.01-.08-.06-.07-.11.08-.37.17-.74.27-1.1.01-.05.07-.08.12-.07.05.01.08.07.07.12-.1.36-.19.72-.27,1.09,0,.04-.05.07-.09.07Zm.6-2.17s-.02,0-.03,0c-.05-.02-.08-.07-.06-.12.12-.36.26-.72.4-1.06.02-.05.08-.07.12-.05.05.02.07.08.05.12-.14.34-.27.7-.39,1.05-.01.04-.05.06-.09.06Zm.86-2.09s-.03,0-.04,0c-.05-.02-.07-.08-.04-.13.17-.34.34-.68.53-1,.03-.05.08-.06.13-.04.05.03.06.08.04.13-.18.32-.36.66-.52.99-.02.03-.05.05-.09.05Zm1.11-1.96s-.04,0-.05-.02c-.04-.03-.06-.09-.03-.13.21-.31.43-.63.65-.93.03-.04.09-.05.13-.02.04.03.05.09.02.13-.22.3-.44.61-.65.92-.02.03-.05.04-.08.04Zm1.36-1.8s-.04,0-.06-.02c-.04-.03-.04-.09,0-.13.25-.28.5-.57.77-.84.04-.04.1-.04.13,0,.04.04.04.1,0,.13-.26.27-.52.54-.76.83-.02.02-.05.03-.07.03Zm1.58-1.61s-.05-.01-.07-.03c-.03-.04-.03-.1,0-.13.28-.25.57-.5.87-.73.04-.03.1-.03.13.02.03.04.03.1-.02.13-.29.23-.58.48-.86.72-.02.02-.04.02-.06.02Zm25.89-.6s-.05,0-.07-.03c-.26-.26-.55-.51-.84-.75-.04-.03-.05-.09-.01-.13.03-.04.09-.05.13-.01.29.24.58.5.85.76.04.04.04.1,0,.13-.02.02-.04.03-.07.03Zm-24.12-.8s-.06-.01-.08-.04c-.03-.04-.02-.1.02-.13.31-.21.63-.42.95-.62.04-.03.1-.01.13.03.03.04.01.1-.03.13-.32.2-.64.4-.94.61-.02.01-.04.02-.05.02Zm22.38-.63s-.04,0-.05-.02c-.3-.21-.62-.41-.95-.6-.05-.03-.06-.08-.03-.13.03-.05.08-.06.13-.03.33.19.65.4.96.61.04.03.05.09.02.13-.02.03-.05.04-.08.04Zm-20.46-.54s-.07-.02-.08-.05c-.02-.05,0-.1.04-.13.33-.18.67-.35,1.02-.51.05-.02.1,0,.13.05.02.05,0,.1-.05.13-.34.16-.68.33-1.01.5-.01,0-.03.01-.04.01Zm18.51-.6s-.03,0-.04,0c-.33-.16-.68-.32-1.02-.46-.05-.02-.07-.08-.05-.12.02-.05.08-.07.12-.05.35.14.7.3,1.03.47.05.02.07.08.04.13-.02.03-.05.05-.09.05Zm-16.46-.35s-.07-.02-.09-.06c-.02-.05,0-.1.05-.12.35-.14.71-.27,1.06-.39.05-.02.1,0,.12.06.02.05,0,.1-.06.12-.35.12-.71.25-1.06.39-.01,0-.02,0-.04,0Zm14.38-.51s-.02,0-.03,0c-.35-.12-.71-.23-1.07-.33-.05-.01-.08-.07-.07-.12.01-.05.07-.08.12-.07.37.1.73.21,1.09.33.05.02.08.07.06.12-.01.04-.05.06-.09.06Zm-12.24-.21s-.08-.03-.09-.07c-.01-.05.02-.1.07-.12.36-.1.73-.19,1.1-.28.05-.01.1.02.11.07.01.05-.02.1-.07.11-.37.08-.73.17-1.09.27,0,0-.02,0-.03,0Zm10.06-.37s-.01,0-.02,0c-.36-.08-.74-.14-1.11-.2-.05,0-.09-.06-.08-.11,0-.05.06-.09.11-.08.37.06.75.12,1.12.2.05.01.08.06.07.11,0,.04-.05.08-.09.08Zm-7.86-.12s-.09-.03-.09-.08c0-.05.03-.1.08-.11.37-.06.75-.12,1.12-.16.05,0,.1.03.11.08,0,.05-.03.1-.08.11-.37.04-.75.1-1.11.16,0,0-.01,0-.02,0Zm5.62-.22s0,0,0,0c-.37-.03-.75-.06-1.12-.07-.05,0-.09-.05-.09-.1,0-.05.05-.09.1-.09.38.01.76.04,1.13.07.05,0,.09.05.09.1,0,.05-.05.09-.09.09Zm-3.38-.05s-.09-.04-.09-.09c0-.05.04-.1.09-.1.38-.02.76-.04,1.13-.04h0c.05,0,.09.04.09.09,0,.05-.04.1-.09.1-.37,0-.75.02-1.12.04,0,0,0,0,0,0Z"/>
    <path class="cls-7" d="m40.58,85.37s-.07-.02-.09-.06c-.02-.05,0-.1.05-.12.34-.13.52-.21.52-.21.05-.02.1,0,.12.05.02.05,0,.1-.05.12,0,0-.19.08-.53.22-.01,0-.02,0-.03,0Z"/>
  </g>
  <g>
    <path class="cls-7" d="m45.82,45.13s-.01,0-.02,0c-.05-.01-.08-.06-.07-.11.04-.19.09-.37.15-.56.02-.05.07-.08.12-.06.05.02.08.07.06.12-.06.18-.11.36-.15.54,0,.04-.05.07-.09.07Z"/>
    <path class="cls-7" d="m71.26,71.89s-.07-.02-.09-.06c-.02-.05,0-.1.06-.12.34-.13.67-.28,1.01-.47.05-.03.1,0,.13.04.03.05,0,.1-.04.13-.34.19-.69.35-1.03.48-.01,0-.02,0-.03,0Zm1.97-1.07s-.06-.01-.08-.04c-.03-.04-.02-.1.02-.13.3-.22.59-.45.86-.7.04-.04.1-.03.13,0,.04.04.03.1,0,.13-.28.25-.57.5-.88.72-.02.01-.04.02-.06.02Zm1.65-1.52s-.04,0-.06-.02c-.04-.03-.05-.09-.01-.13.24-.28.46-.58.66-.89.03-.04.09-.06.13-.03.04.03.06.09.03.13-.2.32-.43.62-.67.91-.02.02-.05.03-.07.03Zm1.21-1.89s-.03,0-.04,0c-.05-.02-.07-.08-.05-.13.15-.33.29-.68.4-1.04.02-.05.07-.08.12-.06.05.02.08.07.06.12-.11.36-.25.72-.41,1.06-.02.03-.05.05-.09.05Zm.67-2.14s-.01,0-.02,0c-.05,0-.09-.06-.08-.11.06-.36.1-.73.12-1.1,0-.05.05-.09.1-.09.05,0,.09.05.09.1-.02.38-.06.76-.12,1.13,0,.05-.05.08-.09.08Zm.12-2.24s-.09-.04-.09-.09c-.02-.36-.06-.73-.12-1.11,0-.05.03-.1.08-.11.05,0,.1.03.11.08.06.38.1.76.12,1.13,0,.05-.04.1-.09.1,0,0,0,0,0,0Zm-.34-2.22s-.08-.03-.09-.07c-.09-.35-.19-.71-.31-1.07-.02-.05.01-.1.06-.12.05-.02.1.01.12.06.12.36.22.73.31,1.09.01.05-.02.1-.07.11,0,0-.02,0-.02,0Zm-.68-2.14s-.08-.03-.09-.07c-.12-.36-.22-.73-.3-1.09-.01-.05.02-.1.07-.11.05-.01.1.02.11.07.08.36.17.72.29,1.07.02.05-.01.1-.06.12,0,0-.02,0-.03,0Zm-.47-2.19s-.09-.04-.09-.09c-.03-.32-.05-.65-.05-.97,0-.05,0-.11,0-.16,0-.05.04-.09.09-.09,0,0,0,0,0,0,.05,0,.09.04.09.1,0,.05,0,.1,0,.16,0,.32.02.64.05.96,0,.05-.03.1-.08.1,0,0,0,0,0,0Zm.04-2.24s0,0-.01,0c-.05,0-.09-.05-.08-.11.05-.37.12-.75.22-1.11.01-.05.06-.08.12-.07.05.01.08.06.07.12-.09.36-.16.72-.21,1.09,0,.05-.05.08-.09.08Zm7.86-.15c-.05,0-.09-.04-.09-.09,0-.05.04-.1.09-.1.38,0,.75-.04,1.11-.09.05,0,.1.03.11.08,0,.05-.03.1-.08.11-.36.05-.75.08-1.13.09,0,0,0,0,0,0Zm-1.12-.05s0,0,0,0c-.37-.04-.75-.09-1.12-.17-.05-.01-.08-.06-.07-.11.01-.05.06-.08.11-.07.37.07.74.13,1.1.17.05,0,.09.05.09.1,0,.05-.05.09-.09.09Zm3.34-.29s-.08-.03-.09-.07c-.02-.05.01-.1.06-.12.37-.11.71-.26,1.02-.42.05-.03.1,0,.13.04.03.05,0,.1-.04.13-.32.17-.67.32-1.05.44,0,0-.02,0-.03,0Zm-5.54-.16s-.02,0-.03,0c-.36-.11-.72-.24-1.06-.39-.05-.02-.07-.08-.05-.12.02-.05.08-.07.12-.05.34.14.69.27,1.05.38.05.02.08.07.06.12-.01.04-.05.07-.09.07Zm-2.07-.87s-.03,0-.05-.01c-.33-.18-.66-.38-.97-.59-.04-.03-.05-.09-.03-.13.03-.04.09-.05.13-.03.31.21.63.4.95.58.05.02.06.08.04.13-.02.03-.05.05-.08.05Zm9.54-.06s-.05,0-.07-.03c-.04-.04-.04-.1,0-.13.27-.27.47-.57.6-.89.02-.05.07-.07.12-.05.05.02.07.07.05.12-.14.35-.35.67-.64.96-.02.02-.04.03-.07.03Zm-11.45-.6s-.02,0-.03,0c-.05-.02-.07-.07-.05-.12.14-.35.3-.7.47-1.03.02-.05.08-.06.13-.04.05.02.06.08.04.13-.17.33-.33.67-.46,1.01-.01.04-.05.06-.09.06Zm.04-.6s-.04,0-.06-.02c-.29-.24-.57-.49-.84-.76-.04-.04-.04-.1,0-.13.04-.04.1-.04.13,0,.26.26.54.51.83.75.04.03.05.09.01.13-.02.02-.05.03-.07.03Zm12.2-.83s-.09-.04-.09-.09c-.02-.34-.11-.69-.27-1.05-.02-.05,0-.1.05-.12.05-.02.1,0,.12.05.16.38.26.75.29,1.11,0,.05-.04.1-.09.1,0,0,0,0,0,0Zm-11.19-.55s-.04,0-.05-.02c-.04-.03-.05-.09-.02-.13.22-.31.45-.61.7-.89.03-.04.09-.04.13,0,.04.03.04.09,0,.13-.24.28-.47.57-.68.88-.02.03-.05.04-.08.04Zm-2.6-.19s-.05-.01-.07-.03c-.24-.29-.47-.59-.69-.9-.03-.04-.02-.1.02-.13.04-.03.1-.02.13.02.21.31.44.6.68.88.03.04.03.1-.01.13-.02.01-.04.02-.06.02Zm12.95-1.3s-.06-.01-.08-.04c-.22-.31-.47-.59-.73-.83-.04-.04-.04-.1,0-.13.04-.04.1-.04.13,0,.27.25.52.54.75.86.03.04.02.1-.02.13-.02.01-.04.02-.06.02Zm-8.86-.18s-.05-.01-.07-.03c-.03-.04-.03-.1,0-.13.28-.25.58-.49.89-.7.04-.03.1-.02.13.02.03.04.02.1-.02.13-.3.21-.59.44-.87.69-.02.02-.04.02-.06.02Zm-5.38-.35s-.06-.02-.08-.05c-.19-.32-.37-.66-.53-1-.02-.05,0-.1.04-.13.05-.02.1,0,.13.04.16.34.34.67.52.98.03.05.01.1-.03.13-.02,0-.03.01-.05.01Zm7.22-.92s-.07-.02-.08-.05c-.02-.05,0-.1.04-.13.35-.17.7-.32,1.05-.43.05-.02.1.01.12.06.02.05-.01.1-.06.12-.34.11-.69.25-1.02.42-.01,0-.03.01-.04.01Zm5.38-.07s-.03,0-.05-.01c-.32-.19-.66-.34-1.01-.44-.05-.02-.08-.07-.06-.12.02-.05.07-.08.12-.06.37.11.72.27,1.05.46.05.03.06.08.03.13-.02.03-.05.05-.08.05Zm-3.25-.61s-.09-.03-.09-.08c0-.05.03-.1.08-.11.38-.05.77-.07,1.14-.04.05,0,.09.05.09.1,0,.05-.05.09-.1.09-.36-.02-.73-.01-1.1.04,0,0,0,0-.01,0Zm-10.34-.42s-.07-.02-.09-.06c-.14-.34-.26-.7-.38-1.06-.02-.05.01-.1.06-.12.05-.02.1.01.12.06.11.36.24.71.38,1.05.02.05,0,.1-.05.12-.01,0-.02,0-.03,0Zm-.73-2.12s-.07-.02-.09-.06c-.13-.35-.28-.7-.44-1.02-.02-.05,0-.1.04-.13.05-.02.1,0,.13.04.16.33.31.68.45,1.04.02.05,0,.1-.06.12-.01,0-.02,0-.03,0Zm-25.02-.37s-.03,0-.04-.01c-.05-.02-.06-.08-.04-.13.17-.33.37-.65.59-.97.03-.04.09-.05.13-.02.04.03.05.09.02.13-.22.31-.41.63-.58.95-.02.03-.05.05-.08.05Zm24.04-1.65s-.06-.02-.08-.04c-.2-.32-.41-.62-.63-.91-.03-.04-.02-.1.02-.13.04-.03.1-.02.13.02.23.3.45.61.65.93.03.04.01.1-.03.13-.02,0-.03.01-.05.01Zm-22.75-.19s-.05,0-.06-.02c-.04-.03-.04-.09,0-.13.25-.27.51-.54.8-.8.04-.04.1-.03.13,0,.04.04.03.1,0,.13-.28.26-.55.52-.79.79-.02.02-.04.03-.07.03Zm1.66-1.51s-.06-.01-.08-.04c-.03-.04-.02-.1.02-.13.29-.22.61-.44.93-.65.04-.03.1-.02.13.03.03.04.02.1-.03.13-.32.2-.63.42-.91.64-.02.01-.04.02-.06.02Zm19.72-.07s-.05,0-.07-.03c-.26-.27-.53-.52-.82-.76-.04-.03-.05-.09-.01-.13.03-.04.09-.05.13-.01.29.24.57.5.83.77.04.04.04.1,0,.13-.02.02-.04.03-.07.03Zm-17.84-1.15s-.07-.02-.08-.05c-.03-.05,0-.1.04-.13.33-.18.66-.35,1.01-.51.05-.02.1,0,.13.05.02.05,0,.1-.05.13-.34.16-.68.33-1,.51-.01,0-.03.01-.05.01Zm16.11-.28s-.04,0-.05-.02c-.31-.2-.63-.39-.96-.56-.05-.02-.06-.08-.04-.13.02-.05.08-.06.13-.04.34.17.67.37.98.57.04.03.06.09.03.13-.02.03-.05.04-.08.04Zm-14.07-.67s-.07-.02-.09-.06c-.02-.05,0-.1.05-.12.35-.14.7-.27,1.06-.38.05-.02.1.01.12.06.02.05-.01.1-.06.12-.35.12-.71.24-1.05.38-.01,0-.02,0-.03,0Zm12.08-.36s-.02,0-.04,0c-.34-.14-.69-.26-1.05-.37-.05-.01-.08-.07-.06-.12.01-.05.07-.08.12-.06.37.11.72.23,1.07.37.05.02.07.07.05.12-.01.04-.05.06-.09.06Zm-9.95-.34s-.08-.03-.09-.07c-.01-.05.02-.1.07-.12.36-.1.73-.18,1.1-.26.05-.01.1.02.11.07.01.05-.02.1-.07.11-.36.07-.73.16-1.09.25,0,0-.02,0-.02,0Zm7.8-.31s-.01,0-.02,0c-.36-.07-.73-.14-1.1-.18-.05,0-.09-.05-.08-.11,0-.05.05-.09.11-.08.38.05.75.11,1.12.19.05.01.08.06.07.11,0,.04-.05.08-.09.08Zm-5.59-.14s-.09-.03-.09-.08c0-.05.03-.1.08-.11.37-.05.75-.09,1.12-.12.05,0,.1.03.1.09,0,.05-.03.1-.09.1-.37.03-.74.07-1.11.12,0,0,0,0-.01,0Zm3.36-.15s0,0,0,0c-.37-.02-.74-.03-1.12-.02-.05,0-.1-.04-.1-.09,0-.05.04-.1.09-.1.38,0,.76,0,1.13.02.05,0,.09.05.09.1,0,.05-.04.09-.09.09Z"/>
    <path class="cls-7" d="m69.6,72.25c-.05,0-.09-.04-.09-.09s.04-.09.09-.09c.17,0,.35-.02.55-.05.05,0,.1.03.11.08,0,.05-.03.1-.08.11-.21.04-.41.05-.58.05Z"/>
  </g>
  <g>
    <path class="cls-7" d="m52.62,46.6s0,0,0,0c-.19-.01-.38-.03-.57-.04-.05,0-.09-.05-.09-.1,0-.05.05-.09.1-.09.19.01.38.02.57.04.05,0,.09.05.09.1,0,.05-.05.09-.09.09Z"/>
    <path class="cls-7" d="m70.54,100.77c-.08,0-.16,0-.24,0-.05,0-.09-.04-.09-.1,0-.05.04-.09.09-.09h0c.38,0,.76,0,1.13-.03.05,0,.1.04.1.09,0,.05-.04.1-.09.1-.3.02-.61.03-.91.03Zm-1.37-.07s0,0,0,0c-.38-.04-.76-.09-1.14-.15-.05,0-.09-.06-.08-.11,0-.05.06-.09.11-.08.37.07.75.12,1.12.15.05,0,.09.05.09.1,0,.05-.05.09-.09.09Zm3.41-.08s-.09-.03-.09-.08c0-.05.03-.1.08-.11.37-.06.74-.13,1.11-.22.05-.01.1.02.11.07.01.05-.02.1-.07.11-.37.09-.75.16-1.13.22,0,0,0,0-.01,0Zm-5.65-.3s-.01,0-.02,0c-.37-.09-.75-.18-1.11-.29-.05-.01-.08-.07-.06-.12.01-.05.07-.08.12-.06.36.1.73.2,1.1.28.05.01.08.06.07.11-.01.04-.05.07-.09.07Zm7.86-.23s-.08-.03-.09-.07c-.02-.05.01-.1.06-.12.36-.12.71-.25,1.06-.4.05-.02.1,0,.12.05.02.05,0,.1-.05.12-.35.15-.71.29-1.07.4,0,0-.02,0-.03,0Zm-10.05-.4s-.02,0-.03,0c-.36-.13-.72-.26-1.07-.41-.05-.02-.07-.08-.05-.12s.08-.07.12-.05c.35.14.7.28,1.06.41.05.02.08.07.06.12-.01.04-.05.06-.09.06Zm12.14-.49s-.07-.02-.08-.05c-.02-.05,0-.1.04-.13.33-.17.66-.37.98-.57.04-.03.1-.02.13.03.03.04.02.1-.03.13-.32.2-.66.4-.99.58-.01,0-.03.01-.04.01Zm-14.24-.39s-.03,0-.04,0c-.34-.17-.68-.35-1.01-.54-.05-.03-.06-.08-.04-.13.03-.05.08-.06.13-.04.33.19.66.36,1,.53.05.02.07.08.04.13-.02.03-.05.05-.09.05Zm16.16-.83s-.06-.01-.08-.04c-.03-.04-.02-.1.02-.13.3-.23.59-.47.88-.72.04-.03.1-.03.13,0,.03.04.03.1,0,.13-.29.25-.58.5-.89.73-.02.01-.04.02-.06.02Zm-18.14-.3s-.04,0-.05-.02c-.32-.21-.63-.43-.94-.66-.04-.03-.05-.09-.02-.13.03-.04.09-.05.13-.02.3.22.61.44.93.65.04.03.06.09.03.13-.02.03-.05.04-.08.04Zm19.84-1.21s-.05,0-.07-.03c-.04-.04-.04-.1,0-.13.26-.27.51-.55.75-.84.03-.04.09-.05.13-.01.04.03.05.09.01.13-.24.29-.5.58-.76.85-.02.02-.04.03-.07.03Zm-21.67-.15s-.04,0-.06-.02c-.29-.24-.58-.5-.85-.76-.04-.04-.04-.1,0-.13.04-.04.1-.04.13,0,.27.26.56.51.84.76.04.03.05.09.01.13-.02.02-.05.03-.07.03Zm-1.65-1.57s-.05-.01-.07-.03c-.26-.28-.51-.57-.76-.86-.03-.04-.03-.1.01-.13.04-.03.1-.03.13.01.24.29.49.58.75.85.04.04.03.1,0,.13-.02.02-.04.03-.06.03Zm24.77-.04s-.04,0-.05-.02c-.04-.03-.05-.09-.02-.13.22-.31.42-.63.61-.95.03-.05.08-.06.13-.03.05.03.06.08.03.13-.19.33-.4.65-.62.96-.02.03-.05.04-.08.04Zm-26.23-1.71s-.06-.01-.08-.04c-.23-.31-.45-.62-.65-.94-.03-.04-.02-.1.03-.13.04-.03.1-.02.13.03.21.31.42.63.65.93.03.04.02.1-.02.13-.02.01-.04.02-.06.02Zm27.39-.25s-.03,0-.04,0c-.05-.02-.07-.08-.04-.13.17-.34.32-.69.45-1.04.02-.05.07-.07.12-.05.05.02.07.07.05.12-.14.35-.29.71-.46,1.05-.02.03-.05.05-.09.05Zm-28.63-1.66s-.06-.02-.08-.05c-.19-.33-.37-.67-.54-1.01-.02-.05,0-.1.04-.13.05-.02.1,0,.13.04.17.33.35.67.54,1,.03.05.01.1-.03.13-.01,0-.03.01-.05.01Zm29.45-.46s-.02,0-.03,0c-.05-.01-.08-.07-.06-.12.11-.36.19-.73.26-1.1,0-.05.06-.09.11-.08.05,0,.09.06.08.11-.07.37-.16.75-.27,1.12-.01.04-.05.07-.09.07Zm.43-2.23s0,0,0,0c-.05,0-.09-.05-.09-.1.03-.32.04-.65.04-.96,0-.05,0-.11,0-.16,0-.05.04-.1.09-.1h0c.05,0,.09.04.09.09,0,.06,0,.11,0,.17,0,.32-.02.65-.04.98,0,.05-.05.09-.09.09Zm-.04-2.27s-.09-.03-.09-.08c-.05-.37-.12-.75-.21-1.11-.01-.05.02-.1.07-.12.05-.01.1.02.12.07.09.37.17.75.22,1.13,0,.05-.03.1-.08.11,0,0,0,0-.01,0Zm-.57-2.2s-.07-.02-.09-.06c-.14-.35-.3-.69-.48-1.02-.03-.05,0-.1.04-.13.05-.03.1,0,.13.04.19.33.35.68.49,1.04.02.05,0,.1-.05.12-.01,0-.02,0-.03,0Zm-7.27-1.02c-.29,0-.57-.04-.82-.13-.05-.02-.08-.07-.06-.12.02-.05.07-.08.12-.06.32.11.69.15,1.08.1.05,0,.1.03.1.08,0,.05-.03.1-.08.1-.12.01-.23.02-.35.02Zm1.43-.3s-.07-.02-.09-.06c-.02-.05,0-.1.05-.12.32-.13.66-.29,1.01-.5.05-.03.1-.01.13.03.03.05.01.1-.03.13-.35.21-.7.38-1.03.51-.01,0-.02,0-.03,0Zm-3.13-.48s-.06-.01-.08-.04c-.23-.3-.39-.68-.45-1.08,0-.05.03-.1.08-.11.05,0,.1.03.11.08.06.37.2.72.42,1,.03.04.02.1-.02.13-.02.01-.04.02-.06.02Zm7.87-.18s-.06-.01-.08-.04c-.22-.3-.47-.59-.73-.86-.04-.04-.03-.1,0-.13.04-.04.1-.04.13,0,.27.28.52.57.74.88.03.04.02.1-.02.13-.02.01-.04.02-.06.02Zm-2.77-.48s-.06-.01-.08-.04c-.03-.04-.02-.1.02-.13.29-.22.56-.48.81-.77.03-.04.09-.04.13-.01.04.03.04.09.01.13-.26.3-.54.57-.84.8-.02.01-.04.02-.06.02Zm1.2-1.16s-.04,0-.06-.02c-.03-.03-.07-.06-.1-.08-.27-.22-.54-.42-.8-.6-.04-.03-.05-.09-.02-.13.03-.04.09-.05.13-.02.26.18.54.39.81.6.04.03.07.06.11.09.04.03.05.09.01.13-.02.02-.05.03-.07.03Zm-6.66-.35s-.02,0-.03,0c-.05-.01-.08-.07-.07-.12.11-.39.31-.74.58-1.02.04-.04.1-.04.13,0,.04.04.04.1,0,.13-.24.26-.43.58-.53.94-.01.04-.05.07-.09.07Zm6.94-.21s-.03,0-.05-.01c-.05-.03-.06-.08-.04-.13.18-.31.34-.65.48-1.02.02-.05.07-.07.12-.05.05.02.07.07.05.12-.14.37-.31.72-.49,1.04-.02.03-.05.05-.08.05Zm-2.16-.73s-.03,0-.05-.01c-.35-.19-.7-.35-1.02-.46-.05-.02-.08-.07-.06-.12.02-.05.07-.08.12-.06.34.12.69.28,1.05.48.05.02.06.08.04.13-.02.03-.05.05-.08.05Zm-3.27-.63s-.08-.03-.09-.07c-.02-.05.01-.1.06-.12.35-.11.74-.14,1.16-.1.05,0,.09.05.09.1,0,.05-.05.09-.1.09-.39-.04-.76,0-1.09.09,0,0-.02,0-.03,0Zm6.25-.75s-.02,0-.02,0c-.05-.01-.08-.06-.07-.11.09-.35.16-.73.21-1.11,0-.05.06-.09.11-.08.05,0,.09.06.08.11-.06.39-.13.77-.22,1.13-.01.04-.05.07-.09.07Zm.32-2.25s0,0,0,0c-.05,0-.09-.05-.09-.1.01-.27.02-.54.02-.82,0-.1,0-.21,0-.31,0-.05.04-.1.09-.1.05,0,.1.04.1.09,0,.11,0,.21,0,.32,0,.28,0,.56-.02.83,0,.05-.04.09-.09.09Zm-.04-2.28s-.09-.04-.09-.09c-.03-.37-.07-.75-.13-1.13,0-.05.03-.1.08-.11.05,0,.1.03.11.08.05.38.1.77.13,1.14,0,.05-.03.1-.09.1,0,0,0,0,0,0Zm-.32-2.26s-.08-.03-.09-.08c-.07-.36-.16-.74-.25-1.11-.01-.05.02-.1.07-.11.05-.01.1.02.11.07.09.37.18.75.25,1.12.01.05-.02.1-.07.11,0,0-.01,0-.02,0Zm-.55-2.21s-.08-.03-.09-.07c-.11-.36-.22-.72-.35-1.08-.02-.05,0-.1.06-.12.05-.02.1,0,.12.06.13.36.24.73.35,1.09.01.05-.01.1-.06.12,0,0-.02,0-.03,0Zm-.74-2.15s-.07-.02-.09-.06c-.14-.35-.28-.7-.44-1.05-.02-.05,0-.1.05-.12.05-.02.1,0,.12.05.15.35.3.7.44,1.06.02.05,0,.1-.05.12-.01,0-.02,0-.03,0Zm-.92-2.09s-.07-.02-.09-.05c-.16-.34-.34-.68-.52-1.01-.02-.05,0-.1.04-.13.05-.02.1,0,.13.04.18.34.35.68.52,1.02.02.05,0,.1-.04.13-.01,0-.03,0-.04,0Zm-1.07-2.01s-.06-.02-.08-.05c-.19-.32-.39-.65-.59-.97-.03-.04-.01-.1.03-.13.04-.03.1-.01.13.03.2.32.4.65.59.98.03.05.01.1-.03.13-.02,0-.03.01-.05.01Zm-1.22-1.92s-.06-.01-.08-.04c-.21-.31-.44-.62-.66-.92-.03-.04-.02-.1.02-.13.04-.03.1-.02.13.02.23.3.45.62.66.93.03.04.02.1-.02.13-.02.01-.04.02-.05.02Zm-1.36-1.83s-.06-.01-.07-.04c-.23-.29-.48-.59-.72-.87-.03-.04-.03-.1.01-.13.04-.03.1-.03.13.01.25.29.49.58.73.88.03.04.03.1-.01.13-.02.01-.04.02-.06.02Zm-1.48-1.73s-.05-.01-.07-.03c-.26-.28-.52-.55-.79-.82-.04-.04-.04-.1,0-.13.04-.04.1-.04.13,0,.27.27.53.55.79.83.04.04.03.1,0,.13-.02.02-.04.03-.06.03Zm-1.61-1.62s-.05,0-.06-.03c-.27-.26-.56-.51-.84-.76-.04-.03-.04-.09,0-.13.03-.04.09-.04.13,0,.29.25.57.51.85.77.04.04.04.1,0,.13-.02.02-.04.03-.07.03Zm-1.72-1.5s-.04,0-.06-.02c-.29-.24-.59-.47-.9-.7-.04-.03-.05-.09-.02-.13.03-.04.09-.05.13-.02.3.23.61.46.9.7.04.03.05.09.01.13-.02.02-.05.04-.07.04Zm-1.82-1.37s-.04,0-.05-.02c-.31-.22-.63-.43-.94-.63-.04-.03-.06-.09-.03-.13.03-.04.09-.06.13-.03.32.21.64.42.95.64.04.03.05.09.02.13-.02.03-.05.04-.08.04Zm-1.91-1.23s-.03,0-.05-.01c-.32-.19-.66-.38-.99-.56-.05-.03-.06-.08-.04-.13.03-.05.08-.06.13-.04.33.18.67.37.99.57.04.03.06.08.03.13-.02.03-.05.05-.08.05Zm-2-1.09s-.03,0-.04-.01c-.34-.17-.68-.33-1.02-.49-.05-.02-.07-.08-.05-.13.02-.05.08-.07.13-.05.35.16.69.32,1.03.49.05.02.07.08.04.13-.02.03-.05.05-.08.05Zm-2.07-.95s-.02,0-.04,0c-.35-.14-.7-.28-1.06-.42-.05-.02-.07-.07-.06-.12.02-.05.07-.07.12-.06.36.13.71.27,1.06.42.05.02.07.08.05.12-.02.04-.05.06-.09.06Zm-2.13-.8s-.02,0-.03,0c-.36-.12-.72-.24-1.08-.34-.05-.02-.08-.07-.06-.12.01-.05.07-.08.12-.06.36.11.73.23,1.09.35.05.02.08.07.06.12-.01.04-.05.06-.09.06Zm-2.18-.65s-.02,0-.02,0c-.36-.1-.73-.19-1.1-.27-.05-.01-.08-.06-.07-.11.01-.05.06-.08.11-.07.37.08.74.18,1.11.27.05.01.08.07.07.12-.01.04-.05.07-.09.07Zm-2.22-.51s-.01,0-.02,0c-.37-.07-.74-.14-1.12-.2-.05,0-.09-.06-.08-.11,0-.05.06-.09.11-.08.38.06.75.13,1.12.2.05,0,.08.06.07.11,0,.05-.05.08-.09.08Zm-2.25-.36s0,0-.01,0c-.37-.05-.75-.09-1.13-.13-.05,0-.09-.05-.08-.1,0-.05.05-.09.1-.08.38.04.76.08,1.13.13.05,0,.09.05.08.11,0,.05-.05.08-.09.08Z"/>
    <path class="cls-7" d="m53.46,89.03s-.07-.02-.09-.06c-.14-.34-.2-.53-.2-.54-.02-.05.01-.1.06-.12.05-.02.1.01.12.06,0,0,.06.19.2.52.02.05,0,.1-.05.12-.01,0-.02,0-.04,0Z"/>
  </g>
  <path class="cls-7" d="m31.83,66.51c-.19,0-.38,0-.57-.02-.04,0-.07-.04-.07-.08,0-.04.04-.07.08-.07.37.03.75.03,1.13,0,.04,0,.07.03.08.07,0,.04-.03.07-.07.08-.19.01-.39.02-.58.02Zm1.7-.18s-.06-.02-.07-.06c0-.04.02-.08.05-.08.09-.02.18-.04.26-.06.04,0,.08.01.09.05,0,.04-.01.08-.05.09-.09.02-.18.04-.27.06,0,0,0,0-.01,0Zm-3.39,0s-.01,0-.02,0c-.37-.08-.74-.19-1.1-.33-.04-.01-.06-.05-.04-.09.01-.04.05-.06.09-.04.35.13.71.24,1.08.32.04,0,.06.05.05.08,0,.03-.04.06-.07.06Zm-2.12-.8s-.02,0-.03,0c-.33-.19-.65-.4-.96-.63-.03-.02-.04-.07-.01-.1.02-.03.07-.04.1-.01.3.23.61.44.94.62.03.02.05.06.03.1-.01.02-.04.04-.06.04Zm-1.8-1.38s-.04,0-.05-.02c-.27-.27-.51-.57-.74-.87-.02-.03-.02-.08.02-.1.03-.02.08-.02.1.02.22.3.47.59.73.86.03.03.03.07,0,.1-.01.01-.03.02-.05.02Zm-1.34-1.83s-.05-.01-.06-.04c-.18-.33-.34-.68-.48-1.04-.01-.04,0-.08.04-.09.04-.01.08,0,.09.04.14.35.29.7.47,1.02.02.03,0,.08-.03.1-.01,0-.02,0-.03,0Zm-.81-2.12s-.06-.02-.07-.05c-.09-.37-.16-.74-.21-1.13,0-.04.02-.07.06-.08.04,0,.07.02.08.06.05.38.12.75.2,1.11,0,.04-.01.08-.05.09,0,0-.01,0-.02,0Zm-.28-2.25s-.07-.03-.07-.07c0-.05,0-.11,0-.16,0-.32.01-.65.04-.98,0-.04.04-.07.08-.06.04,0,.07.04.06.08-.03.32-.04.65-.04.97,0,.05,0,.11,0,.16,0,.04-.03.07-.07.07h0Zm.19-2.26s0,0-.01,0c-.04,0-.06-.04-.06-.08.03-.17.07-.35.1-.52.05-.21.08-.41.09-.59,0-.04.04-.07.08-.06.04,0,.07.04.06.08-.02.19-.05.4-.1.61-.04.17-.07.34-.1.51,0,.03-.04.06-.07.06Zm.11-2.24s-.06-.02-.07-.05c-.1-.35-.27-.66-.53-.95-.03-.03-.02-.07,0-.1.03-.03.07-.02.1,0,.27.3.45.63.56,1,.01.04-.01.08-.05.09,0,0-.01,0-.02,0Zm-1.43-1.67s-.02,0-.04,0c-.29-.17-.62-.33-1.02-.48-.04-.01-.05-.06-.04-.09.01-.04.06-.05.09-.04.4.16.74.32,1.04.49.03.02.05.06.03.1-.01.02-.04.04-.06.04Zm-2.1-.86s-.01,0-.02,0c-.38-.12-.76-.23-1.09-.32-.04-.01-.06-.05-.05-.09.01-.04.05-.06.09-.05.33.09.72.2,1.1.32.04.01.06.05.05.09,0,.03-.04.05-.07.05Zm-2.19-.62s-.01,0-.02,0c-.43-.12-.78-.22-1.09-.32-.04-.01-.06-.05-.05-.09.01-.04.05-.06.09-.05.32.1.66.2,1.09.32.04.01.06.05.05.09,0,.03-.04.05-.07.05Zm-2.17-.69s-.02,0-.02,0c-.38-.14-.73-.29-1.05-.44-.04-.02-.05-.06-.03-.09.02-.04.06-.05.09-.03.32.15.67.3,1.04.44.04.01.06.05.04.09-.01.03-.04.05-.07.05Zm-2.05-.98s-.03,0-.04-.01c-.34-.21-.65-.44-.93-.67-.03-.03-.03-.07,0-.1.03-.03.07-.03.1,0,.27.23.58.46.91.66.03.02.04.06.02.1-.01.02-.04.03-.06.03Zm-1.71-1.48s-.04,0-.06-.03c-.24-.3-.45-.62-.63-.95-.02-.03,0-.08.03-.1.03-.02.08,0,.1.03.17.33.38.64.62.93.02.03.02.08-.01.1-.01.01-.03.02-.04.02Zm29.32-1.94s-.06-.02-.07-.05c-.11-.36-.22-.73-.34-1.08-.01-.04,0-.08.04-.09.04-.01.08,0,.09.04.12.36.24.72.34,1.09.01.04-.01.08-.05.09,0,0-.01,0-.02,0Zm-30.38-.04s-.06-.02-.07-.05c-.11-.35-.2-.72-.26-1.11,0-.04.02-.08.06-.08.04,0,.08.02.08.06.06.38.14.75.25,1.09.01.04,0,.08-.05.09,0,0-.01,0-.02,0Zm29.65-2.11s-.06-.02-.07-.05c-.14-.35-.28-.71-.43-1.05-.02-.04,0-.08.04-.09.04-.02.08,0,.09.04.15.34.3.7.44,1.05.01.04,0,.08-.04.09,0,0-.02,0-.03,0Zm-30-.12s-.07-.03-.07-.07c0-.11,0-.22,0-.32,0-.26,0-.54.03-.82,0-.04.04-.07.08-.07.04,0,.07.04.07.08-.02.28-.03.55-.03.81,0,.11,0,.21,0,.32,0,.04-.03.07-.07.07,0,0,0,0,0,0Zm11.5-.62c-.21,0-.42-.01-.63-.04-.04,0-.07-.04-.06-.08,0-.04.04-.07.08-.06.37.05.75.05,1.12.01.04,0,.07.02.08.06,0,.04-.02.07-.06.08-.17.02-.35.03-.52.03Zm1.62-.27s-.06-.02-.07-.05c-.01-.04,0-.08.04-.09.35-.12.69-.28,1.01-.48.03-.02.08-.01.1.02.02.03.01.08-.02.1-.33.2-.68.37-1.04.5,0,0-.02,0-.02,0Zm-3.35-.03s-.02,0-.02,0c-.36-.13-.71-.3-1.03-.51-.03-.02-.04-.07-.02-.1.02-.03.07-.04.1-.02.31.2.65.37,1,.49.04.01.06.05.04.09-.01.03-.04.05-.07.05Zm19.31-1.04s-.05-.01-.06-.04c-.17-.34-.35-.68-.53-1-.02-.03,0-.08.03-.1.03-.02.08,0,.1.03.18.33.36.67.53,1.01.02.04,0,.08-.03.1-.01,0-.02,0-.03,0Zm-14.06-.13s-.03,0-.05-.02c-.03-.03-.03-.07,0-.1.26-.28.45-.6.57-.94.01-.04.05-.06.09-.04.04.01.06.05.04.09-.13.36-.33.69-.6.99-.01.02-.03.02-.05.02Zm-7.14-.05s-.04,0-.05-.02c-.27-.28-.5-.6-.67-.94-.02-.03,0-.08.03-.1.03-.02.08,0,.1.03.17.32.39.63.65.9.03.03.03.07,0,.1-.01.01-.03.02-.05.02Zm-7.74-.12s0,0-.01,0c-.04,0-.07-.04-.06-.08.05-.36.12-.74.2-1.12,0-.04.05-.06.08-.06.04,0,.06.05.05.08-.08.38-.15.76-.2,1.12,0,.04-.04.06-.07.06Zm27.82-1.67s-.05-.01-.06-.03c-.2-.32-.42-.64-.63-.94-.02-.03-.02-.08.02-.1.03-.02.08-.02.1.02.22.31.43.62.64.95.02.03.01.08-.02.1-.01,0-.02.01-.04.01Zm-21.13-.19s-.06-.02-.07-.06c-.06-.27-.08-.55-.08-.84,0-.1,0-.21.01-.31,0-.04.04-.07.08-.07.04,0,.07.04.07.08,0,.1-.01.2-.01.3,0,.27.03.55.08.81,0,.04-.02.08-.06.08,0,0,0,0-.01,0Zm8.94-.05s-.07-.03-.07-.07c-.01-.35-.09-.72-.21-1.09-.01-.04,0-.08.04-.09.04-.01.08,0,.09.04.13.39.21.77.22,1.13,0,.04-.03.07-.07.07,0,0,0,0,0,0Zm-15.17-.31s-.01,0-.02,0c-.04-.01-.06-.05-.05-.09.1-.38.22-.74.34-1.09.01-.04.05-.06.09-.04.04.01.06.05.04.09-.12.34-.24.71-.34,1.08,0,.03-.04.05-.07.05Zm26.04-1.3s-.04,0-.06-.03c-.24-.29-.49-.58-.74-.86-.03-.03-.02-.07,0-.1.03-.03.07-.02.1,0,.25.28.5.57.74.87.02.03.02.08-.01.1-.01.01-.03.02-.04.02Zm-11.57-.53s-.05-.01-.06-.04c-.18-.31-.4-.62-.64-.92-.02-.03-.02-.08.01-.1.03-.02.08-.02.1.01.25.31.47.62.66.94.02.03,0,.08-.03.1-.01,0-.02,0-.04,0Zm-8.1-.05s-.01,0-.02,0c-.04-.01-.06-.05-.05-.09.11-.35.26-.71.45-1.06.02-.03.06-.05.1-.03.03.02.05.06.03.1-.19.34-.33.69-.44,1.03,0,.03-.04.05-.07.05Zm-5.6-.25s-.02,0-.03,0c-.04-.02-.05-.06-.03-.09.17-.36.35-.7.54-1.01.02-.03.06-.04.1-.02.03.02.04.06.02.1-.19.31-.37.64-.53.99-.01.03-.04.04-.06.04Zm23.73-.84s-.04,0-.05-.02c-.27-.26-.55-.52-.84-.76-.03-.03-.03-.07,0-.1.03-.03.07-.03.1,0,.29.24.57.5.84.77.03.03.03.07,0,.1-.01.01-.03.02-.05.02Zm-11.46-.62s-.04,0-.05-.02c-.27-.26-.56-.5-.86-.73-.03-.02-.04-.07-.01-.1.02-.03.07-.04.1-.01.31.23.6.48.87.74.03.03.03.07,0,.1-.01.01-.03.02-.05.02Zm-5.61-.29s-.03,0-.04-.01c-.03-.02-.04-.07-.01-.1.16-.21.33-.42.52-.63.07-.08.15-.16.22-.24.03-.03.07-.03.1,0,.03.03.03.07,0,.1-.07.08-.15.16-.22.24-.18.21-.35.42-.51.62-.01.02-.04.03-.06.03Zm-5.47-.18s-.03,0-.05-.02c-.03-.03-.03-.07,0-.1.25-.3.52-.58.8-.82.03-.03.07-.02.1,0,.03.03.02.07,0,.1-.27.24-.54.51-.78.81-.01.02-.03.03-.05.03Zm20.81-.39s-.03,0-.04-.01c-.3-.23-.62-.44-.93-.64-.03-.02-.04-.07-.02-.1.02-.03.06-.04.1-.02.32.2.63.42.94.65.03.02.04.07.01.1-.01.02-.04.03-.06.03Zm-11.53-.52s-.03,0-.04-.01c-.32-.2-.66-.37-1-.53-.04-.02-.05-.06-.03-.09.02-.04.06-.05.09-.03.34.16.68.34,1.01.54.03.02.04.06.02.1-.01.02-.04.03-.06.03Zm-2.23-.53s-.04,0-.06-.03c-.02-.03-.02-.08.01-.1.3-.23.62-.44.95-.63.03-.02.08,0,.1.03.02.03,0,.08-.03.1-.33.19-.64.4-.94.62-.01,0-.03.01-.04.01Zm-5.34-.03s-.05-.01-.06-.04c-.02-.03,0-.08.03-.1.33-.19.68-.35,1.04-.48.04-.01.08,0,.09.04.01.04,0,.08-.04.09-.35.12-.7.28-1.02.47-.01,0-.02,0-.04,0Zm17.18-.13s-.02,0-.03,0c-.33-.18-.68-.35-1.02-.5-.04-.02-.05-.06-.04-.09.02-.04.06-.05.09-.04.34.15.69.32,1.03.5.03.02.05.06.03.1-.01.02-.04.04-.06.04Zm-11.68-.26s-.01,0-.02,0c-.36-.12-.73-.21-1.09-.28-.04,0-.06-.04-.06-.08,0-.04.04-.06.08-.06.37.07.74.16,1.11.28.04.01.06.05.05.09,0,.03-.04.05-.07.05Zm-3.37-.35s-.07-.03-.07-.06c0-.04.02-.07.06-.08.37-.05.75-.07,1.15-.06.04,0,.07.03.07.07,0,.04-.04.07-.07.07-.38-.01-.76,0-1.12.06,0,0,0,0-.01,0Zm12.96-.32s-.02,0-.02,0c-.36-.12-.72-.24-1.08-.33-.04,0-.06-.05-.05-.09,0-.04.05-.06.09-.05.36.09.73.21,1.09.33.04.01.06.05.04.09-.01.03-.04.05-.07.05Zm-7.79-.04s-.05-.02-.07-.04c-.01-.04,0-.08.04-.09.35-.14.72-.26,1.09-.36.04-.01.08.01.09.05,0,.04-.01.08-.05.09-.37.1-.73.22-1.07.35,0,0-.02,0-.03,0Zm5.59-.53s0,0-.01,0c-.37-.06-.75-.11-1.12-.13-.04,0-.07-.04-.07-.08,0-.04.04-.07.08-.07.38.03.76.07,1.14.13.04,0,.06.04.06.08,0,.03-.04.06-.07.06Zm-3.4-.05s-.07-.03-.07-.06c0-.04.02-.07.06-.08.37-.05.76-.09,1.14-.1.04,0,.07.03.07.07,0,.04-.03.07-.07.07-.38.01-.76.05-1.12.1,0,0,0,0-.01,0Z"/>
  <g>
    <rect class="cls-11" x="10.11" y="37.47" width="3.74" height="2.45" rx=".31" ry=".31"/>
    <path class="cls-11" d="m13.82,39.73l-1.85-1.12-1.84,1.12c.05.11.16.19.28.19h3.12c.13,0,.24-.08.28-.19Z"/>
    <path class="cls-11" d="m10.13,37.65l1.85,1.26,1.84-1.26c-.05-.11-.16-.19-.28-.19h-3.12c-.13,0-.24.08-.28.19Z"/>
    <polygon class="cls-7" points="11.98 38.95 10.12 37.68 10.15 37.63 11.98 38.88 13.81 37.63 13.84 37.68 11.98 38.95"/>
  </g>
  <g>
    <rect class="cls-13" x="69.88" y="43.91" width="3.74" height="2.45" rx=".31" ry=".31"/>
    <path class="cls-13" d="m73.6,46.17l-1.85-1.12-1.84,1.12c.05.11.16.19.28.19h3.12c.13,0,.24-.08.28-.19Z"/>
    <path class="cls-13" d="m69.9,44.09l1.85,1.26,1.84-1.26c-.05-.11-.16-.19-.28-.19h-3.12c-.13,0-.24.08-.28.19Z"/>
    <polygon class="cls-7" points="71.75 45.38 69.89 44.11 69.92 44.07 71.75 45.31 73.58 44.07 73.61 44.12 71.75 45.38"/>
  </g>
  <g>
    <rect class="cls-4" x="82.63" y="85.37" width="3.74" height="2.45" rx=".31" ry=".31"/>
    <path class="cls-4" d="m86.34,87.63l-1.85-1.12-1.84,1.12c.05.11.16.19.28.19h3.12c.13,0,.24-.08.28-.19Z"/>
    <path class="cls-4" d="m82.65,85.55l1.85,1.26,1.84-1.26c-.05-.11-.16-.19-.28-.19h-3.12c-.13,0-.24.08-.28.19Z"/>
    <polygon class="cls-7" points="84.5 86.85 82.63 85.58 82.67 85.53 84.5 86.78 86.33 85.53 86.36 85.58 84.5 86.85"/>
  </g>
  <g>
    <rect class="cls-10" x="15.31" y="63.83" width="3.74" height="2.45" rx=".31" ry=".31"/>
    <path class="cls-10" d="m19.03,66.09l-1.85-1.12-1.84,1.12c.05.11.16.19.28.19h3.12c.13,0,.24-.08.28-.19Z"/>
    <path class="cls-10" d="m15.34,64.02l1.85,1.26,1.84-1.26c-.05-.11-.16-.19-.28-.19h-3.12c-.13,0-.24.08-.28.19Z"/>
    <polygon class="cls-7" points="17.18 65.31 15.32 64.04 15.35 63.99 17.18 65.24 19.01 63.99 19.05 64.04 17.18 65.31"/>
  </g>
</svg>