<?xml version="1.0" encoding="UTF-8"?>
<svg id="Layer_1" data-name="Layer 1" xmlns="http://www.w3.org/2000/svg" xmlns:xlink="http://www.w3.org/1999/xlink" viewBox="0 0 90 120">
  <defs>
    <style>
      .cls-1, .cls-2 {
        opacity: .1;
      }

      .cls-3 {
        fill: url(#linear-gradient);
      }

      .cls-3, .cls-4, .cls-2, .cls-5, .cls-6, .cls-7, .cls-8, .cls-9, .cls-10, .cls-11, .cls-12, .cls-13, .cls-14, .cls-15, .cls-16, .cls-17, .cls-18, .cls-19, .cls-20, .cls-21, .cls-22, .cls-23, .cls-24, .cls-25 {
        stroke-width: 0px;
      }

      .cls-4 {
        fill: url(#linear-gradient-10);
      }

      .cls-2 {
        fill: #010101;
      }

      .cls-5 {
        opacity: .5;
      }

      .cls-5, .cls-25 {
        fill: #ebebeb;
      }

      .cls-6 {
        fill: url(#linear-gradient-4);
      }

      .cls-7 {
        fill: url(#linear-gradient-2);
      }

      .cls-8 {
        fill: url(#linear-gradient-3);
      }

      .cls-9 {
        fill: url(#linear-gradient-8);
      }

      .cls-10 {
        fill: url(#linear-gradient-9);
      }

      .cls-11 {
        fill: url(#linear-gradient-7);
      }

      .cls-12 {
        fill: url(#linear-gradient-5);
      }

      .cls-13 {
        fill: url(#linear-gradient-6);
      }

      .cls-26 {
        isolation: isolate;
      }

      .cls-14 {
        fill: #455b64;
      }

      .cls-15 {
        fill: #263238;
      }

      .cls-16 {
        fill: #1a2f36;
      }

      .cls-17 {
        fill: #37474f;
      }

      .cls-18 {
        fill: #c7c7c6;
      }

      .cls-19 {
        fill: #dcdbdb;
      }

      .cls-20 {
        fill: #dd6a57;
      }

      .cls-21 {
        fill: #a6a5a5;
      }

      .cls-22 {
        fill: #f499bb;
      }

      .cls-23 {
        fill: #fff;
      }

      .cls-24 {
        fill: #ffc829;
      }
    </style>
    <linearGradient id="linear-gradient" x1="54.48" y1="44.57" x2="65.38" y2="44.57" gradientUnits="userSpaceOnUse">
      <stop offset="0" stop-color="#454097"/>
      <stop offset="1" stop-color="#36bdb3"/>
    </linearGradient>
    <linearGradient id="linear-gradient-2" x1="63.18" y1="53.42" x2="81.39" y2="53.42" xlink:href="#linear-gradient"/>
    <linearGradient id="linear-gradient-3" x1="63.18" y1="53.42" x2="81.39" y2="53.42" xlink:href="#linear-gradient"/>
    <linearGradient id="linear-gradient-4" x1="47.18" y1="53.42" x2="79.2" y2="53.42" xlink:href="#linear-gradient"/>
    <linearGradient id="linear-gradient-5" x1="22.31" y1="107.87" x2="38.31" y2="107.87" xlink:href="#linear-gradient"/>
    <linearGradient id="linear-gradient-6" x1="23.3" y1="109.84" x2="37.97" y2="109.84" xlink:href="#linear-gradient"/>
    <linearGradient id="linear-gradient-7" x1="22.31" y1="107.84" x2="30.1" y2="107.84" xlink:href="#linear-gradient"/>
    <linearGradient id="linear-gradient-8" x1="11.13" y1="108.04" x2="27.15" y2="108.04" xlink:href="#linear-gradient"/>
    <linearGradient id="linear-gradient-9" x1="12.14" y1="110.01" x2="26.8" y2="110.01" xlink:href="#linear-gradient"/>
    <linearGradient id="linear-gradient-10" x1="31" y1="33.29" x2="36.29" y2="33.29" xlink:href="#linear-gradient"/>
  </defs>
  <g>
    <path class="cls-25" d="m77.59,32.05h-22.06s2.19-5.98,5.55-5.98,4.42,4.12,4.42,4.12c0,0,2.27-2.24,4.14-2.24s3.49,2.96,3.49,2.96c0,0,2.64-1.59,4.46,1.13Z"/>
    <path class="cls-5" d="m87.87,38.43h-10.31s2.3-3.34,4.12-3.34,2.35,2.23,2.35,2.23c0,0,1.28-1.04,2.47-.85,1.19.19,1.37,1.97,1.37,1.97Z"/>
    <path class="cls-5" d="m66.96,50.85h-10.31s2.3-3.34,4.12-3.34,2.35,2.23,2.35,2.23c0,0,1.28-1.04,2.47-.85,1.19.19,1.37,1.97,1.37,1.97Z"/>
    <path class="cls-25" d="m20.99,53.42H.9s2.75-6.14,5.69-6.52c2.94-.38,4.35,4.56,4.35,4.56,0,0,1.9-1.75,3.39-1.75s2.64,2.3,2.64,2.3c0,0,2.98-1.58,4.01,1.41Z"/>
    <path class="cls-5" d="m30.16,35.37h-13.57s2.33-4.45,4.86-4.51c2.53-.06,3.86,3.37,3.86,3.37,0,0,3.93-3.16,4.85,1.15Z"/>
  </g>
  <g>
    <g>
      <g>
        <rect class="cls-19" x="43.89" y="56.53" width="8.06" height="42.27"/>
        <g>
          <rect class="cls-25" x="45.15" y="57.91" width="1.57" height="1.61"/>
          <rect class="cls-25" x="47.15" y="57.91" width="1.57" height="1.61"/>
          <rect class="cls-25" x="45.15" y="60.65" width="1.57" height="1.61"/>
          <rect class="cls-25" x="47.15" y="60.65" width="1.57" height="1.61"/>
          <rect class="cls-25" x="45.15" y="63.39" width="1.57" height="1.61"/>
          <rect class="cls-25" x="47.15" y="63.39" width="1.57" height="1.61"/>
          <rect class="cls-25" x="45.15" y="66.13" width="1.57" height="1.61"/>
          <rect class="cls-25" x="47.15" y="66.13" width="1.57" height="1.61"/>
          <rect class="cls-25" x="45.15" y="68.87" width="1.57" height="1.61"/>
          <rect class="cls-25" x="47.15" y="68.87" width="1.57" height="1.61"/>
          <rect class="cls-25" x="45.15" y="71.61" width="1.57" height="1.61"/>
          <rect class="cls-25" x="47.15" y="71.61" width="1.57" height="1.61"/>
          <rect class="cls-25" x="45.15" y="74.35" width="1.57" height="1.61"/>
          <rect class="cls-25" x="47.15" y="74.35" width="1.57" height="1.61"/>
          <rect class="cls-25" x="45.15" y="77.09" width="1.57" height="1.61"/>
          <rect class="cls-25" x="47.15" y="77.09" width="1.57" height="1.61"/>
          <rect class="cls-25" x="45.15" y="79.83" width="1.57" height="1.61"/>
          <rect class="cls-25" x="47.15" y="79.83" width="1.57" height="1.61"/>
          <rect class="cls-25" x="45.15" y="82.57" width="1.57" height="1.61"/>
          <rect class="cls-25" x="47.15" y="82.57" width="1.57" height="1.61"/>
          <rect class="cls-25" x="45.15" y="85.31" width="1.57" height="1.61"/>
          <rect class="cls-25" x="47.15" y="85.31" width="1.57" height="1.61"/>
          <rect class="cls-25" x="45.15" y="88.05" width="1.57" height="1.61"/>
          <rect class="cls-25" x="47.15" y="88.05" width="1.57" height="1.61"/>
          <rect class="cls-25" x="45.15" y="90.79" width="1.57" height="1.61"/>
          <rect class="cls-25" x="47.15" y="90.79" width="1.57" height="1.61"/>
          <rect class="cls-25" x="45.15" y="93.53" width="1.57" height="1.61"/>
          <rect class="cls-25" x="49.14" y="93.53" width="1.57" height="1.61" transform="translate(99.85 188.68) rotate(180)"/>
          <rect class="cls-25" x="49.14" y="90.79" width="1.57" height="1.61" transform="translate(99.85 183.2) rotate(180)"/>
          <rect class="cls-25" x="49.14" y="88.05" width="1.57" height="1.61" transform="translate(99.85 177.72) rotate(180)"/>
          <rect class="cls-25" x="49.14" y="85.31" width="1.57" height="1.61" transform="translate(99.85 172.24) rotate(180)"/>
          <rect class="cls-25" x="49.14" y="82.57" width="1.57" height="1.61" transform="translate(99.85 166.76) rotate(180)"/>
          <rect class="cls-25" x="49.14" y="79.83" width="1.57" height="1.61" transform="translate(99.85 161.28) rotate(180)"/>
          <rect class="cls-25" x="49.14" y="77.09" width="1.57" height="1.61" transform="translate(99.85 155.8) rotate(180)"/>
          <rect class="cls-25" x="49.14" y="74.35" width="1.57" height="1.61" transform="translate(99.85 150.32) rotate(180)"/>
          <rect class="cls-25" x="49.14" y="71.61" width="1.57" height="1.61" transform="translate(99.85 144.84) rotate(180)"/>
          <rect class="cls-25" x="49.14" y="68.87" width="1.57" height="1.61" transform="translate(99.85 139.35) rotate(180)"/>
          <rect class="cls-25" x="49.14" y="66.13" width="1.57" height="1.61" transform="translate(99.85 133.87) rotate(180)"/>
          <rect class="cls-25" x="49.14" y="63.39" width="1.57" height="1.61" transform="translate(99.85 128.39) rotate(180)"/>
          <rect class="cls-25" x="49.14" y="60.65" width="1.57" height="1.61" transform="translate(99.85 122.91) rotate(180)"/>
          <rect class="cls-25" x="49.14" y="57.91" width="1.57" height="1.61" transform="translate(99.85 117.43) rotate(180)"/>
          <rect class="cls-25" x="47.15" y="93.53" width="1.57" height="1.61"/>
        </g>
      </g>
      <g>
        <rect class="cls-21" x="51.96" y="56.53" width="6.36" height="42.27"/>
        <g>
          <rect class="cls-18" x="56.37" y="93.53" width="1.29" height="1.61" transform="translate(114.03 188.68) rotate(180)"/>
          <rect class="cls-18" x="54.71" y="93.53" width="1.29" height="1.61" transform="translate(110.72 188.68) rotate(180)"/>
          <rect class="cls-18" x="56.37" y="90.79" width="1.29" height="1.61" transform="translate(114.03 183.2) rotate(180)"/>
          <rect class="cls-18" x="54.71" y="90.79" width="1.29" height="1.61" transform="translate(110.72 183.2) rotate(180)"/>
          <rect class="cls-18" x="56.37" y="88.05" width="1.29" height="1.61" transform="translate(114.03 177.72) rotate(180)"/>
          <rect class="cls-18" x="54.71" y="88.05" width="1.29" height="1.61" transform="translate(110.72 177.72) rotate(180)"/>
          <rect class="cls-18" x="56.37" y="85.31" width="1.29" height="1.61" transform="translate(114.03 172.24) rotate(180)"/>
          <rect class="cls-18" x="54.71" y="85.31" width="1.29" height="1.61" transform="translate(110.72 172.24) rotate(180)"/>
          <rect class="cls-18" x="56.37" y="82.57" width="1.29" height="1.61" transform="translate(114.03 166.76) rotate(180)"/>
          <rect class="cls-18" x="54.71" y="82.57" width="1.29" height="1.61" transform="translate(110.72 166.76) rotate(180)"/>
          <rect class="cls-18" x="56.37" y="79.83" width="1.29" height="1.61" transform="translate(114.03 161.28) rotate(180)"/>
          <rect class="cls-18" x="54.71" y="79.83" width="1.29" height="1.61" transform="translate(110.72 161.28) rotate(180)"/>
          <rect class="cls-18" x="56.37" y="77.09" width="1.29" height="1.61" transform="translate(114.03 155.8) rotate(180)"/>
          <rect class="cls-18" x="54.71" y="77.09" width="1.29" height="1.61" transform="translate(110.72 155.8) rotate(180)"/>
          <rect class="cls-18" x="56.37" y="74.35" width="1.29" height="1.61" transform="translate(114.03 150.32) rotate(180)"/>
          <rect class="cls-18" x="54.71" y="74.35" width="1.29" height="1.61" transform="translate(110.72 150.32) rotate(180)"/>
          <rect class="cls-18" x="56.37" y="71.61" width="1.29" height="1.61" transform="translate(114.03 144.84) rotate(180)"/>
          <rect class="cls-18" x="54.71" y="71.61" width="1.29" height="1.61" transform="translate(110.72 144.84) rotate(180)"/>
          <rect class="cls-18" x="56.37" y="68.87" width="1.29" height="1.61" transform="translate(114.03 139.35) rotate(180)"/>
          <rect class="cls-18" x="54.71" y="68.87" width="1.29" height="1.61" transform="translate(110.72 139.35) rotate(180)"/>
          <rect class="cls-18" x="56.37" y="66.13" width="1.29" height="1.61" transform="translate(114.03 133.87) rotate(180)"/>
          <rect class="cls-18" x="54.71" y="66.13" width="1.29" height="1.61" transform="translate(110.72 133.87) rotate(180)"/>
          <rect class="cls-18" x="56.37" y="63.39" width="1.29" height="1.61" transform="translate(114.03 128.39) rotate(180)"/>
          <rect class="cls-18" x="54.71" y="63.39" width="1.29" height="1.61" transform="translate(110.72 128.39) rotate(180)"/>
          <rect class="cls-18" x="56.37" y="60.65" width="1.29" height="1.61" transform="translate(114.03 122.91) rotate(180)"/>
          <rect class="cls-18" x="54.71" y="60.65" width="1.29" height="1.61" transform="translate(110.72 122.91) rotate(180)"/>
          <rect class="cls-18" x="56.37" y="57.91" width="1.29" height="1.61" transform="translate(114.03 117.43) rotate(180)"/>
          <rect class="cls-18" x="53.07" y="57.91" width="1.29" height="1.61"/>
          <rect class="cls-18" x="53.07" y="60.65" width="1.29" height="1.61"/>
          <rect class="cls-18" x="53.07" y="63.39" width="1.29" height="1.61"/>
          <rect class="cls-18" x="53.07" y="66.13" width="1.29" height="1.61"/>
          <rect class="cls-18" x="53.07" y="68.87" width="1.29" height="1.61"/>
          <rect class="cls-18" x="53.07" y="71.61" width="1.29" height="1.61"/>
          <rect class="cls-18" x="53.07" y="74.35" width="1.29" height="1.61"/>
          <rect class="cls-18" x="53.07" y="77.09" width="1.29" height="1.61"/>
          <rect class="cls-18" x="53.07" y="79.83" width="1.29" height="1.61"/>
          <rect class="cls-18" x="53.07" y="82.57" width="1.29" height="1.61"/>
          <rect class="cls-18" x="53.07" y="85.31" width="1.29" height="1.61"/>
          <rect class="cls-18" x="53.07" y="88.05" width="1.29" height="1.61"/>
          <rect class="cls-18" x="53.07" y="90.79" width="1.29" height="1.61"/>
          <rect class="cls-18" x="53.07" y="93.53" width="1.29" height="1.61"/>
          <rect class="cls-18" x="54.71" y="57.91" width="1.29" height="1.61" transform="translate(110.72 117.43) rotate(180)"/>
        </g>
      </g>
    </g>
    <g>
      <g>
        <rect class="cls-25" x="14.55" y="55.61" width="8.41" height="43.2"/>
        <rect class="cls-18" x="14.35" y="54.75" width="8.62" height=".86"/>
        <g>
          <rect class="cls-23" x="15.31" y="56.88" width=".85" height="41.93"/>
          <rect class="cls-23" x="16.82" y="56.88" width=".85" height="41.93"/>
          <rect class="cls-23" x="18.33" y="56.88" width=".85" height="41.93"/>
          <rect class="cls-23" x="19.84" y="56.88" width=".85" height="41.93"/>
          <rect class="cls-23" x="21.35" y="56.88" width=".85" height="41.93"/>
          <g>
            <rect class="cls-25" x="15.31" y="57.97" width=".85" height="1.7"/>
            <rect class="cls-25" x="16.82" y="57.97" width=".85" height="1.7"/>
            <rect class="cls-25" x="18.33" y="57.97" width=".85" height="1.7"/>
            <rect class="cls-25" x="19.84" y="57.97" width=".85" height="1.7"/>
            <rect class="cls-25" x="21.35" y="57.97" width=".85" height="1.7"/>
          </g>
          <g>
            <rect class="cls-25" x="15.31" y="60.73" width=".85" height="1.7"/>
            <rect class="cls-25" x="16.82" y="60.73" width=".85" height="1.7"/>
            <rect class="cls-25" x="18.33" y="60.73" width=".85" height="1.7"/>
            <rect class="cls-25" x="19.84" y="60.73" width=".85" height="1.7"/>
            <rect class="cls-25" x="21.35" y="60.73" width=".85" height="1.7"/>
          </g>
          <g>
            <rect class="cls-25" x="15.31" y="63.49" width=".85" height="1.7"/>
            <rect class="cls-25" x="16.82" y="63.49" width=".85" height="1.7"/>
            <rect class="cls-25" x="18.33" y="63.49" width=".85" height="1.7"/>
            <rect class="cls-25" x="19.84" y="63.49" width=".85" height="1.7"/>
            <rect class="cls-25" x="21.35" y="63.49" width=".85" height="1.7"/>
          </g>
          <g>
            <rect class="cls-25" x="15.31" y="66.25" width=".85" height="1.7"/>
            <rect class="cls-25" x="16.82" y="66.25" width=".85" height="1.7"/>
            <rect class="cls-25" x="18.33" y="66.25" width=".85" height="1.7"/>
            <rect class="cls-25" x="19.84" y="66.25" width=".85" height="1.7"/>
            <rect class="cls-25" x="21.35" y="66.25" width=".85" height="1.7"/>
          </g>
          <g>
            <rect class="cls-25" x="15.31" y="69.01" width=".85" height="1.7"/>
            <rect class="cls-25" x="16.82" y="69.01" width=".85" height="1.7"/>
            <rect class="cls-25" x="18.33" y="69.01" width=".85" height="1.7"/>
            <rect class="cls-25" x="19.84" y="69.01" width=".85" height="1.7"/>
            <rect class="cls-25" x="21.35" y="69.01" width=".85" height="1.7"/>
          </g>
          <g>
            <rect class="cls-25" x="15.31" y="71.77" width=".85" height="1.7"/>
            <rect class="cls-25" x="16.82" y="71.77" width=".85" height="1.7"/>
            <rect class="cls-25" x="18.33" y="71.77" width=".85" height="1.7"/>
            <rect class="cls-25" x="19.84" y="71.77" width=".85" height="1.7"/>
            <rect class="cls-25" x="21.35" y="71.77" width=".85" height="1.7"/>
          </g>
          <g>
            <rect class="cls-25" x="15.31" y="74.53" width=".85" height="1.7"/>
            <rect class="cls-25" x="16.82" y="74.53" width=".85" height="1.7"/>
            <rect class="cls-25" x="18.33" y="74.53" width=".85" height="1.7"/>
            <rect class="cls-25" x="19.84" y="74.53" width=".85" height="1.7"/>
            <rect class="cls-25" x="21.35" y="74.53" width=".85" height="1.7"/>
          </g>
          <g>
            <rect class="cls-25" x="15.31" y="77.28" width=".85" height="1.7"/>
            <rect class="cls-25" x="16.82" y="77.28" width=".85" height="1.7"/>
            <rect class="cls-25" x="18.33" y="77.28" width=".85" height="1.7"/>
            <rect class="cls-25" x="19.84" y="77.28" width=".85" height="1.7"/>
            <rect class="cls-25" x="21.35" y="77.28" width=".85" height="1.7"/>
          </g>
          <g>
            <rect class="cls-25" x="15.31" y="80.04" width=".85" height="1.7"/>
            <rect class="cls-25" x="16.82" y="80.04" width=".85" height="1.7"/>
            <rect class="cls-25" x="18.33" y="80.04" width=".85" height="1.7"/>
            <rect class="cls-25" x="19.84" y="80.04" width=".85" height="1.7"/>
            <rect class="cls-25" x="21.35" y="80.04" width=".85" height="1.7"/>
          </g>
          <g>
            <rect class="cls-25" x="15.31" y="82.8" width=".85" height="1.7"/>
            <rect class="cls-25" x="16.82" y="82.8" width=".85" height="1.7"/>
            <rect class="cls-25" x="18.33" y="82.8" width=".85" height="1.7"/>
            <rect class="cls-25" x="19.84" y="82.8" width=".85" height="1.7"/>
            <rect class="cls-25" x="21.35" y="82.8" width=".85" height="1.7"/>
          </g>
          <g>
            <rect class="cls-25" x="15.31" y="85.56" width=".85" height="1.7"/>
            <rect class="cls-25" x="16.82" y="85.56" width=".85" height="1.7"/>
            <rect class="cls-25" x="18.33" y="85.56" width=".85" height="1.7"/>
            <rect class="cls-25" x="19.84" y="85.56" width=".85" height="1.7"/>
            <rect class="cls-25" x="21.35" y="85.56" width=".85" height="1.7"/>
          </g>
          <g>
            <rect class="cls-25" x="15.31" y="88.32" width=".85" height="1.7"/>
            <rect class="cls-25" x="16.82" y="88.32" width=".85" height="1.7"/>
            <rect class="cls-25" x="18.33" y="88.32" width=".85" height="1.7"/>
            <rect class="cls-25" x="19.84" y="88.32" width=".85" height="1.7"/>
            <rect class="cls-25" x="21.35" y="88.32" width=".85" height="1.7"/>
          </g>
          <g>
            <rect class="cls-25" x="15.31" y="91.08" width=".85" height="1.7"/>
            <rect class="cls-25" x="16.82" y="91.08" width=".85" height="1.7"/>
            <rect class="cls-25" x="18.33" y="91.08" width=".85" height="1.7"/>
            <rect class="cls-25" x="19.84" y="91.08" width=".85" height="1.7"/>
            <rect class="cls-25" x="21.35" y="91.08" width=".85" height="1.7"/>
          </g>
          <g>
            <rect class="cls-25" x="15.31" y="93.84" width=".85" height="4.97"/>
            <rect class="cls-25" x="16.82" y="93.84" width=".85" height="4.97"/>
            <rect class="cls-25" x="18.33" y="93.84" width=".85" height="4.97"/>
            <rect class="cls-25" x="19.84" y="93.84" width=".85" height="4.97"/>
            <rect class="cls-25" x="21.35" y="93.84" width=".85" height="4.97"/>
          </g>
        </g>
      </g>
      <g>
        <rect class="cls-19" x="22.96" y="55.61" width="5.4" height="43.2"/>
        <rect class="cls-18" x="22.96" y="54.75" width="5.63" height=".86"/>
        <g>
          <rect class="cls-18" x="23.72" y="56.88" width=".85" height="41.93"/>
          <rect class="cls-18" x="25.23" y="56.88" width=".85" height="41.93"/>
          <rect class="cls-18" x="26.74" y="56.88" width=".85" height="41.93"/>
          <g>
            <rect class="cls-19" x="23.72" y="57.97" width=".85" height="1.7"/>
            <rect class="cls-19" x="25.23" y="57.97" width=".85" height="1.7"/>
            <rect class="cls-19" x="26.74" y="57.97" width=".85" height="1.7"/>
          </g>
          <g>
            <rect class="cls-19" x="23.72" y="60.73" width=".85" height="1.7"/>
            <rect class="cls-19" x="25.23" y="60.73" width=".85" height="1.7"/>
            <rect class="cls-19" x="26.74" y="60.73" width=".85" height="1.7"/>
          </g>
          <g>
            <rect class="cls-19" x="23.72" y="63.49" width=".85" height="1.7"/>
            <rect class="cls-19" x="25.23" y="63.49" width=".85" height="1.7"/>
            <rect class="cls-19" x="26.74" y="63.49" width=".85" height="1.7"/>
          </g>
          <g>
            <rect class="cls-19" x="23.72" y="66.25" width=".85" height="1.7"/>
            <rect class="cls-19" x="25.23" y="66.25" width=".85" height="1.7"/>
            <rect class="cls-19" x="26.74" y="66.25" width=".85" height="1.7"/>
          </g>
          <g>
            <rect class="cls-19" x="23.72" y="69.01" width=".85" height="1.7"/>
            <rect class="cls-19" x="25.23" y="69.01" width=".85" height="1.7"/>
            <rect class="cls-19" x="26.74" y="69.01" width=".85" height="1.7"/>
          </g>
          <g>
            <rect class="cls-19" x="23.72" y="71.77" width=".85" height="1.7"/>
            <rect class="cls-19" x="25.23" y="71.77" width=".85" height="1.7"/>
            <rect class="cls-19" x="26.74" y="71.77" width=".85" height="1.7"/>
          </g>
          <g>
            <rect class="cls-19" x="23.72" y="74.53" width=".85" height="1.7"/>
            <rect class="cls-19" x="25.23" y="74.53" width=".85" height="1.7"/>
            <rect class="cls-19" x="26.74" y="74.53" width=".85" height="1.7"/>
          </g>
          <g>
            <rect class="cls-19" x="23.72" y="77.28" width=".85" height="1.7"/>
            <rect class="cls-19" x="25.23" y="77.28" width=".85" height="1.7"/>
            <rect class="cls-19" x="26.74" y="77.28" width=".85" height="1.7"/>
          </g>
          <g>
            <rect class="cls-19" x="23.72" y="80.04" width=".85" height="1.7"/>
            <rect class="cls-19" x="25.23" y="80.04" width=".85" height="1.7"/>
            <rect class="cls-19" x="26.74" y="80.04" width=".85" height="1.7"/>
          </g>
          <g>
            <rect class="cls-19" x="23.72" y="82.8" width=".85" height="1.7"/>
            <rect class="cls-19" x="25.23" y="82.8" width=".85" height="1.7"/>
            <rect class="cls-19" x="26.74" y="82.8" width=".85" height="1.7"/>
          </g>
          <g>
            <rect class="cls-19" x="23.72" y="85.56" width=".85" height="1.7"/>
            <rect class="cls-19" x="25.23" y="85.56" width=".85" height="1.7"/>
            <rect class="cls-19" x="26.74" y="85.56" width=".85" height="1.7"/>
          </g>
          <g>
            <rect class="cls-19" x="23.72" y="88.32" width=".85" height="1.7"/>
            <rect class="cls-19" x="25.23" y="88.32" width=".85" height="1.7"/>
            <rect class="cls-19" x="26.74" y="88.32" width=".85" height="1.7"/>
          </g>
          <g>
            <rect class="cls-19" x="23.72" y="91.08" width=".85" height="1.7"/>
            <rect class="cls-19" x="25.23" y="91.08" width=".85" height="1.7"/>
            <rect class="cls-19" x="26.74" y="91.08" width=".85" height="1.7"/>
          </g>
          <g>
            <rect class="cls-19" x="23.72" y="93.84" width=".85" height="4.97"/>
            <rect class="cls-19" x="25.23" y="93.84" width=".85" height="4.97"/>
            <rect class="cls-19" x="26.74" y="93.84" width=".85" height="4.97"/>
          </g>
        </g>
      </g>
    </g>
    <g>
      <g>
        <rect class="cls-25" x="2.78" y="68.55" width="7.98" height="30.26"/>
        <rect class="cls-18" x="3.91" y="66.54" width="6.84" height="2.01"/>
        <g>
          <rect class="cls-19" x="3.65" y="69.6" width="6.23" height="22.62"/>
          <g>
            <rect class="cls-23" x="3.65" y="71.76" width="6.23" height=".53"/>
            <rect class="cls-23" x="3.65" y="73.97" width="6.23" height=".53"/>
            <rect class="cls-23" x="3.65" y="76.18" width="6.23" height=".53"/>
            <rect class="cls-23" x="3.65" y="78.4" width="6.23" height=".53"/>
            <rect class="cls-23" x="3.65" y="80.61" width="6.23" height=".53"/>
            <rect class="cls-23" x="3.65" y="82.83" width="6.23" height=".53"/>
            <rect class="cls-23" x="3.65" y="85.04" width="6.23" height=".53"/>
            <rect class="cls-23" x="3.65" y="87.26" width="6.23" height=".53"/>
            <rect class="cls-23" x="3.65" y="89.47" width="6.23" height=".53"/>
            <rect class="cls-23" x="3.65" y="91.68" width="6.23" height=".53"/>
          </g>
        </g>
      </g>
      <g>
        <rect class="cls-19" x="10.76" y="68.55" width="5" height="30.26"/>
        <rect class="cls-21" x="10.76" y="66.54" width="4.25" height="2.01"/>
        <g>
          <rect class="cls-18" x="11.45" y="69.6" width="3.84" height="22.62"/>
          <g>
            <rect class="cls-23" x="11.45" y="71.76" width="3.84" height=".53"/>
            <rect class="cls-23" x="11.45" y="73.97" width="3.84" height=".53"/>
            <rect class="cls-23" x="11.45" y="76.18" width="3.84" height=".53"/>
            <rect class="cls-23" x="11.45" y="78.4" width="3.84" height=".53"/>
            <rect class="cls-23" x="11.45" y="80.61" width="3.84" height=".53"/>
            <rect class="cls-23" x="11.45" y="82.83" width="3.84" height=".53"/>
            <rect class="cls-23" x="11.45" y="85.04" width="3.84" height=".53"/>
            <rect class="cls-23" x="11.45" y="87.26" width="3.84" height=".53"/>
            <rect class="cls-23" x="11.45" y="89.47" width="3.84" height=".53"/>
            <rect class="cls-23" x="11.45" y="91.68" width="3.84" height=".53"/>
          </g>
        </g>
      </g>
    </g>
    <g>
      <rect class="cls-19" x="74.07" y="69.06" width="4.26" height="5.03"/>
      <rect class="cls-18" x="78.33" y="69.06" width="2.7" height="5.22"/>
      <rect class="cls-19" x="78.53" y="71.28" width="2.68" height="3"/>
      <rect class="cls-18" x="81.21" y="71.28" width="1.67" height="3"/>
      <g>
        <rect class="cls-25" x="72.44" y="73.77" width="6.89" height="25.04"/>
        <g>
          <rect class="cls-23" x="73.22" y="74.84" width="2.17" height=".89"/>
          <rect class="cls-23" x="76" y="74.84" width="2.17" height=".89"/>
          <rect class="cls-23" x="73.22" y="76.35" width="2.17" height=".89"/>
          <rect class="cls-23" x="76" y="76.35" width="2.17" height=".89"/>
          <rect class="cls-23" x="73.22" y="77.85" width="2.17" height=".89"/>
          <rect class="cls-23" x="76" y="77.85" width="2.17" height=".89"/>
          <rect class="cls-23" x="73.22" y="79.35" width="2.17" height=".89"/>
          <rect class="cls-23" x="76" y="79.35" width="2.17" height=".89"/>
          <rect class="cls-23" x="73.22" y="80.86" width="2.17" height=".89"/>
          <rect class="cls-23" x="76" y="80.86" width="2.17" height=".89"/>
          <rect class="cls-23" x="73.22" y="82.36" width="2.17" height=".89"/>
          <rect class="cls-23" x="76" y="82.36" width="2.17" height=".89"/>
          <rect class="cls-23" x="73.22" y="83.86" width="2.17" height=".89"/>
          <rect class="cls-23" x="76" y="83.86" width="2.17" height=".89"/>
          <rect class="cls-23" x="73.22" y="85.37" width="2.17" height=".89"/>
          <rect class="cls-23" x="76" y="85.37" width="2.17" height=".89"/>
          <rect class="cls-23" x="73.22" y="86.87" width="2.17" height=".89"/>
          <rect class="cls-23" x="76" y="86.87" width="2.17" height=".89"/>
          <rect class="cls-23" x="73.22" y="88.37" width="2.17" height=".89"/>
          <rect class="cls-23" x="76" y="88.37" width="2.17" height=".89"/>
          <rect class="cls-23" x="73.22" y="89.87" width="2.17" height=".89"/>
          <rect class="cls-23" x="76" y="89.87" width="2.17" height=".89"/>
          <rect class="cls-23" x="73.22" y="91.38" width="2.17" height=".89"/>
          <rect class="cls-23" x="76" y="91.38" width="2.17" height=".89"/>
          <rect class="cls-23" x="73.22" y="92.88" width="2.17" height=".89"/>
          <rect class="cls-23" x="76" y="92.88" width="2.17" height=".89"/>
          <rect class="cls-23" x="73.22" y="94.38" width="2.17" height=".89"/>
          <rect class="cls-23" x="76" y="94.38" width="2.17" height=".89"/>
        </g>
      </g>
      <g>
        <rect class="cls-18" x="79.33" y="73.77" width="5.58" height="25.04"/>
        <g>
          <rect class="cls-25" x="82.57" y="94.38" width="1.78" height=".89" transform="translate(166.92 189.65) rotate(180)"/>
          <rect class="cls-25" x="80.3" y="94.38" width="1.78" height=".89" transform="translate(162.37 189.65) rotate(180)"/>
          <rect class="cls-25" x="82.57" y="92.88" width="1.78" height=".89" transform="translate(166.92 186.65) rotate(180)"/>
          <rect class="cls-25" x="80.3" y="92.88" width="1.78" height=".89" transform="translate(162.37 186.65) rotate(180)"/>
          <rect class="cls-25" x="82.57" y="91.38" width="1.78" height=".89" transform="translate(166.92 183.64) rotate(180)"/>
          <rect class="cls-25" x="80.3" y="91.38" width="1.78" height=".89" transform="translate(162.37 183.64) rotate(180)"/>
          <rect class="cls-25" x="82.57" y="89.87" width="1.78" height=".89" transform="translate(166.92 180.63) rotate(180)"/>
          <rect class="cls-25" x="80.3" y="89.87" width="1.78" height=".89" transform="translate(162.37 180.63) rotate(180)"/>
          <rect class="cls-25" x="82.57" y="88.37" width="1.78" height=".89" transform="translate(166.92 177.63) rotate(180)"/>
          <rect class="cls-25" x="80.3" y="88.37" width="1.78" height=".89" transform="translate(162.37 177.63) rotate(180)"/>
          <rect class="cls-25" x="82.57" y="86.87" width="1.78" height=".89" transform="translate(166.92 174.62) rotate(180)"/>
          <rect class="cls-25" x="80.3" y="86.87" width="1.78" height=".89" transform="translate(162.37 174.62) rotate(180)"/>
          <rect class="cls-25" x="82.57" y="85.37" width="1.78" height=".89" transform="translate(166.92 171.62) rotate(180)"/>
          <rect class="cls-25" x="80.3" y="85.37" width="1.78" height=".89" transform="translate(162.37 171.62) rotate(180)"/>
          <rect class="cls-25" x="82.57" y="83.86" width="1.78" height=".89" transform="translate(166.92 168.61) rotate(180)"/>
          <rect class="cls-25" x="80.3" y="83.86" width="1.78" height=".89" transform="translate(162.37 168.61) rotate(180)"/>
          <rect class="cls-25" x="82.57" y="82.36" width="1.78" height=".89" transform="translate(166.92 165.6) rotate(180)"/>
          <rect class="cls-25" x="80.3" y="82.36" width="1.78" height=".89" transform="translate(162.37 165.6) rotate(180)"/>
          <rect class="cls-25" x="82.57" y="80.86" width="1.78" height=".89" transform="translate(166.92 162.6) rotate(180)"/>
          <rect class="cls-25" x="80.3" y="80.86" width="1.78" height=".89" transform="translate(162.37 162.6) rotate(180)"/>
          <rect class="cls-25" x="82.57" y="79.35" width="1.78" height=".89" transform="translate(166.92 159.59) rotate(180)"/>
          <rect class="cls-25" x="80.3" y="79.35" width="1.78" height=".89" transform="translate(162.37 159.59) rotate(180)"/>
          <rect class="cls-25" x="82.57" y="77.85" width="1.78" height=".89" transform="translate(166.92 156.58) rotate(180)"/>
          <rect class="cls-25" x="80.3" y="77.85" width="1.78" height=".89" transform="translate(162.37 156.58) rotate(180)"/>
          <rect class="cls-25" x="82.57" y="76.35" width="1.78" height=".89" transform="translate(166.92 153.58) rotate(180)"/>
          <rect class="cls-25" x="80.3" y="76.35" width="1.78" height=".89" transform="translate(162.37 153.58) rotate(180)"/>
          <rect class="cls-25" x="82.57" y="74.84" width="1.78" height=".89" transform="translate(166.92 150.57) rotate(180)"/>
          <rect class="cls-25" x="80.3" y="74.84" width="1.78" height=".89" transform="translate(162.37 150.57) rotate(180)"/>
        </g>
      </g>
    </g>
    <g>
      <rect class="cls-19" x="28" y="69.06" width="4.26" height="5.03"/>
      <rect class="cls-18" x="32.26" y="69.06" width="2.7" height="5.22"/>
      <rect class="cls-19" x="32.46" y="71.28" width="2.68" height="3"/>
      <rect class="cls-18" x="35.14" y="71.28" width="1.67" height="3"/>
      <g>
        <rect class="cls-25" x="26.37" y="73.77" width="6.89" height="25.04"/>
        <g>
          <rect class="cls-23" x="27.15" y="74.84" width="2.17" height=".89"/>
          <rect class="cls-23" x="29.93" y="74.84" width="2.17" height=".89"/>
          <rect class="cls-23" x="27.15" y="76.35" width="2.17" height=".89"/>
          <rect class="cls-23" x="29.93" y="76.35" width="2.17" height=".89"/>
          <rect class="cls-23" x="27.15" y="77.85" width="2.17" height=".89"/>
          <rect class="cls-23" x="29.93" y="77.85" width="2.17" height=".89"/>
          <rect class="cls-23" x="27.15" y="79.35" width="2.17" height=".89"/>
          <rect class="cls-23" x="29.93" y="79.35" width="2.17" height=".89"/>
          <rect class="cls-23" x="27.15" y="80.86" width="2.17" height=".89"/>
          <rect class="cls-23" x="29.93" y="80.86" width="2.17" height=".89"/>
          <rect class="cls-23" x="27.15" y="82.36" width="2.17" height=".89"/>
          <rect class="cls-23" x="29.93" y="82.36" width="2.17" height=".89"/>
          <rect class="cls-23" x="27.15" y="83.86" width="2.17" height=".89"/>
          <rect class="cls-23" x="29.93" y="83.86" width="2.17" height=".89"/>
          <rect class="cls-23" x="27.15" y="85.37" width="2.17" height=".89"/>
          <rect class="cls-23" x="29.93" y="85.37" width="2.17" height=".89"/>
          <rect class="cls-23" x="27.15" y="86.87" width="2.17" height=".89"/>
          <rect class="cls-23" x="29.93" y="86.87" width="2.17" height=".89"/>
          <rect class="cls-23" x="27.15" y="88.37" width="2.17" height=".89"/>
          <rect class="cls-23" x="29.93" y="88.37" width="2.17" height=".89"/>
          <rect class="cls-23" x="27.15" y="89.87" width="2.17" height=".89"/>
          <rect class="cls-23" x="29.93" y="89.87" width="2.17" height=".89"/>
          <rect class="cls-23" x="27.15" y="91.38" width="2.17" height=".89"/>
          <rect class="cls-23" x="29.93" y="91.38" width="2.17" height=".89"/>
          <rect class="cls-23" x="27.15" y="92.88" width="2.17" height=".89"/>
          <rect class="cls-23" x="29.93" y="92.88" width="2.17" height=".89"/>
          <rect class="cls-23" x="27.15" y="94.38" width="2.17" height=".89"/>
          <rect class="cls-23" x="29.93" y="94.38" width="2.17" height=".89"/>
        </g>
      </g>
      <g>
        <rect class="cls-18" x="33.26" y="73.77" width="5.58" height="25.04"/>
        <g>
          <rect class="cls-25" x="36.5" y="94.38" width="1.78" height=".89" transform="translate(74.78 189.65) rotate(180)"/>
          <rect class="cls-25" x="34.23" y="94.38" width="1.78" height=".89" transform="translate(70.23 189.65) rotate(180)"/>
          <rect class="cls-25" x="36.5" y="92.88" width="1.78" height=".89" transform="translate(74.78 186.65) rotate(180)"/>
          <rect class="cls-25" x="34.23" y="92.88" width="1.78" height=".89" transform="translate(70.23 186.65) rotate(180)"/>
          <rect class="cls-25" x="36.5" y="91.38" width="1.78" height=".89" transform="translate(74.78 183.64) rotate(180)"/>
          <rect class="cls-25" x="34.23" y="91.38" width="1.78" height=".89" transform="translate(70.23 183.64) rotate(180)"/>
          <rect class="cls-25" x="36.5" y="89.87" width="1.78" height=".89" transform="translate(74.78 180.63) rotate(180)"/>
          <rect class="cls-25" x="34.23" y="89.87" width="1.78" height=".89" transform="translate(70.23 180.63) rotate(180)"/>
          <rect class="cls-25" x="36.5" y="88.37" width="1.78" height=".89" transform="translate(74.78 177.63) rotate(180)"/>
          <rect class="cls-25" x="34.23" y="88.37" width="1.78" height=".89" transform="translate(70.23 177.63) rotate(180)"/>
          <rect class="cls-25" x="36.5" y="86.87" width="1.78" height=".89" transform="translate(74.78 174.62) rotate(180)"/>
          <rect class="cls-25" x="34.23" y="86.87" width="1.78" height=".89" transform="translate(70.23 174.62) rotate(180)"/>
          <rect class="cls-25" x="36.5" y="85.37" width="1.78" height=".89" transform="translate(74.78 171.62) rotate(180)"/>
          <rect class="cls-25" x="34.23" y="85.37" width="1.78" height=".89" transform="translate(70.23 171.62) rotate(180)"/>
          <rect class="cls-25" x="36.5" y="83.86" width="1.78" height=".89" transform="translate(74.78 168.61) rotate(180)"/>
          <rect class="cls-25" x="34.23" y="83.86" width="1.78" height=".89" transform="translate(70.23 168.61) rotate(180)"/>
          <rect class="cls-25" x="36.5" y="82.36" width="1.78" height=".89" transform="translate(74.78 165.6) rotate(180)"/>
          <rect class="cls-25" x="34.23" y="82.36" width="1.78" height=".89" transform="translate(70.23 165.6) rotate(180)"/>
          <rect class="cls-25" x="36.5" y="80.86" width="1.78" height=".89" transform="translate(74.78 162.6) rotate(180)"/>
          <rect class="cls-25" x="34.23" y="80.86" width="1.78" height=".89" transform="translate(70.23 162.6) rotate(180)"/>
          <rect class="cls-25" x="36.5" y="79.35" width="1.78" height=".89" transform="translate(74.78 159.59) rotate(180)"/>
          <rect class="cls-25" x="34.23" y="79.35" width="1.78" height=".89" transform="translate(70.23 159.59) rotate(180)"/>
          <rect class="cls-25" x="36.5" y="77.85" width="1.78" height=".89" transform="translate(74.78 156.58) rotate(180)"/>
          <rect class="cls-25" x="34.23" y="77.85" width="1.78" height=".89" transform="translate(70.23 156.58) rotate(180)"/>
          <rect class="cls-25" x="36.5" y="76.35" width="1.78" height=".89" transform="translate(74.78 153.58) rotate(180)"/>
          <rect class="cls-25" x="34.23" y="76.35" width="1.78" height=".89" transform="translate(70.23 153.58) rotate(180)"/>
          <rect class="cls-25" x="36.5" y="74.84" width="1.78" height=".89" transform="translate(74.78 150.57) rotate(180)"/>
          <rect class="cls-25" x="34.23" y="74.84" width="1.78" height=".89" transform="translate(70.23 150.57) rotate(180)"/>
        </g>
      </g>
    </g>
  </g>
  <g>
    <g>
      <rect class="cls-17" x="57.27" y="82.49" width="8.13" height="16.32"/>
      <g>
        <rect class="cls-14" x="58.54" y="83.9" width="1.44" height="1"/>
        <rect class="cls-14" x="58.54" y="86.04" width="1.44" height="1"/>
        <rect class="cls-14" x="58.54" y="88.17" width="1.44" height="1"/>
        <rect class="cls-14" x="58.54" y="90.31" width="1.44" height="1"/>
        <rect class="cls-14" x="58.54" y="92.45" width="1.44" height="1"/>
        <rect class="cls-14" x="58.54" y="94.58" width="1.44" height="1"/>
        <rect class="cls-14" x="58.54" y="96.72" width="1.44" height="1"/>
        <rect class="cls-14" x="60.61" y="83.9" width="1.44" height="1"/>
        <rect class="cls-14" x="60.61" y="86.04" width="1.44" height="1"/>
        <rect class="cls-14" x="60.61" y="88.17" width="1.44" height="1"/>
        <rect class="cls-14" x="60.61" y="90.31" width="1.44" height="1"/>
        <rect class="cls-14" x="60.61" y="92.45" width="1.44" height="1"/>
        <rect class="cls-14" x="60.61" y="94.58" width="1.44" height="1"/>
        <rect class="cls-14" x="60.61" y="96.72" width="1.44" height="1"/>
        <rect class="cls-14" x="62.68" y="83.9" width="1.44" height="1"/>
        <rect class="cls-14" x="62.68" y="86.04" width="1.44" height="1"/>
        <rect class="cls-14" x="62.68" y="88.17" width="1.44" height="1"/>
        <rect class="cls-14" x="62.68" y="90.31" width="1.44" height="1"/>
        <rect class="cls-14" x="62.68" y="92.45" width="1.44" height="1"/>
        <rect class="cls-14" x="62.68" y="94.58" width="1.44" height="1"/>
        <rect class="cls-14" x="62.68" y="96.72" width="1.44" height="1"/>
      </g>
      <rect class="cls-14" x="59.98" y="80.79" width="5.41" height="1.7"/>
      <rect class="cls-17" x="61.96" y="79.74" width="3.43" height="1.05"/>
    </g>
    <g>
      <rect class="cls-15" x="65.39" y="82.49" width="5.7" height="16.32"/>
      <g>
        <rect class="cls-17" x="69.34" y="96.56" width="1.17" height="1" transform="translate(139.85 194.11) rotate(180)"/>
        <rect class="cls-17" x="69.34" y="94.42" width="1.17" height="1" transform="translate(139.85 189.84) rotate(180)"/>
        <rect class="cls-17" x="69.34" y="92.29" width="1.17" height="1" transform="translate(139.85 185.57) rotate(180)"/>
        <rect class="cls-17" x="69.34" y="90.15" width="1.17" height="1" transform="translate(139.85 181.3) rotate(180)"/>
        <rect class="cls-17" x="69.34" y="88.02" width="1.17" height="1" transform="translate(139.85 177.03) rotate(180)"/>
        <rect class="cls-17" x="69.34" y="85.88" width="1.17" height="1" transform="translate(139.85 172.76) rotate(180)"/>
        <rect class="cls-17" x="69.34" y="83.74" width="1.17" height="1" transform="translate(139.85 168.49) rotate(180)"/>
        <rect class="cls-17" x="67.66" y="96.56" width="1.17" height="1" transform="translate(136.49 194.11) rotate(180)"/>
        <rect class="cls-17" x="67.66" y="94.42" width="1.17" height="1" transform="translate(136.49 189.84) rotate(180)"/>
        <rect class="cls-17" x="67.66" y="92.29" width="1.17" height="1" transform="translate(136.49 185.57) rotate(180)"/>
        <rect class="cls-17" x="67.66" y="90.15" width="1.17" height="1" transform="translate(136.49 181.3) rotate(180)"/>
        <rect class="cls-17" x="67.66" y="88.02" width="1.17" height="1" transform="translate(136.49 177.03) rotate(180)"/>
        <rect class="cls-17" x="67.66" y="85.88" width="1.17" height="1" transform="translate(136.49 172.76) rotate(180)"/>
        <rect class="cls-17" x="67.66" y="83.74" width="1.17" height="1" transform="translate(136.49 168.49) rotate(180)"/>
        <rect class="cls-17" x="65.98" y="96.56" width="1.17" height="1" transform="translate(133.13 194.11) rotate(180)"/>
        <rect class="cls-17" x="65.98" y="94.42" width="1.17" height="1" transform="translate(133.13 189.84) rotate(180)"/>
        <rect class="cls-17" x="65.98" y="92.29" width="1.17" height="1" transform="translate(133.13 185.57) rotate(180)"/>
        <rect class="cls-17" x="65.98" y="90.15" width="1.17" height="1" transform="translate(133.13 181.3) rotate(180)"/>
        <rect class="cls-17" x="65.98" y="88.02" width="1.17" height="1" transform="translate(133.13 177.03) rotate(180)"/>
        <rect class="cls-17" x="65.98" y="85.88" width="1.17" height="1" transform="translate(133.13 172.76) rotate(180)"/>
        <rect class="cls-17" x="65.98" y="83.74" width="1.17" height="1" transform="translate(133.13 168.49) rotate(180)"/>
      </g>
      <rect class="cls-17" x="65.39" y="80.79" width="4.84" height="1.7"/>
      <rect class="cls-15" x="65.39" y="79.74" width="2.62" height="1.05"/>
    </g>
  </g>
  <g class="cls-26">
    <path class="cls-3" d="m63.18,35.74h2.19c-4.81,0-8.7,3.96-8.7,8.84s3.9,8.84,8.7,8.84h-2.19c-4.81,0-8.7-3.96-8.7-8.84s3.9-8.84,8.7-8.84Z"/>
    <g class="cls-1">
      <path class="cls-3" d="m63.18,35.74h2.19c-4.81,0-8.7,3.96-8.7,8.84s3.9,8.84,8.7,8.84h-2.19c-4.81,0-8.7-3.96-8.7-8.84s3.9-8.84,8.7-8.84Z"/>
    </g>
    <path class="cls-7" d="m65.38,78.49h-2.19c8.84-10.3,17.11-21.58,15.9-34.04-.79-8.07-6.27-16.11-15.9-16.11h2.19c9.63,0,15.1,8.04,15.9,16.11,1.22,12.46-7.06,23.74-15.9,34.04Z"/>
    <g class="cls-1">
      <path class="cls-8" d="m65.38,78.49h-2.19c8.84-10.3,17.11-21.58,15.9-34.04-.79-8.07-6.27-16.11-15.9-16.11h2.19c9.63,0,15.1,8.04,15.9,16.11,1.22,12.46-7.06,23.74-15.9,34.04Z"/>
    </g>
    <path class="cls-6" d="m79.08,44.45c1.22,12.46-7.06,23.74-15.89,34.04-8.83-10.3-17.1-21.58-15.89-34.04.79-8.07,6.27-16.11,15.89-16.11s15.1,8.04,15.89,16.11Zm-15.89,8.96c4.82,0,8.72-3.96,8.72-8.84s-3.9-8.84-8.72-8.84-8.7,3.96-8.7,8.84,3.9,8.84,8.7,8.84"/>
  </g>
  <path class="cls-16" d="m1.32,99.81c21.47-.1,64.68-.1,86.14,0-21.47.1-64.68.1-86.14,0h0Z"/>
  <g>
    <rect class="cls-18" x="1.28" y="98.81" width="86.22" height="1"/>
    <g>
      <path class="cls-15" d="m3.77,98.81c.03.17.04.33.04.5,0,.17,0,.33-.04.5-.03-.17-.04-.33-.04-.5,0-.17,0-.33.04-.5Z"/>
      <path class="cls-15" d="m6.67,98.81c.03.17.04.33.04.5,0,.17,0,.33-.04.5-.03-.17-.04-.33-.04-.5,0-.17,0-.33.04-.5Z"/>
      <path class="cls-15" d="m9.57,98.81c.03.17.04.33.04.5,0,.17,0,.33-.04.5-.03-.17-.04-.33-.04-.5,0-.17,0-.33.04-.5Z"/>
      <path class="cls-15" d="m12.47,98.81c.03.17.04.33.04.5,0,.17,0,.33-.04.5-.03-.17-.04-.33-.04-.5,0-.17,0-.33.04-.5Z"/>
      <path class="cls-15" d="m15.37,98.81c.03.17.04.33.04.5,0,.17,0,.33-.04.5-.03-.17-.04-.33-.04-.5,0-.17,0-.33.04-.5Z"/>
      <path class="cls-15" d="m18.28,98.81c.03.17.04.33.04.5,0,.17,0,.33-.04.5-.03-.17-.04-.33-.04-.5,0-.17,0-.33.04-.5Z"/>
      <path class="cls-15" d="m21.18,98.81c.03.17.04.33.04.5,0,.17,0,.33-.04.5-.03-.17-.04-.33-.04-.5,0-.17,0-.33.04-.5Z"/>
      <path class="cls-15" d="m24.08,98.81c.03.17.04.33.04.5,0,.17,0,.33-.04.5-.03-.17-.04-.33-.04-.5,0-.17,0-.33.04-.5Z"/>
      <path class="cls-15" d="m26.98,98.81c.03.17.04.33.04.5,0,.17,0,.33-.04.5-.03-.17-.04-.33-.04-.5,0-.17,0-.33.04-.5Z"/>
      <path class="cls-15" d="m29.88,98.81c.03.17.04.33.04.5,0,.17,0,.33-.04.5-.03-.17-.04-.33-.04-.5,0-.17,0-.33.04-.5Z"/>
      <path class="cls-15" d="m32.78,98.81c.03.17.04.33.04.5,0,.17,0,.33-.04.5-.03-.17-.04-.33-.04-.5,0-.17,0-.33.04-.5Z"/>
      <path class="cls-15" d="m35.68,98.81c.03.17.04.33.04.5,0,.17,0,.33-.04.5-.03-.17-.04-.33-.04-.5,0-.17,0-.33.04-.5Z"/>
      <path class="cls-15" d="m38.58,98.81c.03.17.04.33.04.5,0,.17,0,.33-.04.5-.03-.17-.04-.33-.04-.5,0-.17,0-.33.04-.5Z"/>
      <path class="cls-15" d="m41.48,98.81c.03.17.04.33.04.5,0,.17,0,.33-.04.5-.03-.17-.04-.33-.04-.5,0-.17,0-.33.04-.5Z"/>
      <path class="cls-15" d="m44.39,98.81c.03.17.04.33.04.5,0,.17,0,.33-.04.5-.03-.17-.04-.33-.04-.5,0-.17,0-.33.04-.5Z"/>
      <path class="cls-15" d="m47.29,98.81c.03.17.04.33.04.5,0,.17,0,.33-.04.5-.03-.17-.04-.33-.04-.5,0-.17,0-.33.04-.5Z"/>
      <path class="cls-15" d="m50.19,98.81c.03.17.04.33.04.5,0,.17,0,.33-.04.5-.03-.17-.04-.33-.04-.5,0-.17,0-.33.04-.5Z"/>
      <path class="cls-15" d="m53.09,98.81c.03.17.04.33.04.5,0,.17,0,.33-.04.5-.03-.17-.04-.33-.04-.5,0-.17,0-.33.04-.5Z"/>
      <path class="cls-15" d="m55.99,98.81c.03.17.04.33.04.5,0,.17,0,.33-.04.5-.03-.17-.04-.33-.04-.5,0-.17,0-.33.04-.5Z"/>
      <path class="cls-15" d="m58.89,98.81c.03.17.04.33.04.5,0,.17,0,.33-.04.5-.03-.17-.04-.33-.04-.5,0-.17,0-.33.04-.5Z"/>
      <path class="cls-15" d="m61.79,98.81c.03.17.04.33.04.5,0,.17,0,.33-.04.5-.03-.17-.04-.33-.04-.5,0-.17,0-.33.04-.5Z"/>
      <path class="cls-15" d="m64.69,98.81c.03.17.04.33.04.5,0,.17,0,.33-.04.5-.03-.17-.04-.33-.04-.5,0-.17,0-.33.04-.5Z"/>
      <path class="cls-15" d="m67.6,98.81c.03.17.04.33.04.5,0,.17,0,.33-.04.5-.03-.17-.04-.33-.04-.5,0-.17,0-.33.04-.5Z"/>
      <path class="cls-15" d="m70.5,98.81c.03.17.04.33.04.5,0,.17,0,.33-.04.5-.03-.17-.04-.33-.04-.5,0-.17,0-.33.04-.5Z"/>
      <path class="cls-15" d="m73.4,98.81c.03.17.04.33.04.5,0,.17,0,.33-.04.5-.03-.17-.04-.33-.04-.5,0-.17,0-.33.04-.5Z"/>
      <path class="cls-15" d="m76.3,98.81c.03.17.04.33.04.5,0,.17,0,.33-.04.5-.03-.17-.04-.33-.04-.5,0-.17,0-.33.04-.5Z"/>
      <path class="cls-15" d="m79.2,98.81c.03.17.04.33.04.5,0,.17,0,.33-.04.5-.03-.17-.04-.33-.04-.5,0-.17,0-.33.04-.5Z"/>
      <path class="cls-15" d="m82.1,98.81c.03.17.04.33.04.5,0,.17,0,.33-.04.5-.03-.17-.04-.33-.04-.5,0-.17,0-.33.04-.5Z"/>
      <path class="cls-15" d="m85,98.81c.03.17.04.33.04.5,0,.17,0,.33-.04.5-.03-.17-.04-.33-.04-.5,0-.17,0-.33.04-.5Z"/>
    </g>
  </g>
  <g>
    <path class="cls-17" d="m10.31,98.81h-4.76s.01-.71.48-.9c.47-.19.75.18.75.18,0,0,.19-1.3,1.06-1.3s1.29,1.12,1.29,1.12c0,0,.2-.34.68-.28.48.06.5,1.17.5,1.17Z"/>
    <path class="cls-17" d="m86.75,98.81s-.15-.68-.44-.78c-.29-.1-.47.2-.47.2,0,0-.07-.65-.48-.84-.41-.19-.72.2-.72.2,0,0-.32-.82-.88-.82s-.85,1.21-.85,1.21c0,0-.33-.36-.68-.16-.34.2-.34,1-.34,1h4.86Z"/>
    <path class="cls-17" d="m42.35,98.81s-.15-.68-.44-.78c-.29-.1-.47.2-.47.2,0,0-.07-.65-.48-.84-.41-.19-.72.2-.72.2,0,0-.32-.82-.88-.82s-.85,1.21-.85,1.21c0,0-.33-.36-.68-.16-.34.2-.34,1-.34,1h4.86Z"/>
    <path class="cls-14" d="m6.4,98.81H2.02s.14-.62.44-.66c.29-.04.43.24.43.24,0,0-.01-.86.53-1.01.54-.15,1,.61,1,.61,0,0,.34-.43.8-.41.46.03.58.75.58.75,0,0,.42-.25.61.47Z"/>
    <path class="cls-14" d="m38.43,98.81h-4.38s.14-.62.44-.66c.29-.04.43.24.43.24,0,0-.01-.86.53-1.01.54-.15,1,.61,1,.61,0,0,.34-.43.8-.41.46.03.58.75.58.75,0,0,.42-.25.61.47Z"/>
    <path class="cls-14" d="m82.2,98.81h-2.69s0-.4.27-.51c.26-.11.42.1.42.1,0,0,.11-.74.6-.74s.73.64.73.64c0,0,.11-.19.38-.16.27.04.28.66.28.66Z"/>
    <path class="cls-14" d="m49.25,98.81h-2.69s0-.4.27-.51c.26-.11.42.1.42.1,0,0,.11-.74.6-.74s.73.64.73.64c0,0,.11-.19.38-.16.27.04.28.66.28.66Z"/>
  </g>
  <g>
    <g>
      <g>
        <g>
          <path class="cls-20" d="m38.08,110.46c-.5.16-14.89-.02-15.43-.38-.21-.13-.3-2.23-.35-4.77,0-.03,0-.05,0-.08,0-.52-.02-1.06-.02-1.61,0-.08,0-.15,0-.23l.7-7.46,9.62.09-.95,7.39v.29s-.07,1.53-.07,1.53v.16s5.47,2.53,6.02,2.99c.55.45.98,1.9.47,2.06Z"/>
          <path class="cls-25" d="m38.08,110.46c-.5.16-14.89-.02-15.43-.38-.21-.13-.3-2.23-.35-4.77,0-.03,0-.05,0-.08,0-.52-.02-1.06-.02-1.61,0-.08,0-.15,0-.23l9.37.02v.29s-.07,1.53-.07,1.53v.16s5.47,2.53,6.02,2.99c.55.45.98,1.9.47,2.06Z"/>
          <g>
            <path class="cls-12" d="m38.08,110.46c-.26.08-4.17.08-7.99,0-.77-.02-1.53-.03-2.26-.05-2.72-.07-4.97-.19-5.18-.32-.21-.13-.3-2.17-.34-4.66,0-.04,0-.07,0-.11,0-.03,0-.06,0-.08h.01l9.27.02v.16s5.47,2.53,6.02,2.98c.55.45.98,1.9.47,2.06Z"/>
            <g>
              <path class="cls-13" d="m37.93,109.9c-2.42-.09-12.21-.23-14.61-.13-.02,0-.02.01,0,.02,2.4.14,12.18.2,14.61.16.05,0,.05-.04,0-.04Z"/>
              <path class="cls-23" d="m32.62,105.29c-.95-.19-2.12-.06-2.86.61-.03.03,0,.07.04.06.94-.28,1.83-.46,2.81-.55.07,0,.07-.11,0-.12Z"/>
              <path class="cls-23" d="m33.3,105.71c-.95-.19-2.12-.06-2.86.61-.03.03,0,.07.04.06.95-.28,1.83-.46,2.81-.55.07,0,.07-.11,0-.12Z"/>
              <path class="cls-23" d="m33.99,106.14c-.95-.19-2.12-.06-2.86.61-.03.03,0,.07.04.06.95-.28,1.83-.46,2.81-.55.07,0,.07-.11,0-.12Z"/>
            </g>
            <path class="cls-11" d="m30.1,110.46c-.77-.02-1.53-.03-2.26-.05-2.72-.07-4.97-.19-5.18-.32-.21-.13-.3-2.17-.34-4.66,0-.04,0-.07,0-.11,0-.03,0-.06,0-.08h.01c1.27.89,5.75,3.87,7.78,5.22Z"/>
          </g>
        </g>
        <g>
          <path class="cls-14" d="m32.14,105.28h-10.36s2.08-24.19,2-24.61c-.1-.54-.72-2.99-1.53-6.19-.26-1-.53-2.07-.82-3.19-.77-3.01-1.63-6.3-2.37-9.16-1.11-4.29-1.98-7.62-1.98-7.62h8.78s1.02,3.24,2.31,7.46c2.1,6.86,4.91,16.29,5.19,18.59.45,3.7-1.22,24.72-1.22,24.72Z"/>
          <g>
            <path class="cls-15" d="m31.68,103.52c-1.58-.03-1.13-.05-2.71-.06-.77,0-5.86-.05-6.59.07-.02,0-.02.03,0,.03.72.12,5.81.07,6.59.07,1.58-.02,1.13-.03,2.71-.06.03,0,.03-.05,0-.05Z"/>
            <path class="cls-15" d="m25.73,79.19c-.34-1.5-.85-2.96-1.29-4.43-.9-2.99-1.8-5.97-2.71-8.95-.45-1.49-.91-2.98-1.37-4.47-.23-.75-.46-1.51-.7-2.26-.23-.74-.49-1.46-.7-2.21-.08-.3-.13-.14-.02.25.22.77.43,1.55.66,2.32.45,1.53.9,3.05,1.35,4.58.9,3.03,1.81,6.07,2.72,9.1.46,1.52.92,3.04,1.37,4.56.22.73.43,1.46.56,2.2.13.78.14,1.57.09,2.36-.1,1.58-.28,3.17-.43,4.75-.15,1.58-.29,3.17-.44,4.75-.29,3.15-.58,6.31-.87,9.46-.04.4-.07.8-.1,1.2-.01.13.19.12.21,0,.34-3.12.6-6.25.89-9.37.29-3.11.58-6.21.87-9.32.07-.78.16-1.56.16-2.35,0-.73-.09-1.45-.25-2.15Z"/>
          </g>
        </g>
        <path class="cls-15" d="m24.86,54.51c-.61,4.71-1.77,13.56-2.61,19.97-1.98-7.77-5.17-19.97-5.17-19.97h7.78Z"/>
      </g>
      <g>
        <g>
          <path class="cls-20" d="m26.92,110.6c-.5.16-14.89.03-15.43-.32-.21-.13-.31-2.23-.36-4.76,0-.03,0-.05,0-.08-.01-.52-.02-1.06-.02-1.61,0-.08,0-.15,0-.23-.03-3.66.23-7.46.23-7.46l9.4.06-.26,7.39v.29s-.06,1.53-.06,1.53v.16s5.48,2.51,6.04,2.96c.55.45.98,1.9.48,2.06Z"/>
          <path class="cls-25" d="m26.92,110.6c-.5.16-14.89.03-15.43-.32-.21-.13-.31-2.23-.36-4.76,0-.03,0-.05,0-.08-.01-.52-.02-1.06-.02-1.61,0-.08,0-.15,0-.23h9.37s0,.28,0,.28l-.05,1.53v.16s5.48,2.51,6.04,2.96c.55.45.98,1.9.48,2.06Z"/>
          <g>
            <path class="cls-9" d="m26.92,110.6c-.5.16-14.89.03-15.43-.32-.21-.13-.31-2.23-.36-4.76,0-.03,0-.05,0-.08l9.28-.02v.16s5.48,2.51,6.04,2.96c.55.45.98,1.9.48,2.06Z"/>
            <g>
              <path class="cls-10" d="m26.77,110.04c-2.42-.08-12.21-.18-14.61-.08-.02,0-.02.01,0,.02,2.4.13,12.19.15,14.61.1.05,0,.05-.04,0-.04Z"/>
              <path class="cls-23" d="m21.44,105.45c-.95-.19-2.12-.05-2.86.62-.03.03,0,.07.04.06.94-.29,1.82-.47,2.81-.56.07,0,.07-.11,0-.12Z"/>
              <path class="cls-23" d="m22.13,105.87c-.95-.19-2.12-.05-2.86.62-.03.03,0,.07.04.06.94-.29,1.82-.47,2.81-.56.07,0,.07-.11,0-.12Z"/>
              <path class="cls-23" d="m22.81,106.29c-.95-.19-2.12-.05-2.86.62-.03.03,0,.07.04.06.94-.29,1.82-.47,2.81-.56.07,0,.07-.11,0-.12Z"/>
            </g>
          </g>
        </g>
        <g>
          <path class="cls-14" d="m25.58,54.51s-.2,4.2-1.16,7.53c-.08.28-.16.55-.25.81,0,0-1,.36-2.53,1.3,0,0-.1,3.38-.2,7.15-.11,4.21-.23,8.91-.2,9.91.09,3.73-.46,24.23-.46,24.23l-10.36.04s1.87-22.9,1.85-24.27c-.02-2.2.5-11.9.9-18.98.25-4.36.45-7.72.45-7.72h11.96Z"/>
          <path class="cls-15" d="m20.42,103.59c-1.58-.03-1.13-.04-2.71-.05-.77,0-5.86-.03-6.58.1-.02,0-.02.03,0,.03.72.12,5.81.05,6.59.04,1.58-.02,1.13-.03,2.71-.07.03,0,.03-.05,0-.05Z"/>
          <path class="cls-15" d="m14.49,56.02c-.19,5.78-.39,11.56-.65,17.33-.26,5.79-.61,11.59-1.09,17.37-.27,3.23-.52,7.77-.87,10.99,0,.02.03.03.03,0,.75-5.73,1.17-12.82,1.54-18.59.37-5.77.62-11.54.81-17.32.11-3.27.19-6.53.29-9.8,0-.05-.07-.04-.07,0Z"/>
        </g>
        <path class="cls-15" d="m24.59,62.59c-1.03.41-2.02.97-2.96,1.55-.04.02,0,.08.03.06,1-.49,2.02-.95,2.99-1.49.08-.04.02-.15-.06-.12Z"/>
        <path class="cls-15" d="m24.65,59.03c-.07.37-.16.73-.24,1.1-.07.34-.13.69-.22,1.03-.09.33-.23.63-.48.87-.13.13-.28.24-.43.35-.08.06-.16.12-.24.18.01-.05.02-.1.03-.15.02-.14.05-.28.07-.42.05-.31.1-.62.15-.93.09-.61.18-1.23.31-1.83,0-.02-.03-.03-.04,0-.15.6-.32,1.19-.45,1.8-.06.3-.3,1.76-.31,1.86-.01.11-.02.21-.02.32,0,.11-.02.22,0,.33,0,.03.04.02.05,0,0,0,0,0,0,0,.05-.09.07-.21.09-.32.03-.1.05-.21.07-.32,0-.04.01-.08.02-.12.14-.09.28-.2.41-.3.15-.11.29-.21.43-.32.26-.22.43-.49.53-.82.1-.34.13-.7.17-1.05.05-.42.08-.83.14-1.25,0-.02-.03-.03-.04,0Z"/>
      </g>
    </g>
    <g>
      <g>
        <path class="cls-20" d="m21.85,43.68c.57,1.6,2.6,5.19,5.7,8.02,1.2,1.09,10.13.37,11.02.03.62-.24,1.77-4.74,1.12-5.15-1.22-.76-9.2,1-9.54.82-.52-.28-3.96-2.58-6.17-4.77-1.62-1.6-3.07-1.61-2.12,1.05Z"/>
        <g>
          <path class="cls-17" d="m24.14,48.41l5.07-2.01s-4.55-3.91-6.21-4.68c-1.87-.87-1.91.28-1.25,2.12.66,1.85,2.39,4.57,2.39,4.57Z"/>
          <path class="cls-15" d="m28.14,45.78c-.19.04-1.78.64-2.12.78-.34.14-1.75.69-2.09.86-.02,0,0,.03,0,.03.37-.1,1.79-.66,2.14-.79.35-.13,1.91-.76,2.07-.86.01,0,0-.03-.01-.02Z"/>
          <path class="cls-15" d="m26.1,47.63l-1.95.78s-1.73-2.72-2.39-4.57c-.48-1.35-.59-2.33.11-2.41l4.23,6.21Z"/>
        </g>
      </g>
      <g>
        <path class="cls-24" d="m12.46,59.09s14.36.13,14.49-.02c.18-.21-3-15.74-4.46-17.66-.31-.41-2.29-.97-3.44-.04-2.44,1.98-4.55,8.79-5.04,10.85-.81,3.39-1.67,6.73-1.55,6.87Z"/>
        <g>
          <path class="cls-2" d="m22.57,41.53h-3.7c.06-.06.12-.11.18-.16.04-.03.08-.06.11-.08h3.19c.06.04.1.08.13.12.03.03.05.08.08.12Z"/>
          <path class="cls-2" d="m22.91,42.22h-4.68c.07-.08.13-.17.2-.24h4.37c.03.08.07.16.11.24Z"/>
          <path class="cls-2" d="m23.18,42.92h-5.45c.06-.08.11-.16.17-.24h5.2c.03.08.06.16.09.24Z"/>
          <path class="cls-2" d="m23.42,43.61h-6.11c.05-.08.1-.16.14-.24h5.89c.03.08.05.16.08.24Z"/>
          <path class="cls-2" d="m23.64,44.31h-6.72c.04-.08.08-.16.13-.24h6.51c.02.08.05.16.08.24Z"/>
          <path class="cls-2" d="m23.85,45.01h-7.27c.04-.08.08-.16.12-.24h7.08c.02.08.05.16.07.24Z"/>
          <path class="cls-2" d="m24.04,45.7h-7.79c.04-.08.07-.16.11-.24h7.61c.02.08.05.16.07.24Z"/>
          <path class="cls-2" d="m24.23,46.4h-8.28c.03-.08.07-.16.1-.24h8.11c.02.08.04.16.06.24Z"/>
          <path class="cls-2" d="m24.41,47.09h-8.74c.03-.08.06-.16.1-.24h8.58c.02.08.04.16.06.24Z"/>
          <path class="cls-2" d="m24.59,47.79h-9.19c.03-.08.06-.16.09-.24h9.03c.02.08.04.16.06.24Z"/>
          <path class="cls-2" d="m24.77,48.49h-9.61c.03-.08.06-.16.09-.24h9.47c.02.08.04.16.06.24Z"/>
          <path class="cls-2" d="m24.94,49.18h-10.02c.03-.08.05-.16.08-.24h9.88c.02.08.04.16.06.24Z"/>
          <path class="cls-2" d="m25.1,49.88h-10.42c.03-.08.05-.16.08-.24h10.28c.02.08.04.16.06.24Z"/>
          <path class="cls-2" d="m25.26,50.57h-10.8c.02-.08.05-.16.07-.24h10.67c.02.08.04.16.05.24Z"/>
          <path class="cls-2" d="m25.43,51.27h-11.16c.02-.08.05-.16.07-.24h11.04c.02.08.04.16.06.24Z"/>
          <path class="cls-2" d="m25.58,51.96h-11.51c.02-.08.04-.16.06-.24h11.39c.02.08.04.16.05.24Z"/>
          <path class="cls-2" d="m25.74,52.66h-11.83c.02-.08.04-.16.06-.24h11.72c.02.08.03.16.05.24Z"/>
          <path class="cls-2" d="m25.89,53.35h-12.15c.02-.08.04-.16.06-.24h12.04c.02.08.03.16.05.24Z"/>
          <path class="cls-2" d="m26.04,54.05h-12.47c.02-.08.04-.16.06-.24h12.36c.02.08.04.16.05.24Z"/>
          <path class="cls-2" d="m26.18,54.75h-12.78c.02-.08.04-.16.06-.24h12.68c.02.08.03.16.05.24Z"/>
          <path class="cls-2" d="m26.33,55.44h-13.1c.02-.08.04-.16.06-.24h12.99c.02.08.03.16.05.24Z"/>
          <path class="cls-2" d="m26.47,56.14h-13.41c.02-.08.04-.16.06-.24h13.3c.02.08.03.16.05.24Z"/>
          <path class="cls-2" d="m26.6,56.84h-13.71c.02-.08.04-.16.06-.24h13.6c.02.08.03.16.05.24Z"/>
          <path class="cls-2" d="m26.73,57.53h-14c.02-.08.04-.16.06-.24h13.9c.02.08.03.16.05.24Z"/>
          <path class="cls-2" d="m26.85,58.23h-14.27c.02-.08.03-.16.05-.24h14.18c.02.09.03.17.04.24Z"/>
          <path class="cls-2" d="m26.95,58.92h-14.5c0-.06.02-.15.04-.24h14.43c.02.1.02.18.03.24Z"/>
        </g>
      </g>
      <g>
        <polygon class="cls-25" points="23.18 59.49 25.47 49.7 26.38 40.92 31.13 42.18 35.1 41.39 38.65 42.9 43.7 41.76 40.28 51.03 38.84 60.42 35.02 61.37 31.18 59.72 27.28 60.99 23.18 59.49"/>
        <polygon class="cls-19" points="27.28 60.99 31.13 42.18 35.1 41.39 31.18 59.72 27.28 60.99"/>
        <polygon class="cls-19" points="35.02 61.37 38.65 42.9 43.7 41.76 40.28 51.03 38.84 60.42 35.02 61.37"/>
      </g>
      <g>
        <path class="cls-20" d="m42.75,45.96c.16.93.85,2.23.74,2.92-.1.63-.66.7-.66.7,0,0,.57.52.37,1.14-.1.32-.7.43-.7.43,0,0,.44.44.23.97-.17.43-.74.47-.74.47,0,0,.23.62-.08,1-.63.77-4.42-.3-4.61-1.86-.09-.73.82-.42.82-.42,0,0-1.2-.76-1-1.55.2-.79,1.36-.31,1.36-.31,0,0-1.16-.75-.87-1.54.3-.83,1.38-.15,1.38-.15,0,0-.68-.81-.32-1.37.6-.92,2.15.88,3.04.92l.45-1.33h.59Z"/>
        <path class="cls-20" d="m43.09,47.33c-.07-.89.61-1.08.78-1.93.19-.94-.97-1.01-1.7.51l-.47,1.38,1.39.04Z"/>
        <g>
          <path class="cls-15" d="m41.9,52.6s.01.02,0,.02c-1.33-.05-2.78-.51-3.83-1.33-.03-.03,0-.1.04-.07,1.25.64,2.41,1.11,3.8,1.39Z"/>
          <path class="cls-15" d="m42.52,51.15s.01.03,0,.03c-1.37-.06-2.99-.62-4.09-1.72-.04-.04-.03-.11.01-.07.79.67,2.84,1.52,4.08,1.76Z"/>
          <path class="cls-15" d="m38.93,47.64c1.1,1.01,2.41,1.56,3.84,1.94.02,0,0,.03,0,.03-.75,0-1.64-.33-2.3-.65-.64-.3-1.15-.71-1.57-1.28-.02-.02.01-.06.04-.04Z"/>
        </g>
      </g>
      <g>
        <path class="cls-20" d="m17.13,42.65c-2.52,2.8-7.41,10.01-6.47,11.92,1.27,2.58,6.07,6.43,7.79,7.05.74.27,3.93-5.11,3.25-5.6-.82-.59-5.39-3.84-5.34-4.15.04-.29,1.48-3.82,2.27-6.92.91-3.59-.1-3.85-1.48-2.32Z"/>
        <g>
          <path class="cls-20" d="m18.58,55.52s2.32-.63,3.86-.96c.86-.19,2.36-.38,3.05-.23,1.04.22,5.23,1.82,4.86,2.85-.33.93-3.76-.9-3.76-.9,0,0,3.62,1.54,3.02,2.58-.6,1.04-4.2-1.54-4.2-1.54,0,0,3.68,1.67,2.89,2.64-.6.74-3.99-1.42-3.99-1.42,0,0,3.16,1.45,2.57,2.24-.64.87-3.9-.92-3.9-.92-1.82,1.75-3.45,2.08-4.53,1.77-.26-.08.13-6.11.13-6.11Z"/>
          <g>
            <path class="cls-15" d="m25.37,55.66c.43.17.87.33,1.29.53.42.2.82.42,1.22.66.97.59,1.48,1.11,1.45,1.08-.83-.68-2.31-1.43-2.73-1.64-.41-.2-.82-.43-1.23-.63-.01,0,0-.02,0-.02Z"/>
            <path class="cls-15" d="m24.61,57.14c.54.24,1.09.45,1.62.71.53.26,1.01.55,1.52.84.04.02.01.04-.03.02-.52-.27-1.03-.49-1.55-.75-.52-.27-1.04-.55-1.57-.8,0,0,0-.02,0-.01Z"/>
            <path class="cls-15" d="m23.72,58.3c.85.32,1.63.79,2.4,1.27.04.02,0,.04-.04.02-.79-.44-1.4-.79-2.37-1.26-.02,0,0-.04.01-.03Z"/>
          </g>
        </g>
        <g>
          <path class="cls-17" d="m17.6,48.74l-5.35-1.06s3.77-4.67,5.26-5.73c1.68-1.19,1.92-.07,1.61,1.86-.31,1.93-1.53,4.93-1.53,4.93Z"/>
          <path class="cls-15" d="m17.65,47.81c-.18-.06-1.84-.41-2.21-.48-.36-.07-1.85-.36-2.23-.39-.02,0-.02.02,0,.03.37.11,1.86.4,2.23.48s2.02.38,2.21.39c.02,0,.01-.02,0-.03Z"/>
        </g>
      </g>
      <g>
        <path class="cls-14" d="m20.75,40.33c-1.18-.13-2.59.88-1.54,2.24,1.04,1.37,2.17,1.63,2.79,1.44.74-.23,1.01-1.72.83-2.43-.18-.7-1.07-1.14-2.07-1.26Z"/>
        <g>
          <g>
            <path class="cls-20" d="m21.72,43.52c-.49.07-1.94-.83-2.49-1.8-.04-.07.21-2.76.2-3.3,0-.11,3.39.78,3.39.78,0,0-.32,1.13-.3,2.07,0,.08.01.15.03.22,0,.01,0,.02,0,.04.07.42-.11,1.88-.83,1.99Z"/>
            <path class="cls-15" d="m19.65,38.43c.14.82.68,3.1,2.55,3.12.13,0,.24,0,.35-.02,0-.01,0-.03,0-.04-.01-.07-.02-.14-.02-.22-.02-.94.3-2.07.3-2.07,0,0-2.42-.64-3.17-.77Z"/>
          </g>
          <g>
            <path class="cls-15" d="m24.39,33.2s1.02.68,1,1.85c-.02,1.17-.51,2.3-.62,2.34-.11.04-.38-4.19-.38-4.19Z"/>
            <path class="cls-20" d="m19.76,33.87c-.61,1.1-.7,4.61-.03,5.54.98,1.35,2.93,1.87,4.17.62,1.2-1.22,1.24-5.8.46-6.68-1.16-1.3-3.71-1.1-4.6.52Z"/>
            <g>
              <g>
                <path class="cls-15" d="m22.63,36.67s-.02.01-.02.02c0,.24-.04.51-.26.58,0,0,0,.01,0,.01.26-.03.31-.39.27-.61Z"/>
                <path class="cls-15" d="m22.43,36.41c-.38-.04-.43.72-.08.76.35.04.4-.73.08-.76Z"/>
              </g>
              <g>
                <path class="cls-15" d="m23.93,36.74s.02.01.02.02c-.02.24-.01.51.2.6,0,0,0,.01,0,.01-.26-.06-.27-.42-.21-.64Z"/>
                <path class="cls-15" d="m24.16,36.51c.38,0,.36.76,0,.76-.35,0-.32-.76,0-.76Z"/>
              </g>
              <path class="cls-15" d="m22.1,36.16c.11-.02.2-.05.3-.08.12-.03.21-.05.29-.14.04-.05.03-.15-.01-.2-.11-.11-.26-.1-.4-.07-.15.04-.26.1-.36.23-.09.12.03.29.17.26Z"/>
              <path class="cls-15" d="m24.49,35.98c-.1-.02-.2-.07-.3-.1-.11-.04-.21-.06-.28-.16-.04-.05-.03-.15.02-.2.11-.1.26-.09.4-.05.15.05.26.12.34.25.08.13-.05.29-.19.25Z"/>
              <path class="cls-15" d="m22.19,38.78c.05.06.1.14.19.15.08.01.18-.02.26-.04,0,0,.01,0,0,.01-.07.09-.2.13-.31.11-.11-.03-.15-.12-.17-.22,0-.01.02-.02.02,0Z"/>
              <path class="cls-15" d="m22.49,38.09c.12.21.3.34.51.4.09.03.19.04.29.03.02,0,.04,0,.06,0,.02,0,.03,0,.05,0,.03,0,.04-.02.05-.05h0s0-.02,0-.03h0s0-.02,0-.02c.02-.18.02-.46.02-.46.06.04.39.21.39.12,0-.79.02-1.67-.14-2.46,0-.03-.04-.02-.04,0-.04.76.06,1.52.03,2.28-.11-.05-.28-.14-.37-.14-.03,0,0,.54,0,.62,0,0,0,0,0,0-.31.02-.53-.09-.81-.32-.02-.01-.04,0-.02.02Z"/>
              <g>
                <path class="cls-15" d="m23.19,38.42s-.18.21-.4.27c-.08.02-.17.03-.26,0-.19-.06-.18-.24-.13-.38.04-.12.1-.22.1-.22,0,0,.26.28.7.34Z"/>
                <path class="cls-22" d="m22.79,38.69c-.08.02-.17.03-.26,0-.19-.06-.18-.24-.13-.38.2.04.39.19.39.38Z"/>
              </g>
            </g>
            <g>
              <path class="cls-15" d="m19.34,37.18c.42.14.93-1.12,1.08-1.61.13-.43.3-1.79.32-1.88.02-.09,1.82,1.25,2.89.96,1.07-.29,1.81-1.23,1.83-1.67.02-.45-1.27-1.61-2.42-1.69-1.14-.08-2.73,1.34-2.73,1.34,0,0,.54-.62.52-.67-.02-.05-.76.23-.91.75,0,0,.16-.66.11-.67-.06-.01-.64.54-.52.97,0,0-.68.56-.75,1.19-.08.63.08,2.82.57,2.98Z"/>
              <path class="cls-15" d="m24.4,34.44c-.33.14-.66.3-1.01.34-.39.04-.79-.06-1.14-.21-.37-.15-.7-.36-.99-.62-.26-.23-.49-.5-.77-.7-.07-.05-.15.05-.11.12.42.66,1.17,1.22,1.9,1.47.77.26,1.5.11,2.14-.39,0,0,0-.01,0,0Z"/>
            </g>
            <g>
              <path class="cls-24" d="m21.99,37.92c-.46-.07-.83-.45-.88-.94-.05-.58.38-1.08.95-1.14.58-.05,1.08.38,1.14.95h0c.05.57-.38,1.08-.95,1.14-.09,0-.18,0-.26,0Zm.31-1.93c-.07-.01-.15-.01-.23,0-.5.04-.87.49-.82.98.04.5.49.87.98.82.5-.04.87-.49.82-.98-.04-.42-.36-.75-.76-.82Z"/>
              <path class="cls-24" d="m24.39,38.02c-.4-.06-.69-.53-.66-1.07.01-.28.1-.53.25-.72.16-.2.36-.3.57-.29.21,0,.41.13.54.34.13.2.2.47.19.74-.03.58-.4,1.03-.82,1.01-.02,0-.05,0-.07,0Zm.21-1.94s-.04,0-.05,0c-.17,0-.33.08-.46.24-.13.17-.21.39-.22.64-.02.5.25.92.6.93.35.02.66-.38.68-.88.01-.25-.05-.48-.17-.66-.1-.15-.23-.25-.38-.27Z"/>
              <path class="cls-24" d="m23.16,36.92l-.09-.11c.16-.13.54-.29.78,0l-.11.09c-.22-.26-.58.01-.59.02Z"/>
              <path class="cls-24" d="m18.69,37.03l-.12-.07c.03-.06.33-.55.64-.59.29-.03,1.96.18,2.03.19l-.02.14c-.53-.07-1.77-.21-2-.19-.21.02-.46.38-.54.52Z"/>
            </g>
            <g>
              <path class="cls-20" d="m19.9,36.78s-.56-1.25-1.11-1.07c-.55.18-.28,1.88.27,2.21.54.33.86-.17.86-.17l-.02-.98Z"/>
              <path class="cls-15" d="m18.88,36.2s-.01.01,0,.02c.38.24.52.67.6,1.09-.09-.18-.24-.29-.47-.18-.01,0,0,.02,0,.02.18,0,.29.05.38.2.06.11.09.24.13.36.01.04.08.03.08-.01,0,0,0,0,0-.01.11-.52-.16-1.33-.71-1.49Z"/>
            </g>
          </g>
        </g>
      </g>
    </g>
  </g>
  <g>
    <g>
      <path class="cls-23" d="m38.53,33.79c-.28,2.69-2.69,4.64-5.38,4.36-1.09-.11-2.05-.57-2.8-1.26l-2.45.36,1.22-2.12c-.3-.72-.42-1.53-.34-2.36.28-2.69,2.69-4.64,5.38-4.36,2.69.28,4.64,2.69,4.36,5.38Z"/>
      <path class="cls-15" d="m38.53,33.79c-.1.89-.43,1.77-.99,2.48-.13.19-.29.34-.44.51-.17.15-.33.31-.52.44-.36.28-.76.49-1.18.66-.42.18-.87.26-1.32.31-.23.01-.45.03-.68.01-.23,0-.45-.03-.68-.07-.9-.16-1.74-.58-2.42-1.2l.06.02-2.45.38-.18.03.09-.16,1.22-2.12v.08c-.6-1.4-.47-3.06.3-4.36.38-.65.91-1.21,1.53-1.63.62-.42,1.35-.68,2.09-.78.74-.1,1.5-.03,2.21.2.71.24,1.36.64,1.89,1.16,1.08,1.03,1.62,2.57,1.46,4.04Zm0,0c.15-1.47-.4-3.01-1.49-4.02-.54-.51-1.19-.89-1.89-1.11-.7-.22-1.45-.27-2.18-.16-.72.11-1.42.38-2.02.8-.6.42-1.1.97-1.46,1.6-.37.63-.56,1.35-.62,2.07-.05.72.07,1.46.34,2.13l.02.04-.02.04-1.23,2.11-.09-.13,2.45-.34h.03s.02.02.02.02c.65.61,1.47,1.03,2.34,1.21.22.04.44.07.66.08.22.02.45,0,.67,0,.44-.05.89-.12,1.31-.29.42-.16.82-.36,1.18-.64.19-.12.35-.29.52-.43.15-.17.32-.32.44-.51.56-.7.89-1.58,1-2.47Z"/>
    </g>
    <polygon class="cls-4" points="33.09 36.07 31 33.95 31.7 33.26 32.93 34.5 35.46 30.52 36.29 31.05 33.09 36.07"/>
  </g>
</svg>