<?xml version="1.0" encoding="UTF-8"?>
<svg xmlns="http://www.w3.org/2000/svg" xmlns:xlink="http://www.w3.org/1999/xlink" viewBox="0 0 50 50">
  <defs>
    <style>
      .cls-1 {
        clip-path: url(#clippath);
      }

      .cls-2 {
        fill: url(#linear-gradient);
      }

      .cls-2, .cls-3, .cls-4, .cls-5, .cls-6, .cls-7, .cls-8, .cls-9, .cls-10, .cls-11, .cls-12, .cls-13, .cls-14, .cls-15, .cls-16, .cls-17, .cls-18, .cls-19, .cls-20, .cls-21, .cls-22, .cls-23, .cls-24, .cls-25, .cls-26, .cls-27, .cls-28, .cls-29, .cls-30, .cls-31, .cls-32, .cls-33, .cls-34, .cls-35, .cls-36, .cls-37, .cls-38, .cls-39, .cls-40, .cls-41, .cls-42, .cls-43, .cls-44, .cls-45, .cls-46, .cls-47, .cls-48, .cls-49, .cls-50, .cls-51, .cls-52, .cls-53, .cls-54, .cls-55, .cls-56, .cls-57, .cls-58, .cls-59, .cls-60, .cls-61, .cls-62, .cls-63, .cls-64, .cls-65, .cls-66, .cls-67, .cls-68, .cls-69, .cls-70, .cls-71, .cls-72, .cls-73, .cls-74, .cls-75, .cls-76, .cls-77, .cls-78, .cls-79, .cls-80, .cls-81, .cls-82, .cls-83, .cls-84, .cls-85, .cls-86, .cls-87, .cls-88, .cls-89, .cls-90, .cls-91, .cls-92, .cls-93 {
        stroke-width: 0px;
      }

      .cls-94, .cls-44 {
        fill: #c93332;
      }

      .cls-95 {
        mix-blend-mode: multiply;
      }

      .cls-96 {
        isolation: isolate;
      }

      .cls-3 {
        fill: #f47b37;
      }

      .cls-4 {
        fill: #f8971d;
      }

      .cls-5 {
        fill: #616262;
      }

      .cls-6 {
        fill: #5bc6cd;
      }

      .cls-7 {
        fill: #757370;
      }

      .cls-8 {
        fill: #791f1e;
      }

      .cls-9 {
        fill: #842222;
      }

      .cls-10 {
        fill: #836226;
      }

      .cls-11 {
        fill: #757575;
      }

      .cls-12 {
        fill: #25a3b0;
      }

      .cls-13 {
        fill: #276c76;
      }

      .cls-14 {
        fill: #266a74;
      }

      .cls-15 {
        fill: #565653;
      }

      .cls-16 {
        fill: #573b37;
      }

      .cls-17 {
        fill: #832f33;
      }

      .cls-18 {
        fill: #888;
      }

      .cls-19 {
        fill: #868686;
      }

      .cls-20 {
        fill: #886527;
      }

      .cls-21 {
        fill: #8b2422;
      }

      .cls-22 {
        fill: #39211c;
      }

      .cls-23 {
        fill: #2dbdcc;
      }

      .cls-24 {
        fill: #2e707f;
      }

      .cls-25 {
        fill: #1a2226;
      }

      .cls-26 {
        fill: #196b73;
      }

      .cls-27 {
        fill: #19717a;
      }

      .cls-28 {
        fill: #3dc2d3;
      }

      .cls-29 {
        fill: #176f77;
      }

      .cls-30 {
        fill: #177078;
      }

      .cls-31 {
        fill: #17656e;
      }

      .cls-32 {
        fill: #1c7185;
      }

      .cls-33 {
        fill: #14555b;
      }

      .cls-34 {
        fill: #145c63;
      }

      .cls-35 {
        fill: #434343;
      }

      .cls-36 {
        fill: #40b6c6;
      }

      .cls-37 {
        fill: #212121;
      }

      .cls-38 {
        fill: #20565e;
      }

      .cls-39 {
        fill: #1d828b;
      }

      .cls-40 {
        fill: #1e4f56;
      }

      .cls-41 {
        fill: #125a61;
      }

      .cls-42 {
        fill: #134d67;
      }

      .cls-43 {
        fill: #c52e2e;
      }

      .cls-45 {
        fill: #e26429;
      }

      .cls-46 {
        fill: #c8c8c8;
      }

      .cls-47 {
        fill: #c7c5c0;
      }

      .cls-48 {
        fill: #d93836;
      }

      .cls-49 {
        fill: #a77c2c;
      }

      .cls-50 {
        fill: #b0832d;
      }

      .cls-51 {
        fill: #a86728;
      }

      .cls-52 {
        fill: #a77b2c;
      }

      .cls-53 {
        fill: #aa6828;
      }

      .cls-54 {
        fill: #ad6928;
      }

      .cls-55 {
        fill: #865221;
      }

      .cls-56 {
        fill: #8b5522;
      }

      .cls-57 {
        fill: #8c2423;
      }

      .cls-58 {
        fill: #9f393d;
      }

      .cls-59 {
        fill: #8c6928;
      }

      .cls-60 {
        fill: #b3b3b3;
      }

      .cls-61 {
        fill: #8e6a29;
      }

      .cls-62 {
        fill: #a31e22;
      }

      .cls-63 {
        fill: #a1a1a4;
      }

      .cls-64 {
        fill: #a1393e;
      }

      .cls-65 {
        fill: #a22a28;
      }

      .cls-66 {
        fill: #855121;
      }

      .cls-67 {
        fill: #862322;
      }

      .cls-68 {
        fill: #945a24;
      }

      .cls-69 {
        fill: #fbcbbc;
      }

      .cls-70 {
        fill: #fbccbd;
      }

      .cls-71 {
        fill: #7f2021;
      }

      .cls-72 {
        fill: #6b6967;
      }

      .cls-73 {
        fill: #7f4e20;
      }

      .cls-74 {
        fill: #6b6b6b;
      }

      .cls-75 {
        fill: #7f5e25;
      }

      .cls-76 {
        fill: #751e1d;
      }

      .cls-77 {
        fill: #824f20;
      }

      .cls-78 {
        fill: #f39220;
      }

      .cls-79 {
        fill: #f2b09e;
      }

      .cls-80 {
        fill: #e55158;
      }

      .cls-81 {
        fill: #fff;
      }

      .cls-82 {
        fill: #ef9021;
      }

      .cls-83 {
        fill: #e63632;
      }

      .cls-84 {
        fill: #f0575d;
      }

      .cls-85 {
        fill: #fdb816;
      }

      .cls-86 {
        fill: #fdba18;
      }

      .cls-87 {
        fill: #ef3e3c;
      }

      .cls-88 {
        fill: #ef403d;
      }

      .cls-89 {
        fill: #f15a5a;
      }

      .cls-90 {
        fill: #efb01e;
      }

      .cls-91 {
        fill: #e6e6e5;
      }

      .cls-92 {
        fill: #eaa292;
      }

      .cls-93 {
        fill: #f68d3e;
      }
    </style>
    <linearGradient id="linear-gradient" x1="52.38" y1="49.29" x2="18.51" y2="19.66" gradientUnits="userSpaceOnUse">
      <stop offset="0" stop-color="#dbe2f3"/>
      <stop offset="1" stop-color="#eaeff8"/>
    </linearGradient>
    <clipPath id="clippath">
      <path class="cls-44" d="m23.3,28.55l-.53,2.9c0,.19.14.38.42.53.56.29,1.47.29,2.03,0,.28-.15.42-.34.42-.53l-.62-2.9c0,.12-.08.23-.25.32-.34.18-.89.17-1.22,0-.16-.09-.25-.2-.25-.31Z"/>
    </clipPath>
  </defs>
  <g class="cls-96">
    <g id="Layer_1" data-name="Layer 1">
      <path class="cls-2" d="m46.62,33.9c-4.38,10.3-16.03,16.08-26.14,14.52-1.65-.25-6.15-1.01-10.15-4.57C2.64,36.99,1,23.42,7.2,13.86,11.71,6.89,19.8,2.95,27.49,3.14c1.66.04,8,.3,13.58,4.9.82.68,2.63,2.28,4.25,4.83,3.82,5.98,4.15,14.31,1.3,21.02Z"/>
      <g>
        <g>
          <g>
            <g>
              <g>
                <g class="cls-96">
                  <path class="cls-87" d="m26.83,29.77c1.41.85,1.36,2.21-.11,3.03-1.47.82-3.81.8-5.23-.05-1.41-.85-1.36-2.21.11-3.03,1.47-.82,3.81-.8,5.23.05Z"/>
                </g>
                <path class="cls-8" d="m20.48,31.91v-.64c0,.53.33,1.06,1.02,1.48,1.41.85,3.75.87,5.23.05.76-.42,1.14-.99,1.14-1.55v.64c.01.56-.37,1.13-1.13,1.55-1.47.82-3.81.8-5.23-.05-.69-.41-1.03-.94-1.03-1.48Z"/>
              </g>
              <g class="cls-96">
                <g class="cls-96">
                  <path class="cls-94" d="m23.3,28.55l-.53,2.9c0,.19.14.38.42.53.56.29,1.47.29,2.03,0,.28-.15.42-.34.42-.53l-.62-2.9c0,.12-.08.23-.25.32-.34.18-.89.17-1.22,0-.16-.09-.25-.2-.25-.31Z"/>
                  <g class="cls-1">
                    <g class="cls-96">
                      <path class="cls-44" d="m23.3,28.55l-.53,2.9s0,.05,0,.07l.52-2.93s0-.03,0-.04h0Z"/>
                      <path class="cls-44" d="m23.3,28.59l-.52,2.93c.02.09.06.18.14.26l.47-3.03s-.07-.1-.08-.15h0Z"/>
                      <path class="cls-44" d="m23.39,28.75l-.47,3.03c.07.07.16.14.27.2.3.16.7.23,1.1.22l-.08-3.2c-.24,0-.48-.04-.66-.13-.07-.03-.12-.08-.16-.12h0Z"/>
                      <path class="cls-44" d="m24.21,29l.08,3.2c.16,0,.33-.02.48-.06l-.27-3.17c-.09.02-.19.03-.29.04h0Z"/>
                      <path class="cls-65" d="m24.5,28.96l.27,3.17c.16-.04.32-.09.45-.16.28-.15.42-.34.42-.53l-.62-2.9c0,.12-.08.23-.25.32-.08.04-.17.07-.27.1h0Z"/>
                    </g>
                  </g>
                </g>
                <path class="cls-21" d="m23.55,28.23c-.34.18-.34.46,0,.64.33.18.88.18,1.22,0,.34-.18.34-.46,0-.64-.33-.18-.88-.18-1.22,0Z"/>
              </g>
              <path class="cls-57" d="m25.73,27.24v1.35c-1.07.62-2.1.98-3.05,1.11v-1.46c.93-.05,1.97-.37,3.05-1Z"/>
              <g>
                <g class="cls-96">
                  <g class="cls-96">
                    <path class="cls-65" d="m25.73,27.24l-1.63-.95c-2.05,1.18-3.91,1.29-5.26.51l1.63.95c1.34.78,3.21.67,5.26-.51h0Z"/>
                  </g>
                </g>
                <g class="cls-96">
                  <g class="cls-96">
                    <path class="cls-44" d="m17.63,26.65l-1.63-.95c.35.94.87,1.68,1.54,2.2l1.63.95c-.66-.52-1.19-1.26-1.54-2.2h0Z"/>
                    <path class="cls-65" d="m19.16,28.86l-1.63-.95c.15.12.31.23.48.33l1.63.95c-.17-.1-.33-.21-.48-.33h0Z"/>
                  </g>
                </g>
              </g>
              <g class="cls-96">
                <g class="cls-96">
                  <g class="cls-96">
                    <path class="cls-39" d="m24.14,26.64c2.34-.02,3.54.19,4.7.38-1.05.64-4.81,2.54-9.23.14,1.25.7,2.89.45,4.53-.52h0Z"/>
                  </g>
                  <g>
                    <path class="cls-81" d="m24.14,26.64c.26,0,.52,0,.78,0,.1,0,.23,0,.33,0-.37.02-.74.01-1.11,0h0Z"/>
                    <path class="cls-81" d="m24.14,26.64c.49.18.99.32,1.47.41-.01.01-.02.02-.04.03-.47-.1-.96-.25-1.44-.44h0Zm1.7.49s.03-.02.04-.04c.92.14,1.81.1,2.62-.14.04,0,.09.02.12.02-.85.28-1.8.32-2.79.15h0Z"/>
                    <path class="cls-81" d="m24.14,26.64c-.02.34-.03.63-.05.88-.02,0-.04,0-.06,0,.04-.24.07-.54.11-.88h0Zm-.13,1s.05,0,.07,0c-.03.45-.07.7-.1.7h-.19c.07,0,.14-.25.21-.7h0Z"/>
                    <path class="cls-81" d="m24.14,26.64c-.3.29-.6.54-.89.74-.02,0-.04-.01-.06-.02.4-.26.57-.39.94-.72h0Zm-1.11.82s.04.02.06.02c-.62.38-1.22.54-1.76.42-.06-.02-.12-.04-.17-.06.57.13,1.2-.01,1.86-.38h0Zm-2.01.35c.06.02.12.04.18.06-.01,0-.03,0-.04-.01l-.22-.08.08.03h0Z"/>
                    <path class="cls-81" d="m24.14,26.64c.27.3.54.56.8.76-.02,0-.04.01-.06.02-.25-.21-.49-.47-.74-.78h0Zm.88.89s.04-.01.07-.02c.56.4,1.1.57,1.57.47-.06.02-.12.03-.18.05-.44.09-.94-.09-1.46-.5h0Z"/>
                    <g>
                      <path class="cls-81" d="m26.48,28.04c.06-.02.12-.03.18-.05.52-.16,1.01-.36,1.44-.62.2-.12.38-.25.54-.38.03,0,.06.01.09.02-.14.1-.28.2-.44.3-.42.25-.89.45-1.39.61l-.12.04q-.56.16-.86.21c.19-.04.37-.08.55-.13h0Z"/>
                      <path class="cls-81" d="m20.28,27.45c.27.15.57.29.88.4.06.02.11.04.17.06.34.11.69.21,1.05.28-.22-.05-.52-.12-.73-.17l-.26-.08c-.07-.02-.13-.04-.2-.06-.06-.02-.12-.04-.18-.06-.33-.12-.64-.26-.92-.42.06.02.12.04.19.06h0Z"/>
                    </g>
                    <path class="cls-81" d="m22.92,27.24c.09.05.18.09.28.13.02,0,.04.01.06.02.24.08.51.13.78.14.02,0,.04,0,.06,0,.27,0,.54-.03.79-.1.02,0,.04-.01.06-.02.17-.05.32-.12.46-.2.07-.04.13-.08.18-.12.01-.01.02-.02.04-.03.13-.12.21-.25.26-.38.09,0,.21.01.3.02-.05.14-.15.28-.29.4-.01.01-.03.02-.04.04-.06.05-.13.1-.21.15-.16.1-.35.17-.54.23-.02,0-.04.01-.07.02-.3.08-.62.12-.94.11-.02,0-.05,0-.07,0-.32-.01-.63-.06-.92-.16-.02,0-.04-.01-.06-.02-.12-.04-.23-.09-.33-.15.07-.03.15-.05.22-.08h0Z"/>
                  </g>
                </g>
                <g class="cls-96">
                  <g class="cls-96">
                    <path class="cls-39" d="m19.61,27.17c-5.33-3.1-4.71-8.65-4.68-8.89.77-6.21,5.79-7.82,6.78-8.09,3.44-.9,5.93.36,6.75.77.06.03.09.05.13.07,4.06,2.42,4.72,5.99,4.76,7.9.03,1.65-.37,3.24-1.18,4.71-1.26,2.28-3.27,3.38-3.29,3.38-.09.02-.22-.04-.32-.05-.72-.13-2.25-.35-4.41-.33-1.64.97-3.28,1.23-4.53.52h0Z"/>
                  </g>
                  <g>
                    <path class="cls-81" d="m25.25,26.65c-.1,0-.23,0-.33,0,.32-.01.65-.03.97-.07,0,.01,0,.02,0,.04-.21.02-.42.04-.63.04h0Zm.95-.08s0-.03,0-.04c1.22-.18,2.4-.57,3.44-1.18,0,.04-.01.07-.02.11-1.04.58-2.21.95-3.43,1.1h0Zm3.7-1.26s.01-.08.02-.12c.28-.17.55-.37.81-.57.68-.55,1.23-1.17,1.64-1.83,0,.06-.02.11-.02.17-.41.66-.96,1.26-1.64,1.8-.26.2-.52.39-.8.56h0Zm2.58-2.59c.01-.06.02-.11.03-.17.42-.74.68-1.53.77-2.34l-.07.46-.02.09c-.12.68-.36,1.34-.72,1.96h0Z"/>
                    <path class="cls-81" d="m28.63,26.99s-.09-.01-.12-.02c.09-.03.18-.06.28-.09-.04.03-.07.07-.11.1-.01,0-.03,0-.04.01h0Zm.26-.1s.08-.07.12-.1c.61-.26.82-.43,1.32-.83l-.26.23c-.16.14-.33.26-.51.37-.21.13-.43.24-.66.34h0Z"/>
                    <path class="cls-81" d="m24.14,26.64c.53-.15,1.07-.33,1.59-.57,0,.01.02.02.02.03-.53.22-1.08.4-1.62.53h0Zm1.91-.66s-.02-.03-.03-.04c1.12-.53,2.19-1.25,3.14-2.15.03.03.05.07.08.1-.97.88-2.06,1.58-3.19,2.08h0Zm3.43-2.31s-.05-.07-.08-.11c.26-.25.5-.52.74-.8.62-.74,1.12-1.52,1.5-2.3.04.05.08.1.12.16-.38.77-.89,1.54-1.52,2.27-.24.27-.49.54-.75.79h0Zm2.4-3.33c-.04-.05-.08-.11-.12-.16.48-1.08.73-2.16.74-3.19.05.06.09.12.13.17-.02,1.03-.27,2.11-.75,3.18h0Zm.75-3.44c-.04-.06-.09-.12-.13-.17-.02-1.02-.28-1.97-.76-2.79.04.05.08.11.12.16.49.83.75,1.78.77,2.8h0Zm-.9-3.01c-.04-.05-.08-.1-.12-.16-.08-.12-.16-.23-.24-.34l.25.33c.04.05.08.11.11.17h0Z"/>
                    <path class="cls-81" d="m24.14,26.64c-.58-.05-1.16-.15-1.74-.29,0-.01,0-.02.01-.04.57.15,1.15.26,1.72.33h0Zm-2.04-.42s0,.03-.01.04c-1.21-.34-2.38-.88-3.42-1.61,0-.04.02-.07.03-.11,1.03.75,2.19,1.32,3.4,1.68h0Zm-3.66-1.88s-.03.08-.04.12c-.28-.21-.55-.43-.8-.67-.68-.63-1.23-1.32-1.64-2.04.01-.06.03-.11.05-.17.41.73.95,1.43,1.63,2.07.25.24.52.47.8.69h0Zm-2.57-3.02c-.02.06-.03.11-.05.17-.53-1-.8-2.04-.82-3.06.02-.06.03-.12.05-.19.02,1.02.3,2.07.82,3.08h0Zm-.82-3.34c-.02.06-.04.12-.06.19,0-.49.08-.97.2-1.44l.15-.51c-.18.57-.28,1.16-.29,1.76h0Z"/>
                    <path class="cls-81" d="m24.14,26.64c-.46-.21-.93-.46-1.38-.76.01-.01.03-.02.04-.03.44.31.89.57,1.34.79h0Zm-1.59-.96s-.03.02-.05.04c-.97-.67-1.9-1.52-2.73-2.54.04-.03.08-.06.13-.09.8,1.03,1.71,1.91,2.65,2.59h0Zm-2.85-2.86s-.09.06-.14.1c-.22-.29-.44-.58-.64-.89-.54-.82-.98-1.65-1.31-2.48.06-.05.13-.09.19-.14.32.84.74,1.68,1.27,2.51.2.31.41.61.62.9h0Zm-2-3.71c-.07.05-.13.09-.2.14-.42-1.14-.64-2.25-.66-3.28.07-.05.14-.1.22-.15.02,1.03.23,2.15.64,3.3h0Zm-.64-3.56c-.07.05-.15.1-.21.15.01-1.01.23-1.93.64-2.69.06-.05.13-.09.2-.14-.4.75-.61,1.67-.62,2.68h0Zm.73-2.87c-.07.05-.13.09-.19.14.26-.42.59-.79.98-1.09l.27-.2c-.43.3-.78.69-1.06,1.15h0Z"/>
                    <path class="cls-81" d="m24.14,26.64c.07-.34.13-.72.2-1.15.02,0,.04,0,.06,0-.08.42-.17.81-.26,1.14h0Zm.3-1.38s-.05,0-.07,0c.14-.94.27-2.05.38-3.3.06,0,.13,0,.19.01-.15,1.24-.32,2.36-.5,3.29h0Zm.54-3.61c-.07,0-.13-.01-.2-.01.03-.35.06-.7.09-1.07.07-.97.13-1.93.18-2.85.1,0,.19.01.29.02-.06.92-.14,1.88-.24,2.84-.04.37-.08.72-.12,1.07h0Zm.37-4.24c-.1,0-.19-.02-.29-.02.06-1.25.08-2.43.08-3.47.11,0,.21.01.32.02,0,1.03-.04,2.21-.11,3.46h0Zm.11-3.73c-.11,0-.21-.02-.32-.02,0-1.01-.04-1.87-.1-2.51.1,0,.2.01.29.02.08.64.12,1.5.13,2.51h0Zm-.15-2.67c-.1,0-.19-.01-.29-.02-.05-.48-.12-.82-.21-.98-.02-.04-.05-.07-.07-.09.07,0,.13,0,.2.01.03.02.06.05.09.1.11.17.21.51.27.99h0Zm-.41-1.1c-.06,0-.13,0-.19-.01,0,0-.01,0-.02,0h.19s.02.02.02.02h0Z"/>
                    <path class="cls-81" d="m24.14,26.64c.34-.28.68-.6,1.02-.97.02,0,.03.01.05.02-.42.41-.63.61-1.07.95h0Zm1.26-1.15s-.04-.02-.06-.03c.71-.81,1.39-1.8,2-2.94.06.02.11.05.16.07-.64,1.12-1.35,2.11-2.1,2.9h0Zm2.27-3.19c-.06-.02-.11-.05-.17-.07.16-.32.32-.65.47-.99.4-.9.71-1.8.95-2.68.08.03.16.07.24.1-.25.87-.59,1.77-1,2.66-.16.34-.32.66-.49.98h0Zm1.58-3.94c-.08-.04-.16-.07-.25-.11.3-1.2.46-2.35.47-3.38.09.04.18.08.27.12,0,1.03-.17,2.18-.49,3.37h0Zm.49-3.63c-.09-.04-.18-.08-.27-.12-.02-1.01-.18-1.9-.49-2.6.08.04.17.07.25.11.32.7.49,1.6.51,2.61h0Zm-.6-2.78c-.08-.04-.16-.07-.24-.1-.26-.52-.62-.93-1.06-1.17-.07-.04-.14-.07-.21-.1h.01s.23.1.23.1c.05.02.11.05.16.08.47.26.84.66,1.12,1.19h0Z"/>
                    <path class="cls-81" d="m24.14,26.64c-.55.12-1.11.18-1.65.21,0-.01-.01-.02-.02-.03.55-.01,1.11-.07,1.67-.17h0Zm-1.97.18s.02.03.02.04c-1.16.01-2.27-.19-3.26-.62-.02-.04-.04-.07-.06-.11,1,.46,2.13.68,3.3.69h0Zm-3.55-.81s.04.07.07.11c-.27-.13-.52-.28-.76-.44-.65-.44-1.17-.97-1.56-1.57-.03-.05-.06-.11-.09-.16.4.61.93,1.15,1.58,1.6.25.17.51.32.77.46h0Zm-2.49-2.28s.04.07.06.11l-.16-.27c.03.06.06.11.1.17h0Z"/>
                    <path class="cls-81" d="m24.14,26.64c-.22-.32-.45-.68-.66-1.08.02,0,.04,0,.06-.01.2.41.4.77.61,1.09h0Zm-.72-1.32s-.05,0-.07.02c-.46-.89-.91-1.96-1.31-3.16.06-.01.12-.03.18-.04.36,1.21.77,2.29,1.2,3.19h0Zm-1.29-3.5c-.07.01-.13.03-.19.04-.11-.34-.21-.68-.31-1.04-.26-.94-.47-1.88-.63-2.78.09-.02.18-.04.28-.06.15.91.34,1.85.58,2.79.09.36.18.71.28,1.04h0Zm-.91-4.16c-.09.02-.19.04-.28.06-.2-1.23-.31-2.4-.32-3.43.1-.02.21-.05.31-.07.01,1.03.11,2.2.29,3.44h0Zm-.29-3.7c-.1.02-.21.05-.31.07,0-1.01.11-1.88.3-2.54.09-.02.19-.04.28-.06-.18.66-.27,1.53-.28,2.54h0Zm.32-2.7c-.09.02-.18.04-.28.06.17-.5.4-.86.68-1.06.08-.05.16-.09.24-.12.06-.01.13-.03.19-.04-.07.03-.15.06-.22.11-.26.19-.47.55-.62,1.04h0Z"/>
                    <path class="cls-81" d="m32.35,22.96c0-.06.02-.11.02-.17.09-.74-.12-1.48-.61-2.17-.04-.05-.08-.1-.12-.16-.41-.52-1-1.01-1.75-1.43-.23-.13-.48-.25-.72-.36-.08-.03-.16-.07-.24-.1-1.09-.45-2.31-.72-3.58-.83-.1,0-.19-.02-.29-.02-1.27-.08-2.56.01-3.77.27-.09.02-.18.04-.28.06-1.02.24-1.98.61-2.8,1.1-.14.08-.27.17-.4.25-.07.05-.13.09-.19.14-.83.61-1.36,1.32-1.6,2.05-.02.06-.03.11-.05.17-.19.73-.1,1.48.29,2.19.03.05.06.11.09.16.02.03.04.06.06.09l-.08-.12-.15-.24s-.04-.07-.06-.11c-.4-.72-.5-1.48-.3-2.23.02-.06.03-.11.05-.17.24-.74.79-1.46,1.63-2.08.06-.05.13-.09.2-.14.13-.09.26-.17.4-.26.83-.5,1.81-.87,2.85-1.12.09-.02.19-.04.28-.06,1.23-.26,2.55-.36,3.84-.27.1,0,.2.01.29.02,1.29.11,2.54.39,3.64.84.08.03.17.07.25.11.26.11.5.24.74.37.77.43,1.36.92,1.78,1.46.04.05.08.1.12.16.5.7.71,1.46.62,2.21,0,.06-.02.11-.03.17-.07.36-.2.72-.4,1.07l-.15.24-.08.12c.25-.39.42-.79.49-1.2h0Z"/>
                    <path class="cls-81" d="m28.64,26.99s.01-.01.02-.02c.04-.03.08-.06.11-.1.48-.43.77-.91.86-1.41,0-.04.01-.08.02-.11.06-.49-.08-.99-.41-1.45-.03-.03-.05-.07-.08-.1-.28-.35-.67-.67-1.17-.96-.15-.09-.32-.17-.48-.24-.05-.02-.11-.05-.16-.07-.73-.3-1.55-.48-2.4-.55-.06,0-.13-.01-.19-.01-.85-.05-1.72,0-2.52.18-.06.01-.12.03-.18.04-.69.16-1.32.41-1.87.74-.09.05-.18.11-.27.17-.04.03-.09.06-.13.09-.55.41-.91.88-1.07,1.37-.01.04-.02.07-.03.11-.13.49-.06.99.2,1.47.02.04.04.07.06.11.28.44.73.86,1.35,1.21-.06-.02-.12-.04-.19-.06-.65-.37-1.13-.8-1.42-1.27-.02-.04-.05-.07-.07-.11-.27-.5-.34-1.02-.21-1.54.01-.04.02-.08.04-.12.17-.51.54-1,1.12-1.44.04-.03.09-.06.14-.1.09-.06.18-.12.28-.18.57-.34,1.25-.6,1.96-.77.06-.02.13-.03.19-.04.85-.18,1.76-.25,2.65-.19.07,0,.13,0,.2.01.89.07,1.75.27,2.51.58.06.02.12.05.17.07.18.08.35.16.51.25.53.3.94.64,1.23,1,.03.04.06.07.08.11.35.48.49,1.01.43,1.52,0,.04-.01.08-.02.12-.09.52-.39,1.02-.9,1.48-.04.03-.08.07-.12.1-.05.04-.1.08-.15.12-.03,0-.06-.01-.09-.02h0Z"/>
                    <path class="cls-81" d="m32.64,17.17c-.04-.06-.09-.12-.13-.17-.46-.58-1.11-1.13-1.96-1.6-.26-.15-.53-.28-.81-.4-.09-.04-.18-.08-.27-.12-1.21-.5-2.59-.81-4-.92-.11,0-.21-.02-.32-.02-1.42-.09-2.86.01-4.21.3-.1.02-.21.05-.31.07-1.14.27-2.21.68-3.13,1.23-.15.09-.3.19-.44.29-.07.05-.15.1-.22.15-.92.69-1.52,1.47-1.79,2.29-.02.06-.04.12-.05.19-.08.3-.11.59-.11.89v-.34s0-.05,0-.05c0-.25.04-.51.11-.76.02-.06.04-.12.06-.19.27-.81.86-1.6,1.79-2.29.07-.05.14-.1.21-.15.14-.1.29-.19.44-.28.92-.55,1.98-.96,3.13-1.23.1-.02.21-.05.31-.07,1.35-.29,2.8-.39,4.21-.3.11,0,.21.01.32.02,1.41.12,2.78.42,4,.92.09.04.18.08.27.12.28.12.55.26.81.4.84.47,1.5,1.02,1.96,1.6.05.06.09.12.13.17.45.63.69,1.3.71,1.98v.05s0,.34,0,.34c.01-.72-.22-1.44-.71-2.11h0Z"/>
                    <path class="cls-81" d="m25.87,26.68s.01-.05.02-.07c0-.01,0-.02,0-.04.02-.16-.03-.31-.13-.46,0-.01-.02-.02-.02-.03-.09-.11-.21-.21-.37-.3-.05-.03-.1-.05-.15-.08-.02,0-.03-.02-.05-.02-.23-.1-.49-.15-.76-.18-.02,0-.04,0-.06,0-.27-.02-.54,0-.8.06-.02,0-.04,0-.06.01-.22.05-.42.13-.59.23-.03.02-.06.04-.08.05-.01,0-.03.02-.04.03-.18.13-.29.28-.34.43,0,.01,0,.02-.01.04-.04.16-.02.31.06.47,0,.01.01.02.02.03.09.13.17.23.43.38-.07.03-.15.05-.22.08-.23-.13-.4-.29-.51-.45,0-.01-.02-.03-.02-.04-.1-.18-.12-.37-.07-.55,0-.01,0-.03.01-.04.06-.18.19-.36.4-.51.02-.01.03-.02.05-.04.03-.02.06-.04.1-.06.21-.12.45-.21.7-.28.02,0,.05-.01.07-.02.3-.07.63-.09.95-.07.02,0,.05,0,.07,0,.32.03.63.1.9.21.02,0,.04.02.06.03.06.03.12.06.18.09.19.11.34.23.44.36,0,.01.02.03.03.04.12.17.18.36.15.55,0,.01,0,.03,0,.04,0,.04-.02.08-.03.12-.09,0-.21-.01-.3-.02h0Z"/>
                    <path class="cls-81" d="m24.95,9.93c-.07,0-.13-.01-.2-.01-.89-.06-1.8,0-2.65.19-.07.01-.13.03-.19.04-.19.05-.38.1-.56.16l.37-.11c.19-.05.44-.11.63-.15.77-.15,1.58-.2,2.38-.15.06,0,.13,0,.19.01.32.03.64.07.96.13.24.05.55.13.79.19l.2.06c-.6-.19-1.25-.31-1.9-.36h0Z"/>
                    <path class="cls-81" d="m31.87,14.1c-.04-.05-.08-.11-.12-.16-.42-.53-1.02-1.03-1.78-1.46-.24-.13-.48-.26-.74-.37-.08-.04-.16-.07-.25-.11-1.1-.45-2.36-.73-3.64-.84-.1,0-.19-.01-.29-.02-1.29-.08-2.6.01-3.84.27-.09.02-.19.04-.28.06-1.04.25-2.01.62-2.85,1.12-.14.08-.28.17-.4.26-.07.05-.13.09-.2.14-.49.39-.91.74-1.32,1.42l.22-.36c.29-.44.69-.86,1.21-1.25.06-.05.13-.09.19-.14.13-.09.26-.17.4-.25.82-.49,1.77-.86,2.8-1.1.09-.02.18-.04.28-.06,1.21-.26,2.5-.35,3.77-.27.1,0,.19.01.29.02,1.26.11,2.49.38,3.58.83.08.03.16.07.24.1.25.11.49.23.72.36.75.42,1.34.91,1.75,1.43.04.05.08.1.12.16.03.04.06.09.09.13l.22.36-.18-.27h0Z"/>
                  </g>
                </g>
                <g class="cls-96">
                  <path class="cls-23" d="m19.37,27.03c.07.04.17.1.24.14-.03-.02-.05-.03-.08-.05-2.49-1.5-2.45-6.3.09-10.73,1.25-2.17,2.86-3.84,4.48-4.81-1.62.97-3.23,2.64-4.48,4.81-2.54,4.43-2.58,9.23-.09,10.73.03.02.05.03.08.05,5.14,2.71,9.17.03,10.28-.86,2.88-2.29,4.12-6.23,3.08-9.79-.68-2.35-2.16-4.19-4.39-5.49-.03-.02-.06-.04-.1-.05-5.51-2.79-9.67.52-10.13.91-4.6,3.9-3.44,8.79-2.98,10.2.39,1.18,1.42,3.39,3.99,4.94h0Z"/>
                  <g>
                    <path class="cls-81" d="m33.2,20.76l.02-.09.07-.46c.03-.21.04-.41.04-.62,0,.06-.02.13-.03.19,0,.33-.04.66-.1.98h0Zm.1-1.24c.01-.06.02-.13.03-.19-.03-1.02-.3-2.05-.83-3.02,0,.06-.02.11-.03.17.53.98.8,2.01.83,3.04h0Zm-.97-3.29c.01-.06.02-.11.03-.17-.45-.75-1.06-1.47-1.82-2.1-.2-.17-.42-.33-.63-.48,0,.04-.01.08-.02.12.22.16.43.32.63.5.76.65,1.37,1.38,1.82,2.14h0Zm-2.72-2.82s.01-.08.02-.11c-1.05-.69-2.23-1.17-3.46-1.44,0,.01,0,.03,0,.04,1.22.3,2.4.81,3.45,1.51h0Zm-3.76-1.59s0-.02,0-.04c-.58-.11-1.17-.18-1.75-.21.58.04,1.17.12,1.75.24h0Z"/>
                    <path class="cls-81" d="m30.06,26.18l.26-.23c.33-.32.35-.34.75-.89-.05.05-.11.1-.17.14-.23.37-.51.69-.84.97h0Zm.95-1.17c.06-.05.12-.1.17-.15.44-.78.67-1.72.68-2.73-.06.05-.12.11-.19.16-.01,1.02-.24,1.94-.67,2.72h0Zm.67-2.98c.06-.05.13-.11.19-.16-.02-1.03-.26-2.13-.7-3.25-.06.05-.11.1-.17.15.43,1.12.66,2.23.68,3.26h0Zm-.8-3.55c.06-.05.11-.1.17-.15-.38-.88-.89-1.76-1.54-2.6-.17-.23-.35-.44-.53-.66-.04.03-.08.07-.12.1.18.22.35.44.52.67.63.86,1.13,1.75,1.5,2.64h0Zm-2.24-3.56s.08-.06.11-.1c-.89-.98-1.88-1.78-2.91-2.4-.01.01-.03.02-.04.04,1.01.64,1.98,1.46,2.84,2.46h0Zm-3.1-2.62s.02-.02.04-.03c-.49-.27-.98-.5-1.47-.69.48.2.96.44,1.44.72h0Z"/>
                    <path class="cls-81" d="m23.8,28.34h.19s0,0,0,0c-.06,0-.13,0-.19,0,0,0,0,0,.01,0h0Zm-.03-.02c.07,0,.14,0,.2,0,0-.02-.02-.07-.02-.13-.02-.18-.04-.5-.05-.94-.1,0-.19,0-.29,0,.03.44.06.76.11.94.02.07.03.11.05.13h0Zm-.17-1.24c.1,0,.2,0,.29,0-.02-.64-.03-1.5-.03-2.51-.11,0-.22,0-.32,0,0,1.01.02,1.87.06,2.51h0Zm-.06-2.78c.11,0,.22,0,.32,0,0-1.04,0-2.21.01-3.46-.1,0-.2,0-.29,0-.03,1.25-.04,2.43-.04,3.46h0Zm.05-3.79c.1,0,.19,0,.29,0,.01-1,.03-2.04.05-3.09,0-.28.01-.56.02-.82-.07,0-.14,0-.2,0-.01.27-.03.54-.04.82-.05,1.05-.08,2.09-.11,3.09h0Zm.16-4.24c.06,0,.13,0,.19,0,.03-1.25.06-2.37.09-3.32-.02,0-.05,0-.07,0-.08.94-.15,2.06-.21,3.31h0Zm.23-3.55s.04,0,.06,0c.02-.43.03-.81.05-1.15-.04.34-.07.73-.11,1.15h0Z"/>
                    <path class="cls-81" d="m20.94,27.78l.22.08c-.13-.04-.25-.11-.37-.18-.35-.23-.63-.6-.84-1.07-.09-.03-.17-.06-.26-.09.45.92.97,1.14,1.25,1.26h0Zm-1.33-1.44c.09.03.17.06.26.09-.27-.68-.41-1.57-.43-2.58-.1-.03-.19-.07-.29-.1.01,1.01.16,1.9.45,2.59h0Zm-.45-2.85c.09.03.19.07.29.1,0-1.03.15-2.19.41-3.4-.09-.03-.18-.06-.26-.09-.28,1.21-.43,2.36-.44,3.39h0Zm.51-3.7c.09.03.17.06.26.09.23-.96.53-1.96.92-2.95.1-.27.21-.52.32-.78-.06-.02-.12-.04-.18-.06-.12.25-.23.51-.34.77-.41.98-.73,1.97-.97,2.93h0Zm1.46-4c.06.02.11.04.17.06.53-1.17,1.13-2.2,1.75-3.04-.02,0-.04-.01-.06-.02-.66.83-1.29,1.85-1.86,3.01h0Zm2.03-3.22s.04.01.06.02c.29-.38.59-.72.89-1.02-.32.29-.63.62-.94,1h0Z"/>
                    <path class="cls-81" d="m31.62,13.73l-.25-.33c-.38-.48-.85-.91-1.42-1.25-.19-.11-.38-.21-.58-.31.03.04.06.07.08.11.2.1.4.2.59.32.64.4,1.17.89,1.57,1.46h0Zm-2.41-1.88s-.05-.07-.08-.1c-.96-.39-2.03-.54-3.15-.47.01.01.02.03.03.04,1.13-.05,2.23.12,3.2.53h0Zm-3.49-.52s-.02-.02-.03-.03c-.53.05-1.06.15-1.6.29.54-.13,1.09-.22,1.62-.26h0Z"/>
                    <path class="cls-81" d="m26.59,28.01c.06-.02.13-.04.19-.05.13-.04.25-.1.37-.19.31-.22.56-.58.75-1.04-.09.03-.18.05-.27.08-.17.46-.41.81-.69,1.03-.11.08-.22.14-.34.18h0Zm1.09-1.38c.09-.03.18-.05.27-.08.24-.68.36-1.55.37-2.57-.1.03-.2.06-.3.09,0,1.01-.12,1.89-.34,2.56h0Zm.34-2.82c.1-.03.2-.06.3-.09-.01-1.03-.14-2.19-.38-3.41-.09.03-.18.05-.27.08.23,1.22.35,2.39.36,3.42h0Zm-.42-3.74c.09-.03.18-.05.27-.08-.21-.97-.49-1.97-.84-2.97-.09-.27-.19-.53-.29-.78-.06.02-.13.04-.19.05.09.26.18.52.27.79.33,1.01.59,2.02.78,2.99h0Zm-1.16-4.09c.06-.02.12-.03.18-.05-.48-1.19-1.02-2.23-1.58-3.09-.02,0-.04.01-.07.02.52.87,1.02,1.93,1.47,3.13h0Zm-1.6-3.35s.04-.01.06-.02c-.27-.39-.53-.74-.8-1.04.25.31.5.66.74,1.06h0Z"/>
                    <path class="cls-81" d="m15.35,16.23l-.15.51c.13-.51.34-1.01.61-1.48.02-.06.03-.11.05-.17-.21.36-.38.74-.51,1.14h0Zm.65-1.36c-.02.06-.03.11-.05.17.44-.7,1.04-1.33,1.8-1.88.2-.14.41-.28.62-.4.01-.04.02-.08.03-.12-.21.12-.42.25-.62.39-.75.53-1.34,1.15-1.78,1.84h0Zm2.67-2.37s-.02.07-.03.11c1.04-.55,2.21-.89,3.42-1.01,0-.01,0-.03.01-.04-1.21.1-2.37.41-3.4.94h0Zm3.71-.96s0,.02-.01.04c.57-.04,1.15-.04,1.73.01-.58-.06-1.15-.08-1.72-.05h0Z"/>
                    <path class="cls-81" d="m18.85,11.53l-.27.2c.14-.11.29-.21.45-.3.16-.09.33-.17.5-.23.05-.03.09-.06.14-.1-.17.06-.33.14-.48.22-.12.06-.22.13-.33.21h0Zm1.02-.5s-.09.06-.13.09c.83-.27,1.76-.29,2.73-.08.02-.01.03-.02.05-.03-.94-.23-1.84-.23-2.65.02h0Zm2.89.04s-.03.02-.04.03c.61.15,1.08.35,1.38.48-.45-.22-.9-.39-1.34-.51h0Z"/>
                    <path class="cls-81" d="m24.89,9.91h-.19c-.11-.02-.24.22-.37.67.02,0,.05,0,.07,0,.17-.45.34-.69.49-.68h0Zm-.53.81s-.04,0-.06,0c-.07.24-.13.54-.2.87.09-.34.17-.63.26-.87h0Z"/>
                    <path class="cls-81" d="m27.86,10.67l-.23-.1h-.01c-.05-.03-.1-.05-.15-.06.06.02.12.05.17.07.08.02.15.05.22.09h0Zm-.39-.13c-.05-.02-.11-.05-.16-.07-.61-.15-1.3-.02-2.01.33.02,0,.04.02.06.03.75-.34,1.47-.44,2.11-.28h0Zm-2.31.38s-.03-.01-.05-.02c-.45.25-.79.51-1.02.69.48-.36.84-.55,1.07-.67h0Z"/>
                    <path class="cls-81" d="m16.03,23.56l.16.27s.02.04.03.06c-.5-.84-.76-1.81-.79-2.83-.04-.06-.07-.12-.1-.18.02.95.25,1.86.7,2.68h0Zm-.7-2.94c.03.06.07.12.11.18.02-1.03.27-2.1.77-3.15-.03-.05-.07-.11-.1-.16-.5,1.04-.76,2.11-.78,3.13h0Zm.91-3.4c.03.05.06.11.09.16.42-.83.99-1.64,1.71-2.39.19-.2.39-.4.59-.58-.02-.04-.05-.07-.07-.11-.21.18-.41.37-.6.57-.73.74-1.3,1.54-1.73,2.36h0Zm2.59-3.15s.04.07.06.11c.99-.85,2.1-1.52,3.26-2,0-.01-.02-.03-.02-.04-1.17.45-2.29,1.1-3.3,1.93h0Zm3.6-2.04s.01.02.02.03c.55-.21,1.1-.37,1.65-.49-.56.11-1.12.26-1.67.45h0Z"/>
                    <path class="cls-81" d="m22.19,10.08c-.06.01-.12.03-.18.04.4-.08.84.12,1.31.54.02,0,.05-.01.07-.02-.42-.44-.83-.64-1.19-.57h0Zm1.3.69s-.04,0-.06.01c.22.22.44.49.66.8-.2-.32-.4-.59-.6-.82h0Z"/>
                    <g>
                      <path class="cls-81" d="m16.34,24.08l.08.12c.42.63,1.07,1.22,1.96,1.72-.04-.06-.07-.12-.1-.18-.95-.53-1.63-1.16-2.05-1.84-.01-.02-.02-.04-.03-.06l.15.24h0Z"/>
                      <path class="cls-81" d="m18.37,25.91c.41.23.85.43,1.31.6.09.03.17.06.26.09,1.13.38,2.39.6,3.66.64.1,0,.19,0,.29,0,1.27.02,2.55-.13,3.73-.45.09-.03.18-.05.27-.08.78-.23,1.51-.54,2.16-.93.31-.19.59-.38.84-.59.06-.05.11-.1.17-.14.32-.29.59-.59.79-.91l.08-.12.15-.24c-.22.37-.52.73-.9,1.07-.06.05-.11.1-.17.15-.25.21-.54.41-.86.6-.66.39-1.4.71-2.19.95-.09.03-.18.05-.27.08-1.2.33-2.5.48-3.79.46-.1,0-.2,0-.29,0-1.29-.04-2.57-.26-3.73-.65-.09-.03-.18-.06-.26-.09-.47-.17-.92-.38-1.34-.61.03.06.07.12.1.18h0Z"/>
                    </g>
                    <path class="cls-81" d="m21.66,28.01c.22.06.51.13.73.17.45.09.93.14,1.4.15.06,0,.13,0,.19,0,.66,0,1.32-.05,1.94-.17.54-.12.56-.13.86-.21l.12-.04s-.09.03-.13.04c-.06.02-.12.04-.19.05-.83.22-1.72.33-2.62.32-.07,0-.13,0-.2,0-.82-.03-1.63-.16-2.37-.39l.26.08h0Z"/>
                    <g>
                      <path class="cls-81" d="m14.89,18.99v.34c.01.53.16,1.05.44,1.55.03.06.07.12.1.18.56.8,1.02,1.29,2.25,2.02,0-.09,0-.17,0-.26-1.04-.58-1.79-1.28-2.25-2.02-.04-.06-.07-.12-.11-.18-.3-.55-.45-1.12-.44-1.69v.05h0Z"/>
                      <path class="cls-81" d="m17.69,23.08c.46.26.95.48,1.47.67.1.03.19.07.29.1,1.27.43,2.67.67,4.09.72.11,0,.21,0,.32,0,1.42.02,2.85-.15,4.17-.51.1-.03.2-.06.3-.09.87-.26,1.69-.61,2.41-1.04.35-.21.66-.43.94-.66.07-.05.13-.11.19-.16.81-.72,1.28-1.53,1.43-2.35.01-.06.02-.13.03-.19.01-.1.02-.21.02-.32v-.4c0,.15,0,.3-.02.45,0,.06-.02.13-.03.19-.15.82-.62,1.63-1.43,2.35-.06.05-.12.11-.19.16-.28.23-.59.45-.94.66-.72.43-1.54.78-2.41,1.04-.1.03-.2.06-.3.09-1.31.36-2.74.53-4.17.51-.11,0-.22,0-.32,0-1.42-.05-2.83-.29-4.09-.72-.1-.03-.19-.07-.29-.1-.52-.19-1.01-.41-1.47-.67,0,.09,0,.18,0,.26h0Z"/>
                    </g>
                    <g>
                      <path class="cls-81" d="m21.71,10.19l-.37.11c-.51.16-.98.37-1.4.62-.1.06-.19.12-.28.18-.05.03-.09.06-.14.1-.58.43-.96.93-1.12,1.44-.01.04-.02.08-.03.12-.14.51-.07,1.04.21,1.54.02.04.04.07.07.11.29.47.76.9,1.42,1.27.06-.1.12-.19.19-.28-.63-.35-1.08-.77-1.35-1.21-.02-.04-.04-.07-.06-.11-.26-.47-.33-.98-.2-1.47.01-.04.02-.08.03-.11.16-.49.52-.96,1.07-1.37.04-.03.08-.06.13-.09.08-.06.17-.12.27-.17.55-.33,1.19-.57,1.88-.74.06-.01.12-.03.18-.04.05,0,.1-.02.15-.03-.19.04-.44.09-.63.15h0Z"/>
                      <path class="cls-81" d="m20.06,15.67c.29.16.6.3.92.42.06.02.12.04.18.06.8.27,1.68.42,2.58.45.07,0,.13,0,.2,0,.89.01,1.79-.09,2.62-.32.06-.02.13-.04.19-.05.55-.16,1.06-.38,1.52-.65.22-.13.42-.27.59-.41.04-.03.08-.07.12-.1.51-.45.81-.96.9-1.48,0-.04.01-.08.02-.12.06-.52-.08-1.04-.43-1.53-.03-.04-.05-.07-.08-.11-.29-.37-.7-.71-1.23-1.01-.16-.09-.33-.18-.51-.25-.06-.03-.11-.05-.17-.07-.2-.08-.4-.15-.61-.22l-.2-.06c-.24-.06-.55-.14-.79-.19.51.1.99.24,1.44.42.05.02.11.05.16.07.17.08.33.16.49.24.51.28.9.61,1.17.96.03.03.05.07.08.1.33.46.47.96.41,1.46,0,.04-.01.08-.02.11-.09.49-.38.98-.86,1.41-.04.03-.07.07-.11.1-.17.14-.36.27-.56.4-.43.26-.92.47-1.45.62-.06.02-.12.03-.18.05-.79.21-1.65.32-2.5.3-.06,0-.13,0-.19,0-.85-.03-1.7-.17-2.46-.43-.06-.02-.12-.04-.17-.06-.31-.11-.61-.25-.88-.4-.06.09-.13.19-.19.28h0Z"/>
                    </g>
                    <g>
                      <path class="cls-81" d="m16.16,14.42c-.1.19-.23.46-.3.67-.02.06-.04.11-.05.17-.2.74-.1,1.51.3,2.23.03.05.06.11.1.16.42.68,1.1,1.31,2.05,1.84.03-.1.06-.2.1-.3-.93-.52-1.61-1.14-2.02-1.81-.03-.05-.06-.11-.09-.16-.39-.71-.49-1.46-.29-2.19.01-.06.03-.11.05-.17.09-.27.22-.54.39-.8l-.22.36h0Z"/>
                      <path class="cls-81" d="m18.26,19.49c.63.33.73.38,1.34.61.09.03.17.06.26.09,1.15.39,2.43.61,3.73.65.1,0,.2,0,.29,0,1.3.02,2.6-.14,3.79-.46.09-.02.18-.05.27-.08.79-.24,1.54-.55,2.19-.95.32-.19.6-.39.86-.6.06-.05.12-.1.17-.15.73-.66,1.17-1.39,1.3-2.14.01-.06.02-.11.03-.17.02-.45.06-1.07-.44-1.94l-.22-.36c.43.65.61,1.35.52,2.04,0,.06-.02.11-.03.17-.13.73-.56,1.46-1.28,2.1-.05.05-.11.1-.17.15-.25.21-.53.4-.84.59-.65.39-1.38.7-2.16.93-.09.03-.18.05-.27.08-1.18.32-2.46.47-3.73.45-.1,0-.19,0-.29,0-1.27-.04-2.53-.26-3.66-.64-.09-.03-.17-.06-.26-.09-.46-.17-.91-.37-1.32-.6-.03.1-.07.2-.1.3h0Z"/>
                    </g>
                    <path class="cls-81" d="m22.66,12.64c.1.06.21.11.33.15.02,0,.04.02.06.02.28.1.6.15.92.16.02,0,.05,0,.07,0,.32,0,.64-.03.94-.11.02,0,.05-.01.07-.02.2-.06.38-.14.54-.23.08-.05.15-.1.21-.15.01-.01.03-.02.04-.04.18-.16.29-.34.32-.53,0-.01,0-.03,0-.04.02-.19-.03-.37-.15-.55,0-.01-.02-.03-.03-.04-.1-.13-.25-.25-.44-.36-.06-.03-.12-.06-.18-.09-.02,0-.04-.02-.06-.03-.27-.11-.58-.18-.9-.21-.02,0-.05,0-.07,0-.32-.02-.64,0-.95.07-.02,0-.05.01-.07.02-.26.06-.5.15-.7.28-.03.02-.07.04-.1.06-.02.01-.03.02-.05.03-.21.15-.34.33-.4.51,0,.01,0,.03-.01.04-.05.18-.02.37.07.55,0,.01.01.03.02.04.11.16.2.27.51.45.07-.06.15-.13.22-.19-.2-.11-.34-.24-.43-.38,0-.01-.01-.02-.02-.03-.08-.15-.1-.31-.06-.47,0-.01,0-.02.01-.04.05-.15.16-.3.34-.43.01,0,.03-.02.04-.03.03-.02.05-.04.08-.05.17-.1.38-.18.59-.23.02,0,.04,0,.06-.01.26-.05.53-.07.8-.06.02,0,.04,0,.06,0,.27.02.53.08.76.18.02,0,.03.01.05.02.05.02.11.05.15.08.16.09.28.19.37.3,0,.01.02.02.03.03.1.15.15.31.13.46,0,.01,0,.02,0,.04-.03.16-.12.31-.27.45-.01.01-.02.02-.04.03-.05.04-.11.09-.18.13-.14.08-.29.15-.46.2-.02,0-.04.01-.06.02-.25.07-.52.1-.79.1-.02,0-.04,0-.06,0-.27,0-.54-.05-.78-.14-.02,0-.04-.01-.06-.02-.1-.04-.19-.08-.28-.13-.07.06-.15.12-.22.19h0Z"/>
                  </g>
                </g>
              </g>
              <g class="cls-96">
                <g class="cls-96">
                  <g class="cls-96">
                    <path class="cls-65" d="m23.82,10.02v1.59s.01.01.01.02v-1.59s-.01-.01-.01-.02h0Z"/>
                    <path class="cls-44" d="m23.83,10.04v1.59s.03.05.05.07v-1.59s-.05-.05-.05-.07h0Z"/>
                    <path class="cls-88" d="m23.87,10.11v1.59s.06.04.09.06c.08.05.2.07.31.06v-1.59c-.13,0-.24-.02-.32-.06-.03-.02-.06-.04-.08-.06h0Z"/>
                    <path class="cls-44" d="m24.25,10.23v1.59c.06,0,.11,0,.15-.02v-1.59c-.06,0-.1.01-.15.02h0Z"/>
                    <path class="cls-65" d="m24.39,10.21v1.59c.06,0,.1-.03.14-.05.08-.04.12-.1.12-.15v-1.59c-.01.05-.05.11-.13.15-.04.02-.08.04-.13.05h0Z"/>
                  </g>
                </g>
                <path class="cls-21" d="m23.94,9.87c-.16.08-.16.22,0,.3.16.08.42.08.58,0,.16-.08.16-.22,0-.3-.16-.08-.42-.08-.57,0Z"/>
              </g>
              <g>
                <g class="cls-96">
                  <polygon class="cls-21" points="18.32 23.02 16.68 22.07 15.51 22.75 17.14 23.7 18.32 23.02"/>
                </g>
                <g class="cls-96">
                  <g class="cls-96">
                    <g class="cls-96">
                      <path class="cls-65" d="m25.68,8.91l-1.63-.95c-1.18.68-2.3,1.6-3.32,2.69l1.63.95c1.02-1.09,2.14-2.01,3.32-2.69h0Z"/>
                      <path class="cls-44" d="m22.35,11.61l-1.63-.95c-.92.98-1.76,2.1-2.48,3.29l1.63.95c.72-1.19,1.56-2.31,2.48-3.29h0Z"/>
                      <path class="cls-88" d="m19.87,14.89l-1.63-.95c-1.68,2.77-2.73,5.95-2.73,8.8l1.63.95c0-2.85,1.04-6.03,2.73-8.8h0Z"/>
                    </g>
                  </g>
                  <path class="cls-57" d="m25.68,8.91c-4.72,2.73-8.55,9.36-8.53,14.78l1.17-.68c-.01-4.68,3.29-10.4,7.36-12.76v-1.35Z"/>
                </g>
              </g>
              <path class="cls-57" d="m18.32,23.02c.01,3.43,1.8,5.36,4.36,5.23v1.46c-3.22.44-5.52-1.82-5.53-6.01l1.17-.68Z"/>
              <path class="cls-88" d="m17.14,23.7l-1.63-.95c0,1.13.17,2.12.48,2.96l1.63.95c-.31-.83-.48-1.83-.48-2.96h0Z"/>
            </g>
            <g class="cls-96">
              <g class="cls-96">
                <g class="cls-96">
                  <path class="cls-65" d="m23.71,8.1v.91s.01.01.01.02v-.91s-.01-.01-.01-.02h0Z"/>
                  <path class="cls-44" d="m23.71,8.12v.91s.03.05.05.07v-.91s-.05-.05-.05-.07h0Z"/>
                  <path class="cls-88" d="m23.75,8.19v.91s.06.04.09.06c.09.05.2.07.31.06v-.91c-.13,0-.24-.02-.32-.06-.03-.02-.06-.04-.08-.06h0Z"/>
                  <path class="cls-44" d="m24.14,8.31v.91c.06,0,.11,0,.15-.02v-.91c-.06.01-.1.02-.15.02h0Z"/>
                  <path class="cls-65" d="m24.27,8.29v.91c.06,0,.1-.03.14-.05.08-.04.12-.1.12-.15v-.91c-.01.05-.05.11-.13.15-.04.02-.08.04-.13.05h0Z"/>
                </g>
              </g>
              <path class="cls-21" d="m23.83,7.95c-.16.08-.16.22,0,.3.16.08.42.08.58,0,.16-.08.16-.22,0-.3-.16-.08-.41-.08-.57,0Z"/>
            </g>
          </g>
          <g class="cls-96">
            <polygon class="cls-49" points="28.01 17.11 28.01 17.37 28.37 17.58 28.37 17.32 28.01 17.11"/>
            <polygon class="cls-50" points="28.37 17.32 28.37 17.58 32.56 18.56 32.56 18.3 28.37 17.32"/>
            <polygon class="cls-80" points="28.37 17.32 30.71 18.68 32.56 18.3 28.37 17.32"/>
            <polygon class="cls-64" points="28.37 17.32 28.37 17.58 30.71 18.94 30.71 18.68 28.37 17.32"/>
            <polygon class="cls-58" points="30.71 18.68 30.71 18.94 32.56 18.56 32.56 18.3 30.71 18.68"/>
            <polygon class="cls-90" points="28.01 17.11 28.37 17.32 32.56 18.3 30.71 18.68 30.86 18.77 33.12 18.3 28.01 17.11"/>
            <polygon class="cls-52" points="30.86 18.77 30.86 19.03 33.12 18.56 33.12 18.3 30.86 18.77"/>
            <polygon class="cls-49" points="30.71 18.68 30.71 18.94 30.86 19.03 30.86 18.77 30.71 18.68"/>
            <polygon class="cls-67" points="28.37 17.32 28.37 17.58 30.04 20.01 30.04 19.75 28.37 17.32"/>
            <polygon class="cls-76" points="30.04 19.75 30.04 20.01 30.71 18.94 30.71 18.68 30.04 19.75"/>
            <polygon class="cls-82" points="28.01 17.11 30.05 20.07 30.86 18.77 30.71 18.68 30.04 19.75 28.37 17.32 28.01 17.11"/>
            <polygon class="cls-48" points="28.37 17.32 30.04 19.75 30.71 18.68 28.37 17.32"/>
            <polygon class="cls-77" points="30.05 20.07 30.05 20.33 30.86 19.03 30.86 18.77 30.05 20.07"/>
            <polygon class="cls-68" points="28.01 17.11 28.01 17.37 30.05 20.33 30.05 20.07 28.01 17.11"/>
          </g>
        </g>
        <g>
          <g>
            <g>
              <g>
                <path class="cls-45" d="m39.9,14.08s0,0,0,0c-.06-.05-.13-.09-.21-.11-.23-.05-.4.17-.53.32-.03.04-.07.08-.11.12-.2.19-.34.38-.44.56-.22.37-.36,1.04-.34.98,0,0-.64.23-.87.04-.1.34-.13.68-.03,1.01.02.05.18.1.21.11.85.23,1.47-1.3,1.83-1.66.14-.14.27-.29.38-.46.08-.13.2-.3.24-.45.04-.16-.01-.34-.13-.45Z"/>
                <path class="cls-79" d="m38.28,15.98c.17-.21.56-1.64.68-1.72.01,0-.2-.21-.33-.32,0,0,0,.01-.01.02-.02.04-.06.08-.08.12-.42.79-.84,1.21-1.14,1.94.23.18.89-.03.89-.04Z"/>
                <path class="cls-79" d="m38.74,13.72c.08-.1.16-.15.15-.1.02-.03.04-.06.07-.09.02-.03.05-.07.08-.1.05-.07.11-.15.16-.22.11-.14.23-.24.36-.22.1.02.15.16.17.22.02.09.03.18.03.27,0,.09-.03.17-.06.24-.02.05-.05.1-.09.15-.07.09-.42.3-.64.39-.03-.03-.4-.16-.41-.2-.02-.11.04-.24.19-.34Z"/>
              </g>
              <path class="cls-92" d="m39.75,13.1c-.01-.05-.05-.11-.15-.13-.12-.02-.32.14-.49.3,0-.03.01-.06.02-.08.01-.05.02-.12.02-.18-.1-.05-.16.26-.19.32-.02.04-.09.2-.11.25h0c-.05.07-.09.13-.11.15,0,.12.05.25.23.24.44-.03.23-.51.49-.57-.02.12.01.36-.05.58.11-.07.2-.15.28-.24.03-.08.05-.16.06-.24,0-.09.03-.3,0-.39Z"/>
            </g>
            <path class="cls-42" d="m40.18,19.58c.01.06.02.11.02.17,0,.03,0,.05.01.08,0,.03,0,.05,0,.07v.16s.03.16.03.16c.01.21.02.41.03.62,0,.21,0,.42.02.63,0,.11,0,.21.01.32,0,.11.01.21.02.32,0,.11.01.21.02.32,0,.11.02.21.03.32.01.11.02.22.03.32.01.11.03.22.04.32.02.11.03.22.05.32.02.11.04.21.07.32.02.11.05.21.08.32.03.11.06.21.09.32l-.02-.06.12.29c.04.1.08.19.13.28.04.09.08.19.12.28.04.09.08.19.11.29.03.1.06.19.08.29.03.1.04.2.06.3.02.1.03.2.05.3.01.1.03.2.04.3.01.1.02.2.03.3,0,.1.01.2.02.3,0,.1,0,.2,0,.3,0,.1,0,.2,0,.3,0,.1,0,.2,0,.29,0,.1,0,.2-.01.3,0,.1-.01.2-.03.29,0,.1-.02.19-.04.3-.03.17-.18.28-.35.26-.14-.02-.24-.13-.26-.26h0s-.08-.56-.08-.56c-.03-.19-.06-.37-.09-.55l-.05-.27c-.02-.09-.04-.18-.05-.27-.02-.09-.04-.18-.06-.27-.02-.09-.04-.18-.06-.27-.02-.09-.04-.18-.07-.27-.02-.09-.05-.17-.07-.26-.05-.17-.1-.34-.14-.52l-.06-.26c-.02-.09-.04-.17-.07-.26-.03-.08-.05-.17-.09-.25-.03-.08-.07-.16-.11-.23h0s-.02-.06-.02-.06l-.27-.65c-.09-.22-.18-.44-.26-.66-.04-.11-.08-.22-.12-.33-.04-.11-.08-.22-.12-.34-.04-.11-.07-.23-.11-.34-.03-.11-.07-.23-.1-.35-.03-.12-.06-.23-.08-.35-.03-.12-.05-.24-.07-.36-.02-.12-.04-.24-.05-.36,0-.06-.02-.12-.02-.18l-.02-.18v-.18s-.01-.18-.01-.18c0-.12,0-.24.02-.37,0-.06.01-.12.02-.18,0-.06.01-.12.03-.18,0-.03.01-.06.02-.09,0-.03.01-.06.02-.09.01-.06.03-.11.05-.17.13-.4.57-.62.97-.49.28.09.47.33.52.6Z"/>
            <path class="cls-63" d="m41.5,29.92s0,0,0,0c0-.06,0-.87,0-.9,0,0-.22-.06-.74-.19-.1.28-.29.53-.5.74-.26.26-.54.47-.75.61-.16.11-.38.15-.43.36-.06.23.18.41.59.37.14-.01.21-.03.37-.08.24-.07.29-.14.47-.22.18-.08.5-.2.65-.27.23-.11.33-.29.33-.4Z"/>
            <path class="cls-45" d="m41.52,29.83h0c0,.12-.1.29-.33.41-.15.07-.48.18-.66.26-.18.08-.22.15-.47.23-.02,0-.04.01-.06.02-.12.04-.18.06-.3.07-.41.04-.67-.07-.61-.3.05-.19.24-.3.4-.39.02-.01.04-.02.05-.03.21-.14.49-.35.75-.61.21-.21.39-.46.5-.74.44-.22.74.02.74.19,0,.17,0,.85,0,.9Z"/>
            <g>
              <rect class="cls-37" x="38.74" y="13" width="1.17" height=".67" transform="translate(1.36 30.15) rotate(-42.62)"/>
              <polygon class="cls-35" points="39.15 13.15 38.84 13.43 39.15 13.76 39.15 13.15"/>
              <polygon class="cls-35" points="39.27 13.03 39.27 13.79 39.38 13.69 39.38 12.93 39.27 13.03"/>
            </g>
            <path class="cls-45" d="m41.7,28.01c-.08-.27-.32-.23-.55-.16-.11.03-.28.16-.39.16-.08,0-.14-.11-.21-.12-.02,0-.03,0-.03-.01,0,0,0,0-.02.02-.05.04-.08.23-.09.29-.02.09,0,.16.02.23-.01.05-.02.1-.03.16-.02.19-.09.62,0,.77.06.12.18-.12.23,0,.27-.02.54-.12.8-.18.08-.02.09-.01.12-.07.04-.07.02-.26.04-.35.03-.13.11-.27.11-.4,0-.04-.02-.09-.02-.12,0-.08.04-.14.01-.23Z"/>
            <path class="cls-32" d="m40.66,17.89c-.53-.24-1.12-.02-1.53.46-.39.45.74,1.97.74,1.97.08.04.15.09.23.13.43.24.86.46,1.05.5.29.06.5-.05.71-.24.46-.4.42-2.09-1.2-2.82Z"/>
            <path class="cls-42" d="m40.1,20.45c-.08-.04-.16-.09-.23-.13h0c-.38-.22-.73-.43-.89-.54,0,0-.01,0-.02-.01-.19-.14-.28-.25-.27-.34.04-.43.21-.8.44-1.08.03.65.46,1.72.97,2.11Z"/>
            <path class="cls-32" d="m42.66,29.49v-.08c-.01-.05-.02-.1-.02-.15-.01-.1-.03-.2-.05-.3-.02-.1-.04-.2-.06-.3-.02-.1-.05-.19-.08-.29-.03-.1-.06-.19-.09-.29-.03-.09-.06-.19-.1-.29-.03-.09-.07-.19-.11-.28-.04-.09-.08-.18-.12-.28-.04-.09-.08-.18-.13-.27-.04-.09-.09-.18-.14-.27-.05-.09-.1-.18-.15-.26-.05-.09-.1-.17-.16-.26-.11-.17-.23-.33-.36-.49-.06-.08-.13-.15-.2-.23-.02-.02-.04-.04-.06-.06,0-.05.02-.09.03-.14l.06-.33c.04-.22.08-.43.12-.65.04-.21.08-.43.13-.64l.07-.32.07-.31c.02-.1.05-.21.08-.31.03-.1.05-.21.08-.31.03-.1.06-.2.09-.3l.09-.3c.06-.2.12-.4.17-.6l.04-.15.03-.15s.01-.05.02-.07c0-.02,0-.05.02-.08.01-.06.02-.11.03-.17.04-.27-.06-.55-.29-.73-.34-.26-.82-.19-1.08.14-.03.05-.07.09-.1.14-.01.02-.03.05-.05.08-.02.03-.03.06-.05.08-.03.06-.06.11-.09.17-.03.06-.05.11-.08.17-.05.11-.09.23-.13.34l-.06.17-.05.18c-.03.12-.06.24-.08.35-.02.12-.05.24-.07.36-.02.12-.04.24-.05.36-.02.12-.03.24-.04.36-.02.24-.04.47-.05.71-.01.24-.01.47-.01.71,0,.23.01.47.03.7,0,.12.02.23.03.35.01.12.03.23.04.35l.02.18.1.16c.05.08.1.16.15.23.05.08.1.15.15.23l.31.45.15.22c.05.08.1.15.15.22.05.07.1.15.15.23.05.08.1.15.14.23.05.08.09.15.14.23.04.08.09.16.13.24.04.08.09.16.13.24.04.08.08.16.12.24.04.08.08.16.12.25.04.08.08.17.11.25.04.08.07.17.11.25l.05.13.02.06s.02.04.02.06l.02.05c.05.11.17.19.3.18.17-.01.29-.15.28-.32v-.08Z"/>
            <path class="cls-3" d="m42.17,15.1c-.21-.27-.47-.5-.75-.7-.18-.13-.37-.25-.58-.32-.58-.24-.99-.14-1.22-.09-.27.05-.32.68-.46,1.03-.47.54-.34,1.13.14,1.46.11.52.14.83.03,1.17-.21.61-.54.9-.53,1.29.03.9,1.37,1.47,2.16,1.35.74-.12,1.1-.74.85-1.43,0,0-.08-.19-.1-.22-.43-.77-.2-1.63.32-2.26.15-.18.56-.72.15-1.27Z"/>
            <path class="cls-79" d="m40.02,15.49s1.11-.49,1.18-.78c.17-.73-1.55-1.05-1.18.78Z"/>
            <path class="cls-63" d="m42.19,31c-.63.31-1.12.31-1.1-.01,0-.06.06-.19.13-.28.02-.02.03-.04.05-.05h0c.06-.06.12-.11.18-.17,0,0,0,0,0,0,.22-.19.35-.31.63-.33.49-.03.63-1.07.91-.82,0,0,.11.19.1.28-.04.32-.42,1.14-.91,1.38Z"/>
            <path class="cls-3" d="m42.16,30.93s-.06.03-.09.04c-.58.27-1.03.25-1.01-.06,0-.06.06-.19.13-.28.02-.02.03-.04.05-.05h0s.06-.06.09-.09c.03-.03.06-.05.09-.08,0,0,0,0,0,0,.18-.17.26-.37.35-.73.07-.29.11-.6.05-.89.52-.15.74-.21.74-.21,0,.03.42.74.45.78h0s0,0,0,0c.14.23-.26,1.25-.86,1.55Z"/>
            <path class="cls-3" d="m42.36,27.76c-.21-.19-.39-.02-.55.16-.07.08-.15.29-.24.34-.07.04-.18-.02-.24,0-.02,0-.03,0-.03,0,0,0,0,.01,0,.03-.02.06.06.24.08.29.03.08.08.14.14.19.02.05.03.1.06.15.08.17.25.57.41.66.12.07.09-.2.2-.11.21-.16.4-.39.58-.58.05-.06.07-.06.06-.12,0-.08-.12-.23-.15-.32-.04-.13-.05-.28-.12-.4-.02-.03-.06-.07-.08-.09-.04-.07-.05-.14-.11-.2Z"/>
            <path class="cls-79" d="m39.33,13.76s-.1.07-.13.09c-.07.06-.13.11-.18.19,0,.01-.01.03-.02.04.2.03.3.02.37-.08.08-.11.15-.23.15-.23l.12-.21c-.08-.02-.12-.02-.32.2Z"/>
            <path class="cls-69" d="m44.02,17.71c-.04-.13-.12-.26-.19-.39-.07-.11-.13-.22-.2-.33-.07-.11-.13-.22-.2-.32-.03-.05-.07-.11-.1-.16-.04-.05-.07-.1-.11-.15-.07-.1-.15-.2-.22-.3-.04-.05-.08-.1-.12-.15-.04-.05-.08-.1-.12-.14-.08-.09-.17-.19-.26-.28-.04-.04-.09-.09-.14-.13-.02-.02-.05-.04-.07-.07-.03-.02-.05-.04-.08-.06h0c-.15-.12-.38-.12-.54,0-.19.15-.22.42-.07.61l.05.07s.03.04.05.07c.04.05.07.09.11.13.08.09.16.18.23.27.04.04.08.09.12.13l.12.13c.08.09.16.17.25.26l.25.26c.08.09.16.17.24.26.08.09.15.18.22.27.03.04.07.09.1.14.02.03.04.05.05.08-.01.02-.04.05-.07.08-.03.03-.06.07-.09.11-.03.04-.06.08-.09.13l-.4.57c-.07.1-.14.19-.21.29-.08.09-.16.19-.24.27-.08.09-.17.17-.26.26-.01.01-.03.02-.04.04.13.11.25.22.37.33,0-.01.02-.03.03-.04.07-.1.15-.18.23-.27.09-.08.17-.16.27-.24.09-.08.19-.15.28-.23.29-.24.78-.76.86-1.11.03-.14.02-.26-.02-.38Z"/>
            <path class="cls-93" d="m44.12,17.83c0-.06-.02-.12-.04-.18-.03-.07-.06-.13-.1-.19-.03-.06-.07-.12-.1-.17-.07-.11-.13-.22-.2-.33-.07-.11-.14-.21-.21-.32-.07-.1-.14-.21-.22-.31-.07-.1-.15-.2-.23-.3-.04-.05-.08-.1-.12-.14-.04-.05-.08-.1-.12-.14-.08-.09-.17-.19-.26-.28-.04-.04-.09-.09-.14-.13-.02-.02-.05-.04-.07-.07-.03-.02-.05-.04-.07-.06h0c-.17-.13-.41-.14-.58,0-.2.16-.23.46-.06.65l.06.07.05.07.11.13c.08.09.15.18.23.27.04.04.08.09.12.13.04.04.08.09.12.13l.24.26c.16.18.32.35.47.53.08.09.15.18.22.27.03.04.07.09.09.14,0,0,0,0,0,0,0,0,0,0,0,.01-.03.06-.06.12-.09.19-.03.06-.07.13-.11.19-.02.03-.04.06-.06.09-.02.03-.04.06-.06.09v.02c-.08.12-.08.28.01.39.12.15.33.22.48.1.23-.18.42-.47.55-.72.06-.12.1-.27.09-.41Z"/>
            <path class="cls-70" d="m42.25,19.55c-.24-.07-.41,0-.6.16-.15.13-.33.19-.43.2.03.17.29.09.43.03-.15.14-.48.32-.61.5-.03.03-.07.07-.05.1.02.03.42-.19.56-.31-.24.22-.55.39-.51.43.02.03.15.07.18.06.18-.02.41-.14.57-.26-.1.1-.35.23-.33.26.04.01.2-.04.24-.06.08-.04.15-.07.22-.13.13-.11.27-.22.37-.35.08-.09.16-.2.19-.33.01-.05-.03-.26-.23-.32Z"/>
            <path class="cls-22" d="m41.59,11.35c-.28-.3-.58-.41-.98-.3-.46.13-.5.68-.89.94-.19.13-.4.16-.47.4-.05.16.03.33-.05.5-.13.3-.29.43.09.71.74.54,1.49-1.06,1.79-1.53l.52-.72Z"/>
            <path class="cls-79" d="m41.17,12.81l-.06,1.6c0,.23-.2.41-.43.4-.23,0-.41-.2-.4-.43,0,0,0-.02,0-.02l.14-1.59c.02-.2.2-.35.4-.33.2.02.34.19.34.38Z"/>
            <path class="cls-70" d="m41.14,13.44c-.12.05-.17.27-.44.38-.36.15-.59.13-.72.14-.21.02-.4-.15-.41-.27-.03-.27-.02-.5.02-.77.08-.63.41-1.17.57-1.42.49-.46.92-.41,1.55-.02.72.45.39,1.53-.58,1.95Z"/>
            <path class="cls-70" d="m41.27,13.06c.32-.29.45.01.39.16-.08.2-.43.37-.65.26.14-.22.17-.34.26-.42Z"/>
            <path class="cls-22" d="m40.59,11.77c-.18,0-.38.1-.48.24-.17.26-.07.23-.38.37-.26.12-.21.17-.28.41-.08.24-.08.15-.29.29-.07.05-.15.11-.19.18-.02.03-.03.08,0,.12.03.03.1.02.1-.03,0,.29-.34.07-.19-.25.06-.12.17-.15.22-.23.09-.15.05-.18.05-.36,0-.2.02-.39.22-.5.12-.06.27.02.35-.09.16-.23-.12-.69.42-.71.33-.01.44.26.48.52l-.02.04Z"/>
            <path class="cls-22" d="m40.41,11.7c.12.16.99-.2,1.07-.37-.22-.17-.39-.32-.69-.26-.17.03-.57.18-.53.34l.15.29Z"/>
            <path class="cls-16" d="m40.56,11.76c.23.3-.33.61-.28.91.03.2.18.23.07.45-.09.19-.23.13-.21.39,0,.13.06.25.05.38,0,.06,0,.12-.06.14-.04.01-.1,0-.13-.02-.06-.04-.04-.09,0-.14-.25.02-.18.29.02.34.47.12.36-.42.46-.62.07-.15.18-.09.29-.2.16-.15.09-.23.11-.42.03-.31.22-.27.3-.55.08-.31-.24-.81-.59-.67h-.02Z"/>
            <path class="cls-16" d="m42.47,13.02c.03-.14-.09-.24-.05-.43.07-.3.2-.34-.03-.65-.18-.24-.32-.56-.63-.61-.44-.07-.9.12-1.21.4,0,0,.14.19.17.32.1.38.15.72-.08,1.08-.21.32-.36.71-.42,1.09.24.16.25.02.42-.04.19-.07.29.03.47.05-.12-.38.34.23.6-.13-.22.06-.13-.14.02-.18.13-.04.22.02.33-.08.08-.06.12-.17.08-.26-.03-.09-.06-.08-.03-.17.04-.19.33-.19.37-.37Z"/>
          </g>
          <g>
            <g>
              <path class="cls-70" d="m8.2,20.64v1.53c.05,0,.1.01.16.02.23.03.91.04,1.24,0,.15.03.3.03.42,0,.11-.04.11-.22.24-.31.35-.24.92-1.31,1.26-1.98,0,0,0-.01.01-.02.01-.02.01-.05.02-.08.03-.2-.12-.47-.34-.32-.01,0-.02.01-.03.02,0,0-.02.01-.03.02-.51.46-1.19.98-1.77,1.38-.3-.07-.74-.18-1.16-.27Z"/>
              <path class="cls-62" d="m7.33,19.7c-.86-.02-.96.88-.85,1.2.21.61,1.5,2.26,1.92,2.34.81.16,1.6-1.64,1.6-1.64l-2.67-1.91Z"/>
              <path class="cls-25" d="m7.66,34.28c.28-.02-.14.44.37.31.17-.04.47-.09.61.06.23.24,0,.57-.14.81-.06.09-.12.17-.21.22-.11.06-.24.08-.34.15-.19.13-.34.31-.58.36-.17.04-.41.04-.57-.02-.06-.02-.14-.09-.13-.16,0-.25.27-.79.17-1.01-.06-.13.6-.7.83-.72Z"/>
              <path class="cls-25" d="m8.91,36.73c.04-.25.37-.57.27-.84-.05-.15.67-.19,1.06-.11.03.06.06.12.11.17.04.04.08.09.13.12.02.01.08.04.09.05.03.07.11.13.38.21.21.06.68.09.82.27.03.04.04.07.04.11.06.19-.29.39-.69.49-.15.04-.23.05-.43.06-.29.02-.36-.02-.58-.04-.22-.02-.61,0-.79-.02-.24-.02-.45-.19-.4-.48Z"/>
              <path class="cls-70" d="m7.98,19.86l.3-1.25c0-.18.06-.39.26-.4.22-.02.78.49.8.7l-.12,1.26s-.03.07-.03.08c-.33-.1-.78.07-1.21-.39Z"/>
              <path class="cls-70" d="m7.86,17.44c.18-.17.36-.33.57-.48.12-.07.1-.09.23-.16.99.21,1.69.91,1.34,2.16-.05.19-.33,1.07-.64,1.02-.93-.17-.26-.74-.39-.67-.22.12-.73.13-.82-.17-.13-.08-.23-.17-.31-.26.02-.48.05-.97.01-1.45Z"/>
              <path class="cls-37" d="m10.09,18.09c-.05.34-.09.51-.28.77-.18.08-.73.2-.73.2-.29-.23-.37-.7-.45-1.07-.07-.31,0-.54.16-.71l1.31.81Z"/>
              <path class="cls-37" d="m9.35,16.86c-1.13-.33-2.33.53-1.58,1.94.27.52.27.59.55.68.31.07.64.07.89-.14.66-.56-.62-1.6.17-2.01l-.03-.48Z"/>
              <path class="cls-37" d="m10.02,18.18c-.87.12-1.8-.19-2.2-.95.26-.61,1.22-.74,1.99-.12.51.41.6.96.22,1.07Z"/>
              <path class="cls-70" d="m9.71,18.78c.03-.4-.28-.34-.36-.21-.1.17-.03.53.19.64.09-.22.16-.31.17-.42Z"/>
              <path class="cls-35" d="m8.13,26.38s1.02.27.85.99c-.1.39-.65,3.7-.65,4.1-.02,1.06-.14,1.73-.2,2.79-.02.33.18.8-.02,1.11-.4.6-1.02.8-1.45.54-.02-.28-.42-2.58.33-5.26.01-1.55,0-3.09.04-4.42,0,0,.33.27,1.1.16Z"/>
              <path class="cls-5" d="m10.49,25.4c.04,1.34.06,3.47-.13,5.04-.05.4,0,3.71-.03,4.76,0,.33.15.62.26.94-.23.21-1.32.57-1.76.32-.03-.28-.47-3.04,0-5.17-.04-1.55-.42-4.59-.88-6.07,0,0,1.78.31,2.55.17Z"/>
              <path class="cls-83" d="m10.74,27c-.57,1-3.38.37-3.83-.39,0-.44.18-1.66.18-1.69.09-.91.04-1.45-.16-2.52-.18-.95-.71-1.99.2-2.64.17-.12.55-.12.87,0,.21.21.65.5,1.2.44.59.26.9.6,1.16.86.44.45.1.44.1.7,0,1.12-.18,1.51.03,2.63,0,.05.23,2.42.25,2.61Z"/>
              <path class="cls-70" d="m12.87,25.68c0,.06,0,.13.01.19,0,0,0,.01,0,.02,0,0,0,0,0,0,.04.11.19.33.37.54.24.28.76.33.9.33.25-.01.37-.06.4-.13.07,0,.12,0,.13-.06.02-.16-.28-.34-.51-.48-.07-.06-.15-.13-.21-.18,0,0,0,0,0,0h0c.18.05.48.14.53-.08-.13-.04-.32-.11-.51-.26-.22-.17-.34-.25-.65-.23-.01,0-.03,0-.04,0-.09-.02-.18,0-.25.03-.09.05-.15.15-.18.32Z"/>
              <path class="cls-70" d="m9.91,21.79c.17-.34.36-.5.55-.62.35.19.55.74.61,1.09.1.55.17,1.53.23,2.05.58.4,1,.53,1.73,1.05.33.23.21.7-.03.68-.75-.07-1.46-.23-1.91-.39-.15-.05-.61-.21-.68-.3-.08-.1-.13-.23-.16-.39-.15-.3-.39-.93-.44-1.16-.19-.73-.29-1.27.09-2.02Z"/>
              <path class="cls-62" d="m9.75,23.48c-.13-.57-.15-1.05.17-1.69.17-.34.36-.5.55-.62.35.19.55.74.61,1.09.04.25.1.59.15.93-.27.52-.93.55-1.48.29Z"/>
              <path class="cls-70" d="m11.2,19.55v.02h.1c-.07.12.11.2.25.24.06.01.11.02.14.01.08-.01.17-.07.24-.13h.01s.04,0,.06,0c.16-.02.28-.16.35-.29.08-.16.19-.45.07-.62-.06-.08-.19-.09-.28-.04.04-.05.07-.11.12-.15.11-.08.35-.17.33-.31-.03-.2-.4.1-.48.15-.08.05-.15.11-.23.16-.32.23-.62.48-.65.9,0,.02,0,.04,0,.06Z"/>
            </g>
            <path class="cls-79" d="m11.11,19.36s.01.04.02.06c.01.03.03.06.04.08,0,.01.02.03.03.04,0,0,0,.01.01.02.03.05.07.1.12.15,0,0,0,0,0,0,.05.06.12.12.19.15.01-.02.13-.06.16-.07.08-.01.17-.07.24-.13h.01s0-.05,0-.06c-.03-.05-.13-.04-.16-.08-.08-.09,0-.38.02-.49.01-.07.02-.15.08-.19.04-.02.1-.01.14-.04,0-.08,0-.2-.07-.22-.01,0-.03,0-.05,0l-.03-.02-.04-.02c-.09.03-.22.11-.27.15l-.14.05c-.12.14-.11.19-.22.35-.05.07-.08.16-.08.25Z"/>
            <path class="cls-70" d="m11.11,19.36c0,.09.01.18.06.25.05.07.1.11.15.11.07.01.14-.02.2-.11.13-.19-.04-.47.09-.64.1-.13.31-.09.32-.3,0-.03,0-.05-.01-.06-.01-.04-.06-.05-.11-.03-.09.03-.22.11-.27.15l-.14.05c-.12.14-.11.19-.22.35-.05.07-.08.16-.08.25Z"/>
          </g>
        </g>
        <g>
          <g>
            <g class="cls-96">
              <polygon class="cls-19" points="26.14 33.78 26.14 33.98 26.93 33.54 26.93 33.34 26.14 33.78"/>
              <polygon class="cls-18" points="22.6 32.73 22.6 32.93 26.14 33.98 26.14 33.78 22.6 32.73"/>
              <polygon class="cls-72" points="26.15 33.79 26.15 33.99 28.42 36.57 28.42 36.37 26.15 33.79"/>
              <polygon class="cls-7" points="28.42 36.37 28.42 36.57 29.19 36.12 29.19 35.92 28.42 36.37"/>
              <polygon class="cls-15" points="26.15 33.79 26.15 33.99 28.42 36.57 28.42 36.37 26.15 33.79"/>
              <polygon class="cls-19" points="13.97 37.72 13.97 37.92 22.6 32.93 22.6 32.73 13.97 37.72"/>
              <polygon class="cls-19" points="32.87 37.69 32.87 37.89 33.65 37.44 33.65 37.24 32.87 37.69"/>
              <polygon class="cls-18" points="28.42 36.37 28.42 36.57 32.87 37.89 32.87 37.69 28.42 36.37"/>
              <polygon class="cls-7" points="19.78 41.36 19.78 41.56 28.42 36.57 28.42 36.37 19.78 41.36"/>
              <polygon class="cls-38" points="19.78 41.36 19.78 41.56 28.42 36.57 28.42 36.37 19.78 41.36"/>
              <polygon class="cls-14" points="17.52 38.77 17.52 38.97 26.15 33.99 26.15 33.79 17.52 38.77"/>
              <polygon class="cls-36" points="17.52 38.77 19.78 41.36 28.42 36.37 26.15 33.79 17.52 38.77"/>
              <polygon class="cls-40" points="17.52 38.77 17.52 38.97 19.78 41.56 19.78 41.36 17.52 38.77"/>
              <polygon class="cls-7" points="19.01 41.8 19.01 42 19.78 41.56 19.78 41.36 19.01 41.8"/>
              <polygon class="cls-13" points="19.78 41.36 19.78 41.56 24.24 42.88 24.24 42.68 19.78 41.36"/>
              <polygon class="cls-91" points="19.78 41.36 19.01 41.8 23.46 43.13 24.24 42.68 19.78 41.36"/>
              <polygon class="cls-36" points="19.78 41.36 24.24 42.68 32.87 37.69 28.42 36.37 19.78 41.36"/>
              <polygon class="cls-91" points="33.65 37.24 29.19 35.92 28.42 36.37 32.87 37.69 33.65 37.24"/>
              <polygon class="cls-13" points="13.97 37.72 13.97 37.92 17.52 38.97 17.52 38.77 13.97 37.72"/>
              <polygon class="cls-36" points="13.97 37.72 17.52 38.77 26.15 33.79 22.6 32.73 13.97 37.72"/>
              <polygon class="cls-91" points="12.28 37.9 16.74 39.22 17.52 38.77 13.97 37.72 22.6 32.73 26.14 33.78 26.93 33.34 22.47 32.02 12.28 37.9"/>
              <polygon class="cls-19" points="16.74 39.22 16.74 39.42 17.52 38.97 17.52 38.77 16.74 39.22"/>
              <polygon class="cls-18" points="12.28 37.9 12.29 38.1 16.74 39.42 16.74 39.22 12.28 37.9"/>
              <polygon class="cls-72" points="16.74 39.22 16.74 39.42 19.01 42 19.01 41.8 16.74 39.22"/>
              <polygon class="cls-47" points="16.74 39.22 19.01 41.8 19.78 41.36 28.42 36.37 29.19 35.92 26.93 33.34 26.15 33.79 28.42 36.37 19.78 41.36 17.52 38.77 16.74 39.22"/>
              <polygon class="cls-14" points="24.24 42.68 24.24 42.88 32.87 37.89 32.87 37.69 24.24 42.68"/>
              <polygon class="cls-18" points="19.01 41.8 19.01 42 23.47 43.33 23.46 43.13 19.01 41.8"/>
              <polygon class="cls-19" points="23.46 43.13 23.47 43.33 24.24 42.88 24.24 42.68 23.46 43.13"/>
            </g>
            <g class="cls-96">
              <polygon class="cls-74" points="32.87 37.69 32.87 37.89 34.68 39.95 34.68 39.75 32.87 37.69"/>
              <polygon class="cls-36" points="24.24 42.68 26.04 44.74 34.68 39.75 32.87 37.69 24.24 42.68"/>
              <polygon class="cls-40" points="24.24 42.68 24.24 42.88 26.04 44.94 26.04 44.74 24.24 42.68"/>
              <polygon class="cls-38" points="26.04 44.74 26.04 44.94 34.68 39.95 34.68 39.75 26.04 44.74"/>
              <polygon class="cls-11" points="25.73 45.71 25.73 45.91 35.91 40.03 35.91 39.83 25.73 45.71"/>
              <polygon class="cls-74" points="23.46 43.13 23.47 43.33 25.73 45.91 25.73 45.71 23.46 43.13"/>
              <polygon class="cls-46" points="23.46 43.13 25.73 45.71 35.91 39.83 33.65 37.24 32.87 37.69 34.68 39.75 26.04 44.74 24.24 42.68 23.46 43.13"/>
            </g>
          </g>
          <g>
            <path class="cls-81" d="m27.59,40.3s.03.03.03.03c0,0-.01,0-.02,0-.02-.01-.03-.03-.01-.03Z"/>
            <path class="cls-81" d="m28,40.46s0,0,0,0c0,0,0,0,0,0Z"/>
            <path class="cls-81" d="m28.21,40.79s-.03,0-.05-.01c0,0,.01,0,.02,0,.01,0,.03,0,.04.02Z"/>
            <path class="cls-81" d="m28.56,40.84s0,0,0,0h0Z"/>
            <path class="cls-81" d="m32.2,40.28s0,0,0,0h0Z"/>
            <path class="cls-81" d="m28.97,38.93c.09.15.28.22.32.4-.01-.03-.15-.26-.19-.21.03.03,0,.06.07.08,0,0,0,0,0,0-.01,0-.08-.04-.08-.04-.06.01-.09.02-.1.02,0,0,0-.03-.07-.07-.07-.04.06.25.1.24.1-.03-.05-.09-.01-.11,0,0,.02.03.03.02,0,0-.01-.02,0-.03,0,.02.12.15.11.16.01,0,0-.01,0-.02,0,.03.05.1.02.13,0,0-.03,0-.04,0,0,0,0-.03-.01-.02-.04,0,.02.05.01.05.02-.01.03,0,.06.04,0,0-.01,0-.02,0,0,0,.02.02.03.03,0,0,0,0,0-.01,0,0,0,0,.01.01,0,0,0,0,0,0,.02.04.02.12,0,.12,0,0,.04-.01.04,0,0,0-.09.1-.05.09.02,0,.07-.08.08-.08.05.03-.1.11-.1.12,0,.03-.05.08.02.14.13.12-.31.29-.23.34,0,0,.21-.05.18-.04.01,0,.36-.02.31.02,0,0,.03.07.02.09,0,0,.02,0,.02,0,.41-.02,0,.36-.01.43-.18.05-.43-.07-.33-.1.07-.02-.04-.25-.12-.09-.03.05-.09.1-.11.15-.35-.1-.08-.07-.37,0-.1.02-.23.02-.33,0,.02.03.03.08.04.09,0,0,.03,0,.03,0,0,0-.03,0,0-.02.06,0,.04.04.04.04.1.06.39-.08.44-.05.14.08.44.14.63.18.33.08.69-.07.97-.09.07,0,.09-.11.18-.06.03.02-.53.18-.5.19,0,0,0,0,0,0,.06.03.36-.09.41-.07-.09-.05.33-.12.46-.14.24-.03.27-.26.31-.39.05-.1.16-.05.21-.11.02-.02-.05-.03-.07-.03.03,0,.23-.12.25-.14,0,.01-.06.08,0,.08.15-.01.19-.23.39-.04.03-.02.03,0,.05-.02,0,0,.01.04.02.04,0,0,0,0,0,0,.05.05.2.14.19.15.01-.01-.03-.08-.04-.1.05.04.05.09.1.14-.06,0,0,.04,0,.07,0,0-.07-.07-.07-.06,0,0,0,0-.01,0,0,0,.05.11.07.12,0,0,.03,0,.03,0,.03,0-.02-.06-.02-.07.02.02.12.13.21.23.02,0,.03,0,.05,0h0c-.07-.09-.15-.19-.16-.21.02.02.04.04.04,0,0,.01.13.1.13.1,0,0-.01-.1-.02-.11.01,0,.02.09.06.08.15-.03-.08-.24-.15-.33.04.04.14.11.17.1.01,0,0-.04-.01-.04,0,0,.04.02.05.01.02-.01-.16-.14-.15-.14,0,0,0,.02,0,.03-.02,0-.1-.05-.06-.08,0,.03.09.01.11,0,.2-.09-1.11-.68-1.15-.75,0,0,0,.01,0,.01-.03,0-.04-.06-.03-.06,0,0-.02,0-.02,0,0,0-.03.03-.03.03-.01,0-.03-.08-.07-.07,0,0,0,.02,0,.03,0,0,0,0,0,0-.06-.02-.2-.15-.3-.13-.04,0,.05.04.04.05-.05,0-.18-.12-.18-.12,0,0,.01.02.01.02-.02-.01-.05,0-.06,0,0,0-.02,0-.02,0-.01-.03.05-.04.05-.04.03-.03-.17-.11-.13-.07-.13-.04-.18-.09-.2-.14.01,0,.03.03.04.02.04-.01-.12-.12-.13-.1,0,0,.06.08.06.08-.01,0-.04-.02-.05-.02,0,0,0,.04,0,.04,0,0-.01,0-.02,0,0,0,0-.01,0-.01.03-.02-.02-.1-.03-.11,0,0,.01,0,.02,0,0,0,.06.04.07.01.05-.06-.21-.26-.2-.27-.02.03.1.13.13.16-.09-.02-.07.04-.06.06,0,0-.05-.05-.08-.03,0,0,0-.01-.01-.01-.06-.04-.04.05-.04.05,0,0-.03,0-.03,0,0-.01-.02-.06-.02-.06,0,0,0,.02,0,.02-.04-.05-.07-.09-.09-.13,0,0,0-.01,0-.01,0,0,.16.1.2.08.02,0-.06-.04-.06-.05.01,0,.08.03.08.03.06-.03-.09-.21-.14-.19,0,0,.08.14-.01.1,0,0,0-.01,0-.01,0,0,.03.01.04,0,.03-.03-.11-.16-.14-.15-.02.01,0,.05-.02.05,0,0-.09-.08-.08-.08.03,0,.04.06.09.03.02-.01-.08-.08-.12-.04-.03,0-.06,0-.11,0,.01-.05-.13-.06-.15-.04,0,0-.04-.04-.06-.02,0,0,.02.01.03.02,0,0,0,0,0,0,0,0-.04-.02-.04-.01-.01,0,.06.05.04.06,0,0-.22-.04-.24-.05,0,.08.2.14.19.16,0,0-.09,0-.12,0,0,0-.02.05-.04.03.01,0,.02,0,.03,0,0,0,0,0,0,0,0,.01-.07.03-.04.04.03.02.12,0,.16.02,0,0-.16,0-.13.02.05.03.5.07.45.11.05-.04-.12-.09-.13-.12.04-.02-.02-.07.02-.11.01,0,.01,0,.03,0,0,0-.04.06.01.04,0,0-.01-.02,0-.03,0,0,.05.04.06.03.03-.02-.04-.03-.02-.04.02.02.07,0,.11,0-.08.02.1.1.09.1-.13.03.02.13.02.17,0,0-.06,0-.04,0,.03.02.07-.01.1.02,0,0-.01,0-.01,0-.02,0-.03,0-.03.02,0,0,.02-.03.02-.03-.02-.01-.18.03-.19,0,0,.04.2.12.22.13,0-.04,0-.08-.01-.12.08.09.05.17.23.22-.04,0-.06-.03-.1-.03.03,0,.12.27.08.27-.02,0-.03-.02-.05-.02,0,0-.04.05-.04.06-.06-.03-.33-.12-.38-.12.01,0-.12.18-.16.1-.03-.06.07-.12.01-.2-.05-.08.22-.25.08-.31-.03-.03-.2-.09-.18-.04,0,0-.05-.01-.07-.02,0,.03-.09.06-.09.06-.06.04-.1-.15-.09-.14-.18-.03-.16.19-.33.08,0,0-.05,0-.05,0,0,0,0,.01.01.02-.07-.02-.17.06-.05.14Zm1.32-.09s0-.02,0-.04c.02.01.05.03,0,.04Zm.01.12s-.07-.01-.09-.03c.04,0,.06,0,.09.03t0,0Z"/>
            <path class="cls-81" d="m29.04,38.82s0,0,0,.01c0,0,0,0,0-.01Z"/>
            <path class="cls-81" d="m29.08,38.86s0,0,0,0c0,0,0,0,0,0Z"/>
            <path class="cls-81" d="m29.66,38.7s0-.02,0,0h0Z"/>
            <path class="cls-81" d="m30.52,38.99s0,0,0,0h0Z"/>
            <path class="cls-81" d="m29.52,40.37s0,0,0,0h0Z"/>
            <path class="cls-81" d="m32.45,40.17s0,0,0,0h0Z"/>
            <path class="cls-81" d="m32.48,40.19s0,0,0,0c0,0,0,0,0,0Z"/>
            <path class="cls-81" d="m32.2,40.28c.06.05-.01-.01,0,0h0Z"/>
            <path class="cls-81" d="m31.68,40.22s0,0,0,0c0-.01,0-.03,0,0Z"/>
            <path class="cls-81" d="m31.57,40.22s0,0,0,0h0Z"/>
            <path class="cls-81" d="m28.56,40.84c.02.05,0-.02,0,0h0Z"/>
            <path class="cls-81" d="m29.44,40.39s.02,0,.03,0c0,0-.01.01-.03,0Z"/>
            <path class="cls-81" d="m29.56,38.76s0,0,0,0c0,0,0,0,0,.01,0,0-.01,0-.01,0Z"/>
            <path class="cls-81" d="m31.46,39.42s0,0,0,0c0,0,0,0,0,0Z"/>
            <path class="cls-81" d="m25.77,40.11c-.18-.01-.61.58-.54.66.08.09-.22.34-.17.36,0,0,0,0,.01,0-.03.09-.03.3.11.22-.16.1-.33-.04-.11.18-.09-.06-.03.09-.01.1-.01.03-.17-.02-.18,0,0,.03.08,0,.06.02-.03.09-.48.28-.76.19,0,0,.03.09-.02.06,0,0,0,0,0,0,0,.02.44.13.47.12.02-.01,0-.01-.02-.02,0,0,0,0,.01,0,0,0,.32.03.32-.07,0-.01.05-.02.07-.02-.02,0,.04.05.03.05,0,0,.13-.09.15-.08-.01,0-.05,0-.06,0,0-.01.15-.07.16-.07,0,0,0,0,.01,0-.02.01-.1.04-.08.05.02.01.11-.02.09-.04.13.02.89-.35.93-.44.1-.21.53-.05.74-.09.34-.07.54-.07.73-.21,0,.04.29-.16.18-.23,0,0,.17-.07.25-.1-.03,0-.05-.02-.08-.03.01,0,.1-.27-.05-.26-.04,0,0,.04,0,.04,0,0-.03,0-.04.01,0,0-.01-.06,0-.08-.05,0-.31-.08-.39-.12-.08,0-.27-.05-.33,0,.06-.19-.75,0-.79.02.05-.1-.07-.1-.14-.14-.02-.01-.09.03-.08.03-.13-.03-.31-.14-.49-.15Zm2.14.45c.02-.08-.02.06,0,0h0Zm-2.85,1.35s.05,0,0,0h0Z"/>
            <path class="cls-81" d="m27.91,40.56s0,0,0,0h0Z"/>
            <path class="cls-81" d="m29.46,38.54s0,0,0,0c0,0,0,0,0,0Z"/>
            <path class="cls-81" d="m28.36,37.71s.11.11.19.11c-.02.06.18.51.23.51.13,0,.34.03.36-.09.05.02.03-.05.02-.1.02.02.07.05.08.04,0,0,.02-.09-.02-.08,0,0-.04.02-.08-.01,0,0,0,0,0,0,.03.02.06.02.08,0,0,.02.01.05.06.05.02,0,.01-.04.01-.04.03.05,0-.02.01-.03.01.02.06.01.06-.03.06,0,.02,0,.05,0,.06-.03.29.21.36.15.02-.01-.03-.03-.05-.04.01,0,.09.03.09.02.04-.03-.27-.18-.21-.2.01,0,.04.04.06.03.03-.01-.35-.27-.35-.26,0,0-.09-.05-.1-.06,0,0,.04.02.04,0,0-.03-.15-.06-.17-.08.03-.01.07.04.1.02.01,0-.02,0-.02,0-.04,0-.31-.25-.35-.23-.01,0,.02.02.02.03,0,0-.27-.2-.32-.17,0,0,.08.07.09.07-.01,0-.1-.08-.09-.03-.05-.02-.02-.04-.02-.04,0,0-.24-.1-.23-.11-.06.05.24.18.17.25,0,0-.03-.07-.08-.04-.01,0,.03.02.04.02-.04,0-.03-.03-.07-.02,0,0,0,.02,0,.03.03,0,.11.01.07.02-.03,0-.1-.02-.06.03,0,0-.05-.02-.05-.01,0,.02.03.03.05.05,0,0-.02,0-.02,0,.01.04.05.03.07.06-.01,0-.04-.02-.06-.01-.06.02.03.05.06.05-.07,0-.17,0-.14.02.08.05.09.05.15.08-.04-.02-.08-.05-.13-.07,0,0,.07.1.08.12Zm.1-.15s-.02,0-.04,0c.02,0,0-.02,0-.03.01,0,.05.02.05.03Zm1.26.55s0,0,0,0h0Zm-.56-.02s.04.02.05.03c0,0-.04,0-.05,0,0-.01,0-.02,0-.02Z"/>
            <path class="cls-81" d="m28.33,37.37s0,0,0,0c0,0,0,0,0,0Z"/>
            <path class="cls-81" d="m27.32,37.71s0-.03,0-.04c-.01,0-.01.03-.03.03,0,0,0-.02,0-.03-.01,0,.01.04,0,.04-.02,0-.01-.02-.01-.03,0,0-.01.02-.03.03-.01,0,0-.04,0-.04,0,0-.02.03-.03.03-.01,0-.05-.03-.05-.04-.02.01-.04.09-.02.08-.02.01-.03,0-.05,0,0,0,0,.05,0,.05-.02,0-.08-.03-.09-.04,0,0,.07.09.05.1,0,0-.24-.17-.21-.19,0,0,.03.01.04.01.01-.03.01-.1.08-.03,0,.01.27-.09.26-.09.04-.01.05.04.08.04,0,0-.01-.08.01-.07,0,0,.02,0,.02,0,0,0,.02.07.02.09,0,.02,0,.02.03.04-.02,0-.04.03-.05.03Z"/>
            <path class="cls-81" d="m21.44,35.3s0,0,0,0t0,0Z"/>
            <path class="cls-81" d="m21.37,36.39s0,0,0,0h0Z"/>
            <path class="cls-81" d="m21.38,34.8s-.01,0-.01,0c0,0,0,0,.01,0Z"/>
            <path class="cls-81" d="m25.57,35.91s0,0,0,0c0,0,.01,0,0,0Z"/>
            <path class="cls-81" d="m21.34,34.41h0s0,0,0,0Z"/>
            <path class="cls-81" d="m21.02,36s.06-.03.07-.03c.3.17-.62.14-.49.43,0,0,.39-.05.44-.02.18.1-.8.2-.8.23,0,.07.54-.03.54-.03,0,0,.06-.01.07-.02,0,0-.02.02-.02.02-.02-.01.53-.29.52-.18,0,.07.38.03.53-.02-.02,0,0,.05.04.04-.03.02.02.07.06.05-.06.05-.07.26-.03.3.04.06-.24.19-.28.22-.17.13.71-.03.91-.12-.02.05.18.06.19.04,0,0-.04-.03-.03-.05.08.07.82.19.81.26,0,.08.37.04.4.05.15.07-.3.09-.3.09,0,0,.05-.02.03-.03-.06-.03-.1.06-.15.03-.08-.05,0-.12-.06-.15.04.02-.36.01-.35,0-.29.15.16.42.15.6,0-.03,1.11-.14,1.21-.19-.01,0-.06.04-.05.05.03.02.14,0,.17-.01-.15.12-1.32.16-1.31.24-.06-.03-.34-.2-.37-.19-.11.05-.35.52-.21.61.15.09-.36.23-.4.25-.22.13-.07.33-.22.4-.04.09-.47.43-.22.57.11.06.18.19.34.17.21-.03.51-.2.76-.23.36-.04.31-.24.58-.31.12-.03.64-.12.65-.2,0-.12.45,0,.5.02.17.12.25.35.61.33.19,0,.38-.04.52-.04.08,0,.39-.26.43-.3.06-.09.17-.39.14-.47-.02-.07-.4-.58-.59-.55-.07,0-.07.12-.16.09-.09-.03-.33-.08-.45-.09.19,0-.21-.18-.25-.2-.26-.1-.42-.23-.11-.35-.04.02.24.19.28.17,0,0-.02.02-.02.03.01,0,.05,0,.06,0,0-.01-.01-.02,0-.02.02.02.01.02.02.04,0,0,.02-.03.01-.04.07.02.04-.01.05-.01,0,0,.05.02.06.02,0,0,.02-.05.03-.05,0,0-.04.05.02.03.02,0,.02-.05.03-.05.05-.02.14.08.15.09.02.01-.17.02-.2.01,0,0,0,.03,0,.03,0,.04.66.04.67.03,0,0,.21,0,.12.05-.06.04-.46-.04-.46,0,.01,0,.05,0,.07,0-.07,0-.11.28.07.17.01,0-.08-.06.02-.12.03-.02.29.04.3.04.16-.09.36.29.23.32-.22.06.16.23.24.26.17-.1.34-.16.15-.28-.32-.18.12-.12.19-.15-.03,0-.12-.15-.05-.11-.02-.01-.21-.33-.2-.33,0,0,.26-.13.1-.13-.02,0-.16.14-.17.09-.23-.05-.25-.27-.31-.34.01-.01.03-.02.05-.03,0-.02.05.05.06.06,0,0,.04,0,.03,0,.05-.04-.15-.16-.19-.19.1.05.22.14.32.14.1,0,.11-.08.09-.13.03.04.07.1.09.13.05.07-.17.05-.17.06,0,.09-.11.2.02.27,0,0,.03,0,.03,0,.08-.05.02-.05.22-.11-.07.07.15.15.17.1.11.03.1-.13.08-.11.04-.03-.16-.2-.02-.28,0,0,.03.05.05.05,0,0,.01,0,.01,0-.03-.03-.03-.1-.09-.08,0-.02.04-.04-.02-.03.01-.02.03-.09-.03-.05,0-.03,0-.03-.05-.06,0,0,.03,0,.04,0-.02,0-.11-.08-.11-.08-.02,0,0,.03-.01.04-.03-.02-.03-.03-.02-.03,0,0,0,0-.01,0,0-.01.01-.05-.04-.05,0,0,0,.02,0,.02,0,0-.05-.07-.1-.05,0,0,.02.03.02.04-.11-.05-.19-.11-.38-.14-.32-.06.1.1.14.14-.07,0-.26.02-.3-.04.01,0,.09.02.1.01.01-.03-.15-.03-.13-.07,0-.01.12-.08-.05-.09.01,0,.02-.01.02-.02,0,0,.13,0,.13-.01-.03,0-.1-.03-.14-.04,0,.01.04.02.03.04-.07.03-.19-.2-.21-.19-.02,0,.03.01-.01.02-.05-.03-.08-.09-.09-.1-.02,0-.14,0-.08-.03.01,0,.14.03.14.03.02-.01-.37-.14-.42-.15.05-.05.11.05.14,0,0,0,.08,0,.08,0,.14-.1-.02-.12-.18-.11,0,0,0,0,0,0-.01,0,.02-.03.04-.04-.02,0-.06,0-.09-.01,0,0,0,0,0,0,.01-.01-.05-.03-.05-.04.03,0,.03.02.06.03,0,0-.03-.08-.05-.05,0,0,.02.02.02.02-.03,0-.17-.06-.17-.07,0,0,.14.05.17.03.03-.03-.13-.08-.14-.12.01,0,.08.04.09.03.02-.01-.12-.14-.14-.16-.09-.03-.08-.07-.16-.11.02,0-.33-.26-.45-.21-.04.01.09.11.05.13.03-.02-.09-.07-.08-.08,0,0,.03.02.04.02,0,0-.04-.09-.07-.07-.01,0,.02.03.03.03-.12,0-.26-.17-.42-.2.01,0,.06.01.07,0,.05-.05-.43-.13-.47-.14.01,0,.07-.02.06-.02-.09-.05-.19-.08-.24-.12,0,0,.11,0,.1.01,0,0-.03-.02-.04-.03,0,0,.03,0,.03,0,0,0-.16-.09-.18-.09,0,0,0,0,0,0,0,0,.03.01.02.02-.16-.08-1.1-.42-1.08-.47,0,0,.12.02.13.02-.26-.12-.53-.2-.81-.3.02,0,.04,0,.06,0,.02-.03-.24-.08-.27-.09-.02,0,.02.02.02.03,0,0-.09-.01-.09,0,0,.01.32.15.37.13-.01,0,0,0,.01,0,0,0-.08-.01-.09,0-.03.02.02.04.04.05-.05,0-.23-.09-.27-.04.05-.05.13.19.06.15.06.04.24.08.22.13-.03.05-.26-.02-.32,0,0,0-.01,0-.01,0-.05,0-.06.06-.06.06,0,0-.07,0-.09,0,.01,0,.04.03.04.03-.07,0-.16.1-.11.09-.01,0,.6-.06.6-.05,0-.01.06-.12.05-.12.06,0,.1,0,.15,0-.02,0-.06-.01-.08,0-.08.03.11.09.12.06,0,.03,0,.05,0,.05,0,0-.03,0-.06.03,0,0,.1.1.13.08,0,0,0-.01-.01-.02.28.01.22.23.19.34-.06-.02-.04-.04-.04-.04,0,0-.08,0-.07,0,0,0,.05,0,.06,0,.01-.01-.07-.01-.09,0-.03-.05-.17-.06-.29-.07.05-.04.06,0,.07-.03,0,0,.1.01.08,0,0,0,0,0,0,0-.01,0-.53-.02-.54,0,0,0,.09.02.1.03-.02,0-.19.02-.24.02.02,0,.05.01.06.02,0,0-.04,0-.03.02.07.04.38-.08.49-.03-.2.07-.57.19-.34.32.1.06-.29.1-.37.1-.13,0,0,.11,0,.11.14-.02.15-.09.25-.04.02,0,.23.05.26.07.03-.01.07-.05.09-.04.06.01,0,.09.04.11,0,0,0,0,0,0-.03.05-.28-.09-.29-.09,0,0-.03,0-.03.01-.07.04.12.11-.14.1-.06,0-.28,0-.2.06,0,0-.09-.04-.07-.04-.26.01-.14.4-.1.38-.01.02.1.11.04.13Zm4.38-.12s-.01,0-.02,0c-.02-.01,0,0,.02,0Zm-.07.07s-.04-.04-.04-.04c.06.02.12.04.18.04-.12.02-.22.05-.14.1-.21-.03,0-.09,0-.11Zm-.17-.05s.08-.01.12,0c-.04,0-.1,0-.12,0Zm-1.69-1.17s-.02-.04,0,0h0Z"/>
            <path class="cls-81" d="m21.68,35.38s.01,0,.02,0c0,0,0,0-.02,0Z"/>
            <path class="cls-81" d="m26.86,36.75s.02,0,0,0h0Z"/>
            <path class="cls-81" d="m25.31,37.5s0,0,0,0c0,0,0,0,0,0Z"/>
            <path class="cls-81" d="m25.11,37.51s0,0,0,.01c-.02,0-.01,0,0-.01Z"/>
            <path class="cls-81" d="m26.93,37.89s0,0,0,0c0,0,0,0,0,0Z"/>
            <path class="cls-81" d="m25.35,37.53s0,0,0,0c0,0,0,0,0,0Z"/>
            <path class="cls-81" d="m18.17,35.77h0s0,0,0,0Z"/>
            <path class="cls-81" d="m18.15,35.8s-.09-.05.02-.03c0,0,0,0,0,0,.05,0,.76.06.63.16-.05.03.25.03.3.09,0,0,0,0,0,.01-.04,0-.14,0-.18-.02.02.01.05.03.04.04,0,0-.1.02-.11.01-.02-.01,0-.03.01-.04-.08.05-.25-.02-.38.06-.05.03-.31-.18-.23-.13-.04-.11-.29-.03-.41-.1,0,0,0-.03,0-.03.03-.02.29.05.31,0Z"/>
            <path class="cls-81" d="m19.09,36.03s0,0,0,0c0,0,0,0,0,0Z"/>
            <path class="cls-81" d="m17.42,36.22c.06-.02.08-.04.11-.05.04-.02.42-.05.43-.06.02,0,.21-.1.22-.09.04.02-.27.29-.18.29.1,0,.19.03.3.02.04,0,0-.12.05-.12,0,0,.04,0,.04,0,.02.01-.02.02,0,.03,0,0,.04-.01.03-.01.06.04.15.04.19.07.02.01-.07,0-.07.01,0,0,.11.19.01.14-.02.03.06.02.04.05.16-.08.13.11.11.13.01,0,.04,0,.04,0,.02.01-.05.02-.05.03.03,0,0,0,0,.02.02,0,.05-.02.06-.02-.02.15.04.24.12.4,0,0,.03-.02.04-.02-.05.04-.14.09-.18.13,0,0,0,0,0,.01,0,0,.03-.01.04,0,.03.01-.05.02-.03.03,0,0,.06-.02.07-.02-.02-.01-.32.15-.35.17-.12.12-.07.08-.22-.03-.13-.1-.17-.23-.33-.32-.05-.03-.1-.04-.15-.04-.17.07-.34.13-.58.1-.06,0-.12-.05-.12-.09,0-.02,0-.04.01-.06-.11-.06-.05-.61.12-.7-.05.02.29-.04.23,0Z"/>
          </g>
          <g class="cls-95">
            <polygon class="cls-60" points="17.52 38.77 19.78 41.36 28.42 36.37 26.15 33.79 17.52 38.77"/>
          </g>
          <g class="cls-95">
            <polygon class="cls-60" points="24.24 42.68 26.04 44.74 34.68 39.75 32.87 37.69 24.24 42.68"/>
          </g>
        </g>
        <g>
          <g>
            <path class="cls-85" d="m29.91,34.61h0c.24,0,.46-.05.67-.15l-.67,3.69-.67-3.69c.2.1.43.15.67.15Z"/>
            <path class="cls-87" d="m29.91,32.21c.7,0,1.27.57,1.27,1.27,0,.51-.3.95-.73,1.15-.16.08-.35.12-.54.12s-.38-.05-.54-.12c-.43-.2-.73-.64-.73-1.15,0-.7.57-1.27,1.27-1.27Z"/>
            <path class="cls-89" d="m29.64,32.62c.3,0,.55.25.55.55,0,.22-.13.41-.32.5-.07.03-.15.05-.23.05s-.16-.02-.23-.05c-.19-.09-.32-.28-.32-.5,0-.3.25-.55.55-.55Z"/>
          </g>
          <g>
            <g class="cls-96">
              <polygon class="cls-78" points="34.86 36 37.26 34.61 37.26 35.18 34.86 36.58 34.86 36"/>
              <polygon class="cls-86" points="36.12 33.95 34.99 33.29 32.58 34.69 33.72 35.35 34.86 36 37.26 34.61 36.12 33.95"/>
              <polygon class="cls-51" points="34.86 36 34.86 36.58 33.72 35.92 32.58 35.26 32.58 34.69 33.72 35.35 34.86 36"/>
            </g>
            <g class="cls-96">
              <polygon class="cls-9" points="34.88 35.23 34.21 34.84 34.17 23.06 34.85 23.45 34.88 35.23"/>
              <polygon class="cls-43" points="34.85 23.45 34.17 23.06 34.97 22.6 35.64 22.99 34.85 23.45"/>
              <polygon class="cls-87" points="35.64 22.99 35.67 34.77 34.88 35.23 34.85 23.45 35.64 22.99"/>
            </g>
            <g class="cls-96">
              <polygon class="cls-24" points="31.7 25.86 31.93 25.73 36.73 28.51 36.51 28.64 31.7 25.86"/>
              <polygon class="cls-24" points="36.51 28.64 36.73 28.51 37.67 30.03 37.44 30.16 36.51 28.64"/>
              <polygon class="cls-6" points="36.51 28.64 37.44 30.16 37.42 30.17 36.51 30.64 31.7 27.87 32.55 27.36 31.7 25.86 36.51 28.64"/>
            </g>
            <g class="cls-96">
              <polygon class="cls-66" points="37.47 23.34 37.25 23.21 38.19 23.64 38.41 23.77 37.47 23.34"/>
              <polygon class="cls-54" points="32.67 28.12 32.45 27.99 33.3 26.49 33.52 26.62 32.67 28.12"/>
              <polygon class="cls-73" points="33.52 26.62 33.3 26.49 32.44 25.98 32.67 26.11 33.52 26.62"/>
              <polygon class="cls-53" points="32.67 26.11 32.44 25.98 37.25 23.21 37.47 23.34 32.67 26.11"/>
              <polygon class="cls-78" points="37.47 23.34 38.41 23.77 38.39 23.81 37.48 25.34 32.67 28.12 33.52 26.62 32.67 26.11 37.47 23.34"/>
            </g>
          </g>
          <g>
            <g>
              <g class="cls-96">
                <polygon class="cls-31" points="14.68 31.46 15 31.28 13.35 32.22 13.04 32.4 14.68 31.46"/>
                <polygon class="cls-26" points="14.68 32.17 14.99 31.99 15 31.28 14.68 31.46 14.68 32.17"/>
                <polygon class="cls-12" points="14.06 31.11 13.04 32.4 14.68 31.46 14.06 31.11"/>
                <polygon class="cls-41" points="14.68 31.46 15 31.28 14.38 30.93 14.06 31.11 14.68 31.46"/>
                <polygon class="cls-28" points="14.68 31.46 13.04 32.4 14.68 32.17 14.68 31.46"/>
              </g>
              <g class="cls-96">
                <polygon class="cls-12" points="14.68 31.46 14.68 32.17 16.31 34.29 14.68 31.46"/>
                <polygon class="cls-34" points="16.31 34.29 16.62 34.11 15 31.28 14.68 31.46 16.31 34.29"/>
                <polygon class="cls-12" points="14.68 31.46 13.05 28.64 14.06 31.11 14.68 31.46"/>
                <polygon class="cls-34" points="14.68 31.46 15 31.28 13.36 28.46 13.05 28.64 14.68 31.46"/>
                <polygon class="cls-30" points="16.31 34.29 16.62 34.11 15.61 31.64 15.3 31.82 16.31 34.29"/>
                <polygon class="cls-28" points="15.3 31.82 14.68 31.46 16.31 34.29 15.3 31.82"/>
                <polygon class="cls-29" points="15.3 31.82 15.61 31.64 15 31.28 14.68 31.46 15.3 31.82"/>
                <polygon class="cls-26" points="14.68 31.46 15 31.28 15 30.57 14.68 30.75 14.68 31.46"/>
                <polygon class="cls-28" points="13.05 28.64 14.68 31.46 14.68 30.75 13.05 28.64"/>
                <polygon class="cls-27" points="14.68 30.75 15 30.57 13.36 28.46 13.05 28.64 14.68 30.75"/>
                <polygon class="cls-31" points="16.32 30.53 16.64 30.35 15 31.28 14.68 31.46 16.32 30.53"/>
                <polygon class="cls-12" points="16.32 30.53 14.68 30.75 14.68 31.46 16.32 30.53"/>
                <polygon class="cls-28" points="16.32 30.53 14.68 31.46 15.3 31.82 16.32 30.53"/>
                <polygon class="cls-31" points="15.3 31.82 15.61 31.64 16.64 30.35 16.32 30.53 15.3 31.82"/>
                <polygon class="cls-33" points="16.32 30.53 16.64 30.35 15 30.57 14.68 30.75 16.32 30.53"/>
              </g>
            </g>
            <g class="cls-96">
              <polygon class="cls-55" points="14.56 34.55 14.87 34.37 14.88 31.36 14.57 31.54 14.56 34.55"/>
              <polygon class="cls-10" points="14.56 34.55 14.87 34.37 15.37 32.21 15.06 32.39 14.56 34.55"/>
              <polygon class="cls-73" points="14.57 31.54 14.88 31.36 14.38 31.64 14.07 31.82 14.57 31.54"/>
              <polygon class="cls-56" points="14.57 31.54 14.88 31.36 12.26 29.84 11.94 30.02 14.57 31.54"/>
              <polygon class="cls-86" points="14.57 31.54 14.56 34.55 15.06 32.39 14.57 31.54"/>
              <polygon class="cls-4" points="14.57 31.54 14.07 31.82 14.56 34.55 14.57 31.54"/>
              <polygon class="cls-61" points="15.06 32.39 15.37 32.21 14.88 31.36 14.57 31.54 15.06 32.39"/>
              <polygon class="cls-4" points="11.94 30.02 14.07 31.82 14.57 31.54 11.94 30.02"/>
              <polygon class="cls-20" points="14.07 30.68 14.39 30.5 12.26 29.84 11.94 30.02 14.07 30.68"/>
              <polygon class="cls-61" points="14.57 31.54 14.88 31.36 14.39 30.5 14.07 30.68 14.57 31.54"/>
              <polygon class="cls-86" points="14.07 30.68 11.94 30.02 14.57 31.54 14.07 30.68"/>
              <polygon class="cls-56" points="17.19 33.05 17.5 32.87 14.88 31.36 14.57 31.54 17.19 33.05"/>
              <polygon class="cls-75" points="15.06 31.25 15.38 31.07 14.88 31.36 14.57 31.54 15.06 31.25"/>
              <polygon class="cls-59" points="17.19 33.05 17.5 32.87 15.38 31.07 15.06 31.25 17.19 33.05"/>
              <polygon class="cls-4" points="17.19 33.05 14.57 31.54 15.06 32.39 17.19 33.05"/>
              <polygon class="cls-86" points="15.06 31.25 14.57 31.54 17.19 33.05 15.06 31.25"/>
              <polygon class="cls-71" points="14.57 31.54 14.88 31.36 14.89 28.34 14.57 28.52 14.57 31.54"/>
              <polygon class="cls-88" points="14.57 28.52 14.07 30.68 14.57 31.54 14.57 28.52"/>
              <polygon class="cls-84" points="15.06 31.25 14.57 28.52 14.57 31.54 15.06 31.25"/>
              <polygon class="cls-17" points="15.06 31.25 15.38 31.07 14.89 28.34 14.57 28.52 15.06 31.25"/>
            </g>
          </g>
          <g>
            <g>
              <g class="cls-96">
                <g class="cls-96">
                  <g class="cls-96">
                    <path class="cls-51" d="m22.33,38.52l-.42-.24c.14.08.32.07.53-.05l.42.24c-.21.12-.39.13-.53.05h0Z"/>
                  </g>
                </g>
                <g class="cls-96">
                  <g class="cls-96">
                    <path class="cls-51" d="m22.86,38.47l-.42-.24c.41-.24.74-.81.74-1.28,0-.24-.09-.4-.22-.48l.42.24c.14.08.22.24.22.48,0,.47-.33,1.05-.74,1.28h0Z"/>
                  </g>
                </g>
                <g class="cls-96">
                  <g class="cls-96">
                    <path class="cls-51" d="m22.85,36.07l-.42-.24c.36-.21.69-.23.93-.09l.42.24c-.24-.14-.56-.12-.93.09h0Z"/>
                  </g>
                </g>
                <path class="cls-78" d="m22.85,36.07c.73-.42,1.32-.07,1.31.77,0,1.44-1.18,3.34-1.3,3.54,0,0,0,.02-.01.02-.03-.01-1.3-.56-1.3-2.07,0-.84.59-1.85,1.3-2.27Zm0,2.41c.41-.24.74-.81.74-1.28,0-.24-.08-.4-.22-.48-.13-.08-.32-.07-.53.05-.41.24-.74.81-.74,1.28,0,.47.34.66.75.42h0Z"/>
                <g class="cls-96">
                  <g class="cls-96">
                    <path class="cls-51" d="m22.69,40.32l-.42-.24c-.35-.2-1.14-.8-1.14-1.98,0-.84.58-1.85,1.3-2.27l.42.24c-.72.42-1.3,1.43-1.3,2.27,0,1.19.79,1.78,1.14,1.98h0Z"/>
                  </g>
                </g>
              </g>
              <path class="cls-86" d="m22.86,36.51c-.53.31-.96,1.06-.96,1.67s.43.86.96.56c.27-.15.51-.42.68-.72.18-.3.28-.64.28-.95,0-.62-.43-.86-.96-.56Zm0,1.97c-.41.24-.74.04-.74-.43s.33-1.05.74-1.28c.2-.12.39-.13.52-.05.13.08.22.24.22.48,0,.47-.33,1.05-.74,1.28Z"/>
              <path class="cls-78" d="m23.25,41.12c0-.31-.25-.56-.55-.56s-.56.25-.56.56.25.56.56.56.55-.25.55-.56Z"/>
            </g>
            <g>
              <g class="cls-96">
                <g class="cls-96">
                  <g class="cls-96">
                    <path class="cls-51" d="m22.33,38.52l-.42-.24c.14.08.32.07.53-.05l.42.24c-.21.12-.39.13-.53.05h0Z"/>
                  </g>
                </g>
                <g class="cls-96">
                  <g class="cls-96">
                    <path class="cls-51" d="m22.86,38.47l-.42-.24c.41-.24.74-.81.74-1.28,0-.24-.09-.4-.22-.48l.42.24c.14.08.22.24.22.48,0,.47-.33,1.05-.74,1.28h0Z"/>
                  </g>
                </g>
                <g class="cls-96">
                  <g class="cls-96">
                    <path class="cls-51" d="m22.85,36.07l-.42-.24c.36-.21.69-.23.93-.09l.42.24c-.24-.14-.56-.12-.93.09h0Z"/>
                  </g>
                </g>
                <path class="cls-78" d="m22.85,36.07c.73-.42,1.32-.07,1.31.77,0,1.44-1.18,3.34-1.3,3.54,0,0,0,.02-.01.02-.03-.01-1.3-.56-1.3-2.07,0-.84.59-1.85,1.3-2.27Zm0,2.41c.41-.24.74-.81.74-1.28,0-.24-.08-.4-.22-.48-.13-.08-.32-.07-.53.05-.41.24-.74.81-.74,1.28,0,.47.34.66.75.42h0Z"/>
                <g class="cls-96">
                  <g class="cls-96">
                    <path class="cls-51" d="m22.69,40.32l-.42-.24c-.35-.2-1.14-.8-1.14-1.98,0-.84.58-1.85,1.3-2.27l.42.24c-.72.42-1.3,1.43-1.3,2.27,0,1.19.79,1.78,1.14,1.98h0Z"/>
                  </g>
                </g>
              </g>
              <path class="cls-86" d="m22.86,36.51c-.53.31-.96,1.06-.96,1.67s.43.86.96.56c.27-.15.51-.42.68-.72.18-.3.28-.64.28-.95,0-.62-.43-.86-.96-.56Zm0,1.97c-.41.24-.74.04-.74-.43s.33-1.05.74-1.28c.2-.12.39-.13.52-.05.13.08.22.24.22.48,0,.47-.33,1.05-.74,1.28Z"/>
              <path class="cls-86" d="m23.09,40.95c0-.12-.09-.21-.21-.21s-.21.09-.21.21.09.21.21.21.21-.09.21-.21Z"/>
            </g>
          </g>
        </g>
      </g>
    </g>
  </g>
</svg>