<?xml version="1.0" encoding="UTF-8"?>
<svg id="Layer_1" data-name="Layer 1" xmlns="http://www.w3.org/2000/svg" xmlns:xlink="http://www.w3.org/1999/xlink" viewBox="0 0 90 120">
  <defs>
    <style>
      .cls-1, .cls-2, .cls-3, .cls-4, .cls-5, .cls-6, .cls-7, .cls-8, .cls-9, .cls-10, .cls-11, .cls-12, .cls-13, .cls-14, .cls-15, .cls-16, .cls-17, .cls-18, .cls-19, .cls-20, .cls-21, .cls-22, .cls-23, .cls-24 {
        stroke-width: 0px;
      }

      .cls-1, .cls-12 {
        opacity: .3;
      }

      .cls-2 {
        fill: url(#linear-gradient);
      }

      .cls-3 {
        opacity: .8;
      }

      .cls-3, .cls-19 {
        fill: #fff;
      }

      .cls-4 {
        opacity: .5;
      }

      .cls-4, .cls-10, .cls-13 {
        fill: #5274b8;
      }

      .cls-5 {
        fill: url(#linear-gradient-2);
        opacity: .9;
      }

      .cls-25 {
        opacity: .4;
      }

      .cls-6 {
        fill: url(#linear-gradient-4);
      }

      .cls-7 {
        fill: url(#linear-gradient-3);
      }

      .cls-8 {
        fill: url(#linear-gradient-5);
      }

      .cls-9 {
        fill: url(#linear-gradient-6);
      }

      .cls-10, .cls-11 {
        opacity: .6;
      }

      .cls-11, .cls-20 {
        fill: #ebebeb;
      }

      .cls-12, .cls-14 {
        fill: #263238;
      }

      .cls-15 {
        fill: #ce5b51;
      }

      .cls-16 {
        fill: #e0e0e0;
      }

      .cls-17 {
        fill: #bb2526;
      }

      .cls-18 {
        fill: #f1f0f0;
      }

      .cls-21 {
        fill: #fafbfb;
      }

      .cls-22 {
        fill: #e6e6e6;
      }

      .cls-23 {
        fill: #f5f5f5;
      }

      .cls-24 {
        opacity: .2;
      }
    </style>
    <linearGradient id="linear-gradient" x1="42.45" y1="74.51" x2="72.27" y2="74.51" gradientUnits="userSpaceOnUse">
      <stop offset="0" stop-color="#454097"/>
      <stop offset="1" stop-color="#36bdb3"/>
    </linearGradient>
    <linearGradient id="linear-gradient-2" x1="55.04" y1="50.31" x2="62.1" y2="50.31" xlink:href="#linear-gradient"/>
    <linearGradient id="linear-gradient-3" x1="17.84" y1="46.35" x2="23.32" y2="46.35" xlink:href="#linear-gradient"/>
    <linearGradient id="linear-gradient-4" x1="17.84" y1="46.35" x2="23.32" y2="46.35" xlink:href="#linear-gradient"/>
    <linearGradient id="linear-gradient-5" x1="20.64" y1="50.63" x2="32.27" y2="50.63" xlink:href="#linear-gradient"/>
    <linearGradient id="linear-gradient-6" x1="28.18" y1="46.71" x2="34.38" y2="46.71" xlink:href="#linear-gradient"/>
  </defs>
  <g>
    <rect class="cls-20" x="-16" y="101.48" width="121.61" height=".06"/>
    <rect class="cls-20" x="-3.24" y="103.8" width="5.16" height=".06"/>
    <rect class="cls-20" x="25.62" y="103.14" width="20.67" height=".06"/>
    <rect class="cls-20" x=".45" y="106.06" width="9.27" height=".06"/>
    <rect class="cls-20" x="82.91" y="105.65" width="10.51" height=".06"/>
    <rect class="cls-20" x="79.21" y="105.65" width="2.91" height=".06"/>
    <rect class="cls-20" x="68.61" y="104.62" width="5.59" height=".06"/>
    <rect class="cls-20" x="54.01" y="104.62" width="11.78" height=".06"/>
    <path class="cls-20" d="m41.64,90.63H-5.32c-.77,0-1.39-.62-1.39-1.39V23.23c0-.77.62-1.39,1.39-1.39h46.96c.77,0,1.39.62,1.39,1.39v66.02c0,.77-.62,1.39-1.39,1.39ZM-5.32,21.9c-.73,0-1.33.6-1.33,1.33v66.02c0,.73.6,1.33,1.33,1.33h46.96c.73,0,1.33-.6,1.33-1.33V23.23c0-.73-.6-1.33-1.33-1.33H-5.32Z"/>
    <path class="cls-20" d="m94.25,90.63h-46.96c-.77,0-1.39-.62-1.39-1.39V23.23c0-.77.62-1.39,1.39-1.39h46.96c.77,0,1.39.62,1.39,1.39v66.02c0,.77-.62,1.39-1.39,1.39ZM47.28,21.9c-.73,0-1.33.6-1.33,1.33v66.02c0,.73.6,1.33,1.33,1.33h46.96c.73,0,1.33-.6,1.33-1.33V23.23c0-.73-.6-1.33-1.33-1.33h-46.96Z"/>
  </g>
  <g>
    <g>
      <g>
        <rect class="cls-18" x="85.25" y="64.23" width="5.84" height="36.01" transform="translate(176.34 164.46) rotate(180)"/>
        <rect class="cls-18" x="53.29" y="100.23" width="37.2" height="1.24" transform="translate(143.78 201.71) rotate(180)"/>
        <rect class="cls-23" x="52.77" y="64.23" width="32.48" height="36.01"/>
        <rect class="cls-18" x="53.82" y="82.98" width="30.38" height="6.43"/>
        <rect class="cls-18" x="53.82" y="91.39" width="30.38" height="6.43"/>
        <rect class="cls-23" x="56.38" y="82.58" width="25.26" height=".88" rx=".29" ry=".29" transform="translate(138.02 166.05) rotate(180)"/>
        <rect class="cls-23" x="56.38" y="91" width="25.26" height=".88" rx=".29" ry=".29" transform="translate(138.02 182.88) rotate(180)"/>
        <rect class="cls-18" x="53.82" y="66.21" width="30.38" height="6.43"/>
        <rect class="cls-18" x="53.82" y="74.56" width="30.38" height="6.43"/>
        <rect class="cls-23" x="56.38" y="65.82" width="25.26" height=".88" rx=".29" ry=".29" transform="translate(138.02 132.52) rotate(180)"/>
        <rect class="cls-23" x="56.38" y="74.17" width="25.26" height=".88" rx=".29" ry=".29" transform="translate(138.02 149.22) rotate(180)"/>
      </g>
      <g>
        <g>
          <path class="cls-16" d="m73.08,57.35c.11,1.28-.85,2.4-2.13,2.51s-2.4-.85-2.51-2.13c-.11-1.28.85-2.4,2.13-2.51,1.28-.11,2.4.85,2.51,2.13Z"/>
          <path class="cls-16" d="m69.13,58.9c.08.96-.63,1.8-1.59,1.88s-1.8-.63-1.88-1.59c-.08-.96.63-1.8,1.59-1.88.96-.08,1.8.63,1.88,1.59Z"/>
          <circle class="cls-16" cx="63.82" cy="58.87" r="2.26"/>
          <path class="cls-16" d="m75.21,58.9c.08.96-.63,1.8-1.59,1.88s-1.8-.63-1.88-1.59c-.08-.96.63-1.8,1.59-1.88.96-.08,1.8.63,1.88,1.59Z"/>
          <path class="cls-16" d="m63.57,58.9c.08.96-.63,1.8-1.59,1.88s-1.8-.63-1.88-1.59c-.08-.96.63-1.8,1.59-1.88.96-.08,1.8.63,1.88,1.59Z"/>
          <path class="cls-16" d="m76.53,58.4c.06.68-.45,1.28-1.13,1.33-.68.06-1.28-.45-1.33-1.13s.45-1.28,1.13-1.33,1.28.45,1.33,1.13Z"/>
          <path class="cls-16" d="m80.01,58.5c.08.96-.63,1.8-1.59,1.88-.96.08-1.8-.63-1.88-1.59s.63-1.8,1.59-1.88c.96-.08,1.8.63,1.88,1.59Z"/>
        </g>
        <path class="cls-18" d="m82,58.91s-.3,5.32-11.75,5.32-11.75-5.32-11.75-5.32h23.5Z"/>
      </g>
    </g>
    <g>
      <polygon class="cls-18" points="6.86 53.3 37.44 53.3 35.54 101.49 4.95 101.49 6.86 53.3"/>
      <polygon class="cls-23" points="6.42 53.3 37 53.3 35.09 101.49 4.51 101.49 6.42 53.3"/>
      <path class="cls-21" d="m13.66,62.13c3.76-5.46,13.23-2.75,14.53,2.75,1.3,5.5-2.67,18.4-10.6,16.74-7.93-1.66-10.94-9.32-3.93-19.49Z"/>
      <path class="cls-21" d="m27.12,92.7c-1.93,1.81-5.39-.06-5.43-2.31-.04-2.25,2.61-6.95,5.56-5.62,2.95,1.32,3.47,4.57-.13,7.94Z"/>
    </g>
    <g>
      <rect class="cls-22" x="5.01" y="25.54" width="81.28" height="19.37" transform="translate(91.31 70.45) rotate(180)"/>
      <rect class="cls-18" x="4.11" y="25.54" width="81.76" height="19.37" transform="translate(89.99 70.45) rotate(180)"/>
      <rect class="cls-22" x="5.01" y="44.91" width="81.28" height=".44" transform="translate(91.31 90.26) rotate(180)"/>
      <rect class="cls-18" x="2.61" y="44.91" width="81.76" height=".44" transform="translate(86.98 90.26) rotate(180)"/>
      <rect class="cls-21" x="36.57" y="-4.39" width="16.84" height="79.23" transform="translate(80.22 -9.77) rotate(90)"/>
      <polygon class="cls-19" points="34.67 43.65 31.15 26.8 25.66 26.8 29.18 43.65 34.67 43.65"/>
      <polygon class="cls-19" points="72.65 43.65 69.13 26.8 63.64 26.8 67.16 43.65 72.65 43.65"/>
      <path class="cls-18" d="m84.02,42.39s.09-.04.09-.09v-14.67s-.04-.09-.09-.09-.09.04-.09.09v14.67s.04.09.09.09Z"/>
      <polygon class="cls-19" points="28 43.65 24.48 26.8 22.34 26.8 25.86 43.65 28 43.65"/>
      <rect class="cls-22" x="-2.97" y="35.14" width="16.84" height=".16" transform="translate(40.68 29.77) rotate(90)"/>
      <polygon class="cls-11" points="3.81 28.71 85.09 28.71 85.21 27.29 3.93 27.29 3.81 28.71"/>
      <polygon class="cls-11" points="3.81 29.51 85.09 29.51 85.21 28.09 3.93 28.09 3.81 29.51"/>
      <polygon class="cls-11" points="3.81 30.3 85.09 30.3 85.21 28.89 3.93 28.89 3.81 30.3"/>
      <polygon class="cls-11" points="3.81 31.1 85.09 31.1 85.21 29.69 3.93 29.69 3.81 31.1"/>
      <polygon class="cls-11" points="3.81 31.9 85.09 31.9 85.21 30.48 3.93 30.48 3.81 31.9"/>
      <polygon class="cls-11" points="3.81 32.7 85.09 32.7 85.21 31.28 3.93 31.28 3.81 32.7"/>
    </g>
  </g>
  <g>
    <g>
      <path class="cls-13" d="m72.56,109.71h-31.44c-1.96,0-3.49-1.6-3.4-3.55l2.86-67.02c.08-1.96,1.75-3.55,3.71-3.55h31.44c1.96,0,3.49,1.6,3.4,3.55l-2.86,67.02c-.08,1.96-1.75,3.55-3.71,3.55Z"/>
      <path class="cls-13" d="m77.78,62.27h-.22c-.44,0-.78-.36-.76-.8l.54-12.6c.02-.44.39-.8.83-.8h.22c.44,0,.78.36.76.8l-.54,12.6c-.02.44-.39.8-.83.8Z"/>
      <path class="cls-14" d="m39.8,52.93h-.55c-.35,0-.62-.28-.6-.63l.15-3.6c.01-.35.31-.63.66-.63h.55c.35,0,.62.28.6.63l-.15,3.6c-.01.35-.31.63-.66.63Z"/>
      <path class="cls-14" d="m39.53,59.36h-.55c-.35,0-.62-.28-.6-.63l.15-3.6c.01-.35.31-.63.66-.63h.55c.35,0,.62.28.6.63l-.15,3.6c-.01.35-.31.63-.66.63Z"/>
      <g>
        <path class="cls-14" d="m71.71,109.71h-31.44c-1.96,0-3.49-1.6-3.4-3.55l2.86-67.02c.08-1.96,1.75-3.55,3.71-3.55h31.44c1.96,0,3.49,1.6,3.4,3.55l-2.86,67.02c-.08,1.96-1.75,3.55-3.71,3.55Z"/>
        <path class="cls-10" d="m71.71,109.71h-31.44c-1.96,0-3.49-1.6-3.4-3.55l2.86-67.02c.08-1.96,1.75-3.55,3.71-3.55h31.44c1.96,0,3.49,1.6,3.4,3.55l-2.86,67.02c-.08,1.96-1.75,3.55-3.71,3.55Z"/>
      </g>
      <path class="cls-4" d="m58.58,105.19c-.06,1.32-1.17,2.39-2.49,2.39s-2.35-1.07-2.29-2.39c.06-1.32,1.17-2.39,2.49-2.39s2.35,1.07,2.29,2.39Z"/>
      <path class="cls-3" d="m73.97,101.01h-35.21c-.46,0-.81-.37-.79-.82l2.45-57.41c.02-.46.4-.82.86-.82h35.21c.46,0,.81.37.79.82l-2.45,57.41c-.02.46-.4.82-.86.82Z"/>
      <path class="cls-4" d="m52.18,38.73c.02-.54.48-.97,1.01-.97s.95.43.93.97c-.02.54-.48.97-1.01.97s-.95-.43-.93-.97Z"/>
      <path class="cls-4" d="m56.53,37.76h8.05c.53,0,.95.44.93.97h0c-.02.53-.48.97-1.01.97h-8.05c-.53,0-.95-.44-.93-.97h0c.02-.53.48-.97,1.01-.97Z"/>
    </g>
    <g>
      <g>
        <ellipse class="cls-19" cx="57.37" cy="74.66" rx="15.23" ry="14.59" transform="translate(-35.86 61.44) rotate(-44.39)"/>
        <g>
          <polygon class="cls-13" points="59.93 72.26 60.17 72.26 60.7 71.99 61.11 71.99 61.47 72.16 61.85 72.16 62 72.07 62.01 71.83 61.8 71.73 61.5 71.42 61.51 71.12 61.27 71.12 61.06 71.31 60.79 71.03 60.48 71.03 59.97 71.88 60.08 72.08 59.91 72.19 59.93 72.26"/>
          <polygon class="cls-13" points="63.05 72.49 63.04 72.78 63.3 73.06 63.83 73.06 63.86 72.5 63.74 72.5 63.76 71.97 63.54 71.73 63.55 71.37 63.79 71.37 63.8 71.05 63.46 71 62.9 71.55 62.88 71.85 63.2 72.18 63.19 72.35 63.05 72.49"/>
          <path class="cls-13" d="m44.57,80.47l-.97-1.02.03-.75.81-.77.02-.39-.41-.43h-.81l.02-.41-.77-.36c.18,2.63,1.06,5.05,2.45,7.09l.31-1.81-.7-.73.02-.41Z"/>
          <path class="cls-2" d="m72.27,74.88l-.81.36h-.28l-.3.29v.26s.39.42.39.42l-.02.52-.63.4v-.16s-.44-.47-.44-.47h-.28l-.03.6.49.66-.02.38.12.13h-.17l-.34-.44v-.32s-.21-.3-.21-.3l.03-.68-.15-.68h-.08l-.16.15h-.14l.02-.44-.32-.33v-.24s-.07,0-.07,0l-.18.18h-.37l-1.02.97-.02.55-.3.53-.2-.09-.3-.74-.17-.95-.33-.13-.54-.85h-1.25l-.11-.13h-.5l-.37-.26-.1-.33h-.25l-.11.08.22.62.39.48.42-.4h.11l.06.18.38.33-.29.34-.05.21-.76.55-1.31.43-.07-.74-.44-.57-.24-.67-.49-.68v.16s.44,1.66.44,1.66l.79,1.23.89-.14-.02.54-.46.7-1.27,1.16-.02.57.22.99-.81.87-.03.6-.75.92v.21s-1.02.57-1.02.57h-.47l-.15-.26-.56-2.52.02-.58.13-.18.02-.52-.53-1.25v-.33s.14-.08.14-.08v-.31s-.08-.15-.08-.15h-.47l-.22-.29h-.59l-.78.14h-.94l-.8-1.29.06-1.31,1.72-2.11,1.05-.29h1.13l.08.56,1.13.49.26-.25h.62l.18.19h1.07s0,0,0,0l.35-.61v-.29s-.07-.08-.07-.08h-.12l-.09.08h-.19l-.09-.1h-.16l-.1.09h-.13l-.1-.11-.23-.24.02-.49h-.36l-.16.08.06.38-.16.07v.18s-.12-.06-.12-.06l-.27-.58v-.28s-.35-.24-.35-.24l-.45-.47h-.18v.21s.23.21.23.21l.02.16.54.41-.05.11-.02-.11h-.14l.02.18-.26.27-.08.19-.23-.24h.29l.13-.12v-.23s-.71-.57-.71-.57l-.06-.2h-.26l-.26.2h-.22l-.15-.07-.24.15v.15s-.4.38-.4.38v.2s-.33.33-.33.33h-.28l-.13.08h-.15l-.07-.11-.34-.07.02-.45.21-.2v-.39s.94,0,.94,0l.05-.58-.4-.37,1.54-1.01.4-.17.02-.53.22-.21-.03.68.8-.11h.7l.02-.52.16-.16.1.11h.14l.02-.42h.54l.2-.19h-.88l-.18-.19.02-.46.51-.49v-.24s-.37,0-.37,0l-.92.89-.05,1.25-.43.16-.25-.63-.55.22-.21-.22.03-.59,1.59-1.87,1.73-.51,1.51.81-.28.27h-.92l.74.77.85-.49,2.98-.92,3.34-1.41c-2.59-2.81-6.32-4.56-10.54-4.56-2.38,0-4.64.56-6.68,1.55l.69-.07,2.18.64-1.22,3.65-1.62.66-1.1.54-.39,1.26-.88-.33-.61-1.36.18-.42-.48-2.07-.36-.07c-.62.55-1.2,1.15-1.72,1.79l.81.74-.45,1.25-1.01-.67.22-.46-.13-.14c-.68.94-1.27,1.95-1.73,3.03l.48.29.6-.58.06-1.48,1.95.87,1.02,1.27-.46.44h-.93l.26.86-2.69,2.52.31.78-.19.18-.57-.6h-1.03c-.03.28-.05.56-.06.84-.01.31-.02.62-.01.92h.04l.31-.3h.45l-.25.24-.03.63h.55l.17.68h.44l.43.45.47-.46,2.76,1.04.3.67,1.02.49.64.04.7.6-.68,1.08-.38,1.23-1.01.39-2.21,2.62c1.96,2.14,4.58,3.66,7.56,4.28l.22-.11,2.1-.15,1.42-.12.46-.24,1.18.04.88.23-.21.08.35.17c5.25-1.21,9.57-5.13,11.32-10.2h-.01l-.29-.54.59-.38c.28-1.02.46-2.09.52-3.18Zm-7.92-10.88l1.28-.45h.58l-1.69.75-.37.6.35.42-.45-.06-.25-.4.55-.86Zm-4.25-1.52l-.39.17-.81-.27,1.19.09Zm-1.54,0l.86.38.42.28-.48.08-.11-.28-.27-.07-.37.64-.55-.7-.07-.24.57-.09Zm-13.68,13.02l-.25-.05-1-.41.22-.09,1.04.35v.2Zm.68.26h-.53l.15-.26.59.06-.21.2Zm9.66-7.26l.29-.14.24.5.45.86-.89.35.19-.86-.31-.31.04-.41Zm-.55.65h.5l-.11.55h-.44l.06-.55Zm-1.06-2.1l-.21.06-.39-.08-.08-.23.1-.11.81-.19.41.19-.08.15-.43.05-.11.14Zm8.89,14.66l-.42.74h-.28l-.12-.13.02-.54.14-.14-.09-.09.03-.48.55-.29.22-.34.06.37-.12.89Zm8.14-2.36h-.29l-.67-.96-.42-.64.34.03,1.04,1.17-.02.4Z"/>
          <path class="cls-12" d="m62.88,83.67l-1.52,5.17c.66-.21,1.3-.46,1.91-.75l-.4-4.42Z"/>
        </g>
      </g>
      <path class="cls-5" d="m55.05,49.23c.09-2.09,1.74-3.79,3.69-3.79s3.45,1.7,3.37,3.79c-.16,3.81-3.78,5.94-3.78,5.94,0,0-3.44-2.13-3.27-5.94Z"/>
      <path class="cls-19" d="m70.37,91.5l-7.49-7.82-.47,11.07,2.65-2.54.78,2.09c.17.47.7.69,1.18.5h0c.48-.19.72-.73.55-1.2l-.78-2.09h3.59Z"/>
    </g>
  </g>
  <g>
    <path class="cls-15" d="m22.48,45.28c-.45,1.24-.9,2.51-1.34,3.76-.22.63-.43,1.25-.63,1.88-.2.62-.39,1.25-.54,1.85-.08.3-.14.6-.18.86-.02.13-.03.23-.04.33,0,.11,0,.23,0,.37.03.54.16,1.17.3,1.79.29,1.25.67,2.54,1.05,3.81l-1.3.61c-.75-1.19-1.39-2.41-1.92-3.73-.26-.67-.5-1.35-.65-2.15-.04-.2-.06-.41-.08-.64-.01-.24,0-.48.01-.68.04-.41.09-.78.16-1.14.28-1.43.66-2.75,1.07-4.06.42-1.31.87-2.6,1.38-3.89l2.7,1.03Z"/>
    <path class="cls-15" d="m20.7,59.31l1.08,1.4-2,.94s-.57-.92-.23-1.78l1.14-.56Z"/>
    <polygon class="cls-15" points="22.44 61.91 20.99 62.81 19.79 61.64 21.78 60.7 22.44 61.91"/>
    <path class="cls-14" d="m29.4,36.12c-.02.15.05.29.15.3.1.01.19-.1.21-.26.02-.15-.05-.29-.15-.3-.1-.01-.19.1-.21.26Z"/>
    <path class="cls-17" d="m29.43,36.4s.25.92.59,1.39c-.3.22-.75.06-.75.06l.16-1.45Z"/>
    <path class="cls-14" d="m28.93,35.21s-.04-.02-.05-.04c-.02-.04,0-.1.03-.12.44-.25.81-.06.82-.05.04.02.06.08.04.12-.02.04-.08.06-.12.04h0s-.3-.15-.65.05c-.02.01-.05.01-.07,0Z"/>
    <path class="cls-15" d="m24.49,37.25c.27,1.4.55,3.96-.43,4.89,0,0,.38,1.42,2.98,1.42,2.85,0,1.36-1.42,1.36-1.42-1.56-.37-1.52-1.53-1.25-2.61l-2.67-2.28Z"/>
    <path class="cls-14" d="m23.23,42.86c-.26-.17.08-1.06.34-1.22.68-.41,3.71-.55,4.98.25.4.46.24,1.05.24,1.05l-5.56-.08Z"/>
    <path class="cls-13" d="m16.18,107.61c.19.03.39.03.47-.05.04-.03.07-.1.03-.21-.02-.06-.06-.1-.12-.13-.26-.11-.84.16-.87.17-.02,0-.03.02-.03.04,0,.02.01.03.03.04.09.04.29.1.48.13Zm.3-.32s.04,0,.05.01c.04.02.06.04.07.07.03.08,0,.11-.01.12-.1.09-.48.03-.76-.06.18-.07.47-.17.64-.14Z"/>
    <path class="cls-13" d="m15.7,107.48s.01,0,.02,0c.21-.07.66-.42.65-.64,0-.04-.02-.11-.12-.14-.07-.02-.13-.01-.2.03-.25.14-.38.68-.39.7,0,.02,0,.03.01.04,0,0,.01,0,.02.01Zm.51-.7s.01,0,.02,0c.06.02.06.04.06.06,0,.13-.29.4-.51.52.05-.16.16-.46.32-.55.04-.02.07-.03.11-.02Z"/>
    <path class="cls-13" d="m29.14,107.86c.25,0,.48-.03.56-.14.03-.04.05-.1,0-.2-.03-.05-.08-.09-.14-.11-.32-.09-.99.29-1.01.31-.02,0-.03.03-.02.05,0,.02.02.03.04.04.12.02.36.05.59.05Zm.3-.37s.06,0,.09.01c.04.01.07.03.09.06.03.06.02.08,0,.1-.09.12-.57.13-.93.08.18-.09.52-.25.74-.25Z"/>
    <path class="cls-13" d="m28.56,107.81s.01,0,.02,0c.23-.1.69-.52.65-.73,0-.05-.04-.11-.17-.13-.09,0-.18.02-.25.08-.24.2-.29.71-.3.74,0,.02,0,.03.02.04,0,0,.02,0,.03,0Zm.47-.77s.02,0,.03,0c.08,0,.09.04.09.05.02.13-.29.45-.52.6.02-.15.09-.46.25-.59.05-.04.1-.06.16-.06Z"/>
    <polygon class="cls-15" points="26.46 107.76 28.37 107.76 28.56 103.34 26.65 103.34 26.46 107.76"/>
    <polygon class="cls-15" points="13.57 107.08 15.48 107.39 16.83 103.19 14.92 102.87 13.57 107.08"/>
    <path class="cls-14" d="m15.61,107.2l-2.12-.35c-.08-.01-.15.03-.18.1l-.65,1.61c-.07.17.04.35.22.38.74.11,1.11.13,2.04.28.57.09,2.03.43,2.83.49.78.05.96-.73.63-.83-1.45-.42-2.09-1.02-2.49-1.52-.07-.09-.17-.15-.29-.17Z"/>
    <path class="cls-14" d="m28.36,107.54h-2.09c-.08,0-.15.05-.16.13l-.38,1.7c-.04.18.09.34.27.34.75-.01,1.84-.06,2.79-.06,1.11,0,1.57.06,2.87.06.78,0,1-.79.67-.86-1.49-.33-2.23-.36-3.52-1.16-.14-.09-.3-.15-.46-.15Z"/>
    <g>
      <path class="cls-7" d="m20.64,42.57c-1.74.57-2.79,5.26-2.79,5.26l3.83,2.4s1.2-1.36,1.57-3.69c.39-2.44-.83-4.55-2.61-3.97Z"/>
      <g class="cls-25">
        <path class="cls-6" d="m20.64,42.57c-1.74.57-2.79,5.26-2.79,5.26l3.83,2.4s1.2-1.36,1.57-3.69c.39-2.44-.83-4.55-2.61-3.97Z"/>
      </g>
    </g>
    <path class="cls-24" d="m21.68,47.49c-.48.78-.75,1.52-.84,2.22l.84.52s1.01-1.15,1.47-3.15l-1.46.4Z"/>
    <g>
      <path class="cls-13" d="m31.34,42.67s2.03,2.3.11,16.51h-10.22c-.07-1.57.91-9.22-.6-16.61,0,0,1.75-.35,3.42-.43,1.31-.06,3.2-.1,4.34,0,1.51.14,2.94.53,2.94.53Z"/>
      <g class="cls-25">
        <path class="cls-8" d="m31.34,42.67s2.03,2.3.11,16.51h-10.22c-.07-1.57.91-9.22-.6-16.61,0,0,1.75-.35,3.42-.43,1.31-.06,3.2-.1,4.34,0,1.51.14,2.94.53,2.94.53Z"/>
      </g>
    </g>
    <path class="cls-24" d="m32.23,47.01l-.04-.03-2.32.56c-.13,1.57,1.48,3.45,2.31,4.31.11-2,.11-3.59.05-4.83Z"/>
    <g>
      <polygon class="cls-24" points="28.56 103.34 28.46 105.62 26.55 105.62 26.65 103.34 28.56 103.34"/>
      <polygon class="cls-24" points="14.92 102.88 16.83 103.19 16.13 105.36 14.22 105.04 14.92 102.88"/>
    </g>
    <path class="cls-15" d="m24.32,35.23c-.09,1.89-.24,3,.6,4.07,1.27,1.61,3.68,1,4.34-.82.59-1.65.64-4.46-1.12-5.42-1.73-.94-3.73.28-3.83,2.17Z"/>
    <path class="cls-14" d="m27.84,36.89c-.77,1.18-.34,1.57-.77,2.11s-3.31,1.31-3.34-.05c-.03-1.36-.58-2.01-1.18-2.55-.59-.54-.69-1.8.34-2.36,1.03-.57-.44-.84.19-1.76.93-1.35,2.21-1.8,3.28-.86,1.07.93,2.8,1.47,4.04.27,1.24-1.2,1.03,3.45-2.07,3.24,1.33,1.33-.89.68-.5,1.98Z"/>
    <path class="cls-14" d="m23.54,33.56c-.5.35-1.24-.82-1.06-1.45-.64.72-.48,1.93.82,1.96,1.3.03.25-.51.25-.51Z"/>
    <path class="cls-15" d="m27.23,36c-.06.49.08.99.3,1.34.33.53.81.32.98-.21.16-.48.17-1.34-.28-1.68-.45-.34-.93-.01-1,.55Z"/>
    <path class="cls-14" d="m27.82,59.18s-2.17,14.6-3.36,20.06c-1.3,5.99-7.34,25.8-7.34,25.8l-3.42-.74s3.93-16.15,5.03-24.52c.84-6.43,2.5-20.61,2.5-20.61h6.59Z"/>
    <path class="cls-13" d="m17.95,103.9s-.64,1.24-.64,1.24l-3.85-.83.32-1.16,4.16.75Z"/>
    <path class="cls-1" d="m26.45,64.38c-2.51.49-2.24,9.84-1.94,14.64.72-3.4,1.78-9.94,2.5-14.58-.17-.08-.35-.11-.56-.07Z"/>
    <path class="cls-14" d="m31.45,59.18s.79,14.28.59,20.1c-.22,6.06-2.86,25.89-2.86,25.89h-3.24s.41-19.48.27-25.43c-.16-6.49-2.1-20.57-2.1-20.57h7.35Z"/>
    <path class="cls-13" d="m29.79,103.89s-.18,1.34-.18,1.34h-3.94l-.11-1.2,4.22-.14Z"/>
    <path class="cls-15" d="m32.37,44.61c.55,1.27,1.14,2.58,1.76,3.84.62,1.26,1.27,2.5,2,3.62.18.28.37.54.56.79l.15.18c.05.06.06.08.11.13.08.09.2.19.31.3.47.42,1.04.84,1.6,1.25,1.14.82,2.33,1.64,3.5,2.47l-.66,1.27c-1.39-.52-2.73-1.11-4.05-1.81-.66-.35-1.31-.72-1.98-1.2-.17-.12-.33-.25-.51-.41-.08-.07-.19-.18-.27-.26l-.21-.23c-.27-.31-.52-.62-.76-.93-.93-1.26-1.68-2.55-2.37-3.87-.34-.66-.67-1.32-.98-2-.31-.68-.61-1.34-.89-2.05l2.68-1.09Z"/>
    <g>
      <path class="cls-13" d="m28.55,44.58c-1.47,2.18,1.98,6.16,1.98,6.16l3.86-2.69s-.29-1.79-1.31-3.92c-1.26-2.63-3.4-1.22-4.52.44Z"/>
      <g class="cls-25">
        <path class="cls-9" d="m28.55,44.58c-1.47,2.18,1.98,6.16,1.98,6.16l3.86-2.69s-.29-1.79-1.31-3.92c-1.26-2.63-3.4-1.22-4.52.44Z"/>
      </g>
    </g>
    <path class="cls-15" d="m41.21,56.93l2.37.34-.62,1.99s-1.69,0-2.19-1.3l.44-1.03Z"/>
    <polygon class="cls-15" points="44.32 57.9 43.81 59.54 42.96 59.26 43.58 57.27 44.32 57.9"/>
  </g>
</svg>