<?xml version="1.0" encoding="UTF-8"?>
<svg xmlns="http://www.w3.org/2000/svg" xmlns:xlink="http://www.w3.org/1999/xlink" viewBox="0 0 90 120">
  <defs>
    <style>
      .cls-1, .cls-2 {
        fill: url(#linear-gradient);
      }

      .cls-3 {
        clip-path: url(#clippath);
      }

      .cls-4 {
        fill: none;
      }

      .cls-4, .cls-2, .cls-5, .cls-6, .cls-7, .cls-8, .cls-9, .cls-10, .cls-11, .cls-12, .cls-13, .cls-14, .cls-15, .cls-16, .cls-17, .cls-18, .cls-19, .cls-20, .cls-21, .cls-22, .cls-23, .cls-24, .cls-25, .cls-26, .cls-27, .cls-28, .cls-29, .cls-30, .cls-31, .cls-32, .cls-33, .cls-34, .cls-35, .cls-36, .cls-37, .cls-38, .cls-39, .cls-40, .cls-41, .cls-42, .cls-43, .cls-44, .cls-45, .cls-46, .cls-47, .cls-48 {
        stroke-width: 0px;
      }

      .cls-5 {
        fill: url(#linear-gradient-28);
      }

      .cls-5, .cls-6, .cls-49 {
        opacity: .3;
      }

      .cls-5, .cls-6, .cls-49, .cls-50 {
        mix-blend-mode: multiply;
      }

      .cls-6 {
        fill: url(#linear-gradient-12);
      }

      .cls-7 {
        fill: url(#linear-gradient-38);
      }

      .cls-8 {
        fill: url(#linear-gradient-33);
      }

      .cls-9 {
        fill: url(#linear-gradient-29);
      }

      .cls-10 {
        fill: url(#linear-gradient-32);
      }

      .cls-11 {
        fill: url(#linear-gradient-30);
      }

      .cls-12 {
        fill: url(#linear-gradient-31);
      }

      .cls-13 {
        fill: url(#linear-gradient-36);
      }

      .cls-14 {
        fill: url(#linear-gradient-39);
      }

      .cls-15 {
        fill: url(#linear-gradient-34);
      }

      .cls-16 {
        fill: url(#linear-gradient-37);
      }

      .cls-17 {
        fill: url(#linear-gradient-35);
      }

      .cls-18 {
        fill: url(#linear-gradient-25);
      }

      .cls-19 {
        fill: url(#linear-gradient-11);
      }

      .cls-20 {
        fill: url(#linear-gradient-13);
      }

      .cls-21 {
        fill: url(#linear-gradient-10);
      }

      .cls-22 {
        fill: url(#linear-gradient-17);
      }

      .cls-23 {
        fill: url(#linear-gradient-16);
      }

      .cls-24 {
        fill: url(#linear-gradient-19);
      }

      .cls-25 {
        fill: url(#linear-gradient-15);
      }

      .cls-26 {
        fill: url(#linear-gradient-23);
      }

      .cls-27 {
        fill: url(#linear-gradient-21);
      }

      .cls-28 {
        fill: url(#linear-gradient-18);
      }

      .cls-29 {
        fill: url(#linear-gradient-14);
      }

      .cls-30 {
        fill: url(#linear-gradient-22);
      }

      .cls-31 {
        fill: url(#linear-gradient-20);
      }

      .cls-32 {
        fill: url(#linear-gradient-27);
      }

      .cls-33 {
        fill: url(#linear-gradient-24);
      }

      .cls-34 {
        fill: url(#linear-gradient-26);
      }

      .cls-35 {
        fill: url(#linear-gradient-42);
      }

      .cls-36 {
        fill: url(#linear-gradient-40);
      }

      .cls-37 {
        fill: url(#linear-gradient-41);
      }

      .cls-38, .cls-51, .cls-52, .cls-53, .cls-54 {
        mix-blend-mode: soft-light;
      }

      .cls-38, .cls-47 {
        fill: #fff;
      }

      .cls-55 {
        clip-path: url(#clippath-1);
      }

      .cls-56 {
        clip-path: url(#clippath-4);
      }

      .cls-57 {
        clip-path: url(#clippath-3);
      }

      .cls-58 {
        clip-path: url(#clippath-2);
      }

      .cls-59 {
        fill: url(#linear-gradient-3);
      }

      .cls-39 {
        fill: url(#linear-gradient-4);
      }

      .cls-40 {
        fill: url(#linear-gradient-2);
      }

      .cls-41 {
        fill: url(#linear-gradient-8);
      }

      .cls-42 {
        fill: url(#linear-gradient-9);
      }

      .cls-43 {
        fill: url(#linear-gradient-7);
      }

      .cls-44 {
        fill: url(#linear-gradient-5);
      }

      .cls-45 {
        fill: url(#linear-gradient-6);
      }

      .cls-60 {
        isolation: isolate;
      }

      .cls-50 {
        opacity: .2;
      }

      .cls-46 {
        fill: #d8dee8;
      }

      .cls-48 {
        fill: #f4f7fa;
      }

      .cls-52 {
        opacity: .8;
      }

      .cls-53 {
        opacity: .48;
      }

      .cls-54 {
        opacity: .5;
      }
    </style>
    <linearGradient id="linear-gradient" x1="26.48" y1="30.3" x2="7.04" y2="80.56" gradientUnits="userSpaceOnUse">
      <stop offset="0" stop-color="#ffc546"/>
      <stop offset="1" stop-color="#f36f56"/>
    </linearGradient>
    <clipPath id="clippath">
      <path class="cls-2" d="m22.49,85.56c4.63.84,15.86-16.68,10.89-27.38-2.07-4.46-5.92-5.48-6.91-10.96-.89-4.89,1.78-6.24,1.67-11.57-.17-7.5-5.7-16.3-11.79-16.44-3.06-.07-6.75,2.03-8.17,5.49-1.14,2.77.87,5.99-.05,6.46-.75.39-1.9-1.73-3.18-1.52-1.88.31-3.82,5.64-2.76,10.45,1.82,8.24,11.27,9.7,10.95,15.44-.21,3.65-4.12,4.31-3.97,8.12.14,3.35,3.22,4.37,6.77,8.95,5.55,7.16,4.06,12.52,6.55,12.97Z"/>
    </clipPath>
    <linearGradient id="linear-gradient-2" x1="-904.94" y1="-149.68" x2="-925.16" y2="-109.9" gradientTransform="translate(-901.56 14.34) rotate(-167.43) scale(1 -1)" gradientUnits="userSpaceOnUse">
      <stop offset="0" stop-color="#f58f86"/>
      <stop offset="1" stop-color="#ed72ac"/>
    </linearGradient>
    <linearGradient id="linear-gradient-3" x1="-377.36" y1="56.81" x2="-397.59" y2="96.58" gradientTransform="translate(-369.92) rotate(-180) scale(1 -1)" xlink:href="#linear-gradient-2"/>
    <linearGradient id="linear-gradient-4" x1="-377.36" y1="56.81" x2="-397.59" y2="96.58" gradientTransform="translate(-369.92) rotate(-180) scale(1 -1)" xlink:href="#linear-gradient-2"/>
    <clipPath id="clippath-1">
      <path class="cls-39" d="m29.56,93.94c1.54-7.5,1.32-13.32.87-17.11-.35-2.98-1.14-7.14-3.25-7.66-1.02-.25-1.59.52-2.65.21-2-.59-1.95-3.92-3.21-6.34-2.16-4.14-9.11-7.45-14.09-5-6,2.95-6.63,13.01-3.41,16.12,1.91,1.84,5.33,1.38,5.51,2.71.19,1.35-3.24,2.07-3.48,4.23-.25,2.23,3.11,4.26,3.31,4.38,4.07,2.39,7.27-.08,11.74,1.02,2.42.6,5.58,2.34,8.66,7.44Z"/>
    </clipPath>
    <clipPath id="clippath-2">
      <circle class="cls-4" cx="60.68" cy="48.13" r="26.21"/>
    </clipPath>
    <linearGradient id="linear-gradient-5" x1="67.7" y1="64.94" x2="49" y2="20.07" gradientUnits="userSpaceOnUse">
      <stop offset="0" stop-color="#454097"/>
      <stop offset="1" stop-color="#36bdb3"/>
    </linearGradient>
    <linearGradient id="linear-gradient-6" x1="58.48" y1="74.61" x2="58.48" y2="74.61" xlink:href="#linear-gradient-5"/>
    <linearGradient id="linear-gradient-7" x1="35.31" y1="48.6" x2="67.03" y2="48.6" xlink:href="#linear-gradient-5"/>
    <linearGradient id="linear-gradient-8" x1="70.82" y1="32.82" x2="85.11" y2="32.82" xlink:href="#linear-gradient-5"/>
    <linearGradient id="linear-gradient-9" x1="69.48" y1="50.55" x2="87.22" y2="50.55" xlink:href="#linear-gradient-5"/>
    <linearGradient id="linear-gradient-10" x1="74.75" y1="30.06" x2="76.59" y2="30.06" xlink:href="#linear-gradient-5"/>
    <linearGradient id="linear-gradient-11" x1="73.1" y1="30.91" x2="74.58" y2="30.91" xlink:href="#linear-gradient-5"/>
    <linearGradient id="linear-gradient-12" x1="34.23" y1="48.13" x2="87.14" y2="48.13" gradientUnits="userSpaceOnUse">
      <stop offset="0" stop-color="#d191c0"/>
      <stop offset="1" stop-color="#8172b4"/>
    </linearGradient>
    <linearGradient id="linear-gradient-13" x1="3081.53" y1="55.11" x2="3068.72" y2="76.76" gradientTransform="translate(-3022.49)" gradientUnits="userSpaceOnUse">
      <stop offset="0" stop-color="#ffc546"/>
      <stop offset=".31" stop-color="#faa94c"/>
      <stop offset="1" stop-color="#f36f56"/>
    </linearGradient>
    <linearGradient id="linear-gradient-14" x1="3093.26" y1="55.63" x2="3079.97" y2="78.09" xlink:href="#linear-gradient-13"/>
    <linearGradient id="linear-gradient-15" x1="3095.76" y1="72.33" x2="3077.26" y2="103.57" xlink:href="#linear-gradient-13"/>
    <linearGradient id="linear-gradient-16" x1="3079.23" y1="72.4" x2="3062" y2="101.49" xlink:href="#linear-gradient-13"/>
    <linearGradient id="linear-gradient-17" x1="-2772.93" y1="64.22" x2="-2773.31" y2="65.25" gradientTransform="translate(2838.85)" gradientUnits="userSpaceOnUse">
      <stop offset="0" stop-color="#454c8d"/>
      <stop offset="1" stop-color="#26274f"/>
    </linearGradient>
    <linearGradient id="linear-gradient-18" x1="-2775.3" y1="66.96" x2="-2772.82" y2="66.96" xlink:href="#linear-gradient-17"/>
    <linearGradient id="linear-gradient-19" x1="-2776.74" y1="69.79" x2="-2765.68" y2="69.79" gradientTransform="translate(2838.85)" gradientUnits="userSpaceOnUse">
      <stop offset="0" stop-color="#9681bc"/>
      <stop offset="1" stop-color="#6166ae"/>
    </linearGradient>
    <linearGradient id="linear-gradient-20" x1="-2774.19" y1="68.37" x2="-2772.2" y2="68.37" gradientTransform="translate(2838.85)" gradientUnits="userSpaceOnUse">
      <stop offset="0" stop-color="#321944"/>
      <stop offset="1" stop-color="#a13b77"/>
    </linearGradient>
    <linearGradient id="linear-gradient-21" x1="-2777.72" y1="67.03" x2="-2776.24" y2="67.03" xlink:href="#linear-gradient-20"/>
    <linearGradient id="linear-gradient-22" x1="-2764.02" y1="67.58" x2="-2755.29" y2="74.55" gradientTransform="translate(2838.85)" gradientUnits="userSpaceOnUse">
      <stop offset="0" stop-color="#321944"/>
      <stop offset="1" stop-color="#8a3a77"/>
    </linearGradient>
    <linearGradient id="linear-gradient-23" x1="-2764.01" y1="101.07" x2="-2760.06" y2="105.74" gradientTransform="translate(2838.85)" gradientUnits="userSpaceOnUse">
      <stop offset="0" stop-color="#454c8d"/>
      <stop offset="1" stop-color="#404278"/>
    </linearGradient>
    <linearGradient id="linear-gradient-24" x1="-2761.09" y1="101.58" x2="-2760.87" y2="104.77" xlink:href="#linear-gradient-22"/>
    <linearGradient id="linear-gradient-25" x1="-2766.48" y1="103.16" x2="-2762.53" y2="107.83" xlink:href="#linear-gradient-23"/>
    <linearGradient id="linear-gradient-26" x1="-2764.84" y1="101.85" x2="-2764.61" y2="105.04" xlink:href="#linear-gradient-22"/>
    <linearGradient id="linear-gradient-27" x1="-2767.46" y1="91.63" x2="-2759.96" y2="91.63" xlink:href="#linear-gradient-23"/>
    <linearGradient id="linear-gradient-28" x1="-2767.46" y1="91.63" x2="-2760.14" y2="91.63" xlink:href="#linear-gradient-23"/>
    <linearGradient id="linear-gradient-29" x1="-2768.64" y1="92.01" x2="-2759.89" y2="92.01" xlink:href="#linear-gradient-23"/>
    <linearGradient id="linear-gradient-30" x1="-2769.44" y1="74.86" x2="-2754.57" y2="74.86" xlink:href="#linear-gradient-19"/>
    <linearGradient id="linear-gradient-31" x1="-2767.35" y1="66.16" x2="-2763.55" y2="64.11" xlink:href="#linear-gradient-20"/>
    <linearGradient id="linear-gradient-32" x1="-2769.44" y1="75.05" x2="-2754.57" y2="75.05" xlink:href="#linear-gradient-19"/>
    <linearGradient id="linear-gradient-33" x1="-2761.98" y1="60.8" x2="-2764.84" y2="62.62" xlink:href="#linear-gradient-20"/>
    <linearGradient id="linear-gradient-34" x1="71.76" y1="71.17" x2="65.78" y2="87.08" gradientTransform="matrix(1,0,0,1,0,0)" xlink:href="#linear-gradient-19"/>
    <linearGradient id="linear-gradient-35" x1="224.92" y1="22.41" x2="270.21" y2="22.41" gradientTransform="translate(-215.38 34.16) rotate(2.13)" xlink:href="#linear-gradient-17"/>
    <linearGradient id="linear-gradient-36" x1="244.55" y1="33.27" x2="250.81" y2="15.9" gradientTransform="translate(-215.38 34.16) rotate(2.13)" xlink:href="#linear-gradient-17"/>
    <linearGradient id="linear-gradient-37" x1="246" y1="-15.11" x2="207.55" y2="89.03" gradientTransform="translate(-215.38 34.16) rotate(2.13)" xlink:href="#linear-gradient"/>
    <clipPath id="clippath-3">
      <path class="cls-4" d="m45.41,32.01l-31.18.69c-.81.02-1.41.7-1.34,1.52l5.88,65.75c.07.81.78,1.4,1.58,1.32l30.77-3c.75-.07,1.3-.76,1.23-1.54l-5.45-63.34c-.07-.79-.73-1.42-1.49-1.4Z"/>
    </clipPath>
    <linearGradient id="linear-gradient-38" x1="-99.19" y1="17.02" x2="-68.79" y2="71.18" gradientTransform="translate(112.7 -1.54) skewX(5.15)" xlink:href="#linear-gradient-2"/>
    <clipPath id="clippath-4">
      <polygon class="cls-4" points="52.5 98.44 18.93 101.72 14.2 48.79 48.11 47.44 52.5 98.44"/>
    </clipPath>
    <linearGradient id="linear-gradient-39" x1="-97.59" y1="41.74" x2="-73.59" y2="103.57" gradientTransform="translate(112.7 -1.54) skewX(5.15)" xlink:href="#linear-gradient-19"/>
    <linearGradient id="linear-gradient-40" x1="31.45" y1="55.74" x2="40.58" y2="79.26" gradientTransform="matrix(1,0,0,1,0,0)" xlink:href="#linear-gradient-19"/>
    <linearGradient id="linear-gradient-41" x1="28.18" y1="57.01" x2="37.31" y2="80.53" gradientTransform="matrix(1,0,0,1,0,0)" xlink:href="#linear-gradient-19"/>
    <linearGradient id="linear-gradient-42" x1="35" y1="73.78" x2="29.07" y2="82.78" gradientTransform="matrix(1,0,0,1,0,0)" xlink:href="#linear-gradient-19"/>
  </defs>
  <g class="cls-60">
    <g id="Layer_1" data-name="Layer 1">
      <g>
        <path class="cls-48" d="m45.95,19.02C23.18,18.36,3.46,34.65.48,56.03c-3.26,23.37,14.67,44.4,36.74,47.77,27.44,4.19,54.06-20.05,51.67-46.34-1.8-19.81-19.79-37.76-42.94-38.44Z"/>
        <g>
          <path class="cls-1" d="m22.49,85.56c4.63.84,15.86-16.68,10.89-27.38-2.07-4.46-5.92-5.48-6.91-10.96-.89-4.89,1.78-6.24,1.67-11.57-.17-7.5-5.7-16.3-11.79-16.44-3.06-.07-6.75,2.03-8.17,5.49-1.14,2.77.87,5.99-.05,6.46-.75.39-1.9-1.73-3.18-1.52-1.88.31-3.82,5.64-2.76,10.45,1.82,8.24,11.27,9.7,10.95,15.44-.21,3.65-4.12,4.31-3.97,8.12.14,3.35,3.22,4.37,6.77,8.95,5.55,7.16,4.06,12.52,6.55,12.97Z"/>
          <g class="cls-3">
            <g class="cls-54">
              <path class="cls-47" d="m20.79,89.51c.09.04.2.02.27-.06.06-.07.07-.16.04-.24.02-.14.17-.59.34-1.1.97-2.87,3.56-10.5,3.53-23.16-.04-15.92-4.15-33.79-12.22-53.12-.05-.12-.19-.18-.31-.13-.12.05-.18.19-.13.31,8.67,20.77,17.21,50.81,8.68,75.95-.39,1.14-.46,1.34-.27,1.51.02.02.04.03.06.04Z"/>
              <path class="cls-47" d="m22.79,47.82c.11.05.25,0,.3-.11.06-.12.01-.26-.11-.32-9.57-4.76-15.06-9.09-17.98-11.88-3.16-3.03-4.07-4.95-4.08-4.97-.05-.12-.19-.17-.31-.12-.12.05-.17.19-.12.31.04.08.94,2,4.15,5.08,2.94,2.83,8.48,7.2,18.13,12,0,0,0,0,.01,0Z"/>
              <path class="cls-47" d="m20.57,36.1s.1.03.15.01c2.85-.66,5.15-3.8,6.84-9.34,1.25-4.09,1.68-8.04,1.68-8.07.01-.13-.08-.25-.21-.26-.13-.01-.25.08-.26.21-.02.16-1.74,15.53-8.16,17.01-.13.03-.21.16-.18.28.02.08.07.13.14.16Z"/>
              <path class="cls-47" d="m24.61,68c.06.03.14.03.2,0,4.1-2.14,6.49-6.48,7.78-9.74,1.39-3.52,1.82-6.58,1.83-6.61.02-.13-.07-.25-.2-.27-.13-.02-.25.07-.27.2,0,.03-.43,3.04-1.8,6.51-1.26,3.18-3.59,7.41-7.56,9.48-.12.06-.16.2-.1.32.03.05.07.09.11.11Z"/>
            </g>
          </g>
        </g>
        <g>
          <path class="cls-40" d="m29.56,93.94c1.54-7.5,1.32-13.32.87-17.11-.35-2.98-1.14-7.14-3.25-7.66-1.02-.25-1.59.52-2.65.21-2-.59-1.95-3.92-3.21-6.34-2.16-4.14-9.11-7.45-14.09-5-6,2.95-6.63,13.01-3.41,16.12,1.91,1.84,5.33,1.38,5.51,2.71.19,1.35-3.24,2.07-3.48,4.23-.25,2.23,3.11,4.26,3.31,4.38,4.07,2.39,7.27-.08,11.74,1.02,2.42.6,5.58,2.34,8.66,7.44Z"/>
          <g>
            <path class="cls-59" d="m29.56,93.94c1.54-7.5,1.32-13.32.87-17.11-.35-2.98-1.14-7.14-3.25-7.66-1.02-.25-1.59.52-2.65.21-2-.59-1.95-3.92-3.21-6.34-2.16-4.14-9.11-7.45-14.09-5-6,2.95-6.63,13.01-3.41,16.12,1.91,1.84,5.33,1.38,5.51,2.71.19,1.35-3.24,2.07-3.48,4.23-.25,2.23,3.11,4.26,3.31,4.38,4.07,2.39,7.27-.08,11.74,1.02,2.42.6,5.58,2.34,8.66,7.44Z"/>
            <g class="cls-55">
              <g class="cls-52">
                <g>
                  <path class="cls-47" d="m30.4,100.01h-.12c-.67-17.95-11.91-33.57-30.09-41.76l.05-.11c8.61,3.89,15.94,9.66,21.2,16.71,5.52,7.41,8.62,16.11,8.96,25.16Z"/>
                  <path class="cls-47" d="m35.9,73.96c-3.29,3.65-6.49,10.78-7.13,15.89h-.12c.64-5.14,3.85-12.3,7.15-15.96l.09.08Z"/>
                  <path class="cls-47" d="m30.23,96.48l-.11.04c-.84-2.54-2.93-4.56-6.21-6.01-2.41-1.06-5.39-1.79-8.87-2.17v-.12c3.5.38,6.49,1.12,8.91,2.18,3.32,1.46,5.43,3.5,6.27,6.08Z"/>
                  <path class="cls-47" d="m20.66,73.88l-.11.04c-1.82-4.71-.58-9.87.78-13.38l.11.04c-1.35,3.48-2.59,8.62-.78,13.29Z"/>
                  <path class="cls-47" d="m12.55,65.64l-.05.1c-5.02-2.67-10.92-1.71-13.98-.89l-.03-.11c3.08-.82,9.01-1.79,14.07.9Z"/>
                </g>
              </g>
            </g>
          </g>
        </g>
        <g class="cls-58">
          <g>
            <path class="cls-44" d="m87.21,48.16c0,5.62-1.76,10.83-4.75,15.11-.01.02-.05.03-.05.05h0c-4.69,6.88-12.73,11.33-21.75,11.33-.74,0-1.44-.03-2.17-.13h0s0,.04,0,.04c-.36-.03-.71-.04-1.06-.09-.12-.01-.25-.02-.37-.04-.11-.01-.22-.02-.33-.04-.1-.01-.19-.03-.28-.04-.02,0-.04,0-.06,0-.23-.04-.46-.08-.69-.12,0,0,0,0,0,0-12.26-2.34-21.53-13.12-21.53-26.07,0-2.74.4-5.38,1.17-7.86.12-.39.27-.77.37-1.16h0c.3-.64.5-1.26.78-1.87.11-.24.23-.49.35-.73.65-1.32,1.4-2.59,2.25-3.78.08-.11.16-.22.24-.32.31-.43.64-.84.98-1.25.51-.61,1.05-1.2,1.61-1.76,1.46-1.47,3.09-2.76,4.86-3.86.55-.34,1.11-.66,1.68-.96,1.39-.72,2.85-1.33,4.37-1.8,2.49-.78,5.14-1.19,7.89-1.19,6.32,0,12.12,2.21,16.68,5.89,3.35,2.71,6.08,6.22,7.79,10.24.38.9.64,1.82,1.04,2.77h0s-.05,0-.04.01c.72,2.42,1.06,4.98,1.06,7.63Z"/>
            <g class="cls-51">
              <polygon class="cls-45" points="58.48 74.61 58.48 74.61 58.48 74.61 58.48 74.61 58.48 74.61"/>
              <path class="cls-43" d="m66.46,57.1c-.57.8-2.33,1.83-1.14,3.86,1.19,2.02-.08,2.4-.9,2.21-.82-.19-3.37-.29-2.94.87.42,1.16,1.15,1.59.22,2.04-.93.45-1.33,1.61-2.28,3.21-.95,1.6-3.2.22-2.53,1.82.67,1.61,1.19,1.45,1.12,2.57-.01.31.19.62.47.92-.36-.03-.71-.07-1.07-.11-.12-.01-.25-.03-.37-.05-.11-.01-.22-.03-.33-.05-.1-.01-.19-.03-.28-.04-.02,0-.02,0-.04-.01-.23-.04-.35-.08-.65-.12h0c-.2-.19-.07-.4-.04-.62.3-2.07-2.56-3.49-3.04-4.94-.47-1.45,0-2.31-.11-3.51-.11-1.2.28-2.78-.41-3.79-.69-1-3.46-1.34-3.99-3.37-.53-2.02.71-5.05,1.19-5.57.47-.52-2.3-2.86-3.62-2.94-1.33-.08-.8-2.75-3.04-2.34-2.25.39-6.28-.86-5.45-2.21.69-1.11,1.84-3.56-1.93-4.65.12-.39.27-.77.37-1.16h0c.3-.64.5-1.26.78-1.87.11-.24.23-.49.35-.73.65-1.32,1.4-2.59,2.25-3.78.08-.11.16-.22.24-.32.32-.43.64-.85.98-1.25.51-.61,1.05-1.2,1.61-1.76,1.46-1.47,3.09-2.76,4.86-3.86.75.52,1.6.85,2.34.45,1.81-1.01.62-1.17-.12-1.2-.19,0-.38-.09-.53-.2,1.39-.72,2.85-1.33,4.37-1.8-.11,1.02-1.5,2.66-.48,2.46,1.19-.23,1.67-3.43,2.54-2.37.88,1.07-.97,2.47.77,1.66,1.74-.8,1.97-2.6,3.91-1.73,1.95.88,1.77,1.93,2.31,1.83.54-.1,2.29,1.07,1.23,2.04-1.07.97-2.05-.27-3.65-.64-1.6-.37-1.56.94-2.3,1.24-.75.29-4.37-1.46-5.26.12-.9,1.57-1.28,2.66.05,2.62,1.33-.04,1.42-.38,1.31.6-.11.99.14,1.72,1.34.8,1.2-.93.93-1.83,1.87-1.39.94.44,1.05.04,2.05-.68,1-.73,2.32-.8,2.66.83.35,1.63-.24,2-2,2.08-1.76.09-1.96-.47-2.52,1-.56,1.47-2.89,3.36-4.93,4.14-2.04.78-2.84,1.93-2.79,3.49.05,1.56-.72,3.2-1.23,1.92-.51-1.29-1.96-3.46-3.43-2.01-1.47,1.45-4.04,4.02-1.2,4.49,2.83.48,1.35-2.17,2.78-1.64,1.43.53-.9,1.7.05,2.12.96.43,1.36.23,1.35,1.53,0,1.3.32,2.57,1.48,2.01,1.16-.55,2.65-3.1,4.33-1.59,1.68,1.51,1.56,1.32,2.44.88.88-.44,1.44.88,1.8,1.48.36.6,1.78-.01,2.92,1.78,1.15,1.79,1.6,2.11,2.9,1.46,1.31-.64,1.84-.17,2.18.74.34.9,1.14.02,1.53,1.21.39,1.19.2,1.01-.37,1.81Z"/>
              <g>
                <path class="cls-41" d="m70.94,35.44c-.93-1.99,3.66-1.76,4.48-1.61.82.14,2.73-1.36,2.97-2.06.25-.7.66-.37,2.11-.39,1.45-.02.17-.34-1.43-.87-1.6-.53-.23-.58-1.7-1.74-.63-.51-.43-.94-.01-1.26,3.35,2.71,6.03,6.22,7.75,10.24-.05-.01-.09-.02-.14-.02-1.02,0-1.24-2.25-1.76-2.69-.52-.44.01,1.24.14,1.92.13.69-.28.11-.79.74-.51.63-1.43.64-1.51-.3-.08-.95-.75-1.87-2.1-2.31-1.35-.43-2.52-.08-3.62.35-1.09.42-3.45,1.98-4.38,0Z"/>
                <path class="cls-42" d="m82.47,63.32c.09-.68.24-1.39-.04-1.65-.69-.64-.84-2.39-.6-3.28.24-.89,2.11-.84.84-2.32-1.27-1.48-2.42-3.24-1.88-4.25.53-1,.37-1.08-.63-1.07-1,0-1.44.05-2.44-.84-1-.9-2.37,2.13-6.13-.3-3.75-2.46-1.62-6.59-.21-6.6,1.42-.02,3.07-.74,1.91-2.47-1.16-1.73.65-1.98,1.53-1.58.88.39,2.45-.66,4.05-1.13,1.6-.47,1.53,2.14,2.42,2.66.89.52,2.57.11,3.44-.73.62-.6.76.1,1.37.76.72,2.42,1.11,4.98,1.11,7.63,0,5.64-1.76,10.87-4.76,15.17Z"/>
                <path class="cls-21" d="m75.75,32.13s1.17-.53.75-1.38c-.42-.85-1.09-3.46-1.57-2.64-.49.83.23,2.43.07,3.12-.16.69-.16,1.06.75.9Z"/>
                <path class="cls-19" d="m74.58,31.33c-.02-.27.16-1.39-.72-1.35,0,0-1.27.53-.53,1.43.75.9,1.26.2,1.25-.07Z"/>
              </g>
            </g>
          </g>
          <path class="cls-6" d="m87.14,48.11c0,5.62-1.73,10.83-4.72,15.11-.01.02-.02.03-.02.05h0c-4.79,6.88-12.77,11.31-21.79,11.31-.74,0-1.48-.06-2.2-.16h0s0,.07,0,.07c-.36-.03-.71-.03-1.06-.08-.12-.01-.25-.01-.37-.03-.11-.01-.22-.02-.33-.04-.1-.01-.19-.02-.28-.04-.02,0-.04,0-.06,0-.23-.04-.46-.08-.69-.12,0,0,0,0,0,0-11.34-2.17-20.12-11.55-21.37-23.19,2.66,7.63,9.23,13.36,17.32,14.96h0c.2.1.4.08.6.11.02,0,.04,0,.06.01.08.01.16.03.25.04.09.01.19.03.28.04.11.02.21.02.32.04.3.04.61.11.91.13,0,0,0,.03,0,.03h0c.62,0,1.25.05,1.88.05,3.89,0,7.56-.99,10.78-2.7,3.21-1.71,5.96-4.17,8.02-7.14,0-.02.02-.04.03-.05,2.58-3.7,4.09-8.2,4.09-13.05,0-2.29-.34-4.5-.96-6.59,0,0,0,0,0-.01h0c-.2-.82-.52-1.61-.85-2.39-1.48-3.47-3.79-6.5-6.68-8.84-2.12-1.71-4.55-3.06-7.19-3.93,5.36.49,10.25,2.58,14.21,5.78,3.35,2.71,6.06,6.22,7.78,10.24.38.9.63,1.82,1.03,2.77h0s-.03,0-.03.01c.72,2.42,1.07,4.98,1.07,7.63Z"/>
        </g>
        <g>
          <polygon class="cls-20" points="58.89 74.54 47.21 73.12 47.21 55.89 58.89 53.68 58.89 74.54"/>
          <g>
            <polygon class="cls-29" points="73.14 73.64 58.89 74.54 58.89 53.68 73.14 55.64 73.14 73.64"/>
            <polygon class="cls-38" points="64.26 54.42 64.26 57.34 69.01 57.79 69.01 55.07 64.26 54.42"/>
          </g>
        </g>
        <g>
          <polygon class="cls-25" points="75.94 97.32 56.8 98.67 56.8 70.63 75.94 71.97 75.94 97.32"/>
          <polygon class="cls-23" points="56.8 98.67 41.1 96.75 41.1 72.42 56.8 70.63 56.8 98.67"/>
          <polygon class="cls-38" points="63.57 71.1 63.57 75.49 69.99 75.81 69.99 71.56 63.57 71.1"/>
        </g>
        <g>
          <g>
            <path class="cls-22" d="m66.26,68.63l-.77-2.87c-.03-.11-.12-.21-.23-.24l-1.35-.43s0,0,0,0h-.01s0,0-.01,0c0,0,0,0,0,0,0,0,0,0,0,0-.07-.01-.2-.01-.3.12.08.06.15.05.2.03l.96,3.1,1.4.43s.08,0,.1-.02c.03-.03.04-.07.03-.1Z"/>
            <path class="cls-28" d="m66.03,68.63l-.76-2.78c-.03-.11-.12-.2-.23-.24l-1.38-.45s-.06,0-.09.02c-.02.02-.03.06-.02.09l.91,2.94c.02.07.08.13.15.15l1.28.4s.08,0,.1-.02c.03-.03.04-.07.03-.1Z"/>
          </g>
          <path class="cls-24" d="m62.26,67.57c-.57.5.47,4.27,3.44,5.39,2.34.89,5.12-.1,6.46-2.04.77-1.12,1.47-3.12.61-4.09-.04-.04-.52-.58-1.21-.54-1.6.09-1.7,3.09-3.41,3.46-.4.09-.55-.05-3.91-1.51-1.62-.71-1.84-.78-1.97-.66Z"/>
          <path class="cls-31" d="m66.63,69.07s.14-.56-.2-.81-.49-.93-.54-.69c-.06.24,0,.53,0,.53,0,0-1.23-1.07-1.22-.7.01.37.9,1.62,1.47,1.86.57.24.48.28.49-.19Z"/>
          <path class="cls-27" d="m62.42,67.61s-.02-.79-.43-.97c-.41-.18-.88-1.1-.85-.63.03.47.45.69.45.69,0,0-.68.24-.38.62.3.38.63.45.97.63,0,0,.09.29.33.25.24-.04.03-.45-.09-.58Z"/>
          <g>
            <path class="cls-30" d="m76.8,77.43c2.28,1.09,4.45.77,5.96.54,1.71-.26,3.36-.51,4.01-1.79.64-1.27.07-3.09-.94-4.08-1.19-1.16-2.37-.58-3.2-1.72-.85-1.16.15-2.11-.61-3.4-.96-1.63-3.01-.94-4.01-2.59-.82-1.36.18-2.47-.64-3.34-1.14-1.21-4.48-.56-5.02.86-.21.56.11.97.34,1.75.74,2.48-.78,3.89-.92,6.15-.19,3.05,2.21,6.27,5.02,7.61Z"/>
            <path class="cls-26" d="m78.34,103.35s-2.28.29-2.37.81c-.1.6,2.54.07,2.54.07,0,0,.4-.13-.17-.88Z"/>
            <path class="cls-33" d="m78.2,102.12l.06,1.27s-.28.35-.6.1l-.25-1.37h.8Z"/>
            <path class="cls-18" d="m74.62,103.97s-2.28.29-2.37.81c-.1.6,2.54.07,2.54.07,0,0,.4-.13-.17-.88Z"/>
            <path class="cls-34" d="m74.48,102.74l.06,1.27s-.28.35-.6.1l-.25-1.37h.8Z"/>
            <path class="cls-32" d="m71.4,81.72c.12,1.84.42,4.5,1.21,7.63.29,1.13.58,2.06,1.22,4.01.78,2.33,1.87,5.51,3.29,9.35.41.06.83.13,1.24.19.86-3.12.61-5.57-.27-7.52-.52-1.15-.83-1.16-1.36-2.45-.57-1.37-.8-2.75-.66-7.41.04-1.32.12-3.07.27-5.15-1.65.45-3.3.9-4.95,1.35Z"/>
            <path class="cls-5" d="m71.4,81.72c.12,1.84.42,4.5,1.21,7.63.29,1.13.58,2.06,1.22,4.01.78,2.33,1.87,5.51,3.29,9.35.41.06.83.13,1.24.19.73-2.91.2-4.44-.47-5.3-.41-.53-.93-.88-1.3-1.8-.44-1.08-.13-1.57-.36-2.83-.31-1.7-1.05-1.73-1.31-3.06-.31-1.57.56-2.33,1.15-4.38.33-1.14.61-2.86.27-5.15-1.65.45-3.3.9-4.95,1.35Z"/>
            <path class="cls-9" d="m74.26,81.43c-1.04,1.31-3.96,5.34-4.04,11.2-.08,5.47,2.35,9.36,3.33,10.76.41-.04.81-.07,1.22-.11.1-1.16.15-2.9-.2-4.96-.53-3.07-1.37-3.4-1.25-5.15.16-2.19,1.55-2.55,3.71-6.53,1.16-2.15,2.55-4.71,1.65-5.66-.17-.18-1.01-.92-4.41.45Z"/>
            <path class="cls-11" d="m73.2,65.37c-1.46.27-2.34,1.27-2.58,1.55-.3.35-1.19,1.51-1.21,4.46-.02,2.83.79,3.16,1.04,5.85.36,3.96-1.16,5.82-.1,6.72.9.76,2-.59,5.05-.44,2.52.12,3,1.1,5.16.86.33-.04,3.22-.39,3.66-1.91.31-1.05-.83-1.74-2.39-4.28-1.5-2.43-2.23-4.7-2.6-5.82-1.1-3.39-.64-4.32-1.89-5.56-.16-.15-1.9-1.84-4.15-1.43Z"/>
            <path class="cls-12" d="m74.68,62.68s-.3,2.07.84,3.18c.08.08.04.21-.07.24-.53.11-1.76.29-2.95-.11-.1-.03-.13-.17-.04-.24.25-.2.67-.58.89-1.04.33-.68.39-1.84.39-1.84l.94-.19Z"/>
            <g class="cls-50">
              <path class="cls-10" d="m81.84,78.18c-1.5-2.43-2.23-4.7-2.6-5.82-1.1-3.39-.64-4.32-1.89-5.56-.08-.08-.58-.56-1.35-.96.2.67.33,1.45.21,2.3-.39,2.89-3.19,3.9-2.83,5.69.32,1.64,2.81,1.57,3.17,3.34.37,1.81-2.04,3-1.55,4.28.47,1.23,2.89.58,5.29,2.06.37.22.7.48.99.75.98-.2,2.62-.68,2.95-1.79.31-1.05-.83-1.74-2.39-4.28Z"/>
            </g>
            <path class="cls-8" d="m74.72,63.42s-.51.7-1.32.41c-.72-.26-.29-2.12.28-2.34.19-.07.54-.04.77.11.16.1.6.65.35,1.26.18-.05.34,0,.38.09.05.11-.1.27-.14.31-.12.12-.27.16-.33.17Z"/>
            <path class="cls-15" d="m65.78,69.11c.27-.1.54-.2.81-.31.16.29,1.22,2.16,3.22,2.44,1.88.27,3.64-1.01,4.46-2.26.78-1.19.62-2.22,1.35-2.44.73-.23,1.64.59,2.07,1.15,1.02,1.32.98,3.29.35,4.7-1.03,2.3-3.78,3.47-6.13,3.23-3.64-.37-5.33-4.04-5.61-4.7-.31-.72-.45-1.36-.53-1.82Z"/>
          </g>
        </g>
        <g>
          <g>
            <g>
              <g>
                <g>
                  <path class="cls-17" d="m46.64,30.35l6,67.28c.09,1.02-.62,1.92-1.57,2.01l-32.44,3.34c-1.94.1-2.97-.95-3.05-2.01L9.81,31.12c-.08-1.03.88-2,2.8-2.07l32.14-.47c.95-.02,1.8.78,1.89,1.77Z"/>
                  <path class="cls-13" d="m48.11,30.18l6.05,67.68c.09,1.02-.62,1.94-1.58,2.03l-33.66,3.11c-1.03.1-1.95-.7-2.04-1.76L11.08,30.96c-.09-1.04.68-1.9,1.71-1.92l33.43-.64c.96-.02,1.81.78,1.9,1.78Z"/>
                </g>
                <path class="cls-16" d="m30.58,30.75c.03.35-.22.64-.57.65-.34,0-.65-.27-.68-.63s.22-.65.57-.65c.34,0,.65.27.68.63Z"/>
              </g>
              <g class="cls-57">
                <polygon class="cls-47" points="48.53 52.37 14.65 53.9 13.77 43.98 47.71 42.81 48.53 52.37"/>
                <g>
                  <polygon class="cls-46" points="52.5 98.44 18.93 101.72 14.2 48.79 48.11 47.44 52.5 98.44"/>
                  <polygon class="cls-7" points="47.98 45.92 14.05 47.2 12.64 31.37 46.67 30.67 47.98 45.92"/>
                  <g>
                    <polygon class="cls-47" points="43.95 38.59 31.72 38.95 31.61 37.71 43.84 37.37 43.95 38.59"/>
                    <polygon class="cls-47" points="44.15 40.93 31.92 41.33 31.81 40.08 44.04 39.71 44.15 40.93"/>
                    <path class="cls-47" d="m28.56,35.99l-9.96.26c-.38,0-.66.33-.62.72l.53,5.97c.03.39.37.7.75.68l9.94-.34c.37-.01.64-.34.61-.72l-.52-5.89c-.03-.38-.36-.69-.73-.68Zm-.68.73l-3.74,3.02c-.12.1-.29.1-.42,0l-4.17-2.81,8.33-.22Zm-8.66,6.18l-.5-5.68,4.64,3.12c.2.13.43.2.65.19.22,0,.42-.08.6-.22l4.03-3.26.48,5.52-9.89.33Z"/>
                  </g>
                  <g class="cls-56">
                    <g>
                      <path class="cls-47" d="m54.46,101.42c-.3,0-.59-.14-.77-.41l-14.98-22.5-14.91,1.09-9.12,18.83c-.22.46-.78.65-1.24.43-.46-.22-.65-.78-.43-1.24l9.35-19.31c.14-.3.44-.5.77-.52l15.98-1.17c.33-.02.65.13.84.41l15.27,22.95c.28.43.17,1-.26,1.28-.16.1-.34.16-.51.16Z"/>
                      <path class="cls-47" d="m33.96,103.07c-.47,0-.88-.36-.92-.84l-2.1-23.88L14.03,46.11c-.24-.45-.06-1.01.39-1.25.45-.24,1.01-.06,1.25.39l17,32.4c.06.11.09.23.1.35l2.12,24.06c.04.51-.33.96-.84,1-.03,0-.05,0-.08,0Z"/>
                      <path class="cls-47" d="m32.96,91.43c-.34,0-.62-.26-.65-.6-.03-.36.23-.68.59-.71l10.66-.93-3.65-42c-.03-.36.23-.68.59-.71.36-.03.68.23.71.59l3.7,42.65c.03.36-.23.68-.59.71l-11.31.99s-.04,0-.06,0Z"/>
                      <path class="cls-47" d="m51.43,80.84c-.1,0-.2-.04-.27-.11l-18.96-18.99c-.82.27-3.78,1.22-6.72,2.14-4.09,1.27-5.9,1.78-6.74,1.92.61,1.73,3.1,8.3,4.82,12.78.08.2-.02.42-.22.49-.2.08-.42-.02-.49-.22-.01-.03-1.28-3.34-2.52-6.62-.73-1.92-1.31-3.46-1.72-4.56-.24-.66-.43-1.17-.55-1.51-.07-.19-.12-.34-.15-.44-.05-.16-.15-.46.14-.61.1-.05.21-.06.31-.02.96-.05,8.94-2.56,13.82-4.15.14-.04.29,0,.39.09l19.13,19.16c.15.15.15.39,0,.54-.07.07-.17.11-.27.11Zm-32.88-15.61s0,0,0,0c0,0,0,0,0,0Zm0,0s0,0,0,0c0,0,0,0,0,0Zm0,0s0,0,0,0c0,0,0,0,0,0Z"/>
                      <path class="cls-47" d="m32.31,61.68c-.2,0-.36-.15-.38-.35l-1.52-17.33c-.02-.21.14-.39.35-.41.21-.02.39.14.41.35l1.52,17.33c.02.21-.14.39-.35.41-.01,0-.02,0-.03,0Z"/>
                    </g>
                    <path class="cls-14" d="m53.8,99.71c-.09,0-.18-.04-.24-.13l-.63-.95c-.09-.13-.05-.31.08-.39.13-.09.31-.05.39.08l.63.95c.09.13.05.31-.08.39-.05.03-.1.05-.16.05Zm-1.64-2.46c-.09,0-.18-.04-.24-.13l-1.01-1.51c-.09-.13-.05-.31.08-.39.13-.09.31-.05.39.08l1.01,1.51c.09.13.05.31-.08.39-.05.03-.1.05-.16.05Zm-2.02-3.02c-.09,0-.18-.04-.24-.13l-1.01-1.51c-.09-.13-.05-.31.08-.39.13-.09.31-.05.39.08l1.01,1.51c.09.13.05.31-.08.39-.05.03-.1.05-.16.05Zm-2.02-3.02c-.09,0-.18-.04-.24-.13l-1.01-1.51c-.09-.13-.05-.31.08-.39.13-.09.31-.05.39.08l1.01,1.51c.09.13.05.31-.08.39-.05.03-.1.05-.16.05Zm-2.02-3.02c-.09,0-.18-.04-.24-.13l-1.01-1.51c-.09-.13-.05-.31.08-.39.13-.09.31-.05.39.08l1.01,1.51c.09.13.05.31-.08.39-.05.03-.1.05-.16.05Zm-2.02-3.02c-.09,0-.18-.04-.24-.13l-1.01-1.51c-.09-.13-.05-.31.08-.39.13-.09.31-.05.39.08l1.01,1.51c.09.13.05.31-.08.39-.05.03-.1.05-.16.05Zm-2.02-3.02c-.09,0-.18-.04-.24-.13l-1.01-1.51c-.09-.13-.05-.31.08-.39.13-.09.31-.05.39.08l1.01,1.51c.09.13.05.31-.08.39-.05.03-.1.05-.16.05Zm-2.02-3.02c-.09,0-.18-.04-.24-.13l-.76-1.14h-.12c-.16.02-.29-.1-.3-.25-.01-.16.11-.29.26-.3l.45-.03.94,1.41c.09.13.05.31-.08.39-.05.03-.1.05-.16.05Zm-8.36-.73l-.18-.34c-.07-.14-.02-.31.12-.38.14-.07.31-.02.38.12h0s1.43-.09,1.43-.09c.16-.01.29.11.3.26.01.16-.11.29-.26.3l-1.8.13Zm3.59-.26c-.15,0-.27-.11-.28-.26-.01-.16.11-.29.26-.3l1.81-.13c.16-.01.29.11.3.26.01.16-.11.29-.26.3l-1.81.13s-.01,0-.02,0Zm-4.37-1.54c-.1,0-.2-.06-.25-.15l-.84-1.61c-.07-.14-.02-.31.12-.38.14-.07.31-.02.38.12l.84,1.61c.07.14.02.31-.12.38-.04.02-.09.03-.13.03Zm-1.69-3.22c-.1,0-.2-.06-.25-.15l-.84-1.61c-.07-.14-.02-.31.12-.38.14-.07.31-.02.38.12l.84,1.61c.07.14.02.31-.12.38-.04.02-.09.03-.13.03Zm-1.69-3.22c-.1,0-.2-.06-.25-.15l-.84-1.61c-.07-.14-.02-.31.12-.38.14-.07.31-.02.38.12l.84,1.61c.07.14.02.31-.12.38-.04.02-.09.03-.13.03Zm-1.69-3.22c-.1,0-.2-.06-.25-.15l-.84-1.61c-.07-.14-.02-.31.12-.38.14-.07.31-.02.38.12l.84,1.61c.07.14.02.31-.12.38-.04.02-.09.03-.13.03Zm-1.69-3.22c-.1,0-.2-.06-.25-.15l-.84-1.61c-.07-.14-.02-.31.12-.38.14-.07.31-.02.38.12l.84,1.61c.07.14.02.31-.12.38-.04.02-.09.03-.13.03Zm-1.69-3.22c-.1,0-.2-.06-.25-.15l-.84-1.61c-.07-.14-.02-.31.12-.38.14-.07.31-.02.38.12l.84,1.61c.07.14.02.31-.12.38-.04.02-.09.03-.13.03Zm-1.69-3.22c-.1,0-.2-.06-.25-.15l-.84-1.61c-.07-.14-.02-.31.12-.38.14-.07.31-.02.38.12l.84,1.61c.07.14.02.31-.12.38-.04.02-.09.03-.13.03Zm-1.69-3.22c-.1,0-.2-.06-.25-.15l-.84-1.61c-.07-.14-.02-.31.12-.38.14-.07.31-.02.38.12l.84,1.61c.07.14.02.31-.12.38-.04.02-.09.03-.13.03Zm-1.69-3.22c-.1,0-.2-.06-.25-.15l-.84-1.61c-.07-.14-.02-.31.12-.38.14-.07.31-.02.38.12l.84,1.61c.07.14.02.31-.12.38-.04.02-.09.03-.13.03Zm-1.12-3.39c-.14,0-.27-.11-.28-.25l-.19-1.81c-.02-.16.1-.3.25-.31.16-.02.3.1.31.25l.19,1.81c.02.16-.1.3-.25.31,0,0-.02,0-.03,0Zm-.37-3.62c-.14,0-.27-.11-.28-.25l-.19-1.81c-.02-.16.1-.3.25-.31.16-.02.3.1.31.25l.19,1.81c.02.16-.1.3-.25.31,0,0-.02,0-.03,0Z"/>
                  </g>
                </g>
              </g>
            </g>
            <g class="cls-53">
              <path class="cls-47" d="m40.03,76.36c-3.26-11.4-12.78-10.26-15.62-20.56-2.34-8.46,3.05-12.92-.22-20-1.54-3.33-4.23-5.58-7.02-7.12l-4.38.08c-1.02.02-1.79.88-1.71,1.92l5.81,70.27c.09,1.06,1.01,1.86,2.04,1.76l27.6-2.55c-1.76-2.24-3.44-4.98-4.6-8.27-2.46-6.97-.09-9.23-1.89-15.53Z"/>
            </g>
          </g>
          <g>
            <g>
              <path class="cls-36" d="m41.69,59.03c0,3.87-5.43,10.94-7.88,13.94-.61.75-1.75.75-2.36,0-2.46-3-7.88-10.07-7.88-13.94,0-5.01,4.06-9.07,9.07-9.07s9.07,4.06,9.07,9.07Z"/>
              <circle class="cls-47" cx="32.62" cy="59.03" r="5.06"/>
              <g class="cls-49">
                <path class="cls-37" d="m32.58,69.25c.58-3.79,3.08-5,2.65-8.58-.5-4.12-4.15-5.22-4.24-8.89-.01-.59.07-1.16.22-1.71-4.34.68-7.65,4.43-7.65,8.96,0,3.87,5.43,10.94,7.88,13.94.36.44.9.62,1.41.54-.44-1.66-.45-3.08-.27-4.26Z"/>
              </g>
            </g>
            <circle class="cls-35" cx="32.62" cy="77.39" r="1.85"/>
          </g>
        </g>
        <g>
          <circle class="cls-47" cx="64.67" cy="62.19" r="1.16"/>
          <path class="cls-47" d="m64.67,52.44c-2.43,0-4.65.89-6.36,2.36-.35.3-.38.84-.05,1.16l.03.03c.29.29.76.31,1.07.04,1.42-1.23,3.28-1.97,5.3-1.97s3.88.74,5.3,1.97c.31.27.78.25,1.07-.04l.03-.03c.33-.33.3-.86-.05-1.16-1.71-1.47-3.93-2.36-6.36-2.36Z"/>
          <path class="cls-47" d="m64.67,55.15c-1.68,0-3.22.59-4.43,1.57-.36.29-.38.84-.06,1.17h0c.29.29.75.31,1.06.05.93-.75,2.12-1.2,3.41-1.2s2.48.45,3.41,1.2c.32.26.77.24,1.06-.05h0c.33-.34.31-.88-.06-1.17-1.21-.98-2.75-1.57-4.43-1.57Z"/>
          <path class="cls-47" d="m62.12,59.82c.29.29.73.32,1.07.1.43-.28.93-.44,1.48-.44s1.05.16,1.48.44c.34.22.78.19,1.07-.1h0c.35-.35.3-.94-.11-1.22-.69-.47-1.53-.75-2.44-.75s-1.74.28-2.44.75c-.41.28-.46.86-.11,1.21h0Z"/>
        </g>
      </g>
    </g>
  </g>
</svg>