<?xml version="1.0" encoding="UTF-8"?>
<svg xmlns="http://www.w3.org/2000/svg" xmlns:xlink="http://www.w3.org/1999/xlink" viewBox="0 0 90 120">
  <defs>
    <style>
      .cls-1 {
        opacity: .1;
      }

      .cls-2 {
        fill: url(#linear-gradient);
      }

      .cls-2, .cls-3, .cls-4, .cls-5, .cls-6, .cls-7, .cls-8, .cls-9, .cls-10, .cls-11, .cls-12, .cls-13, .cls-14, .cls-15, .cls-16, .cls-17, .cls-18, .cls-19, .cls-20, .cls-21, .cls-22, .cls-23, .cls-24, .cls-25, .cls-26, .cls-27, .cls-28, .cls-29, .cls-30, .cls-31, .cls-32, .cls-33, .cls-34, .cls-35, .cls-36, .cls-37, .cls-38, .cls-39, .cls-40, .cls-41, .cls-42, .cls-43, .cls-44 {
        stroke-width: 0px;
      }

      .cls-3 {
        fill: url(#linear-gradient-29);
      }

      .cls-4 {
        fill: url(#linear-gradient-28);
      }

      .cls-5 {
        fill: url(#linear-gradient-25);
      }

      .cls-6 {
        fill: url(#linear-gradient-11);
      }

      .cls-7 {
        fill: url(#linear-gradient-12);
      }

      .cls-8 {
        fill: url(#linear-gradient-13);
      }

      .cls-9 {
        fill: url(#linear-gradient-10);
      }

      .cls-10 {
        fill: url(#linear-gradient-17);
      }

      .cls-11 {
        fill: url(#linear-gradient-16);
      }

      .cls-12 {
        fill: url(#linear-gradient-19);
      }

      .cls-13 {
        fill: url(#linear-gradient-15);
      }

      .cls-14 {
        fill: url(#linear-gradient-23);
      }

      .cls-15 {
        fill: url(#linear-gradient-21);
      }

      .cls-16 {
        fill: url(#linear-gradient-18);
      }

      .cls-17 {
        fill: url(#linear-gradient-14);
      }

      .cls-18 {
        fill: url(#linear-gradient-22);
      }

      .cls-19 {
        fill: url(#linear-gradient-20);
      }

      .cls-20 {
        fill: url(#linear-gradient-27);
      }

      .cls-21 {
        fill: url(#linear-gradient-24);
      }

      .cls-22 {
        fill: url(#linear-gradient-26);
      }

      .cls-45, .cls-44 {
        opacity: .2;
      }

      .cls-23 {
        fill: url(#linear-gradient-4);
      }

      .cls-24 {
        fill: url(#linear-gradient-2);
      }

      .cls-25 {
        fill: url(#linear-gradient-3);
      }

      .cls-26 {
        fill: url(#linear-gradient-8);
      }

      .cls-27 {
        fill: url(#linear-gradient-9);
      }

      .cls-28 {
        fill: url(#linear-gradient-7);
      }

      .cls-29 {
        fill: url(#linear-gradient-5);
      }

      .cls-30 {
        fill: url(#linear-gradient-6);
      }

      .cls-46 {
        isolation: isolate;
      }

      .cls-47 {
        mix-blend-mode: multiply;
        opacity: .5;
      }

      .cls-32 {
        fill: #f7f9f9;
      }

      .cls-33 {
        fill: #f7a7a8;
      }

      .cls-34 {
        fill: #263238;
      }

      .cls-35 {
        fill: #58c2b1;
      }

      .cls-36 {
        fill: #37474f;
      }

      .cls-37 {
        fill: #e0e0e0;
      }

      .cls-38 {
        fill: #f3908f;
      }

      .cls-39 {
        fill: #f1f0f0;
      }

      .cls-40 {
        fill: #fff;
      }

      .cls-41 {
        fill: #ebebeb;
      }

      .cls-42 {
        fill: #e6e6e6;
      }

      .cls-43 {
        fill: #f4f3f4;
      }
    </style>
    <linearGradient id="linear-gradient" x1="43.96" y1="59.55" x2="56.78" y2="59.55" gradientUnits="userSpaceOnUse">
      <stop offset="0" stop-color="#454097"/>
      <stop offset="1" stop-color="#36bdb3"/>
    </linearGradient>
    <linearGradient id="linear-gradient-2" x1="44.56" y1="36.71" x2="55.22" y2="36.71" xlink:href="#linear-gradient"/>
    <linearGradient id="linear-gradient-3" x1="43.57" y1="34.19" x2="53.28" y2="34.19" xlink:href="#linear-gradient"/>
    <linearGradient id="linear-gradient-4" x1="32.89" y1="41.75" x2="43.55" y2="41.75" xlink:href="#linear-gradient"/>
    <linearGradient id="linear-gradient-5" x1="34.83" y1="39.23" x2="44.54" y2="39.23" xlink:href="#linear-gradient"/>
    <linearGradient id="linear-gradient-6" x1="42.58" y1="58.37" x2="44.56" y2="58.37" xlink:href="#linear-gradient"/>
    <linearGradient id="linear-gradient-7" x1="7.98" y1="81.39" x2="87.86" y2="81.39" xlink:href="#linear-gradient"/>
    <linearGradient id="linear-gradient-8" x1="20.26" y1="79.11" x2="62.02" y2="79.11" xlink:href="#linear-gradient"/>
    <linearGradient id="linear-gradient-9" x1="44.54" y1="93.61" x2="87.86" y2="93.61" xlink:href="#linear-gradient"/>
    <linearGradient id="linear-gradient-10" x1="30.34" y1="80.85" x2="57.46" y2="80.85" xlink:href="#linear-gradient"/>
    <linearGradient id="linear-gradient-11" x1="27.65" y1="67.95" x2="32.15" y2="67.95" xlink:href="#linear-gradient"/>
    <linearGradient id="linear-gradient-12" x1="27.65" y1="67.95" x2="32.15" y2="67.95" xlink:href="#linear-gradient"/>
    <linearGradient id="linear-gradient-13" x1="27.65" y1="67.95" x2="32.15" y2="67.95" xlink:href="#linear-gradient"/>
    <linearGradient id="linear-gradient-14" x1="28.51" y1="68.22" x2="32.82" y2="68.22" xlink:href="#linear-gradient"/>
    <linearGradient id="linear-gradient-15" x1="48.92" y1="86.12" x2="53.43" y2="86.12" xlink:href="#linear-gradient"/>
    <linearGradient id="linear-gradient-16" x1="48.92" y1="86.12" x2="53.43" y2="86.12" xlink:href="#linear-gradient"/>
    <linearGradient id="linear-gradient-17" x1="48.92" y1="86.12" x2="53.43" y2="86.12" xlink:href="#linear-gradient"/>
    <linearGradient id="linear-gradient-18" x1="49.78" y1="86.39" x2="54.09" y2="86.39" xlink:href="#linear-gradient"/>
    <linearGradient id="linear-gradient-19" x1="60.62" y1="60.4" x2="68.46" y2="60.4" xlink:href="#linear-gradient"/>
    <linearGradient id="linear-gradient-20" x1="62.12" y1="60.87" x2="69.62" y2="60.87" xlink:href="#linear-gradient"/>
    <linearGradient id="linear-gradient-21" x1="63.81" y1="59.11" x2="68.34" y2="59.11" xlink:href="#linear-gradient"/>
    <linearGradient id="linear-gradient-22" x1="69.37" y1="65.44" x2="77.21" y2="65.44" xlink:href="#linear-gradient"/>
    <linearGradient id="linear-gradient-23" x1="70.87" y1="65.91" x2="78.37" y2="65.91" xlink:href="#linear-gradient"/>
    <linearGradient id="linear-gradient-24" x1="72.56" y1="64.15" x2="77.09" y2="64.15" xlink:href="#linear-gradient"/>
    <linearGradient id="linear-gradient-25" x1="78.12" y1="70.45" x2="85.96" y2="70.45" xlink:href="#linear-gradient"/>
    <linearGradient id="linear-gradient-26" x1="79.62" y1="70.92" x2="87.12" y2="70.92" xlink:href="#linear-gradient"/>
    <linearGradient id="linear-gradient-27" x1="81.31" y1="69.15" x2="85.84" y2="69.15" xlink:href="#linear-gradient"/>
    <linearGradient id="linear-gradient-28" x1="10.46" y1="73.13" x2="20.17" y2="73.13" xlink:href="#linear-gradient"/>
    <linearGradient id="linear-gradient-29" x1="7.38" y1="70.32" x2="12.31" y2="70.32" xlink:href="#linear-gradient"/>
  </defs>
  <g class="cls-46">
    <g id="Layer_1" data-name="Layer 1">
      <path class="cls-42" d="m57.52,108.75l-49.25-28.44c-.34-.2-.34-.52,0-.72l28.86-16.67c.34-.2.9-.2,1.24,0l49.26,28.44c.34.2.34.52,0,.72l-28.86,16.66c-.34.2-.9.2-1.24,0Z"/>
      <path class="cls-41" d="m5.88,111.79c5.07,2.42,13.3,2.42,18.38,0,5.08-2.42,5.08-6.34,0-8.76-5.07-2.42-13.3-2.42-18.38,0-5.07,2.42-5.07,6.34,0,8.76Z"/>
      <g>
        <path class="cls-2" d="m47.27,67.75c.61.01,1.61-.77,1.76-1.75.15-.97.44-1.75,1.83-2.27s2.17-.76,2.61-1.97-.25-2.57-.43-3.6c-.18-1.03.76-2.23,2.16-3.36s2.19-2.33.95-3.05c-1.24-.72-2.78-.41-4.13.45-1.35.87-2.41,2.01-4.07,1.85-1.66-.15-2.59.56-2.91,1.86-.32,1.3.15,2.96-1.09,3.36v5.54l3.32,2.94Z"/>
        <path class="cls-40" d="m44.77,65.26s-.02,0-.03,0c-.06-.01-.1-.08-.09-.14,1.26-5.47,6.97-11.53,10.06-12.79.06-.02.13,0,.16.07.02.06,0,.13-.07.16-3.04,1.24-8.67,7.22-9.92,12.62-.01.06-.06.09-.12.09Z"/>
        <path class="cls-40" d="m47.95,58.71c-.06,0-.11-.04-.12-.1-.24-1.47-.96-2.63-.97-2.64-.04-.06-.02-.13.04-.16.06-.04.13-.02.16.04.03.05.75,1.21,1.01,2.73.01.07-.03.13-.1.14,0,0-.01,0-.02,0Z"/>
        <path class="cls-40" d="m46.96,60.38c-.05,0-.1-.04-.12-.09-.02-.06.02-.13.08-.15,1.88-.5,4.25-.02,4.35,0,.06.01.11.08.09.14-.01.06-.08.11-.14.09-.02,0-2.42-.48-4.24,0-.01,0-.02,0-.03,0Z"/>
      </g>
      <g>
        <path class="cls-41" d="m57.41,24.51l.92.35v-2.02c0-1.6,1.28-1.98,2.66-1.18h0c1.39.8,2.51,2.75,2.51,4.35v.29c.31-.13.72-.08,1.17.18h0c1,.58,1.81,1.98,1.81,3.13v.13l1.28.74c.66.38,1.19,1.3,1.19,2.06s-.53,1.07-1.19.69l-10.34-5.97c-.66-.38-1.19-1.3-1.19-2.06s.53-1.07,1.19-.69Z"/>
        <path class="cls-41" d="m67.79,25.18l1.66.96c0-.07-.01-.15-.01-.22v-.48c0-.86.6-1.2,1.34-.78.3.17.58.45.8.77.12-1.08.97-1.48,1.99-.89,1.11.64,2.01,2.2,2.01,3.48v.72c0,.33-.06.61-.17.83l1.38.8c.41.24.75.82.75,1.29s-.33.67-.75.43l-9.01-5.2c-.41-.24-.75-.82-.75-1.29s.33-.67.75-.43Z"/>
      </g>
      <g>
        <g>
          <polygon class="cls-24" points="44.56 36.99 53.28 31.95 55.22 33.07 53.28 36.44 44.56 41.47 44.56 36.99"/>
          <polygon class="cls-25" points="53.28 31.95 52.31 31.39 43.57 36.44 44.56 36.99 53.28 31.95"/>
          <g>
            <path class="cls-40" d="m45.83,39.24c-.1.04-.18.05-.25.04-.02,0-.03,0-.03-.02s0-.02,0-.03l.07-.16s.02-.03.02-.03c0,0,.02,0,.03,0,.06,0,.12,0,.19-.03.07-.02.15-.05.22-.1.1-.06.18-.12.23-.18.05-.06.08-.13.08-.21,0-.04,0-.07-.03-.09-.02-.02-.05-.02-.08-.02-.04,0-.1.01-.18.03h-.05c-.1.03-.18.04-.24.04-.06,0-.12-.02-.16-.05-.04-.03-.06-.09-.06-.18,0-.14.05-.27.16-.4.1-.13.24-.25.41-.35.1-.06.19-.1.27-.13.08-.02.14-.03.2-.02.02,0,.03.01.03.02,0,0,0,.02,0,.03l-.07.16s-.02.03-.02.03c0,0-.02,0-.03,0-.1,0-.21.03-.36.11-.09.05-.16.11-.21.17-.05.06-.07.13-.07.2,0,.05.01.08.03.09.02.02.05.02.09.02.04,0,.1-.01.19-.03h.06c.11-.03.19-.04.25-.04.06,0,.11.02.14.05.03.04.05.1.05.18,0,.13-.05.26-.14.39-.1.13-.23.25-.41.35-.11.06-.21.11-.31.15Z"/>
            <path class="cls-40" d="m47.06,38.35c-.13-.06-.2-.22-.2-.47s.07-.49.2-.7c.13-.21.32-.39.57-.54.24-.14.43-.18.57-.12.13.06.2.22.2.47s-.07.49-.2.7c-.13.22-.32.39-.57.53-.25.14-.44.18-.57.12Zm.92-.68c.08-.15.12-.32.12-.51s-.04-.31-.12-.36c-.08-.05-.2-.03-.36.06s-.28.21-.36.36c-.08.15-.12.31-.12.51s.04.31.12.36c.08.05.2.03.36-.06s.28-.21.36-.36Z"/>
            <path class="cls-40" d="m48.93,37.41c-.1.01-.18,0-.24-.06-.06-.05-.08-.14-.08-.26v-.9s0-.05.02-.07c.01-.02.03-.04.06-.06l.12-.07s.05-.02.06-.02c.01,0,.02.02.02.05v.91c0,.12.03.18.1.21.07.02.17,0,.29-.08.13-.07.22-.16.29-.26.07-.1.1-.21.1-.32v-.91s0-.05.02-.07c.01-.02.04-.04.06-.06l.12-.07c.06-.03.09-.02.09.03v.9c0,.12-.03.23-.09.35-.06.12-.14.23-.24.34-.1.11-.22.2-.35.27-.13.08-.25.12-.36.14Z"/>
            <path class="cls-40" d="m50.62,36.45s-.02-.02-.02-.05v-1.22l-.39.23s-.05.02-.06.02c-.01,0-.02-.02-.02-.05v-.06s0-.05.02-.07c.01-.02.03-.04.06-.05l1.07-.62s.05-.02.06-.02c.01,0,.02.02.02.05v.06s0,.05-.02.07c-.01.02-.03.04-.06.05l-.39.23v1.22s0,.05-.02.07c-.01.02-.04.04-.07.06l-.12.07s-.05.02-.06.02Z"/>
            <path class="cls-40" d="m51.55,35.92s-.02-.02-.02-.05v-1.36s0-.05.02-.07c.01-.02.03-.04.06-.06l.12-.07s.05-.02.06-.02c.01,0,.02.02.02.05v.56l.73-.42v-.56s0-.05.02-.07c.01-.02.04-.04.06-.06l.12-.07s.05-.02.06-.02c.01,0,.02.02.02.05v1.36s0,.05-.02.07c-.01.02-.04.04-.07.06l-.12.07s-.05.02-.06.02c-.01,0-.02-.02-.02-.05v-.58l-.73.42v.58s0,.05-.02.07c-.01.02-.03.04-.07.06l-.12.07s-.05.02-.06.02Z"/>
          </g>
        </g>
        <g>
          <polygon class="cls-23" points="43.55 42.03 34.83 36.99 32.89 38.11 34.83 41.48 43.55 46.51 43.55 42.03"/>
          <polygon class="cls-29" points="34.83 36.99 35.8 36.43 44.54 41.48 43.55 42.03 34.83 36.99"/>
          <g>
            <path class="cls-43" d="m35.65,40.57s-.02-.04-.03-.06l-.41-1.65s0-.01,0-.02c0-.02.02-.02.05,0l.21.12s.04.03.05.04c.01.01.02.03.02.05l.26,1.13.31-.69s.02-.02.02-.02c0,0,.03,0,.05.02l.12.07s.04.03.05.04c0,.01.02.03.02.05l.31,1.05.26-.84s.01-.02.02-.02c.01,0,.03,0,.05.02l.21.12s.05.04.05.06c0,0,0,.02,0,.02l-.41,1.17s-.02.03-.03.03c-.01,0-.03,0-.06-.02l-.14-.08s-.04-.03-.06-.04c-.01-.02-.02-.04-.03-.06l-.31-1.08-.31.72s-.02.03-.03.03c-.01,0-.03,0-.06-.02l-.14-.08s-.05-.03-.06-.05Z"/>
            <path class="cls-43" d="m37.56,41.67s-.02-.05-.02-.07v-1.36s0-.05.02-.05c.01,0,.04,0,.07.02l1.07.62s.06.04.07.06c.01.02.02.04.02.07v.06s0,.05-.02.05c-.01,0-.04,0-.07-.02l-.84-.48v.43l.61.35s.06.04.07.06c.01.02.02.04.02.07v.06s0,.04-.02.05c-.01,0-.04,0-.07-.02l-.61-.35v.44l.84.48s.06.04.07.06c.01.02.02.05.02.07v.06s0,.04-.02.05c-.01,0-.04,0-.07-.02l-1.07-.62s-.06-.04-.07-.06Z"/>
            <path class="cls-43" d="m39.3,42.69c-.12-.09-.21-.18-.28-.26-.02-.03-.03-.04-.03-.06s0-.02.01-.02l.09-.07s.02,0,.03,0c0,0,.02.02.03.03.06.07.14.14.22.21.08.07.17.13.26.18.12.07.21.1.26.1.06,0,.09-.04.09-.11,0-.04-.01-.09-.03-.13-.02-.04-.06-.08-.1-.13-.04-.04-.11-.11-.21-.2l-.06-.05c-.11-.1-.2-.19-.28-.27-.07-.08-.13-.16-.18-.25-.05-.09-.07-.17-.07-.25,0-.14.06-.21.18-.21.12,0,.28.05.47.16.12.07.22.14.31.21.09.07.16.14.23.22.02.03.03.04.03.06,0,0,0,.02-.01.02l-.08.07s-.02,0-.03,0c0,0-.02-.01-.03-.03-.11-.12-.25-.23-.41-.33-.11-.06-.19-.09-.25-.09-.06,0-.08.04-.08.12,0,.05.01.09.03.13.02.04.06.08.1.13.04.05.12.11.22.2l.06.06c.13.12.22.21.29.29.07.08.13.15.16.23.04.08.06.16.06.24,0,.13-.06.2-.17.21-.11,0-.27-.04-.47-.16-.12-.07-.24-.15-.36-.24Z"/>
            <path class="cls-43" d="m40.95,43.62s-.02-.05-.02-.07v-1.22l-.45-.26s-.06-.04-.07-.06c-.01-.02-.02-.04-.02-.07v-.06s0-.05.02-.05c.01,0,.04,0,.07.02l1.23.71s.06.04.07.06c.01.02.02.05.02.07v.06s0,.04-.02.05c-.01,0-.04,0-.07-.02l-.45-.26v1.22s0,.04-.02.05c-.01,0-.04,0-.08-.02l-.13-.08s-.06-.04-.07-.06Z"/>
          </g>
        </g>
        <path class="cls-30" d="m44.56,32.33c0-.14-.1-.28-.29-.39-.39-.22-1.01-.22-1.4,0-.19.11-.28.25-.29.39h0v52.64h1.98v-52.64h0Z"/>
      </g>
      <g>
        <path class="cls-28" d="m62.02,72.1l-11.65-3.36-12.08-10.19c-.3-.26-.83-.3-1.17-.1l-28.87,16.66c-.34.2-.38.57-.07.82l12.08,10.19,11.65,3.36,12.62,10.65,12.92,4.26c.38.12.96.06,1.3-.13l1.32-.76,27.54-15.9c.34-.2.32-.46-.06-.58l-12.92-4.26-12.62-10.65Z"/>
        <polygon class="cls-26" points="50.37 68.74 20.26 86.12 31.92 89.48 62.02 72.1 50.37 68.74"/>
        <path class="cls-27" d="m44.54,100.13l12.92,4.26c.38.12.96.06,1.3-.13l28.87-16.66c.34-.2.32-.46-.06-.58l-12.92-4.26-30.11,17.38Z"/>
        <g>
          <polygon class="cls-37" points="48.42 69.86 37.38 60.54 11.16 75.67 22.2 85 48.42 69.86"/>
          <polygon class="cls-37" points="60.08 73.22 33.86 88.36 22.2 85 48.42 69.86 60.08 73.22"/>
          <g class="cls-47">
            <polygon class="cls-37" points="60.08 73.22 33.86 88.36 22.2 85 48.42 69.86 60.08 73.22"/>
          </g>
          <polygon class="cls-37" points="72.7 83.87 46.48 99.01 33.86 88.36 60.08 73.22 72.7 83.87"/>
          <polygon class="cls-37" points="83.83 87.54 57.61 102.68 46.48 99.01 72.7 83.87 83.83 87.54"/>
          <g class="cls-47">
            <polygon class="cls-37" points="83.83 87.54 57.61 102.68 46.48 99.01 72.7 83.87 83.83 87.54"/>
          </g>
        </g>
        <g>
          <polygon class="cls-39" points="17.55 81.07 21.23 78.83 15.41 73.22 11.16 75.67 17.55 81.07"/>
          <g>
            <polygon class="cls-39" points="22.2 78.27 16.38 72.66 25.12 67.59 30.95 73.22 22.2 78.27"/>
            <polygon class="cls-39" points="26.09 67.05 31.92 72.66 34.83 70.98 33.86 62.57 26.09 67.05"/>
            <polygon class="cls-39" points="35.8 70.42 34.83 62.01 37.38 60.54 46.85 68.53 35.8 70.42"/>
            <polygon class="cls-39" points="25.6 83.03 22.69 80.23 19.05 82.33 22.2 85 25.6 83.03"/>
            <polygon class="cls-39" points="23.66 79.67 26.58 82.47 35.31 77.43 32.4 74.62 23.66 79.67"/>
            <polygon class="cls-39" points="36.29 76.87 33.37 74.06 36.04 72.52 41.63 71.54 41.63 73.78 36.29 76.87"/>
            <polygon class="cls-39" points="42.6 73.22 42.6 71.37 47.21 70.56 42.6 73.22"/>
          </g>
        </g>
        <g>
          <path class="cls-42" d="m47.45,74.9c-1.07-.31-2.59-.18-3.4.28s-.59,1.09.49,1.4c1.07.31,2.59.18,3.4-.28.8-.46.59-1.09-.49-1.4Z"/>
          <g>
            <path class="cls-42" d="m44.3,74.3c-.22.07-.43.16-.6.27-.85.49-.87,1.12-.84,1.37.01.12.05.26.14.42l-2.34,1.35-4.37-.84,5.34-3.08,2.67.51Z"/>
            <polygon class="cls-42" points="42.6 73.22 45.59 73.74 47.13 73.95 52.31 70.98 48.42 69.86 42.6 73.22"/>
            <path class="cls-42" d="m60.08,73.22l-7.29,4.21-4.34-.6c.71-.47.72-1.05.69-1.28-.01-.11-.05-.26-.13-.42l5.9-3.41,5.18,1.49Z"/>
            <path class="cls-42" d="m51.91,77.94l-3.48,2.01-5.84-1.12,2.43-1.4s.01,0,.02-.01h0c.26.04.54.05.82.05.6,0,1.17-.08,1.66-.23h0l4.38.69Z"/>
            <g>
              <polygon class="cls-42" points="35.31 77.43 26.58 82.47 30.95 83.31 39.68 78.27 35.31 77.43"/>
              <polygon class="cls-42" points="48.43 79.95 42.59 78.83 33.86 83.87 39.69 84.99 48.43 79.95"/>
              <g>
                <polygon class="cls-42" points="25.6 83.03 22.2 85 26.09 86.12 29.97 83.87 25.6 83.03"/>
                <polygon class="cls-42" points="38.71 85.56 32.88 84.43 28.68 86.86 33.86 88.36 38.71 85.56"/>
              </g>
            </g>
          </g>
        </g>
        <g>
          <polygon class="cls-39" points="54.25 79.95 57.5 85.92 65.91 81.07 58.14 77.71 54.25 79.95"/>
          <g>
            <polygon class="cls-39" points="38.71 85.56 39.69 87.24 39.38 93.02 33.86 88.36 38.71 85.56"/>
            <polygon class="cls-39" points="39.69 84.99 40.66 86.68 52.83 79.65 51.91 77.94 39.69 84.99"/>
            <polygon class="cls-39" points="52.79 77.43 53.77 79.11 61.66 74.55 60.08 73.22 52.79 77.43"/>
            <polygon class="cls-39" points="53.28 80.51 41.14 87.52 40.83 94.24 41.75 95.02 56.53 86.48 53.28 80.51"/>
            <polygon class="cls-39" points="59.11 77.15 62.45 75.22 67.97 79.88 66.88 80.51 59.11 77.15"/>
            <polygon class="cls-39" points="43.33 96.35 47.45 93.97 49.4 97.33 46.48 99.01 43.33 96.35"/>
            <rect class="cls-39" x="49.1" y="92.02" width="4.49" height="3.88" transform="translate(-40.11 38.26) rotate(-30)"/>
            <polygon class="cls-39" points="53.28 90.6 57.46 88.19 59.32 91.6 55.22 93.97 53.28 90.6"/>
            <polygon class="cls-39" points="60.28 91.05 58.42 87.63 66.88 82.75 71.13 82.54 72.7 83.87 60.28 91.05"/>
            <polygon class="cls-39" points="68.76 80.54 66.88 81.63 69.91 81.51 68.76 80.54"/>
          </g>
        </g>
        <g>
          <path class="cls-42" d="m65,92.88c-1.07-.31-2.59-.18-3.4.28s-.59,1.09.49,1.4c1.07.31,2.59.18,3.4-.28.8-.46.59-1.09-.49-1.4Z"/>
          <g>
            <polygon class="cls-42" points="49.4 97.33 53.28 98.45 50.19 100.24 46.48 99.01 49.4 97.33"/>
            <polygon class="cls-42" points="50.37 96.77 54.25 97.89 58.14 95.65 54.25 94.53 50.37 96.77"/>
            <path class="cls-42" d="m55.22,93.97l3.88,1.12,1.29-.75s-.61-1.37,1.2-1.95l-2.28-.8-4.1,2.37Z"/>
            <path class="cls-42" d="m60.28,91.05l2.39.86s.77-.12,1.94,0l7.12-4.11-3.88-1.12-7.57,4.37Z"/>
            <polygon class="cls-42" points="68.82 86.12 72.7 87.24 76.41 85.1 72.7 83.87 68.82 86.12"/>
            <polygon class="cls-42" points="78.88 85.91 72.7 89.48 77.56 91.16 83.83 87.54 78.88 85.91"/>
            <path class="cls-42" d="m71.73,90.04l-5.11,2.95s.63.97-.17,1.74l3.34.92,6.8-3.92-4.74-1.61"/>
            <path class="cls-42" d="m68.82,96.21l-3.45-.87s-1.66.65-3.06.14l-5.14,2.97-.97,3.76,1.41.47,11.21-6.47Z"/>
            <polygon class="cls-42" points="56.19 99.01 55.38 101.95 52.66 101.05 56.19 99.01"/>
          </g>
        </g>
        <path class="cls-9" d="m51.91,90.05c-.08,0-.16-.04-.21-.12-.07-.11-.03-.26.08-.33l5.11-3.02-4.75-8.67-4.47-.7c-.1-.02-.18-.09-.2-.19-.02-.1.02-.2.11-.25.66-.4.99-.79.97-1.11-.03-.31-.41-.63-1.03-.87-.92-.35-2.82-.24-3.64.4-.72.56-.29,1.23-.27,1.25.04.05.05.12.03.18-.01.06-.05.12-.11.15l-2.46,1.49s-.11.04-.17.03l-5.17-.93s-.09-.03-.13-.07l-5.22-5.26c-.09-.09-.09-.25,0-.34.09-.09.24-.09.34,0l5.17,5.2,5.01.9,2.19-1.33c-.18-.43-.22-1.12.49-1.67.95-.74,3.05-.87,4.1-.47.47.18,1.27.59,1.33,1.27.04.41-.2.81-.69,1.21l3.99.63c.07.01.14.06.17.12l4.91,8.97c.06.11.02.26-.09.32l-5.31,3.13s-.08.03-.12.03Z"/>
      </g>
      <g>
        <g>
          <path class="cls-6" d="m32.15,64.6l-.82-.47h0c-.39-.26-.93-.25-1.53.1-1.19.69-2.15,2.43-2.15,3.9v.33c0,1.46,1.97,3.06,1.97,3.06l.81.46s-.48-.55-.43-.66c.53-1.08,1.96-4.14,1.96-5.33v-.33c0-.27-.03-.51-.09-.71l.09.05.2-.37Zm-2.35,3.36c-.59.34-1.08.07-1.08-.62.32-.05,1.13-1.42,1.08-1.87.59-.34,1.08-.07,1.08.62,0,.69-.48,1.52-1.08,1.87Z"/>
          <path class="cls-7" d="m32.15,64.6l-.82-.47h0c-.39-.26-.93-.25-1.53.1-1.19.69-2.15,2.43-2.15,3.9v.33c0,1.46,1.97,3.06,1.97,3.06l.81.46s-.48-.55-.43-.66c.53-1.08,1.96-4.14,1.96-5.33v-.33c0-.27-.03-.51-.09-.71l.09.05.2-.37Zm-2.35,3.36c-.59.34-1.08.07-1.08-.62.32-.05,1.13-1.42,1.08-1.87.59-.34,1.08-.07,1.08.62,0,.69-.48,1.52-1.08,1.87Z"/>
          <g class="cls-45">
            <path class="cls-8" d="m32.15,64.6l-.82-.47h0c-.39-.26-.93-.25-1.53.1-1.19.69-2.15,2.43-2.15,3.9v.33c0,1.46,1.97,3.06,1.97,3.06l.81.46s-.48-.55-.43-.66c.53-1.08,1.96-4.14,1.96-5.33v-.33c0-.27-.03-.51-.09-.71l.09.05.2-.37Zm-2.35,3.36c-.59.34-1.08.07-1.08-.62.32-.05,1.13-1.42,1.08-1.87.59-.34,1.08-.07,1.08.62,0,.69-.48,1.52-1.08,1.87Z"/>
          </g>
        </g>
        <path class="cls-17" d="m32.82,66.13c0-1.46-.96-2.09-2.15-1.41-1.19.69-2.15,2.43-2.15,3.9v.33c0,1.13,1.28,2.44,1.86,2.98.14.13.37.09.46-.09.51-1.04,1.99-4.17,1.99-5.38v-.33Zm-2.15,2.32c-.59.34-1.08.07-1.08-.62s.48-1.52,1.08-1.87,1.08-.07,1.08.62c0,.69-.48,1.52-1.08,1.87Z"/>
      </g>
      <g>
        <g>
          <path class="cls-13" d="m53.43,82.77l-.82-.47h0c-.39-.26-.93-.25-1.53.1-1.19.69-2.15,2.43-2.15,3.9v.33c0,1.46,1.97,3.06,1.97,3.06l.81.46s-.48-.55-.43-.66c.53-1.08,1.96-4.14,1.96-5.33v-.33c0-.27-.03-.51-.09-.71l.09.05.2-.37Zm-2.35,3.36c-.59.34-1.08.07-1.08-.62.32-.05,1.13-1.42,1.08-1.87.59-.34,1.08-.07,1.08.62,0,.69-.48,1.52-1.08,1.87Z"/>
          <path class="cls-11" d="m53.43,82.77l-.82-.47h0c-.39-.26-.93-.25-1.53.1-1.19.69-2.15,2.43-2.15,3.9v.33c0,1.46,1.97,3.06,1.97,3.06l.81.46s-.48-.55-.43-.66c.53-1.08,1.96-4.14,1.96-5.33v-.33c0-.27-.03-.51-.09-.71l.09.05.2-.37Zm-2.35,3.36c-.59.34-1.08.07-1.08-.62.32-.05,1.13-1.42,1.08-1.87.59-.34,1.08-.07,1.08.62,0,.69-.48,1.52-1.08,1.87Z"/>
          <g class="cls-45">
            <path class="cls-10" d="m53.43,82.77l-.82-.47h0c-.39-.26-.93-.25-1.53.1-1.19.69-2.15,2.43-2.15,3.9v.33c0,1.46,1.97,3.06,1.97,3.06l.81.46s-.48-.55-.43-.66c.53-1.08,1.96-4.14,1.96-5.33v-.33c0-.27-.03-.51-.09-.71l.09.05.2-.37Zm-2.35,3.36c-.59.34-1.08.07-1.08-.62.32-.05,1.13-1.42,1.08-1.87.59-.34,1.08-.07,1.08.62,0,.69-.48,1.52-1.08,1.87Z"/>
          </g>
        </g>
        <path class="cls-16" d="m54.09,84.3c0-1.46-.96-2.09-2.15-1.41-1.19.69-2.15,2.43-2.15,3.9v.33c0,1.13,1.28,2.44,1.86,2.98.14.13.37.09.46-.09.51-1.04,1.99-4.17,1.99-5.38v-.33Zm-2.15,2.32c-.59.34-1.08.07-1.08-.62s.48-1.52,1.08-1.87,1.08-.07,1.08.62c0,.69-.48,1.52-1.08,1.87Z"/>
      </g>
      <g>
        <g>
          <g>
            <path class="cls-12" d="m68.46,54.56s-.03-.02-.04-.03l-1.38-.79c-.31-.21-.67-.32-1.08-.32-.48,0-1.02.16-1.59.48-2.07,1.19-3.75,4.23-3.75,6.78v.58c0,2.55,3.42,5.32,3.42,5.32l1.39.79s0,0,0,0c-.05-.05-.84-.96-.74-1.15.92-1.88,3.41-7.2,3.41-9.28v-.58c0-.47-.06-.88-.16-1.24l.16.09.34-.65Zm-2.59,6.71c-.92.53-1.68.21-1.84-.7-.87.32-1.53-.18-1.53-1.24.56-.09,1.96-2.48,1.87-3.25.92-.53,1.68-.21,1.84.7.87-.32,1.53.18,1.53,1.24,0,1.19-.84,2.65-1.87,3.25Z"/>
            <g>
              <path class="cls-19" d="m68.46,54.56s-.03-.02-.04-.03c-.67-.38-1.56-.33-2.55.24-1.48.86-2.76,2.66-3.37,4.54-.24.75-.38,1.51-.38,2.23v.58c0,1.96,2.22,4.24,3.25,5.18.02.02.05.04.07.06,0,0,0,0,0,0,.25.15.58.07.72-.21.88-1.81,3.45-7.25,3.45-9.36v-.58c0-1.31-.44-2.24-1.16-2.66Zm-4.43,6c-.02-.12-.03-.24-.03-.38,0-1.19.84-2.65,1.87-3.25.12-.07.23-.12.34-.16.87-.32,1.53.18,1.53,1.24,0,1.19-.84,2.65-1.87,3.25-.92.53-1.68.21-1.84-.7Z"/>
              <path class="cls-15" d="m66.48,56.3c-.13.05-.27.11-.41.19-1.25.72-2.27,2.48-2.27,3.92,0,.16.01.32.04.46.19,1.11,1.12,1.49,2.23.85,1.25-.72,2.27-2.48,2.27-3.92,0-1.28-.8-1.89-1.85-1.5Z"/>
            </g>
          </g>
          <path class="cls-32" d="m66.23,56.86l.38.81c.02.05.07.07.12.05l.85-.33c.13-.05.19.14.09.32l-.61,1.15c-.04.07-.06.16-.05.22l.15,1.04c.02.17-.12.38-.24.37l-.76-.09s-.11.03-.15.09l-.76.97c-.12.15-.26.1-.24-.09l.15-1.21c0-.08,0-.14-.05-.17l-.61-.44c-.1-.07-.04-.32.09-.43l.85-.65c.05-.04.1-.11.12-.19l.38-1.25c.06-.2.23-.3.29-.17Z"/>
        </g>
        <g>
          <g>
            <path class="cls-18" d="m77.21,59.6s-.03-.02-.04-.03l-1.38-.79c-.31-.21-.67-.32-1.08-.32-.48,0-1.02.16-1.59.48-2.07,1.19-3.75,4.23-3.75,6.78v.58c0,2.55,3.42,5.32,3.42,5.32l1.39.79s0,0,0,0c-.05-.05-.84-.96-.74-1.15.92-1.88,3.41-7.2,3.41-9.28v-.58c0-.47-.06-.88-.16-1.24l.16.09.34-.65Zm-2.59,6.71c-.92.53-1.68.21-1.84-.7-.87.32-1.53-.18-1.53-1.24.56-.09,1.96-2.48,1.87-3.25.92-.53,1.68-.21,1.84.7.87-.32,1.53.18,1.53,1.24,0,1.19-.84,2.65-1.87,3.25Z"/>
            <g>
              <path class="cls-14" d="m77.21,59.6s-.03-.02-.04-.03c-.67-.38-1.56-.33-2.55.24-1.48.86-2.76,2.66-3.37,4.54-.24.75-.38,1.51-.38,2.23v.58c0,1.96,2.22,4.24,3.25,5.18.02.02.05.04.07.06,0,0,0,0,0,0,.25.15.58.07.72-.21.88-1.81,3.45-7.25,3.45-9.36v-.58c0-1.31-.44-2.24-1.16-2.66Zm-4.43,6c-.02-.12-.03-.24-.03-.38,0-1.19.84-2.65,1.87-3.25.12-.07.23-.12.34-.16.87-.32,1.53.18,1.53,1.24,0,1.19-.84,2.65-1.87,3.25-.92.53-1.68.21-1.84-.7Z"/>
              <path class="cls-21" d="m75.23,61.34c-.13.05-.27.11-.41.19-1.25.72-2.27,2.48-2.27,3.92,0,.16.01.32.04.46.19,1.11,1.12,1.49,2.23.85,1.25-.72,2.27-2.48,2.27-3.92,0-1.28-.8-1.89-1.85-1.5Z"/>
            </g>
          </g>
          <polygon class="cls-32" points="76.71 62.81 74.92 62.33 73.13 64.88 73.6 64.6 73.6 66.1 74.64 65.5 74.64 64.66 75.19 64.34 75.19 65.18 76.23 64.58 76.23 63.08 76.71 62.81"/>
        </g>
        <g>
          <g>
            <path class="cls-5" d="m85.96,64.61s-.03-.02-.04-.03l-1.38-.79c-.31-.21-.67-.32-1.08-.32-.48,0-1.02.16-1.59.48-2.07,1.19-3.75,4.23-3.75,6.78v.58c0,2.55,3.42,5.32,3.42,5.32l1.39.79s0,0,0,0c-.05-.05-.84-.96-.74-1.15.92-1.88,3.41-7.2,3.41-9.28v-.58c0-.47-.06-.88-.16-1.24l.16.09.34-.65Zm-2.59,6.71c-.92.53-1.68.21-1.84-.7-.87.32-1.53-.18-1.53-1.24.56-.09,1.96-2.48,1.87-3.25.92-.53,1.68-.21,1.84.7.87-.32,1.53.18,1.53,1.24,0,1.19-.84,2.65-1.87,3.25Z"/>
            <g>
              <path class="cls-22" d="m85.96,64.61s-.03-.02-.04-.03c-.67-.38-1.56-.33-2.55.24-1.48.86-2.76,2.66-3.37,4.54-.24.75-.38,1.51-.38,2.23v.58c0,1.96,2.22,4.24,3.25,5.18.02.02.05.04.07.06,0,0,0,0,0,0,.25.15.58.07.72-.21.88-1.81,3.45-7.25,3.45-9.36v-.58c0-1.31-.44-2.24-1.16-2.66Zm-4.43,6c-.02-.12-.03-.24-.03-.38,0-1.19.84-2.65,1.87-3.25.12-.07.23-.12.34-.16.87-.32,1.53.18,1.53,1.24,0,1.19-.84,2.65-1.87,3.25-.92.53-1.68.21-1.84-.7Z"/>
              <path class="cls-20" d="m83.98,66.34c-.13.05-.27.11-.41.19-1.25.72-2.27,2.48-2.27,3.92,0,.16.01.32.04.46.19,1.11,1.12,1.49,2.23.85,1.25-.72,2.27-2.48,2.27-3.92,0-1.28-.8-1.89-1.85-1.5Z"/>
            </g>
          </g>
          <path class="cls-32" d="m83.55,67.48c.43-.25.78-.05.78.45s-.35,1.1-.78,1.34c-.43.25-.78.05-.78-.45s.35-1.1.78-1.34Z"/>
          <path class="cls-32" d="m82.08,71.98c.4.17.92.12,1.49-.21.57-.33,1.1-.88,1.49-1.52v-.13c0-.81-.57-1.14-1.27-.74l-.44.25c-.7.41-1.27,1.39-1.27,2.21v.13Z"/>
        </g>
      </g>
      <g>
        <g>
          <path class="cls-34" d="m12.87,65.26c-1.66.08-2.83.47-4.02,1.67-.87.88-2.76,5.99-1.94,10.12.63,3.18,4.03,4.82,6.9,3.35,2.27-1.16,2.71-4.74,2.64-6.83-.06-2.09-3.58-8.31-3.58-8.31Z"/>
          <path class="cls-36" d="m10.81,66.8s-.45-.59-1.49-.26c0,0-1.1,1.32-1.95,3.83,0,0-.27,0-.1-.71.17-.7.86-2.39,1.3-2.98.44-.59,1.07-1.08,4.07-2.18,2.62-.96,1.79,1.44,1.79,1.44l-3.62.87Z"/>
        </g>
        <g>
          <g>
            <path class="cls-34" d="m5.7,100.81c-.35-.18-.57.27-.89.62-.22.25-.57.65-.62.93-.08.42.3,1.09.73,1.46.42.37.91.63,1.07,1.43.15.8.47,1.28,1.3,1.64.91.39,2.14.27,2.55,0,.49-.32.04-.67-.65-1.65-.9-1.29-1.6-2.21-1.6-3.41l-1.88-1.03Z"/>
            <path class="cls-33" d="m6.42,99.76l-.74,1.08c-.32.47-.22,1.12.25,1.44,0,0,.02.01.02.02.45.29,1.05.18,1.41-.22l1.15-1.26-2.1-1.06Z"/>
            <path class="cls-36" d="m20.17,78.96c.05,1.38-.19,6.66-1.19,9.3-.94,2.47-1.79,3.79-2.09,4.31-.3.51-8.94,8.93-8.94,8.93,0,0-1.47-.11-1.7-1.53,0,0,3.54-6.02,4.31-7.25.77-1.23,3.48-3.13,3.48-3.13l-.25-11.57,6.39.95Z"/>
            <rect class="cls-33" x="17.75" y="105.12" width="1.87" height="2.73" transform="translate(60.51 206.18) rotate(167.19)"/>
            <path class="cls-36" d="m16.65,83.42s.71-.6,1.67-1.92c1.4-1.93,1.18-3.64,1.18-3.64h-.57l-8.41,1.11c-.14.8-.3,2.11.1,4.13.74,3.73,3.74,10.1,3.74,10.1-.04.51-.26,2.68.23,4.6.77,3.03,2.89,8.15,2.89,8.15,0,0,1.32.19,1.98-.58,0,0-1.17-10.4-1.48-13.06-.34-2.88-1.32-8.88-1.32-8.88Z"/>
            <path class="cls-34" d="m19.7,106.71l-.06-.26c.19.04,1.01,1.4,1.83,1.99.89.65,1.66,1.03,2.06,1.32.53.39-.24,1.19-1.55,1.26-.58.03-1.27-.05-1.8-.3-.57-.27-.92-.78-1.35-1.22-.32-.32-.8-.56-1.04-.94-.11-.18-.13-.61-.11-.98.01-.34.02-.72.14-.71,0,.04.05.2.05.2.17.12.69.26,1.11.25.31-.01.88-.09.73-.6Z"/>
            <path class="cls-34" d="m17.74,90.53s-.88-6.26-1.09-7.11c0,0,1.55-.59,2.03-1.13,0,0-.34.76-1.45,1.43l.51,6.81Z"/>
            <path class="cls-34" d="m14.36,93.19c-.38-.51-1.31-2.84-1.31-2.84l.96,3.01c-.24.9-.22,2.39-.22,2.39l.49-.43c-.01-.36.08-2.13.08-2.13Z"/>
          </g>
          <g>
            <path class="cls-33" d="m19.23,76.35c-1.22-4.1-.96-7.57-1.19-8.63l3.14,4.41s.22,2.54.63,4.32c.36,1.57.85,3.52,1.44,4.73.1.22.29.38.51.47.59.24.87.55,1.34.91.37.28.66.31.63.43-.03.14-.22.4-.63.35-.21-.03-.48-.14-.83-.28,0,0,.34.62,1.01,1.21.91.79,1.04,1.36-.48,1.63-.95.17-1.81-.29-2.88-2.26-.31-.57-.79-1.47-1.07-2.24-.72-2.01-1.26-3.8-1.62-5.04Z"/>
            <path class="cls-35" d="m16.97,65.89c1.48.02,2.93.35,3.43,1.92.49,1.53,1.12,5.99,1.12,5.99,0,0-.62.82-2.69.69l-1.86-8.59Z"/>
            <g>
              <path class="cls-35" d="m16.97,65.89c1.48.02,2.93.35,3.43,1.92.49,1.53,1.12,5.99,1.12,5.99,0,0-.62.82-2.69.69l-1.86-8.59Z"/>
              <g class="cls-1">
                <path class="cls-31" d="m16.97,65.89c1.48.02,2.93.35,3.43,1.92.49,1.53,1.12,5.99,1.12,5.99,0,0-.62.82-2.69.69l-1.86-8.59Z"/>
              </g>
            </g>
            <path class="cls-4" d="m13.94,65.98c-1.04.25-2.24.45-3.24.95-.7.34.3,6.13.3,6.13l-.49,5.91c1.38,1.5,6.65,2.19,9.65,0v-9.57c0-1.53-.85-3.37-3.19-3.5l-3.03.09Z"/>
            <g>
              <polygon class="cls-35" points="11 72.94 11.91 70.43 10.85 74.95 11 72.94"/>
              <polygon class="cls-44" points="11 72.94 11.91 70.43 10.85 74.95 11 72.94"/>
            </g>
            <g>
              <g>
                <path class="cls-34" d="m12.31,60.66l.65,2.57c.14.55.63.94,1.2.94h.76v-3.58l-2.61.08Z"/>
                <circle class="cls-34" cx="17.53" cy="59.72" r="2.75" transform="translate(-7.19 2.6) rotate(-7.04)"/>
                <path class="cls-34" d="m13.28,58.16s-.49-.08-.87.3c-.37.38-.29,1.08,0,2.7l1.15.13-.28-3.14Z"/>
                <path class="cls-33" d="m13.82,61.3c-.17.1-.41-.23-.62-.45-.21-.22-.9-.52-1.24.2-.35.74.2,1.71.72,1.92.73.3,1.06-.34,1.06-.34l.21,3.35s.61,1.49,2.26,1.72c1.65.22,1.31-1.14.77-1.81v-1.02s.84.14,1.25.06c.6-.11.9-.67,1.18-1.39.42-1.07.68-2.58.32-4.5-.49-2.54-3.3-2.59-4.91-1.58-1.61,1.01-1,3.82-1,3.82Z"/>
                <path class="cls-34" d="m13.82,61.58c-.09,0-.41-.54-.62-.73-.29-.27.09-2.69.09-2.69.15-1.99,3.08-2.14,3.89-2.2,1.86-.13,3.12.89,2.61,2.19-.34.59-1.02.75-1.66.83-1.09.13-2.95-.45-3.18-.48-.32-.04-.38.26-.55,1.1-.15.74-.27,1.98-.56,1.99Z"/>
                <path class="cls-34" d="m13.29,58.35l-1.03-.55c.15-.3.5-.41.78-.26.28.15.4.52.25.81Z"/>
                <path class="cls-38" d="m16.97,64.87s-1.53-.31-2.06-.59c-.36-.19-.65-.52-.74-.73,0,0,.1.45.42.86.39.5,2.38.87,2.38.87v-.41Z"/>
              </g>
              <g>
                <path class="cls-34" d="m17.02,61.24c0,.18-.14.32-.31.32-.17,0-.31-.14-.31-.32s.14-.32.31-.32c.17,0,.31.14.31.32Z"/>
                <path class="cls-34" d="m16.7,60.08l-.66.36c-.1-.19-.03-.42.15-.52.18-.1.41-.03.5.16Z"/>
                <path class="cls-38" d="m16.83,63.29l.7.26c-.07.2-.28.3-.48.23-.19-.07-.29-.29-.22-.49Z"/>
                <path class="cls-34" d="m19.59,60.34l-.6-.46c.12-.17.35-.21.52-.08.17.13.2.37.08.54Z"/>
                <path class="cls-34" d="m19.41,61.06c0,.18-.14.32-.31.32-.17,0-.31-.14-.31-.32s.14-.32.31-.32c.17,0,.31.14.31.32Z"/>
                <polygon class="cls-38" points="18.13 61.12 17.84 62.94 18.85 62.82 18.13 61.12"/>
              </g>
            </g>
          </g>
        </g>
        <path class="cls-36" d="m12.94,65.92s2.32,1.03,2.57,4.59c.52,7.45-5.09,9.16-5.09,9.16-.48-.94-.09-2.21.3-3.11,0,0,2.97-1.72,2.79-5.52-.13-2.72-1.48-4.24-2.16-4.44,0,0,.65-.48,1.59-.68Z"/>
        <path class="cls-33" d="m8.58,79.89c1-.35,1.25-.48,2.52-1.5,1.29-1.04,2.33-2.38,3.34-3.72.12-.16.26-.3.41-.44.14-.14.43-.39.68-.77.44-.67.45-1.11.49-1.91.04-.8-.09-1.61-.33-2.38-.03-.08-.06-.17-.11-.24-.06-.07-.15-.11-.23-.08-.07.02-.12.09-.16.15-.28.43-.48.91-.76,1.35-.13.2-.22.28-.33.49-.01.02-.23.25-.28.15-.05-.11.1-.41.05-.92-.05-.48-.19-.69-.34-.73-.25-.06-.24.2-.35.61-.12.48-.31.87-.29,1.58.02.62-.08.88-.21,1.43-.13.55-.76,1.78-2.3,2.73-.34.21-.44.25-.25-.57.51-2.12.96-3.33,1.45-4.43.62-1.4,1.04-2.48.47-3.05-.99-.98-2.37-.42-3.14,1.25-.89,1.93-1.38,3.39-1.74,6.93-.15,1.53-.3,4.67,1.43,4.07Z"/>
        <path class="cls-3" d="m11.46,66.64c-1.17.05-1.94.52-2.72,2.05-.76,1.49-1.37,4.19-1.37,4.19,0,0,1.1,1.17,3.23,1.11,0,0,1.34-3.51,1.59-4.46.28-1.03.03-2.54-.74-2.9Z"/>
      </g>
    </g>
  </g>
</svg>