<?xml version="1.0" encoding="UTF-8"?>
<svg id="Layer_1" data-name="Layer 1" xmlns="http://www.w3.org/2000/svg" xmlns:xlink="http://www.w3.org/1999/xlink" viewBox="0 0 90 120">
  <defs>
    <style>
      .cls-1 {
        fill: url(#linear-gradient);
      }

      .cls-1, .cls-2, .cls-3, .cls-4, .cls-5, .cls-6, .cls-7, .cls-8, .cls-9, .cls-10, .cls-11, .cls-12, .cls-13, .cls-14, .cls-15, .cls-16, .cls-17, .cls-18, .cls-19, .cls-20, .cls-21, .cls-22 {
        stroke-width: 0px;
      }

      .cls-2 {
        fill: url(#linear-gradient-10);
      }

      .cls-3, .cls-10 {
        opacity: .4;
      }

      .cls-4 {
        fill: url(#linear-gradient-4);
      }

      .cls-5 {
        fill: url(#linear-gradient-2);
      }

      .cls-6 {
        fill: url(#linear-gradient-8);
      }

      .cls-7 {
        fill: url(#linear-gradient-9);
      }

      .cls-8 {
        fill: url(#linear-gradient-7);
      }

      .cls-9 {
        fill: url(#linear-gradient-6);
      }

      .cls-10 {
        fill: url(#linear-gradient-5);
      }

      .cls-11 {
        fill: url(#linear-gradient-3);
        opacity: .2;
      }

      .cls-11, .cls-22 {
        isolation: isolate;
      }

      .cls-12 {
        fill: #f7a7a8;
      }

      .cls-13 {
        fill: #455b64;
      }

      .cls-14 {
        fill: #263238;
      }

      .cls-15 {
        fill: #37474f;
      }

      .cls-16 {
        fill: #e0e0e0;
      }

      .cls-17 {
        fill: #ab6cad;
      }

      .cls-18 {
        fill: #c2c4c5;
      }

      .cls-19 {
        fill: #f3908f;
      }

      .cls-20 {
        fill: #fff;
      }

      .cls-21 {
        fill: #f5f5f5;
      }

      .cls-22 {
        opacity: .15;
      }
    </style>
    <linearGradient id="linear-gradient" x1="1.92" y1="36.13" x2="25.35" y2="36.13" gradientUnits="userSpaceOnUse">
      <stop offset="0" stop-color="#454097"/>
      <stop offset="1" stop-color="#36bdb3"/>
    </linearGradient>
    <linearGradient id="linear-gradient-2" x1="70.49" y1="44.56" x2="80.82" y2="44.56" xlink:href="#linear-gradient"/>
    <linearGradient id="linear-gradient-3" x1="70.49" y1="45.07" x2="79.14" y2="45.07" xlink:href="#linear-gradient"/>
    <linearGradient id="linear-gradient-4" x1="31.32" y1="53.75" x2="44.28" y2="53.75" xlink:href="#linear-gradient"/>
    <linearGradient id="linear-gradient-5" x1="31.32" y1="53.75" x2="44.28" y2="53.75" xlink:href="#linear-gradient"/>
    <linearGradient id="linear-gradient-6" x1="30.88" y1="71.11" x2="31.95" y2="71.11" xlink:href="#linear-gradient"/>
    <linearGradient id="linear-gradient-7" x1="43.63" y1="36.32" x2="44.7" y2="36.32" xlink:href="#linear-gradient"/>
    <linearGradient id="linear-gradient-8" x1="42.57" y1="33.02" x2="46.31" y2="33.02" xlink:href="#linear-gradient"/>
    <linearGradient id="linear-gradient-9" x1="37.42" y1="59.89" x2="39.71" y2="59.89" xlink:href="#linear-gradient"/>
    <linearGradient id="linear-gradient-10" x1="57.95" y1="57.81" x2="66.96" y2="57.81" xlink:href="#linear-gradient"/>
  </defs>
  <ellipse class="cls-21" cx="45.07" cy="76.17" rx="43.02" ry="25.52"/>
  <path id="freepik--shadow--inject-54" class="cls-16" d="m54.34,69.68l-25.82,14.91c-.31.16-.69.16-1,0l-3.07-1.69c-.28-.16-.28-.42,0-.58l25.82-14.91c.31-.16.69-.16,1,0l3.06,1.69c.28.17.28.42,0,.58Z"/>
  <ellipse class="cls-16" cx="61.86" cy="87.86" rx="10.18" ry="5.53"/>
  <ellipse class="cls-16" cx="75.61" cy="71.17" rx="4.32" ry="2.35"/>
  <ellipse class="cls-16" cx="13.63" cy="72.43" rx="6.88" ry="3.74"/>
  <g>
    <path class="cls-16" d="m55.97,11.38l1.33.77v-1.06c0-.61.5-.83,1.12-.47l.05.03c.27.16.52.4.71.67.03-1.03.91-1.38,1.97-.77l.08.05c1.08.63,1.97,2.03,1.97,3.11v1.85s1.23.71,1.23.71c.52.3.95.97.95,1.49,0,.52-.43.7-.95.4l-1.64-.95s0,0,0,0l-3.21-1.85s0,0,0,0l-3.61-2.08c-.52-.3-.95-.97-.95-1.49,0-.52.43-.7.95-.4Z"/>
    <path class="cls-16" d="m65.39,9.4l.92.53v-.73c0-.42.35-.57.77-.33l.03.02c.19.11.36.27.49.46.02-.71.62-.95,1.36-.53l.06.03c.75.43,1.36,1.4,1.36,2.14v1.28s.85.49.85.49c.36.21.65.67.65,1.03s-.29.48-.65.28l-1.13-.65s0,0,0,0l-2.21-1.28s0,0,0,0l-2.49-1.44c-.36-.21-.65-.67-.65-1.03,0-.36.29-.48.65-.28Z"/>
  </g>
  <g>
    <path class="cls-1" d="m11.57,48.71c.36-.04.71.03,1.03.19.62.3,1.13.78,1.69,1.19s1.19.79,1.87.81,1.43-.41,1.56-1.08c0-.12.04-.24.09-.35.14-.18.38-.24.59-.15.2.09.39.2.57.33.7.41,1.58.32,2.37.2.67-.1,1.51-.4,1.51-1.07,0-.44-.4-.76-.69-1.08s-.55-.83-.27-1.17c.11-.12.24-.2.4-.24.83-.27,1.86.09,2.57-.43.52-.4.64-1.19.37-1.76-.31-.58-.86-1-1.5-1.14-.56-.14-1.27-.21-1.48-.75-.18-.47.19-.99.59-1.27s.91-.49,1.2-.91c.29-.45.3-1.03.04-1.49-.27-.46-.73-.77-1.25-.86-.26-.02-.52-.08-.76-.17-.23-.12-.41-.41-.28-.64.08-.14.24-.21.33-.34.18-.25.02-.61-.23-.79-.27-.15-.55-.26-.85-.33-.6-.2-1.19-.79-1.01-1.4s1.06-.84,1.31-1.45c.23-.54-.13-1.17-.62-1.5s-1.09-.45-1.62-.71-1.04-.69-1.09-1.28.41-1.1.77-1.58.68-1.14.36-1.65-.99-.52-1.54-.69c-.68-.22-1.23-.72-1.52-1.37-.15-.34-.22-.71-.4-1.03-.54-1.01-1.92-1.45-2.98-1.33-.56.08-.74.27-1.01.69-.16.24-.32.37-.37.7-.08.49.18,1.11-.28,1.48-.7.57-1.78-.2-1.73,1.07,0,.54.08,1.07.24,1.58.2.53.57.76.25,1.36-.41.77-.68.77-1.5.76-.59,0-1.09-.03-1.53.42-.77.79-.31,1.51.37,2.12.78.7.37,1,.26,1.9-.05.43.05.57-.34.86-.74.55-1.14.36-.94,1.43.2.97-.1.64-.95,1-.75.32-1.24,1.13-1.85,1.63-.4.32-.99.57-1.02,1.14-.07,1.09,1.28.85,1.92,1.11,1.05.42.74,1.8-.08,2.32-.87.54-2.13.75-2.2,1.99-.05.95.49,1.17,1.23,1.48.59.25.52.33.51,1.04,0,1.42.48,1.83,1.88,1.59.38-.06.97-.23,1.35-.11.54.16.36.29.37.74.04,1.15,1.38.82,1.94.33.65-.57,1.47-1.23,2.36-1.32Z"/>
    <path class="cls-22" d="m22.26,46.28c.64-.21,1.38-.05,2.02-.2-.37-.09-.75-.15-1.13-.18-.92-.04-1.81.31-2.44.97.34.41.51.93.49,1.47-1.58.43-3.16-1.7-4.67-1.05.09.77,0,1.8-.74,1.98-.44.1-.88-.2-1.16-.56s-.44-.79-.72-1.15c-.8-.96-2.19-1.17-3.23-.47-.41.3-.92.75-1.33.45-.44-.32-.17-1.19-.66-1.42-.32-.16-.78.09-1.05-.14-.1-.11-.17-.25-.19-.4-.2-.81-.36-1.75.15-2.41.45-.59,1.42-.95,1.31-1.68-.09-.63-.89-.82-1.52-.89s-1.43-.37-1.4-1,.88-.92,1-1.53c.05-.26-.04-.55.08-.79.18-.36.69-.37.99-.64.54-.48.12-1.37.27-2.07.11-.5.51-.89.64-1.38.27-.99-.63-1.92-1.56-2.32-.37-.13-.72-.3-1.06-.5l-.03-.03c.02.44.35.86.77,1.23.78.7.37,1,.26,1.9-.05.43.05.57-.34.86-.74.55-1.14.36-.94,1.43.2.97-.1.64-.95,1-.75.32-1.24,1.13-1.85,1.63-.4.32-.99.57-1.02,1.14-.07,1.09,1.28.85,1.92,1.11,1.05.42.74,1.8-.08,2.32-.87.54-2.13.75-2.2,1.99-.05.95.49,1.17,1.23,1.48.59.25.52.33.51,1.04,0,1.42.48,1.83,1.88,1.59.38-.06.97-.23,1.35-.11.54.16.36.29.37.74.04,1.15,1.38.82,1.94.33.65-.57,1.47-1.22,2.36-1.31.36-.04.71.03,1.03.19.62.3,1.13.78,1.69,1.19s1.19.79,1.87.81,1.43-.41,1.56-1.08c0-.12.04-.24.09-.35.14-.18.38-.24.59-.15.2.09.39.2.57.33.7.41,1.58.32,2.37.2.67-.1,1.51-.4,1.51-1.07,0-.44-.4-.76-.69-1.08s-.55-.83-.27-1.17c.11-.11.24-.18.38-.22Z"/>
    <path class="cls-18" d="m8.8,35.45l4.32,8.56v-3.94l.44-10.24.64,10.24v2.65l4.74-8.3-4.74,10.19v28.5c0,.1-.07.18-.16.22-.24.12-.52.12-.76,0-.09-.04-.15-.12-.16-.22v-26.91l-4.32-10.75Z"/>
  </g>
  <g>
    <path class="cls-5" d="m76.54,36.92c-1.19-.69-2.27-.71-3.05-.19l-1.51.87c-.93.44-1.51,1.56-1.48,3.18v.66c.05,2.73,3.94,10.28,4.42,11.2-.05.06-.09.09-.09.09l.1-.06s.03.06.03.06c0,0,.09-.08.25-.22l1.33-.76s4.28-3.53,4.28-6.43v-.66c0-2.91-1.92-6.38-4.28-7.74Zm-1.78,3.46c1.28.8,2.09,2.17,2.2,3.67,0,.17,0,.32-.03.46-.13-.05-.25-.1-.39-.18-1.26-.83-2.05-2.2-2.13-3.71h-.01c0-.14.01-.27.03-.4.11.04.22.09.33.15Z"/>
    <path class="cls-11" d="m70.5,41.44c.05,2.91,4.47,11.3,4.47,11.3,0,0,4.22-3.59,4.18-6.5v-.66c-.05-2.91-2.02-6.35-4.41-7.67s-4.28-.04-4.23,2.87v.66Zm2.14.21c-.02-1.36.93-1.94,2.12-1.27,1.28.8,2.09,2.17,2.2,3.67.02,1.36-.93,1.94-2.12,1.27-1.28-.8-2.09-2.17-2.2-3.67Z"/>
  </g>
  <g>
    <g>
      <g>
        <path class="cls-13" d="m50.31,20.26l-20.57,11.97c-.61.36-.99,1.01-.99,1.72v48.29c0,.56.61.92,1.1.63l20.33-11.83c.63-.37,1.01-1.04,1.01-1.76V20.77c0-.45-.49-.73-.88-.51Z"/>
        <path class="cls-15" d="m51.19,20.77v.06s0-.07,0-.11c0,.02,0,.03,0,.05Z"/>
        <path class="cls-20" d="m49.7,27.14l-19.33,11.24c-.46.26-.74.75-.74,1.28v35.99c0,.28.3.45.54.31l19.5-11.34c.35-.2.57-.58.57-.99V27.45c0-.28-.3-.45-.54-.31Z"/>
        <path class="cls-15" d="m29.85,82.88s-.07.03-.1.05c.03-.02.07-.03.1-.05Z"/>
        <path class="cls-14" d="m51.18,20.65c-.08-.38-.52-.59-.87-.38l-20.57,11.97c-.28.16-.51.39-.68.66-.2.31-.31.68-.31,1.06v48.29c0,.53.53.87,1,.68-1.14.56-2.62-.37-2.62-.37-1.36-.75-1.26-2.12-1.26-2.12v-48.29c0-.35.09-.69.26-.98.17-.3.42-.56.73-.74l20.57-11.97s.84-.53,2.31.4c0,0,1.31.7,1.44,1.79Z"/>
        <path class="cls-15" d="m51.18,20.65c-.08-.38-.52-.59-.87-.38l-20.57,11.97c-.28.16-.51.39-.68.66l-2.93-1.73c.17-.3.42-.56.73-.74l20.57-11.97s.84-.53,2.31.4c0,0,1.31.7,1.44,1.79Z"/>
        <path class="cls-15" d="m37.27,32.2c0,.43-.35.97-.77,1.22s-.77.1-.77-.33.35-.97.77-1.22c.43-.25.77-.1.77.33Z"/>
        <path class="cls-15" d="m41.33,73.09c0,.77-.62,1.75-1.39,2.19-.77.44-1.39.18-1.39-.59s.62-1.75,1.39-2.19c.77-.44,1.39-.18,1.39.59Z"/>
        <path class="cls-13" d="m26.59,40.43c0,.37.3.84.67,1.05.37.21.67.09.67-.28s-.3-.84-.67-1.05c-.37-.21-.67-.09-.67.28Z"/>
        <path class="cls-13" d="m26.59,44.94c0,.37.3.84.67,1.05.37.21.67.09.67-.28s-.3-.84-.67-1.05c-.37-.21-.67-.09-.67.28Z"/>
        <path class="cls-15" d="m40.29,28.23c0,.2-.16.45-.36.56-.2.11-.36.05-.36-.15s.16-.45.36-.56c.2-.11.36-.05.36.15Z"/>
        <path class="cls-15" d="m38.77,31.9l4.82-2.8c.26-.15.42-.43.42-.73h0c0-.29-.31-.47-.56-.32l-4.82,2.8c-.26.15-.42.43-.42.73h0c0,.29.31.47.56.32Z"/>
      </g>
      <g>
        <path class="cls-16" d="m35.25,35.54v8.92c0,.4-.13.79-.38,1.11l-5.23,6.83v-12.75c0-.53.28-1.02.73-1.28l4.88-2.83Z"/>
        <path class="cls-16" d="m37.08,44.4l5.75-3.34c.38-.22.61-.62.61-1.06v-9.22l-6.91,4.02v9.29c0,.28.31.46.55.32Z"/>
        <path class="cls-16" d="m43.44,42.84v5.32c0,.23-.12.44-.32.55l-3.66,2.13c-.17.1-.28.28-.28.48v3.46c0,.24-.13.46-.33.58l-2.02,1.17c-.13.08-.3-.02-.3-.17v-9.47c0-.3.16-.58.42-.73l6.1-3.54c.17-.1.39.02.39.23Z"/>
        <path class="cls-16" d="m40.18,51.33l3.04-1.77c.1-.06.22.01.22.13v2.7c0,.19-.1.36-.26.45l-2.97,1.72c-.11.06-.24-.01-.24-.14v-2.74c0-.15.08-.29.21-.36Z"/>
        <path class="cls-16" d="m40.18,56.53l3.04-1.77c.1-.06.22.01.22.13v2.7c0,.19-.1.36-.26.45l-2.97,1.72c-.11.06-.24-.01-.24-.14v-2.74c0-.15.08-.29.21-.36Z"/>
        <path class="cls-16" d="m40.18,60.67l3.04-1.77c.1-.06.22.01.22.13v4.35c0,.19-.1.36-.26.45l-2.97,1.72c-.11.06-.24-.01-.24-.14v-4.39c0-.15.08-.29.21-.36Z"/>
        <path class="cls-16" d="m44.18,65.42v2.4l-7.18,4.17v-2.44c0-.28.15-.55.4-.68l6.48-3.62c.13-.07.29.02.29.17Z"/>
        <path class="cls-16" d="m35.25,47.86v11.32c0,.33-.18.64-.47.81l-5.14,2.99v-8.26l5.33-6.95c.09-.12.28-.06.28.1Z"/>
        <path class="cls-16" d="m50.24,27.45v5.33l-4.99,2.84c-.19.11-.43-.03-.43-.25v-5.41l4.87-2.83c.24-.14.54.03.54.31Z"/>
        <path class="cls-16" d="m50.24,36.11v12.62l-5.1,2.96c-.14.08-.31-.02-.31-.18v-9.67c0-.34.14-.66.38-.9l5.03-4.84Z"/>
        <path class="cls-16" d="m50.24,33.53l-5.14,3.18c-.17.11-.27.29-.27.49v2.03c0,.15.18.23.29.13l5.12-4.87v-.96Z"/>
        <path class="cls-16" d="m39.18,57.54v8.13c0,.29-.16.56-.41.71l-6.26,3.64c-.13.08-.3-.02-.3-.17v-6.28c0-.19.1-.36.26-.46l3.79-2.21c.16-.09.26-.27.26-.46v-1.52c0-.2.1-.37.27-.47l1.98-1.15c.18-.1.4.03.4.23Z"/>
        <path class="cls-16" d="m35.64,70.38v2.4l-5.47,3.18c-.24.14-.54-.03-.54-.31v-10.88l.69-.4c.13-.07.29.02.29.17v7.61c0,.22.24.37.44.26l4.11-2.29c.21-.12.47.03.47.27Z"/>
        <path class="cls-16" d="m50.24,50.67v12.5l-4.6,2.69c-.22.13-.5-.03-.5-.29v-11.44c0-.31.16-.59.43-.74l4.67-2.72Z"/>
      </g>
      <g>
        <path class="cls-4" d="m31.52,71.17h-.2v-8.02c0-.22.11-.42.3-.53l4.1-2.47c.12-.07.2-.21.2-.35v-13.59c0-.28.15-.54.39-.68l7.36-4.42c.26-.16.43-.45.43-.75v-4.04h.2v4.04c0,.38-.2.73-.52.92l-7.36,4.42c-.18.11-.29.3-.29.51v13.59c0,.21-.11.41-.29.52l-4.1,2.47c-.13.08-.2.21-.2.36v8.02Z"/>
        <path class="cls-10" d="m31.52,71.17h-.2v-8.02c0-.22.11-.42.3-.53l4.1-2.47c.12-.07.2-.21.2-.35v-13.59c0-.28.15-.54.39-.68l7.36-4.42c.26-.16.43-.45.43-.75v-4.04h.2v4.04c0,.38-.2.73-.52.92l-7.36,4.42c-.18.11-.29.3-.29.51v13.59c0,.21-.11.41-.29.52l-4.1,2.47c-.13.08-.2.21-.2.36v8.02Z"/>
        <path class="cls-9" d="m31.95,70.81c0,.29-.24.67-.53.84-.29.17-.53.07-.53-.23s.24-.67.53-.84c.29-.17.53-.07.53.23Z"/>
        <path class="cls-8" d="m44.7,36.01c0,.29-.24.67-.53.84-.29.17-.53.07-.53-.23s.24-.67.53-.84c.29-.17.53-.07.53.23Z"/>
      </g>
      <path class="cls-6" d="m45.87,32.92h0c.23-.36.39-.75.43-1.11.11-.96-.63-1.38-1.66-.94-1.03.44-1.95,1.59-2.06,2.55-.04.36.04.64.2.83h0s.01.01.01.01c.03.03.07.06.1.09l1.08.97c.07.06.23,0,.32-.14l1.42-2.04c.06-.07.11-.15.16-.23h0Zm-1.33-1.18c.52-.22.89-.01.84.47s-.52,1.06-1.04,1.28c-.52.22-.89.01-.84-.47s.52-1.06,1.04-1.28Z"/>
    </g>
    <g>
      <path class="cls-7" d="m39.57,58.03l-1.98,1.14c-.11.06-.18.18-.18.31v2.19c0,.06.07.1.12.07l.67-.39.23.39s.05.02.06,0l.21-.68.78-.45c.13-.08.21-.22.21-.37v-2.12c0-.07-.08-.12-.14-.08Z"/>
      <g>
        <path class="cls-20" d="m38.04,60.33v.23l-.12.07v-.23l-.26-.28.13-.08.19.21.19-.43.12-.07-.26.57Z"/>
        <path class="cls-20" d="m38.4,60.33s-.07-.01-.1-.04c-.02-.03-.03-.06-.03-.11s.01-.1.03-.15c.02-.05.05-.1.1-.15.04-.05.09-.08.14-.11.05-.03.1-.05.14-.05.04,0,.07.01.09.04s.03.06.03.11-.01.1-.03.15c-.02.05-.05.1-.09.15-.04.05-.09.08-.14.11-.05.03-.1.04-.14.05Zm.24-.25s.04-.09.04-.14-.01-.08-.04-.09c-.03-.01-.06,0-.11.02-.04.02-.08.06-.11.1-.03.04-.04.09-.04.14s.01.08.04.09c.03.01.06,0,.11-.02.04-.03.08-.06.11-.1Z"/>
        <path class="cls-20" d="m39.4,59.28v.5l-.11.06v-.06s-.04.06-.07.09c-.03.03-.06.05-.09.07-.07.04-.12.05-.16.04-.04-.01-.06-.06-.06-.13v-.29l.12-.07v.27s.01.07.03.08c.02.01.05,0,.09-.02.04-.02.07-.06.1-.1.02-.04.04-.08.04-.13v-.25l.12-.07Z"/>
      </g>
    </g>
  </g>
  <g>
    <g>
      <path class="cls-14" d="m66.88,84.95s.08.1.09.35c.02.24.03.94,0,1.11-.03.17-.4.42-.86.37-.45-.05-.77-.4-1-.75-.23-.34-1.21-1.53-1.39-1.82-.18-.29-.46-1.05-.11-1.36.29-.26,1.4.34,1.69.67.29.33,1.57,1.43,1.57,1.43Z"/>
      <path class="cls-14" d="m62.18,88.43s.14.19.22.55c.07.32.18,1.08.13,1.31-.03.11-.42.39-.81.41-.23.01-.51.02-.73.03-.17,0-.33.05-.48.12-.27.14-.75.37-1.24.56-.74.28-1.71.39-2.18.29-.47-.1-1.02-.39-1.24-.68-.1-.14-.07-.4.02-.48.57-.48,1.52-.71,2.11-.96.99-.41,2.14-1.12,2.29-1.23.14-.11,1.92.07,1.92.07Z"/>
      <path class="cls-12" d="m62.18,87.35v1.09s-.28.41-.98.45c-.59.03-.9-.36-.95-.51,0,0,.06-.7.03-1.02h1.9Z"/>
      <path class="cls-12" d="m66.88,84.29v.65s-.1.34-.75.36c-.51.02-.8-.25-.8-.25l-.14-.96,1.69.19Z"/>
      <path class="cls-17" d="m58.16,64.25s.23,10.35.53,12.24c.21,1.3,1.58,11.13,1.58,11.13,1.03.54,1.94-.02,1.94-.02,0,0,0-.35.05-.91.04-.57.48-5.37.43-7.17-.04-1.81-.61-3.06-.61-3.06l.61-8.93.28.04s-.01.95.1,2.64c0,0,.23,3.41.3,4.08.15,1.25.99,5.8,1.23,7,.22,1.08.58,3.08.58,3.08.53.53,1.68.11,1.68.11,0,0,.06-1.36.12-2.18.06-.83.31-4.54.21-5.52-.14-1.36-.7-2.67-.65-3.01.29-2,.32-10.52.32-10.52l-8.71,1Z"/>
      <path class="cls-3" d="m58.16,64.25s.23,10.35.53,12.24c.21,1.3,1.58,11.13,1.58,11.13,1.03.54,1.94-.02,1.94-.02,0,0,0-.35.05-.91.04-.57.48-5.37.43-7.17-.04-1.81-.61-3.06-.61-3.06l.61-8.93.28.04s-.01.95.1,2.64c0,0,.23,3.41.3,4.08.15,1.25.99,5.8,1.23,7,.22,1.08.58,3.08.58,3.08.53.53,1.68.11,1.68.11,0,0,.06-1.36.12-2.18.06-.83.31-4.54.21-5.52-.14-1.36-.7-2.67-.65-3.01.29-2,.32-10.52.32-10.52l-8.71,1Z"/>
      <path class="cls-3" d="m62.7,67.54l.28.04s-.02,1.01.11,2.81c0,0,.05.86.12,1.82l.46-4.58c1.32-.72,2.2-1.97,2.2-1.97-1.88,1.44-3.18,1.88-3.18,1.88h0Z"/>
    </g>
    <path class="cls-15" d="m67.39,51.96c-.44-.62-1.09-.79-1.09-.79l.35,10.54s2.56-1.15,2.65-1.83c.08-.6-1.43-7.25-1.9-7.92Z"/>
    <path class="cls-12" d="m58.78,46.24c-.01-.44-.01-1,0-1.2.05-.78.28-1.09.28-1.09.96-1.25,4.45-.97,4.7-.27.25.69.74,4.53-.34,5.21.11.6.42,2.06.42,2.06-.87.79-2.7.54-2.7.54.05-.27-.19-1.33-.32-1.88-.75.09-1.4.08-1.61-.08t0,0s-.03-.03-.04-.04c-.16-.23-.28-1.11-.34-2.17-.2.03-.5.05-.54-.03-.04-.09.31-.74.5-1.07Z"/>
    <path class="cls-14" d="m60.78,46.32s-.1-.69.58-.75c.68-.06,1.11.81.78,1.46-.34.64-.78.68-.78.68,0,0-.09.74,0,1.28.04.24.25.42.5.41.49-.01,1.38-.09,2.04-.41.96-.47,1.61-1.44,1.97-2.82.36-1.38.42-2.68-.6-2.72,0,0,0-.39.56-.54,0,0-.63-.29-.91.24,0,0-.07-1.01-1.08-1.32-1.01-.3-2.27.15-3.36.39-1.09.24-2.53.12-2.65.27-.12.16-.66,3.21,2.38,3.07,0,0,.14.74.57.76Z"/>
    <path class="cls-19" d="m59.22,49.55c.21.16.86.17,1.61.08,0,0,.27-.16.4-.4-.06.03-1.25.54-2.01.32Z"/>
    <path class="cls-2" d="m58.14,57.03v7.25s2.59,1.02,5.04.66c2.45-.36,3.75-1.73,3.75-1.73,0,0,.11-9.57-.07-10.73-.18-1.16-.96-1.71-1.56-1.84-.6-.13-1.5.12-1.5.12-1.26.72-2.61.6-2.61.6-.69.23-1.44.58-2.08.83-1.79.7-.97,4.85-.97,4.85Z"/>
    <polygon class="cls-15" points="53.37 56.54 51.72 51.57 54.35 50.11 54.56 50.16 56 55.08 53.37 56.54"/>
    <polygon class="cls-13" points="53.58 56.59 51.93 51.62 54.56 50.16 56.21 55.13 53.58 56.59"/>
    <polygon class="cls-20" points="53.64 56.08 52.27 51.98 54.54 50.71 55.9 54.81 53.64 56.08"/>
    <path class="cls-12" d="m52.18,52.8s.13-.1.19.25c.06.35.39,1.6,1,2.01,0,0,.13.05.14-.06,0-.12.01-.5.13-.81.12-.31.43-.52.58-.46s-.01.62,0,.83.3.71.32.94c.01.23-.02.41,0,.5s.69.82.69.82l-1.29,1.63s-.84-1.11-1.05-1.33c-.22-.22-.59-.65-.7-1.04-.11-.39-.32-1.34-.33-1.68,0-.34-.01-1.49.33-1.59Z"/>
    <path class="cls-15" d="m59.62,51.97l.84-.12s.67.04.51,2.03c-.16,2-2.15,7.39-2.64,8.05-.67.88-1.43.34-1.58.14-.16-.2-1.81-2.07-2.82-3.63,0,0,.23-1.48,1.37-1.64l1.33,1.36s.41-1.52.83-3.16c.38-1.47.79-2.72,2.16-3.03Z"/>
  </g>
</svg>